<svg id="3bb60ab4-8fb5-43a8-a1fd-f14041aebe28" data-name="Layer 1" xmlns="http://www.w3.org/2000/svg" viewBox="0 0 165.21464 129.67247"><defs><style>.\33 a31fb32-78dc-4109-970b-7fc2bf29c975{fill:#3c3c3b;}.c9d558bb-7c06-4cb1-93f6-3c77ecf0b084{fill:#95c11f;}</style></defs><title>ActiveMindLogo</title><path class="3a31fb32-78dc-4109-970b-7fc2bf29c975" d="M348.37793,130.75732a.88439.88439,0,0,1,.95264.74414l5.53711,18.75538c.14892.47607-.02979.74414-.53565.74414h-2.6792c-.50635,0-.71484-.26807-.86377-.74414l-1.0415-3.63184H344.21l-1.042,3.63184c-.14844.47607-.35693.74414-.89307.74414h-2.41113c-.53565,0-.71436-.26807-.56543-.74414l5.56689-18.75538a.855.855,0,0,1,.92286-.74414Zm-.50586,9.37745a44.62387,44.62387,0,0,1-.86377-5.418c-.05908.3872-.56543,4.13818-.92285,5.38818l-1.01221,3.33447h3.78125Z" transform="translate(-338.85106 -21.56679)"/><path class="3a31fb32-78dc-4109-970b-7fc2bf29c975" d="M372.16211,146.38672c0,2.50049-1.60742,4.85254-6.99561,4.85254-5.38867,0-6.99609-2.352-6.99609-4.85254V135.37158c0-2.50049,1.60742-4.852,6.99609-4.852,5.38819,0,6.99561,2.35156,6.99561,4.852v1.4292c0,.53565-.17822.74414-.68457.74414h-2.4707c-.53614,0-.74414-.20849-.74414-.74414v-.71435c0-1.48877-1.042-2.23291-3.03663-2.23291s-3.00683.74414-3.00683,2.23291v9.58593c0,1.48828,1.01221,2.23243,3.00683,2.23243s3.03663-.74415,3.03663-2.23243V144.541c0-.53614.208-.74414.74414-.74414h2.4707c.50635,0,.68457.208.68457.74414Z" transform="translate(-338.85106 -21.56679)"/><path class="3a31fb32-78dc-4109-970b-7fc2bf29c975" d="M388.3252,130.75732c.50585,0,.74414.17872.74414.71436v1.876c0,.53564-.23829.74414-.74414.74414h-4.22754v16.13525c0,.53565-.17871.77393-.71436.77393h-2.58984c-.53614,0-.74463-.23828-.74463-.77393V134.0918h-4.22705c-.53614,0-.74414-.2085-.74414-.74414v-1.876c0-.53564.208-.71436.74414-.71436Z" transform="translate(-338.85106 -21.56679)"/><path class="3a31fb32-78dc-4109-970b-7fc2bf29c975" d="M396.92725,150.22705c0,.53565-.17871.77393-.71485.77393h-2.58984c-.53565,0-.71436-.23828-.71436-.77393v-18.6958c0-.53564.17871-.77393.71436-.77393h2.58984c.53614,0,.71485.23829.71485.77393Z" transform="translate(-338.85106 -21.56679)"/><path class="3a31fb32-78dc-4109-970b-7fc2bf29c975" d="M407.31592,151.001a.855.855,0,0,1-.92285-.74414l-5.5669-18.75538c-.14892-.47607.0293-.74414.56543-.74414h2.82813c.50586,0,.71435.26807.86328.74414l2.88769,10.12208a32.926,32.926,0,0,1,.71436,4.3164,39.51712,39.51712,0,0,1,.80371-4.28662l2.88769-10.15186c.14893-.47607.35743-.74414.89307-.74414h2.59033c.50586,0,.68457.26807.53565.74414l-5.53711,18.75538a.88438.88438,0,0,1-.95264.74414Z" transform="translate(-338.85106 -21.56679)"/><path class="3a31fb32-78dc-4109-970b-7fc2bf29c975" d="M421.0376,151.001c-.53565,0-.71436-.23828-.71436-.77393v-18.6958c0-.53564.17871-.77393.71436-.77393h10.18115c.50586,0,.74414.17872.74414.71436v1.876c0,.53564-.23828.74414-.74414.74414h-6.877v4.82275h6.37109c.53613,0,.77441.17822.77441.71436V141.415c0,.50635-.23828.71435-.77441.71435H424.3418v5.5376h7.1748c.53613,0,.74414.17822.74414.71436v1.87549c0,.53564-.208.74414-.74414.74414Z" transform="translate(-338.85106 -21.56679)"/><path class="c9d558bb-7c06-4cb1-93f6-3c77ecf0b084" d="M454.31836,150.43555c0,.38672-.14844.56543-.53516.56543h-1.75683c-.38672,0-.53614-.17871-.53614-.56543V136.771c-.05957.14892-.44628,1.51806-.71386,2.20312l-3.4541,8.36524a.77878.77878,0,0,1-.74415.59521h-1.54785c-.38672,0-.56543-.23828-.71386-.59521L440.624,138.6167a13.16677,13.16677,0,0,1-.56543-1.78613v13.605c0,.38672-.14843.56543-.53515.56543h-1.668c-.38672,0-.53516-.17871-.53516-.56543V131.32324c0-.3872.14844-.56592.53516-.56592h1.668a.496.496,0,0,1,.50586.32764l5.15039,11.96729c.208.50634.59472,1.66748.625,1.78613.02929-.11865.44629-1.25.65429-1.75635l5.06153-12.05664c.08887-.2085.23828-.26807.50586-.26807h1.75683c.38672,0,.53516.17872.53516.56592Z" transform="translate(-338.85106 -21.56679)"/><path class="c9d558bb-7c06-4cb1-93f6-3c77ecf0b084" d="M463.45605,150.40576c0,.41651-.11914.59522-.53613.59522h-1.8164c-.38672,0-.53516-.17871-.53516-.59522V131.353c0-.417.14844-.59571.53516-.59571h1.8164c.417,0,.53613.17872.53613.59571Z" transform="translate(-338.85106 -21.56679)"/><path class="c9d558bb-7c06-4cb1-93f6-3c77ecf0b084" d="M483.252,150.43555c0,.38672-.11914.56543-.53613.56543h-1.6377a.53785.53785,0,0,1-.53515-.26807l-6.99609-12.26514a17.91941,17.91941,0,0,1-1.07227-2.14355v14.11133c0,.38672-.14844.56543-.53516.56543h-1.668c-.38671,0-.53515-.17871-.53515-.56543V131.32324c0-.3872.14844-.56592.53515-.56592h1.668a.5064.5064,0,0,1,.47559.23829l7.1748,12.5332c.417.71435.92286,1.90527.92286,1.90527V131.32324a.49242.49242,0,0,1,.56542-.56592h1.6377c.417,0,.53613.17872.53613.56592Z" transform="translate(-338.85106 -21.56679)"/><path class="c9d558bb-7c06-4cb1-93f6-3c77ecf0b084" d="M490.00684,151.001c-.35645,0-.47559-.2085-.47559-.59522V131.353c0-.417.14844-.59571.53516-.59571h6.22265c5.08985,0,6.78711,2.14356,6.78711,4.58448v11.0747c0,2.44092-1.69726,4.58448-6.78711,4.58448Zm2.41211-17.77246v15.30175h3.87011c2.67871,0,3.87012-.98242,3.87012-2.59033V135.81836c0-1.60742-1.19141-2.58984-3.87012-2.58984Z" transform="translate(-338.85106 -21.56679)"/><polygon class="3a31fb32-78dc-4109-970b-7fc2bf29c975" points="41.47 66.112 53.743 37.249 40.808 6.813 0 102.173 26.144 102.173 32.906 86.246 74.566 86.246 66.009 66.112 41.47 66.112"/><polygon class="3a31fb32-78dc-4109-970b-7fc2bf29c975" points="71.221 0 45.016 0 57.295 28.894 57.698 27.947 73.625 66.112 73.18 66.112 81.737 86.246 82.189 86.246 88.8 102.173 115.095 102.173 71.221 0"/><path class="c9d558bb-7c06-4cb1-93f6-3c77ecf0b084" d="M410.07171,21.56686l31.64461,73.69292L476.56866,21.567h27.497V123.7402H479.27341V71.60177L454.78193,123.7402H427.28538L383.86412,21.56686" transform="translate(-338.85106 -21.56679)"/></svg>