<svg id="1495269a-6ab2-46da-9696-7984ea3668b8" data-name="Layer 1" xmlns="http://www.w3.org/2000/svg" viewBox="0 0 225.81253 170.53839"><defs><style>.\34 c5ad7cd-24c8-4149-b722-17e6c6f2d85e{fill:#3c3c3b;}.\33 c404e03-ad5a-46a6-9d54-a5fc1385942c{fill:#2dac6e;}</style></defs><title>ADLogo</title><path class="4c5ad7cd-24c8-4149-b722-17e6c6f2d85e" d="M177.41162,541.10449a1.28252,1.28252,0,0,1,1.38184,1.08008l8.03174,27.20508c.2163.69043-.043,1.0791-.77735,1.0791h-3.88623c-.73389,0-1.03613-.38867-1.25244-1.0791l-1.51123-5.26856h-8.03174l-1.51172,5.26856c-.21582.69043-.51806,1.0791-1.29541,1.0791h-3.49756c-.77734,0-1.03662-.38867-.82031-1.0791l8.07471-27.20508a1.24084,1.24084,0,0,1,1.33887-1.08008Zm-.73389,13.60254a64.71664,64.71664,0,0,1-1.25244-7.85937c-.08642.56152-.82031,6.00293-1.33886,7.8164L172.61816,559.5h5.48438Z" transform="translate(-163.59305 -400.27606)"/><path class="4c5ad7cd-24c8-4149-b722-17e6c6f2d85e" d="M211.916,563.77539c0,3.62695-2.33155,7.03906-10.14747,7.03906-7.8164,0-10.14794-3.41211-10.14794-7.03906V547.79785c0-3.627,2.33154-7.03808,10.14794-7.03808,7.81592,0,10.14747,3.41113,10.14747,7.03808v2.07324c0,.77735-.25879,1.07911-.99317,1.07911h-3.584c-.77735,0-1.07959-.30176-1.07959-1.07911V548.834c0-2.15918-1.51123-3.23828-4.40479-3.23828-2.89306,0-4.36133,1.0791-4.36133,3.23828v13.90528c0,2.15918,1.46827,3.23828,4.36133,3.23828,2.89356,0,4.40479-1.0791,4.40479-3.23828v-1.64063c0-.77734.30224-1.08008,1.07959-1.08008h3.584c.73438,0,.99317.30274.99317,1.08008Z" transform="translate(-163.59305 -400.27606)"/><path class="4c5ad7cd-24c8-4149-b722-17e6c6f2d85e" d="M235.36621,541.10449c.73389,0,1.0791.25977,1.0791,1.03613v2.72071c0,.77734-.34521,1.08008-1.0791,1.08008h-6.13232V569.3457c0,.77735-.25879,1.12305-1.03614,1.12305h-3.75683c-.77735,0-1.07959-.3457-1.07959-1.12305V545.94141h-6.13184c-.77734,0-1.07959-.30274-1.07959-1.08008v-2.72071c0-.77636.30225-1.03613,1.07959-1.03613Z" transform="translate(-163.59305 -400.27606)"/><path class="4c5ad7cd-24c8-4149-b722-17e6c6f2d85e" d="M247.84766,569.3457c0,.77735-.25928,1.12305-1.03662,1.12305H243.0542c-.77734,0-1.03613-.3457-1.03613-1.12305V542.22754c0-.77734.25879-1.123,1.03613-1.123H246.811c.77734,0,1.03662.34571,1.03662,1.123Z" transform="translate(-163.59305 -400.27606)"/><path class="4c5ad7cd-24c8-4149-b722-17e6c6f2d85e" d="M262.91846,570.46875a1.2408,1.2408,0,0,1-1.33887-1.0791l-8.07471-27.20508c-.21631-.69141.043-1.08008.82032-1.08008h4.10205c.73437,0,1.03662.38867,1.25244,1.08008l4.189,14.68164a47.88117,47.88117,0,0,1,1.03614,6.26172,57.21583,57.21583,0,0,1,1.166-6.21875l4.18848-14.72461c.21631-.69141.51855-1.08008,1.29541-1.08008h3.75683c.73438,0,.99366.38867.77735,1.08008l-8.03174,27.20508a1.28253,1.28253,0,0,1-1.38184,1.0791Z" transform="translate(-163.59305 -400.27606)"/><path class="4c5ad7cd-24c8-4149-b722-17e6c6f2d85e" d="M282.82764,570.46875c-.77735,0-1.03614-.3457-1.03614-1.12305V542.22754c0-.77734.25879-1.123,1.03614-1.123h14.76855c.73389,0,1.07959.25977,1.07959,1.03613v2.72071c0,.77734-.3457,1.08008-1.07959,1.08008h-9.9751v6.99511h9.24073c.77734,0,1.123.25879,1.123,1.03614v2.59179c0,.7334-.3457,1.03614-1.123,1.03614h-9.24073v8.03222h10.40674c.77735,0,1.07959.25879,1.07959,1.03614v2.7207c0,.77637-.30224,1.0791-1.07959,1.0791Z" transform="translate(-163.59305 -400.27606)"/><path class="3c404e03-ad5a-46a6-9d54-a5fc1385942c" d="M307.14111,570.46875c-.51806,0-.69091-.30273-.69091-.86328V541.96875c0-.60449.21582-.86426.77734-.86426h9.0249c7.38428,0,9.8457,3.10938,9.8457,6.65039v16.06348c0,3.541-2.46142,6.65039-9.8457,6.65039Zm3.49756-25.78027v22.19629h5.61377c3.88672,0,5.61377-1.42481,5.61377-3.75684V548.44531c0-2.33105-1.72705-3.75683-5.61377-3.75683Z" transform="translate(-163.59305 -400.27606)"/><path class="3c404e03-ad5a-46a6-9d54-a5fc1385942c" d="M338.9248,569.60547c0,.60449-.17236.86328-.77734.86328h-2.63379c-.56152,0-.77734-.25879-.77734-.86328V541.96875c0-.60449.21582-.86426.77734-.86426h2.63379c.605,0,.77734.25977.77734.86426Z" transform="translate(-163.59305 -400.27606)"/><path class="3c404e03-ad5a-46a6-9d54-a5fc1385942c" d="M348.81445,570.46875c-.56152,0-.77734-.25879-.77734-.86328V541.96875c0-.60449.21582-.86426.77734-.86426h14.76807c.56152,0,.8208.21582.8208.82031v1.94336c0,.6045-.25928.82032-.8208.82032H352.22559v8.72363h10.58007c.6045,0,.86329.21582.86329.82031v1.85645c0,.56152-.25879.82031-.86329.82031H352.22559v9.97559h11.832c.56152,0,.82031.17285.82031.77734v1.98633c0,.60449-.25879.82031-.82031.82031Z" transform="translate(-163.59305 -400.27606)"/><path class="3c404e03-ad5a-46a6-9d54-a5fc1385942c" d="M388.45752,541.10449c.561,0,.82031.21582.82031.82031v1.94336c0,.6045-.25928.82032-.82031.82032h-6.90918v24.917c0,.60449-.21582.86328-.77734.86328h-2.67725c-.56152,0-.77734-.25879-.77734-.86328v-24.917h-6.90918c-.6045,0-.82032-.21582-.82032-.82032V541.9248c0-.60449.21582-.82031.82032-.82031Z" transform="translate(-163.59305 -400.27606)"/><polygon class="4c5ad7cd-24c8-4149-b722-17e6c6f2d85e" points="50.923 80.809 66.104 45.595 50.476 8.304 0 124.646 31.965 124.805 40.329 105.373 91.264 105.628 80.925 80.959 50.923 80.809"/><polygon class="3c404e03-ad5a-46a6-9d54-a5fc1385942c" points="55.662 0 70.499 35.402 89.693 81.003 100.585 105.675 108.636 125.349 140.719 125.349 87.701 0.16 55.662 0"/><polygon class="3c404e03-ad5a-46a6-9d54-a5fc1385942c" points="225.813 125.343 182.555 25.887 171.296 0 156.09 0 139.536 0 96.402 0 109.732 31.789 153.346 31.789 166.241 61.473 166.241 61.473 180.179 93.559 136.004 93.559 149.334 125.349 195.693 125.349 195.693 125.348 202.816 125.343 225.813 125.343"/></svg>