<svg id="bc9e40ca-6c39-4187-b1c6-c58963c0efc1" data-name="Layer 1" xmlns="http://www.w3.org/2000/svg" viewBox="0 0 186.48138 173.38498"><defs><style>.\37 819e32c-03e4-4d74-b115-c6442a11aad8{fill:#3c3c3b;}.\39 ada9e70-26e2-4bf1-bbaf-02dca950002d{fill:#784494;}.eb89c5b0-57b0-433c-9ad9-1a81b0a4e16a{fill:#95c11f;}</style></defs><title>AELogo</title><path class="7819e32c-03e4-4d74-b115-c6442a11aad8" d="M463.40234,340.09961a.90114.90114,0,0,1,.97071.75879l5.64257,19.11035c.15137.48535-.03027.75879-.54687.75879h-2.72949c-.51563,0-.72852-.27344-.87988-.75879l-1.06153-3.7002h-5.64258l-1.06152,3.7002c-.15137.48535-.36426.75879-.91016.75879h-2.457c-.5459,0-.72754-.27344-.57617-.75879l5.67285-19.11035a.871.871,0,0,1,.94043-.75879Zm-.51562,9.55566a45.4405,45.4405,0,0,1-.87988-5.5205c-.06055.39453-.57618,4.21679-.94043,5.49023l-1.03125,3.39746h3.85254Z" transform="translate(-453.69538 -187.58572)"/><path class="7819e32c-03e4-4d74-b115-c6442a11aad8" d="M487.6416,356.02539c0,2.54883-1.63769,4.94531-7.1289,4.94531-5.49024,0-7.12793-2.39648-7.12793-4.94531V344.80176c0-2.54785,1.63769-4.94434,7.12793-4.94434,5.49121,0,7.1289,2.39649,7.1289,4.94434v1.45605c0,.5459-.18164.75879-.69726.75879h-2.51856c-.5459,0-.75781-.21289-.75781-.75879v-.72754c0-1.5166-1.06152-2.27539-3.09375-2.27539-2.0332,0-3.06445.75879-3.06445,2.27539v9.76758c0,1.5166,1.03125,2.27442,3.06445,2.27442,2.03223,0,3.09375-.75782,3.09375-2.27442v-1.15332c0-.5459.21191-.75781.75781-.75781h2.51856c.51562,0,.69726.21191.69726.75781Z" transform="translate(-453.69538 -187.58572)"/><path class="7819e32c-03e4-4d74-b115-c6442a11aad8" d="M504.11523,340.09961c.51563,0,.75782.18262.75782.72851v1.91114c0,.5459-.24219.75879-.75782.75879h-4.30761v16.44043c0,.5459-.18262.78906-.72852.78906h-2.63867c-.5459,0-.75879-.24316-.75879-.78906V343.49805H491.374c-.5459,0-.75781-.21289-.75781-.75879v-1.91114c0-.54589.21191-.72851.75781-.72851Z" transform="translate(-453.69538 -187.58572)"/><path class="7819e32c-03e4-4d74-b115-c6442a11aad8" d="M512.88281,359.93848c0,.5459-.18261.78906-.72851.78906h-2.63868c-.54589,0-.72851-.24316-.72851-.78906V340.88867c0-.5459.18262-.78906.72851-.78906h2.63868c.5459,0,.72851.24316.72851.78906Z" transform="translate(-453.69538 -187.58572)"/><path class="7819e32c-03e4-4d74-b115-c6442a11aad8" d="M523.4707,360.72754a.871.871,0,0,1-.94043-.75879l-5.67285-19.11035c-.15137-.48535.03028-.75879.57617-.75879h2.88184c.51562,0,.72852.27344.87988.75879l2.94239,10.31348a33.57805,33.57805,0,0,1,.72753,4.39843,40.25835,40.25835,0,0,1,.81934-4.36816L528.627,340.8584c.15235-.48535.36426-.75879.91016-.75879h2.63867c.5166,0,.69824.27344.54688.75879l-5.64258,19.11035a.90114.90114,0,0,1-.9707.75879Z" transform="translate(-453.69538 -187.58572)"/><path class="7819e32c-03e4-4d74-b115-c6442a11aad8" d="M537.45605,360.72754c-.54589,0-.72851-.24316-.72851-.78906V340.88867c0-.5459.18262-.78906.72851-.78906h10.374c.51562,0,.75879.18262.75879.72851v1.91114c0,.5459-.24317.75879-.75879.75879h-7.00684v4.91406h6.49121c.5459,0,.78907.18164.78907.72754V350.96c0,.51563-.24317.72754-.78907.72754h-6.49121v5.64258h7.31055c.5459,0,.75781.18164.75781.72851v1.91016c0,.54687-.21191.75879-.75781.75879Z" transform="translate(-453.69538 -187.58572)"/><path class="9ada9e70-26e2-4bf1-bbaf-02dca950002d" d="M554.5957,360.72754c-.39453,0-.5459-.18164-.5459-.60645V340.707c0-.4248.15137-.60742.5459-.60742h10.375c.39356,0,.57618.15234.57618.57715V342.041c0,.4248-.18262.57714-.57618.57714h-7.97851v6.127h7.43164c.4248,0,.60742.15234.60742.57715V350.626c0,.39453-.18262.57617-.60742.57617h-7.43164V358.21h8.31152c.39453,0,.57715.12109.57715.5459v1.39551c0,.4248-.18262.57617-.57715.57617Z" transform="translate(-453.69538 -187.58572)"/><path class="9ada9e70-26e2-4bf1-bbaf-02dca950002d" d="M582.44531,340.09961c.39453,0,.57617.15234.57617.57715V342.041c0,.4248-.18164.57714-.57617.57714H577.5918v17.50293c0,.42481-.15137.60645-.5459.60645H575.165c-.39453,0-.5459-.18164-.5459-.60645V342.61816h-4.85352c-.4248,0-.57617-.15234-.57617-.57714v-1.36426c0-.42481.15137-.57715.57617-.57715Z" transform="translate(-453.69538 -187.58572)"/><path class="9ada9e70-26e2-4bf1-bbaf-02dca950002d" d="M590.36426,348.68457H598.251V340.707c0-.4248.15234-.60742.54687-.60742h1.87988c.39454,0,.54688.18262.54688.60742v19.41406c0,.42481-.15234.60645-.54688.60645h-1.87988c-.39453,0-.54687-.18164-.54687-.60645v-8.91894h-7.88672v8.91894c0,.42481-.1211.60645-.5459.60645h-1.85059c-.39453,0-.54589-.18164-.54589-.60645V340.707c0-.4248.15136-.60742.54589-.60742h1.85059c.4248,0,.5459.18262.5459.60742Z" transform="translate(-453.69538 -187.58572)"/><path class="9ada9e70-26e2-4bf1-bbaf-02dca950002d" d="M607.292,344.5293c0-2.48828,1.69922-4.67188,6.88672-4.67188,5.2168,0,6.916,2.1836,6.916,4.67188v11.76953c0,2.4873-1.69922,4.67187-6.916,4.67187-5.1875,0-6.88672-2.18457-6.88672-4.67187Zm10.83008.48535c0-1.63867-1.21387-2.63965-3.94336-2.63965-2.70019,0-3.91309,1.001-3.91309,2.63965v10.79883c0,1.63769,1.2129,2.63867,3.91309,2.63867,2.72949,0,3.94336-1.001,3.94336-2.63867Z" transform="translate(-453.69538 -187.58572)"/><path class="9ada9e70-26e2-4bf1-bbaf-02dca950002d" d="M637.11328,344.92285c0-1.63769-1.001-2.57812-3.6709-2.57812-2.66894,0-3.6709.94043-3.6709,2.57812v.60742a1.99663,1.99663,0,0,0,1.54786,2.03223l5.5205,2.09277c1.82032.69825,3.33692,1.88086,3.33692,4.126v2.51758c0,2.4873-1.72949,4.67187-6.79492,4.67187s-6.8252-2.18457-6.8252-4.67187v-1.75977c0-.4248.18164-.60644.57617-.60644h1.79c.39453,0,.5459.18164.5459.60644v1.36524c0,1.63769,1.15234,2.57812,3.88281,2.57812s3.91309-.94043,3.91309-2.57812v-1.42578c0-1.51661-1.36524-2.03223-2.54785-2.48731l-5.127-1.97168a4.1432,4.1432,0,0,1-2.69922-3.76172V344.5293c0-2.48828,1.57715-4.67188,6.52149-4.67188s6.583,2.1836,6.583,4.67188v1.334c0,.39453-.15235.57715-.54688.57715h-1.78906c-.4248,0-.5459-.18262-.5459-.57715Z" transform="translate(-453.69538 -187.58572)"/><polygon class="7819e32c-03e4-4d74-b115-c6442a11aad8" points="54.699 89.304 70.845 51.331 53.826 11.09 0 136.869 34.484 136.869 43.402 115.861 98.174 115.861 86.927 89.304 54.699 89.304"/><path class="eb89c5b0-57b0-433c-9ad9-1a81b0a4e16a" d="M487.38477,391.27818" transform="translate(-453.69538 -187.58572)"/><polygon class="9ada9e70-26e2-4bf1-bbaf-02dca950002d" points="174.171 108.118 135.789 108.118 128.681 90.74 125.288 82.84 163.705 82.84 150.827 54.059 112.929 54.059 102.074 28.781 140.691 28.781 128.375 0 89.715 0 83.09 0 57.668 0 115.715 136.899 149.435 136.899 186.381 136.899 174.171 108.118"/></svg>