<svg id="e1520983-f1d8-4041-97bf-f344a73bd7ac" data-name="Layer 1" xmlns="http://www.w3.org/2000/svg" viewBox="0 0 184.29816 162.54901"><defs><style>.\32 5fb84a7-8833-42fa-978f-f9c295d2a07b{fill:#3c3c3b;}.d8964d94-30f7-4ff1-9f65-0871215bd955{fill:#f39200;}</style></defs><title>ASLogo</title><path class="25fb84a7-8833-42fa-978f-f9c295d2a07b" d="M193.79,339.85449a.88068.88068,0,0,1,.94873.74121l5.51465,18.67774c.14795.47461-.02979.74121-.53369.74121h-2.66846c-.50391,0-.71143-.2666-.85986-.74121l-1.0376-3.61719h-5.51465l-1.0376,3.61719c-.148.47461-.35547.74121-.88916.74121h-2.40185c-.53321,0-.71143-.2666-.563-.74121l5.54394-18.67774a.85187.85187,0,0,1,.91895-.74121Zm-.50391,9.33887a44.44965,44.44965,0,0,1-.85986-5.39648c-.05908.38574-.56348,4.12109-.91895,5.36621l-1.0083,3.32129h3.76563Z" transform="translate(-184.30219 -197.70294)"/><path class="25fb84a7-8833-42fa-978f-f9c295d2a07b" d="M217.48047,355.419c0,2.49023-1.60108,4.833-6.96729,4.833s-6.96728-2.34277-6.96728-4.833V344.44922c0-2.49024,1.60107-4.832,6.96728-4.832s6.96729,2.34179,6.96729,4.832v1.42383c0,.5332-.17774.74121-.68164.74121h-2.46094c-.53369,0-.74121-.208-.74121-.74121v-.71192c0-1.48242-1.0376-2.22363-3.02393-2.22363s-2.99463.74121-2.99463,2.22363V354.708c0,1.48242,1.00831,2.22363,2.99463,2.22363s3.02393-.74121,3.02393-2.22363v-1.127c0-.5332.20752-.74121.74121-.74121h2.46094c.5039,0,.68164.208.68164.74121Z" transform="translate(-184.30219 -197.70294)"/><path class="25fb84a7-8833-42fa-978f-f9c295d2a07b" d="M233.58154,339.85449c.50391,0,.74121.17774.74121.71094v1.86816c0,.53321-.2373.74121-.74121.74121h-4.21v16.06934c0,.5332-.17822.77051-.71191.77051h-2.5791c-.53369,0-.74121-.23731-.74121-.77051V343.1748h-4.21c-.53369,0-.74121-.208-.74121-.74121v-1.86816c0-.5332.20752-.71094.74121-.71094Z" transform="translate(-184.30219 -197.70294)"/><path class="25fb84a7-8833-42fa-978f-f9c295d2a07b" d="M242.15137,359.24414c0,.5332-.17774.77051-.71143.77051h-2.5791c-.53369,0-.71191-.23731-.71191-.77051V340.625c0-.5332.17822-.77051.71191-.77051h2.5791c.53369,0,.71143.23731.71143.77051Z" transform="translate(-184.30219 -197.70294)"/><path class="25fb84a7-8833-42fa-978f-f9c295d2a07b" d="M252.499,360.01465a.85186.85186,0,0,1-.91894-.74121l-5.54395-18.67774c-.14843-.47461.0293-.74121.563-.74121h2.8169c.5039,0,.71142.2666.85986.74121l2.87549,10.08008a32.84287,32.84287,0,0,1,.71191,4.29883,39.2539,39.2539,0,0,1,.80029-4.26953l2.876-10.10938c.14794-.47461.35547-.74121.88916-.74121h2.57959c.50391,0,.68164.2666.53369.74121l-5.51465,18.67774a.88068.88068,0,0,1-.94873.74121Z" transform="translate(-184.30219 -197.70294)"/><path class="25fb84a7-8833-42fa-978f-f9c295d2a07b" d="M266.169,360.01465c-.5337,0-.71192-.23731-.71192-.77051V340.625c0-.5332.17822-.77051.71192-.77051h10.13916c.50438,0,.74121.17774.74121.71094v1.86816c0,.53321-.23683.74121-.74121.74121h-6.84864v4.80274h6.34473c.53369,0,.771.17773.771.71191v1.77832c0,.50391-.23731.71192-.771.71192h-6.34473v5.51465H276.605c.53369,0,.74121.17773.74121.71093v1.86817c0,.5332-.20752.74121-.74121.74121Z" transform="translate(-184.30219 -197.70294)"/><path class="d8964d94-30f7-4ff1-9f65-0871215bd955" d="M292.11279,344.56836c0-1.60156-.97851-2.52051-3.5874-2.52051-2.60937,0-3.5874.91895-3.5874,2.52051v.59277a1.9517,1.9517,0,0,0,1.51172,1.98633l5.396,2.0459c1.77881.68164,3.26123,1.83789,3.26123,4.03223v2.46093c0,2.43067-1.68994,4.56543-6.64111,4.56543s-6.67041-2.13476-6.67041-4.56543V353.9668c0-.415.17773-.59375.563-.59375h1.74951c.38525,0,.53369.17871.53369.59375v1.334c0,1.60059,1.12647,2.51953,3.79492,2.51953,2.668,0,3.82422-.91894,3.82422-2.51953v-1.39355c0-1.48243-1.334-1.98633-2.49023-2.43067l-5.01074-1.92773a4.05,4.05,0,0,1-2.63868-3.67578v-1.69043c0-2.43067,1.542-4.56543,6.37452-4.56543s6.43359,2.13476,6.43359,4.56543v1.30468c0,.38575-.14844.56348-.53369.56348h-1.749c-.415,0-.53369-.17773-.53369-.56348Z" transform="translate(-184.30219 -197.70294)"/><path class="d8964d94-30f7-4ff1-9f65-0871215bd955" d="M303.49951,352.51367v6.90821c0,.415-.11865.59277-.53369.59277h-1.80859c-.38526,0-.53369-.17774-.53369-.59277V340.44727c0-.415.14843-.59278.53369-.59278h6.01855c5.09912,0,6.73,2.13379,6.73,4.56543v3.52832c0,2.43067-1.63086,4.56543-6.73,4.56543Zm0-10.19922v7.73828h3.67627c2.668,0,3.854-.97851,3.854-2.5791v-2.5791c0-1.60156-1.186-2.58008-3.854-2.58008Z" transform="translate(-184.30219 -197.70294)"/><path class="d8964d94-30f7-4ff1-9f65-0871215bd955" d="M318.65088,344.18262c0-2.43067,1.66016-4.56543,6.73-4.56543,5.09961,0,6.75976,2.13476,6.75976,4.56543v11.5039c0,2.43067-1.66015,4.56543-6.75976,4.56543-5.06982,0-6.73-2.13476-6.73-4.56543Zm10.58447.47461c0-1.60157-1.186-2.57911-3.85449-2.57911-2.63867,0-3.82471.97754-3.82471,2.57911v10.55468c0,1.60059,1.186,2.57911,3.82471,2.57911,2.66846,0,3.85449-.97852,3.85449-2.57911Z" transform="translate(-184.30219 -197.70294)"/><path class="d8964d94-30f7-4ff1-9f65-0871215bd955" d="M340.94824,352.03906v7.38282c0,.415-.11865.59277-.53369.59277H338.606c-.38526,0-.53369-.17774-.53369-.59277V340.44727c0-.415.14843-.59278.53369-.59278h6.01855c5.09912,0,6.73,2.13379,6.73,4.56543v3.083c0,1.80859-.91894,3.43945-3.46875,4.15137l3.55762,7.76758c.14844.35546-.11865.59277-.53369.59277h-1.77881c-.415,0-.47412-.23731-.65234-.59277l-3.3501-7.38282h-4.18018Zm0-9.72461v7.26367h3.67627c2.668,0,3.854-.94824,3.854-2.5791v-2.10449c0-1.60156-1.186-2.58008-3.854-2.58008Z" transform="translate(-184.30219 -197.70294)"/><path class="d8964d94-30f7-4ff1-9f65-0871215bd955" d="M367.90039,339.85449c.38525,0,.56348.14746.56348.5625v1.335c0,.415-.17823.5625-.56348.5625h-4.74365v17.10743c0,.415-.14844.59277-.53369.59277h-1.83838c-.38526,0-.53369-.17774-.53369-.59277V342.31445h-4.74366c-.415,0-.563-.14746-.563-.5625v-1.335c0-.415.14795-.5625.563-.5625Z" transform="translate(-184.30219 -197.70294)"/><polygon class="25fb84a7-8833-42fa-978f-f9c295d2a07b" points="76.046 65.547 58.45 65.547 61.168 59.195 61.171 59.195 67.146 45.141 57.288 22.434 57.22 22.278 52.299 10.944 50.924 7.783 0 126.782 32.441 126.782 40.213 108.488 40.212 108.488 42.21 103.787 48.077 89.94 86.654 89.94 76.046 65.547"/><polygon class="25fb84a7-8833-42fa-978f-f9c295d2a07b" points="127.489 89.94 88.374 0 56.905 0 95.956 89.94 127.489 89.94"/><polygon class="d8964d94-30f7-4ff1-9f65-0871215bd955" points="184.298 28.126 172.008 0 129.188 0 128.19 0 97.72 0 140.521 98.53 53.695 98.53 41.698 126.782 161.512 126.707 184.298 126.707 141.435 28.157 184.298 28.126"/></svg>