<svg id="Layer_1" data-name="Layer 1" xmlns="http://www.w3.org/2000/svg" viewBox="0 0 567.15 567.15"><defs><style>.cls-1{fill:#f6f6f6;}.cls-2{fill:#e71d73;}.cls-3,.cls-4{fill:none;stroke-linecap:round;stroke-linejoin:round;stroke-width:12px;}.cls-3{stroke:#e72479;}.cls-4{stroke:#3c3c3b;}</style></defs><title>calendar</title><circle class="cls-1" cx="283.57" cy="283.57" r="283.57"/><path class="cls-2" d="M408.26,385.61a.64.64,0,0,1-.11-.49l.49-4a1,1,0,0,1,.45-.8c1.12-.91,2.23-1.87,3.33-2.9l2-1.88c1.19-1.11,2.09-1.94,2.72-2.47,2.39-2.16,3.59-3.7,3.59-4.6a1.61,1.61,0,0,0-.52-1.24,2.09,2.09,0,0,0-1.43-.47,2.59,2.59,0,0,0-1.66.54,2.08,2.08,0,0,0-.78,1.45l-.07.55a.78.78,0,0,1-.23.49.72.72,0,0,1-.51.18h-5.12a.53.53,0,0,1-.45-.18.64.64,0,0,1-.11-.49l.21-1.6a7.05,7.05,0,0,1,1.73-3.47,8.8,8.8,0,0,1,3.34-2.28,11.51,11.51,0,0,1,4.34-.8,9.29,9.29,0,0,1,4.17.87,6.44,6.44,0,0,1,2.67,2.33,6.15,6.15,0,0,1,.9,3.28,7.15,7.15,0,0,1-.83,3.31,14.51,14.51,0,0,1-2.55,3.35q-1.37,1.39-5.16,4.6a5.06,5.06,0,0,1-.54.47c-.2.15-.4.32-.61.5s-.16.18-.14.25.1.1.21.1h7.74a.56.56,0,0,1,.44.18.63.63,0,0,1,.12.49l-.53,4.28a.7.7,0,0,1-.24.49.72.72,0,0,1-.49.18h-16A.53.53,0,0,1,408.26,385.61Z" transform="translate(-236.34 -195.68)"/><path class="cls-2" d="M445.45,376.69c0,.25,0,.61-.07,1.08a9.79,9.79,0,0,1-1.12,3.45,8.9,8.9,0,0,1-3.47,3.47,10,10,0,0,1-5,1.3,8.33,8.33,0,0,1-4.67-1.27,6.24,6.24,0,0,1-2.65-3.5,8.85,8.85,0,0,1-.32-2,.73.73,0,0,1,.19-.53.77.77,0,0,1,.51-.17h5.26a.66.66,0,0,1,.67.45l.14.46a1.58,1.58,0,0,0,1.56,1,2.34,2.34,0,0,0,1.75-.9,3.24,3.24,0,0,0,.66-1.57,3.42,3.42,0,0,0,0-.53,3,3,0,0,0-.21-1.11,1.61,1.61,0,0,0-1.6-.94,2.27,2.27,0,0,0-1.67.66,1.23,1.23,0,0,1-.87.42H429.1a.56.56,0,0,1-.44-.18.6.6,0,0,1-.12-.48l1.67-13.7a.69.69,0,0,1,.74-.66H446a.54.54,0,0,1,.44.17.64.64,0,0,1,.12.49l-.52,4.28a.68.68,0,0,1-.73.67h-9.07c-.16,0-.26.09-.31.28l-.35,2.85v.07q0,.15.09.18a.3.3,0,0,0,.23,0,6.1,6.1,0,0,1,2.82-.66A6.69,6.69,0,0,1,442.8,371a6.38,6.38,0,0,1,2.33,3.44A7.89,7.89,0,0,1,445.45,376.69Z" transform="translate(-236.34 -195.68)"/><path class="cls-2" d="M467.39,361.56a.64.64,0,0,1,.12.49l-.52,4.32a.69.69,0,0,1-.73.66h-5.44a.33.33,0,0,0-.32.28l-2.19,17.81a.73.73,0,0,1-.23.49.66.66,0,0,1-.47.18h-5.09a.53.53,0,0,1-.45-.18.68.68,0,0,1-.11-.49l2.2-17.81c0-.18-.08-.28-.24-.28h-5.27c-.44,0-.64-.22-.59-.66l.56-4.32a.73.73,0,0,1,.23-.49.63.63,0,0,1,.47-.17H467A.55.55,0,0,1,467.39,361.56Z" transform="translate(-236.34 -195.68)"/><path class="cls-2" d="M481.63,361.56a.72.72,0,0,1,.49-.17h5.08a.54.54,0,0,1,.44.17.57.57,0,0,1,.12.49l-2.82,23.07a.71.71,0,0,1-.25.49.7.7,0,0,1-.48.18h-5.09a.56.56,0,0,1-.44-.18.64.64,0,0,1-.12-.49l1.05-8.61v-.07a.19.19,0,0,0-.21-.21h-5.09a.33.33,0,0,0-.32.28l-1,8.61a.73.73,0,0,1-.23.49.7.7,0,0,1-.5.18h-5.06a.53.53,0,0,1-.45-.18.68.68,0,0,1-.11-.49l2.83-23.07a.68.68,0,0,1,.73-.66h5a.56.56,0,0,1,.46.17.68.68,0,0,1,.1.49l-1,8.29c0,.19.08.28.25.28h5.05c.21,0,.31-.09.31-.28l1-8.29A.75.75,0,0,1,481.63,361.56Z" transform="translate(-236.34 -195.68)"/><path class="cls-2" d="M509.27,385.23l-.38-2.51a.23.23,0,0,0-.09-.18.34.34,0,0,0-.19-.07h-7a.41.41,0,0,0-.35.25l-1,2.51a.78.78,0,0,1-.77.56H494c-.32,0-.49-.14-.49-.42a.87.87,0,0,1,.07-.35l9.87-23.08a.76.76,0,0,1,.76-.55h7a.59.59,0,0,1,.62.55L516,385v.14q0,.63-.66.63H509.9A.55.55,0,0,1,509.27,385.23Zm-5.86-8q0,.24.21.24h4.18a.3.3,0,0,0,.23-.08.21.21,0,0,0,.05-.23l-1.15-8.05q0-.18-.15-.18c-.09,0-.15.06-.2.18l-3.17,8.05Z" transform="translate(-236.34 -195.68)"/><path class="cls-2" d="M536.63,363.22a6.52,6.52,0,0,1,1.92,5,9.37,9.37,0,0,1-1.62,5.34,8.61,8.61,0,0,1-3.28,2.75,10.12,10.12,0,0,1-4.48,1h-3.48a.31.31,0,0,0-.32.27l-.94,7.6a.73.73,0,0,1-.23.49.68.68,0,0,1-.5.18h-5.05a.55.55,0,0,1-.46-.18.64.64,0,0,1-.1-.49l2.82-23.07a.68.68,0,0,1,.73-.66h9.76A7.26,7.26,0,0,1,536.63,363.22Zm-5.35,8a2.59,2.59,0,0,0,.89-2,2,2,0,0,0-.68-1.6,2.65,2.65,0,0,0-1.83-.59h-2.72a.3.3,0,0,0-.31.28l-.56,4.46c0,.18.08.28.24.28h2.76A3.19,3.19,0,0,0,531.28,371.23Z" transform="translate(-236.34 -195.68)"/><path class="cls-2" d="M550.29,385.3l-2.61-8.68c0-.14-.13-.21-.31-.21h-1.19c-.21,0-.31.09-.31.28l-1,8.43a.77.77,0,0,1-.22.49.72.72,0,0,1-.51.18H539a.55.55,0,0,1-.46-.18.64.64,0,0,1-.1-.49l2.82-23.07a.68.68,0,0,1,.73-.66h10.11a6.93,6.93,0,0,1,5,1.77A6.37,6.37,0,0,1,559,368c0,.24,0,.63-.07,1.19a8.12,8.12,0,0,1-1.55,4,7.7,7.7,0,0,1-3.29,2.55.27.27,0,0,0-.18.35l3,9a.88.88,0,0,1,0,.24c0,.35-.2.53-.59.53H551A.6.6,0,0,1,550.29,385.3Zm-3.27-18-.49,3.87q0,.27.24.27h3.07a2.87,2.87,0,0,0,2-.69,2.33,2.33,0,0,0,.78-1.82,1.73,1.73,0,0,0-.61-1.39,2.32,2.32,0,0,0-1.58-.52h-3.07A.3.3,0,0,0,547,367.28Z" transform="translate(-236.34 -195.68)"/><path class="cls-2" d="M559.39,385.61a.64.64,0,0,1-.1-.49l2.82-23.07a.68.68,0,0,1,.73-.66h5.06a.52.52,0,0,1,.45.17.64.64,0,0,1,.1.49l-2.82,23.07a.73.73,0,0,1-.23.49.68.68,0,0,1-.5.18h-5A.55.55,0,0,1,559.39,385.61Z" transform="translate(-236.34 -195.68)"/><path class="cls-2" d="M568.38,385.61a.68.68,0,0,1-.1-.49l2.82-23.07a.69.69,0,0,1,.73-.66h5.06a.52.52,0,0,1,.45.17.64.64,0,0,1,.11.49l-2.16,17.84V380c0,.14.06.21.2.21h10.22a.53.53,0,0,1,.45.18.67.67,0,0,1,.11.49l-.53,4.28a.77.77,0,0,1-.22.49.72.72,0,0,1-.51.18H568.84A.56.56,0,0,1,568.38,385.61Z" transform="translate(-236.34 -195.68)"/><path class="cls-2" d="M594.46,385.61a.64.64,0,0,1-.11-.49l.49-4a1,1,0,0,1,.45-.8c1.12-.91,2.23-1.87,3.33-2.9l2-1.88c1.19-1.11,2.09-1.94,2.72-2.47,2.39-2.16,3.59-3.7,3.59-4.6a1.58,1.58,0,0,0-.52-1.24,2.09,2.09,0,0,0-1.43-.47,2.61,2.61,0,0,0-1.66.54,2.08,2.08,0,0,0-.78,1.45l-.07.55a.73.73,0,0,1-.23.49.7.7,0,0,1-.5.18h-5.13a.53.53,0,0,1-.45-.18.68.68,0,0,1-.11-.49l.21-1.6a7.05,7.05,0,0,1,1.73-3.47,8.76,8.76,0,0,1,3.35-2.28,11.44,11.44,0,0,1,4.34-.8,9.28,9.28,0,0,1,4.16.87,6.44,6.44,0,0,1,2.67,2.33,6.15,6.15,0,0,1,.9,3.28,7.15,7.15,0,0,1-.83,3.31,14.51,14.51,0,0,1-2.55,3.35q-1.35,1.39-5.16,4.6a5.06,5.06,0,0,1-.54.47l-.61.5c-.11.1-.16.18-.14.25s.1.1.21.1h7.74a.56.56,0,0,1,.44.18.63.63,0,0,1,.12.49l-.52,4.28a.75.75,0,0,1-.25.49.72.72,0,0,1-.49.18h-16A.53.53,0,0,1,594.46,385.61Z" transform="translate(-236.34 -195.68)"/><path class="cls-2" d="M616.49,384.3a6.87,6.87,0,0,1-2-5.28,10.82,10.82,0,0,1,.11-1.46l1-7.95a9.38,9.38,0,0,1,3.06-6.22,9.68,9.68,0,0,1,6.64-2.28,8,8,0,0,1,5.69,1.88,6.71,6.71,0,0,1,2,5.19,10,10,0,0,1-.1,1.43l-1,7.95a9.22,9.22,0,0,1-9.72,8.64A7.94,7.94,0,0,1,616.49,384.3Zm8.17-4.42a3.17,3.17,0,0,0,.85-2l1-8.51a3.27,3.27,0,0,0,0-.52,2.21,2.21,0,0,0-.54-1.59,2,2,0,0,0-1.51-.57,2.34,2.34,0,0,0-1.76.71,3.55,3.55,0,0,0-.86,2l-1,8.51a3,3,0,0,0,0,.52,2.3,2.3,0,0,0,.53,1.59,1.86,1.86,0,0,0,1.46.57A2.51,2.51,0,0,0,624.66,379.88Z" transform="translate(-236.34 -195.68)"/><path class="cls-2" d="M639.32,361.39h5.3a.53.53,0,0,1,.45.17.64.64,0,0,1,.1.49l-2.82,23.07a.69.69,0,0,1-.73.67h-5.09a.56.56,0,0,1-.44-.18.64.64,0,0,1-.12-.49l2.16-17.53v-.07q0-.21-.24-.21l-2.69.11c-.39,0-.58-.21-.55-.63l.45-3.73a.86.86,0,0,1,.66-.77l2.76-.8A2.52,2.52,0,0,1,639.32,361.39Z" transform="translate(-236.34 -195.68)"/><path class="cls-2" d="M662.25,377.21a8.59,8.59,0,0,1-.1,1.26,8.7,8.7,0,0,1-1,3.24,8.5,8.5,0,0,1-3.43,3.17,10.71,10.71,0,0,1-5.07,1.18A9,9,0,0,1,648,385a6,6,0,0,1-2.69-3.24,6.71,6.71,0,0,1-.42-2.3,8.34,8.34,0,0,1,.39-2.55,8.46,8.46,0,0,1,1-2.12,7.12,7.12,0,0,1,1.57-1.68.23.23,0,0,0,.07-.38,4.08,4.08,0,0,1-1.08-1.53,5.3,5.3,0,0,1-.45-2.17,7.66,7.66,0,0,1,1.78-5,8.82,8.82,0,0,1,3.27-2.33,11.11,11.11,0,0,1,4.36-.84,9.5,9.5,0,0,1,4.57,1,5.39,5.39,0,0,1,2.58,3.05,7.06,7.06,0,0,1,.41,2.44,6.25,6.25,0,0,1-1.25,3.8,8.7,8.7,0,0,1-1.5,1.46c-.16.16-.17.29,0,.38a3.76,3.76,0,0,1,1.26,1.75A6.51,6.51,0,0,1,662.25,377.21Zm-6.41.59a4.37,4.37,0,0,0,0-.59,2.22,2.22,0,0,0-.14-.91,1.69,1.69,0,0,0-1.7-1.15,2.21,2.21,0,0,0-2,1.15,4,4,0,0,0-.49,1.57,5.41,5.41,0,0,0,0,.63,2.51,2.51,0,0,0,.21,1.12,1.7,1.7,0,0,0,1.63.9,2.11,2.11,0,0,0,1.75-.8A3.31,3.31,0,0,0,655.84,377.8Zm-2.41-6.67a2.12,2.12,0,0,0,1.05.26,2.52,2.52,0,0,0,1.12-.26,2.23,2.23,0,0,0,.83-.72,3.52,3.52,0,0,0,.53-1.53l0-.45a1.92,1.92,0,0,0-.52-1.47,2,2,0,0,0-1.4-.49,2.43,2.43,0,0,0-1.2.3,2,2,0,0,0-.82.85,3.78,3.78,0,0,0-.42,1.33,2.12,2.12,0,0,0,0,.42,2.93,2.93,0,0,0,.17,1A1.6,1.6,0,0,0,653.43,371.13Z" transform="translate(-236.34 -195.68)"/><path class="cls-3" d="M441.33,601.33" transform="translate(-236.34 -195.68)"/><polygon class="cls-3" points="451.32 146.32 420.82 115.82 115.82 115.82 146.32 146.32 115.82 115.82 115.82 420.82 146.32 451.32 451.32 451.32 451.32 146.32"/><rect class="cls-4" x="146.32" y="146.32" width="305" height="305"/><polyline class="cls-4" points="451.32 206.32 146.32 206.32 146.32 146.32 451.32 146.32 451.32 206.32"/></svg>