<svg id="Layer_1" data-name="Layer 1" xmlns="http://www.w3.org/2000/svg" viewBox="0 0 74 74"><defs><style>.cls-1{fill:#f6f6f6;}.cls-2{fill:#e71d73;}.cls-3{fill:#575756;}.cls-4{fill:#00e8e8;}</style></defs><title>cardioicon</title><circle class="cls-1" cx="37" cy="37" r="37"/><path class="cls-2" d="M546.3,355.3h-4.91a.94.94,0,0,1-.57-.18c-1-.76-24.67-18.62-24.67-30.24a14.39,14.39,0,0,1,17-14.13,1,1,0,0,1,.76,1.1,1,1,0,0,1-1.11.76,12.32,12.32,0,0,0-2.28-.21,12.5,12.5,0,0,0-12.48,12.48c0,10.09,21.11,26.58,23.66,28.53h4.59a.95.95,0,0,1,0,1.89Z" transform="translate(-506.84 -293.01)"/><path class="cls-1" d="M557.15,311.45A13.38,13.38,0,0,0,546.3,317,13.42,13.42,0,0,0,522,324.88c0,11.28,24.29,29.48,24.29,29.48s24.28-18.2,24.28-29.48A13.43,13.43,0,0,0,557.15,311.45Z" transform="translate(-506.84 -293.01)"/><path class="cls-3" d="M546.3,355.3a1,1,0,0,1-.57-.18c-1-.76-24.67-18.62-24.67-30.24a14.38,14.38,0,0,1,25.24-9.41,14.37,14.37,0,0,1,25.23,9.41c0,11.62-23.66,29.48-24.67,30.24A.94.94,0,0,1,546.3,355.3Zm-10.86-42.9A12.5,12.5,0,0,0,523,324.88c0,4.35,4.09,10.67,11.84,18.28a138.57,138.57,0,0,0,11.5,10,140.69,140.69,0,0,0,11.49-10c7.75-7.61,11.85-13.93,11.85-18.28a12.48,12.48,0,0,0-22.58-7.34.95.95,0,0,1-1.53,0A12.52,12.52,0,0,0,535.44,312.4Z" transform="translate(-506.84 -293.01)"/><path class="cls-4" d="M541.17,337h0a.94.94,0,0,1-.86-.68l-2.8-9.52-1.65,3.63a.94.94,0,0,1-.86.55h-3.86a.95.95,0,0,1,0-1.89h3.25l2.45-5.39a.94.94,0,0,1,1.77.12l2.75,9.37,1.41-3.48a1,1,0,0,1,.88-.59h4.53a.95.95,0,0,1,0,1.9h-3.89l-2.2,5.39A.93.93,0,0,1,541.17,337Z" transform="translate(-506.84 -293.01)"/><path class="cls-4" d="M554.54,337h0a.94.94,0,0,1-.86-.68l-2.8-9.52-1.65,3.63a.93.93,0,0,1-.86.55h-3.86a.95.95,0,0,1,0-1.89h3.25l2.45-5.39a.94.94,0,0,1,1.77.12l2.75,9.37,1.41-3.48a1,1,0,0,1,.88-.59h4.53a.95.95,0,0,1,0,1.9h-3.89l-2.2,5.39A.93.93,0,0,1,554.54,337Z" transform="translate(-506.84 -293.01)"/></svg>