<svg xmlns="http://www.w3.org/2000/svg" viewBox="0 0 1190.55118 341.15748"><defs><style>.\36 217811c-fb3b-40b1-8ac8-1cbb31997d44{fill:#f6f6f6;}.cd88b41c-40ed-43a2-86eb-a065a27371ad{fill:#e71d73;}.\32 69c590d-fd6c-4c7c-b499-afb7446ba0b1{fill:#00e8e8;}.\33 0efeaac-bbbd-4205-b019-594bedb4e57b,.b6916903-7c76-4b08-b6ba-57074cfedab7,.df79c538-0ca8-4642-bc93-3bcda08b0614{fill:none;}.df79c538-0ca8-4642-bc93-3bcda08b0614{stroke:#00e8e8;}.b6916903-7c76-4b08-b6ba-57074cfedab7,.df79c538-0ca8-4642-bc93-3bcda08b0614{stroke-linecap:round;stroke-linejoin:round;stroke-width:7px;}.\34 cb9bc0e-f489-4400-8a7b-7cb0065f8c4b{fill:#3c3c3b;}.b6916903-7c76-4b08-b6ba-57074cfedab7{stroke:#e71d73;}.\33 0efeaac-bbbd-4205-b019-594bedb4e57b{stroke:#e5e5e5;stroke-miterlimit:10;}.\33 c12f610-a727-40ec-ba3b-d01c285acdbb{fill:#fff;}</style></defs><title>cgheader</title><g id="4b2099a5-c9c6-4bcc-b205-98acb5bcb5e7" data-name="Layer 1"><rect class="6217811c-fb3b-40b1-8ac8-1cbb31997d44" y="0.5" width="1190.55118" height="340.15748"/><polygon class="cd88b41c-40ed-43a2-86eb-a065a27371ad" points="987.608 0.499 968.027 55.089 865.617 340.659 760.617 340.659 863.027 55.089 882.608 0.499 987.608 0.499"/><polygon class="269c590d-fd6c-4c7c-b499-afb7446ba0b1" points="1118.274 0.499 1098.694 55.089 996.284 340.659 891.284 340.659 993.694 55.089 1013.274 0.499 1118.274 0.499"/><circle class="6217811c-fb3b-40b1-8ac8-1cbb31997d44" cx="939.44572" cy="170.57874" r="148.10309"/><path class="df79c538-0ca8-4642-bc93-3bcda08b0614" d="M887.97,138.11633" transform="translate(0 0.49878)"/><path class="df79c538-0ca8-4642-bc93-3bcda08b0614" d="M890.816,248.40622" transform="translate(0 0.49878)"/><path class="cd88b41c-40ed-43a2-86eb-a065a27371ad" d="M1028.0095,206.24059a2.584,2.584,0,0,1-1.8032-.73039c-.04448-.04267-4.90049-4.66077-14.358-9.289-8.72022-4.26736-23.25681-9.41843-42.98894-9.72794a2.59194,2.59194,0,0,1-2.55095-2.6323,2.62315,2.62315,0,0,1,2.63194-2.55131c39.93758.627,60.03707,19.66777,60.873,20.47771a2.592,2.592,0,0,1-1.80392,4.45322Z" transform="translate(0 0.49878)"/><path class="cd88b41c-40ed-43a2-86eb-a065a27371ad" d="M1028.01239,225.74059a2.58809,2.58809,0,0,1-2.17093-1.17224c-.26757-.4057-21.18243-31.61437-56.3627-35.98515a2.59206,2.59206,0,0,1,.63928-5.14456c37.66251,4.68029,59.16349,36.92019,60.06021,38.29058a2.59148,2.59148,0,0,1-2.16586,4.01137Z" transform="translate(0 0.49878)"/><path class="cd88b41c-40ed-43a2-86eb-a065a27371ad" d="M1028.00805,189.45605a2.57944,2.57944,0,0,1-1.14368-.26756c-.28565-.13957-25.60925-12.2619-59.05972-3.45526a2.59188,2.59188,0,1,1-1.31977-5.01294c35.42976-9.33021,61.577,3.27736,62.673,3.81972a2.5922,2.5922,0,0,1-1.14982,4.916Z" transform="translate(0 0.49878)"/><path class="269c590d-fd6c-4c7c-b499-afb7446ba0b1" d="M980.97411,202.08387a295.8997,295.8997,0,0,1-65.5913-7.745,2.59214,2.59214,0,0,1,1.18236-5.04766c39.79367,9.32225,71.47674,7.47169,71.79168,7.45144a2.59183,2.59183,0,0,1,.32469,5.17348C988.58862,201.92188,985.82651,202.08387,980.97411,202.08387Z" transform="translate(0 0.49878)"/><path class="269c590d-fd6c-4c7c-b499-afb7446ba0b1" d="M984.8723,213.89885c-13.19622,0-36.97081-3.01775-70.53265-18.95474a2.59216,2.59216,0,0,1,2.22372-4.68318c50.94551,24.19331,78.862,17.57423,79.13716,17.50553a2.59188,2.59188,0,0,1,1.29193,5.02017A52.29281,52.29281,0,0,1,984.8723,213.89885Z" transform="translate(0 0.49878)"/><path class="4cb9bc0e-f489-4400-8a7b-7cb0065f8c4b" d="M985.65874,223.01066c-20.03514,0-45.04489-5.86048-70.10129-26.99772-.5995-.50549-1.27891-1.07823-1.47163-1.20767a2.57624,2.57624,0,0,1-.87285-3.54638,2.60807,2.60807,0,0,1,3.572-.87864,19.24479,19.24479,0,0,1,2.11452,1.6705c31.14866,26.27528,62.13677,27.82212,82.6463,24.48763a2.59205,2.59205,0,0,1,.83091,5.11708A104.37655,104.37655,0,0,1,985.65874,223.01066Z" transform="translate(0 0.49878)"/><path class="4cb9bc0e-f489-4400-8a7b-7cb0065f8c4b" d="M1028.00769,240.36649a2.57668,2.57668,0,0,1-1.24926-.32325c-2.07041-1.14115-20.35007-11.29792-24.60876-16.33111-2.19913-2.599-5.98487-8.76687-9.64623-14.73149-2.70136-4.40115-6.40068-10.42868-7.35128-11.32757-.29975-.277-7.51435-6.84326-20.24991-10.52125a2.59163,2.59163,0,1,1,1.43836-4.97968c11.098,3.20432,19.257,8.858,22.32864,11.69277,1.3787,1.27276,3.90506,5.342,8.252,12.42388,3.39415,5.52928,7.241,11.79691,9.18558,14.09511,3.08789,3.64906,17.76116,12.16643,23.15448,15.14079a2.59206,2.59206,0,0,1-1.25359,4.8618Z" transform="translate(0 0.49878)"/><path class="4cb9bc0e-f489-4400-8a7b-7cb0065f8c4b" d="M997.83168,260.52167a2.59309,2.59309,0,0,1-2.51334-1.96771c-.74088-2.98231-7.11444-13.03568-9.27488-15.58843-.03218-.03833-.06075-.07015-.08534-.09835a46.83694,46.83694,0,0,0-6.16023,2.65038c-2.36726,1.11511-5.31378,2.50285-9.23366,4.25-14.88154,6.635-41.06969,5.61172-49.676,5.27617-.57889-.02314-1.06521-.04194-1.4474-.05424-3.48129-.11209-14.12765-1.74281-24.424-3.32-7.13975-1.09342-13.88394-2.12609-16.8554-2.43127-8.26788-.84754-22.13989-12.61335-27.39184-18.42827-1.95-2.15863-3.75139-6.21267-1.26119-13.26781a34.61309,34.61309,0,0,1,3.02461-6.29294c1.2178-31.8371,20.44481-55.36582,24.31263-59.78577,1.86828-2.13549,8.39046-13.74221,14.145-23.98287,5.70356-10.15027,11.60129-20.64548,14.90541-25.55718C911.73555,93.24328,921.444,89.331,927.86816,86.7428c1.66941-.67326,3.111-1.254,4.19649-1.797,6.0467-3.02281,27.81164-5.66957,30.61858-5.24146,1.1679.17934,2.76717.42521,9.26115,10.53282a117.39864,117.39864,0,0,1,6.98825,12.12738,7.20651,7.20651,0,0,1-1.25938,7.45289,24.15716,24.15716,0,0,1,2.3528,7.75227,5.85081,5.85081,0,0,1-1.79091,5.68259c-3.59989,3.111-11.10267,1.40076-14.38834.43968-9.56271,3.29833-27.22769,2.30471-27.99821,2.25987a2.59576,2.59576,0,0,1-.84465-.19525c-1.506-.6183-5.98451-1.86865-8.50979-.22129-1.53924,1.139-5.63341,9.95212-10.95767,26.592a3.95829,3.95829,0,0,0-.094,2.10511c1.98832,8.51593,2.48007,22.84028,2.58782,31.39092,6.41551-5.63052,15.8231-8.20786,27.65869-7.50278a84.58784,84.58784,0,0,1,19.28088,3.57891c15.24023-13.95047,31.68741-15.31724,42.9188-13.95481a60.69114,60.69114,0,0,1,21.42578,6.69718,2.592,2.592,0,0,1-2.607,4.4807,56.54843,56.54843,0,0,0-19.63343-6.055c-15.05292-1.77247-28.39486,2.81743-39.65626,13.64312a2.591,2.591,0,0,1-2.66593.57275c-.34965-.12439-35.04938-12.1932-47.10915,6.90328a2.59168,2.59168,0,0,1-4.78262-1.41812c.00326-.25238.30012-25.31492-2.46525-37.15738a9.14364,9.14364,0,0,1,.20466-4.864c5.59-17.47009,9.985-27.34628,13.06279-29.35377,4.715-3.07487,11.05313-1.08185,12.89068-.39629,2.73138.13017,18.69838.74485,26.26335-2.249a2.58673,2.58673,0,0,1,1.74607-.05785c3.879,1.23877,9.10169,1.86141,10.28369.83959.17718-.15331.09618-.734.06726-.90829-.78572-4.71283-1.79452-6.19242-2.0404-6.494a2.59184,2.59184,0,0,1-.24189-4.3715c.00614-.00507,2.17634-1.63145,1.52442-3.17974-1.54286-3.66425-10.07145-17.384-12.60034-19.56363h-.04339c-3.52648,0-22.25487,2.33291-27.12861,4.77-1.2724.63565-2.804,1.25323-4.5776,1.96771-6.18554,2.49274-14.657,5.90605-19.60883,13.26637-3.18733,4.73886-9.03371,15.14224-14.68737,25.20356-7.80254,13.88539-12.68965,22.48737-14.763,24.85644-3.69209,4.21964-22.1558,26.81042-23.05613,57.241a2.59158,2.59158,0,0,1-.43968,1.36894c-1.66942,2.49779-5.74153,10.40916-2.63448,13.84923,5.658,6.264,18.14553,16.138,24.074,16.74621,3.10018.31746,9.9062,1.36026,17.11176,2.4638,9.67263,1.48176,20.63573,3.16021,23.80606,3.2629.39159.01229.88948.03182,1.48284.055,22.28741.86924,38.22115-.755,47.36334-4.83,3.87-1.72545,6.78938-3.1009,9.135-4.20589,7.1864-3.38367,9.6079-4.52554,12.41159-1.21057,1.97531,2.33436,9.24776,13.25479,10.34877,17.687a2.59532,2.59532,0,0,1-2.51768,3.21733ZM973.45,112.164l.00543.00145Zm-.00542-.00145.00325.00073Zm-.00506-.00144.00217.00072Zm-.00506-.00145h0Z" transform="translate(0 0.49878)"/><path class="b6916903-7c76-4b08-b6ba-57074cfedab7" d="M915.45152,192.60284" transform="translate(0 0.49878)"/><path class="4cb9bc0e-f489-4400-8a7b-7cb0065f8c4b" d="M104.03662,144.96729q-7.199-6.69-7.19775-17.9375a31.157,31.157,0,0,1,.22509-4.38624l2.81153-22.71679a32.5606,32.5606,0,0,1,5.56689-15.06983,30.92793,30.92793,0,0,1,11.80811-10.12158A36.06932,36.06932,0,0,1,133.501,71.13672q12.48339,0,19.73681,6.29785,7.25391,6.29957,7.25391,16.98145,0,1.12572-.2251,3.82373,0,1.0122-2.02441,1.2373l-16.53174,1.12451h-.562q-1.57617,0-1.57471-.5625l.11279-.6748a9.42472,9.42472,0,0,0,.11231-1.687,7.78125,7.78125,0,0,0-8.43457-8.43409,10.44522,10.44522,0,0,0-7.36621,2.75489,11.55638,11.55638,0,0,0-3.54248,7.36621l-2.92383,24.1792a9.27129,9.27129,0,0,0-.11231,1.687,8.09047,8.09047,0,0,0,2.30518,6.07275,8.39319,8.39319,0,0,0,6.12891,2.249,10.23818,10.23818,0,0,0,7.31-2.75537,11.58287,11.58287,0,0,0,3.48633-7.25342,1.47371,1.47371,0,0,1,.78711-.95606,2.45375,2.45375,0,0,1,1.57471-.28125l16.30664.8999q1.91089.22632,1.91162.562l-.1123.5625a29.831,29.831,0,0,1-17.2627,23.898,37.53522,37.53522,0,0,1-16.25049,3.43017Q111.23243,151.65869,104.03662,144.96729Z" transform="translate(0 0.49878)"/><path class="4cb9bc0e-f489-4400-8a7b-7cb0065f8c4b" d="M207.61279,148.95947,206.376,140.8623a.69843.69843,0,0,0-.28125-.5625.97152.97152,0,0,0-.61866-.2246H182.87158a1.30562,1.30562,0,0,0-1.12451.7871l-3.14893,8.09717a2.47453,2.47453,0,0,1-2.47412,1.79932H158.355q-1.57617,0-1.57422-1.34961a2.48564,2.48564,0,0,1,.2251-1.12451L188.832,73.83594a2.47466,2.47466,0,0,1,2.47412-1.79932h22.49219a1.91524,1.91524,0,0,1,2.02393,1.79932l13.60791,74.44873v.44971q0,2.0244-2.13672,2.02441H209.63721A1.75927,1.75927,0,0,1,207.61279,148.95947Zm-18.89306-25.86572q0,.78808.67431.78711h13.49561a.99.99,0,0,0,.731-.28125.7237.7237,0,0,0,.16845-.731l-3.71094-25.97851c-.07568-.374-.24414-.562-.50634-.562q-.3955,0-.61817.562l-10.23388,25.97851Z" transform="translate(0 0.49878)"/><path class="4cb9bc0e-f489-4400-8a7b-7cb0065f8c4b" d="M274.52588,149.18457l-8.43457-28.00293q-.11354-.67456-1.01221-.6748h-3.82373q-1.0122,0-1.01221.8999l-3.37353,27.21533a2.404,2.404,0,0,1-.731,1.57422,2.325,2.325,0,0,1-1.63086.5625H238.20117a1.75608,1.75608,0,0,1-1.46191-.5625,2.06624,2.06624,0,0,1-.3374-1.57422l9.10937-74.44873a2.20581,2.20581,0,0,1,2.36133-2.13672h32.61377q10.12134,0,16.08154,5.73535,5.95972,5.7356,5.96045,15.51953,0,1.12574-.22461,3.82373a26.46852,26.46852,0,0,1-5.00488,12.82032,24.81575,24.81575,0,0,1-10.62744,8.20947.85172.85172,0,0,0-.562,1.125l9.78369,29.01465a2.51827,2.51827,0,0,1,.11279.78711q0,1.68677-1.91211,1.687H276.6626A1.9127,1.9127,0,0,1,274.52588,149.18457ZM263.95459,91.04248l-1.57471,12.48291c0,.60107.26221.8999.7876.8999H273.064a9.20624,9.20624,0,0,0,6.354-2.24951,7.455,7.455,0,0,0,2.53027-5.84766A5.63176,5.63176,0,0,0,279.98,91.82959a7.58926,7.58926,0,0,0-5.1167-1.687H264.9668A1.00423,1.00423,0,0,0,263.95459,91.04248Z" transform="translate(0 0.49878)"/><path class="4cb9bc0e-f489-4400-8a7b-7cb0065f8c4b" d="M303.87646,150.19629a2.06628,2.06628,0,0,1-.3374-1.57422l9.10938-74.44873a2.20581,2.20581,0,0,1,2.36133-2.13672H342.5625a34.93242,34.93242,0,0,1,14.28271,2.69873,21.47537,21.47537,0,0,1,9.39063,7.64746,20.32088,20.32088,0,0,1,3.31738,11.5835q0,1.12574-.2251,3.37353l-3.37353,28.11524a26.09794,26.09794,0,0,1-5.39844,13.27051,29.73961,29.73961,0,0,1-11.63965,8.88427,39.30571,39.30571,0,0,1-16.02539,3.14893H305.33838A1.75608,1.75608,0,0,1,303.87646,150.19629ZM326.14355,131.978a.59639.59639,0,0,0,.67481.6748h9.10937a8.43258,8.43258,0,0,0,6.354-2.98047,14.6777,14.6777,0,0,0,3.54248-7.81591l2.58642-20.91749a13.55357,13.55357,0,0,0,.11231-2.02441,9.5244,9.5244,0,0,0-2.02393-6.41016,6.88136,6.88136,0,0,0-5.51074-2.36181H332.104a1.00422,1.00422,0,0,0-1.0122.8999l-4.94825,40.71045Z" transform="translate(0 0.49878)"/><path class="4cb9bc0e-f489-4400-8a7b-7cb0065f8c4b" d="M371.24023,150.19629a2.06628,2.06628,0,0,1-.3374-1.57422l9.10938-74.44873a2.20581,2.20581,0,0,1,2.36133-2.13672h16.30664a1.76739,1.76739,0,0,1,1.4624.562,2.08871,2.08871,0,0,1,.3374,1.57471l-9.10937,74.44873a2.404,2.404,0,0,1-.731,1.57422,2.325,2.325,0,0,1-1.63086.5625H372.70215A1.75608,1.75608,0,0,1,371.24023,150.19629Z" transform="translate(0 0.49878)"/><path class="4cb9bc0e-f489-4400-8a7b-7cb0065f8c4b" d="M414.59277,148.95947a22.52062,22.52062,0,0,1-9.44629-8.88427,26.47653,26.47653,0,0,1-3.31787-13.49561,32.57483,32.57483,0,0,1,.33741-4.61084l2.58642-21.14258a34.91626,34.91626,0,0,1,5.73584-15.51953,31.34134,31.34134,0,0,1,11.97705-10.4585,36.09271,36.09271,0,0,1,16.4751-3.71142,32.07834,32.07834,0,0,1,14.50781,3.09277,22.24368,22.24368,0,0,1,9.50244,8.772,25.9557,25.9557,0,0,1,3.31787,13.32666,31.8129,31.8129,0,0,1-.3374,4.49805l-2.58642,21.14258a34.22472,34.22472,0,0,1-5.6792,15.80078,31.95853,31.95853,0,0,1-12.08985,10.57129A36,36,0,0,1,429.044,152.1084,31.24444,31.24444,0,0,1,414.59277,148.95947Zm24.46045-18.0498a13.16552,13.16552,0,0,0,3.71094-8.26612l2.69922-22.042a13.55068,13.55068,0,0,0,.1123-2.02441,9.573,9.573,0,0,0-2.36132-6.80371,8.48772,8.48772,0,0,0-6.52295-2.53028,10.50827,10.50827,0,0,0-7.64746,3.09229,13.156,13.156,0,0,0-3.71094,8.26611l-2.69922,22.042a13.289,13.289,0,0,0-.11231,2.02442,9.56856,9.56856,0,0,0,2.36182,6.80371,8.34228,8.34228,0,0,0,6.41016,2.53027A10.64147,10.64147,0,0,0,439.05322,130.90967Z" transform="translate(0 0.49878)"/><path class="cd88b41c-40ed-43a2-86eb-a065a27371ad" d="M104.09277,262.2041q-7.1433-6.80272-7.1416-18.38672a33.86215,33.86215,0,0,1,.2251-4.499l2.58643-21.25488a35.32018,35.32018,0,0,1,5.67968-15.51953,30.677,30.677,0,0,1,11.80811-10.40235,35.61287,35.61287,0,0,1,16.25049-3.65527,31.67547,31.67547,0,0,1,14.22607,3.03613,22.65328,22.65328,0,0,1,9.44678,8.37891,22.05172,22.05172,0,0,1,3.31787,11.86425q0,.90088-.2251,3.14942a1.98556,1.98556,0,0,1-.731,1.293,2.32387,2.32387,0,0,1-1.51806.50586H141.71045q-2.13721,0-1.91162-.5625v-.44922a8.07793,8.07793,0,0,0-1.79932-6.41016q-2.25073-2.6997-6.63525-2.69922a10.19994,10.19994,0,0,0-7.42237,2.9795,12.72412,12.72412,0,0,0-3.59863,7.92871L117.644,239.99316a8.43426,8.43426,0,0,0-.1123,1.57422,9.11934,9.11934,0,0,0,2.58642,6.748,8.97811,8.97811,0,0,0,6.63526,2.58691,10.69183,10.69183,0,0,0,6.9165-2.30566,9.07091,9.07091,0,0,0,3.31738-6.35449l.11231-1.124v-.22558q0-.67383-.78711-.67481h-8.772a1.75775,1.75775,0,0,1-1.46192-.56152,2.072,2.072,0,0,1-.3374-1.5752l1.46191-12.59472a2.28416,2.28416,0,0,1,.78711-1.5752,2.38748,2.38748,0,0,1,1.57471-.56152H157.23a1.79716,1.79716,0,0,1,1.40576.56152,1.9398,1.9398,0,0,1,.394,1.5752l-1.91211,14.957a32.30666,32.30666,0,0,1-5.5669,14.84473,30.8974,30.8974,0,0,1-11.8081,10.12109,35.796,35.796,0,0,1-16.13819,3.59863Q111.23243,269.00781,104.09277,262.2041Z" transform="translate(0 0.49878)"/><path class="cd88b41c-40ed-43a2-86eb-a065a27371ad" d="M175.9541,266.30859a22.51948,22.51948,0,0,1-9.44629-8.88379,26.47712,26.47712,0,0,1-3.31787-13.49511,32.57259,32.57259,0,0,1,.3374-4.61133l2.58643-21.14258a34.91814,34.91814,0,0,1,5.73584-15.51953,31.34656,31.34656,0,0,1,11.977-10.459,36.09859,36.09859,0,0,1,16.4751-3.71094,32.07189,32.07189,0,0,1,14.50781,3.09277,22.24556,22.24556,0,0,1,9.50244,8.77149,25.95873,25.95873,0,0,1,3.31787,13.32714,31.8129,31.8129,0,0,1-.3374,4.49805l-2.58643,21.14258a34.22463,34.22463,0,0,1-5.67919,15.80078A31.95861,31.95861,0,0,1,206.937,265.69043a36.00615,36.00615,0,0,1-16.53174,3.76758A31.23833,31.23833,0,0,1,175.9541,266.30859Zm24.46045-18.0498a13.163,13.163,0,0,0,3.71094-8.26563l2.69922-22.042a13.55523,13.55523,0,0,0,.1123-2.02441,9.57291,9.57291,0,0,0-2.36133-6.80371,8.486,8.486,0,0,0-6.523-2.53028,10.50679,10.50679,0,0,0-7.64746,3.09278,13.15225,13.15225,0,0,0-3.71093,8.26562l-2.69922,22.042a13.292,13.292,0,0,0-.11231,2.02442,9.56776,9.56776,0,0,0,2.36182,6.80371,8.34055,8.34055,0,0,0,6.41016,2.53027A10.63993,10.63993,0,0,0,200.41455,248.25879Z" transform="translate(0 0.49878)"/><path class="cd88b41c-40ed-43a2-86eb-a065a27371ad" d="M273.626,266.30859l-1.23682-8.09668a.69906.69906,0,0,0-.28125-.5625.9715.9715,0,0,0-.61865-.22461H248.88477a1.30563,1.30563,0,0,0-1.12452.78711l-3.14892,8.09668a2.475,2.475,0,0,1-2.47412,1.79981H224.36816q-1.57617,0-1.57421-1.34961a2.488,2.488,0,0,1,.22509-1.125l31.82617-74.44824a2.47563,2.47563,0,0,1,2.47413-1.79981h22.49218a1.916,1.916,0,0,1,2.02393,1.79981l13.60791,74.44824v.45019q0,2.02441-2.13672,2.02442H275.65039A1.7596,1.7596,0,0,1,273.626,266.30859Zm-18.89307-25.86523q0,.78808.67432.78711h13.4956a.98807.98807,0,0,0,.731-.28125.72431.72431,0,0,0,.16846-.73145l-3.71094-25.97754q-.11354-.5625-.50635-.5625-.39551,0-.61816.5625l-10.23389,25.97754Z" transform="translate(0 0.49878)"/><path class="cd88b41c-40ed-43a2-86eb-a065a27371ad" d="M302.75244,267.5459a2.06629,2.06629,0,0,1-.3374-1.57422l9.10937-74.44922a2.20612,2.20612,0,0,1,2.36133-2.13672h16.30664a1.76761,1.76761,0,0,1,1.46241.5625,2.08749,2.08749,0,0,1,.3374,1.57422l-6.97266,57.58008v.22461a.59619.59619,0,0,0,.67481.6748H358.645a1.76589,1.76589,0,0,1,1.46191.5625,2.08531,2.08531,0,0,1,.33741,1.57422l-1.68653,13.833a2.40212,2.40212,0,0,1-.73144,1.57422,2.32511,2.32511,0,0,1-1.63037.5625H304.21436A1.7575,1.7575,0,0,1,302.75244,267.5459Z" transform="translate(0 0.49878)"/><path class="cd88b41c-40ed-43a2-86eb-a065a27371ad" d="M373.37646,263.04785q-7.31176-5.96044-7.30957-15.96973,0-1.0122.22461-3.26074l.2251-1.125a2.39032,2.39032,0,0,1,.731-1.57422,2.16924,2.16924,0,0,1,1.51806-.5625h16.082q2.135,0,1.91162,1.125L386.647,242.917a6.24322,6.24322,0,0,0,2.47412,5.51074,11.16114,11.16114,0,0,0,7.64746,2.47461q4.38575,0,6.29786-2.02441a6.07026,6.07026,0,0,0,1.91162-4.16113,3.62368,3.62368,0,0,0-2.08057-3.374,44.25414,44.25414,0,0,0-7.25391-2.69922l-3.03613-1.01171a51.32627,51.32627,0,0,1-16.02588-8.041q-6.468-5.00244-6.46631-14.33887a23.85221,23.85221,0,0,1,4.21729-13.94531,28.00133,28.00133,0,0,1,11.47119-9.44629,37.26363,37.26363,0,0,1,15.91309-3.374,34.03043,34.03043,0,0,1,14.11377,2.81152,22.45373,22.45373,0,0,1,9.72754,8.041,21.09874,21.09874,0,0,1,3.48632,11.97656q0,1.0122-.22461,3.26172l-.11279.5625a2.40171,2.40171,0,0,1-.731,1.57422,2.17154,2.17154,0,0,1-1.51806.5625H410.376q-2.13722,0-1.91162-.89942l.1123-.90039a7.5012,7.5012,0,0,0-2.30518-6.1289q-2.644-2.75391-7.5913-2.75489a9.94184,9.94184,0,0,0-5.96045,1.63086,5.195,5.195,0,0,0-2.249,4.44141q0,2.58837,2.98,4.33008a70.10416,70.10416,0,0,0,11.30225,4.55468q.89868.33691,6.9165,2.30567a22.21048,22.21048,0,0,1,10.065,6.63476,16.50746,16.50746,0,0,1,4.04882,11.19043,24.74142,24.74142,0,0,1-4.21728,14.28223,27.80016,27.80016,0,0,1-11.6958,9.61523,39.85964,39.85964,0,0,1-16.813,3.42969Q380.68506,269.00781,373.37646,263.04785Z" transform="translate(0 0.49878)"/><line class="30efeaac-bbbd-4205-b019-594bedb4e57b" y1="0.5" x2="1190.55118" y2="0.5"/><line class="30efeaac-bbbd-4205-b019-594bedb4e57b" y1="340.65748" x2="1190.55118" y2="340.65748"/></g><g id="319ffc19-78dd-4490-ac73-a94f940e36e6" data-name="Layer 3"><circle class="6217811c-fb3b-40b1-8ac8-1cbb31997d44" cx="939.44572" cy="170.58894" r="148.10309"/></g><g id="737de971-f2b0-4db9-b1cf-8d90815279c5" data-name="Layer 2"><path class="cd88b41c-40ed-43a2-86eb-a065a27371ad" d="M949.75741,274.26138H929.13514a3.41029,3.41029,0,0,1-2.04315-.67994c-4.22051-3.16233-103.36315-77.9946-103.36315-126.52881a59.85225,59.85225,0,0,1,70.73821-58.8021,3.40778,3.40778,0,0,1-1.24009,6.7018,53.03417,53.03417,0,0,0-62.68319,52.1003c0,42.84623,89.74327,112.74366,99.73939,120.39382h19.47425a3.40746,3.40746,0,0,1,0,6.81493Z" transform="translate(0 0.49878)"/><path class="3c12f610-a727-40ec-ba3b-d01c285acdbb" d="M995.36159,90.65917a56.30469,56.30469,0,0,0-45.60451,23.23506A56.38648,56.38648,0,0,0,847.759,147.05274c0,47.38764,101.99808,123.80122,101.99808,123.80122s101.99808-76.41358,101.99808-123.80122A56.39355,56.39355,0,0,0,995.36159,90.65917Z" transform="translate(0 0.49878)"/><path class="4cb9bc0e-f489-4400-8a7b-7cb0065f8c4b" d="M949.75741,274.26138a3.40231,3.40231,0,0,1-2.04315-.67994c-4.22051-3.16233-103.36315-77.9946-103.36315-126.52881a59.79046,59.79046,0,0,1,105.4063-38.66344,59.7897,59.7897,0,0,1,105.40518,38.66344c0,48.53421-99.14152,123.36648-103.362,126.52881A3.40235,3.40235,0,0,1,949.75741,274.26138ZM904.15259,94.06719A53.04628,53.04628,0,0,0,851.166,147.05263c0,18.44047,17.28247,45.14893,49.9784,77.23923a578.6057,578.6057,0,0,0,48.613,42.27388A578.90634,578.90634,0,0,0,998.42029,224.242c32.66265-32.06812,49.92737-58.75884,49.92737-77.18932a52.979,52.979,0,0,0-95.83611-31.15193,3.40771,3.40771,0,0,1-5.50829,0A53.1898,53.1898,0,0,0,904.15259,94.06719Z" transform="translate(0 0.49878)"/><path class="269c590d-fd6c-4c7c-b499-afb7446ba0b1" d="M928.21006,197.17633c-.05768,0-.11425-.00111-.17192-.00444a3.40723,3.40723,0,0,1-3.098-2.44246l-12.18458-41.473-7.56808,16.65022a3.40787,3.40787,0,0,1-3.10244,1.99767H885.89958a3.40747,3.40747,0,1,1,0-6.81493H899.891l10.44979-22.99042a3.40757,3.40757,0,0,1,6.37125.44923l12.016,40.90069,6.5465-16.09451a3.40824,3.40824,0,0,1,3.15679-2.123h19.025a3.40747,3.40747,0,1,1,0,6.81493h-16.7323l-9.35833,23.00705A3.409,3.409,0,0,1,928.21006,197.17633Z" transform="translate(0 0.49878)"/><path class="269c590d-fd6c-4c7c-b499-afb7446ba0b1" d="M986.78144,197.31608c-.05768,0-.11425-.0011-.17193-.00443a3.40725,3.40725,0,0,1-3.098-2.44246l-12.18457-41.473-7.56808,16.65022a3.40788,3.40788,0,0,1-3.10244,1.99767H944.471a3.40747,3.40747,0,0,1,0-6.81493h13.99147l10.44979-22.99042a3.40757,3.40757,0,0,1,6.37125.44923l12.016,40.90069,6.5465-16.09451a3.40824,3.40824,0,0,1,3.15679-2.123h19.025a3.40747,3.40747,0,1,1,0,6.81493h-16.7323l-9.35833,23.007A3.409,3.409,0,0,1,986.78144,197.31608Z" transform="translate(0 0.49878)"/></g></svg>