<svg id="d760bb62-d53d-404c-82fc-4b713894cab4" data-name="Layer 1" xmlns="http://www.w3.org/2000/svg" viewBox="0 0 1007.44055 197.11487"><defs><style>.ef546516-0fd0-470d-ac28-1b8819a3af7e{fill:none;stroke:#00e8e8;}.\33 8b8fb9c-7963-42c7-baf4-f6cc8597139e,.ef546516-0fd0-470d-ac28-1b8819a3af7e{stroke-miterlimit:10;stroke-width:22px;}.\33 8b8fb9c-7963-42c7-baf4-f6cc8597139e{fill:#fff;stroke:#e71d73;}.c1539c99-15e0-49b6-9dae-8a37f0b7d9d1{fill:#3c3c3b;}</style></defs><title>dbg</title><rect class="ef546516-0fd0-470d-ac28-1b8819a3af7e" x="11" y="29.11975" width="967.3208" height="156.99512"/><rect class="38b8fb9c-7963-42c7-baf4-f6cc8597139e" x="29.11975" y="11" width="967.3208" height="156.99512"/><path class="c1539c99-15e0-49b6-9dae-8a37f0b7d9d1" d="M163.73584,194.042V141.95264a1.32114,1.32114,0,0,1,1.49463-1.49463H185.1377a27.37194,27.37194,0,0,1,11.2915,2.20312,17.41686,17.41686,0,0,1,7.59326,6.21582,16.35538,16.35538,0,0,1,2.67529,9.28516V177.833a16.35533,16.35533,0,0,1-2.67529,9.28515,17.4101,17.4101,0,0,1-7.59326,6.21582,27.364,27.364,0,0,1-11.2915,2.20313H165.23047A1.32091,1.32091,0,0,1,163.73584,194.042Zm15.42187-11.17285h6.53077a5.48165,5.48165,0,0,0,4.40673-2.085,8.61771,8.61771,0,0,0,1.80958-5.46875V160.67969a8.28592,8.28592,0,0,0-1.731-5.46826,5.642,5.642,0,0,0-4.564-2.08545h-6.45215a.55624.55624,0,0,0-.62939.62939v28.48389A.55581.55581,0,0,0,179.15771,182.86914Z" transform="translate(-82.04382 -76.7666)"/><path class="c1539c99-15e0-49b6-9dae-8a37f0b7d9d1" d="M212.36279,194.042V141.95264a1.32114,1.32114,0,0,1,1.49463-1.49463h11.80274a1.32187,1.32187,0,0,1,1.49511,1.49463V194.042a1.32164,1.32164,0,0,1-1.49511,1.49512H213.85742A1.32091,1.32091,0,0,1,212.36279,194.042Z" transform="translate(-82.04382 -76.7666)"/><path class="c1539c99-15e0-49b6-9dae-8a37f0b7d9d1" d="M242.49805,194.00293a17.17728,17.17728,0,0,1-7.55371-6.17676,16.34189,16.34189,0,0,1-2.6753-9.28515v-.78711a1.32134,1.32134,0,0,1,1.49512-1.49414h11.56641q1.49414,0,1.49511.78613v.86621a4.87043,4.87043,0,0,0,2.28174,3.85547,9.22884,9.22884,0,0,0,5.74414,1.73047,5.866,5.866,0,0,0,4.17041-1.21973,3.70916,3.70916,0,0,0,1.25879-2.71387,2.79422,2.79422,0,0,0-1.57373-2.59668,33.85139,33.85139,0,0,0-5.74414-2.125l-2.28174-.6289a42.0397,42.0397,0,0,1-13.06152-6.29492q-5.27271-3.93384-5.272-11.40967a14.89992,14.89992,0,0,1,2.67529-8.77295,17.1116,17.1116,0,0,1,7.35693-5.86231,25.9781,25.9781,0,0,1,10.5044-2.04541,26.49767,26.49767,0,0,1,11.13379,2.28174,18.80077,18.80077,0,0,1,7.86865,6.45215,16.38879,16.38879,0,0,1,2.87207,9.52051v.39355a1.32184,1.32184,0,0,1-1.49512,1.49512H261.69678q-1.49561,0-1.49463-.62939v-.6294a5.71234,5.71234,0,0,0-2.12451-4.28857,8.229,8.229,0,0,0-5.74414-1.92774,6.80956,6.80956,0,0,0-3.97364,1.023,3.271,3.271,0,0,0-1.45556,2.83252,3.14651,3.14651,0,0,0,1.062,2.3999,10.99706,10.99706,0,0,0,3.26562,1.88867q2.20167.90528,6.76709,2.32081.62843.23656,5.54688,1.69189a17.0589,17.0589,0,0,1,8.22265,5.272,13.63945,13.63945,0,0,1,3.30469,9.24561,15.3442,15.3442,0,0,1-2.67529,8.96972,17.10955,17.10955,0,0,1-7.51416,5.94043A27.90788,27.90788,0,0,1,253.75,196.167,27.499,27.499,0,0,1,242.49805,194.00293Z" transform="translate(-82.04382 -76.7666)"/><path class="c1539c99-15e0-49b6-9dae-8a37f0b7d9d1" d="M322.59766,141.95264V151.71a1.32115,1.32115,0,0,1-1.49463,1.49463H308.43457a.55639.55639,0,0,0-.62939.62988V194.042a1.32164,1.32164,0,0,1-1.49512,1.49512H294.50732a1.32125,1.32125,0,0,1-1.49511-1.49512V153.83447a.55679.55679,0,0,0-.6294-.62988h-12.2749a1.32056,1.32056,0,0,1-1.49463-1.49463v-9.75732a1.32114,1.32114,0,0,1,1.49463-1.49463H321.103A1.32173,1.32173,0,0,1,322.59766,141.95264Z" transform="translate(-82.04382 -76.7666)"/><path class="c1539c99-15e0-49b6-9dae-8a37f0b7d9d1" d="M357.06152,194.27832l-1.57373-5.665a.68086.68086,0,0,0-.70849-.55078H338.41309a.67869.67869,0,0,0-.708.55078l-1.57373,5.665a1.53352,1.53352,0,0,1-1.65235,1.25879H321.73193a1.3341,1.3341,0,0,1-1.14111-.47168,1.36229,1.36229,0,0,1-.11768-1.25977l16.36622-52.08886a1.60428,1.60428,0,0,1,1.65234-1.25879h16.209a1.6064,1.6064,0,0,1,1.65235,1.25879l16.3667,52.08886a1.7861,1.7861,0,0,1,.07861.55079q0,1.18065-1.33789,1.18066H358.71387A1.53166,1.53166,0,0,1,357.06152,194.27832ZM341.167,176.18066a.48664.48664,0,0,0,.55078.55079h9.75684a.57077.57077,0,0,0,.47217-.19629.565.565,0,0,0,.07861-.51172l-5.03564-18.17627c-.05274-.26172-.1709-.39356-.354-.39356-.18457,0-.32861.13184-.4331.39356L341.167,176.02344Z" transform="translate(-82.04382 -76.7666)"/><path class="c1539c99-15e0-49b6-9dae-8a37f0b7d9d1" d="M377.75439,194.042V141.95264A1.32114,1.32114,0,0,1,379.249,140.458h11.33106a1.90023,1.90023,0,0,1,1.80957,1.023l15.501,26.04443a.63228.63228,0,0,0,.47217.31494c.209,0,.31446-.18359.31446-.55078l-.07862-25.33691a1.32149,1.32149,0,0,1,1.49512-1.49463h11.80273a1.32172,1.32172,0,0,1,1.49463,1.49463V194.042a1.32149,1.32149,0,0,1-1.49463,1.49512H410.56592a1.8974,1.8974,0,0,1-1.81006-1.02246l-15.57959-26.51709q-.23584-.39258-.51123-.354c-.18457.02686-.27539.19678-.27539.51124l.15723,25.8872a1.32164,1.32164,0,0,1-1.49512,1.49512H379.249A1.32091,1.32091,0,0,1,377.75439,194.042Z" transform="translate(-82.04382 -76.7666)"/><path class="c1539c99-15e0-49b6-9dae-8a37f0b7d9d1" d="M439.167,193.64844a18.35965,18.35965,0,0,1-7.63232-7.1211,20.59011,20.59011,0,0,1-2.71485-10.66113V159.97168a20.23494,20.23494,0,0,1,2.71485-10.54395,18.46085,18.46085,0,0,1,7.63232-7.08154,24.61467,24.61467,0,0,1,11.37012-2.51758,25.98513,25.98513,0,0,1,11.36963,2.36035,18.02809,18.02809,0,0,1,7.63281,6.64893,18.21208,18.21208,0,0,1,2.71436,9.95361q0,.70825-1.41651.86524l-11.80224.78711h-.39356q-1.18066,0-1.18017-.39356v-.47217a7.0496,7.0496,0,0,0-1.88868-5.1538,7.54156,7.54156,0,0,0-10.07177,0,7.04931,7.04931,0,0,0-1.88819,5.1538v16.917a6.93947,6.93947,0,0,0,1.88819,5.07519,7.54156,7.54156,0,0,0,10.07177,0,6.93979,6.93979,0,0,0,1.88868-5.07519.79179.79179,0,0,1,.43261-.66895,1.73945,1.73945,0,0,1,1.14112-.19629l11.80224.62989q1.41651.07909,1.41651.39257v.39356a18.40531,18.40531,0,0,1-2.71436,9.99316,18.18652,18.18652,0,0,1-7.63281,6.72754,25.61544,25.61544,0,0,1-11.36963,2.40039A24.59663,24.59663,0,0,1,439.167,193.64844Z" transform="translate(-82.04382 -76.7666)"/><path class="c1539c99-15e0-49b6-9dae-8a37f0b7d9d1" d="M515.84473,153.126H492.86865a.55624.55624,0,0,0-.62939.62939v6.92432a.55566.55566,0,0,0,.62939.62939h14.00586a1.32222,1.32222,0,0,1,1.49512,1.49512v9.6001a1.321,1.321,0,0,1-1.49512,1.49414H492.86865a.55659.55659,0,0,0-.62939.62988v7.71094a.55581.55581,0,0,0,.62939.62988h22.97608a1.322,1.322,0,0,1,1.49511,1.49512V194.042a1.32164,1.32164,0,0,1-1.49511,1.49512H478.94141a1.32091,1.32091,0,0,1-1.49463-1.49512V141.95264a1.32114,1.32114,0,0,1,1.49463-1.49463h36.90332a1.32187,1.32187,0,0,1,1.49511,1.49463v9.67822A1.32164,1.32164,0,0,1,515.84473,153.126Z" transform="translate(-82.04382 -76.7666)"/><path class="c1539c99-15e0-49b6-9dae-8a37f0b7d9d1" d="M573.91309,167.13184c0,.15771.10449.28906.31494.39355a12.84591,12.84591,0,0,1,4.918,4.99609,15.31366,15.31366,0,0,1,1.61279,7.27832q0,8.105-5.665,11.9209-5.66529,3.81738-14.71436,3.81641H539.52783a1.32091,1.32091,0,0,1-1.49463-1.49512V141.95264a1.32114,1.32114,0,0,1,1.49463-1.49463h20.14356q10.07079,0,15.147,3.58008,5.07495,3.58153,5.07471,11.99951,0,7.31763-5.665,10.70068C574.01758,166.84424,573.91309,166.97461,573.91309,167.13184Zm-21.08741-13.37647v7.39649a.55567.55567,0,0,0,.6294.62939h6.21631q5.74292,0,5.74414-4.32764,0-4.3264-5.74414-4.32763h-6.21631A.55625.55625,0,0,0,552.82568,153.75537Zm13.14063,24.47119q0-4.40625-5.5083-4.40625h-7.00293a.55591.55591,0,0,0-.6294.62891v7.79a.55582.55582,0,0,0,.6294.62988h6.92431Q565.96559,182.86914,565.96631,178.22656Z" transform="translate(-82.04382 -76.7666)"/><path class="c1539c99-15e0-49b6-9dae-8a37f0b7d9d1" d="M618.13477,194.27832l-1.57422-5.665a.68072.68072,0,0,0-.709-.55078H599.48633a.68072.68072,0,0,0-.709.55078l-1.57422,5.665a1.53126,1.53126,0,0,1-1.65136,1.25879H582.80469a1.33412,1.33412,0,0,1-1.14112-.47168,1.36226,1.36226,0,0,1-.11767-1.25977l16.36621-52.08886a1.60429,1.60429,0,0,1,1.65234-1.25879h16.209a1.60709,1.60709,0,0,1,1.65234,1.25879L633.793,193.80566a1.80168,1.80168,0,0,1,.07812.55079q0,1.18065-1.33789,1.18066H619.78711A1.53164,1.53164,0,0,1,618.13477,194.27832Zm-15.89454-18.09766a.48684.48684,0,0,0,.55079.55079h9.75586a.57175.57175,0,0,0,.47265-.19629.55928.55928,0,0,0,.07813-.51172l-5.03516-18.17627c-.05273-.26172-.17188-.39356-.35352-.39356-.18554,0-.32812.13184-.43359.39356l-5.03516,18.17627Z" transform="translate(-82.04382 -76.7666)"/><path class="c1539c99-15e0-49b6-9dae-8a37f0b7d9d1" d="M644.09961,194.00293a17.18275,17.18275,0,0,1-7.55371-6.17676,16.34909,16.34909,0,0,1-2.67481-9.28515v-.78711a1.32134,1.32134,0,0,1,1.49512-1.49414h11.56641q1.49413,0,1.49511.78613v.86621a4.86979,4.86979,0,0,0,2.28223,3.85547,9.2259,9.2259,0,0,0,5.74316,1.73047,5.86657,5.86657,0,0,0,4.1709-1.21973,3.711,3.711,0,0,0,1.25879-2.71387,2.79466,2.79466,0,0,0-1.57422-2.59668,33.84879,33.84879,0,0,0-5.74316-2.125l-2.28223-.6289a42.0397,42.0397,0,0,1-13.06152-6.29492q-5.272-3.93384-5.27246-11.40967a14.9003,14.9003,0,0,1,2.67578-8.77295,17.10735,17.10735,0,0,1,7.35742-5.86231,25.97242,25.97242,0,0,1,10.50391-2.04541,26.49924,26.49924,0,0,1,11.13379,2.28174,18.79325,18.79325,0,0,1,7.86816,6.45215,16.38169,16.38169,0,0,1,2.87207,9.52051v.39355a1.32164,1.32164,0,0,1-1.49512,1.49512h-11.5664q-1.49561,0-1.49512-.62939v-.6294a5.71173,5.71173,0,0,0-2.124-4.28857,8.22812,8.22812,0,0,0-5.74414-1.92774,6.80745,6.80745,0,0,0-3.97364,1.023,3.2725,3.2725,0,0,0-1.45605,2.83252,3.147,3.147,0,0,0,1.0625,2.3999,10.99706,10.99706,0,0,0,3.26562,1.88867q2.20167.90528,6.76661,2.32081.62988.23656,5.54785,1.69189a17.06118,17.06118,0,0,1,8.22265,5.272,13.63945,13.63945,0,0,1,3.30469,9.24561A15.341,15.341,0,0,1,674,188.14062a17.111,17.111,0,0,1-7.51465,5.94043,27.9045,27.9045,0,0,1-11.13379,2.08594A27.499,27.499,0,0,1,644.09961,194.00293Z" transform="translate(-82.04382 -76.7666)"/><path class="c1539c99-15e0-49b6-9dae-8a37f0b7d9d1" d="M720.26562,153.126H697.29a.55639.55639,0,0,0-.62988.62939v6.92432a.55581.55581,0,0,0,.62988.62939H711.2959a1.32261,1.32261,0,0,1,1.49512,1.49512v9.6001a1.32134,1.32134,0,0,1-1.49512,1.49414H697.29a.55674.55674,0,0,0-.62988.62988v7.71094a.556.556,0,0,0,.62988.62988h22.97558a1.322,1.322,0,0,1,1.49512,1.49512V194.042a1.32164,1.32164,0,0,1-1.49512,1.49512H683.3623a1.32125,1.32125,0,0,1-1.49511-1.49512V141.95264a1.32148,1.32148,0,0,1,1.49511-1.49463h36.90332a1.32188,1.32188,0,0,1,1.49512,1.49463v9.67822A1.32164,1.32164,0,0,1,720.26562,153.126Z" transform="translate(-82.04382 -76.7666)"/><path class="c1539c99-15e0-49b6-9dae-8a37f0b7d9d1" d="M726.7168,194.042V141.95264a1.32148,1.32148,0,0,1,1.49511-1.49463h19.90723a27.368,27.368,0,0,1,11.291,2.20312,17.4155,17.4155,0,0,1,7.59375,6.21582,16.3589,16.3589,0,0,1,2.6748,9.28516V177.833a16.35885,16.35885,0,0,1-2.6748,9.28515,17.40874,17.40874,0,0,1-7.59375,6.21582,27.36013,27.36013,0,0,1-11.291,2.20313H728.21191A1.32125,1.32125,0,0,1,726.7168,194.042Zm15.42285-11.17285h6.53027a5.47939,5.47939,0,0,0,4.40625-2.085,8.621,8.621,0,0,0,1.81055-5.46875V160.67969a8.28613,8.28613,0,0,0-1.73145-5.46826,5.64239,5.64239,0,0,0-4.56347-2.08545h-6.45215a.55639.55639,0,0,0-.62988.62939v28.48389A.556.556,0,0,0,742.13965,182.86914Z" transform="translate(-82.04382 -76.7666)"/><path class="c1539c99-15e0-49b6-9dae-8a37f0b7d9d1" d="M800.71973,193.57031a18.65918,18.65918,0,0,1-7.63282-7.31836,21.3927,21.3927,0,0,1-2.71484-10.8584V160.52246a21.17941,21.17941,0,0,1,2.71484-10.81934,18.73983,18.73983,0,0,1,7.63282-7.27832,23.98872,23.98872,0,0,1,11.36914-2.59619,24.82066,24.82066,0,0,1,11.25195,2.47852,18.8648,18.8648,0,0,1,7.67188,6.72754,16.91041,16.91041,0,0,1,2.71484,9.28467q0,1.25976-1.49512,1.25878H820.50879q-1.4956,0-1.49512-.39355v-.31445a6.19336,6.19336,0,0,0-1.84961-4.48487,6.776,6.776,0,0,0-5.07519-1.88867,6.46359,6.46359,0,0,0-5.03516,2.085,7.95086,7.95086,0,0,0-1.88867,5.54737v15.7373a7.33629,7.33629,0,0,0,7.55371,7.63184,6.98186,6.98186,0,0,0,4.76074-1.61231,5.59529,5.59529,0,0,0,1.84863-4.44629v-.78711a.55613.55613,0,0,0-.6289-.6289h-6.374a1.32125,1.32125,0,0,1-1.49512-1.49512v-8.8125a1.32164,1.32164,0,0,1,1.49512-1.49512h19.90722a1.322,1.322,0,0,1,1.49512,1.49512v10.46484a19.92377,19.92377,0,0,1-2.71484,10.38672,18.4453,18.4453,0,0,1-7.63184,7.08106,24.42479,24.42479,0,0,1-11.292,2.51855A23.99454,23.99454,0,0,1,800.71973,193.57031Z" transform="translate(-82.04382 -76.7666)"/><path class="c1539c99-15e0-49b6-9dae-8a37f0b7d9d1" d="M848.7168,193.8457a18.97676,18.97676,0,0,1-7.751-7.39648,21.67121,21.67121,0,0,1-2.75391-11.05567V160.60107a21.141,21.141,0,0,1,2.75391-10.85839,18.80057,18.80057,0,0,1,7.751-7.31788,27.06284,27.06284,0,0,1,23.13281,0,18.81241,18.81241,0,0,1,7.751,7.31788,21.1601,21.1601,0,0,1,2.7539,10.85839v14.79248a21.69066,21.69066,0,0,1-2.7539,11.05567,18.98876,18.98876,0,0,1-7.751,7.39648,26.69592,26.69592,0,0,1-23.13281,0Zm16.83789-12.19629a8.16624,8.16624,0,0,0,2.00683-5.7832V160.44385a8.16954,8.16954,0,0,0-2.00683-5.78321,6.898,6.898,0,0,0-5.31055-2.16406,6.8027,6.8027,0,0,0-5.23242,2.16406,8.16954,8.16954,0,0,0-2.00684,5.78321v15.42236a8.16625,8.16625,0,0,0,2.00684,5.7832,6.79932,6.79932,0,0,0,5.23242,2.16407A6.89457,6.89457,0,0,0,865.55469,181.64941Z" transform="translate(-82.04382 -76.7666)"/><path class="c1539c99-15e0-49b6-9dae-8a37f0b7d9d1" d="M920.12207,194.27832l-1.57422-5.665a.68037.68037,0,0,0-.708-.55078H901.47363a.679.679,0,0,0-.708.55078l-1.57421,5.665a1.5329,1.5329,0,0,1-1.65235,1.25879H884.792a1.33372,1.33372,0,0,1-1.14062-.47168,1.36221,1.36221,0,0,1-.11817-1.25977l16.36719-52.08886a1.60429,1.60429,0,0,1,1.65234-1.25879h16.209a1.60709,1.60709,0,0,1,1.65234,1.25879l16.36621,52.08886a1.77212,1.77212,0,0,1,.07813.55079q0,1.18065-1.33692,1.18066H921.77441A1.53165,1.53165,0,0,1,920.12207,194.27832Zm-15.89453-18.09766a.48683.48683,0,0,0,.55078.55079h9.75684a.573.573,0,0,0,.47265-.19629.565.565,0,0,0,.07813-.51172l-5.03614-18.17627c-.05273-.26172-.17089-.39356-.35351-.39356-.18457,0-.32813.13184-.43262.39356l-5.03613,18.17627Z" transform="translate(-82.04382 -76.7666)"/><path class="c1539c99-15e0-49b6-9dae-8a37f0b7d9d1" d="M940.81445,194.042V141.95264a1.32149,1.32149,0,0,1,1.49512-1.49463H954.1123a1.32188,1.32188,0,0,1,1.49512,1.49463v40.28662a.556.556,0,0,0,.62988.62988H980a1.322,1.322,0,0,1,1.49512,1.49512V194.042A1.32164,1.32164,0,0,1,980,195.53711H942.30957A1.32125,1.32125,0,0,1,940.81445,194.042Z" transform="translate(-82.04382 -76.7666)"/><path class="c1539c99-15e0-49b6-9dae-8a37f0b7d9d1" d="M995.18457,194.00293a17.18275,17.18275,0,0,1-7.55371-6.17676,16.34909,16.34909,0,0,1-2.67481-9.28515v-.78711a1.32134,1.32134,0,0,1,1.49512-1.49414h11.56641q1.49414,0,1.49512.78613v.86621a4.86977,4.86977,0,0,0,2.28222,3.85547,9.22591,9.22591,0,0,0,5.74317,1.73047,5.86654,5.86654,0,0,0,4.17089-1.21973,3.71094,3.71094,0,0,0,1.25879-2.71387,2.79466,2.79466,0,0,0-1.57422-2.59668,33.84879,33.84879,0,0,0-5.74316-2.125l-2.28223-.6289a42.0397,42.0397,0,0,1-13.06152-6.29492q-5.272-3.93384-5.27246-11.40967a14.9003,14.9003,0,0,1,2.67578-8.77295,17.10735,17.10735,0,0,1,7.35742-5.86231,25.97242,25.97242,0,0,1,10.50391-2.04541,26.4992,26.4992,0,0,1,11.13379,2.28174,18.79325,18.79325,0,0,1,7.86816,6.45215,16.38169,16.38169,0,0,1,2.87207,9.52051v.39355a1.32164,1.32164,0,0,1-1.49511,1.49512h-11.56641q-1.4956,0-1.49512-.62939v-.6294a5.71173,5.71173,0,0,0-2.124-4.28857,8.22812,8.22812,0,0,0-5.74414-1.92774,6.8074,6.8074,0,0,0-3.97363,1.023,3.27249,3.27249,0,0,0-1.45606,2.83252,3.147,3.147,0,0,0,1.0625,2.3999,10.99714,10.99714,0,0,0,3.26563,1.88867q2.20165.90528,6.7666,2.32081.62988.23656,5.54785,1.69189a17.06118,17.06118,0,0,1,8.22265,5.272,13.63945,13.63945,0,0,1,3.30469,9.24561,15.341,15.341,0,0,1-2.67578,8.96972,17.111,17.111,0,0,1-7.51465,5.94043,27.9045,27.9045,0,0,1-11.13379,2.08594A27.499,27.499,0,0,1,995.18457,194.00293Z" transform="translate(-82.04382 -76.7666)"/></svg>