<svg id="Layer_1" data-name="Layer 1" xmlns="http://www.w3.org/2000/svg" viewBox="0 0 492.2 259.16"><defs><style>.cls-1{fill:#3c3c3b;}.cls-2{fill:#e71d73;}.cls-3{fill:#00e8e8;}</style></defs><title>decreases</title><path class="cls-1" d="M648.75,316.17a1.45,1.45,0,0,1-.28-1.22l7.35-61.48a2.26,2.26,0,0,1,1.91-2.09L680,247.06a26.59,26.59,0,0,1,11.52-.06,13.27,13.27,0,0,1,7.58,4.7,14,14,0,0,1,2.67,8.82c0,.6-.06,1.52-.18,2.75l-2.72,23.21A25.56,25.56,0,0,1,694.46,298a31.62,31.62,0,0,1-9.38,9,37.07,37.07,0,0,1-12.93,5.06l-22.22,4.32A1.22,1.22,0,0,1,648.75,316.17Zm18-18.19c0,.37.18.51.54.44L674.6,297a8.52,8.52,0,0,0,5.12-3.4,14.4,14.4,0,0,0,2.86-6.85l2.09-17.28a11.35,11.35,0,0,0,.09-1.65,6.54,6.54,0,0,0-1.63-4.86,4.76,4.76,0,0,0-4.45-1l-7.16,1.39a1,1,0,0,0-.82.89l-4,33.61Z" transform="translate(-638.45 -109.42)"/><path class="cls-1" d="M751.52,247.75l-25.67,5a1.07,1.07,0,0,0-.82.89l-1,8.17c0,.49.21.69.63.61l15.69-3.05a1.23,1.23,0,0,1,1.14.23,1.37,1.37,0,0,1,.32,1.21l-1.36,11.33a2.27,2.27,0,0,1-1.91,2.09l-15.69,3a.81.81,0,0,0-.73.87l-1.09,9.1v.18c0,.37.18.51.55.44l25.76-5a1.24,1.24,0,0,1,1.13.24,1.35,1.35,0,0,1,.32,1.2l-1.36,11.43a2.25,2.25,0,0,1-.64,1.39,2.33,2.33,0,0,1-1.27.7l-41.27,8a1.21,1.21,0,0,1-1.18-.22,1.5,1.5,0,0,1-.27-1.22l7.35-61.48a2.25,2.25,0,0,1,1.9-2.09l41.28-8a1.22,1.22,0,0,1,1.13.23,1.37,1.37,0,0,1,.32,1.21l-1.36,11.42A2.25,2.25,0,0,1,751.52,247.75Z" transform="translate(-638.45 -109.42)"/><path class="cls-1" d="M760.32,290.26q-5.8-4.26-5.81-13.33a24.5,24.5,0,0,1,.19-3.58L757,254.59a31.56,31.56,0,0,1,4.49-13,33.34,33.34,0,0,1,9.53-10,34.36,34.36,0,0,1,13.11-5.45q10.06-2,15.92,2t5.85,12.56q0,.9-.18,3.12c0,.54-.55,1-1.64,1.31l-13.33,3.5-.46.09q-1.26.26-1.26-.21l.09-.56a9,9,0,0,0,.09-1.38,5.59,5.59,0,0,0-1.82-4.63,5.84,5.84,0,0,0-5-.85,10.45,10.45,0,0,0-5.94,3.38,11.61,11.61,0,0,0-2.86,6.5l-2.35,20a7,7,0,0,0-.09,1.38,5.38,5.38,0,0,0,1.85,4.53,5.89,5.89,0,0,0,4.95.86,10.21,10.21,0,0,0,5.89-3.37,11.59,11.59,0,0,0,2.82-6.4,1.55,1.55,0,0,1,.63-.89,2.28,2.28,0,0,1,1.27-.48l13.15-1.83c1-.08,1.55,0,1.55.16l-.09.47a29.41,29.41,0,0,1-4.45,12.38,32.35,32.35,0,0,1-9.48,9.6,35.61,35.61,0,0,1-13.11,5.31Q766.13,294.54,760.32,290.26Z" transform="translate(-638.45 -109.42)"/><path class="cls-1" d="M837.33,278.7l-6.8-21.27c-.06-.35-.33-.48-.82-.38l-3.08.6a.85.85,0,0,0-.82.88L823.09,281a2.41,2.41,0,0,1-.59,1.39,2.37,2.37,0,0,1-1.31.71L808,285.66a1.23,1.23,0,0,1-1.18-.22,1.5,1.5,0,0,1-.27-1.22l7.35-61.48a2.26,2.26,0,0,1,1.9-2.09l26.31-5.12q8.16-1.58,13,2.11t4.81,11.58q0,.92-.18,3.12a25.81,25.81,0,0,1-4,11.13,26.63,26.63,0,0,1-8.57,8.29.81.81,0,0,0-.45,1l7.89,21.87a1.89,1.89,0,0,1,.09.62c0,.91-.52,1.46-1.54,1.66l-14.06,2.73C838.09,279.82,837.51,279.51,837.33,278.7Zm-8.52-45.24-1.27,10.31c0,.49.21.69.63.61l8-1.56a9.12,9.12,0,0,0,5.13-2.81,7.29,7.29,0,0,0,2-5.11,3.69,3.69,0,0,0-1.59-3.32,5.4,5.4,0,0,0-4.13-.56l-8,1.55A1,1,0,0,0,828.81,233.46Z" transform="translate(-638.45 -109.42)"/><path class="cls-1" d="M909.45,217.06l-25.67,5a1,1,0,0,0-.82.88l-1,8.18c0,.48.21.68.64.6l15.69-3.05a1.24,1.24,0,0,1,1.13.23,1.34,1.34,0,0,1,.32,1.21l-1.36,11.33a2.27,2.27,0,0,1-1.9,2.1l-15.7,3.05a.79.79,0,0,0-.72.86l-1.09,9.1v.19c0,.36.18.5.54.43l25.76-5a1.23,1.23,0,0,1,1.14.23,1.37,1.37,0,0,1,.32,1.21L905.36,265a2.27,2.27,0,0,1-.63,1.39,2.31,2.31,0,0,1-1.27.7l-41.27,8a1.22,1.22,0,0,1-1.18-.23,1.42,1.42,0,0,1-.27-1.22l7.34-61.47a2.26,2.26,0,0,1,1.91-2.1l41.27-8a1.22,1.22,0,0,1,1.13.23,1.34,1.34,0,0,1,.32,1.21L911.35,215A2.26,2.26,0,0,1,909.45,217.06Z" transform="translate(-638.45 -109.42)"/><path class="cls-1" d="M950.54,256.51l-1-6.34a.47.47,0,0,0-.23-.41.66.66,0,0,0-.5-.08l-18.23,3.54a1.4,1.4,0,0,0-.91.82l-2.54,7a2.55,2.55,0,0,1-2,1.84l-14.33,2.79c-.85.16-1.27-.12-1.27-.85a2.28,2.28,0,0,1,.18-.94l25.67-65a2.56,2.56,0,0,1,2-1.84l18.15-3.53a1.25,1.25,0,0,1,1.63,1.14l11,57.92v.36a1.86,1.86,0,0,1-1.72,2l-14.24,2.76C951.14,257.84,950.6,257.47,950.54,256.51Zm-15.24-17.9c0,.42.18.6.54.53L946.73,237a1,1,0,0,0,.59-.34.64.64,0,0,0,.13-.61l-3-20.38c-.06-.29-.2-.41-.41-.37s-.38.22-.5.55l-8.25,22.56Z" transform="translate(-638.45 -109.42)"/><path class="cls-1" d="M975.94,248.94q-5.9-3.66-5.9-11.73c0-.55.06-1.43.18-2.67l.18-.94a2.35,2.35,0,0,1,.59-1.38,2.22,2.22,0,0,1,1.23-.7l13-2.52c1.15-.22,1.66,0,1.54.61l-.09,1a4.11,4.11,0,0,0,2,4.06c1.51,1,3.57,1.3,6.17.8a8.22,8.22,0,0,0,5.07-2.62,6,6,0,0,0,1.55-3.66,2.3,2.3,0,0,0-1.68-2.39,29.82,29.82,0,0,0-5.85-1l-2.45-.34a34,34,0,0,1-12.93-4q-5.22-3-5.21-10.55a22.42,22.42,0,0,1,3.4-11.91,30.18,30.18,0,0,1,9.25-9.42,35.26,35.26,0,0,1,12.84-5.21,25.87,25.87,0,0,1,11.38,0,13.9,13.9,0,0,1,7.85,5,14.59,14.59,0,0,1,2.81,9.12c0,.54-.06,1.43-.18,2.66l-.09.47A2.41,2.41,0,0,1,1020,203a2.15,2.15,0,0,1-1.23.69l-13,2.52c-1.15.23-1.66.09-1.54-.42l.09-.75a5,5,0,0,0-1.86-4.58c-1.42-1.2-3.46-1.55-6.12-1a9.68,9.68,0,0,0-4.81,2.25,5.16,5.16,0,0,0-1.81,3.93c0,1.4.8,2.4,2.4,3a47.62,47.62,0,0,0,9.12,1.9q.72.13,5.57.78a14,14,0,0,1,8.12,3.77,11.09,11.09,0,0,1,3.27,8.39,23.14,23.14,0,0,1-3.4,12.18,29.76,29.76,0,0,1-9.44,9.59,37.68,37.68,0,0,1-13.56,5.41Q981.84,252.61,975.94,248.94Z" transform="translate(-638.45 -109.42)"/><path class="cls-1" d="M1070.46,185.76l-25.67,5a1,1,0,0,0-.82.88l-1,8.18c0,.48.21.68.64.6l15.69-3a1.27,1.27,0,0,1,1.13.23,1.36,1.36,0,0,1,.32,1.21l-1.36,11.33a2.26,2.26,0,0,1-1.9,2.1l-15.7,3.05a.8.8,0,0,0-.72.87l-1.09,9.1v.18c0,.36.18.51.54.44l25.77-5a1.22,1.22,0,0,1,1.13.23,1.37,1.37,0,0,1,.32,1.21l-1.36,11.42a2.4,2.4,0,0,1-.64,1.4,2.44,2.44,0,0,1-1.27.7l-41.27,8a1.22,1.22,0,0,1-1.18-.23,1.47,1.47,0,0,1-.27-1.21l7.34-61.48a2.28,2.28,0,0,1,1.91-2.1l41.27-8a1.27,1.27,0,0,1,1.14.24,1.35,1.35,0,0,1,.31,1.2l-1.36,11.43A2.25,2.25,0,0,1,1070.46,185.76Z" transform="translate(-638.45 -109.42)"/><path class="cls-1" d="M1078.62,229q-5.89-3.66-5.9-11.73c0-.55.06-1.43.19-2.67l.18-.94a2.29,2.29,0,0,1,.59-1.38,2.19,2.19,0,0,1,1.22-.7l13-2.52c1.15-.22,1.67,0,1.55.61l-.1,1a4.12,4.12,0,0,0,2,4.05c1.51,1,3.57,1.3,6.17.8a8.25,8.25,0,0,0,5.08-2.62,6,6,0,0,0,1.54-3.66,2.3,2.3,0,0,0-1.68-2.39,29.82,29.82,0,0,0-5.85-1l-2.45-.34a33.85,33.85,0,0,1-12.92-4q-5.22-3-5.22-10.55a22.42,22.42,0,0,1,3.4-11.91,30.18,30.18,0,0,1,9.25-9.42,35.26,35.26,0,0,1,12.84-5.21,25.87,25.87,0,0,1,11.38,0,13.87,13.87,0,0,1,7.85,5,14.59,14.59,0,0,1,2.81,9.12c0,.54-.06,1.43-.18,2.66l-.09.48a2.41,2.41,0,0,1-.59,1.38,2.12,2.12,0,0,1-1.22.69l-13,2.52c-1.14.23-1.66.09-1.54-.42l.09-.75a5,5,0,0,0-1.86-4.58c-1.42-1.2-3.46-1.55-6.12-1a9.72,9.72,0,0,0-4.81,2.25,5.16,5.16,0,0,0-1.81,3.93c0,1.4.8,2.4,2.4,3a47.62,47.62,0,0,0,9.12,1.9q.72.14,5.58.78a14.08,14.08,0,0,1,8.12,3.77,11.12,11.12,0,0,1,3.26,8.39,23.14,23.14,0,0,1-3.4,12.18,29.73,29.73,0,0,1-9.43,9.59,37.83,37.83,0,0,1-13.56,5.41Q1084.51,232.65,1078.62,229Z" transform="translate(-638.45 -109.42)"/><polygon class="cls-2" points="492.2 28.41 0 124.08 0 113.42 492.2 17.74 492.2 28.41"/><polygon class="cls-3" points="429.03 19.35 60.85 90.92 60.85 80.25 429.03 8.69 429.03 19.35"/><polygon class="cls-2" points="294.83 24.11 112.18 59.61 112.18 48.94 294.83 13.44 294.83 24.11"/><polygon class="cls-3" points="254.22 10.67 172.79 26.5 172.79 15.83 254.22 0 254.22 10.67"/><polygon class="cls-2" points="0 230.75 492.2 135.07 492.2 145.74 0 241.42 0 230.75"/><polygon class="cls-3" points="63.17 239.8 431.35 168.24 431.35 178.9 63.17 250.47 63.17 239.8"/><polygon class="cls-2" points="197.37 235.05 380.02 199.55 380.02 210.21 197.37 245.72 197.37 235.05"/><polygon class="cls-3" points="237.98 248.49 319.41 232.66 319.41 243.33 237.98 259.16 237.98 248.49"/></svg>