<svg id="344365b6-4d9a-49a1-b42d-c547458a89a9" data-name="Layer 1" xmlns="http://www.w3.org/2000/svg" viewBox="0 0 285.55077 89.35645"><defs><style>.\35 41a7315-92d8-4d02-bb14-8c73b49076c0{fill:#00e8e8;}.\38 c697be5-d0dd-49dd-b0ea-ed5aa9d4ba02{fill:#333;}</style></defs><title>embrace</title><path class="541a7315-92d8-4d02-bb14-8c73b49076c0" d="M610.0083,619.252H597.10547a.40651.40651,0,0,0-.41016.36524l-.50146,4.01172c0,.24414.106.36523.31885.36523h7.88769a.729.729,0,0,1,.56982.22754.785.785,0,0,1,.15967.6377l-.68408,5.5625a.8941.8941,0,0,1-.957.86718h-7.8877a.32185.32185,0,0,0-.36474.36426l-.54737,4.46777v.0918a.242.242,0,0,0,.27344.27344h12.94873a.72707.72707,0,0,1,.56983.22851.785.785,0,0,1,.15966.6377l-.68408,5.6084a.924.924,0,0,1-.31884.63769.96594.96594,0,0,1-.63868.22754H586.25439a.71311.71311,0,0,1-.59277-.22754.83743.83743,0,0,1-.13672-.63769l3.69287-30.1836a.89446.89446,0,0,1,.95752-.86523h20.74512a.73241.73241,0,0,1,.56982.22656.78824.78824,0,0,1,.15967.63867l-.68408,5.6084A.89436.89436,0,0,1,610.0083,619.252Z" transform="translate(-540.37892 -609.54688)"/><path class="541a7315-92d8-4d02-bb14-8c73b49076c0" d="M610.87451,643.59863a.83743.83743,0,0,1-.13672-.63769l3.69287-30.1836a.89446.89446,0,0,1,.95752-.86523h6.56543a.97075.97075,0,0,1,.95752.5918l4.24024,8.98242a.21464.21464,0,0,0,.228.18164.39439.39439,0,0,0,.31885-.18164l6.42871-8.98242a1.27,1.27,0,0,1,1.09424-.5918h6.61133q.8203,0,.72949.86523l-3.69336,30.1836a.89356.89356,0,0,1-.95752.86523h-6.65625a.72609.72609,0,0,1-.57031-.22754.78038.78038,0,0,1-.15918-.63769l2.00586-16.09473v-.09082q0-.22851-.13672-.22851a.49968.49968,0,0,0-.31933.18164l-3.28272,4.69726a1.27,1.27,0,0,1-1.09424.5918h-3.1001a.97034.97034,0,0,1-.95752-.5918l-2.14306-4.69726a.36674.36674,0,0,0-.27344-.18164c-.12158,0-.19824.10742-.228.31933l-1.96045,16.09473a.9719.9719,0,0,1-.29638.63769.94372.94372,0,0,1-.66114.22754h-6.61083A.71313.71313,0,0,1,610.87451,643.59863Z" transform="translate(-540.37892 -609.54688)"/><path class="541a7315-92d8-4d02-bb14-8c73b49076c0" d="M664.37793,627.36719q-.02344.13768.15918.22851a6.41356,6.41356,0,0,1,2.918,5.74414q0,.457-.09082,1.36817a9.06538,9.06538,0,0,1-4.03516,6.90722,15.50955,15.50955,0,0,1-8.54883,2.21094H643.063a.71313.71313,0,0,1-.59278-.22754.83739.83739,0,0,1-.13671-.63769l3.69287-30.1836a.89446.89446,0,0,1,.95752-.86523H658.291q5.15185,0,7.751,1.709,2.59863,1.71094,2.59863,5.63086a11.87342,11.87342,0,0,1-.0913,1.6875,7.75968,7.75968,0,0,1-3.9209,6.2002C664.47607,627.20117,664.39258,627.27637,664.37793,627.36719Zm-5.2207,6.42969q.27391-2.55469-2.78125-2.55372h-3.96631a.39309.39309,0,0,0-.251.09082.33.33,0,0,0-.11377.27344l-.54736,4.51367v.0918a.242.242,0,0,0,.27344.27344h3.92138Q658.792,636.48633,659.15723,633.79688Zm-5.65332-14.17969-.54737,4.28515c0,.24414.10645.36524.31934.36524h3.51074a4.06577,4.06577,0,0,0,2.644-.752,2.70191,2.70191,0,0,0,.91211-2.21191,1.74478,1.74478,0,0,0-.75244-1.52734,3.86979,3.86979,0,0,0-2.21094-.52442h-3.46533A.40649.40649,0,0,0,653.50391,619.61719Z" transform="translate(-540.37892 -609.54688)"/><path class="541a7315-92d8-4d02-bb14-8c73b49076c0" d="M685.00781,643.18848l-3.41943-11.35254q-.04614-.27393-.41065-.27344h-1.5498q-.41089,0-.41064.36426l-1.36768,11.03418a.97191.97191,0,0,1-.29639.63769.94369.94369,0,0,1-.66113.22754h-6.61084a.71309.71309,0,0,1-.59277-.22754.83739.83739,0,0,1-.13672-.63769l3.69287-30.1836a.89446.89446,0,0,1,.95752-.86523h13.22168a9.00719,9.00719,0,0,1,6.51953,2.32422,8.32548,8.32548,0,0,1,2.418,6.292c0,.30371-.03125.82129-.0918,1.5498a10.738,10.738,0,0,1-2.0293,5.19825,10.06659,10.06659,0,0,1-4.30859,3.32812.346.346,0,0,0-.22852.45606l3.9668,11.76367a.98029.98029,0,0,1,.04688.31836c0,.45605-.25977.68359-.77539.68359H685.875A.77562.77562,0,0,1,685.00781,643.18848Zm-4.28564-23.57129-.63867,5.06054c0,.24415.10644.36524.31933.36524H684.415a3.73616,3.73616,0,0,0,2.57519-.91211,3.01916,3.01916,0,0,0,1.02735-2.37109,2.28553,2.28553,0,0,0-.79883-1.82422,3.0771,3.0771,0,0,0-2.07422-.6836h-4.01221A.40649.40649,0,0,0,680.72217,619.61719Z" transform="translate(-540.37892 -609.54688)"/><path class="541a7315-92d8-4d02-bb14-8c73b49076c0" d="M716.69434,643.09766l-.502-3.28321a.28471.28471,0,0,0-.11328-.22851.39692.39692,0,0,0-.251-.09082h-9.16406a.52815.52815,0,0,0-.45605.31933l-1.27735,3.28321a1.00156,1.00156,0,0,1-1.00293.72851h-7.20312q-.63867,0-.63867-.54687a1.01533,1.01533,0,0,1,.09082-.45508l12.90332-30.1836a1.00343,1.00343,0,0,1,1.00293-.72851h9.11914a.77568.77568,0,0,1,.82031.72851l5.5166,30.1836v.18164q0,.8203-.86621.82031h-7.1582A.71238.71238,0,0,1,716.69434,643.09766Zm-7.66016-10.48633c0,.21289.0918.31836.27344.31836h5.47168a.39971.39971,0,0,0,.2959-.11328.29207.29207,0,0,0,.06835-.29688l-1.5039-10.53223c-.03125-.15136-.09961-.22753-.20508-.22753-.10742,0-.19043.07617-.251.22753l-4.14941,10.53223Z" transform="translate(-540.37892 -609.54688)"/><path class="541a7315-92d8-4d02-bb14-8c73b49076c0" d="M730.78223,641.47852a9.45121,9.45121,0,0,1-2.918-7.27149,12.79044,12.79044,0,0,1,.09082-1.7793l1.14062-9.209a13.19229,13.19229,0,0,1,2.25684-6.10937,12.52594,12.52594,0,0,1,4.78711-4.10352,14.61742,14.61742,0,0,1,6.58789-1.459,11.79585,11.79585,0,0,1,8.002,2.55273,8.65721,8.65721,0,0,1,2.94043,6.88477c0,.30468-.03027.82031-.09082,1.55078q0,.41014-.82129.501l-6.70215.45606h-.22754q-.63867,0-.63867-.22852l.0459-.27344a3.76829,3.76829,0,0,0,.0459-.68359,3.15557,3.15557,0,0,0-3.41992-3.41992,4.23459,4.23459,0,0,0-2.98633,1.11719,4.68945,4.68945,0,0,0-1.43652,2.98632l-1.18457,9.80274a3.70133,3.70133,0,0,0-.0459.68359,3.28186,3.28186,0,0,0,.93457,2.46289,3.40693,3.40693,0,0,0,2.48437.91211,4.15707,4.15707,0,0,0,2.96387-1.11718,4.69733,4.69733,0,0,0,1.41309-2.94141.59749.59749,0,0,1,.31933-.38672.99076.99076,0,0,1,.63867-.11523l6.61133.36523c.51563.06152.77442.13672.77442.22852l-.04493.22753a12.09558,12.09558,0,0,1-6.999,9.68848,15.21524,15.21524,0,0,1-6.58789,1.39063A11.19037,11.19037,0,0,1,730.78223,641.47852Z" transform="translate(-540.37892 -609.54688)"/><path class="541a7315-92d8-4d02-bb14-8c73b49076c0" d="M778.51855,619.252H765.61523a.40649.40649,0,0,0-.41015.36524l-.502,4.01172c0,.24414.10645.36523.31934.36523h7.8877a.73009.73009,0,0,1,.57031.22754.78315.78315,0,0,1,.15918.6377l-.6836,5.5625a.89492.89492,0,0,1-.958.86718h-7.8877a.32171.32171,0,0,0-.36426.36426l-.54687,4.46777v.0918a.24182.24182,0,0,0,.27344.27344H776.4209a.72882.72882,0,0,1,.57031.22851.78316.78316,0,0,1,.15918.6377l-.68359,5.6084a.92634.92634,0,0,1-.31934.63769.96594.96594,0,0,1-.63867.22754H754.76367a.71437.71437,0,0,1-.59277-.22754.84161.84161,0,0,1-.13672-.63769l3.69336-30.1836a.89407.89407,0,0,1,.958-.86523h20.74414a.73281.73281,0,0,1,.57031.22656.78642.78642,0,0,1,.15918.63867l-.68359,5.6084A.89394.89394,0,0,1,778.51855,619.252Z" transform="translate(-540.37892 -609.54688)"/><path class="541a7315-92d8-4d02-bb14-8c73b49076c0" d="M540.5249,698.31055a.841.841,0,0,1-.13672-.63867l3.69287-30.18165a.89479.89479,0,0,1,.95752-.86718H551.604a.97152.97152,0,0,1,.95752.59277l4.24024,8.98145a.21464.21464,0,0,0,.228.18359.39181.39181,0,0,0,.31884-.18359l6.42871-8.98145a1.27091,1.27091,0,0,1,1.09424-.59277h6.61133q.82032,0,.72949.86718L568.519,697.67188a.89451.89451,0,0,1-.95752.86718h-6.65625a.72673.72673,0,0,1-.57031-.22851.78367.78367,0,0,1-.15918-.63867l2.00586-16.09376v-.09179c0-.15137-.04541-.22754-.13672-.22754a.50194.50194,0,0,0-.31933.18262l-3.28272,4.69531a1.26745,1.26745,0,0,1-1.09424.59375h-3.10009a.96916.96916,0,0,1-.95752-.59375l-2.14307-4.69531a.3684.3684,0,0,0-.27344-.18262c-.12158,0-.19824.10644-.228.31933L548.686,697.67188a.97678.97678,0,0,1-.29639.63867.94428.94428,0,0,1-.66113.22851h-6.61084A.71354.71354,0,0,1,540.5249,698.31055Z" transform="translate(-540.37892 -609.54688)"/><path class="541a7315-92d8-4d02-bb14-8c73b49076c0" d="M572.12061,698.31055a.84094.84094,0,0,1-.13672-.63867l3.69287-30.18165a.89478.89478,0,0,1,.95752-.86718h6.61084a.71352.71352,0,0,1,.59277.22851.84419.84419,0,0,1,.13672.63867l-3.69287,30.18165a.97673.97673,0,0,1-.29639.63867.94426.94426,0,0,1-.66113.22851h-6.61084A.71351.71351,0,0,1,572.12061,698.31055Z" transform="translate(-540.37892 -609.54688)"/><path class="541a7315-92d8-4d02-bb14-8c73b49076c0" d="M583.8833,698.31055a.841.841,0,0,1-.13672-.63867l3.69287-30.18165a.89479.89479,0,0,1,.95752-.86718h6.33741a.97109.97109,0,0,1,.95751.59277l6.88477,15.0918a.21464.21464,0,0,0,.228.18261c.12109,0,.19726-.10644.22754-.32031l1.73291-14.67969a.89424.89424,0,0,1,.95752-.86718h6.65625a.72636.72636,0,0,1,.56982.22851.78274.78274,0,0,1,.15967.63867l-3.73828,30.18165a.979.979,0,0,1-.29639.63867.88136.88136,0,0,1-.61572.22851H602.0752a.96915.96915,0,0,1-.95752-.59375l-6.83936-15.36426c-.061-.15136-.13672-.22753-.22754-.22753-.09131,0-.16748.10644-.228.31836l-1.77832,15a.83453.83453,0,0,1-.95752.86718h-6.61084A.71352.71352,0,0,1,583.8833,698.31055Z" transform="translate(-540.37892 -609.54688)"/><path class="541a7315-92d8-4d02-bb14-8c73b49076c0" d="M612.97119,698.31055a.841.841,0,0,1-.13672-.63867l3.69287-30.18165a.89479.89479,0,0,1,.95752-.86718h11.17041a14.16333,14.16333,0,0,1,5.79053,1.09472,8.70193,8.70193,0,0,1,3.80664,3.10059,8.23382,8.23382,0,0,1,1.34522,4.69531c0,.30469-.03077.75977-.09131,1.36817l-1.36768,11.39843a10.58487,10.58487,0,0,1-2.18847,5.37989,12.0535,12.0535,0,0,1-4.71875,3.60156,15.9356,15.9356,0,0,1-6.49707,1.27734H613.564A.71354.71354,0,0,1,612.97119,698.31055Zm9.02735-7.38672a.24192.24192,0,0,0,.27343.27441h3.69336a3.42112,3.42112,0,0,0,2.57569-1.208,5.94676,5.94676,0,0,0,1.43652-3.16894l1.04834-8.48047a5.43749,5.43749,0,0,0,.0459-.82129,3.85625,3.85625,0,0,0-.8208-2.59765,2.78882,2.78882,0,0,0-2.23389-.958H624.415a.40722.40722,0,0,0-.41016.36425L621.99854,690.834Z" transform="translate(-540.37892 -609.54688)"/><path class="541a7315-92d8-4d02-bb14-8c73b49076c0" d="M664.583,673.96387H651.72559a.40722.40722,0,0,0-.41016.36425l-.50147,4.0127q0,.36474.31885.36426h7.8877a.72636.72636,0,0,1,.56982.22851.78724.78724,0,0,1,.15967.63868l-.68408,5.5625a.89316.89316,0,0,1-.957.86523h-7.8877a.32254.32254,0,0,0-.36474.36523l-1.41358,11.30665a.97668.97668,0,0,1-.29639.63867.94426.94426,0,0,1-.66113.22851h-6.61084a.71351.71351,0,0,1-.59277-.22851.841.841,0,0,1-.13672-.63867l3.69287-30.18165a.89479.89479,0,0,1,.95752-.86718h20.69922a.72636.72636,0,0,1,.56982.22851.78274.78274,0,0,1,.15967.63867l-.68359,5.60743A.894.894,0,0,1,664.583,673.96387Z" transform="translate(-540.37892 -609.54688)"/><path class="541a7315-92d8-4d02-bb14-8c73b49076c0" d="M668.50342,696.25879a9.17881,9.17881,0,0,1-2.918-7.1582q0-.54639.09082-1.64161l2.4624-19.96875a.89425.89425,0,0,1,.95752-.86718H675.707q.86572,0,.7749.86718L674.02,687.459a4.11889,4.11889,0,0,0-.04541.73047,3.37216,3.37216,0,0,0,.88916,2.46094,3.24232,3.24232,0,0,0,2.439.91211,4.03294,4.03294,0,0,0,2.87256-1.11719,4.73761,4.73761,0,0,0,1.41309-2.98633l2.4165-19.96875a.92482.92482,0,0,1,.31934-.63867.96319.96319,0,0,1,.63867-.22851h6.65625a.72882.72882,0,0,1,.57031.22851.78076.78076,0,0,1,.15821.63867L689.88672,687.459a12.832,12.832,0,0,1-2.25781,6.01856,12.36613,12.36613,0,0,1-4.74121,4.01269,14.61336,14.61336,0,0,1-6.49659,1.41309A11.3025,11.3025,0,0,1,668.50342,696.25879Z" transform="translate(-540.37892 -609.54688)"/><path class="541a7315-92d8-4d02-bb14-8c73b49076c0" d="M692.02832,698.31055a.84528.84528,0,0,1-.13672-.63867l3.69336-30.18165a.8944.8944,0,0,1,.958-.86718h6.61035a.71479.71479,0,0,1,.59277.22851.8441.8441,0,0,1,.13672.63867L701.05664,690.834v.08985a.24173.24173,0,0,0,.27344.27441h13.3584a.71732.71732,0,0,1,.59277.22754.84527.84527,0,0,1,.13672.63867l-.68359,5.60743a.97947.97947,0,0,1-.29688.63867.94179.94179,0,0,1-.66113.22851H692.62109A.7148.7148,0,0,1,692.02832,698.31055Z" transform="translate(-540.37892 -609.54688)"/><path class="541a7315-92d8-4d02-bb14-8c73b49076c0" d="M717.42383,698.31055a.84523.84523,0,0,1-.13672-.63867l3.69336-30.18165a.89439.89439,0,0,1,.958-.86718h6.33691a.97219.97219,0,0,1,.958.59277l6.88379,15.0918a.21542.21542,0,0,0,.22851.18261c.1211,0,.19727-.10644.22754-.32031l1.73242-14.67969a.89548.89548,0,0,1,.958-.86718h6.65625a.7274.7274,0,0,1,.57031.22851.78437.78437,0,0,1,.15918.63867l-3.73828,30.18165a.97942.97942,0,0,1-.29687.63867.87932.87932,0,0,1-.61524.22851h-6.38281a.97026.97026,0,0,1-.958-.59375l-6.83886-15.36426c-.06153-.15136-.13672-.22753-.22754-.22753-.0918,0-.168.10644-.22852.31836l-1.77734,15a.83535.83535,0,0,1-.958.86718H718.0166A.71479.71479,0,0,1,717.42383,698.31055Z" transform="translate(-540.37892 -609.54688)"/><path class="541a7315-92d8-4d02-bb14-8c73b49076c0" d="M770.8584,673.96387H757.95508a.40722.40722,0,0,0-.41016.36425l-.502,4.0127q0,.36474.31933.36426H765.25a.72743.72743,0,0,1,.57031.22851.7854.7854,0,0,1,.15918.63868l-.68359,5.5625a.894.894,0,0,1-.958.86523H756.4502a.32239.32239,0,0,0-.36426.36523l-.54688,4.46875v.08985a.24173.24173,0,0,0,.27344.27441h12.94824a.73147.73147,0,0,1,.57031.22754.78537.78537,0,0,1,.15918.63867l-.68359,5.60743a.93073.93073,0,0,1-.31934.63867.96681.96681,0,0,1-.63867.22851H747.10352a.71481.71481,0,0,1-.59278-.22851.84528.84528,0,0,1-.13672-.63867l3.69336-30.18165a.8944.8944,0,0,1,.958-.86718h20.74414a.72741.72741,0,0,1,.57031.22851.78437.78437,0,0,1,.15918.63867l-.68359,5.60743A.89332.89332,0,0,1,770.8584,673.96387Z" transform="translate(-540.37892 -609.54688)"/><path class="541a7315-92d8-4d02-bb14-8c73b49076c0" d="M774.96094,696.48633a7.92127,7.92127,0,0,1-2.96289-6.47363c0-.27344.02929-.71387.09082-1.32227l.09082-.45605a.97028.97028,0,0,1,.29687-.63868.883.883,0,0,1,.61524-.22754h6.51953q.86573,0,.77539.45606l-.0459.502a2.53039,2.53039,0,0,0,1.00391,2.2334,4.52351,4.52351,0,0,0,3.09961,1.00293,3.39164,3.39164,0,0,0,2.55371-.82031,2.45923,2.45923,0,0,0,.77441-1.6875,1.46918,1.46918,0,0,0-.84277-1.36719,17.90213,17.90213,0,0,0-2.94141-1.09375l-1.23047-.41113a20.79937,20.79937,0,0,1-6.49707-3.25977,6.91331,6.91331,0,0,1-2.62207-5.81347,9.67151,9.67151,0,0,1,1.71-5.65333,11.34381,11.34381,0,0,1,4.65039-3.8291,15.10538,15.10538,0,0,1,6.45215-1.36816,13.79138,13.79138,0,0,1,5.72168,1.13965,9.1034,9.1034,0,0,1,3.94336,3.25976,8.55261,8.55261,0,0,1,1.41406,4.85547q0,.41016-.09179,1.32227l-.04493.22851a.97937.97937,0,0,1-.29687.63867.87851.87851,0,0,1-.61523.22754h-6.52051q-.86573,0-.77442-.36425l.04493-.36524a3.03713,3.03713,0,0,0-.93457-2.48437,4.77695,4.77695,0,0,0-5.49317-.457,2.10813,2.10813,0,0,0-.91211,1.80078,2.04178,2.04178,0,0,0,1.208,1.75586,28.31477,28.31477,0,0,0,4.582,1.84668q.36474.13623,2.80371.93457a9.01754,9.01754,0,0,1,4.08106,2.68945,6.69578,6.69578,0,0,1,1.6416,4.53711,10.03464,10.03464,0,0,1-1.71,5.791,11.26625,11.26625,0,0,1-4.74219,3.89747,16.15391,16.15391,0,0,1-6.81543,1.39062A12.24878,12.24878,0,0,1,774.96094,696.48633Z" transform="translate(-540.37892 -609.54688)"/><path class="541a7315-92d8-4d02-bb14-8c73b49076c0" d="M801.35938,696.48633a7.92128,7.92128,0,0,1-2.9629-6.47363c0-.27344.0293-.71387.09082-1.32227l.09082-.45605a.97033.97033,0,0,1,.29688-.63868.883.883,0,0,1,.61523-.22754h6.51954q.86571,0,.77539.45606l-.0459.502a2.53041,2.53041,0,0,0,1.0039,2.2334,4.52351,4.52351,0,0,0,3.09961,1.00293,3.39161,3.39161,0,0,0,2.55371-.82031,2.45921,2.45921,0,0,0,.77442-1.6875,1.46917,1.46917,0,0,0-.84278-1.36719,17.90155,17.90155,0,0,0-2.9414-1.09375l-1.23047-.41113a20.79937,20.79937,0,0,1-6.49707-3.25977,6.91328,6.91328,0,0,1-2.62207-5.81347,9.67151,9.67151,0,0,1,1.71-5.65333,11.34381,11.34381,0,0,1,4.65039-3.8291,15.10534,15.10534,0,0,1,6.45215-1.36816,13.79138,13.79138,0,0,1,5.72168,1.13965,9.10346,9.10346,0,0,1,3.94336,3.25976,8.55261,8.55261,0,0,1,1.41406,4.85547q0,.41016-.0918,1.32227l-.04492.22851a.97937.97937,0,0,1-.29687.63867.87853.87853,0,0,1-.61524.22754h-6.5205q-.86572,0-.77442-.36425l.04492-.36524a3.03707,3.03707,0,0,0-.93457-2.48437,4.77693,4.77693,0,0,0-5.49316-.457,2.10813,2.10813,0,0,0-.91211,1.80078,2.04176,2.04176,0,0,0,1.208,1.75586,28.31437,28.31437,0,0,0,4.582,1.84668q.36474.13623,2.80371.93457a9.01745,9.01745,0,0,1,4.08105,2.68945,6.69578,6.69578,0,0,1,1.64161,4.53711,10.03465,10.03465,0,0,1-1.71,5.791,11.26615,11.26615,0,0,1-4.74218,3.89747,16.15395,16.15395,0,0,1-6.81543,1.39062A12.24878,12.24878,0,0,1,801.35938,696.48633Z" transform="translate(-540.37892 -609.54688)"/><path class="8c697be5-d0dd-49dd-b0ea-ed5aa9d4ba02" d="M612.00879,617.252H599.106a.40642.40642,0,0,0-.41016.36426l-.50146,4.0127q0,.36474.31884.36425h7.8877a.729.729,0,0,1,.56982.22754.78724.78724,0,0,1,.15967.63868l-.68408,5.5625a.89332.89332,0,0,1-.957.86621h-7.8877a.32224.32224,0,0,0-.36474.36425l-.54737,4.46875v.09082a.24232.24232,0,0,0,.27344.27442h12.94873a.72972.72972,0,0,1,.56983.22754.785.785,0,0,1,.15966.63769L609.957,640.96a.924.924,0,0,1-.31885.6377.96681.96681,0,0,1-.63867.22851H588.25488a.71352.71352,0,0,1-.59277-.22851.83747.83747,0,0,1-.13672-.6377l3.69287-30.18262a.89463.89463,0,0,1,.95752-.86621H612.9209a.72971.72971,0,0,1,.56982.22754.78723.78723,0,0,1,.15967.63867l-.68408,5.60743A.89452.89452,0,0,1,612.00879,617.252Z" transform="translate(-540.37892 -609.54688)"/><path class="8c697be5-d0dd-49dd-b0ea-ed5aa9d4ba02" d="M612.875,641.59766a.83747.83747,0,0,1-.13672-.6377l3.69287-30.18262a.89463.89463,0,0,1,.95752-.86621h6.56543a.97154.97154,0,0,1,.95752.59278l4.24024,8.98144a.21463.21463,0,0,0,.228.18262.39308.39308,0,0,0,.31885-.18262l6.42871-8.98144a1.2709,1.2709,0,0,1,1.09424-.59278H643.833q.82031,0,.72949.86621L640.86914,640.96a.89436.89436,0,0,1-.95752.86621h-6.65625a.72673.72673,0,0,1-.57031-.22851.78041.78041,0,0,1-.15918-.6377l2.00586-16.09473v-.09082c0-.15136-.04541-.22753-.13672-.22753a.49972.49972,0,0,0-.31934.18164L630.793,629.4248a1.2687,1.2687,0,0,1-1.09424.59278h-3.1001a.96975.96975,0,0,1-.95752-.59278l-2.14306-4.69628a.36674.36674,0,0,0-.27344-.18164c-.12158,0-.19824.10644-.228.31835L621.03613,640.96a.972.972,0,0,1-.29638.6377.94429.94429,0,0,1-.66114.22851h-6.61084A.71352.71352,0,0,1,612.875,641.59766Z" transform="translate(-540.37892 -609.54688)"/><path class="8c697be5-d0dd-49dd-b0ea-ed5aa9d4ba02" d="M666.37842,625.36719c-.01563.09082.0376.168.15918.22851a6.41246,6.41246,0,0,1,2.918,5.74414q0,.457-.09082,1.36719a9.069,9.069,0,0,1-4.03516,6.9082,15.50955,15.50955,0,0,1-8.54883,2.21094H645.06348a.71354.71354,0,0,1-.59278-.22851.83747.83747,0,0,1-.13672-.6377l3.69288-30.18262a.89462.89462,0,0,1,.95752-.86621H660.2915q5.15186,0,7.751,1.71,2.59863,1.70948,2.59863,5.63086a11.86572,11.86572,0,0,1-.09131,1.68653,7.75816,7.75816,0,0,1-3.92089,6.20019C666.47656,625.2002,666.39307,625.27539,666.37842,625.36719Zm-5.22071,6.42871q.27393-2.55322-2.78125-2.55371h-3.9663a.39413.39413,0,0,0-.251.09179.32871.32871,0,0,0-.11377.27344l-.54736,4.51367v.09082a.24232.24232,0,0,0,.27343.27442h3.92139Q660.79248,634.48633,661.15771,631.7959Zm-5.65332-14.17969-.54736,4.28613q0,.36475.31934.36426h3.51074a4.06586,4.06586,0,0,0,2.644-.752,2.70191,2.70191,0,0,0,.91211-2.21192,1.74593,1.74593,0,0,0-.75244-1.52734,3.87035,3.87035,0,0,0-2.21094-.52344h-3.46533A.40642.40642,0,0,0,655.50439,617.61621Z" transform="translate(-540.37892 -609.54688)"/><path class="8c697be5-d0dd-49dd-b0ea-ed5aa9d4ba02" d="M687.00781,641.1875,683.58887,629.835q-.04614-.27393-.41065-.27344h-1.5498c-.27393,0-.41065.12207-.41065.36426L679.8501,640.96a.972.972,0,0,1-.29639.6377.94426.94426,0,0,1-.66113.22851h-6.61084a.71354.71354,0,0,1-.59278-.22851.83743.83743,0,0,1-.13671-.6377l3.69287-30.18262a.89463.89463,0,0,1,.95752-.86621H689.4248a9.00521,9.00521,0,0,1,6.51954,2.3252,8.32117,8.32117,0,0,1,2.417,6.291q0,.457-.0918,1.55078a10.7295,10.7295,0,0,1-2.02832,5.19727,10.05751,10.05751,0,0,1-4.30859,3.32813.34727.34727,0,0,0-.22852.457l3.9668,11.76269a1.01527,1.01527,0,0,1,.0459.31934q0,.68262-.77539.68359H687.875A.77689.77689,0,0,1,687.00781,641.1875Zm-4.28515-23.57129-.63868,5.06152q0,.36475.31934.36426h4.0127a3.73154,3.73154,0,0,0,2.57519-.91211,3.01949,3.01949,0,0,0,1.02637-2.37011,2.28341,2.28341,0,0,0-.79785-1.82422,3.07562,3.07562,0,0,0-2.07422-.6836h-4.0127A.40641.40641,0,0,0,682.72266,617.61621Z" transform="translate(-540.37892 -609.54688)"/><path class="8c697be5-d0dd-49dd-b0ea-ed5aa9d4ba02" d="M718.69531,641.09668l-.50195-3.28223a.28339.28339,0,0,0-.11328-.22851.39807.39807,0,0,0-.251-.0918H708.665a.52935.52935,0,0,0-.45606.32031l-1.27734,3.28223a1.00241,1.00241,0,0,1-1.00293.72949h-7.20312q-.63869,0-.63868-.54687a1.01991,1.01991,0,0,1,.09082-.45606l12.90332-30.18262a1.00321,1.00321,0,0,1,1.00293-.72949h9.11914a.77582.77582,0,0,1,.82032.72949l5.5166,30.18262v.18262q0,.8203-.86621.82031h-7.15821A.71306.71306,0,0,1,718.69531,641.09668Zm-7.66015-10.48633c0,.21289.09179.31934.27343.31934h5.47168a.40037.40037,0,0,0,.2959-.11426.29037.29037,0,0,0,.06836-.2959l-1.50391-10.5332c-.03124-.15039-.0996-.22656-.20507-.22656-.10743,0-.19043.07617-.251.22656l-4.14941,10.5332Z" transform="translate(-540.37892 -609.54688)"/><path class="8c697be5-d0dd-49dd-b0ea-ed5aa9d4ba02" d="M732.7832,639.47852a9.452,9.452,0,0,1-2.918-7.27247,12.77586,12.77586,0,0,1,.09082-1.77832l1.14063-9.209a13.192,13.192,0,0,1,2.25684-6.11035,12.52347,12.52347,0,0,1,4.7871-4.10254,14.61749,14.61749,0,0,1,6.5879-1.459,11.79088,11.79088,0,0,1,8.00195,2.55273,8.65585,8.65585,0,0,1,2.94043,6.88477q0,.45557-.09082,1.5498,0,.41016-.82129.501l-6.70215.457h-.22754q-.63867,0-.63867-.22852l.0459-.27344a3.78322,3.78322,0,0,0,.0459-.68359,3.15557,3.15557,0,0,0-3.41993-3.41992,4.23456,4.23456,0,0,0-2.98632,1.11719,4.68708,4.68708,0,0,0-1.43653,2.98632l-1.18457,9.80274a3.69417,3.69417,0,0,0-.0459.68359,3.28114,3.28114,0,0,0,.93457,2.46192,3.403,3.403,0,0,0,2.48438.91211,4.15288,4.15288,0,0,0,2.96387-1.11719,4.69716,4.69716,0,0,0,1.41308-2.94043.599.599,0,0,1,.31934-.3877.99681.99681,0,0,1,.63867-.11425l6.61133.36523c.51562.06055.77441.13672.77441.22754l-.04492.22754a12.09518,12.09518,0,0,1-6.999,9.68945,15.21524,15.21524,0,0,1-6.58789,1.39063A11.19042,11.19042,0,0,1,732.7832,639.47852Z" transform="translate(-540.37892 -609.54688)"/><path class="8c697be5-d0dd-49dd-b0ea-ed5aa9d4ba02" d="M780.51855,617.252H767.61523a.40641.40641,0,0,0-.41015.36426l-.502,4.0127q0,.36474.31934.36425h7.8877a.73012.73012,0,0,1,.57031.22754.78543.78543,0,0,1,.15918.63868l-.6836,5.5625a.89414.89414,0,0,1-.958.86621h-7.8877a.32209.32209,0,0,0-.36426.36425l-.54687,4.46875v.09082a.24212.24212,0,0,0,.27344.27442H778.4209a.73148.73148,0,0,1,.57031.22754.78313.78313,0,0,1,.15918.63769l-.68359,5.6084a.92639.92639,0,0,1-.31934.6377.96685.96685,0,0,1-.63867.22851H756.76367a.71479.71479,0,0,1-.59277-.22851.84165.84165,0,0,1-.13672-.6377l3.69336-30.18262a.89424.89424,0,0,1,.958-.86621h20.74414a.73009.73009,0,0,1,.57031.22754.78542.78542,0,0,1,.15918.63867l-.68359,5.60743A.8941.8941,0,0,1,780.51855,617.252Z" transform="translate(-540.37892 -609.54688)"/><path class="8c697be5-d0dd-49dd-b0ea-ed5aa9d4ba02" d="M542.52539,696.31055a.841.841,0,0,1-.13672-.63867l3.69287-30.18262a.89463.89463,0,0,1,.95752-.86621h6.56543a.97075.97075,0,0,1,.95752.59179l4.24024,8.98243a.21463.21463,0,0,0,.228.18261.39307.39307,0,0,0,.31885-.18261l6.42871-8.98243a1.27,1.27,0,0,1,1.09424-.59179h6.61133q.82031,0,.72949.86621l-3.69336,30.18262a.89373.89373,0,0,1-.95752.86621h-6.65625a.72612.72612,0,0,1-.57031-.22754.78367.78367,0,0,1-.15918-.63867l2.00586-16.09376v-.09179q0-.22852-.13672-.22852a.502.502,0,0,0-.31934.18262l-3.28271,4.69629a1.26869,1.26869,0,0,1-1.09424.59277H556.249a.96975.96975,0,0,1-.95752-.59277l-2.14306-4.69629a.36843.36843,0,0,0-.27344-.18262c-.12158,0-.19824.10742-.228.32031l-1.96045,16.09376a.97672.97672,0,0,1-.29638.63867.94376.94376,0,0,1-.66114.22754h-6.61084A.71314.71314,0,0,1,542.52539,696.31055Z" transform="translate(-540.37892 -609.54688)"/><path class="8c697be5-d0dd-49dd-b0ea-ed5aa9d4ba02" d="M574.12109,696.31055a.841.841,0,0,1-.13671-.63867l3.69287-30.18262a.89462.89462,0,0,1,.95752-.86621h6.61084a.716.716,0,0,1,.59277.22754.84525.84525,0,0,1,.13672.63867l-3.69287,30.18262a.97678.97678,0,0,1-.29639.63867.94375.94375,0,0,1-.66113.22754h-6.61084A.71316.71316,0,0,1,574.12109,696.31055Z" transform="translate(-540.37892 -609.54688)"/><path class="8c697be5-d0dd-49dd-b0ea-ed5aa9d4ba02" d="M585.88379,696.31055a.841.841,0,0,1-.13672-.63867l3.69287-30.18262a.89463.89463,0,0,1,.95752-.86621h6.3374a.97032.97032,0,0,1,.95752.59179l6.88477,15.0918a.21464.21464,0,0,0,.228.18262c.12109,0,.19726-.10645.22753-.31934l1.73291-14.68066a.89409.89409,0,0,1,.95752-.86621h6.65625a.729.729,0,0,1,.56983.22754.78373.78373,0,0,1,.15967.63867l-3.73828,30.18262a.97908.97908,0,0,1-.29639.63867.8806.8806,0,0,1-.61572.22754h-6.38282a.96975.96975,0,0,1-.95752-.59278l-6.83935-15.36523c-.061-.15137-.13672-.22754-.22754-.22754q-.137,0-.228.31934l-1.77832,15a.83385.83385,0,0,1-.95752.86621h-6.61084A.71312.71312,0,0,1,585.88379,696.31055Z" transform="translate(-540.37892 -609.54688)"/><path class="8c697be5-d0dd-49dd-b0ea-ed5aa9d4ba02" d="M614.97168,696.31055a.841.841,0,0,1-.13672-.63867l3.69287-30.18262a.89463.89463,0,0,1,.95752-.86621h11.17041a14.17967,14.17967,0,0,1,5.79053,1.09375,8.71525,8.71525,0,0,1,3.80664,3.10058,8.23708,8.23708,0,0,1,1.34521,4.69629q0,.457-.0913,1.36719l-1.36768,11.39844a10.5846,10.5846,0,0,1-2.18848,5.38086,12.07162,12.07162,0,0,1-4.71875,3.60156,15.93538,15.93538,0,0,1-6.49707,1.27637H615.56445A.71314.71314,0,0,1,614.97168,696.31055Zm9.02734-7.38672a.24162.24162,0,0,0,.27344.27344h3.69336a3.41775,3.41775,0,0,0,2.57568-1.208,5.94677,5.94677,0,0,0,1.43653-3.16895l1.04834-8.48047a5.41366,5.41366,0,0,0,.0459-.82031,3.85893,3.85893,0,0,0-.82081-2.59863,2.79183,2.79183,0,0,0-2.23388-.958h-3.602a.40731.40731,0,0,0-.41016.36523L623.999,688.833Z" transform="translate(-540.37892 -609.54688)"/><path class="8c697be5-d0dd-49dd-b0ea-ed5aa9d4ba02" d="M666.5835,671.96289H653.72607a.40729.40729,0,0,0-.41015.36523l-.50147,4.01172c0,.24414.106.36524.31885.36524h7.8877a.72636.72636,0,0,1,.56982.22851.785.785,0,0,1,.15967.6377l-.68408,5.5625a.89394.89394,0,0,1-.957.86621h-7.8877a.32216.32216,0,0,0-.36475.36523l-1.41357,11.30665a.97673.97673,0,0,1-.29639.63867.94374.94374,0,0,1-.66113.22754H642.875a.71312.71312,0,0,1-.59277-.22754.841.841,0,0,1-.13672-.63867l3.69287-30.18262a.89462.89462,0,0,1,.95752-.86621h20.69922a.729.729,0,0,1,.56982.22754.78373.78373,0,0,1,.15967.63867l-.68359,5.6084A.89385.89385,0,0,1,666.5835,671.96289Z" transform="translate(-540.37892 -609.54688)"/><path class="8c697be5-d0dd-49dd-b0ea-ed5aa9d4ba02" d="M670.50391,694.25781a9.176,9.176,0,0,1-2.918-7.1582q0-.54639.09082-1.64063l2.4624-19.96972a.89409.89409,0,0,1,.95752-.86621h6.61084q.86572,0,.7749.86621L676.02051,685.459a4.10613,4.10613,0,0,0-.04541.7295,3.37294,3.37294,0,0,0,.88916,2.46191,3.246,3.246,0,0,0,2.439.91211,4.03711,4.03711,0,0,0,2.87256-1.11719,4.74006,4.74006,0,0,0,1.41309-2.98633l2.417-19.96972a.92592.92592,0,0,1,.31836-.63867.97106.97106,0,0,1,.63867-.22754h6.65625a.73009.73009,0,0,1,.57031.22754.78536.78536,0,0,1,.15918.63867L691.88672,685.459a12.84155,12.84155,0,0,1-2.25684,6.01758,12.37335,12.37335,0,0,1-4.74121,4.0127,14.617,14.617,0,0,1-6.49707,1.41308A11.29789,11.29789,0,0,1,670.50391,694.25781Z" transform="translate(-540.37892 -609.54688)"/><path class="8c697be5-d0dd-49dd-b0ea-ed5aa9d4ba02" d="M694.0293,696.31055a.84519.84519,0,0,1-.13672-.63867l3.69336-30.18262a.89423.89423,0,0,1,.958-.86621h6.61035a.71732.71732,0,0,1,.59277.22754.84525.84525,0,0,1,.13672.63867L703.05762,688.833v.09082a.24143.24143,0,0,0,.27343.27344h13.3584a.71481.71481,0,0,1,.59278.22851.84527.84527,0,0,1,.13672.63867l-.6836,5.60743a.97942.97942,0,0,1-.29687.63867.9413.9413,0,0,1-.66114.22754H694.62207A.7144.7144,0,0,1,694.0293,696.31055Z" transform="translate(-540.37892 -609.54688)"/><path class="8c697be5-d0dd-49dd-b0ea-ed5aa9d4ba02" d="M719.42383,696.31055a.84523.84523,0,0,1-.13672-.63867l3.69336-30.18262a.89423.89423,0,0,1,.958-.86621h6.33691a.97141.97141,0,0,1,.958.59179l6.88379,15.0918a.21543.21543,0,0,0,.22851.18262c.1211,0,.19727-.10645.22754-.31934l1.73242-14.68066a.89532.89532,0,0,1,.958-.86621h6.65625a.73006.73006,0,0,1,.57031.22754.78536.78536,0,0,1,.15918.63867l-3.73828,30.18262a.97942.97942,0,0,1-.29687.63867.87856.87856,0,0,1-.61524.22754h-6.38281a.97084.97084,0,0,1-.958-.59278l-6.83886-15.36523c-.06153-.15137-.13672-.22754-.22754-.22754q-.1377,0-.22852.31934l-1.77734,15a.83468.83468,0,0,1-.958.86621H720.0166A.7144.7144,0,0,1,719.42383,696.31055Z" transform="translate(-540.37892 -609.54688)"/><path class="8c697be5-d0dd-49dd-b0ea-ed5aa9d4ba02" d="M772.85938,671.96289H759.95605a.4073.4073,0,0,0-.41015.36523l-.50195,4.01172c0,.24414.10644.36524.31933.36524h7.8877a.72743.72743,0,0,1,.57031.22851.78316.78316,0,0,1,.15918.6377l-.68359,5.5625a.89477.89477,0,0,1-.958.86621h-7.8877a.322.322,0,0,0-.36426.36523L757.54,688.833v.09082a.24143.24143,0,0,0,.27344.27344h12.94824a.72882.72882,0,0,1,.57031.22851.78541.78541,0,0,1,.15918.63867l-.68359,5.60743a.93073.93073,0,0,1-.31934.63867.966.966,0,0,1-.63867.22754H749.10449a.7144.7144,0,0,1-.59277-.22754.84523.84523,0,0,1-.13672-.63867l3.69336-30.18262a.89423.89423,0,0,1,.958-.86621h20.74414a.73009.73009,0,0,1,.57031.22754.7854.7854,0,0,1,.15918.63867l-.68359,5.6084A.89316.89316,0,0,1,772.85938,671.96289Z" transform="translate(-540.37892 -609.54688)"/><path class="8c697be5-d0dd-49dd-b0ea-ed5aa9d4ba02" d="M776.96191,694.48633a7.92451,7.92451,0,0,1-2.96289-6.47461c0-.27344.0293-.71289.09082-1.32227l.09082-.45507a.97033.97033,0,0,1,.29688-.63868.87931.87931,0,0,1,.61523-.22851h6.51953q.86572,0,.7754.457l-.0459.501a2.52941,2.52941,0,0,0,1.0039,2.23339,4.519,4.519,0,0,0,3.09961,1.00391,3.39161,3.39161,0,0,0,2.55371-.82031,2.461,2.461,0,0,0,.77442-1.6875,1.4682,1.4682,0,0,0-.84278-1.36719,17.78991,17.78991,0,0,0-2.9414-1.09473l-1.23047-.41113a20.77829,20.77829,0,0,1-6.49707-3.25976,6.91019,6.91019,0,0,1-2.62207-5.8125,9.67666,9.67666,0,0,1,1.71-5.6543A11.35125,11.35125,0,0,1,782,665.626a15.10535,15.10535,0,0,1,6.45215-1.36817,13.79154,13.79154,0,0,1,5.72168,1.14063,9.09681,9.09681,0,0,1,3.94336,3.25976,8.54813,8.54813,0,0,1,1.41406,4.85547q0,.41016-.0918,1.32227l-.04492.22754a.97491.97491,0,0,1-.29687.63867.87858.87858,0,0,1-.61524.22754h-6.52051q-.86571,0-.77441-.36426l.04492-.36426a3.04013,3.04013,0,0,0-.93457-2.48535,4.77431,4.77431,0,0,0-5.49316-.45605,2.10693,2.10693,0,0,0-.91211,1.80078,2.04288,2.04288,0,0,0,1.208,1.75586,28.43063,28.43063,0,0,0,4.582,1.8457q.36474.1377,2.80371.93555a9.00193,9.00193,0,0,1,4.08105,2.68945,6.694,6.694,0,0,1,1.6416,4.53711,10.03158,10.03158,0,0,1-1.71,5.79,11.259,11.259,0,0,1-4.74218,3.89746,16.15395,16.15395,0,0,1-6.81543,1.39062A12.24854,12.24854,0,0,1,776.96191,694.48633Z" transform="translate(-540.37892 -609.54688)"/><path class="8c697be5-d0dd-49dd-b0ea-ed5aa9d4ba02" d="M803.36035,694.48633a7.92451,7.92451,0,0,1-2.96289-6.47461c0-.27344.0293-.71289.09082-1.32227l.09082-.45507a.97033.97033,0,0,1,.29688-.63868.87931.87931,0,0,1,.61523-.22851h6.51953q.86572,0,.77539.457l-.0459.501a2.52942,2.52942,0,0,0,1.00391,2.23339,4.519,4.519,0,0,0,3.09961,1.00391,3.39162,3.39162,0,0,0,2.55371-.82031,2.461,2.461,0,0,0,.77442-1.6875,1.46821,1.46821,0,0,0-.84278-1.36719,17.79064,17.79064,0,0,0-2.9414-1.09473l-1.23047-.41113a20.77829,20.77829,0,0,1-6.49707-3.25976,6.91019,6.91019,0,0,1-2.62207-5.8125,9.67666,9.67666,0,0,1,1.71-5.6543,11.35125,11.35125,0,0,1,4.65039-3.8291,15.10535,15.10535,0,0,1,6.45215-1.36817,13.79154,13.79154,0,0,1,5.72168,1.14063,9.09672,9.09672,0,0,1,3.94335,3.25976,8.54806,8.54806,0,0,1,1.41407,4.85547q0,.41016-.0918,1.32227l-.04492.22754a.97488.97488,0,0,1-.29688.63867.87855.87855,0,0,1-.61523.22754h-6.52051q-.86573,0-.77441-.36426l.04492-.36426a3.04013,3.04013,0,0,0-.93457-2.48535,4.77433,4.77433,0,0,0-5.49317-.45605,2.107,2.107,0,0,0-.9121,1.80078,2.04288,2.04288,0,0,0,1.208,1.75586,28.431,28.431,0,0,0,4.582,1.8457q.36475.1377,2.80372.93555a9.002,9.002,0,0,1,4.08105,2.68945,6.694,6.694,0,0,1,1.6416,4.53711,10.03158,10.03158,0,0,1-1.71,5.79,11.25906,11.25906,0,0,1-4.74219,3.89746,16.15391,16.15391,0,0,1-6.81543,1.39062A12.24853,12.24853,0,0,1,803.36035,694.48633Z" transform="translate(-540.37892 -609.54688)"/></svg>