<svg id="Layer_1" data-name="Layer 1" xmlns="http://www.w3.org/2000/svg" viewBox="0 0 1190.55 385.9"><defs><style>.cls-1{fill:#00e8e8;}.cls-2{fill:#e71d73;}.cls-3{fill:#3c3c3b;}.cls-4{fill:#f6f6f6;}.cls-5{fill:#ededed;}.cls-6{fill:none;stroke:#e71d73;stroke-miterlimit:10;stroke-width:11px;}</style></defs><title>funfactsg</title><polygon class="cls-1" points="7.05 15.04 0 22.09 0 15.04 7.05 15.04"/><polygon class="cls-1" points="77.05 15.04 0 92.09 0 59.56 44.52 15.04 77.05 15.04"/><polygon class="cls-1" points="147.05 15.04 0 162.09 0 129.56 114.52 15.04 147.05 15.04"/><polygon class="cls-1" points="217.05 15.04 0 232.09 0 199.56 184.52 15.04 217.05 15.04"/><polygon class="cls-1" points="287.05 15.04 0 302.09 0 269.57 254.52 15.04 287.05 15.04"/><polygon class="cls-1" points="304.71 34.85 304.71 67.38 0 372.09 0 339.57 304.71 34.85"/><polygon class="cls-1" points="304.71 104.85 304.71 137.38 56.19 385.9 23.67 385.9 304.71 104.85"/><polygon class="cls-1" points="304.71 174.85 304.71 207.38 126.19 385.9 93.67 385.9 304.71 174.85"/><polygon class="cls-1" points="304.71 244.86 304.71 277.38 196.19 385.9 163.67 385.9 304.71 244.86"/><polygon class="cls-1" points="304.71 314.86 304.71 347.38 266.19 385.9 233.67 385.9 304.71 314.86"/><polygon class="cls-1" points="304.71 384.86 304.71 385.9 303.67 385.9 304.71 384.86"/><polygon class="cls-1" points="917.05 15.04 856.15 75.94 856.15 43.41 884.52 15.04 917.05 15.04"/><polygon class="cls-1" points="987.05 15.04 856.15 145.94 856.15 113.41 954.52 15.04 987.05 15.04"/><polygon class="cls-1" points="1057.05 15.04 856.15 215.94 856.15 183.41 1024.52 15.04 1057.05 15.04"/><polygon class="cls-1" points="1127.05 15.04 856.15 285.94 856.15 253.42 1094.52 15.04 1127.05 15.04"/><polygon class="cls-1" points="1190.55 21.54 856.15 355.94 856.15 323.42 1164.52 15.04 1190.55 15.04 1190.55 21.54"/><polygon class="cls-1" points="1190.55 59.01 1190.55 91.54 896.19 385.9 863.67 385.9 1190.55 59.01"/><polygon class="cls-1" points="1190.55 129.01 1190.55 161.54 966.19 385.9 933.67 385.9 1190.55 129.01"/><polygon class="cls-1" points="1190.55 199.01 1190.55 231.54 1036.19 385.9 1003.67 385.9 1190.55 199.01"/><polygon class="cls-1" points="1190.55 269.02 1190.55 301.54 1106.19 385.9 1073.67 385.9 1190.55 269.02"/><polygon class="cls-1" points="1190.55 339.02 1190.55 371.54 1176.19 385.9 1143.67 385.9 1190.55 339.02"/><path class="cls-1" d="M433.05,148.68a90.93,90.93,0,1,1-57.87,20.79l57.87,70.15Z" transform="translate(0 -59.96)"/><path class="cls-2" d="M818.8,239.62a90.93,90.93,0,1,1-90.93-90.94A90.93,90.93,0,0,1,818.8,239.62Z" transform="translate(0 -59.96)"/><path class="cls-3" d="M562.07,250.86l-4.62-28.37v-.17c0-.48.25-.73.77-.73H565a.77.77,0,0,1,.81.73l1.84,17.54c.06.15.13.22.21.22s.16-.07.22-.22l6.07-17.54a.92.92,0,0,1,1-.73h6.59c.42,0,.64.16.64.47a.89.89,0,0,1-.09.43l-11.64,28.37a1.15,1.15,0,0,1-.38.49,1,1,0,0,1-.6.2h-6.72A.74.74,0,0,1,562.07,250.86Z" transform="translate(0 -59.96)"/><path class="cls-3" d="M583.29,249.62a7.45,7.45,0,0,1-2.78-6.08c0-.25,0-.67.08-1.24l.09-.42a.9.9,0,0,1,.28-.6.79.79,0,0,1,.58-.22h6.12c.54,0,.78.15.72.43l0,.47a2.38,2.38,0,0,0,.94,2.1,4.23,4.23,0,0,0,2.91.94,3.22,3.22,0,0,0,2.4-.77,2.31,2.31,0,0,0,.72-1.58,1.39,1.39,0,0,0-.79-1.29,17.38,17.38,0,0,0-2.76-1l-1.15-.38a19.47,19.47,0,0,1-6.1-3.06,6.49,6.49,0,0,1-2.46-5.45,9.07,9.07,0,0,1,1.6-5.31,10.62,10.62,0,0,1,4.37-3.59,14.12,14.12,0,0,1,6.05-1.29,13,13,0,0,1,5.37,1.07,8.43,8.43,0,0,1,3.7,3.06,8,8,0,0,1,1.33,4.56c0,.25,0,.67-.08,1.24l0,.21a.9.9,0,0,1-.28.6.83.83,0,0,1-.57.22h-6.12c-.54,0-.79-.12-.73-.35l0-.34a2.84,2.84,0,0,0-.87-2.33,4.49,4.49,0,0,0-5.16-.43,2,2,0,0,0-.86,1.69,1.91,1.91,0,0,0,1.14,1.65,26.55,26.55,0,0,0,4.3,1.73c.23.09,1.1.38,2.63.88a8.47,8.47,0,0,1,3.83,2.52,6.29,6.29,0,0,1,1.54,4.26,9.38,9.38,0,0,1-1.6,5.43,10.62,10.62,0,0,1-4.45,3.66,15.19,15.19,0,0,1-6.4,1.31A11.5,11.5,0,0,1,583.29,249.62Z" transform="translate(0 -59.96)"/><circle class="cls-4" cx="433.05" cy="179.65" r="80.9"/><path class="cls-3" d="M488.38,225.07l-8.15,1.1c-4.43-2-9.34-2.55-11-.75-3.76,4.13-15.41,0-21,0s-9.73,3.72-14.58,7.08l-9,1.22a98.74,98.74,0,0,0-12.85-1.16c-7.86-.2-15,2.6-20.7,5.72l-13.34,1.81V250l0,.46h0c.36,4.07,5.87,8.16,10.35,12.11,6.38,5.63,30.05-1.13,36.43-5.48s20.29-1.66,36.07-.15,19.15-7.89,26.29-17.66a6.88,6.88,0,0,0,1.43-3.83l0,0Z" transform="translate(0 -59.96)"/><path class="cls-1" d="M488.32,225.93a6.7,6.7,0,0,1-1.39,3.51c-6,8.25-9.38,16.14-19.66,17.54a20.89,20.89,0,0,1-3.47.27,27.62,27.62,0,0,1-3.2-.14l-3.92-.4c-1-.09-1.94-.23-2.89-.32-2.38-.27-4.73-.54-6.94-.76l-2.93-.27c-2.57-.23-5-.41-7.25-.45-1.13,0-2.21,0-3.25.09-3.7.13-6.67.81-8.88,2.29a17,17,0,0,1-2.53,1.4,47.46,47.46,0,0,1-5.45,2.26A78.07,78.07,0,0,1,406,253.83a38.64,38.64,0,0,1-3.83.63,35.42,35.42,0,0,1-8,.32,13.17,13.17,0,0,1-2.75-.45,7.57,7.57,0,0,1-3.24-1.58c-.5-.45-1-.9-1.54-1.31s-1.12-1-1.71-1.49a39.85,39.85,0,0,1-4-3.74,12,12,0,0,1-1.48-1.71c-1.63-2.21-2.3-4.46-1-6.63l.09-.13a8.79,8.79,0,0,1,2.12-2.26c.18-.13.4-.31.63-.45l.18-.18a63.23,63.23,0,0,1,17.76-10.09,45,45,0,0,1,4.46-1.27,32.92,32.92,0,0,1,8.16-.81h.36l3.07.14c2.84.18,5.09.45,7,.72,1,.13,2,.27,2.79.36,3.88.59,5.81.72,8.56-1.22l1.31-.9c2.84-2,5.46-4.06,8.34-5.18a13.07,13.07,0,0,1,5-1,23.92,23.92,0,0,1,3.42.32c.86.13,1.8.27,2.75.45,2.21.36,4.55.76,6.76.94a16.91,16.91,0,0,0,3.07.09c2.12-.09,3.92-.54,5.05-1.8.94-1,3-1.31,5.41-.9a12,12,0,0,1,2.57.58,21,21,0,0,1,5.36,2.35,12.69,12.69,0,0,1,1.89,1.31,9.87,9.87,0,0,1,3.43,4.28A5.15,5.15,0,0,1,488.32,225.93Z" transform="translate(0 -59.96)"/><path class="cls-4" d="M381.22,235l-2.75,2.71a8.79,8.79,0,0,1,2.12-2.26C380.77,235.35,381,235.17,381.22,235Z" transform="translate(0 -59.96)"/><path class="cls-5" d="M403.62,223.49,380.9,246.21a12,12,0,0,1-1.48-1.71l19.74-19.74A45,45,0,0,1,403.62,223.49Z" transform="translate(0 -59.96)"/><path class="cls-5" d="M415.21,222.82l-28.63,28.62c-.58-.49-1.12-1-1.71-1.49l27.27-27.27Z" transform="translate(0 -59.96)"/><path class="cls-5" d="M425,223.9l-30.88,30.88a13.17,13.17,0,0,1-2.75-.45l30.84-30.79C423.23,223.67,424.18,223.81,425,223.9Z" transform="translate(0 -59.96)"/><path class="cls-5" d="M443.2,216.6,406,253.83a38.64,38.64,0,0,1-3.83.63l32.72-32.68C437.7,219.75,440.32,217.72,443.2,216.6Z" transform="translate(0 -59.96)"/><path class="cls-5" d="M454.38,216.33,422,248.69a47.46,47.46,0,0,1-5.45,2.26l35.07-35.07C452.49,216,453.43,216.15,454.38,216.33Z" transform="translate(0 -59.96)"/><path class="cls-5" d="M464.21,217.36l-27.54,27.55c-1.13,0-2.21,0-3.25.09l27.72-27.73A16.91,16.91,0,0,0,464.21,217.36Z" transform="translate(0 -59.96)"/><path class="cls-5" d="M477.24,215.24l-30.39,30.39-2.93-.27,30.75-30.7A12,12,0,0,1,477.24,215.24Z" transform="translate(0 -59.96)"/><path class="cls-5" d="M484.49,218.9l-27.81,27.81c-1-.09-1.94-.23-2.89-.32l28.81-28.8A12.69,12.69,0,0,1,484.49,218.9Z" transform="translate(0 -59.96)"/><path class="cls-5" d="M488.32,225.93l-21.05,21a20.89,20.89,0,0,1-3.47.27l24.12-24.07A5.15,5.15,0,0,1,488.32,225.93Z" transform="translate(0 -59.96)"/><circle class="cls-4" cx="727.22" cy="179.65" r="80.9"/><path class="cls-3" d="M682.93,250.75v-7.46l88.57-14.81v7.46l-14.38,2.62-17.65,12.19s-18.53,6.43-19.1,6.43H686.7Z" transform="translate(0 -59.96)"/><path class="cls-3" d="M686.12,257.28l3.57,6.11,8.69-2.82a21.74,21.74,0,0,1,10-1c24.56,3.84,39.48-8.18,45.6-14.71a22.21,22.21,0,0,1,8.86-5.91l8.64-3-3.09-6.56-.1,0-3.57-6.11-8.69,2.81a21.74,21.74,0,0,1-10,1c-24.56-3.83-39.48,8.18-45.6,14.72a22.42,22.42,0,0,1-8.86,5.91l-8.64,3" transform="translate(0 -59.96)"/><path class="cls-2" d="M771.49,228.5l-6.36,2.22-2.28.81a20.56,20.56,0,0,0-6.92,4.07l-4.2,4.14a48.85,48.85,0,0,1-22.47,11.85,46.51,46.51,0,0,1-5.31.93,56.06,56.06,0,0,1-10.75.18h-.06c-1.23-.12-2.47-.24-3.83-.43a4.94,4.94,0,0,1-.92-.12,21.15,21.15,0,0,0-10,1l-.81.24-6.42,2-1.48.5-3.52-6-.06-.13L684.74,247,683,243.32l8.46-3,.18-.06a22.37,22.37,0,0,0,8.83-5.86,50.31,50.31,0,0,1,8.77-7.41l.06-.06A49.83,49.83,0,0,1,727,219.73c1.61-.24,3.27-.49,5.07-.61a54.21,54.21,0,0,1,10.49.06c1.17.12,2.35.25,3.52.43.12,0,.25.06.37.06a22.18,22.18,0,0,0,9.63-1l2.84-.92,5.87-1.92.18.31,3.4,5.81.06-.06.43.86,1.36,3Z" transform="translate(0 -59.96)"/><path class="cls-5" d="M709.19,227l-23,23-.06-.13L684.74,247l6.67-6.67.18-.06a22.37,22.37,0,0,0,8.83-5.86A50.31,50.31,0,0,1,709.19,227Z" transform="translate(0 -59.96)"/><path class="cls-5" d="M732,219.12l-34.46,34.26-6.42,2L727,219.73C728.58,219.49,730.24,219.24,732,219.12Z" transform="translate(0 -59.96)"/><path class="cls-5" d="M746.42,219.67l-33.22,33h-.06c-1.23-.12-2.47-.24-3.83-.43l33.22-33.09c1.17.12,2.35.25,3.52.43C746.17,219.61,746.3,219.67,746.42,219.67Z" transform="translate(0 -59.96)"/><path class="cls-5" d="M764.94,216.15l-35.68,35.44a46.51,46.51,0,0,1-5.31.93l34.94-34.76,5.87-1.92Z" transform="translate(0 -59.96)"/><path class="cls-5" d="M770.19,225.72l-5.06,5-2.28.81a20.56,20.56,0,0,0-6.92,4.07l12.9-12.84Z" transform="translate(0 -59.96)"/><path class="cls-3" d="M344,402.68a.55.55,0,0,1-.08-.4l2.64-21.46c.05-.37.24-.55.58-.55h3.36a.6.6,0,0,1,.58.35l3.61,7.54c0,.07.05.1.11.1a.17.17,0,0,0,.14-.1l5.51-7.54a.83.83,0,0,1,.68-.35h3.35c.35,0,.5.18.45.55l-2.64,21.46a.54.54,0,0,1-.58.55h-3.35c-.37,0-.53-.18-.48-.55l1.74-13.95c0-.11,0-.17-.07-.18s-.09,0-.16.11l-3.8,5.32a.79.79,0,0,1-.68.35h-1.58a.54.54,0,0,1-.58-.35l-2.48-5.32c0-.09-.09-.12-.14-.1a.17.17,0,0,0-.09.17l-1.7,13.95a.58.58,0,0,1-.62.55h-3.35A.44.44,0,0,1,344,402.68Z" transform="translate(0 -59.96)"/><path class="cls-3" d="M368.64,401.28a6.25,6.25,0,0,1-1.95-4.83c0-.22,0-.58.06-1.1l1.81-14.53a.53.53,0,0,1,.58-.55h3.35c.36,0,.53.18.48.55l-1.8,14.56a5,5,0,0,0,0,.62,3.15,3.15,0,0,0,.87,2.32,3.21,3.21,0,0,0,2.38.87,4,4,0,0,0,2.79-1.05,4.4,4.4,0,0,0,1.37-2.76l1.77-14.56a.58.58,0,0,1,.61-.55h3.36c.36,0,.51.18.45.55L383,395.35a8.87,8.87,0,0,1-1.51,4,8.39,8.39,0,0,1-3.18,2.72,9.73,9.73,0,0,1-4.36,1A7.46,7.46,0,0,1,368.64,401.28Z" transform="translate(0 -59.96)"/><path class="cls-3" d="M387.65,401.51a5.2,5.2,0,0,1-2-4.29,7.29,7.29,0,0,1,.07-.87l.06-.55a.58.58,0,0,1,.61-.55h3.29a.57.57,0,0,1,.39.12.31.31,0,0,1,.09.3l-.06.45a2.34,2.34,0,0,0,.87,2.18,4.27,4.27,0,0,0,2.87.89,4,4,0,0,0,2.69-.81,2.53,2.53,0,0,0,.92-2,1.66,1.66,0,0,0-.47-1.2,4.27,4.27,0,0,0-1.26-.85c-.52-.25-1.35-.6-2.46-1.05a25,25,0,0,1-3.18-1.4,6.74,6.74,0,0,1-2.16-1.85,4.6,4.6,0,0,1-.88-2.87q0-.22.06-.81a6.57,6.57,0,0,1,2.68-4.66,9.33,9.33,0,0,1,5.73-1.72,9.42,9.42,0,0,1,3.92.76,6,6,0,0,1,2.61,2.12,5.68,5.68,0,0,1,.92,3.21,7.21,7.21,0,0,1-.07.84l-.06.32a.54.54,0,0,1-.58.55H399c-.36,0-.53-.11-.48-.32l0-.32a2.66,2.66,0,0,0-.79-2.31,3.87,3.87,0,0,0-2.85-.95,4,4,0,0,0-2.53.72,2.45,2.45,0,0,0-.92,2,1.72,1.72,0,0,0,.45,1.18,4.47,4.47,0,0,0,1.34.93c.59.29,1.48.65,2.66,1.08,1.35.54,2.39,1,3.12,1.37a6.26,6.26,0,0,1,2,1.68,4.33,4.33,0,0,1,.9,2.82c0,.17,0,.45-.06.83a6.68,6.68,0,0,1-1.39,3.45,7.53,7.53,0,0,1-3.07,2.29,11.08,11.08,0,0,1-4.34.81A8.45,8.45,0,0,1,387.65,401.51Z" transform="translate(0 -59.96)"/><path class="cls-3" d="M406.52,401.28a6.28,6.28,0,0,1-1.93-4.83,9.07,9.07,0,0,1,.06-1.2l.91-7.44a8.94,8.94,0,0,1,1.51-4.09,8.22,8.22,0,0,1,3.19-2.74,9.72,9.72,0,0,1,4.38-1,7.69,7.69,0,0,1,5.31,1.74,5.92,5.92,0,0,1,1.95,4.64c0,.24,0,.59-.07,1.07,0,.19-.22.31-.55.35l-3.35.23h-.13c-.32,0-.46-.06-.42-.17l0-.19a3.82,3.82,0,0,0,0-.55,3.14,3.14,0,0,0-.89-2.35,3.27,3.27,0,0,0-2.4-.87,4,4,0,0,0-2.82,1,4.22,4.22,0,0,0-1.34,2.72l-1,7.77a2.62,2.62,0,0,0,0,.55,3.15,3.15,0,0,0,.87,2.32,3.28,3.28,0,0,0,2.42.87,4.06,4.06,0,0,0,2.81-1,4.33,4.33,0,0,0,1.35-2.71c0-.26.24-.38.58-.36l3.32.16c.34.05.51.1.51.17l0,.16a8.15,8.15,0,0,1-4.65,6.57,10,10,0,0,1-4.37.94A7.46,7.46,0,0,1,406.52,401.28Z" transform="translate(0 -59.96)"/><path class="cls-3" d="M423.25,402.28l2.64-21.46a.54.54,0,0,1,.58-.55h3.35c.37,0,.52.18.45.55l-2.19,17.92c0,.12.06.19.16.19H438.3c.34,0,.49.18.45.55l-.35,2.8c0,.37-.24.55-.58.55H423.7C423.36,402.83,423.21,402.65,423.25,402.28Z" transform="translate(0 -59.96)"/><path class="cls-3" d="M458,384.17H447.94a.17.17,0,0,0-.13.05.15.15,0,0,0-.07.14l-.61,4.93c0,.13.05.2.16.2h6.54c.37,0,.52.18.46.54l-.33,2.81a.57.57,0,0,1-.61.54h-6.54a.18.18,0,0,0-.2.2l-.64,5.16c0,.12,0,.19.16.19h10.09c.34,0,.49.18.45.55l-.35,2.8c-.05.37-.24.55-.58.55H441.59c-.35,0-.5-.18-.45-.55l2.64-21.46a.53.53,0,0,1,.58-.55h14.15c.34,0,.49.18.45.55l-.36,2.8A.53.53,0,0,1,458,384.17Z" transform="translate(0 -59.96)"/><path class="cls-3" d="M465.63,402.28l2.64-21.46a.54.54,0,0,1,.58-.55h3.35c.37,0,.52.18.45.55L470,402.28a.57.57,0,0,1-.61.55h-3.35C465.74,402.83,465.59,402.65,465.63,402.28Z" transform="translate(0 -59.96)"/><path class="cls-3" d="M475.76,401.51a5.2,5.2,0,0,1-2-4.29,7.29,7.29,0,0,1,.07-.87l.06-.55a.59.59,0,0,1,.61-.55h3.29a.57.57,0,0,1,.39.12.29.29,0,0,1,.09.3l-.06.45a2.34,2.34,0,0,0,.87,2.18,4.27,4.27,0,0,0,2.87.89,4,4,0,0,0,2.69-.81,2.53,2.53,0,0,0,.92-2,1.66,1.66,0,0,0-.47-1.2,4.27,4.27,0,0,0-1.26-.85q-.78-.37-2.46-1.05a25,25,0,0,1-3.18-1.4,7,7,0,0,1-2.16-1.85,4.6,4.6,0,0,1-.88-2.87q0-.22.06-.81a6.57,6.57,0,0,1,2.68-4.66,10.44,10.44,0,0,1,9.65-1,6,6,0,0,1,2.61,2.12,5.68,5.68,0,0,1,.92,3.21q0,.25-.06.84l-.07.32a.54.54,0,0,1-.58.55h-3.29c-.36,0-.52-.11-.48-.32l0-.32a2.63,2.63,0,0,0-.79-2.31,3.87,3.87,0,0,0-2.85-.95,4,4,0,0,0-2.53.72,2.45,2.45,0,0,0-.92,2,1.72,1.72,0,0,0,.45,1.18,4.47,4.47,0,0,0,1.34.93c.59.29,1.48.65,2.66,1.08,1.35.54,2.4,1,3.13,1.37a6.23,6.23,0,0,1,2,1.68,4.28,4.28,0,0,1,.91,2.82c0,.17,0,.45-.07.83a6.76,6.76,0,0,1-1.38,3.45,7.56,7.56,0,0,1-3.08,2.29,11.08,11.08,0,0,1-4.34.81A8.48,8.48,0,0,1,475.76,401.51Z" transform="translate(0 -59.96)"/><path class="cls-2" d="M503.46,380.27h4.9a.48.48,0,0,1,.42.16.59.59,0,0,1,.1.45l-2.61,21.34a.64.64,0,0,1-.68.61h-4.7a.55.55,0,0,1-.41-.16.59.59,0,0,1-.11-.45l2-16.22v-.06c0-.13-.08-.19-.23-.19l-2.48.09c-.36,0-.54-.19-.51-.58l.41-3.44a.79.79,0,0,1,.62-.71l2.54-.75A2.58,2.58,0,0,1,503.46,380.27Z" transform="translate(0 -59.96)"/><path class="cls-2" d="M524.67,394.9a7.27,7.27,0,0,1-.1,1.16,8.25,8.25,0,0,1-1,3,7.86,7.86,0,0,1-3.18,2.93,9.9,9.9,0,0,1-4.69,1.1,8.29,8.29,0,0,1-4.25-1,5.48,5.48,0,0,1-2.48-3,6.16,6.16,0,0,1-.39-2.13,8.24,8.24,0,0,1,1.26-4.32,6.63,6.63,0,0,1,1.45-1.55c.15-.08.17-.2.06-.35a3.69,3.69,0,0,1-1-1.42,4.81,4.81,0,0,1-.42-2,7.06,7.06,0,0,1,1.65-4.57,7.83,7.83,0,0,1,3-2.16,10.16,10.16,0,0,1,4-.78,8.87,8.87,0,0,1,4.22.92,5,5,0,0,1,2.38,2.82,6.35,6.35,0,0,1,.39,2.26,5.8,5.8,0,0,1-1.16,3.51,7.82,7.82,0,0,1-1.39,1.36c-.15.15-.16.27,0,.35a3.47,3.47,0,0,1,1.16,1.61A6,6,0,0,1,524.67,394.9Zm-5.93.55a3.82,3.82,0,0,0,0-.55,2.08,2.08,0,0,0-.13-.84,1.55,1.55,0,0,0-1.58-1.06,2,2,0,0,0-1.83,1.06,3.58,3.58,0,0,0-.45,1.45,3.15,3.15,0,0,0,0,.58,2.27,2.27,0,0,0,.2,1,1.57,1.57,0,0,0,1.51.84,1.93,1.93,0,0,0,1.61-.74A3,3,0,0,0,518.74,395.45Zm-2.22-6.17a1.9,1.9,0,0,0,1,.24,2.26,2.26,0,0,0,1-.24,2,2,0,0,0,.78-.66,3.11,3.11,0,0,0,.48-1.42l0-.42A1.62,1.62,0,0,0,518,385a2.29,2.29,0,0,0-1.11.28,1.76,1.76,0,0,0-.76.79,3.37,3.37,0,0,0-.38,1.22,1.33,1.33,0,0,0,0,.39,2.75,2.75,0,0,0,.16.93A1.46,1.46,0,0,0,516.52,389.28Z" transform="translate(0 -59.96)"/><path class="cls-2" d="M529.15,389.52a4.65,4.65,0,0,1-1.32-3.39,5.87,5.87,0,0,1,.84-3,6.38,6.38,0,0,1,2.22-2.25,5.55,5.55,0,0,1,2.93-.84,4.61,4.61,0,0,1,2.39.63,4.45,4.45,0,0,1,1.67,1.72,4.87,4.87,0,0,1,.62,2.42,5.75,5.75,0,0,1-.84,3,6.38,6.38,0,0,1-2.23,2.24,5.55,5.55,0,0,1-2.93.84A4.49,4.49,0,0,1,529.15,389.52Zm.13,13a.82.82,0,0,1,.16-.38l14.18-21.4a.82.82,0,0,1,.74-.42h2.84c.32,0,.48.12.48.35a.81.81,0,0,1-.16.39l-14.15,21.4a.82.82,0,0,1-.74.42h-2.87Q529.28,402.83,529.28,402.47ZM534.69,387a2.7,2.7,0,0,0,.78-1.94,2,2,0,0,0-.57-1.46,1.86,1.86,0,0,0-1.43-.6,2.49,2.49,0,0,0-1.85.81,2.6,2.6,0,0,0-.79,1.9,2.06,2.06,0,0,0,.58,1.5,2,2,0,0,0,1.45.59A2.47,2.47,0,0,0,534.69,387Zm5.48,14.68a4.73,4.73,0,0,1-1.32-3.4,5.78,5.78,0,0,1,.84-3,6.41,6.41,0,0,1,2.24-2.24,5.65,5.65,0,0,1,3-.84,4.58,4.58,0,0,1,2.38.63,4.47,4.47,0,0,1,1.66,1.71,4.86,4.86,0,0,1,.6,2.4,5.84,5.84,0,0,1-.84,3.05,6.52,6.52,0,0,1-2.22,2.24,5.59,5.59,0,0,1-2.94.84A4.47,4.47,0,0,1,540.17,401.72Zm5.56-2.47a2.62,2.62,0,0,0,.79-1.9,2.06,2.06,0,0,0-.58-1.5,1.94,1.94,0,0,0-1.45-.6,2.49,2.49,0,0,0-1.85.81,2.62,2.62,0,0,0-.79,1.9,2.06,2.06,0,0,0,.58,1.5,2,2,0,0,0,1.48.6A2.47,2.47,0,0,0,545.73,399.25Z" transform="translate(0 -59.96)"/><path class="cls-3" d="M558,402.28l2.64-21.46a.53.53,0,0,1,.58-.55h7.67a7.71,7.71,0,0,1,5.12,1.59,5.3,5.3,0,0,1,1.91,4.27c0,.22,0,.54-.07,1l-1.1,8.9a7.17,7.17,0,0,1-1.38,3.57,7.59,7.59,0,0,1-3,2.4,10,10,0,0,1-4.2.86h-7.67C558.13,402.83,558,402.65,558,402.28Zm5-3.35h3.77a3.3,3.3,0,0,0,2.45-1,4.5,4.5,0,0,0,1.23-2.68l.93-7.41a4.82,4.82,0,0,0,0-.61,3.19,3.19,0,0,0-.75-2.24,2.74,2.74,0,0,0-2.12-.82h-3.73c-.13,0-.2.06-.2.19l-1.77,14.38C562.86,398.86,562.91,398.93,563,398.93Z" transform="translate(0 -59.96)"/><path class="cls-3" d="M594.22,384.17H584.13a.18.18,0,0,0-.13.05.17.17,0,0,0-.06.14l-.61,4.93c0,.13,0,.2.16.2H590q.54,0,.45.54l-.32,2.81a.58.58,0,0,1-.61.54H583c-.13,0-.19.07-.19.2l-.64,5.16c0,.12.05.19.16.19h10.08c.35,0,.5.18.46.55l-.36,2.8a.54.54,0,0,1-.58.55H577.78c-.34,0-.49-.18-.45-.55L580,380.82c0-.37.24-.55.58-.55H594.7c.35,0,.5.18.45.55l-.35,2.8A.54.54,0,0,1,594.22,384.17Z" transform="translate(0 -59.96)"/><path class="cls-3" d="M595.57,402.28l2.64-21.46c0-.37.24-.55.58-.55H602a.59.59,0,0,1,.58.35L608.79,394c0,.09.08.12.13.1s.07-.08.09-.17l1.61-13.14c0-.37.24-.55.58-.55h3.29c.37,0,.53.18.48.55l-2.64,21.46a.57.57,0,0,1-.61.55h-3.19a.62.62,0,0,1-.58-.39l-6.19-13.53c0-.09-.09-.12-.13-.1s-.07.07-.09.16L600,402.28a.58.58,0,0,1-.62.55H596C595.68,402.83,595.53,402.65,595.57,402.28Z" transform="translate(0 -59.96)"/><path class="cls-3" d="M618.05,401.51a5.2,5.2,0,0,1-2-4.29q0-.29.06-.87l.07-.55a.58.58,0,0,1,.61-.55h3.29a.52.52,0,0,1,.38.12.29.29,0,0,1,.1.3l-.06.45a2.34,2.34,0,0,0,.87,2.18,4.25,4.25,0,0,0,2.87.89,4,4,0,0,0,2.69-.81,2.53,2.53,0,0,0,.92-2,1.66,1.66,0,0,0-.47-1.2,4.27,4.27,0,0,0-1.26-.85q-.79-.37-2.46-1.05a25,25,0,0,1-3.18-1.4,6.74,6.74,0,0,1-2.16-1.85,4.6,4.6,0,0,1-.88-2.87q0-.22.06-.81a6.59,6.59,0,0,1,2.67-4.66,9.36,9.36,0,0,1,5.74-1.72,9.46,9.46,0,0,1,3.92.76,6,6,0,0,1,2.61,2.12,5.68,5.68,0,0,1,.92,3.21c0,.17,0,.45-.07.84l-.06.32c0,.37-.24.55-.58.55h-3.29c-.37,0-.53-.11-.48-.32l0-.32a2.66,2.66,0,0,0-.79-2.31,3.91,3.91,0,0,0-2.85-.95,4,4,0,0,0-2.53.72,2.42,2.42,0,0,0-.92,2,1.72,1.72,0,0,0,.45,1.18,4.47,4.47,0,0,0,1.34.93,27.91,27.91,0,0,0,2.66,1.08c1.35.54,2.39,1,3.12,1.37a6.26,6.26,0,0,1,2,1.68,4.33,4.33,0,0,1,.9,2.82c0,.17,0,.45-.06.83a6.68,6.68,0,0,1-1.39,3.45,7.5,7.5,0,0,1-3.08,2.29,11,11,0,0,1-4.33.81A8.45,8.45,0,0,1,618.05,401.51Z" transform="translate(0 -59.96)"/><path class="cls-3" d="M651.52,384.17H641.43a.2.2,0,0,0-.13.05.17.17,0,0,0-.06.14l-.61,4.93c0,.13,0,.2.16.2h6.54q.55,0,.45.54l-.32,2.81a.57.57,0,0,1-.61.54H640.3a.18.18,0,0,0-.19.2l-.64,5.16c0,.12,0,.19.16.19h10.09c.34,0,.49.18.45.55l-.36,2.8a.53.53,0,0,1-.58.55H635.08c-.34,0-.49-.18-.45-.55l2.65-21.46a.53.53,0,0,1,.58-.55H652c.35,0,.5.18.46.55l-.36,2.8A.54.54,0,0,1,651.52,384.17Z" transform="translate(0 -59.96)"/><path class="cls-3" d="M664.35,402.41l-2.77-8.77c0-.1-.07-.16-.2-.16h-2.83a.24.24,0,0,0-.23.19l-1,8.61a.58.58,0,0,1-.61.55h-3.35c-.35,0-.5-.18-.46-.55l2.65-21.5a.53.53,0,0,1,.58-.54h8.8a5.93,5.93,0,0,1,4.33,1.56,5.62,5.62,0,0,1,1.6,4.2c0,.22,0,.56-.07,1a7.49,7.49,0,0,1-1.55,3.77A6.67,6.67,0,0,1,666,393a.24.24,0,0,0-.13.11.19.19,0,0,0,0,.15l3,8.89a.45.45,0,0,1,0,.23.43.43,0,0,1-.13.29.48.48,0,0,1-.36.13h-3.54A.58.58,0,0,1,664.35,402.41Zm-4.87-18.05-.68,5.42c0,.12.06.19.17.19H663a3.37,3.37,0,0,0,2.41-.92,3.06,3.06,0,0,0,1-2.34,2.42,2.42,0,0,0-.73-1.85,2.65,2.65,0,0,0-1.91-.69h-4.1A.17.17,0,0,0,659.48,384.36Z" transform="translate(0 -59.96)"/><path class="cls-3" d="M696.45,380.82l-.36,2.83a.55.55,0,0,1-.61.55H690.1c-.11,0-.18.06-.23.19l-2.19,17.89a.55.55,0,0,1-.61.55h-3.32c-.37,0-.53-.18-.49-.55l2.2-17.89c0-.13,0-.19-.16-.19H680a.44.44,0,0,1-.37-.15.55.55,0,0,1-.08-.4l.36-2.83a.53.53,0,0,1,.58-.55H696C696.33,380.27,696.49,380.45,696.45,380.82Z" transform="translate(0 -59.96)"/><path class="cls-3" d="M711.46,380.27h3.36c.36,0,.51.18.45.55l-2.65,21.46a.53.53,0,0,1-.58.55h-3.35c-.36,0-.51-.18-.45-.55l1.07-8.7c0-.13-.06-.2-.17-.2h-6.86c-.13,0-.19.07-.19.2l-1.07,8.7a.57.57,0,0,1-.61.55h-3.35c-.35,0-.5-.18-.45-.55l2.64-21.46a.54.54,0,0,1,.58-.55h3.35c.37,0,.52.18.45.55l-1,8.47c0,.13.06.2.16.2h6.87c.13,0,.19-.07.19-.2l1-8.47A.58.58,0,0,1,711.46,380.27Z" transform="translate(0 -59.96)"/><path class="cls-3" d="M729.8,402.38l-.51-3c0-.11-.08-.16-.17-.16h-7.67a.18.18,0,0,0-.19.16l-1.26,3a.65.65,0,0,1-.64.45h-3.64q-.42,0-.42-.36l.06-.25,9.32-21.5a.66.66,0,0,1,.64-.45h4.58a.52.52,0,0,1,.55.45l4,21.5v.12a.44.44,0,0,1-.14.36.52.52,0,0,1-.37.13h-3.64A.47.47,0,0,1,729.8,402.38Zm-6.86-6.67h5.54c.13,0,.19-.08.19-.23l-1.61-9.83c0-.09-.06-.13-.11-.13s-.1,0-.15.13l-4,9.83C722.79,395.63,722.83,395.71,722.94,395.71Z" transform="translate(0 -59.96)"/><path class="cls-3" d="M737.31,402.28,740,380.82c0-.37.24-.55.58-.55h3.23a.59.59,0,0,1,.58.35L750.52,394c.05.09.09.12.13.1s.08-.08.1-.17l1.61-13.14a.54.54,0,0,1,.58-.55h3.29c.36,0,.52.18.48.55l-2.64,21.46a.58.58,0,0,1-.61.55h-3.19a.62.62,0,0,1-.58-.39l-6.19-13.53c0-.09-.09-.12-.13-.1a.22.22,0,0,0-.1.16l-1.58,13.31a.57.57,0,0,1-.61.55h-3.32C737.42,402.83,737.27,402.65,737.31,402.28Z" transform="translate(0 -59.96)"/><path class="cls-3" d="M781,384.17H770.92a.16.16,0,0,0-.12.05.15.15,0,0,0-.07.14l-.61,4.93c0,.13,0,.2.16.2h6.54q.55,0,.45.54l-.32,2.81a.57.57,0,0,1-.61.54H769.8a.18.18,0,0,0-.2.2l-1.06,8.7a.58.58,0,0,1-.61.55h-3.35c-.35,0-.5-.18-.46-.55l2.65-21.46a.53.53,0,0,1,.58-.55h14.11c.35,0,.5.18.45.55l-.35,2.8A.54.54,0,0,1,781,384.17Z" transform="translate(0 -59.96)"/><path class="cls-3" d="M792.58,402.38l-.51-3c0-.11-.08-.16-.16-.16h-7.67a.18.18,0,0,0-.2.16l-1.25,3a.67.67,0,0,1-.65.45H778.5q-.42,0-.42-.36l.06-.25,9.32-21.5a.66.66,0,0,1,.64-.45h4.58a.52.52,0,0,1,.55.45l4,21.5v.12a.45.45,0,0,1-.15.36.52.52,0,0,1-.37.13H793.1A.48.48,0,0,1,792.58,402.38Zm-6.86-6.67h5.54c.13,0,.2-.08.2-.23l-1.62-9.83c0-.09-.06-.13-.11-.13s-.1,0-.14.13l-4,9.83C785.57,395.63,785.61,395.71,785.72,395.71Z" transform="translate(0 -59.96)"/><path class="cls-3" d="M815.43,380.82l-.35,2.83a.56.56,0,0,1-.62.55h-5.38a.23.23,0,0,0-.22.19l-2.19,17.89a.56.56,0,0,1-.62.55h-3.32c-.36,0-.52-.18-.48-.55l2.19-17.89c0-.13,0-.19-.16-.19H799a.43.43,0,0,1-.37-.15.47.47,0,0,1-.08-.4l.35-2.83a.54.54,0,0,1,.58-.55H815C815.31,380.27,815.47,380.45,815.43,380.82Z" transform="translate(0 -59.96)"/><path class="cls-3" d="M489.71,69.63H473.58a.5.5,0,0,0-.51.45l-.63,5c0,.3.13.45.4.45h9.89a.93.93,0,0,1,.72.29,1,1,0,0,1,.2.8l-.86,7a1.13,1.13,0,0,1-1.2,1.09h-9.9a.4.4,0,0,0-.45.45l-1.78,14.19a1.23,1.23,0,0,1-.37.8,1.19,1.19,0,0,1-.83.28H460a.89.89,0,0,1-.74-.28,1.06,1.06,0,0,1-.18-.8l4.64-37.86a1.12,1.12,0,0,1,1.2-1.09h26a.93.93,0,0,1,.72.29,1,1,0,0,1,.2.8l-.86,7A1.13,1.13,0,0,1,489.71,69.63Z" transform="translate(0 -59.96)"/><path class="cls-3" d="M494.62,97.59a11.51,11.51,0,0,1-3.66-9c0-.45,0-1.14.12-2.06l3.09-25a1.12,1.12,0,0,1,1.2-1.09h8.29c.72,0,1,.36,1,1.09l-3.09,25a6.55,6.55,0,0,0-.05.92,4.24,4.24,0,0,0,1.11,3.09,4.1,4.1,0,0,0,3.06,1.14,5.07,5.07,0,0,0,3.61-1.4A5.93,5.93,0,0,0,511,86.55l3-25a1.15,1.15,0,0,1,.4-.8,1.21,1.21,0,0,1,.8-.29h8.35a.91.91,0,0,1,.71.29.94.94,0,0,1,.2.8l-3.08,25a16.22,16.22,0,0,1-2.83,7.55,15.54,15.54,0,0,1-6,5,18.36,18.36,0,0,1-8.15,1.77Q498.28,100.91,494.62,97.59Z" transform="translate(0 -59.96)"/><path class="cls-3" d="M524.13,100.17a1.06,1.06,0,0,1-.17-.8l4.63-37.86a1.13,1.13,0,0,1,1.2-1.09h8a1.21,1.21,0,0,1,1.2.74l8.64,18.93a.27.27,0,0,0,.29.23c.15,0,.24-.13.28-.4l2.18-18.41a1.12,1.12,0,0,1,1.2-1.09h8.35a.91.91,0,0,1,.71.29,1,1,0,0,1,.2.8L556.1,99.37a1.23,1.23,0,0,1-.37.8,1.11,1.11,0,0,1-.77.28h-8a1.22,1.22,0,0,1-1.2-.74l-8.58-19.27c-.07-.19-.17-.29-.28-.29s-.21.13-.29.4l-2.23,18.82a1,1,0,0,1-1.2,1.08h-8.29A.91.91,0,0,1,524.13,100.17Z" transform="translate(0 -59.96)"/><path class="cls-2" d="M602.19,69.63H586.07a.51.51,0,0,0-.52.45l-.63,5c0,.3.14.45.4.45h9.9a.91.91,0,0,1,.71.29,1,1,0,0,1,.2.8l-.86,7a1.12,1.12,0,0,1-1.2,1.09h-9.89a.4.4,0,0,0-.46.45L582,99.37a1.23,1.23,0,0,1-.37.8,1.19,1.19,0,0,1-.83.28h-8.29a.9.9,0,0,1-.75-.28,1.06,1.06,0,0,1-.17-.8l4.63-37.86a1.13,1.13,0,0,1,1.2-1.09h26a.91.91,0,0,1,.71.29,1,1,0,0,1,.2.8l-.86,7A1.12,1.12,0,0,1,602.19,69.63Z" transform="translate(0 -59.96)"/><path class="cls-2" d="M621.7,99.54l-.63-4.12a.35.35,0,0,0-.15-.29.51.51,0,0,0-.31-.11h-11.5a.65.65,0,0,0-.57.4l-1.6,4.12a1.26,1.26,0,0,1-1.26.91h-9c-.54,0-.8-.23-.8-.68a1.28,1.28,0,0,1,.11-.58l16.18-37.86a1.27,1.27,0,0,1,1.26-.91h11.44a1,1,0,0,1,1,.91l6.92,37.86v.23c0,.69-.36,1-1.09,1h-9A.88.88,0,0,1,621.7,99.54Zm-9.61-13.16c0,.27.11.4.34.4h6.86a.5.5,0,0,0,.38-.14.37.37,0,0,0,.08-.37l-1.89-13.21c0-.19-.12-.29-.25-.29s-.24.1-.32.29l-5.2,13.21Z" transform="translate(0 -59.96)"/><path class="cls-2" d="M639.37,97.51a11.83,11.83,0,0,1-3.66-9.13,15.57,15.57,0,0,1,.11-2.23l1.43-11.55a16.58,16.58,0,0,1,2.83-7.66,15.76,15.76,0,0,1,6-5.15A18.37,18.37,0,0,1,654.35,60q6.35,0,10,3.21a10.86,10.86,0,0,1,3.68,8.63c0,.38,0,1-.11,1.94,0,.35-.34.56-1,.63l-8.41.58h-.28c-.54,0-.8-.1-.8-.29l0-.34a4.55,4.55,0,0,0,.06-.86,3.95,3.95,0,0,0-4.29-4.29,5.32,5.32,0,0,0-3.74,1.4,5.94,5.94,0,0,0-1.81,3.75l-1.48,12.29a4.55,4.55,0,0,0-.06.86,4.12,4.12,0,0,0,1.17,3.09,4.28,4.28,0,0,0,3.12,1.14,5.18,5.18,0,0,0,3.72-1.4A5.87,5.87,0,0,0,656,86.61a.74.74,0,0,1,.4-.48,1.26,1.26,0,0,1,.8-.15l8.29.46c.65.08,1,.17,1,.29l-.06.28a15.15,15.15,0,0,1-8.78,12.16,19.12,19.12,0,0,1-8.26,1.74Q643,100.91,639.37,97.51Z" transform="translate(0 -59.96)"/><path class="cls-2" d="M702.36,60.71a1,1,0,0,1,.2.8l-.86,7.09a1.11,1.11,0,0,1-1.2,1.08h-8.92a.52.52,0,0,0-.52.46l-3.6,29.23a1.23,1.23,0,0,1-.37.8,1.11,1.11,0,0,1-.77.28H678a.91.91,0,0,1-.75-.28,1.06,1.06,0,0,1-.17-.8l3.61-29.23c0-.3-.14-.46-.41-.46h-8.63c-.73,0-1-.36-1-1.08l.91-7.09a1.21,1.21,0,0,1,.37-.8,1.12,1.12,0,0,1,.78-.29h28.93A.92.92,0,0,1,702.36,60.71Z" transform="translate(0 -59.96)"/><polyline class="cls-6" points="404.99 20.99 304.77 20.99 304.77 380.22 856.15 380.22 856.15 20.99 755.93 20.99"/></svg>