<svg id="c99f5bbe-1dc9-42f4-977a-caf3d847b96e" data-name="Layer 1" xmlns="http://www.w3.org/2000/svg" viewBox="0 0 8192.00036 2655.29971"><defs><style>.\33 1b01025-62d4-42c2-852d-5917cc598f63{fill:#00e8e8;}.bda94ef2-a5bd-4d1b-b25a-f169cde8b432{fill:#e71d73;}.c361f9f1-49f7-490f-a301-7e967873102f{fill:#f6f6f6;}.\32 0085871-5ce4-4595-84fe-1fbe61f657b9{fill:#3c3c3b;}.eaa93be2-e250-4e18-826b-1b5ae7c35c85{fill:#333;}.dc794297-bff6-4353-a25d-b5c8b2640ff1{fill:#ed1e79;}.a61c8c01-c01b-42f5-923c-3e6a852104bf{fill:#fff;}</style></defs><title>funfactcg</title><circle class="31b01025-62d4-42c2-852d-5917cc598f63" cx="3994.03731" cy="1236.16856" r="626.78331"/><polygon class="bda94ef2-a5bd-4d1b-b25a-f169cde8b432" points="48.512 103.473 0 151.978 0 103.473 48.512 103.473"/><polygon class="bda94ef2-a5bd-4d1b-b25a-f169cde8b432" points="530.168 103.473 0 633.641 0 409.809 306.336 103.473 530.168 103.473"/><polygon class="bda94ef2-a5bd-4d1b-b25a-f169cde8b432" points="1011.831 103.473 0 1115.297 0 891.465 787.992 103.473 1011.831 103.473"/><polygon class="bda94ef2-a5bd-4d1b-b25a-f169cde8b432" points="1493.487 103.473 0 1596.96 0 1373.122 1269.655 103.473 1493.487 103.473"/><polygon class="bda94ef2-a5bd-4d1b-b25a-f169cde8b432" points="1975.15 103.473 0 2078.616 0 1854.856 1751.311 103.473 1975.15 103.473"/><polygon class="bda94ef2-a5bd-4d1b-b25a-f169cde8b432" points="2096.663 239.785 2096.663 463.617 0 2560.279 0 2336.512 2096.663 239.785"/><polygon class="bda94ef2-a5bd-4d1b-b25a-f169cde8b432" points="2096.663 721.441 2096.663 945.273 386.636 2655.3 162.868 2655.3 2096.663 721.441"/><polygon class="bda94ef2-a5bd-4d1b-b25a-f169cde8b432" points="2096.663 1203.097 2096.663 1426.936 868.292 2655.3 644.531 2655.3 2096.663 1203.097"/><polygon class="bda94ef2-a5bd-4d1b-b25a-f169cde8b432" points="2096.663 1684.831 2096.663 1908.592 1349.955 2655.3 1126.187 2655.3 2096.663 1684.831"/><polygon class="bda94ef2-a5bd-4d1b-b25a-f169cde8b432" points="2096.663 2166.487 2096.663 2390.255 1831.611 2655.3 1607.85 2655.3 2096.663 2166.487"/><polygon class="31b01025-62d4-42c2-852d-5917cc598f63" points="2096.663 2648.144 2096.663 2655.3 2089.506 2655.3 2096.663 2648.144"/><polygon class="bda94ef2-a5bd-4d1b-b25a-f169cde8b432" points="6310.082 103.473 5891.036 522.513 5891.036 298.681 6086.25 103.473 6310.082 103.473"/><polygon class="bda94ef2-a5bd-4d1b-b25a-f169cde8b432" points="6791.738 103.473 5891.036 1004.175 5891.036 780.343 6567.906 103.473 6791.738 103.473"/><polygon class="bda94ef2-a5bd-4d1b-b25a-f169cde8b432" points="7273.401 103.473 5891.036 1485.832 5891.036 1262 7049.569 103.473 7273.401 103.473"/><polygon class="bda94ef2-a5bd-4d1b-b25a-f169cde8b432" points="7755.057 103.473 5891.036 1967.494 5891.036 1743.727 7531.225 103.473 7755.057 103.473"/><polygon class="bda94ef2-a5bd-4d1b-b25a-f169cde8b432" points="8192 148.186 5891.036 2449.151 5891.036 2225.39 8012.881 103.473 8192 103.473 8192 148.186"/><polygon class="bda94ef2-a5bd-4d1b-b25a-f169cde8b432" points="8191.994 406.024 8191.994 629.856 6166.55 2655.3 5942.782 2655.3 8191.994 406.024"/><polygon class="bda94ef2-a5bd-4d1b-b25a-f169cde8b432" points="8191.994 887.68 8191.994 1111.518 6648.206 2655.3 6424.438 2655.3 8191.994 887.68"/><polygon class="bda94ef2-a5bd-4d1b-b25a-f169cde8b432" points="8191.994 1369.343 8191.994 1593.175 7129.862 2655.3 6906.101 2655.3 8191.994 1369.343"/><polygon class="bda94ef2-a5bd-4d1b-b25a-f169cde8b432" points="8191.994 1851.07 8191.994 2074.837 7611.525 2655.3 7387.758 2655.3 8191.994 1851.07"/><polygon class="bda94ef2-a5bd-4d1b-b25a-f169cde8b432" points="8191.994 2332.726 8191.994 2556.494 8093.181 2655.3 7869.42 2655.3 8191.994 2332.726"/><circle class="c361f9f1-49f7-490f-a301-7e967873102f" cx="3994.03732" cy="1236.16856" r="556.62785"/><path class="c361f9f1-49f7-490f-a301-7e967873102f" d="M3637.37468,1925.17983l-18.92111,18.61c3.10494-5.2764,8.06365-10.24166,14.57816-15.51158C3634.28921,1927.35132,3635.83843,1926.10676,3637.37468,1925.17983Z" transform="translate(0 -720.54005)"/><path class="20085871-5ce4-4595-84fe-1fbe61f657b9" d="M3369.604,787.0396H3258.631q-2.75485,0-3.53922,3.15028l-4.33,34.62721c0,2.10667.92044,3.15027,2.75487,3.15027h68.06168a6.281,6.281,0,0,1,4.91341,1.94462q1.76961,1.94463,1.38069,5.50976l-5.90515,48.00612q-1.17973,7.48046-8.26464,7.48033H3245.641q-3.15021.00012-3.15027,3.15027l-12.18632,97.61339a8.42661,8.42661,0,0,1-2.59282,5.50326,8.109,8.109,0,0,1-5.70421,1.94462h-57.04216c-2.35948,0-4.07076-.64821-5.11436-1.94462a7.23951,7.23951,0,0,1-1.17974-5.50326l31.8723-260.5012q1.18619-7.46739,8.26463-7.47384h178.65216a6.294,6.294,0,0,1,4.91988,1.94462,6.76246,6.76246,0,0,1,1.3742,5.50975l-5.90517,48.40161Q3376.68235,787.04606,3369.604,787.0396Z" transform="translate(0 -720.54005)"/><path class="20085871-5ce4-4595-84fe-1fbe61f657b9" d="M3403.44031,979.46615q-25.18284-22.79752-25.18282-61.78059c0-3.15028.25281-7.86924.78432-14.16979l21.2547-172.35161q1.17324-7.46727,8.26463-7.47384h57.04216q7.47382,0,6.6895,7.47384l-21.24174,172.35161a36.02338,36.02338,0,0,0-.3954,6.30055q0,13.379,7.67477,21.24823t21.05375,7.86923a34.8523,34.8523,0,0,0,24.79389-9.63882q10.23519-9.63871,12.19925-25.77919l20.85279-172.35161a7.99237,7.99237,0,0,1,2.75488-5.50975,8.34234,8.34234,0,0,1,5.50975-1.94462h57.45054a6.28122,6.28122,0,0,1,4.91988,1.94462,6.76239,6.76239,0,0,1,1.3742,5.50975l-21.24821,172.35161q-3.53921,29.51931-19.4786,51.94728a106.95426,106.95426,0,0,1-40.92127,34.62721q-24.99483,12.19934-56.07634,12.19921Q3428.61665,1002.28947,3403.44031,979.46615Z" transform="translate(0 -720.54005)"/><path class="20085871-5ce4-4595-84fe-1fbe61f657b9" d="M3606.48448,997.16862c-1.05658-1.29641-1.4455-3.14378-1.17974-5.50326l31.86583-260.5012q1.18621-7.46727,8.26463-7.47384h54.70214q5.90515,0,8.25815,5.11436l59.43405,130.25064a1.8539,1.8539,0,0,0,1.94462,1.56869c1.04361,0,1.6983-.914,1.94462-2.75488l14.95412-126.70489q1.18623-7.46739,8.26464-7.47384h57.48294a6.28126,6.28126,0,0,1,4.91988,1.94462,6.7624,6.7624,0,0,1,1.3742,5.50976l-32.26123,260.52707a8.42671,8.42671,0,0,1-2.56041,5.50326,7.57125,7.57125,0,0,1-5.31529,1.94462h-55.09755q-5.89867-.00012-8.25815-5.11436l-59.0192-132.59057c-.53153-1.29641-1.18621-1.94462-1.94462-1.94462s-1.4455.92048-1.94461,2.75488l-15.39491,129.44679q-.3954,7.48032-8.26463,7.47383H3611.6118C3609.23936,999.1392,3607.52809,998.491,3606.48448,997.16862Z" transform="translate(0 -720.54005)"/><path class="31b01025-62d4-42c2-852d-5917cc598f63" d="M4143.6013,787.0396H4032.63482c-1.83442,0-3.02065,1.05009-3.5392,3.15028l-4.33,34.62721c0,2.10667.914,3.15027,2.75488,3.15027h68.06167a6.28133,6.28133,0,0,1,4.91991,1.94462,6.76239,6.76239,0,0,1,1.37419,5.50976l-5.89221,47.99964q-1.17972,7.48032-8.25814,7.48032h-68.06168q-3.15027,0-3.15027,3.15028l-12.21223,97.61987a8.42667,8.42667,0,0,1-2.56042,5.50326,8.10252,8.10252,0,0,1-5.70421,1.94462h-57.081c-2.35949,0-4.07074-.64821-5.11436-1.94462a7.2393,7.2393,0,0,1-1.17974-5.50326l31.87229-260.5012q1.17325-7.46739,8.26464-7.47384H4151.477a6.30059,6.30059,0,0,1,4.9199,1.94462q1.75662,1.94461,1.3742,5.50975l-5.90515,48.40161Q4150.69268,787.04606,4143.6013,787.0396Z" transform="translate(0 -720.54005)"/><path class="31b01025-62d4-42c2-852d-5917cc598f63" d="M4277.793,992.84514l-4.33-28.33308a2.44378,2.44378,0,0,0-.98529-1.94462,3.40943,3.40943,0,0,0-2.165-.79079h-79.08118c-1.57514,0-2.891.92048-3.93462,2.75488l-11.01951,28.33307q-2.366,6.30043-8.65354,6.29406H4105.4349q-5.51625.00012-5.50976-4.719a8.80288,8.80288,0,0,1,.78435-3.94107l111.36185-260.4947q2.35944-6.2875,8.66652-6.29406h78.69872q5.8922-.00012,7.07841,6.29406l47.61725,260.4947v1.58159c0,4.719-2.50206,7.07844-7.48029,7.07844H4284.8714Q4278.18191,999.13909,4277.793,992.84514Zm-66.117-90.50907c0,1.84089.78434,2.75488,2.35948,2.75488h47.22182a3.43538,3.43538,0,0,0,2.55393-.98529,2.528,2.528,0,0,0,.59634-2.55389l-12.96413-90.898q-.39861-1.94463-1.76959-1.94462c-.914,0-1.64643.6482-2.165,1.94462l-35.82634,90.91735Z" transform="translate(0 -720.54005)"/><path class="31b01025-62d4-42c2-852d-5917cc598f63" d="M4399.37708,978.87626q-25.18925-23.40024-25.18929-62.7658a109.16583,109.16583,0,0,1,.79079-15.34307l9.83332-79.48956q3.55217-29.89531,19.47864-52.73158a108.18589,108.18589,0,0,1,41.32316-35.41152q25.37725-12.59467,56.86064-12.59468,43.68261.00012,69.05994,22.039,25.37725,22.03909,25.38379,59.41462c0,2.59282-.27228,7.08493-.78431,13.379q0,3.53922-7.09134,4.33005l-57.84593,3.93458h-1.94462q-5.513,0-5.50976-1.94462l.3954-2.35948a33.38555,33.38555,0,0,0,.3954-5.89866q0-13.78075-7.87573-21.64362t-21.64362-7.86924q-15.34308,0-25.7662,9.63883t-12.4002,25.77269l-10.2352,84.60391a33.06006,33.06006,0,0,0-.38891,5.90515q0,13.379,8.06365,21.24823t21.44913,7.86924q15.34961,0,25.57171-9.63883t12.2057-25.38379a5.17835,5.17835,0,0,1,2.75488-3.34476,8.59511,8.59511,0,0,1,5.50975-.98529l57.04216,3.15027c4.45318.5315,6.68946,1.1797,6.68946,1.94462l-.3954,1.94462q-3.52616,28.333-19.28414,49.9767a105.86648,105.86648,0,0,1-41.11576,33.64193q-25.37727,12.01121-56.86065,12.0048Q4424.55988,1002.28947,4399.37708,978.87626Z" transform="translate(0 -720.54005)"/><path class="31b01025-62d4-42c2-852d-5917cc598f63" d="M4832.83268,725.65441c1.18619,1.29641,1.63349,3.15027,1.38068,5.50975l-5.89866,48.79051q-1.19913,7.48686-8.27112,7.48033h-61.38512c-1.83439,0-3.02066,1.05009-3.54567,3.15027l-24.80046,201.08658a8.362,8.362,0,0,1-2.56038,5.50326,7.55818,7.55818,0,0,1-5.30878,1.94462h-57.45053q-3.549,0-5.12085-1.94462a7.18446,7.18446,0,0,1-1.17329-5.50326l24.78741-201.08009q0-3.15015-2.75488-3.15027h-59.41462q-7.48686,0-6.696-7.48033l6.30055-48.79051a8.34922,8.34922,0,0,1,2.59283-5.50975,7.58386,7.58386,0,0,1,5.30877-1.94462H4827.9322A6.281,6.281,0,0,1,4832.83268,725.65441Z" transform="translate(0 -720.54005)"/><polygon class="31b01025-62d4-42c2-852d-5917cc598f63" points="5928.898 2654.062 2059.203 2654.062 2059.203 106.611 2786.665 106.611 2786.665 182.302 2134.894 182.302 2134.894 2578.371 5853.206 2578.371 5853.206 182.302 5201.435 182.302 5201.435 106.611 5928.898 106.611 5928.898 2654.062"/><polygon class="eaa93be2-e250-4e18-826b-1b5ae7c35c85" points="3886.536 981.623 3869.588 963.689 3865.035 983.986 3878.976 991.731 3886.536 981.623"/><polygon class="eaa93be2-e250-4e18-826b-1b5ae7c35c85" points="3683.019 1529.741 3657.206 1503.96 3697.74 1484.323 3738.015 1496.716 3683.019 1529.741"/><path class="eaa93be2-e250-4e18-826b-1b5ae7c35c85" d="M3885.17251,1701.4282s30.98063,12.39225,44.92191,114.62834,26.33354,224.60958,21.68645,238.55087,0,80.54964-83.64771,136.31478-128.56962,80.54964-154.90316,74.35351-52.66708-23.23547-52.66708-83.6477,38.7258-308.25729,91.39287-370.21856S3851.09381,1695.23207,3885.17251,1701.4282Z" transform="translate(0 -720.54005)"/><path class="eaa93be2-e250-4e18-826b-1b5ae7c35c85" d="M3885.17251,1701.4282s30.98063,12.39225,44.92191,114.62834,26.33354,224.60958,21.68645,238.55087,0,80.54964-83.64771,136.31478-128.56962,80.54964-154.90316,74.35351-52.66708-23.23547-52.66708-83.6477,38.7258-308.25729,91.39287-370.21856S3851.09381,1695.23207,3885.17251,1701.4282Z" transform="translate(0 -720.54005)"/><path class="eaa93be2-e250-4e18-826b-1b5ae7c35c85" d="M4126.13768,1702.20272s-30.98063,12.39225-44.92191,114.62833-26.33354,224.60959-21.68644,238.55087,0,80.54965,83.6477,136.31478,128.56963,80.54965,154.90316,74.35352,52.66708-23.23547,52.66708-83.64771-38.72579-308.25729-91.39287-370.21855S4160.21638,1696.00659,4126.13768,1702.20272Z" transform="translate(0 -720.54005)"/><path class="eaa93be2-e250-4e18-826b-1b5ae7c35c85" d="M4126.13768,1702.20272s-30.98063,12.39225-44.92191,114.62833-26.33354,224.60959-21.68644,238.55087,0,80.54965,83.6477,136.31478,128.56963,80.54965,154.90316,74.35352,52.66708-23.23547,52.66708-83.64771-38.72579-308.25729-91.39287-370.21855S4160.21638,1696.00659,4126.13768,1702.20272Z" transform="translate(0 -720.54005)"/><polyline class="eaa93be2-e250-4e18-826b-1b5ae7c35c85" points="4067.542 1208.018 4073.93 1152.697 4026.909 1105.676 4026.909 949.908 3984.401 949.133 3984.401 1104.901 3937.38 1151.923 3943.769 1207.243 4005.962 1145.05 4002.124 1141.213 4067.542 1208.018"/><path class="dc794297-bff6-4353-a25d-b5c8b2640ff1" d="M3861.937,1678.19273s30.98064,12.39225,44.92192,114.62833,26.33354,224.60959,21.68644,238.55087,0,80.54965-83.6477,136.31478-128.56963,80.54965-154.90316,74.35352-52.66708-23.23547-52.66708-83.64771,38.72579-308.25729,91.39287-370.21855S3827.85834,1671.9966,3861.937,1678.19273Z" transform="translate(0 -720.54005)"/><path class="dc794297-bff6-4353-a25d-b5c8b2640ff1" d="M3929.39734,2024.88149a26.54944,26.54944,0,0,1-.85195,6.49044c-3.39238,10.17715-1.82784,48.45366-33.31968,90.07613a193.05458,193.05458,0,0,1-35.65874,35.67425l-.06193.04642q-6.808,5.29776-14.60735,10.518c-62.85973,41.91679-103.86255,66.32955-131.52824,73.22266-8.17893,2.06024-15.18058,2.57145-21.25276,1.549-.728-.10834-1.42508-.2478-2.12216-.41817-13.585-3.191-27.17-9.27868-37.14575-22.70886a64.33052,64.33052,0,0,1-7.18753-12.5161c-5.18922-11.85013-8.3338-27.55734-8.3338-48.42275,0-1.75041.031-3.67119.09294-5.73143.18588-5.8708.63506-12.94988,1.33214-21.03588,1.62647-19.09949,4.63159-43.76014,8.8295-71.22444,1.16178-7.62121,2.432-15.47481,3.77964-23.48337,4.18241-24.90836,9.23227-51.30392,15.01012-77.40507,1.90528-8.5971,3.88809-17.1788,5.94833-25.652,7.8535-32.29727,16.807-63.16955,26.61235-89.00739a296.00256,296.00256,0,0,1,15.84656-35.5502,122.99438,122.99438,0,0,1,13.94129-21.12881c44.10088-51.86164,83.83358-98.30158,115.60423-108.41671a36.16619,36.16619,0,0,1,17.61248-1.56453,14.06192,14.06192,0,0,1,2.30805,1.34765c4.44571,3.09806,14.65387,12.45418,24.62964,37.76539,1.7194,4.36828,3.4388,9.21676,5.11178,14.59185a352.27291,352.27291,0,0,1,11.41636,50.97859q.7668,4.833,1.45609,9.94485c.32533,2.432.66607,4.864.9914,7.31139,2.16859,16.11,4.27535,32.6226,6.30457,49.07331.24781,2.09125.4957,4.1824.759,6.25815q1.06875,8.8527,2.07565,17.628c1.2393,10.59533,2.41649,21.05129,3.51634,31.24394l.031.21689c.91387,8.47316,1.78133,16.776,2.58685,24.8q.92947,9.22441,1.75042,17.95323c2.15317,23.09611,3.6867,43.187,4.32176,58.07318C3929.5523,2013.589,3929.64524,2020.21889,3929.39734,2024.88149Z" transform="translate(0 -720.54005)"/><path class="dc794297-bff6-4353-a25d-b5c8b2640ff1" d="M4102.90221,1678.96724s-30.98063,12.39225-44.92192,114.62834-26.33353,224.60958-21.68644,238.55087,0,80.54964,83.64771,136.31478,128.56962,80.54964,154.90316,74.35352,52.66707-23.23548,52.66707-83.64771-38.72579-308.25729-91.39286-370.21855S4136.98091,1672.77111,4102.90221,1678.96724Z" transform="translate(0 -720.54005)"/><path class="dc794297-bff6-4353-a25d-b5c8b2640ff1" d="M4327.51406,2159.167a162.97284,162.97284,0,0,1-1.67307,24.25779c-1.73491,11.5248-4.75563,20.85-8.70555,28.40928a55.82463,55.82463,0,0,1-24.738,24.738,77.13867,77.13867,0,0,1-17.55046,6.24265,37.24966,37.24966,0,0,1-9.3097.91387c-12.098-.21679-27.43328-5.26665-47.24546-15.14948-4.105-2.06024-8.41132-4.30635-12.91906-6.78476-11.63324-6.35109-24.62945-14.09625-39.15956-23.23548q-5.85538-3.67123-12.05133-7.65222-15.9395-10.24692-34.218-22.44545c-1.14627-.77452-2.29254-1.53353-3.408-2.32355q-5.99466-4.11272-11.36984-8.3338a196.78574,196.78574,0,0,1-31.70863-30.68631q-4.60059-5.66946-8.44234-11.26149a153.63746,153.63746,0,0,1-20.27677-42.11817,161.53953,161.53953,0,0,1-3.96561-15.73812c-2.49373-12.34583-3.05155-21.578-4.47654-25.85334-1.2393-3.70221-1.27031-15.07214-.37175-31.69322.32524-6.30457.79-13.38366,1.37847-21.0823,1.47151-19.61079,3.71772-43.29545,6.444-68.839q.27881-2.5791.55762-5.20472l.031-.21689c.58864-5.499,1.20829-11.06011,1.82775-16.69861,1.44068-12.609,2.94338-25.497,4.52324-38.43147,1.34765-10.88964,2.72631-21.79488,4.12047-32.60709,1.00672-7.65222,2.01382-15.25793,3.036-22.73978.04651-.34074.093-.69708.13954-1.03782,5.34409-39.22149,13.19778-65.21429,20.86542-82.36208,12.28371-27.55724,24.0565-32.26626,24.0565-32.26626a32.06575,32.06575,0,0,1,8.55069-.34084c12.40775,1.13086,26.225,8.90694,41.204,21.19075q5.18147,4.25212,10.53349,9.17033c9.86732,9.0773,20.16842,19.76566,30.85678,31.53826q4.62384,5.06532,9.3095,10.394c9.38723,10.59532,19.02216,21.88773,28.90518,33.49005,1.28562,1.50252,2.57125,3.02054,3.85707,4.53866,1.65738,1.95179,3.29926,4.08946,4.92581,6.382,7.41993,10.50238,14.52993,24.58312,21.26818,41.12677,1.85876,4.55415,3.6867,9.30969,5.48363,14.2201,5.31307,14.51442,10.36293,30.46942,15.11856,47.27647,1.4405,5.08078,2.85017,10.25458,4.22883,15.47481,4.32186,16.34227,8.3493,33.27317,12.08252,50.31252q1.76592,8.10915,3.45431,16.24933c3.6712,17.75193,6.98615,35.42644,9.91365,52.48119q1.46414,8.57389,2.80384,16.9c3.17559,19.70364,5.77786,38.23009,7.74516,54.64979.7435,6.24264,1.39417,12.17546,1.95179,17.75193C4326.67753,2137.4806,4327.51406,2150.322,4327.51406,2159.167Z" transform="translate(0 -720.54005)"/><polygon class="dc794297-bff6-4353-a25d-b5c8b2640ff1" points="4050.702 1129.456 4046.272 1167.763 4044.336 1184.57 4044.304 1184.787 4036.854 1177.181 4005.981 1145.659 3996.238 1135.698 3982.684 1121.866 3920.537 1184.013 3920.506 1183.796 3916.912 1152.629 3914.867 1134.97 3914.139 1128.681 3914.155 1128.666 3961.168 1081.668 3961.168 925.898 3979.121 926.223 4003.673 926.672 4003.673 1082.443 4026.584 1105.353 4036.435 1115.205 4050.686 1129.44 4050.702 1129.456"/><path class="a61c8c01-c01b-42f5-923c-3e6a852104bf" d="M3864.24508,1679.54038,3698.93247,1844.853a296.00256,296.00256,0,0,1,15.84656-35.5502l129.54552-129.54552a36.16619,36.16619,0,0,1,17.61248-1.56453A14.06192,14.06192,0,0,1,3864.24508,1679.54038Z" transform="translate(0 -720.54005)"/><path class="a61c8c01-c01b-42f5-923c-3e6a852104bf" d="M3888.87472,1717.30577c1.7194,4.36828,3.4388,9.21676,5.11178,14.59185l-227.61471,227.61471c1.90528-8.5971,3.88809-17.1788,5.94833-25.652Z" transform="translate(0 -720.54005)"/><polygon class="a61c8c01-c01b-42f5-923c-3e6a852104bf" points="3979.121 926.223 3961.168 944.176 3961.168 925.898 3979.121 926.223"/><path class="a61c8c01-c01b-42f5-923c-3e6a852104bf" d="M3906.859,1792.82106c.32533,2.432.66607,4.864.9914,7.31139L3647.582,2060.40077c1.16178-7.62121,2.432-15.47481,3.77964-23.48337l254.04119-254.04119Q3906.16966,1787.70924,3906.859,1792.82106Z" transform="translate(0 -720.54005)"/><polygon class="a61c8c01-c01b-42f5-923c-3e6a852104bf" points="4003.673 964.066 4003.673 983.769 3961.168 1026.275 3961.168 1006.571 4003.673 964.066"/><path class="a61c8c01-c01b-42f5-923c-3e6a852104bf" d="M3914.91393,1855.46391l88.7595-88.7595v19.70364l-366.253,366.253c.18588-5.8708.63506-12.94988,1.33214-21.03588l276.11489-276.11488Z" transform="translate(0 -720.54005)"/><path class="a61c8c01-c01b-42f5-923c-3e6a852104bf" d="M4111.45517,1678.6264l-32.60719,32.6071c12.28371-27.55724,24.0565-32.26626,24.0565-32.26626A32.06575,32.06575,0,0,1,4111.45517,1678.6264Z" transform="translate(0 -720.54005)"/><path class="a61c8c01-c01b-42f5-923c-3e6a852104bf" d="M3923.12378,1929.35273q.92947,9.22441,1.75042,17.95323l-272.02542,272.02541a64.33052,64.33052,0,0,1-7.18753-12.5161Z" transform="translate(0 -720.54005)"/><polygon class="a61c8c01-c01b-42f5-923c-3e6a852104bf" points="4026.584 1105.353 4036.435 1115.205 4005.981 1145.659 3996.238 1135.698 4026.584 1105.353"/><path class="a61c8c01-c01b-42f5-923c-3e6a852104bf" d="M4163.19267,1708.98748l-108.3857,108.3857c1.00672-7.65222,2.01382-15.25793,3.036-22.73978l94.81616-94.81625Q4157.84065,1704.06928,4163.19267,1708.98748Z" transform="translate(0 -720.54005)"/><path class="a61c8c01-c01b-42f5-923c-3e6a852104bf" d="M3929.196,2005.37914c.35634,8.20984.44928,14.83975.20138,19.50235l-216.02789,216.02788c-8.17893,2.06024-15.18058,2.57145-21.25276,1.549Z" transform="translate(0 -720.54005)"/><path class="a61c8c01-c01b-42f5-923c-3e6a852104bf" d="M4043.74687,1910.532q.27881-2.5791.55762-5.20472l-7.45093-7.6058,9.3097-9.3097.10854-.10834,147.77765-147.77766q4.62384,5.06532,9.3095,10.394Z" transform="translate(0 -720.54005)"/><path class="a61c8c01-c01b-42f5-923c-3e6a852104bf" d="M3859.567,2157.12231l35.65874-35.67425A193.05458,193.05458,0,0,1,3859.567,2157.12231Z" transform="translate(0 -720.54005)"/><path class="a61c8c01-c01b-42f5-923c-3e6a852104bf" d="M4241.047,1795.33049l-205.12264,205.12274c.32524-6.30457.79-13.38366,1.37847-21.0823l194.96129-194.9611c1.28562,1.50252,2.57125,3.02054,3.85707,4.53866C4237.77858,1790.90028,4239.42046,1793.038,4241.047,1795.33049Z" transform="translate(0 -720.54005)"/><path class="a61c8c01-c01b-42f5-923c-3e6a852104bf" d="M4267.79882,1850.67736l-223.06055,223.06055a161.53953,161.53953,0,0,1-3.96561-15.73812l221.54253-221.54253C4264.174,1841.01141,4266.00189,1845.767,4267.79882,1850.67736Z" transform="translate(0 -720.54005)"/><path class="a61c8c01-c01b-42f5-923c-3e6a852104bf" d="M4287.14621,1913.42864l-213.68883,213.68893q-4.60059-5.66946-8.44234-11.26149l217.90234-217.90225C4284.35788,1903.03461,4285.76755,1908.20841,4287.14621,1913.42864Z" transform="translate(0 -720.54005)"/><path class="a61c8c01-c01b-42f5-923c-3e6a852104bf" d="M4302.683,1979.99049l-186.14719,186.14719q-5.99466-4.11272-11.36984-8.3338l194.06272-194.06272Q4300.99465,1971.85031,4302.683,1979.99049Z" transform="translate(0 -720.54005)"/><path class="a61c8c01-c01b-42f5-923c-3e6a852104bf" d="M4315.40053,2049.37167,4166.21321,2198.5589q-5.85538-3.67123-12.05133-7.65222l158.43481-158.435Q4314.06083,2041.04558,4315.40053,2049.37167Z" transform="translate(0 -720.54005)"/><path class="a61c8c01-c01b-42f5-923c-3e6a852104bf" d="M4325.09748,2121.77339l-106.80565,106.80575c-4.105-2.06024-8.41132-4.30635-12.91906-6.78476l117.77292-117.77292C4323.88919,2110.2641,4324.53986,2116.19692,4325.09748,2121.77339Z" transform="translate(0 -720.54005)"/><path class="a61c8c01-c01b-42f5-923c-3e6a852104bf" d="M4325.841,2183.42483c-1.73491,11.5248-4.75563,20.85-8.70555,28.40928l-24.738,24.738a77.13867,77.13867,0,0,1-17.55046,6.24265,37.24966,37.24966,0,0,1-9.3097.91387Z" transform="translate(0 -720.54005)"/><path class="20085871-5ce4-4595-84fe-1fbe61f657b9" d="M2436.58838,2908.87428l5.00146-41.17871a3.50848,3.50848,0,0,0-.167-1.334l-24.34082-67.85449a2.83892,2.83892,0,0,1-.1665-1.167,2.07051,2.07051,0,0,1,.667-1.5,2.47869,2.47869,0,0,1,1.834-.667h18.83887a3.14162,3.14162,0,0,1,1.834.583,2.34072,2.34072,0,0,1,1,1.584l14.50439,43.34668c.10986.334.30518.5.584.5a.93.93,0,0,0,.75-.5l25.00782-43.34668a3.99235,3.99235,0,0,1,3.501-2.167h18.83887q2.33277,0,2.334,1.834a2.98205,2.98205,0,0,1-.5,1.5l-41.34571,67.85449a4.03382,4.03382,0,0,0-.50049,1.334l-5.168,41.17871q-.33618,2.8374-3.001,2.834h-17.17188Q2436.08569,2911.70826,2436.58838,2908.87428Z" transform="translate(0 -720.54005)"/><path class="20085871-5ce4-4595-84fe-1fbe61f657b9" d="M2514.02783,2903.95631q-10.25317-9.75292-10.25342-26.0918a46.24058,46.24058,0,0,1,.5-6.50195l4.335-35.67676a48.38815,48.38815,0,0,1,8.00244-21.84082,44.66284,44.66284,0,0,1,16.75488-14.75391,49.54567,49.54567,0,0,1,22.92383-5.25195q17.50561,0,27.7583,9.66992,10.25318,9.6709,10.25342,25.67481a43.79609,43.79609,0,0,1-.50049,6.502l-4.33447,35.67676a49.14934,49.14934,0,0,1-8.00245,22.09082,44.90479,44.90479,0,0,1-16.83838,14.9209,49.43486,49.43486,0,0,1-23.00732,5.335Q2524.27832,2913.70924,2514.02783,2903.95631Zm45.18018-16.25488q6.08423-5.83448,7.41894-15.50489l4.50147-36.67773a27.23732,27.23732,0,0,0,.1665-3.501q0-8.335-4.668-13.1709-4.66918-4.834-12.8374-4.835a20.8702,20.8702,0,0,0-15.00439,5.91895q-6.16992,5.91944-7.33545,15.58789l-4.50147,36.67773a26.85386,26.85386,0,0,0-.1665,3.501q0,8.1709,4.668,13.00391,4.66552,4.83691,12.67041,4.835A20.94815,20.94815,0,0,0,2559.208,2887.70143Z" transform="translate(0 -720.54005)"/><path class="20085871-5ce4-4595-84fe-1fbe61f657b9" d="M2615.55713,2903.8733q-10.08912-9.33545-10.08643-25.00781,0-1.66552.3335-5.669l9.33594-75.18945q.33252-2.833,3.001-2.834h17.33838q2.833,0,2.501,2.834l-9.33643,75.35645a23.45752,23.45752,0,0,0-.1665,3.168q0,7.50147,4.50146,12.00293t12.33692,4.502a20.58077,20.58077,0,0,0,14.42138-5.419,22.6405,22.6405,0,0,0,7.08545-14.2539l9.16944-75.35645q.50023-2.833,3.16748-2.834h17.33887q2.83227,0,2.334,2.834l-9.16943,75.18945a46.105,46.105,0,0,1-7.83594,20.92285,42.919,42.919,0,0,1-16.42188,14.0879,50.14757,50.14757,0,0,1-22.58984,5.002Q2625.64234,2913.20924,2615.55713,2903.8733Z" transform="translate(0 -720.54005)"/><path class="20085871-5ce4-4595-84fe-1fbe61f657b9" d="M2763.34961,2909.70826l-14.33789-45.34765q0-.832-1-.833h-14.67139q-.8357,0-1.167,1l-5.335,44.51367a2.98222,2.98222,0,0,1-3.16748,2.834H2706.332q-2.66822,0-2.334-2.834l13.6709-111.20117q.3325-2.833,3.001-2.834h45.51416q14.168,0,22.42334,8.08594,8.25221,8.08887,8.25244,21.75684,0,1.66845-.33349,5.335a38.81464,38.81464,0,0,1-8.00244,19.50586,34.64462,34.64462,0,0,1-16.50489,11.5039,1.01133,1.01133,0,0,0-.667.583.87782.87782,0,0,0,0,.75l15.67139,46.01465a2.896,2.896,0,0,1,.167,1.167,2.07378,2.07378,0,0,1-.667,1.5,2.47932,2.47932,0,0,1-1.834.667h-18.33886A3.01322,3.01322,0,0,1,2763.34961,2909.70826Zm-25.17432-93.3623-3.501,28.00879c0,.667.27588,1,.83349,1h21.00635a17.44473,17.44473,0,0,0,12.50391-4.751,15.94636,15.94636,0,0,0,5.00146-12.08691,12.6436,12.6436,0,0,0-3.751-9.58692,13.7677,13.7677,0,0,0-9.91992-3.584h-21.17285A.884.884,0,0,0,2738.17529,2816.346Z" transform="translate(0 -720.54005)"/><path class="20085871-5ce4-4595-84fe-1fbe61f657b9" d="M2835.70117,2909.04127l13.6709-111.03418q.33252-2.833,3.001-2.834h17.33886q2.83229,0,2.334,2.834L2860.709,2890.7024c0,.667.27588,1,.8335,1h52.01611q2.66455,0,2.334,2.834l-1.834,14.50488q-.33618,2.83593-3.001,2.834h-73.02246Q2835.36695,2911.87525,2835.70117,2909.04127Z" transform="translate(0 -720.54005)"/><path class="20085871-5ce4-4595-84fe-1fbe61f657b9" d="M2941.48242,2903.8733q-10.0891-9.33545-10.08642-25.00781,0-1.66552.33349-5.669l9.33594-75.18945q.33252-2.833,3.001-2.834h17.33838q2.833,0,2.501,2.834l-9.33642,75.35645a23.45558,23.45558,0,0,0-.16651,3.168q0,7.50147,4.50147,12.00293t12.33691,4.502a20.58081,20.58081,0,0,0,14.42139-5.419,22.64055,22.64055,0,0,0,7.08545-14.2539l9.16943-75.35645q.50025-2.833,3.16748-2.834h17.33887q2.83227,0,2.334,2.834l-9.16943,75.18945a46.10486,46.10486,0,0,1-7.83594,20.92285,42.91905,42.91905,0,0,1-16.42187,14.0879,50.14764,50.14764,0,0,1-22.58985,5.002Q2951.56763,2913.20924,2941.48242,2903.8733Z" transform="translate(0 -720.54005)"/><path class="20085871-5ce4-4595-84fe-1fbe61f657b9" d="M3029.92334,2909.04127l13.6709-111.03418q.33252-2.833,3.001-2.834h16.67188a3.02193,3.02193,0,0,1,3.001,1.834l32.00976,69.35449q.33179.668.66651.5a1.198,1.198,0,0,0,.50048-.834l8.33594-68.02051q.33178-2.833,3.001-2.834h17.00488q2.833,0,2.501,2.834l-13.6709,111.03418a2.98222,2.98222,0,0,1-3.16748,2.834h-16.50537a3.20467,3.20467,0,0,1-3.001-2.001l-32.00976-70.02051q-.33546-.665-.66651-.501a1.19156,1.19156,0,0,0-.50049.834l-8.16894,68.85449a2.98223,2.98223,0,0,1-3.16748,2.834h-17.17237Q3029.58912,2911.87525,3029.92334,2909.04127Z" transform="translate(0 -720.54005)"/><path class="20085871-5ce4-4595-84fe-1fbe61f657b9" d="M3148.207,2903.70631q-10.08911-9.50391-10.08642-25.34082a43.013,43.013,0,0,1,.33349-6.169l4.668-37.34472a48.18622,48.18622,0,0,1,7.83594-21.50684,42.68668,42.68668,0,0,1,16.50488-14.4209,50.0002,50.0002,0,0,1,22.67383-5.085,43.83676,43.83676,0,0,1,19.83935,4.251,31.35623,31.35623,0,0,1,13.08741,11.7539,31.96671,31.96671,0,0,1,4.58447,17.00489,45.34616,45.34616,0,0,1-.3335,4.66894v.333a2.98156,2.98156,0,0,1-3.16748,2.834h-17.33886a3.89961,3.89961,0,0,1-1.917-.417c-.5-.27539-.6958-.583-.58349-.917l.1665-1.167a12.7218,12.7218,0,0,0,.167-2.334,15.30117,15.30117,0,0,0-4.50146-11.41992q-4.50147-4.415-12.50391-4.418a20.44685,20.44685,0,0,0-14.58789,5.585,23.49664,23.49664,0,0,0-7.08545,14.58789l-4.668,38.67872a19.74549,19.74549,0,0,0-.1665,3.001,16.48375,16.48375,0,0,0,4.918,12.41992q4.91527,4.752,12.7539,4.752,8.50269,0,14.0044-4.585,5.50122-4.58351,6.50195-12.75391l1-7.33594q0-.999-.83349-1h-17.17188q-2.83667,0-2.334-2.834l1.667-13.6709q.33252-2.833,3.001-2.834H3222.48q2.83227,0,2.50049,2.834l-2.66748,21.17285q-2.33643,19.1748-15.08789,30.17578-12.75366,11.00391-31.75977,11.00391Q3158.29224,2913.20924,3148.207,2903.70631Z" transform="translate(0 -720.54005)"/><path class="20085871-5ce4-4595-84fe-1fbe61f657b9" d="M3278.65918,2903.8733q-10.00269-9.33545-10.00293-25.00781a43.02055,43.02055,0,0,1,.3335-6.169l4.668-38.51172a46.84067,46.84067,0,0,1,7.83594-21.17285,42.50794,42.50794,0,0,1,16.50489-14.1709,50.66781,50.66781,0,0,1,22.67382-5.00195q17.33716,0,27.42481,9.00293,10.08544,9.00292,10.08642,24.00684,0,1.83691-.33349,5.50195-.33618,1.5-2.834,1.834l-17.33886,1.167h-.66651q-2.50122,0-2.16748-.833l.16651-1.001a18.5491,18.5491,0,0,0,.167-2.834q0-7.667-4.585-12.16992-4.58716-4.50147-12.42041-4.502a20.80563,20.80563,0,0,0-14.58789,5.418,21.78541,21.78541,0,0,0-6.91846,14.08789l-5.00147,40.17871a18.21606,18.21606,0,0,0-.167,2.835q0,7.50147,4.50147,12.00293t12.5039,4.502a20.68465,20.68465,0,0,0,14.5044-5.335,22.32654,22.32654,0,0,0,7.00195-14.00489q.33252-1.9995,3.001-1.833l17.17187.833c1.77686.22461,2.66748.5,2.66748.834l-.1665.833a42.23543,42.23543,0,0,1-24.09082,34.01074,51.58449,51.58449,0,0,1-22.59033,4.835Q3288.66016,2913.20924,3278.65918,2903.8733Z" transform="translate(0 -720.54005)"/><path class="20085871-5ce4-4595-84fe-1fbe61f657b9" d="M3432.207,2909.54127l-2.66748-15.50488c-.11182-.55469-.39062-.833-.8335-.833h-39.67871a.926.926,0,0,0-1.00048.833l-6.502,15.50488a3.42534,3.42534,0,0,1-3.33447,2.334h-18.83887q-2.1687,0-2.16748-1.834l.3335-1.334,48.18164-111.2002a3.42473,3.42473,0,0,1,3.334-2.334h23.67432a2.643,2.643,0,0,1,2.834,2.334l20.83985,111.2002v.667a2.322,2.322,0,0,1-.75049,1.834,2.77752,2.77752,0,0,1-1.917.667h-18.83936A2.42552,2.42552,0,0,1,3432.207,2909.54127Zm-35.51074-34.51074h28.67529c.667,0,1.00049-.3877,1.00049-1.167l-8.33594-50.84864c-.11181-.44336-.30713-.667-.58349-.667-.27881,0-.52881.22363-.75.667l-20.67334,50.84864C3395.91748,2874.64283,3396.13867,2875.03053,3396.69629,2875.03053Z" transform="translate(0 -720.54005)"/><path class="20085871-5ce4-4595-84fe-1fbe61f657b9" d="M3554.82568,2803.259q8.58473,8.25147,8.58594,22.25684,0,1.66845-.3335,5.668a40.79614,40.79614,0,0,1-6.91894,18.50586,38.04613,38.04613,0,0,1-14.4209,12.41992,43.3676,43.3676,0,0,1-19.67285,4.41894H3499.2251q-.8357,0-1.167,1l-5.00147,41.5127a2.98222,2.98222,0,0,1-3.16748,2.834h-17.33887q-2.66822,0-2.334-2.834l13.6709-111.20117q.33252-2.833,3.001-2.834h44.84717Q3546.23951,2795.00611,3554.82568,2803.259Zm-19.58935,39.17871a17.82283,17.82283,0,0,0,5.335-13.2539,13.16679,13.16679,0,0,0-4.00147-10.08692q-4.00122-3.75146-10.66992-3.751h-20.33935q-.83643,0-1.167,1l-3.668,30.34277q-.16773,1.00049.83349,1h20.33985A18.24987,18.24987,0,0,0,3535.23633,2842.43775Z" transform="translate(0 -720.54005)"/><path class="20085871-5ce4-4595-84fe-1fbe61f657b9" d="M3627.93018,2909.54127l-2.66748-15.50488c-.11182-.55469-.39063-.833-.8335-.833h-39.67871a.926.926,0,0,0-1.00049.833l-6.50195,15.50488a3.42536,3.42536,0,0,1-3.33448,2.334h-18.83886q-2.1687,0-2.16748-1.834l.33349-1.334,48.18164-111.2002a3.42475,3.42475,0,0,1,3.334-2.334h23.67431a2.643,2.643,0,0,1,2.834,2.334l20.83984,111.2002v.667a2.322,2.322,0,0,1-.75049,1.834,2.77752,2.77752,0,0,1-1.917.667h-18.83935A2.42552,2.42552,0,0,1,3627.93018,2909.54127Zm-35.51075-34.51074h28.6753c.667,0,1.00048-.3877,1.00048-1.167l-8.33593-50.84864c-.11182-.44336-.30713-.667-.5835-.667-.27881,0-.52881.22363-.75.667l-20.67334,50.84864C3591.64062,2874.64283,3591.86182,2875.03053,3592.41943,2875.03053Z" transform="translate(0 -720.54005)"/><path class="20085871-5ce4-4595-84fe-1fbe61f657b9" d="M3675.10938,2903.8733q-10.00269-9.33545-10.00293-25.00781a43.02231,43.02231,0,0,1,.33349-6.169l4.668-38.51172a46.84067,46.84067,0,0,1,7.83594-21.17285,42.50791,42.50791,0,0,1,16.50488-14.1709,50.66782,50.66782,0,0,1,22.67383-5.00195q17.33715,0,27.4248,9.00293,10.08546,9.00292,10.08643,24.00684,0,1.83691-.3335,5.50195-.33618,1.5-2.834,1.834l-17.33887,1.167h-.6665q-2.50122,0-2.16748-.833l.1665-1.001a18.5478,18.5478,0,0,0,.167-2.834q0-7.667-4.585-12.16992-4.58715-4.50147-12.42041-4.502a20.80567,20.80567,0,0,0-14.58789,5.418,21.78545,21.78545,0,0,0-6.91846,14.08789l-5.00146,40.17871a18.21481,18.21481,0,0,0-.167,2.835q0,7.50147,4.50146,12.00293t12.50391,4.502a20.68464,20.68464,0,0,0,14.50439-5.335,22.32655,22.32655,0,0,0,7.002-14.00489q.33252-1.9995,3.001-1.833l17.17188.833c1.77685.22461,2.66748.5,2.66748.834l-.16651.833a42.23537,42.23537,0,0,1-24.09082,34.01074,51.58443,51.58443,0,0,1-22.59033,4.835Q3685.11035,2913.20924,3675.10938,2903.8733Z" transform="translate(0 -720.54005)"/><path class="20085871-5ce4-4595-84fe-1fbe61f657b9" d="M3761.63477,2909.04127l13.67089-111.03418q.33252-2.833,3.001-2.834h17.33887q2.83227,0,2.334,2.834l-13.50439,111.03418a2.98223,2.98223,0,0,1-3.16748,2.834h-17.33887Q3761.30054,2911.87525,3761.63477,2909.04127Z" transform="translate(0 -720.54005)"/><path class="20085871-5ce4-4595-84fe-1fbe61f657b9" d="M3897.84131,2798.00709l-1.834,14.6709a2.86272,2.86272,0,0,1-3.16748,2.835h-27.84179q-.83643,0-1.167,1l-11.33691,92.52832a2.8628,2.8628,0,0,1-3.16748,2.834h-17.17187q-2.83668,0-2.501-2.834l11.33691-92.52832q.33252-1.00048-.83349-1h-27.17481a2.27874,2.27874,0,0,1-1.91748-.751,2.72578,2.72578,0,0,1-.417-2.084l1.834-14.6709q.33252-2.833,3.001-2.834h79.85791Q3898.17309,2795.17311,3897.84131,2798.00709Z" transform="translate(0 -720.54005)"/><path class="20085871-5ce4-4595-84fe-1fbe61f657b9" d="M3927.34863,2908.87428l5.00147-41.17871a3.50869,3.50869,0,0,0-.167-1.334l-24.34082-67.85449a2.83888,2.83888,0,0,1-.16651-1.167,2.07051,2.07051,0,0,1,.667-1.5,2.47869,2.47869,0,0,1,1.834-.667h18.83886a3.1416,3.1416,0,0,1,1.834.583,2.34069,2.34069,0,0,1,1,1.584l14.50439,43.34668c.10987.334.30518.5.584.5a.93.93,0,0,0,.75-.5l25.00781-43.34668a3.99237,3.99237,0,0,1,3.501-2.167h18.83886q2.33277,0,2.334,1.834a2.98205,2.98205,0,0,1-.5,1.5l-41.3457,67.85449a4.03358,4.03358,0,0,0-.50049,1.334l-5.168,41.17871q-.33618,2.8374-3.001,2.834h-17.17187Q3926.84594,2911.70826,3927.34863,2908.87428Z" transform="translate(0 -720.54005)"/><path class="20085871-5ce4-4595-84fe-1fbe61f657b9" d="M4042.5459,2903.8733q-10.00269-9.33545-10.00293-25.00781a43.02231,43.02231,0,0,1,.33349-6.169l4.668-38.51172a46.84067,46.84067,0,0,1,7.83594-21.17285,42.508,42.508,0,0,1,16.50488-14.1709,50.66782,50.66782,0,0,1,22.67383-5.00195q17.33716,0,27.4253,9.00293,10.084,9.00292,10.08593,24.00684,0,1.83691-.333,5.50195c-.2246,1-1.167,1.6123-2.835,1.834l-17.33789,1.167h-.667q-2.50048,0-2.168-.833l.167-1.001a18.54756,18.54756,0,0,0,.167-2.834q0-7.667-4.585-12.16992-4.58716-4.50147-12.42041-4.502a20.80567,20.80567,0,0,0-14.5879,5.418,21.78544,21.78544,0,0,0-6.91845,14.08789l-5.00147,40.17871a18.21606,18.21606,0,0,0-.167,2.835q0,7.50147,4.50147,12.00293t12.5039,4.502a20.68466,20.68466,0,0,0,14.5044-5.335,22.32654,22.32654,0,0,0,7.00195-14.00489q.33252-1.9995,3.00146-1.833l17.17188.833c1.77637.22461,2.667.5,2.667.834l-.167.833a42.23623,42.23623,0,0,1-24.09033,34.01074,51.58449,51.58449,0,0,1-22.59033,4.835Q4052.54688,2913.20924,4042.5459,2903.8733Z" transform="translate(0 -720.54005)"/><path class="20085871-5ce4-4595-84fe-1fbe61f657b9" d="M4196.09473,2909.54127l-2.668-15.50488q-.16847-.832-.833-.833h-39.67969a.92608.92608,0,0,0-1,.833l-6.50195,15.50488a3.42518,3.42518,0,0,1-3.334,2.334h-18.83886q-2.16943,0-2.168-1.834l.334-1.334,48.18067-111.2002a3.42634,3.42634,0,0,1,3.335-2.334h23.67383a2.6427,2.6427,0,0,1,2.834,2.334l20.83984,111.2002v.667a2.32322,2.32322,0,0,1-.75,1.834,2.78088,2.78088,0,0,1-1.918.667h-18.83887A2.42458,2.42458,0,0,1,4196.09473,2909.54127Zm-35.51075-34.51074h28.67481c.667,0,1-.3877,1-1.167l-8.335-50.84864c-.11231-.44336-.30762-.667-.584-.667-.27832,0-.52832.22363-.75.667l-20.67285,50.84864C4159.80469,2874.64283,4160.02637,2875.03053,4160.584,2875.03053Z" transform="translate(0 -720.54005)"/><path class="20085871-5ce4-4595-84fe-1fbe61f657b9" d="M4234.93652,2909.04127l13.6709-111.03418q.33252-2.833,3.001-2.834h16.67187a3.0215,3.0215,0,0,1,3.001,1.834l32.00977,69.35449c.22168.44531.44238.61231.667.5a1.20106,1.20106,0,0,0,.5-.834l8.33594-68.02051q.3325-2.833,3.001-2.834h17.00488q2.833,0,2.501,2.834l-13.6709,111.03418a2.98293,2.98293,0,0,1-3.168,2.834H4301.957a3.20422,3.20422,0,0,1-3.001-2.001l-32.00976-70.02051q-.33544-.665-.667-.501a1.19287,1.19287,0,0,0-.5.834l-8.169,68.85449a2.98293,2.98293,0,0,1-3.168,2.834h-17.17187Q4234.60156,2911.87525,4234.93652,2909.04127Z" transform="translate(0 -720.54005)"/><path class="20085871-5ce4-4595-84fe-1fbe61f657b9" d="M4373.64062,2909.04127l13.6709-111.03418q.33252-2.833,3.001-2.834h17.33887q2.833,0,2.334,2.834l-13.5039,111.03418a2.98294,2.98294,0,0,1-3.168,2.834h-17.33887Q4373.30566,2911.87525,4373.64062,2909.04127Z" transform="translate(0 -720.54005)"/><path class="20085871-5ce4-4595-84fe-1fbe61f657b9" d="M4416.15137,2909.04127l13.6709-111.03418q.33252-2.833,3.001-2.834h16.67188a3.02148,3.02148,0,0,1,3.001,1.834l32.00977,69.35449c.22168.44531.44238.61231.667.5a1.201,1.201,0,0,0,.5-.834l8.33594-68.02051q.33252-2.833,3.001-2.834h17.00488q2.833,0,2.501,2.834l-13.67089,111.03418a2.98294,2.98294,0,0,1-3.168,2.834h-16.50488a3.2042,3.2042,0,0,1-3.001-2.001l-32.00977-70.02051q-.33545-.665-.667-.501a1.19294,1.19294,0,0,0-.5.834l-8.16894,68.85449a2.98294,2.98294,0,0,1-3.168,2.834h-17.17188Q4415.8164,2911.87525,4416.15137,2909.04127Z" transform="translate(0 -720.54005)"/><path class="20085871-5ce4-4595-84fe-1fbe61f657b9" d="M4534.35156,2903.8733q-10.00341-9.33545-10.00293-25.00781a42.936,42.936,0,0,1,.334-6.169l4.668-38.51172a46.8396,46.8396,0,0,1,7.835-21.17285,42.50733,42.50733,0,0,1,16.50586-14.1709,50.66062,50.66062,0,0,1,22.67285-5.00195q17.33788,0,27.42578,9.00293,10.084,9.00292,10.08594,24.00684,0,1.83691-.333,5.50195c-.22461,1-1.167,1.6123-2.835,1.834l-17.33789,1.167h-.667q-2.50048,0-2.168-.833l.167-1.001a18.5491,18.5491,0,0,0,.167-2.834q0-7.667-4.585-12.16992-4.58788-4.50147-12.41992-4.502a20.80316,20.80316,0,0,0-14.58789,5.418,21.78364,21.78364,0,0,0-6.91895,14.08789l-5.00195,40.17871a18.36124,18.36124,0,0,0-.166,2.835q0,7.50147,4.501,12.00293,4.50147,4.50147,12.50391,4.502a20.68342,20.68342,0,0,0,14.5039-5.335,22.32753,22.32753,0,0,0,7.00293-14.00489q.33106-1.9995,3.001-1.833l17.17187.833c1.77637.22461,2.667.5,2.667.834l-.167.833a42.23537,42.23537,0,0,1-24.09082,34.01074,51.58074,51.58074,0,0,1-22.58984,4.835Q4544.35254,2913.20924,4534.35156,2903.8733Z" transform="translate(0 -720.54005)"/><path class="20085871-5ce4-4595-84fe-1fbe61f657b9" d="M4680.22949,2909.70826l-14.33789-45.34765q0-.832-1-.833h-14.6709q-.83641,0-1.167,1l-5.335,44.51367a2.98293,2.98293,0,0,1-3.168,2.834h-17.33887q-2.66894,0-2.334-2.834l13.6709-111.20117q.33252-2.833,3.001-2.834h45.51368q14.16943,0,22.42382,8.08594,8.25294,8.08887,8.25293,21.75684,0,1.66845-.334,5.335a38.8228,38.8228,0,0,1-8.00195,19.50586,34.64732,34.64732,0,0,1-16.50586,11.5039,1.01069,1.01069,0,0,0-.666.583.87443.87443,0,0,0,0,.75l15.6709,46.01465a2.89584,2.89584,0,0,1,.167,1.167,2.07568,2.07568,0,0,1-.667,1.5,2.4793,2.4793,0,0,1-1.834.667h-18.33887A3.01361,3.01361,0,0,1,4680.22949,2909.70826Zm-25.17383-93.3623-3.50195,28.00879c0,.667.27637,1,.834,1h21.00683a17.44235,17.44235,0,0,0,12.50293-4.751,15.945,15.945,0,0,0,5.00195-12.08691,12.64183,12.64183,0,0,0-3.751-9.58692,13.76852,13.76852,0,0,0-9.91992-3.584h-21.17286A.88362.88362,0,0,0,4655.05566,2816.346Z" transform="translate(0 -720.54005)"/><path class="20085871-5ce4-4595-84fe-1fbe61f657b9" d="M4807.60059,2815.346H4755.418a1.10046,1.10046,0,0,0-.667.25.87463.87463,0,0,0-.333.75l-3.168,25.50781c0,.667.27637,1,.833,1h33.84375q2.833,0,2.334,2.835l-1.667,14.50391a2.98086,2.98086,0,0,1-3.167,2.834H4749.583a.885.885,0,0,0-1.001,1.001l-3.334,26.6748c0,.667.27636,1,.834,1h52.18262q2.66455,0,2.334,2.834l-1.834,14.50488q-.33692,2.83593-3.001,2.834h-73.18945q-2.669,0-2.334-2.834l13.6709-111.03418q.33252-2.833,3.001-2.834h73.18945q2.66455,0,2.334,2.834l-1.834,14.50488Q4810.26464,2815.34792,4807.60059,2815.346Z" transform="translate(0 -720.54005)"/><path class="20085871-5ce4-4595-84fe-1fbe61f657b9" d="M4884.29,2909.54127l-2.668-15.50488q-.16845-.832-.833-.833h-39.67968a.92607.92607,0,0,0-1,.833l-6.502,15.50488a3.42517,3.42517,0,0,1-3.334,2.334h-18.83887q-2.16944,0-2.168-1.834l.334-1.334,48.18066-111.2002a3.42634,3.42634,0,0,1,3.335-2.334H4884.79a2.64268,2.64268,0,0,1,2.834,2.334l20.83985,111.2002v.667a2.32322,2.32322,0,0,1-.75,1.834,2.7809,2.7809,0,0,1-1.918.667H4886.957A2.42458,2.42458,0,0,1,4884.29,2909.54127Zm-35.51074-34.51074h28.6748c.667,0,1-.3877,1-1.167l-8.335-50.84864c-.1123-.44336-.30762-.667-.584-.667-.27832,0-.52832.22363-.75.667l-20.67286,50.84864C4848,2874.64283,4848.22168,2875.03053,4848.7793,2875.03053Z" transform="translate(0 -720.54005)"/><path class="20085871-5ce4-4595-84fe-1fbe61f657b9" d="M4925.71777,2905.04029q-10.2539-8.168-10.25293-22.17383a44.236,44.236,0,0,1,.333-4.501l.334-2.835a2.98115,2.98115,0,0,1,3.167-2.834h17.00586a2.969,2.969,0,0,1,2,.584,1.61788,1.61788,0,0,1,.5,1.583l-.333,2.335a12.09965,12.09965,0,0,0,4.501,11.25293q5.33349,4.58788,14.83789,4.585,9.167,0,13.9209-4.168a13.02975,13.02975,0,0,0,4.75195-10.16992,8.54347,8.54347,0,0,0-2.418-6.16895,21.885,21.885,0,0,0-6.50195-4.418q-4.08692-1.91455-12.75391-5.418a128.9113,128.9113,0,0,1-16.4209-7.25195,34.87255,34.87255,0,0,1-11.1709-9.58691q-4.58641-6.00147-4.584-14.83789,0-1.1631.333-4.168a33.83,33.83,0,0,1,13.83789-24.08985q12.00292-8.918,29.67578-8.91992a49.17689,49.17689,0,0,1,20.25586,3.918,31.05211,31.05211,0,0,1,13.5039,11.00293,29.08207,29.08207,0,0,1,4.752,16.58887q0,1.33593-.334,4.335l-.333,1.667q-.33692,2.83593-3.001,2.834h-17.00488q-2.83741,0-2.501-1.667l.167-1.667a13.75337,13.75337,0,0,0-4.085-11.9209q-4.919-4.91456-14.75488-4.918-8.3379,0-13.08692,3.751a12.53422,12.53422,0,0,0-4.75195,10.41992,8.77351,8.77351,0,0,0,2.334,6.085,22.72063,22.72063,0,0,0,6.919,4.835q4.58349,2.25147,13.75488,5.585,10.50294,4.17042,16.1709,7.08594a32.69144,32.69144,0,0,1,10.33692,8.669q4.66552,5.75244,4.668,14.58789,0,1.33593-.333,4.335a34.78478,34.78478,0,0,1-7.169,17.83887,38.85379,38.85379,0,0,1-15.92187,11.83691,57.39283,57.39283,0,0,1-22.42383,4.168Q4935.96924,2913.20924,4925.71777,2905.04029Z" transform="translate(0 -720.54005)"/><path class="20085871-5ce4-4595-84fe-1fbe61f657b9" d="M5098.85254,2815.346h-52.18262a1.10046,1.10046,0,0,0-.667.25.87465.87465,0,0,0-.333.75l-3.168,25.50781c0,.667.27637,1,.833,1h33.84375q2.833,0,2.334,2.835l-1.667,14.50391a2.98085,2.98085,0,0,1-3.167,2.834H5040.835a.885.885,0,0,0-1.001,1.001l-3.334,26.6748c0,.667.27637,1,.834,1h52.18262q2.66456,0,2.334,2.834l-1.834,14.50488q-.33692,2.83593-3.001,2.834h-73.18945q-2.66894,0-2.334-2.834l13.6709-111.03418q.33252-2.833,3.001-2.834h73.18946q2.66454,0,2.334,2.834l-1.834,14.50488Q5101.51661,2815.34792,5098.85254,2815.346Z" transform="translate(0 -720.54005)"/><path class="20085871-5ce4-4595-84fe-1fbe61f657b9" d="M5212.0498,2851.43971a1.02918,1.02918,0,0,0,.333.751q12.33546,6.8379,12.33692,21.83985,0,1.5-.333,5.168-2.001,16.17333-13.75488,24.42382-11.75244,8.25294-28.92481,8.25293h-41.17969q-2.66893,0-2.334-2.834l13.6709-111.03418q.33252-2.833,3.001-2.834h39.84571q34.67432,0,34.67676,26.1748a38.23674,38.23674,0,0,1-.333,5.835q-1.83692,16.84131-16.50489,23.67383C5212.21582,2850.969,5212.0498,2851.16432,5212.0498,2851.43971Zm-14.92187,35.51172q4.752-4.58351,4.752-12.58789,0-5.833-3.751-9.00293-3.75147-3.16407-10.58692-3.167h-19.83984q-.835,0-1.167,1l-3.334,27.3418c0,.667.27637,1,.834,1H5184.208Q5192.37451,2891.53541,5197.12793,2886.95143Zm-24.75684-70.60547-3.168,25.6748c-.1123.667.167,1,.833,1H5188.876q7.50146,0,12.16992-3.584a14.45088,14.45088,0,0,0,5.50195-10.08692l.167-2a10.93865,10.93865,0,0,0-3.75195-8.83593q-3.75-3.16554-10.75293-3.168h-18.83887A.88362.88362,0,0,0,5172.37109,2816.346Z" transform="translate(0 -720.54005)"/><path class="20085871-5ce4-4595-84fe-1fbe61f657b9" d="M5260.2334,2908.87428l5.001-41.17871a3.51435,3.51435,0,0,0-.166-1.334l-24.34082-67.85449a2.82861,2.82861,0,0,1-.167-1.167,2.07241,2.07241,0,0,1,.667-1.5,2.47792,2.47792,0,0,1,1.834-.667h18.83887a3.14162,3.14162,0,0,1,1.834.583,2.339,2.339,0,0,1,1,1.584l14.50488,43.34668c.10937.334.30469.5.583.5a.92871.92871,0,0,0,.75-.5l25.00781-43.34668a3.99346,3.99346,0,0,1,3.501-2.167h18.83985q2.332,0,2.334,1.834a2.98675,2.98675,0,0,1-.5,1.5l-41.34668,67.85449a4.04037,4.04037,0,0,0-.5,1.334l-5.168,41.17871q-.33692,2.8374-3.001,2.834h-17.17188Q5259.73,2911.70826,5260.2334,2908.87428Z" transform="translate(0 -720.54005)"/><path class="20085871-5ce4-4595-84fe-1fbe61f657b9" d="M5376.84766,2903.8733q-10.08839-9.33545-10.08594-25.00781,0-1.66552.333-5.669l9.33691-75.18945q.331-2.833,3-2.834h17.33887q2.833,0,2.501,2.834l-9.33593,75.35645a23.361,23.361,0,0,0-.167,3.168q0,7.50147,4.501,12.00293,4.50147,4.50147,12.33789,4.502a20.57961,20.57961,0,0,0,14.4209-5.419,22.64,22.64,0,0,0,7.085-14.2539l9.16992-75.35645a2.982,2.982,0,0,1,3.168-2.834h17.33789q2.833,0,2.334,2.834l-9.169,75.18945a46.11046,46.11046,0,0,1-7.83594,20.92285,42.92257,42.92257,0,0,1-16.42187,14.0879,50.14763,50.14763,0,0,1-22.58984,5.002Q5386.93262,2913.20924,5376.84766,2903.8733Z" transform="translate(0 -720.54005)"/><path class="20085871-5ce4-4595-84fe-1fbe61f657b9" d="M5549.06445,2803.259q8.58546,8.25147,8.58594,22.25684,0,1.66845-.333,5.668a40.79066,40.79066,0,0,1-6.91894,18.50586,38.04247,38.04247,0,0,1-14.4209,12.41992,43.3676,43.3676,0,0,1-19.67285,4.41894h-22.83985q-.83641,0-1.167,1l-5.00195,41.5127a2.98181,2.98181,0,0,1-3.168,2.834H5466.79q-2.669,0-2.334-2.834l13.6709-111.20117q.33107-2.833,3-2.834h44.84766Q5540.478,2795.00611,5549.06445,2803.259Zm-19.58886,39.17871a17.82283,17.82283,0,0,0,5.335-13.2539,13.16821,13.16821,0,0,0-4.001-10.08692q-4.002-3.75146-10.66992-3.751H5499.7998c-.55761,0-.94531.333-1.167,1l-3.668,30.34277c-.1123.667.167,1,.834,1h20.33887A18.251,18.251,0,0,0,5529.47559,2842.43775Z" transform="translate(0 -720.54005)"/><path class="20085871-5ce4-4595-84fe-1fbe61f657b9" d="M2460.93164,2998.06764l-1.834,14.6709a2.86273,2.86273,0,0,1-3.16748,2.835h-27.8418q-.83643,0-1.167,1l-11.33692,92.52832a2.8628,2.8628,0,0,1-3.16748,2.834h-17.17187q-2.83668,0-2.501-2.834l11.33691-92.52832q.33252-1.0005-.83349-1h-27.17481a2.27875,2.27875,0,0,1-1.91748-.751,2.72578,2.72578,0,0,1-.417-2.084l1.834-14.6709q.33252-2.833,3.001-2.834h79.85791Q2461.26343,2995.23365,2460.93164,2998.06764Z" transform="translate(0 -720.54005)"/><path class="20085871-5ce4-4595-84fe-1fbe61f657b9" d="M2469.18213,3104.01686q-10.25317-9.75294-10.25342-26.0918a46.23908,46.23908,0,0,1,.5-6.50195l4.335-35.67676a48.3881,48.3881,0,0,1,8.00244-21.84082,44.663,44.663,0,0,1,16.75489-14.75391,49.54553,49.54553,0,0,1,22.92382-5.252q17.50561,0,27.7583,9.66992,10.25317,9.6709,10.25342,25.6748a43.79478,43.79478,0,0,1-.50049,6.502l-4.33447,35.67676a49.14949,49.14949,0,0,1-8.00244,22.09082,44.90476,44.90476,0,0,1-16.83838,14.92089,49.43477,49.43477,0,0,1-23.00732,5.335Q2479.43261,3113.76979,2469.18213,3104.01686Zm45.18017-16.25489q6.08424-5.83448,7.419-15.50488l4.50146-36.67773a27.23507,27.23507,0,0,0,.16651-3.501q0-8.335-4.668-13.1709-4.66919-4.834-12.8374-4.835a20.87026,20.87026,0,0,0-15.0044,5.91894q-6.16992,5.91943-7.33545,15.5879l-4.50146,36.67773a26.85206,26.85206,0,0,0-.1665,3.501q0,8.17089,4.668,13.0039,4.66554,4.83691,12.67041,4.835A20.94812,20.94812,0,0,0,2514.3623,3087.762Z" transform="translate(0 -720.54005)"/><path class="31b01025-62d4-42c2-852d-5917cc598f63" d="M2618.80664,2995.23365H2637.146q2.66454,0,2.334,2.834l-13.6709,111.03418q-.33618,2.83593-3.001,2.834h-17.33887q-2.83668,0-2.50049-2.834l11.16992-90.86133a.76567.76567,0,0,0-1-1l-14.50439,3.001h-.667q-2.33716,0-2.16749-2.501l1.50049-12.6709a3.7969,3.7969,0,0,1,2.501-3.167l15.50439-6.002A8.576,8.576,0,0,1,2618.80664,2995.23365Z" transform="translate(0 -720.54005)"/><path class="31b01025-62d4-42c2-852d-5917cc598f63" d="M2721.17041,3068.42213a41.26361,41.26361,0,0,1-.3335,6.16894,46.33911,46.33911,0,0,1-4.50146,15.33789,38.34737,38.34737,0,0,1-15.08789,16.83887,42.42475,42.42475,0,0,1-22.75684,6.335q-12.33984,0-20.83984-6.085A28.26863,28.26863,0,0,1,2646.481,3090.429a38.3547,38.3547,0,0,1-1.3335-8.33593,2.85922,2.85922,0,0,1,3.001-3.001h18.00537a2.42992,2.42992,0,0,1,2.66748,2.334c.22119.8916.44287,1.668.667,2.335a10.61564,10.61564,0,0,0,3.83447,6.668,12.11107,12.11107,0,0,0,7.669,2.334,14.312,14.312,0,0,0,7.50195-2,14.59056,14.59056,0,0,0,5.335-5.66895q1.16455-2.16357,1.66748-3.167a28.09646,28.09646,0,0,0,2.334-10.33691,34.28069,34.28069,0,0,0-.667-5.668,9.86493,9.86493,0,0,0-3.751-6.66895,13.05769,13.05769,0,0,0-8.08594-2.334,18.84935,18.84935,0,0,0-7.50244,1.5,12.90428,12.90428,0,0,0-5.668,4.668,4.25994,4.25994,0,0,1-3.50146,2.168h-18.67237q-2.83666,0-2.334-2.834l7.83594-64.35351a2.86119,2.86119,0,0,1,3.16748-2.834h65.18652q2.66529,0,2.334,2.834l-1.834,14.50488q-.33544,2.83593-3.00049,2.834h-44.18017q-.83643,0-1.167,1l-3.001,24.17383c-.11231.44629-.05762.72461.1665.834a.82276.82276,0,0,0,.8335-.167,32.94591,32.94591,0,0,1,17.17187-4.668q11.168,0,19.00586,5.91894a27.1108,27.1108,0,0,1,10.16992,16.25488A49.83134,49.83134,0,0,1,2721.17041,3068.42213Z" transform="translate(0 -720.54005)"/><path class="31b01025-62d4-42c2-852d-5917cc598f63" d="M2748.92822,3039.83033a22.796,22.796,0,0,1-6.41894-16.58789,27.81449,27.81449,0,0,1,4.085-14.50488,31.14079,31.14079,0,0,1,10.91992-10.91992,27.5491,27.5491,0,0,1,14.3374-4.085,21.543,21.543,0,0,1,16.08838,6.58593,22.60227,22.60227,0,0,1,6.41846,16.42188,28.41457,28.41457,0,0,1-4.001,14.7539,31.136,31.136,0,0,1-10.66992,10.83692,26.96281,26.96281,0,0,1-14.33789,4.085Q2755.34692,3046.41627,2748.92822,3039.83033Zm1.667,71.68848a1.2687,1.2687,0,0,1-.58349-1.083,5.23613,5.23613,0,0,1,.667-1.834l73.856-111.36719a3.26745,3.26745,0,0,1,1.50049-1.501,4.44232,4.44232,0,0,1,2.00048-.5h10.33643q2.00025,0,2.00049,1.667a3.92786,3.92786,0,0,1-.5,1.667l-73.68945,111.36718a3.94182,3.94182,0,0,1-3.66749,2.001H2752.1792A2.66534,2.66534,0,0,1,2750.59521,3111.51881Zm27.00831-82.1084a15.94567,15.94567,0,0,0,4.58447-11.33691,11.8076,11.8076,0,0,0-3.334-8.58594,11.38119,11.38119,0,0,0-8.50293-3.417,15.05129,15.05129,0,0,0-11.00293,4.668,15.23624,15.23624,0,0,0-4.66845,11.16992,11.97455,11.97455,0,0,0,3.501,8.83593,11.77406,11.77406,0,0,0,8.66944,3.501A14.36124,14.36124,0,0,0,2777.60352,3029.41041Zm26.3413,77.35742a23.08241,23.08241,0,0,1-6.41845-16.67187,27.81856,27.81856,0,0,1,4.08447-14.50489,30.672,30.672,0,0,1,10.83643-10.83593,27.52715,27.52715,0,0,1,14.25439-4.002,22.22214,22.22214,0,0,1,22.67383,22.84082,28.85809,28.85809,0,0,1-4.00147,14.83789,30.66076,30.66076,0,0,1-10.75293,10.91993,27.41179,27.41179,0,0,1-14.42138,4.084A21.59069,21.59069,0,0,1,2803.94482,3106.76783Zm28.6753-10.41992a15.66554,15.66554,0,0,0,4.585-11.25391,11.93358,11.93358,0,0,0-3.418-8.66894,11.50363,11.50363,0,0,0-8.58594-3.501,14.78284,14.78284,0,0,0-10.91992,4.668,15.37457,15.37457,0,0,0-4.58447,11.16992,12.12657,12.12657,0,0,0,3.41748,8.83594,11.49608,11.49608,0,0,0,8.58594,3.501A14.6627,14.6627,0,0,0,2832.62012,3096.34791Z" transform="translate(0 -720.54005)"/><path class="20085871-5ce4-4595-84fe-1fbe61f657b9" d="M2991.24707,2998.06764l-1.834,14.6709a2.86273,2.86273,0,0,1-3.16748,2.835h-27.8418q-.83643,0-1.167,1l-11.33692,92.52832a2.8628,2.8628,0,0,1-3.16748,2.834h-17.17187q-2.83668,0-2.501-2.834l11.33691-92.52832q.33252-1.0005-.83349-1h-27.17481a2.27875,2.27875,0,0,1-1.91748-.751,2.72578,2.72578,0,0,1-.417-2.084l1.834-14.6709q.33252-2.833,3.001-2.834h79.85791Q2991.57887,2995.23365,2991.24707,2998.06764Z" transform="translate(0 -720.54005)"/><path class="20085871-5ce4-4595-84fe-1fbe61f657b9" d="M3068.93555,2995.23365h17.33886q2.83229,0,2.334,2.834l-13.6709,111.03418q-.33618,2.83593-3.001,2.834h-17.33886q-2.83668,0-2.334-2.834l5.502-45.01368q0-1.00048-.83349-1.001H3021.4209a.8845.8845,0,0,0-1,1.001l-5.50195,45.01368a2.98223,2.98223,0,0,1-3.16749,2.834H2994.4126q-2.66822,0-2.334-2.834l13.6709-111.03418q.33252-2.833,3.001-2.834h17.33887q2.83227,0,2.334,2.834l-5.335,43.84668c0,.667.27588,1,.8335,1h35.51074a.884.884,0,0,0,1.00049-1l5.335-43.84668Q3066.26831,2995.23462,3068.93555,2995.23365Z" transform="translate(0 -720.54005)"/><path class="20085871-5ce4-4595-84fe-1fbe61f657b9" d="M3152.96,3109.76881l-14.33789-45.34766q0-.832-1-.833h-14.67139q-.8357,0-1.167,1l-5.335,44.51368a2.98222,2.98222,0,0,1-3.16748,2.834h-17.33887q-2.66821,0-2.334-2.834l13.6709-111.20118q.33252-2.833,3.001-2.834h45.51416q14.168,0,22.42334,8.08594,8.2522,8.08887,8.25244,21.75683,0,1.66847-.33349,5.335a38.81461,38.81461,0,0,1-8.00244,19.50586,34.64464,34.64464,0,0,1-16.50489,11.50391,1.01133,1.01133,0,0,0-.667.583.87789.87789,0,0,0,0,.75l15.67139,46.01465a2.896,2.896,0,0,1,.167,1.167,2.07378,2.07378,0,0,1-.667,1.5,2.47931,2.47931,0,0,1-1.834.667h-18.33886A3.01322,3.01322,0,0,1,3152.96,3109.76881Zm-25.17432-93.36231-3.501,28.00879c0,.667.27588,1,.83349,1h21.00635a17.44469,17.44469,0,0,0,12.50391-4.751,15.94638,15.94638,0,0,0,5.00146-12.08692,12.64362,12.64362,0,0,0-3.751-9.58691,13.76775,13.76775,0,0,0-9.91993-3.584h-21.17285A.884.884,0,0,0,3127.78564,3016.4065Z" transform="translate(0 -720.54005)"/><path class="20085871-5ce4-4595-84fe-1fbe61f657b9" d="M3205.05811,3104.01686q-10.25317-9.75294-10.25342-26.0918a46.23908,46.23908,0,0,1,.5-6.50195l4.335-35.67676a48.3881,48.3881,0,0,1,8.00244-21.84082,44.66284,44.66284,0,0,1,16.75488-14.75391,49.54557,49.54557,0,0,1,22.92383-5.252q17.50562,0,27.7583,9.66992,10.25317,9.6709,10.25342,25.6748a43.79478,43.79478,0,0,1-.50049,6.502l-4.33447,35.67676a49.14949,49.14949,0,0,1-8.00244,22.09082,44.90484,44.90484,0,0,1-16.83838,14.92089,49.43479,49.43479,0,0,1-23.00733,5.335Q3215.3086,3113.76979,3205.05811,3104.01686Zm45.18017-16.25489q6.08423-5.83448,7.41895-15.50488l4.50146-36.67773a27.23507,27.23507,0,0,0,.16651-3.501q0-8.335-4.668-13.1709-4.6692-4.834-12.83741-4.835a20.87023,20.87023,0,0,0-15.00439,5.91894q-6.16992,5.91943-7.33545,15.5879l-4.50146,36.67773a26.85168,26.85168,0,0,0-.16651,3.501q0,8.17089,4.668,13.0039,4.66552,4.83691,12.67041,4.835A20.94814,20.94814,0,0,0,3250.23828,3087.762Z" transform="translate(0 -720.54005)"/><path class="20085871-5ce4-4595-84fe-1fbe61f657b9" d="M3306.5874,3103.93385q-10.0891-9.33546-10.08642-25.00781,0-1.66554.33349-5.66895l9.33594-75.18945q.33252-2.833,3.001-2.834h17.33838q2.833,0,2.501,2.834l-9.33642,75.35644a23.45585,23.45585,0,0,0-.16651,3.168q0,7.50147,4.50147,12.00293t12.33691,4.502a20.5808,20.5808,0,0,0,14.42139-5.41894,22.64055,22.64055,0,0,0,7.08545-14.25391l9.16943-75.35644q.50025-2.833,3.16748-2.834h17.33887q2.83227,0,2.334,2.834l-9.16943,75.18945a46.1049,46.1049,0,0,1-7.83594,20.92285,42.91894,42.91894,0,0,1-16.42187,14.08789,50.14765,50.14765,0,0,1-22.58985,5.002Q3316.67261,3113.26979,3306.5874,3103.93385Z" transform="translate(0 -720.54005)"/><path class="20085871-5ce4-4595-84fe-1fbe61f657b9" d="M3405.94873,3103.76686q-10.08911-9.50391-10.08643-25.34082a43.01267,43.01267,0,0,1,.3335-6.16895l4.668-37.34473a48.18623,48.18623,0,0,1,7.83594-21.50683,42.68668,42.68668,0,0,1,16.50488-14.4209,50.0002,50.0002,0,0,1,22.67383-5.085,43.83689,43.83689,0,0,1,19.83935,4.251,31.35625,31.35625,0,0,1,13.08741,11.75391,31.96665,31.96665,0,0,1,4.58447,17.00488,45.34631,45.34631,0,0,1-.3335,4.66895v.333a2.98156,2.98156,0,0,1-3.16748,2.834H3464.5498a3.8996,3.8996,0,0,1-1.917-.417c-.5-.27539-.6958-.583-.58349-.917l.1665-1.167a12.7216,12.7216,0,0,0,.167-2.334,15.30117,15.30117,0,0,0-4.50146-11.41992q-4.50147-4.415-12.50391-4.418a20.44681,20.44681,0,0,0-14.58789,5.585,23.49664,23.49664,0,0,0-7.08545,14.58789l-4.668,38.67871a19.74555,19.74555,0,0,0-.1665,3.001,16.48375,16.48375,0,0,0,4.918,12.41992q4.91527,4.752,12.7539,4.752,8.50269,0,14.0044-4.585,5.50122-4.58349,6.50195-12.7539l1-7.33594q0-.999-.83349-1h-17.17188q-2.83666,0-2.334-2.834l1.667-13.67089q.33252-2.833,3.001-2.834h37.84522q2.83227,0,2.50049,2.834l-2.66748,21.17285q-2.33643,19.1748-15.08789,30.17578-12.75366,11.00391-31.75977,11.00391Q3416.03394,3113.26979,3405.94873,3103.76686Z" transform="translate(0 -720.54005)"/><path class="20085871-5ce4-4595-84fe-1fbe61f657b9" d="M3569.08008,2995.23365H3586.419q2.83227,0,2.334,2.834l-13.6709,111.03418q-.33618,2.83593-3.001,2.834h-17.33886q-2.83668,0-2.334-2.834l5.502-45.01368q0-1.00048-.8335-1.001h-35.51123a.88451.88451,0,0,0-1,1.001l-5.502,45.01368a2.98223,2.98223,0,0,1-3.16748,2.834h-17.33887q-2.66822,0-2.334-2.834l13.6709-111.03418q.33252-2.833,3.001-2.834h17.33887q2.83227,0,2.334,2.834l-5.335,43.84668c0,.667.27588,1,.8335,1h35.51074a.884.884,0,0,0,1.00049-1l5.335-43.84668Q3566.41284,2995.23462,3569.08008,2995.23365Z" transform="translate(0 -720.54005)"/><path class="20085871-5ce4-4595-84fe-1fbe61f657b9" d="M3685.44531,3109.76881l-14.33789-45.34766q0-.832-1-.833H3655.436q-.8357,0-1.167,1l-5.335,44.51368a2.98222,2.98222,0,0,1-3.16748,2.834h-17.33887q-2.6682,0-2.334-2.834l13.6709-111.20118q.33252-2.833,3.001-2.834h45.51417q14.168,0,22.42333,8.08594,8.2522,8.08887,8.25245,21.75683,0,1.66847-.3335,5.335a38.81461,38.81461,0,0,1-8.00244,19.50586,34.64462,34.64462,0,0,1-16.50488,11.50391,1.01132,1.01132,0,0,0-.667.583.87789.87789,0,0,0,0,.75l15.67139,46.01465a2.89581,2.89581,0,0,1,.167,1.167,2.07378,2.07378,0,0,1-.667,1.5,2.4793,2.4793,0,0,1-1.834.667h-18.33887A3.01322,3.01322,0,0,1,3685.44531,3109.76881ZM3660.271,3016.4065l-3.501,28.00879c0,.667.27588,1,.8335,1h21.00634a17.44469,17.44469,0,0,0,12.50391-4.751,15.94638,15.94638,0,0,0,5.00146-12.08692,12.64358,12.64358,0,0,0-3.751-9.58691,13.76773,13.76773,0,0,0-9.91992-3.584h-21.17286A.884.884,0,0,0,3660.271,3016.4065Z" transform="translate(0 -720.54005)"/><path class="20085871-5ce4-4595-84fe-1fbe61f657b9" d="M3812.81641,3015.4065h-52.18262a1.10052,1.10052,0,0,0-.667.25.87374.87374,0,0,0-.3335.75l-3.16748,25.50782c0,.667.27588,1,.8335,1h33.84375q2.833,0,2.334,2.835l-1.66748,14.5039a2.981,2.981,0,0,1-3.16748,2.834h-33.84375a.88451.88451,0,0,0-1,1.001l-3.33447,26.67481c0,.667.27588,1,.83349,1H3803.48q2.66529,0,2.334,2.834l-1.834,14.50489q-.33544,2.83593-3.00049,2.834H3727.79q-2.66821,0-2.334-2.834l13.6709-111.03418q.33252-2.833,3.001-2.834h73.189q2.66529,0,2.334,2.834l-1.834,14.50488Q3815.48145,3015.40845,3812.81641,3015.4065Z" transform="translate(0 -720.54005)"/><path class="20085871-5ce4-4595-84fe-1fbe61f657b9" d="M3831.73779,3103.76686q-10.08911-9.50391-10.08642-25.34082a43.013,43.013,0,0,1,.33349-6.16895l4.668-37.34473a48.18623,48.18623,0,0,1,7.83594-21.50683,42.68675,42.68675,0,0,1,16.50488-14.4209,50.0002,50.0002,0,0,1,22.67383-5.085,43.837,43.837,0,0,1,19.83936,4.251,31.35629,31.35629,0,0,1,13.0874,11.75391,31.96665,31.96665,0,0,1,4.58447,17.00488,45.34631,45.34631,0,0,1-.3335,4.66895v.333a2.98156,2.98156,0,0,1-3.16748,2.834h-17.33886a3.89957,3.89957,0,0,1-1.917-.417c-.5-.27539-.69581-.583-.5835-.917l.1665-1.167a12.72144,12.72144,0,0,0,.167-2.334,15.30114,15.30114,0,0,0-4.50147-11.41992q-4.50147-4.415-12.50391-4.418a20.44681,20.44681,0,0,0-14.58789,5.585,23.49664,23.49664,0,0,0-7.08545,14.58789l-4.668,38.67871a19.744,19.744,0,0,0-.16651,3.001,16.48379,16.48379,0,0,0,4.918,12.41992q4.91529,4.752,12.75391,4.752,8.50268,0,14.00439-4.585,5.50122-4.58349,6.50195-12.7539l1-7.33594q0-.999-.83349-1h-17.17188q-2.83666,0-2.334-2.834l1.667-13.67089q.33252-2.833,3.001-2.834h37.84521q2.83228,0,2.50049,2.834l-2.66748,21.17285q-2.33643,19.1748-15.08789,30.17578-12.75366,11.00391-31.75977,11.00391Q3841.823,3113.26979,3831.73779,3103.76686Z" transform="translate(0 -720.54005)"/><path class="20085871-5ce4-4595-84fe-1fbe61f657b9" d="M3931.2666,3103.93385q-10.0891-9.33546-10.08642-25.00781,0-1.66554.33349-5.66895l9.33594-75.18945q.33252-2.833,3.001-2.834H3951.189q2.833,0,2.501,2.834l-9.33642,75.35644a23.45585,23.45585,0,0,0-.16651,3.168q0,7.50147,4.50147,12.00293t12.33691,4.502a20.5808,20.5808,0,0,0,14.42139-5.41894,22.6406,22.6406,0,0,0,7.08545-14.25391l9.16943-75.35644q.50025-2.833,3.16748-2.834H4012.208q2.83227,0,2.334,2.834l-9.16943,75.18945a46.1049,46.1049,0,0,1-7.83594,20.92285,42.91894,42.91894,0,0,1-16.42187,14.08789,50.14765,50.14765,0,0,1-22.58985,5.002Q3941.35181,3113.26979,3931.2666,3103.93385Z" transform="translate(0 -720.54005)"/><path class="20085871-5ce4-4595-84fe-1fbe61f657b9" d="M4019.70752,3109.10182l13.6709-111.03418q.33252-2.833,3.001-2.834h17.33887q2.83228,0,2.334,2.834l-11.33692,92.69531c0,.667.27588,1,.8335,1h52.01562q2.666,0,2.334,2.834l-1.834,14.50489q-.334,2.83593-3.00049,2.834H4022.0415Q4019.3733,3111.9358,4019.70752,3109.10182Z" transform="translate(0 -720.54005)"/><path class="20085871-5ce4-4595-84fe-1fbe61f657b9" d="M4184.75684,3109.60182l-2.668-15.50489q-.16846-.832-.833-.833h-39.67969a.92608.92608,0,0,0-1,.833l-6.50195,15.50489a3.42519,3.42519,0,0,1-3.334,2.334h-18.83886q-2.16943,0-2.168-1.834l.334-1.334,48.18067-111.20019a3.42634,3.42634,0,0,1,3.335-2.334h23.67383a2.6427,2.6427,0,0,1,2.834,2.334l20.83984,111.20019v.667a2.32323,2.32323,0,0,1-.75,1.834,2.78088,2.78088,0,0,1-1.918.667h-18.83887A2.42459,2.42459,0,0,1,4184.75684,3109.60182Zm-35.51075-34.51075h28.67481c.667,0,1-.38769,1-1.167l-8.335-50.84863c-.11231-.44336-.30762-.667-.584-.667-.27832,0-.52832.22363-.75.667l-20.67285,50.84863C4148.4668,3074.70338,4148.68848,3075.09107,4149.24609,3075.09107Z" transform="translate(0 -720.54005)"/><path class="20085871-5ce4-4595-84fe-1fbe61f657b9" d="M4282.95117,3109.76881l-14.33789-45.34766q0-.832-1-.833h-14.6709q-.83642,0-1.167,1l-5.335,44.51368a2.98293,2.98293,0,0,1-3.168,2.834h-17.33887q-2.66893,0-2.334-2.834l13.6709-111.20118q.33252-2.833,3.001-2.834h45.51368q14.16943,0,22.42382,8.08594,8.25294,8.08887,8.25293,21.75683,0,1.66847-.334,5.335a38.82276,38.82276,0,0,1-8.00195,19.50586,34.64734,34.64734,0,0,1-16.50586,11.50391,1.01069,1.01069,0,0,0-.666.583.87443.87443,0,0,0,0,.75l15.6709,46.01465a2.89581,2.89581,0,0,1,.167,1.167,2.07568,2.07568,0,0,1-.667,1.5,2.4793,2.4793,0,0,1-1.834.667h-18.33887A3.01361,3.01361,0,0,1,4282.95117,3109.76881Zm-25.17383-93.36231-3.50195,28.00879c0,.667.27637,1,.834,1h21.00683a17.44234,17.44234,0,0,0,12.50293-4.751,15.945,15.945,0,0,0,5.00195-12.08692,12.64183,12.64183,0,0,0-3.751-9.58691,13.76853,13.76853,0,0,0-9.91992-3.584h-21.17286A.88363.88363,0,0,0,4257.77734,3016.4065Z" transform="translate(0 -720.54005)"/><path class="20085871-5ce4-4595-84fe-1fbe61f657b9" d="M4367.13965,3103.93385q-10.00342-9.33546-10.00293-25.00781a42.93631,42.93631,0,0,1,.334-6.16895l4.668-38.51172a46.8396,46.8396,0,0,1,7.835-21.17285,42.5074,42.5074,0,0,1,16.50586-14.1709,50.66068,50.66068,0,0,1,22.67285-5.002q17.3379,0,27.42578,9.00293,10.084,9.00293,10.08594,24.00683,0,1.83691-.333,5.502c-.2246,1-1.167,1.6123-2.835,1.834l-17.33789,1.167h-.667q-2.50048,0-2.168-.833l.167-1.001a18.54771,18.54771,0,0,0,.167-2.834q0-7.667-4.585-12.16992-4.5879-4.50146-12.41993-4.50195a20.80316,20.80316,0,0,0-14.58789,5.418,21.78367,21.78367,0,0,0-6.91894,14.08789l-5.002,40.17871a18.36266,18.36266,0,0,0-.166,2.835q0,7.50147,4.501,12.00293,4.50146,4.50147,12.5039,4.502a20.68339,20.68339,0,0,0,14.50391-5.335,22.32753,22.32753,0,0,0,7.00293-14.00488q.331-1.99952,3.001-1.833l17.17188.833c1.77637.22461,2.667.5,2.667.834l-.167.833a42.23539,42.23539,0,0,1-24.09082,34.01074,51.5808,51.5808,0,0,1-22.58984,4.835Q4377.14063,3113.26979,4367.13965,3103.93385Z" transform="translate(0 -720.54005)"/><path class="20085871-5ce4-4595-84fe-1fbe61f657b9" d="M4520.6875,3109.60182l-2.668-15.50489q-.16845-.832-.833-.833h-39.67968a.92607.92607,0,0,0-1,.833l-6.502,15.50489a3.42518,3.42518,0,0,1-3.334,2.334H4447.832q-2.16943,0-2.168-1.834l.334-1.334,48.18066-111.20019a3.42634,3.42634,0,0,1,3.335-2.334h23.67383a2.64269,2.64269,0,0,1,2.834,2.334l20.83985,111.20019v.667a2.32323,2.32323,0,0,1-.75,1.834,2.7809,2.7809,0,0,1-1.918.667h-18.83887A2.42459,2.42459,0,0,1,4520.6875,3109.60182Zm-35.51074-34.51075h28.6748c.667,0,1-.38769,1-1.167l-8.335-50.84863c-.1123-.44336-.30762-.667-.584-.667-.27832,0-.52832.22363-.75.667l-20.67285,50.84863C4484.39746,3074.70338,4484.61914,3075.09107,4485.17676,3075.09107Z" transform="translate(0 -720.54005)"/><path class="20085871-5ce4-4595-84fe-1fbe61f657b9" d="M4618.88086,3109.76881l-14.33789-45.34766q0-.832-1-.833h-14.6709q-.83643,0-1.167,1l-5.335,44.51368a2.98293,2.98293,0,0,1-3.168,2.834h-17.33887q-2.66895,0-2.334-2.834l13.6709-111.20118q.33252-2.833,3.001-2.834h45.51367q14.16944,0,22.42383,8.08594,8.25292,8.08887,8.25293,21.75683,0,1.66847-.334,5.335a38.82268,38.82268,0,0,1-8.002,19.50586,34.64729,34.64729,0,0,1-16.50586,11.50391,1.01068,1.01068,0,0,0-.666.583.87436.87436,0,0,0,0,.75l15.6709,46.01465a2.896,2.896,0,0,1,.167,1.167,2.07568,2.07568,0,0,1-.667,1.5,2.47931,2.47931,0,0,1-1.834.667h-18.33886A3.0136,3.0136,0,0,1,4618.88086,3109.76881ZM4593.707,3016.4065l-3.50195,28.00879c0,.667.27637,1,.834,1h21.00684a17.44236,17.44236,0,0,0,12.50293-4.751,15.945,15.945,0,0,0,5.00195-12.08692,12.6418,12.6418,0,0,0-3.751-9.58691,13.76851,13.76851,0,0,0-9.91992-3.584H4594.707A.88363.88363,0,0,0,4593.707,3016.4065Z" transform="translate(0 -720.54005)"/><path class="20085871-5ce4-4595-84fe-1fbe61f657b9" d="M4658.89258,3109.10182l13.6709-111.03418q.33252-2.833,3.001-2.834h39.67871q16.66993,0,26.50782,8.252,9.835,8.25292,9.83691,22.09082,0,1.66845-.334,5.001l-5.668,46.01465a37.06991,37.06991,0,0,1-7.169,18.50488,39.785,39.785,0,0,1-15.75488,12.4209,52.11857,52.11857,0,0,1-21.75684,4.418h-39.67871Q4658.55762,3111.9358,4658.89258,3109.10182Zm25.8418-17.33887h19.50585a17.22635,17.22635,0,0,0,12.66993-5.168q5.16649-5.16651,6.33593-13.83789l4.834-38.34473a23.82467,23.82467,0,0,0,.167-3.168q0-7.33446-3.918-11.58691-3.91845-4.251-10.91992-4.251h-19.33887a.88363.88363,0,0,0-1,1l-9.16992,74.35645C4683.90039,3091.42994,4684.17676,3091.763,4684.73438,3091.763Z" transform="translate(0 -720.54005)"/><path class="20085871-5ce4-4595-84fe-1fbe61f657b9" d="M4758.75586,3109.10182l13.6709-111.03418q.33252-2.833,3.001-2.834h17.33887q2.833,0,2.334,2.834l-13.50391,111.03418a2.98293,2.98293,0,0,1-3.168,2.834h-17.33887Q4758.42091,3111.9358,4758.75586,3109.10182Z" transform="translate(0 -720.54005)"/><path class="20085871-5ce4-4595-84fe-1fbe61f657b9" d="M4813.35449,3104.01686q-10.25244-9.75294-10.25293-26.0918a46.23908,46.23908,0,0,1,.5-6.50195l4.335-35.67676a48.39887,48.39887,0,0,1,8.002-21.84082,44.66574,44.66574,0,0,1,16.75586-14.75391,49.54148,49.54148,0,0,1,22.92285-5.252q17.50635,0,27.75879,9.66992,10.2539,9.6709,10.25293,25.6748a43.7285,43.7285,0,0,1-.5,6.502l-4.334,35.67676a49.14989,49.14989,0,0,1-8.00293,22.09082,44.90621,44.90621,0,0,1-16.83887,14.92089,49.43274,49.43274,0,0,1-23.00683,5.335Q4823.60546,3113.76979,4813.35449,3104.01686Zm45.18067-16.25489q6.08349-5.83448,7.41894-15.50488l4.501-36.67773a27.21765,27.21765,0,0,0,.167-3.501q0-8.335-4.668-13.1709-4.66992-4.834-12.83691-4.835a20.8698,20.8698,0,0,0-15.00489,5.91894q-6.16992,5.91943-7.33593,15.5879l-4.501,36.67773a26.74706,26.74706,0,0,0-.167,3.501q0,8.17089,4.668,13.0039,4.66553,4.83691,12.6709,4.835A20.94815,20.94815,0,0,0,4858.53516,3087.762Z" transform="translate(0 -720.54005)"/><path class="20085871-5ce4-4595-84fe-1fbe61f657b9" d="M5027.665,2998.06764l-1.834,14.6709a2.86281,2.86281,0,0,1-3.167,2.835h-27.84179q-.83643,0-1.168,1l-11.33594,92.52832a2.86346,2.86346,0,0,1-3.168,2.834h-17.17187q-2.83741,0-2.501-2.834l11.33691-92.52832q.33252-1.0005-.834-1h-27.17481a2.27772,2.27772,0,0,1-1.917-.751,2.72789,2.72789,0,0,1-.417-2.084l1.834-14.6709q.33252-2.833,3.001-2.834h79.85742Q5027.99707,2995.23365,5027.665,2998.06764Z" transform="translate(0 -720.54005)"/><path class="20085871-5ce4-4595-84fe-1fbe61f657b9" d="M5087.84766,3109.76881l-14.33789-45.34766q0-.832-1-.833h-14.6709q-.83643,0-1.167,1l-5.335,44.51368a2.98292,2.98292,0,0,1-3.168,2.834h-17.33887q-2.669,0-2.334-2.834l13.6709-111.20118q.33252-2.833,3.001-2.834h45.51367q14.16943,0,22.42383,8.08594,8.25292,8.08887,8.25293,21.75683,0,1.66847-.334,5.335a38.82267,38.82267,0,0,1-8.00195,19.50586,34.64729,34.64729,0,0,1-16.50586,11.50391,1.01065,1.01065,0,0,0-.666.583.87436.87436,0,0,0,0,.75l15.67089,46.01465a2.89577,2.89577,0,0,1,.167,1.167,2.07565,2.07565,0,0,1-.667,1.5,2.47928,2.47928,0,0,1-1.834.667h-18.33887A3.01359,3.01359,0,0,1,5087.84766,3109.76881Zm-25.17383-93.36231-3.50195,28.00879c0,.667.27636,1,.834,1h21.00684a17.44234,17.44234,0,0,0,12.50292-4.751,15.945,15.945,0,0,0,5.002-12.08692,12.6418,12.6418,0,0,0-3.751-9.58691,13.76853,13.76853,0,0,0-9.91992-3.584h-21.17285A.88363.88363,0,0,0,5062.67383,3016.4065Z" transform="translate(0 -720.54005)"/><path class="20085871-5ce4-4595-84fe-1fbe61f657b9" d="M5200.04785,3109.60182l-2.668-15.50489q-.16845-.832-.833-.833h-39.67969a.92607.92607,0,0,0-1,.833l-6.502,15.50489a3.42518,3.42518,0,0,1-3.334,2.334h-18.83887q-2.16944,0-2.168-1.834l.334-1.334,48.18066-111.20019a3.42635,3.42635,0,0,1,3.335-2.334h23.67383a2.6427,2.6427,0,0,1,2.834,2.334l20.83984,111.20019v.667a2.32323,2.32323,0,0,1-.75,1.834,2.7809,2.7809,0,0,1-1.918.667h-18.83887A2.42459,2.42459,0,0,1,5200.04785,3109.60182Zm-35.51074-34.51075h28.6748c.667,0,1-.38769,1-1.167l-8.335-50.84863c-.1123-.44336-.30761-.667-.584-.667-.27832,0-.52832.22363-.75.667l-20.67285,50.84863C5163.75781,3074.70338,5163.97949,3075.09107,5164.53711,3075.09107Z" transform="translate(0 -720.54005)"/><path class="20085871-5ce4-4595-84fe-1fbe61f657b9" d="M5238.89062,3109.10182l13.6709-111.03418q.33252-2.833,3.001-2.834h17.33887q2.833,0,2.334,2.834l-13.5039,111.03418a2.98294,2.98294,0,0,1-3.168,2.834h-17.33887Q5238.55566,3111.9358,5238.89062,3109.10182Z" transform="translate(0 -720.54005)"/><path class="20085871-5ce4-4595-84fe-1fbe61f657b9" d="M5281.40234,3109.10182l13.6709-111.03418q.33252-2.833,3.001-2.834h16.67187a3.02151,3.02151,0,0,1,3.001,1.834l32.00977,69.35449c.22168.44531.44238.6123.667.5a1.20109,1.20109,0,0,0,.5-.834l8.33594-68.0205q.33252-2.833,3.001-2.834h17.00488q2.833,0,2.501,2.834l-13.6709,111.03418a2.98293,2.98293,0,0,1-3.168,2.834h-16.50488a3.20419,3.20419,0,0,1-3.001-2.001l-32.00977-70.0205q-.33545-.665-.667-.501a1.19282,1.19282,0,0,0-.5.834l-8.16895,68.8545a2.98293,2.98293,0,0,1-3.168,2.834h-17.17187Q5281.06738,3111.9358,5281.40234,3109.10182Z" transform="translate(0 -720.54005)"/><path class="20085871-5ce4-4595-84fe-1fbe61f657b9" d="M5387.76562,3109.10182l13.6709-111.03418q.33252-2.833,3.001-2.834h17.33887q2.833,0,2.334,2.834l-13.5039,111.03418a2.98294,2.98294,0,0,1-3.168,2.834h-17.33887Q5387.43066,3111.9358,5387.76562,3109.10182Z" transform="translate(0 -720.54005)"/><path class="20085871-5ce4-4595-84fe-1fbe61f657b9" d="M5430.27637,3109.10182l13.6709-111.03418q.33252-2.833,3.001-2.834h16.67188a3.02149,3.02149,0,0,1,3.001,1.834l32.00977,69.35449c.22168.44531.44238.6123.667.5a1.20105,1.20105,0,0,0,.5-.834l8.33594-68.0205q.33252-2.833,3.001-2.834h17.00488q2.833,0,2.501,2.834l-13.67089,111.03418a2.98294,2.98294,0,0,1-3.168,2.834h-16.50488a3.20419,3.20419,0,0,1-3.001-2.001l-32.00977-70.0205q-.33545-.665-.667-.501a1.19289,1.19289,0,0,0-.5.834l-8.16894,68.8545a2.98294,2.98294,0,0,1-3.168,2.834h-17.17188Q5429.9414,3111.9358,5430.27637,3109.10182Z" transform="translate(0 -720.54005)"/><path class="20085871-5ce4-4595-84fe-1fbe61f657b9" d="M5548.56055,3103.76686q-10.08986-9.50391-10.08692-25.34082a42.9267,42.9267,0,0,1,.334-6.16895l4.668-37.34473a48.18517,48.18517,0,0,1,7.835-21.50683,42.686,42.686,0,0,1,16.50586-14.4209,49.99312,49.99312,0,0,1,22.67285-5.085,43.83756,43.83756,0,0,1,19.83984,4.251,31.35194,31.35194,0,0,1,13.08692,11.75391,31.96259,31.96259,0,0,1,4.585,17.00488,45.60072,45.60072,0,0,1-.333,4.66895v.333a2.98227,2.98227,0,0,1-3.168,2.834h-17.33887a3.90087,3.90087,0,0,1-1.917-.417c-.5-.27539-.69531-.583-.584-.917l.167-1.167a12.72249,12.72249,0,0,0,.167-2.334,15.30153,15.30153,0,0,0-4.50195-11.41992q-4.5-4.415-12.50293-4.418a20.44436,20.44436,0,0,0-14.58789,5.585,23.49211,23.49211,0,0,0-7.08594,14.58789l-4.668,38.67871a19.66727,19.66727,0,0,0-.167,3.001,16.48556,16.48556,0,0,0,4.918,12.41992q4.916,4.752,12.7539,4.752,8.50342,0,14.00489-4.585,5.502-4.58349,6.50195-12.7539l1-7.33594q0-.999-.833-1H5582.6543q-2.8374,0-2.335-2.834l1.668-13.67089q.33107-2.833,3.001-2.834H5622.833q2.833,0,2.501,2.834l-2.668,21.17285q-2.33643,19.1748-15.0879,30.17578-12.75438,11.00391-31.75976,11.00391Q5558.646,3113.26979,5548.56055,3103.76686Z" transform="translate(0 -720.54005)"/></svg>