<svg id="53e33800-7d31-4885-b8b7-d03c20861d8e" data-name="Layer 1" xmlns="http://www.w3.org/2000/svg" viewBox="0 0 285.19243 89.53857"><defs><style>.\35 344901c-c9cb-4f57-84c5-aa8264b6ab93{fill:#00e8e8;}.\34 c813f64-5ae6-43b2-955c-4fc4c224769d{fill:#333;}</style></defs><title>getrid</title><path class="5344901c-c9cb-4f57-84c5-aa8264b6ab93" d="M578.9375,202.89844a9.80741,9.80741,0,0,1-2.895-7.45459,13.76767,13.76767,0,0,1,.09082-1.82373l1.04883-8.61719a14.32539,14.32539,0,0,1,2.30225-6.292,12.44547,12.44547,0,0,1,4.78759-4.21729,14.43746,14.43746,0,0,1,6.58789-1.48144,12.83533,12.83533,0,0,1,5.76758,1.23095,9.18351,9.18351,0,0,1,3.83008,3.39649,8.94351,8.94351,0,0,1,1.34473,4.81006q0,.36548-.09082,1.27685a.80748.80748,0,0,1-.29639.52442.94168.94168,0,0,1-.61572.20507h-6.61084q-.86646,0-.77539-.228v-.18262a3.18546,3.18546,0,0,0-3.41944-3.69287,4.13512,4.13512,0,0,0-3.00879,1.208,5.157,5.157,0,0,0-1.459,3.21435l-1.09424,9.11865a3.413,3.413,0,0,0-.0459.63868,3.69678,3.69678,0,0,0,1.04883,2.73535,3.63888,3.63888,0,0,0,2.68994,1.04883,4.33144,4.33144,0,0,0,2.80371-.93506,3.67428,3.67428,0,0,0,1.34522-2.57569l.04541-.456v-.09131q0-.2732-.31885-.27344h-3.55615a.71271.71271,0,0,1-.59278-.228.83711.83711,0,0,1-.13671-.63819l.59228-5.10644a.92762.92762,0,0,1,.31934-.63819.96675.96675,0,0,1,.63818-.228h11.21631a.72839.72839,0,0,1,.56982.228.7861.7861,0,0,1,.15967.63819l-.77539,6.064a13.09528,13.09528,0,0,1-2.25684,6.01807,12.52885,12.52885,0,0,1-4.78711,4.10351,14.513,14.513,0,0,1-6.543,1.459A10.9927,10.9927,0,0,1,578.9375,202.89844Z" transform="translate(-542.2719 -171.01221)"/><path class="5344901c-c9cb-4f57-84c5-aa8264b6ab93" d="M626.605,180.71729H613.70215a.40686.40686,0,0,0-.41016.36474l-.50146,4.01221c0,.24365.106.36474.31885.36474h7.88769a.72768.72768,0,0,1,.56982.228.7861.7861,0,0,1,.15967.63819l-.68408,5.5625a.89363.89363,0,0,1-.957.86621h-7.8877a.32219.32219,0,0,0-.36474.36474l-.54737,4.46826v.09082a.242.242,0,0,0,.27344.27393h12.94873a.72838.72838,0,0,1,.56983.228.78606.78606,0,0,1,.15966.63818l-.68408,5.60791a.92614.92614,0,0,1-.31884.63818.96638.96638,0,0,1-.63868.228H602.85107a.7133.7133,0,0,1-.59277-.228.83922.83922,0,0,1-.13672-.63818l3.69287-30.18262a.89463.89463,0,0,1,.95752-.86621h20.74512a.72969.72969,0,0,1,.56982.22754.78722.78722,0,0,1,.15967.63867l-.68408,5.60791A.89405.89405,0,0,1,626.605,180.71729Z" transform="translate(-542.2719 -171.01221)"/><path class="5344901c-c9cb-4f57-84c5-aa8264b6ab93" d="M654.66748,173.60449a.78725.78725,0,0,1,.15967.63867l-.68408,5.65332a.89378.89378,0,0,1-.95752.86622h-7.11231a.40725.40725,0,0,0-.41015.36474l-2.87256,23.29834a.97659.97659,0,0,1-.29639.63818.88094.88094,0,0,1-.61572.228h-6.65625a.71268.71268,0,0,1-.59278-.228.83708.83708,0,0,1-.13671-.63818l2.87207-23.29834c0-.24267-.10694-.36474-.31885-.36474h-6.88477q-.86644,0-.7749-.86622l.72949-5.65332a.96991.96991,0,0,1,.29639-.63867.88126.88126,0,0,1,.61523-.22754h23.07032A.72971.72971,0,0,1,654.66748,173.60449Z" transform="translate(-542.2719 -171.01221)"/><path class="5344901c-c9cb-4f57-84c5-aa8264b6ab93" d="M677.94189,204.65381l-3.41943-11.353q-.04614-.2732-.41064-.27344H672.562c-.27392,0-.41064.12207-.41064.36475l-1.36768,11.03369a.97425.97425,0,0,1-.29639.63818.944.944,0,0,1-.66113.228h-6.61084a.71329.71329,0,0,1-.59277-.228.83922.83922,0,0,1-.13672-.63818l3.69287-30.18262a.89463.89463,0,0,1,.95752-.86621H680.3584a9.00727,9.00727,0,0,1,6.51953,2.3252,8.32152,8.32152,0,0,1,2.417,6.2915q0,.4563-.0918,1.5503a10.73507,10.73507,0,0,1-2.02832,5.19775,10.06711,10.06711,0,0,1-4.30908,3.32812.3451.3451,0,0,0-.22754.45606l3.96631,11.76318a1.014,1.014,0,0,1,.0459.31885q0,.68408-.77539.68408h-7.06689A.77584.77584,0,0,1,677.94189,204.65381ZM673.65625,181.082l-.63867,5.061c0,.24365.10644.36474.31933.36474h4.01221a3.7332,3.7332,0,0,0,2.57617-.91211,3.02255,3.02255,0,0,0,1.02588-2.3706,2.28309,2.28309,0,0,0-.79785-1.82373,3.07717,3.07717,0,0,0-2.07471-.68408h-4.0122A.40686.40686,0,0,0,673.65625,181.082Z" transform="translate(-542.2719 -171.01221)"/><path class="5344901c-c9cb-4f57-84c5-aa8264b6ab93" d="M689.84082,205.064a.84345.84345,0,0,1-.13672-.63818l3.69336-30.18262a.89424.89424,0,0,1,.958-.86621h6.61035a.71731.71731,0,0,1,.59277.22754.84518.84518,0,0,1,.13672.63867l-3.69238,30.18262a.97693.97693,0,0,1-.29688.63818.94313.94313,0,0,1-.66113.228h-6.61133A.71458.71458,0,0,1,689.84082,205.064Z" transform="translate(-542.2719 -171.01221)"/><path class="5344901c-c9cb-4f57-84c5-aa8264b6ab93" d="M701.60352,205.064a.84337.84337,0,0,1-.13672-.63818l3.69336-30.18262a.89423.89423,0,0,1,.958-.86621h11.16993a14.15619,14.15619,0,0,1,5.79,1.09424,8.71041,8.71041,0,0,1,3.80762,3.1001,8.24309,8.24309,0,0,1,1.34473,4.69629q0,.4563-.09082,1.36767l-1.36817,11.39844a10.5899,10.5899,0,0,1-2.18847,5.37988,12.06,12.06,0,0,1-4.71875,3.60205,15.94333,15.94333,0,0,1-6.49707,1.27637h-11.1709A.71457.71457,0,0,1,701.60352,205.064Zm9.02832-7.38623a.24177.24177,0,0,0,.27343.27393h3.69239a3.41853,3.41853,0,0,0,2.57617-1.2085,5.94316,5.94316,0,0,0,1.43652-3.16845l1.04883-8.48047a5.59719,5.59719,0,0,0,.04492-.8208,3.86139,3.86139,0,0,0-.82031-2.59864,2.78965,2.78965,0,0,0-2.23438-.95751h-3.60156a.40684.40684,0,0,0-.41015.36474l-2.00586,16.50488Z" transform="translate(-542.2719 -171.01221)"/><path class="5344901c-c9cb-4f57-84c5-aa8264b6ab93" d="M743.57129,204.5625a9.13107,9.13107,0,0,1-3.83008-3.602,10.73617,10.73617,0,0,1-1.34473-5.47119,13.26776,13.26776,0,0,1,.13672-1.86914l1.04883-8.57129a14.15282,14.15282,0,0,1,2.3252-6.292,12.70518,12.70518,0,0,1,4.85547-4.24024,14.63522,14.63522,0,0,1,6.67968-1.50439,13.00712,13.00712,0,0,1,5.88184,1.25341,9.02416,9.02416,0,0,1,3.85254,3.55665,10.53032,10.53032,0,0,1,1.34472,5.40283,12.96959,12.96959,0,0,1-.13671,1.82373l-1.04883,8.57129a13.862,13.862,0,0,1-2.30274,6.40576,12.95226,12.95226,0,0,1-4.90039,4.28564,14.599,14.599,0,0,1-6.70312,1.52735A12.66739,12.66739,0,0,1,743.57129,204.5625Zm9.917-7.31787a5.33594,5.33594,0,0,0,1.50391-3.35108l1.09472-8.936a5.56765,5.56765,0,0,0,.0459-.8208,3.87992,3.87992,0,0,0-.958-2.7583,3.44128,3.44128,0,0,0-2.64453-1.02588,4.25972,4.25972,0,0,0-3.10058,1.25391,5.33436,5.33436,0,0,0-1.50391,3.35107l-1.09473,8.936a5.46279,5.46279,0,0,0-.04492.82081,3.87707,3.87707,0,0,0,.957,2.7583,3.38284,3.38284,0,0,0,2.59864,1.02588A4.31549,4.31549,0,0,0,753.48828,197.24463Z" transform="translate(-542.2719 -171.01221)"/><path class="5344901c-c9cb-4f57-84c5-aa8264b6ab93" d="M789.50586,180.71729H776.64844a.40686.40686,0,0,0-.41016.36474l-.502,4.01221c0,.24365.10644.36474.31933.36474h7.8877a.72877.72877,0,0,1,.57031.228.7843.7843,0,0,1,.15918.63819l-.68359,5.5625a.89447.89447,0,0,1-.958.86621h-7.8877a.322.322,0,0,0-.36425.36474l-1.41309,11.30713a.977.977,0,0,1-.29687.63818.94317.94317,0,0,1-.66114.228h-6.61132a.71459.71459,0,0,1-.59278-.228.84345.84345,0,0,1-.13672-.63818l3.69336-30.18262a.89424.89424,0,0,1,.958-.86621H790.418a.72931.72931,0,0,1,.56933.22754.78907.78907,0,0,1,.16016.63867l-.68457,5.60791A.89363.89363,0,0,1,789.50586,180.71729Z" transform="translate(-542.2719 -171.01221)"/><path class="5344901c-c9cb-4f57-84c5-aa8264b6ab93" d="M567.562,228.31641a.78724.78724,0,0,1,.15967.63867l-.68408,5.65332a.89377.89377,0,0,1-.95752.86621h-7.11231a.40725.40725,0,0,0-.41015.36475l-2.87256,23.29834a.97659.97659,0,0,1-.29639.63818.881.881,0,0,1-.61572.228H548.1167a.71268.71268,0,0,1-.59277-.228.83714.83714,0,0,1-.13672-.63818l2.87207-23.29834c0-.24268-.10694-.36475-.31885-.36475h-6.88477q-.86644,0-.7749-.86621l.72949-5.65332a.96989.96989,0,0,1,.29639-.63867.88126.88126,0,0,1,.61524-.22754h23.07031A.72971.72971,0,0,1,567.562,228.31641Z" transform="translate(-542.2719 -171.01221)"/><path class="5344901c-c9cb-4f57-84c5-aa8264b6ab93" d="M571.84766,259.27441a9.12963,9.12963,0,0,1-3.82959-3.602,10.73128,10.73128,0,0,1-1.34522-5.47119,13.26776,13.26776,0,0,1,.13672-1.86914l1.04883-8.57129a14.15872,14.15872,0,0,1,2.32519-6.292,12.70675,12.70675,0,0,1,4.856-4.24023,14.63323,14.63323,0,0,1,6.6792-1.5044,13.00489,13.00489,0,0,1,5.88135,1.25342,9.01587,9.01587,0,0,1,3.85254,3.55664,10.521,10.521,0,0,1,1.34521,5.40283,12.89645,12.89645,0,0,1-.13672,1.82373L591.6123,248.332a13.87229,13.87229,0,0,1-2.30224,6.40576,12.95155,12.95155,0,0,1-4.90137,4.28565,14.59509,14.59509,0,0,1-6.70215,1.52734A12.66663,12.66663,0,0,1,571.84766,259.27441Zm9.9165-7.31787a5.33925,5.33925,0,0,0,1.50488-3.35107l1.09424-8.936a5.51382,5.51382,0,0,0,.04541-.8208,3.88187,3.88187,0,0,0-.95752-2.7583,3.43985,3.43985,0,0,0-2.64453-1.02588,4.25864,4.25864,0,0,0-3.1001,1.25391,5.32973,5.32973,0,0,0-1.50439,3.35107l-1.09424,8.936a5.36973,5.36973,0,0,0-.0459.8208,3.87947,3.87947,0,0,0,.95752,2.7583,3.38137,3.38137,0,0,0,2.59863,1.02588A4.31354,4.31354,0,0,0,581.76416,251.95654Z" transform="translate(-542.2719 -171.01221)"/><path class="5344901c-c9cb-4f57-84c5-aa8264b6ab93" d="M590.97412,259.50244a1.15254,1.15254,0,0,1,.18262-.54736l9.71142-14.68067a.47407.47407,0,0,0,.04541-.456l-6.064-14.68115a1.43619,1.43619,0,0,1-.09131-.41016q0-.63793.77539-.63818h7.249a.938.938,0,0,1,.91211.63818l3.19141,8.29785c.06055.12207.12891.18262.20508.18262.07568,0,.144-.06055.20557-.18262l5.24316-8.29785a1.14768,1.14768,0,0,1,1.04834-.63818h7.2041q.63794,0,.63818.45556a1.21216,1.21216,0,0,1-.18261.59278l-9.62012,14.68115a.4128.4128,0,0,0-.09131.456l6.064,14.68067a1.45967,1.45967,0,0,1,.0913.41064q0,.63867-.8208.63819h-7.1582a.93592.93592,0,0,1-.91162-.63819l-3.19141-8.29785c-.06152-.12109-.13672-.18262-.228-.18262s-.16748.06153-.228.18262l-5.28906,8.29785a1.14736,1.14736,0,0,1-1.04834.63819h-7.20362C591.18652,260.00391,590.97412,259.8374,590.97412,259.50244Z" transform="translate(-542.2719 -171.01221)"/><path class="5344901c-c9cb-4f57-84c5-aa8264b6ab93" d="M620.7915,259.77588a.8392.8392,0,0,1-.13671-.63818l3.69287-30.18262a.89462.89462,0,0,1,.95752-.86621H631.916a.716.716,0,0,1,.59277.22754.84525.84525,0,0,1,.13672.63867l-3.69287,30.18262a.97434.97434,0,0,1-.29639.63818.944.944,0,0,1-.66113.228h-6.61084A.71335.71335,0,0,1,620.7915,259.77588Z" transform="translate(-542.2719 -171.01221)"/><path class="5344901c-c9cb-4f57-84c5-aa8264b6ab93" d="M636.11084,257.65576a9.45085,9.45085,0,0,1-2.918-7.272,12.681,12.681,0,0,1,.09131-1.77832l1.13965-9.20947a13.20706,13.20706,0,0,1,2.25683-6.10987,12.54538,12.54538,0,0,1,4.7876-4.103,14.61742,14.61742,0,0,1,6.58789-1.459,11.79025,11.79025,0,0,1,8.002,2.55322,8.65333,8.65333,0,0,1,2.94043,6.88428q0,.4563-.09083,1.55029,0,.41016-.8208.50147l-6.70214.45605h-.228c-.42627,0-.63819-.07568-.63819-.228l.04541-.27344a3.83678,3.83678,0,0,0,.04542-.68408,3.15422,3.15422,0,0,0-3.41944-3.41944,4.23408,4.23408,0,0,0-2.98633,1.11719,4.68427,4.68427,0,0,0-1.436,2.98633l-1.18555,9.80224a3.75745,3.75745,0,0,0-.04541.68409,3.2785,3.2785,0,0,0,.93457,2.46191,3.40258,3.40258,0,0,0,2.48486.91211,4.15087,4.15087,0,0,0,2.96338-1.11719,4.69653,4.69653,0,0,0,1.41358-2.94092.59611.59611,0,0,1,.31933-.3872.99218.99218,0,0,1,.63819-.11426l6.61084.36475c.5166.06152.77539.13671.77539.228l-.0459.228a12.09184,12.09184,0,0,1-6.99854,9.68848,15.21288,15.21288,0,0,1-6.58837,1.39062A11.18775,11.18775,0,0,1,636.11084,257.65576Z" transform="translate(-542.2719 -171.01221)"/><path class="5344901c-c9cb-4f57-84c5-aa8264b6ab93" d="M692.32617,230.48242a8.55993,8.55993,0,0,1,2.50781,6.49707,10.47444,10.47444,0,0,1-.09082,1.59571,11.41145,11.41145,0,0,1-2.02929,5.37988,11.22285,11.22285,0,0,1-4.28614,3.602,13.204,13.204,0,0,1-5.85839,1.27637h-4.55957a.40726.40726,0,0,0-.41016.36474l-1.231,9.93946a.97662.97662,0,0,1-.29638.63818.944.944,0,0,1-.66114.228h-6.61084a.71269.71269,0,0,1-.59277-.228.83714.83714,0,0,1-.13672-.63818l3.69287-30.18262a.89436.89436,0,0,1,.95752-.86621H685.4873A9.49565,9.49565,0,0,1,692.32617,230.48242Zm-6.99805,10.48633a3.39156,3.39156,0,0,0,1.16211-2.667,2.64181,2.64181,0,0,0-.88867-2.09766,3.51864,3.51864,0,0,0-2.394-.7749h-3.55615a.40686.40686,0,0,0-.41016.36475l-.72949,5.83593c0,.24366.106.36475.31885.36475h3.60205A4.21791,4.21791,0,0,0,685.32812,240.96875Z" transform="translate(-542.2719 -171.01221)"/><path class="5344901c-c9cb-4f57-84c5-aa8264b6ab93" d="M719.22559,235.4292H706.32227a.40686.40686,0,0,0-.41016.36475l-.50195,4.0122c0,.24365.10644.36475.31933.36475h7.8877a.72874.72874,0,0,1,.57031.228.78426.78426,0,0,1,.15918.63818l-.68359,5.5625a.89446.89446,0,0,1-.958.86621h-7.8877a.32205.32205,0,0,0-.36426.36475l-.54687,4.46826v.09082a.24177.24177,0,0,0,.27344.27392h12.94824a.73016.73016,0,0,1,.57031.228.78426.78426,0,0,1,.15918.63819l-.68359,5.60791a.92856.92856,0,0,1-.31934.63818.9664.9664,0,0,1-.63867.228H695.4707a.71461.71461,0,0,1-.59277-.228.84347.84347,0,0,1-.13672-.63818l3.69336-30.18262a.89423.89423,0,0,1,.958-.86621h20.74414a.73009.73009,0,0,1,.57031.22754.7854.7854,0,0,1,.15918.63867l-.68359,5.60791A.89363.89363,0,0,1,719.22559,235.4292Z" transform="translate(-542.2719 -171.01221)"/><path class="5344901c-c9cb-4f57-84c5-aa8264b6ab93" d="M725.9043,259.27441a9.13088,9.13088,0,0,1-3.83008-3.602,10.736,10.736,0,0,1-1.34473-5.47119,13.26776,13.26776,0,0,1,.13672-1.86914l1.04883-8.57129a14.15285,14.15285,0,0,1,2.32519-6.292,12.7053,12.7053,0,0,1,4.85547-4.24023,14.6353,14.6353,0,0,1,6.67969-1.5044,13.007,13.007,0,0,1,5.88184,1.25342,9.02419,9.02419,0,0,1,3.85254,3.55664,10.53047,10.53047,0,0,1,1.34472,5.40283,12.96955,12.96955,0,0,1-.13672,1.82373L745.669,248.332a13.862,13.862,0,0,1-2.30274,6.40576,12.95229,12.95229,0,0,1-4.90039,4.28565,14.59917,14.59917,0,0,1-6.70312,1.52734A12.66739,12.66739,0,0,1,725.9043,259.27441Zm9.917-7.31787a5.33591,5.33591,0,0,0,1.50391-3.35107l1.09472-8.936a5.56746,5.56746,0,0,0,.0459-.8208,3.88,3.88,0,0,0-.958-2.7583,3.44129,3.44129,0,0,0-2.64453-1.02588,4.25972,4.25972,0,0,0-3.10058,1.25391,5.33438,5.33438,0,0,0-1.50391,3.35107l-1.09473,8.936a5.46264,5.46264,0,0,0-.04492.8208,3.877,3.877,0,0,0,.957,2.7583,3.3828,3.3828,0,0,0,2.59863,1.02588A4.31545,4.31545,0,0,0,735.82129,251.95654Z" transform="translate(-542.2719 -171.01221)"/><path class="5344901c-c9cb-4f57-84c5-aa8264b6ab93" d="M771.51953,230.48242a8.55993,8.55993,0,0,1,2.50781,6.49707,10.47444,10.47444,0,0,1-.09082,1.59571,11.41145,11.41145,0,0,1-2.02929,5.37988,11.22285,11.22285,0,0,1-4.28614,3.602,13.204,13.204,0,0,1-5.85839,1.27637h-4.55958a.40725.40725,0,0,0-.41015.36474l-1.23145,9.93946a.97162.97162,0,0,1-.2959.63818.94317.94317,0,0,1-.66113.228h-6.61133a.71333.71333,0,0,1-.59277-.228.84347.84347,0,0,1-.13672-.63818l3.69336-30.18262a.89394.89394,0,0,1,.957-.86621h12.7666A9.49565,9.49565,0,0,1,771.51953,230.48242Zm-6.99805,10.48633a3.39156,3.39156,0,0,0,1.16211-2.667,2.64181,2.64181,0,0,0-.88867-2.09766,3.51817,3.51817,0,0,0-2.39355-.7749h-3.55664a.40686.40686,0,0,0-.41016.36475l-.72949,5.83593c0,.24366.10547.36475.31933.36475H761.626A4.21877,4.21877,0,0,0,764.52148,240.96875Z" transform="translate(-542.2719 -171.01221)"/><path class="5344901c-c9cb-4f57-84c5-aa8264b6ab93" d="M774.07227,259.77588a.84339.84339,0,0,1-.13672-.63818l3.69336-30.18262a.89422.89422,0,0,1,.958-.86621h6.61036a.71732.71732,0,0,1,.59277.22754.84525.84525,0,0,1,.13672.63867l-2.82617,23.34375v.09082a.24177.24177,0,0,0,.27343.27392h13.3584a.7161.7161,0,0,1,.59278.228.844.844,0,0,1,.13671.63819l-.68359,5.60791a.977.977,0,0,1-.29687.63818.94156.94156,0,0,1-.66114.228H774.665A.7146.7146,0,0,1,774.07227,259.77588Z" transform="translate(-542.2719 -171.01221)"/><path class="5344901c-c9cb-4f57-84c5-aa8264b6ab93" d="M823.81445,235.4292H810.91113a.40684.40684,0,0,0-.41015.36475l-.502,4.0122c0,.24365.10645.36475.31934.36475h7.88769a.72875.72875,0,0,1,.57032.228.78426.78426,0,0,1,.15918.63818l-.6836,5.5625a.89445.89445,0,0,1-.958.86621h-7.8877a.32205.32205,0,0,0-.36426.36475l-.54687,4.46826v.09082a.24177.24177,0,0,0,.27343.27392H821.7168a.73018.73018,0,0,1,.57031.228.7843.7843,0,0,1,.15918.63819l-.68359,5.60791a.92856.92856,0,0,1-.31934.63818.96642.96642,0,0,1-.63867.228H800.05957a.7146.7146,0,0,1-.59277-.228.84339.84339,0,0,1-.13672-.63818l3.69336-30.18262a.89423.89423,0,0,1,.958-.86621h20.74414a.73009.73009,0,0,1,.57031.22754.7854.7854,0,0,1,.15918.63867l-.6836,5.60791A.89363.89363,0,0,1,823.81445,235.4292Z" transform="translate(-542.2719 -171.01221)"/><path class="4c813f64-5ae6-43b2-955c-4fc4c224769d" d="M580.938,200.89844a9.80737,9.80737,0,0,1-2.895-7.45459,13.76593,13.76593,0,0,1,.09082-1.82373l1.04883-8.61719a14.3255,14.3255,0,0,1,2.30224-6.292,12.44557,12.44557,0,0,1,4.7876-4.21729,14.43746,14.43746,0,0,1,6.58789-1.48144,12.83533,12.83533,0,0,1,5.76758,1.23095,9.18351,9.18351,0,0,1,3.83008,3.39649,8.94359,8.94359,0,0,1,1.34472,4.81006q0,.36548-.09082,1.27685a.80742.80742,0,0,1-.29638.52442.94169.94169,0,0,1-.61573.20507H596.189q-.86644,0-.77539-.228v-.18262a3.18545,3.18545,0,0,0-3.41943-3.69287,4.1351,4.1351,0,0,0-3.00879,1.208,5.157,5.157,0,0,0-1.459,3.21435l-1.09424,9.11865a3.413,3.413,0,0,0-.0459.63868,3.69678,3.69678,0,0,0,1.04883,2.73535,3.63888,3.63888,0,0,0,2.68994,1.04883,4.33144,4.33144,0,0,0,2.80371-.93506,3.67432,3.67432,0,0,0,1.34522-2.57569l.04541-.456v-.09131q0-.2732-.31885-.27344h-3.55615a.71271.71271,0,0,1-.59278-.228.83716.83716,0,0,1-.13672-.63819l.59229-5.10644a.92765.92765,0,0,1,.31933-.63819.96679.96679,0,0,1,.63819-.228H602.481a.72839.72839,0,0,1,.56982.228.78614.78614,0,0,1,.15967.63819l-.77539,6.064a13.09528,13.09528,0,0,1-2.25684,6.01807,12.52885,12.52885,0,0,1-4.78711,4.10351,14.51312,14.51312,0,0,1-6.543,1.459A10.99268,10.99268,0,0,1,580.938,200.89844Z" transform="translate(-542.2719 -171.01221)"/><path class="4c813f64-5ae6-43b2-955c-4fc4c224769d" d="M628.60547,178.71729H615.70264a.40686.40686,0,0,0-.41016.36474l-.50146,4.01221c0,.24365.106.36474.31884.36474h7.8877a.7277.7277,0,0,1,.56982.228.7861.7861,0,0,1,.15967.63819l-.68408,5.5625a.89363.89363,0,0,1-.957.86621h-7.8877a.32219.32219,0,0,0-.36474.36474l-.54737,4.46826v.09082a.242.242,0,0,0,.27344.27393H626.5083a.72834.72834,0,0,1,.56982.228.78607.78607,0,0,1,.15967.63818l-.68408,5.60791a.92611.92611,0,0,1-.31885.63818.96633.96633,0,0,1-.63867.228H604.85156a.71329.71329,0,0,1-.59277-.228.83922.83922,0,0,1-.13672-.63818l3.69287-30.18262a.89463.89463,0,0,1,.95752-.86621h20.74512a.72971.72971,0,0,1,.56982.22754.78722.78722,0,0,1,.15967.63867l-.68408,5.60791A.89405.89405,0,0,1,628.60547,178.71729Z" transform="translate(-542.2719 -171.01221)"/><path class="4c813f64-5ae6-43b2-955c-4fc4c224769d" d="M656.66748,171.60449a.78725.78725,0,0,1,.15967.63867l-.68408,5.65332a.89378.89378,0,0,1-.95752.86622h-7.11231a.40725.40725,0,0,0-.41015.36474l-2.87256,23.29834a.97659.97659,0,0,1-.29639.63818.88094.88094,0,0,1-.61572.228h-6.65625a.71268.71268,0,0,1-.59278-.228.83708.83708,0,0,1-.13671-.63818l2.87207-23.29834c0-.24267-.10694-.36474-.31885-.36474h-6.88477q-.86644,0-.7749-.86622l.72949-5.65332a.96991.96991,0,0,1,.29639-.63867.88126.88126,0,0,1,.61523-.22754h23.07032A.72971.72971,0,0,1,656.66748,171.60449Z" transform="translate(-542.2719 -171.01221)"/><path class="4c813f64-5ae6-43b2-955c-4fc4c224769d" d="M679.94238,202.65381l-3.41943-11.353q-.04614-.2732-.41065-.27344h-1.5498c-.27393,0-.41064.12207-.41064.36475l-1.36768,11.03369a.97425.97425,0,0,1-.29639.63818.944.944,0,0,1-.66113.228h-6.61084a.71329.71329,0,0,1-.59277-.228.83918.83918,0,0,1-.13672-.63818l3.69287-30.18262a.89463.89463,0,0,1,.95752-.86621h13.22217a9.00927,9.00927,0,0,1,6.52,2.3252,8.32094,8.32094,0,0,1,2.416,6.2915q0,.4563-.0918,1.5503a10.734,10.734,0,0,1-2.02734,5.19775,10.07441,10.07441,0,0,1-4.30859,3.32812.34629.34629,0,0,0-.22852.45606l3.9668,11.76318a1.04462,1.04462,0,0,1,.04492.31885q0,.68408-.77539.68408h-7.06641A.77584.77584,0,0,1,679.94238,202.65381ZM675.65674,179.082l-.63867,5.061c0,.24365.10644.36474.31933.36474h4.01221a3.7332,3.7332,0,0,0,2.57617-.91211,3.02255,3.02255,0,0,0,1.02588-2.3706,2.28309,2.28309,0,0,0-.79785-1.82373,3.07717,3.07717,0,0,0-2.07471-.68408h-4.01221A.40685.40685,0,0,0,675.65674,179.082Z" transform="translate(-542.2719 -171.01221)"/><path class="4c813f64-5ae6-43b2-955c-4fc4c224769d" d="M691.84082,203.064a.84345.84345,0,0,1-.13672-.63818l3.69336-30.18262a.89424.89424,0,0,1,.958-.86621h6.61035a.71731.71731,0,0,1,.59277.22754.84518.84518,0,0,1,.13672.63867l-3.69238,30.18262a.97693.97693,0,0,1-.29688.63818.94313.94313,0,0,1-.66113.228h-6.61133A.71458.71458,0,0,1,691.84082,203.064Z" transform="translate(-542.2719 -171.01221)"/><path class="4c813f64-5ae6-43b2-955c-4fc4c224769d" d="M703.60352,203.064a.84337.84337,0,0,1-.13672-.63818l3.69336-30.18262a.89423.89423,0,0,1,.958-.86621h11.16993a14.15619,14.15619,0,0,1,5.79,1.09424,8.71041,8.71041,0,0,1,3.80762,3.1001,8.24309,8.24309,0,0,1,1.34473,4.69629q0,.4563-.09082,1.36767l-1.36817,11.39844a10.5899,10.5899,0,0,1-2.18847,5.37988,12.06,12.06,0,0,1-4.71875,3.60205,15.94333,15.94333,0,0,1-6.49707,1.27637h-11.1709A.71457.71457,0,0,1,703.60352,203.064Zm9.02832-7.38623a.24177.24177,0,0,0,.27343.27393h3.69239a3.41853,3.41853,0,0,0,2.57617-1.2085,5.94316,5.94316,0,0,0,1.43652-3.16845l1.04883-8.48047a5.59719,5.59719,0,0,0,.04492-.8208,3.86139,3.86139,0,0,0-.82031-2.59864,2.78965,2.78965,0,0,0-2.23438-.95751h-3.60156a.40684.40684,0,0,0-.41015.36474l-2.00586,16.50488Z" transform="translate(-542.2719 -171.01221)"/><path class="4c813f64-5ae6-43b2-955c-4fc4c224769d" d="M745.57227,202.5625a9.131,9.131,0,0,1-3.83008-3.602,10.73607,10.73607,0,0,1-1.34473-5.47119,13.26776,13.26776,0,0,1,.13672-1.86914l1.04883-8.57129a14.15281,14.15281,0,0,1,2.32519-6.292,12.70533,12.70533,0,0,1,4.85547-4.24024,14.63529,14.63529,0,0,1,6.67969-1.50439,13.00715,13.00715,0,0,1,5.88184,1.25341,9.02419,9.02419,0,0,1,3.85253,3.55665,10.53032,10.53032,0,0,1,1.34473,5.40283,12.96966,12.96966,0,0,1-.13672,1.82373l-1.04883,8.57129a13.86183,13.86183,0,0,1-2.30273,6.40576,12.95226,12.95226,0,0,1-4.90039,4.28564,14.59909,14.59909,0,0,1-6.70313,1.52735A12.66737,12.66737,0,0,1,745.57227,202.5625Zm9.917-7.31787a5.33593,5.33593,0,0,0,1.5039-3.35108l1.09473-8.936a5.56765,5.56765,0,0,0,.0459-.8208,3.88,3.88,0,0,0-.958-2.7583,3.44129,3.44129,0,0,0-2.64453-1.02588,4.25976,4.25976,0,0,0-3.10059,1.25391,5.33435,5.33435,0,0,0-1.5039,3.35107l-1.09473,8.936a5.46279,5.46279,0,0,0-.04492.82081,3.87707,3.87707,0,0,0,.957,2.7583,3.3828,3.3828,0,0,0,2.59863,1.02588A4.31549,4.31549,0,0,0,755.48926,195.24463Z" transform="translate(-542.2719 -171.01221)"/><path class="4c813f64-5ae6-43b2-955c-4fc4c224769d" d="M791.50684,178.71729H778.64941a.40684.40684,0,0,0-.41015.36474l-.502,4.01221c0,.24365.10645.36474.31934.36474h7.8877a.72877.72877,0,0,1,.57031.228.7843.7843,0,0,1,.15918.63819l-.6836,5.5625a.89445.89445,0,0,1-.958.86621h-7.8877a.322.322,0,0,0-.36426.36474l-1.41308,11.30713a.977.977,0,0,1-.29688.63818.94313.94313,0,0,1-.66113.228h-6.61133a.71457.71457,0,0,1-.59277-.228.84341.84341,0,0,1-.13672-.63818l3.69336-30.18262a.89424.89424,0,0,1,.958-.86621H792.419a.72934.72934,0,0,1,.56933.22754.7891.7891,0,0,1,.16016.63867l-.68457,5.60791A.89363.89363,0,0,1,791.50684,178.71729Z" transform="translate(-542.2719 -171.01221)"/><path class="4c813f64-5ae6-43b2-955c-4fc4c224769d" d="M569.5625,226.31641a.78724.78724,0,0,1,.15967.63867l-.68408,5.65332a.89377.89377,0,0,1-.95752.86621h-7.11231a.40725.40725,0,0,0-.41015.36475l-2.87256,23.29834a.97663.97663,0,0,1-.29639.63818.881.881,0,0,1-.61572.228h-6.65625a.71271.71271,0,0,1-.59278-.228.8371.8371,0,0,1-.13671-.63818l2.87207-23.29834c0-.24268-.10694-.36475-.31885-.36475h-6.88477q-.86644,0-.7749-.86621l.72949-5.65332a.96989.96989,0,0,1,.29639-.63867.88126.88126,0,0,1,.61523-.22754h23.07032A.72971.72971,0,0,1,569.5625,226.31641Z" transform="translate(-542.2719 -171.01221)"/><path class="4c813f64-5ae6-43b2-955c-4fc4c224769d" d="M573.84814,257.27441a9.12975,9.12975,0,0,1-3.82959-3.602,10.73138,10.73138,0,0,1-1.34521-5.47119,13.26776,13.26776,0,0,1,.13672-1.86914l1.04883-8.57129a14.15872,14.15872,0,0,1,2.32519-6.292,12.70675,12.70675,0,0,1,4.856-4.24023,14.63318,14.63318,0,0,1,6.6792-1.5044,13.00489,13.00489,0,0,1,5.88135,1.25342,9.01579,9.01579,0,0,1,3.85253,3.55664,10.52092,10.52092,0,0,1,1.34522,5.40283,12.89645,12.89645,0,0,1-.13672,1.82373l-1.04883,8.57129a13.87229,13.87229,0,0,1-2.30224,6.40576,12.95155,12.95155,0,0,1-4.90137,4.28565,14.59509,14.59509,0,0,1-6.70215,1.52734A12.66668,12.66668,0,0,1,573.84814,257.27441Zm9.91651-7.31787a5.3393,5.3393,0,0,0,1.50488-3.35107l1.09424-8.936a5.5152,5.5152,0,0,0,.04541-.8208,3.88191,3.88191,0,0,0-.95752-2.7583,3.43985,3.43985,0,0,0-2.64453-1.02588,4.25864,4.25864,0,0,0-3.1001,1.25391,5.32968,5.32968,0,0,0-1.50439,3.35107l-1.09424,8.936a5.36973,5.36973,0,0,0-.0459.8208,3.87947,3.87947,0,0,0,.95752,2.7583,3.38136,3.38136,0,0,0,2.59863,1.02588A4.31355,4.31355,0,0,0,583.76465,249.95654Z" transform="translate(-542.2719 -171.01221)"/><path class="4c813f64-5ae6-43b2-955c-4fc4c224769d" d="M592.97461,257.50244a1.15254,1.15254,0,0,1,.18262-.54736l9.71142-14.68067a.47407.47407,0,0,0,.04541-.456l-6.064-14.68115a1.43619,1.43619,0,0,1-.09131-.41016q0-.63793.77539-.63818h7.249a.938.938,0,0,1,.91211.63818l3.19141,8.29785c.06055.12207.1289.18262.20508.18262.07568,0,.144-.06055.20556-.18262l5.24317-8.29785a1.14768,1.14768,0,0,1,1.04834-.63818h7.2041q.63793,0,.63818.45556a1.21216,1.21216,0,0,1-.18261.59278l-9.62012,14.68115a.41278.41278,0,0,0-.09131.456l6.064,14.68067a1.45941,1.45941,0,0,1,.09131.41064q0,.63867-.8208.63819h-7.1582a.93592.93592,0,0,1-.91162-.63819l-3.19141-8.29785c-.06152-.12109-.13672-.18262-.228-.18262s-.16748.06153-.228.18262l-5.28907,8.29785a1.14734,1.14734,0,0,1-1.04834.63819h-7.20361C593.187,258.00391,592.97461,257.8374,592.97461,257.50244Z" transform="translate(-542.2719 -171.01221)"/><path class="4c813f64-5ae6-43b2-955c-4fc4c224769d" d="M622.79248,257.77588a.83924.83924,0,0,1-.13672-.63818l3.69287-30.18262a.89463.89463,0,0,1,.95752-.86621H633.917a.71605.71605,0,0,1,.59278.22754.84521.84521,0,0,1,.13671.63867l-3.69287,30.18262a.97433.97433,0,0,1-.29638.63818.944.944,0,0,1-.66114.228h-6.61084A.71333.71333,0,0,1,622.79248,257.77588Z" transform="translate(-542.2719 -171.01221)"/><path class="4c813f64-5ae6-43b2-955c-4fc4c224769d" d="M638.11133,255.65576a9.45085,9.45085,0,0,1-2.918-7.272,12.681,12.681,0,0,1,.09131-1.77832l1.13965-9.20947a13.20706,13.20706,0,0,1,2.25683-6.10987,12.54538,12.54538,0,0,1,4.7876-4.103,14.61742,14.61742,0,0,1,6.58789-1.459,11.79024,11.79024,0,0,1,8.00195,2.55322,8.6533,8.6533,0,0,1,2.94043,6.88428q0,.4563-.09082,1.55029,0,.41016-.8208.50147l-6.70215.45605h-.228c-.42627,0-.63819-.07568-.63819-.228l.04541-.27344a3.837,3.837,0,0,0,.04541-.68408,3.15421,3.15421,0,0,0-3.41943-3.41944,4.23408,4.23408,0,0,0-2.98633,1.11719,4.68427,4.68427,0,0,0-1.436,2.98633l-1.18555,9.80224a3.75745,3.75745,0,0,0-.04541.68409,3.27847,3.27847,0,0,0,.93457,2.46191,3.40258,3.40258,0,0,0,2.48486.91211,4.15088,4.15088,0,0,0,2.96338-1.11719,4.69653,4.69653,0,0,0,1.41358-2.94092.59608.59608,0,0,1,.31933-.3872.99217.99217,0,0,1,.63819-.11426l6.61084.36475c.5166.06152.77539.13671.77539.228l-.0459.228a12.09184,12.09184,0,0,1-6.99854,9.68848,15.213,15.213,0,0,1-6.58838,1.39062A11.18773,11.18773,0,0,1,638.11133,255.65576Z" transform="translate(-542.2719 -171.01221)"/><path class="4c813f64-5ae6-43b2-955c-4fc4c224769d" d="M694.32617,228.48242a8.55993,8.55993,0,0,1,2.50781,6.49707,10.47444,10.47444,0,0,1-.09082,1.59571,11.41145,11.41145,0,0,1-2.02929,5.37988,11.22285,11.22285,0,0,1-4.28614,3.602,13.204,13.204,0,0,1-5.85839,1.27637h-4.55957a.40726.40726,0,0,0-.41016.36474l-1.231,9.93946a.97662.97662,0,0,1-.29638.63818.944.944,0,0,1-.66114.228h-6.61084a.71269.71269,0,0,1-.59277-.228.83714.83714,0,0,1-.13672-.63818l3.69287-30.18262a.89436.89436,0,0,1,.95752-.86621H687.4873A9.49565,9.49565,0,0,1,694.32617,228.48242Zm-6.99805,10.48633a3.39156,3.39156,0,0,0,1.16211-2.667,2.64181,2.64181,0,0,0-.88867-2.09766,3.51817,3.51817,0,0,0-2.39355-.7749h-3.55664a.40686.40686,0,0,0-.41016.36475l-.72949,5.83593c0,.24366.106.36475.31885.36475h3.60205A4.21877,4.21877,0,0,0,687.32812,238.96875Z" transform="translate(-542.2719 -171.01221)"/><path class="4c813f64-5ae6-43b2-955c-4fc4c224769d" d="M721.22656,233.4292H708.32324a.40684.40684,0,0,0-.41015.36475l-.502,4.0122c0,.24365.10645.36475.31934.36475h7.88769a.72875.72875,0,0,1,.57032.228.78426.78426,0,0,1,.15918.63818l-.6836,5.5625a.89445.89445,0,0,1-.958.86621h-7.88769a.32205.32205,0,0,0-.36426.36475l-.54687,4.46826v.09082a.24177.24177,0,0,0,.27343.27392h12.94825a.73018.73018,0,0,1,.57031.228.7843.7843,0,0,1,.15918.63819l-.6836,5.60791a.92855.92855,0,0,1-.31933.63818.96642.96642,0,0,1-.63867.228H697.47168a.7146.7146,0,0,1-.59277-.228.84339.84339,0,0,1-.13672-.63818l3.69336-30.18262a.89422.89422,0,0,1,.958-.86621H722.1377a.73009.73009,0,0,1,.57031.22754.7854.7854,0,0,1,.15918.63867l-.6836,5.60791A.89363.89363,0,0,1,721.22656,233.4292Z" transform="translate(-542.2719 -171.01221)"/><path class="4c813f64-5ae6-43b2-955c-4fc4c224769d" d="M727.9043,257.27441a9.13088,9.13088,0,0,1-3.83008-3.602,10.736,10.736,0,0,1-1.34473-5.47119,13.26776,13.26776,0,0,1,.13672-1.86914l1.04883-8.57129a14.15285,14.15285,0,0,1,2.32519-6.292,12.7053,12.7053,0,0,1,4.85547-4.24023,14.6353,14.6353,0,0,1,6.67969-1.5044,13.007,13.007,0,0,1,5.88184,1.25342,9.02419,9.02419,0,0,1,3.85254,3.55664,10.53047,10.53047,0,0,1,1.34472,5.40283,12.96955,12.96955,0,0,1-.13672,1.82373L747.669,246.332a13.862,13.862,0,0,1-2.30274,6.40576,12.95229,12.95229,0,0,1-4.90039,4.28565,14.59917,14.59917,0,0,1-6.70312,1.52734A12.66739,12.66739,0,0,1,727.9043,257.27441Zm9.917-7.31787a5.33591,5.33591,0,0,0,1.50391-3.35107l1.09472-8.936a5.56746,5.56746,0,0,0,.0459-.8208,3.88,3.88,0,0,0-.958-2.7583,3.44129,3.44129,0,0,0-2.64453-1.02588,4.25972,4.25972,0,0,0-3.10058,1.25391,5.33438,5.33438,0,0,0-1.50391,3.35107l-1.09473,8.936a5.46264,5.46264,0,0,0-.04492.8208,3.877,3.877,0,0,0,.957,2.7583,3.3828,3.3828,0,0,0,2.59863,1.02588A4.31545,4.31545,0,0,0,737.82129,249.95654Z" transform="translate(-542.2719 -171.01221)"/><path class="4c813f64-5ae6-43b2-955c-4fc4c224769d" d="M773.52051,228.48242a8.55993,8.55993,0,0,1,2.50781,6.49707,10.47444,10.47444,0,0,1-.09082,1.59571,11.41135,11.41135,0,0,1-2.0293,5.37988,11.22282,11.22282,0,0,1-4.28613,3.602,13.204,13.204,0,0,1-5.8584,1.27637H759.2041a.40725.40725,0,0,0-.41015.36474l-1.23145,9.93946a.97166.97166,0,0,1-.2959.63818.94317.94317,0,0,1-.66113.228h-6.61133a.71332.71332,0,0,1-.59277-.228.84343.84343,0,0,1-.13672-.63818l3.69336-30.18262a.89393.89393,0,0,1,.957-.86621h12.7666A9.49566,9.49566,0,0,1,773.52051,228.48242Zm-6.998,10.48633a3.39156,3.39156,0,0,0,1.16211-2.667,2.64185,2.64185,0,0,0-.88867-2.09766,3.51821,3.51821,0,0,0-2.39356-.7749H760.8457a.40684.40684,0,0,0-.41015.36475l-.7295,5.83593c0,.24366.10547.36475.31934.36475H763.627A4.21878,4.21878,0,0,0,766.52246,238.96875Z" transform="translate(-542.2719 -171.01221)"/><path class="4c813f64-5ae6-43b2-955c-4fc4c224769d" d="M776.07227,257.77588a.84339.84339,0,0,1-.13672-.63818l3.69336-30.18262a.89422.89422,0,0,1,.958-.86621h6.61036a.71732.71732,0,0,1,.59277.22754.84525.84525,0,0,1,.13672.63867l-2.82617,23.34375v.09082a.24177.24177,0,0,0,.27343.27392h13.3584a.7161.7161,0,0,1,.59278.228.844.844,0,0,1,.13671.63819l-.68359,5.60791a.977.977,0,0,1-.29687.63818.94156.94156,0,0,1-.66114.228H776.665A.7146.7146,0,0,1,776.07227,257.77588Z" transform="translate(-542.2719 -171.01221)"/><path class="4c813f64-5ae6-43b2-955c-4fc4c224769d" d="M825.81543,233.4292H812.91211a.40686.40686,0,0,0-.41016.36475L812,237.80615c0,.24365.10645.36475.31934.36475H820.207a.72872.72872,0,0,1,.57031.228.78423.78423,0,0,1,.15918.63818l-.68359,5.5625a.89446.89446,0,0,1-.958.86621h-7.88769a.322.322,0,0,0-.36426.36475l-.54688,4.46826v.09082a.24177.24177,0,0,0,.27344.27392h12.94824a.73019.73019,0,0,1,.57032.228.78433.78433,0,0,1,.15918.63819l-.6836,5.60791a.92859.92859,0,0,1-.31933.63818.96643.96643,0,0,1-.63868.228H802.06055a.71462.71462,0,0,1-.59278-.228.84347.84347,0,0,1-.13672-.63818l3.69336-30.18262a.89423.89423,0,0,1,.958-.86621h20.74414a.73009.73009,0,0,1,.57032.22754.7854.7854,0,0,1,.15917.63867l-.68359,5.60791A.89363.89363,0,0,1,825.81543,233.4292Z" transform="translate(-542.2719 -171.01221)"/></svg>