<svg id="Layer_1" data-name="Layer 1" xmlns="http://www.w3.org/2000/svg" viewBox="0 0 856.78 117.33"><defs><style>.cls-1{fill:#3c3c3b;}.cls-2{fill:#00e8e8;}.cls-3{fill:#e71d73;}</style></defs><title>increasedec</title><path class="cls-1" d="M176.8,220.25a.66.66,0,0,1-.12-.55L180,191.86a1,1,0,0,1,.86-.94l6-1.16a.54.54,0,0,1,.53.1.66.66,0,0,1,.12.55l-3.32,27.83a1.07,1.07,0,0,1-.27.63,1,1,0,0,1-.6.32l-5.95,1.16A.57.57,0,0,1,176.8,220.25Z" transform="translate(-166.88 -127.66)"/><path class="cls-1" d="M187.4,218.19a.66.66,0,0,1-.12-.55l3.32-27.84a1,1,0,0,1,.87-.94l5.7-1.11a.72.72,0,0,1,.87.36l6.2,12.39a.16.16,0,0,0,.2.13c.11,0,.18-.13.21-.33l1.56-13.53a1,1,0,0,1,.86-1l6-1.16a.54.54,0,0,1,.51.1.63.63,0,0,1,.15.55l-3.37,27.84a1.13,1.13,0,0,1-.27.63,1,1,0,0,1-.55.31l-5.75,1.12a.72.72,0,0,1-.87-.37l-6.16-12.64c0-.13-.12-.18-.2-.17s-.15.13-.21.33l-1.6,13.83a.94.94,0,0,1-.86.94l-6,1.16A.54.54,0,0,1,187.4,218.19Z" transform="translate(-166.88 -127.66)"/><path class="cls-1" d="M216.81,210.56c-1.76-1.29-2.63-3.3-2.63-6a10.93,10.93,0,0,1,.08-1.61l1-8.5a14.18,14.18,0,0,1,2-5.9,15,15,0,0,1,4.31-4.53,15.65,15.65,0,0,1,5.94-2.47c3-.59,5.44-.29,7.2.9s2.65,3.08,2.65,5.68c0,.28,0,.75-.08,1.42,0,.24-.25.44-.74.59l-6,1.59-.2,0c-.39.07-.58,0-.58-.1l0-.25a3.29,3.29,0,0,0,0-.62,2.53,2.53,0,0,0-.82-2.1,2.66,2.66,0,0,0-2.25-.39,4.78,4.78,0,0,0-2.7,1.53,5.33,5.33,0,0,0-1.29,2.94l-1.07,9a4.49,4.49,0,0,0,0,.63,2.44,2.44,0,0,0,.84,2.05,2.67,2.67,0,0,0,2.24.39,4.64,4.64,0,0,0,2.67-1.53,5.19,5.19,0,0,0,1.27-2.89A.73.73,0,0,1,229,200a1,1,0,0,1,.58-.21l5.95-.83c.47,0,.7,0,.7.07l0,.21a13.44,13.44,0,0,1-2,5.61,14.78,14.78,0,0,1-4.29,4.34,16.22,16.22,0,0,1-5.94,2.41Q219.44,212.49,216.81,210.56Z" transform="translate(-166.88 -127.66)"/><path class="cls-1" d="M251.67,205.33l-3.08-9.63c0-.16-.15-.22-.37-.18l-1.39.28a.38.38,0,0,0-.37.4l-1.23,10.17a1.07,1.07,0,0,1-.27.63,1,1,0,0,1-.6.32l-6,1.16a.57.57,0,0,1-.54-.1.66.66,0,0,1-.12-.55L241.08,180a1,1,0,0,1,.86-1l11.91-2.31q3.69-.72,5.87,1a6.22,6.22,0,0,1,2.18,5.25c0,.27,0,.74-.08,1.41a11.72,11.72,0,0,1-1.83,5,12.09,12.09,0,0,1-3.88,3.75.38.38,0,0,0-.21.45l3.58,9.9a1.11,1.11,0,0,1,0,.28c0,.41-.24.66-.7.75l-6.37,1.24Q251.79,205.87,251.67,205.33Zm-3.86-20.49-.57,4.67c0,.22.09.31.28.28l3.62-.71a4.14,4.14,0,0,0,2.32-1.27,3.32,3.32,0,0,0,.92-2.31,1.68,1.68,0,0,0-.72-1.51,2.45,2.45,0,0,0-1.86-.25l-3.62.7A.48.48,0,0,0,247.81,184.84Z" transform="translate(-166.88 -127.66)"/><path class="cls-1" d="M284.32,177.42l-11.62,2.26a.46.46,0,0,0-.37.4l-.45,3.7c0,.22.09.31.29.27l7.1-1.38a.54.54,0,0,1,.51.11.6.6,0,0,1,.15.54l-.62,5.13a1,1,0,0,1-.86,1l-7.11,1.38a.37.37,0,0,0-.32.4l-.5,4.12v.08c0,.16.09.23.25.2l11.66-2.27a.6.6,0,0,1,.52.1.63.63,0,0,1,.14.55l-.62,5.17a1,1,0,0,1-.28.64,1.14,1.14,0,0,1-.58.31l-18.69,3.63a.54.54,0,0,1-.53-.1.65.65,0,0,1-.12-.55l3.32-27.83a1,1,0,0,1,.87-.95l18.68-3.63a.57.57,0,0,1,.52.1.62.62,0,0,1,.14.55l-.61,5.17A1,1,0,0,1,284.32,177.42Z" transform="translate(-166.88 -127.66)"/><path class="cls-1" d="M302.93,195.28l-.46-2.87a.19.19,0,0,0-.1-.18.29.29,0,0,0-.22,0l-8.26,1.6a.66.66,0,0,0-.41.37l-1.15,3.18a1.15,1.15,0,0,1-.9.83l-6.49,1.27c-.39.07-.58-.06-.58-.39a1.08,1.08,0,0,1,.08-.42l11.63-29.45a1.14,1.14,0,0,1,.9-.83l8.21-1.6a.56.56,0,0,1,.74.51l5,26.23v.16a.84.84,0,0,1-.78.89l-6.44,1.25C303.2,195.89,303,195.71,302.93,195.28Zm-6.9-8.1q0,.28.24.24l4.93-1a.42.42,0,0,0,.27-.16.28.28,0,0,0,.06-.28l-1.36-9.22c0-.13-.09-.19-.18-.17s-.17.1-.23.25L296,187.09Z" transform="translate(-166.88 -127.66)"/><path class="cls-1" d="M314.43,191.86a5.8,5.8,0,0,1-2.67-5.32c0-.24,0-.65.08-1.21l.08-.42a1.13,1.13,0,0,1,.27-.63,1,1,0,0,1,.55-.31l5.88-1.14c.51-.1.75,0,.69.27l0,.46a1.87,1.87,0,0,0,.91,1.84,3.58,3.58,0,0,0,2.79.36,3.72,3.72,0,0,0,2.3-1.19,2.73,2.73,0,0,0,.7-1.65,1.06,1.06,0,0,0-.76-1.09,14.45,14.45,0,0,0-2.65-.47l-1.11-.15a15.39,15.39,0,0,1-5.85-1.8c-1.58-.91-2.36-2.5-2.36-4.78a10.22,10.22,0,0,1,1.53-5.39A13.61,13.61,0,0,1,319,165a16,16,0,0,1,5.81-2.37,11.75,11.75,0,0,1,5.16,0,6.3,6.3,0,0,1,3.55,2.24,6.6,6.6,0,0,1,1.28,4.13c0,.25,0,.65-.09,1.21l0,.21a1.19,1.19,0,0,1-.26.63,1,1,0,0,1-.56.31l-5.87,1.14c-.52.1-.76,0-.7-.19l0-.34a2.3,2.3,0,0,0-.84-2.07,3.18,3.18,0,0,0-2.77-.47,4.43,4.43,0,0,0-2.18,1,2.33,2.33,0,0,0-.82,1.78,1.44,1.44,0,0,0,1.09,1.37,21.14,21.14,0,0,0,4.12.86c.22,0,1.06.16,2.53.35a6.48,6.48,0,0,1,3.68,1.71,5,5,0,0,1,1.47,3.8,10.51,10.51,0,0,1-1.54,5.52,13.48,13.48,0,0,1-4.27,4.34,16.94,16.94,0,0,1-6.14,2.44Q317.1,193.52,314.43,191.86Z" transform="translate(-166.88 -127.66)"/><path class="cls-1" d="M357.22,163.25l-11.62,2.26a.45.45,0,0,0-.37.4l-.45,3.7c0,.22.09.31.28.27l7.11-1.38a.54.54,0,0,1,.51.11.63.63,0,0,1,.15.54l-.62,5.13a1,1,0,0,1-.86.95l-7.11,1.38a.37.37,0,0,0-.33.4l-.49,4.12v.08c0,.16.08.23.25.2l11.66-2.27a.54.54,0,0,1,.51.11.6.6,0,0,1,.15.54l-.62,5.17a1,1,0,0,1-.29.64,1.07,1.07,0,0,1-.57.31l-18.69,3.63a.54.54,0,0,1-.53-.1.65.65,0,0,1-.12-.55l3.32-27.83a1,1,0,0,1,.86-.95L358,156.48a.54.54,0,0,1,.51.1.63.63,0,0,1,.15.55l-.62,5.17A1,1,0,0,1,357.22,163.25Z" transform="translate(-166.88 -127.66)"/><path class="cls-1" d="M360.92,182.82a5.79,5.79,0,0,1-2.67-5.31,12,12,0,0,1,.08-1.21l.08-.43a1.07,1.07,0,0,1,.27-.62.94.94,0,0,1,.55-.32l5.87-1.14c.52-.1.76,0,.7.27l0,.46a1.87,1.87,0,0,0,.91,1.84,3.58,3.58,0,0,0,2.79.36,3.72,3.72,0,0,0,2.3-1.18,2.78,2.78,0,0,0,.7-1.66,1,1,0,0,0-.76-1.08,12.88,12.88,0,0,0-2.65-.47l-1.11-.16a15.21,15.21,0,0,1-5.85-1.8c-1.58-.91-2.36-2.5-2.36-4.77a10.15,10.15,0,0,1,1.54-5.4,13.47,13.47,0,0,1,4.18-4.26,16,16,0,0,1,5.82-2.36,11.72,11.72,0,0,1,5.15,0,6.27,6.27,0,0,1,3.55,2.25,6.57,6.57,0,0,1,1.28,4.12c0,.25,0,.65-.09,1.21l0,.22a1,1,0,0,1-.27.62.93.93,0,0,1-.55.31l-5.87,1.15c-.52.1-.76,0-.7-.2l0-.33a2.31,2.31,0,0,0-.84-2.08,3.18,3.18,0,0,0-2.77-.46,4.34,4.34,0,0,0-2.18,1,2.35,2.35,0,0,0-.82,1.79,1.44,1.44,0,0,0,1.09,1.37,21.94,21.94,0,0,0,4.12.86l2.53.35a6.35,6.35,0,0,1,3.68,1.71,5,5,0,0,1,1.47,3.79,10.48,10.48,0,0,1-1.54,5.52,13.38,13.38,0,0,1-4.27,4.34,17,17,0,0,1-6.14,2.45Q363.58,184.47,360.92,182.82Z" transform="translate(-166.88 -127.66)"/><polygon class="cls-2" points="222.84 12.86 0 56.18 0 51.35 222.84 8.03 222.84 12.86"/><polygon class="cls-3" points="194.25 8.76 27.55 41.16 27.55 36.34 194.25 3.93 194.25 8.76"/><polygon class="cls-2" points="133.49 10.91 50.79 26.99 50.79 22.16 133.49 6.08 133.49 10.91"/><polygon class="cls-3" points="115.1 4.83 78.23 12 78.23 7.17 115.1 0 115.1 4.83"/><polygon class="cls-2" points="0 104.47 222.84 61.16 222.84 65.98 0 109.3 0 104.47"/><polygon class="cls-3" points="28.6 108.57 195.29 76.17 195.29 81 28.6 113.4 28.6 108.57"/><polygon class="cls-2" points="89.36 106.42 172.06 90.34 172.06 95.17 89.36 111.25 89.36 106.42"/><polygon class="cls-3" points="107.75 112.5 144.61 105.34 144.61 110.17 107.75 117.33 107.75 112.5"/><path class="cls-1" d="M805.49,221.27a.65.65,0,0,1-.13-.55l3.33-27.83a1,1,0,0,1,.86-.95l10.06-2a12.07,12.07,0,0,1,5.22,0,6,6,0,0,1,3.43,2.13,6.34,6.34,0,0,1,1.21,4c0,.28,0,.69-.08,1.25l-1.23,10.51a11.52,11.52,0,0,1-2,5.23,14.39,14.39,0,0,1-4.25,4.07,16.87,16.87,0,0,1-5.85,2.29l-10.06,2C805.77,221.42,805.59,221.39,805.49,221.27Zm8.13-8.23c0,.16.08.23.24.19l3.33-.64a3.86,3.86,0,0,0,2.32-1.54,6.6,6.6,0,0,0,1.29-3.11l1-7.82a4.77,4.77,0,0,0,0-.75,2.94,2.94,0,0,0-.74-2.19,2.14,2.14,0,0,0-2-.48l-3.25.64a.47.47,0,0,0-.37.4L813.62,213Z" transform="translate(-166.88 -127.66)"/><path class="cls-1" d="M852,190.29l-11.63,2.26a.49.49,0,0,0-.37.4l-.45,3.71c0,.22.1.31.29.27l7.1-1.38a.6.6,0,0,1,.52.1.63.63,0,0,1,.14.55l-.61,5.13a1,1,0,0,1-.87.95l-7.1,1.38a.36.36,0,0,0-.33.39l-.49,4.12v.09c0,.16.08.23.24.19l11.67-2.26a.54.54,0,0,1,.51.1.63.63,0,0,1,.14.55l-.61,5.17a1.09,1.09,0,0,1-.29.63,1.06,1.06,0,0,1-.57.32l-18.69,3.63a.57.57,0,0,1-.54-.1.7.7,0,0,1-.12-.55l3.33-27.84a1,1,0,0,1,.86-.94l18.69-3.64a.57.57,0,0,1,.51.11.61.61,0,0,1,.14.55l-.61,5.17A1,1,0,0,1,852,190.29Z" transform="translate(-166.88 -127.66)"/><path class="cls-1" d="M856,209.54q-2.62-1.93-2.63-6a12.84,12.84,0,0,1,.08-1.62l1-8.49a14.41,14.41,0,0,1,2-5.9,15,15,0,0,1,4.32-4.53,15.39,15.39,0,0,1,5.93-2.47q4.56-.88,7.21.9a6.37,6.37,0,0,1,2.65,5.68c0,.28,0,.75-.08,1.42,0,.24-.25.44-.74.59l-6,1.59-.21,0c-.38.07-.57,0-.57-.1l0-.25a3.34,3.34,0,0,0,0-.63,2.55,2.55,0,0,0-.82-2.1,2.68,2.68,0,0,0-2.26-.38,4.76,4.76,0,0,0-2.69,1.53,5.14,5.14,0,0,0-1.29,2.94l-1.07,9a3.29,3.29,0,0,0,0,.62,2.45,2.45,0,0,0,.84,2.06,2.63,2.63,0,0,0,2.24.38,4.61,4.61,0,0,0,2.67-1.52,5.29,5.29,0,0,0,1.27-2.9.7.7,0,0,1,.29-.4,1,1,0,0,1,.57-.22l6-.83c.46,0,.7,0,.7.07l0,.22a13.08,13.08,0,0,1-2,5.6,14.57,14.57,0,0,1-4.29,4.35,16.1,16.1,0,0,1-5.93,2.41Q858.62,211.47,856,209.54Z" transform="translate(-166.88 -127.66)"/><path class="cls-1" d="M890.87,204.3l-3.08-9.62c0-.16-.15-.22-.37-.18l-1.4.27a.4.4,0,0,0-.37.4l-1.23,10.18a1.13,1.13,0,0,1-.27.63,1,1,0,0,1-.59.32l-6,1.16a.56.56,0,0,1-.53-.1.66.66,0,0,1-.12-.55L880.27,179a1,1,0,0,1,.86-.95L893,175.71q3.71-.72,5.88.95t2.17,5.25c0,.27,0,.74-.08,1.41a11.63,11.63,0,0,1-1.83,5,12,12,0,0,1-3.88,3.76.37.37,0,0,0-.2.45l3.57,9.9a.79.79,0,0,1,0,.28c0,.41-.23.66-.7.75l-6.36,1.24C891.21,204.81,891,204.67,890.87,204.3ZM887,183.82l-.58,4.67c0,.22.1.31.29.28l3.61-.71a4.11,4.11,0,0,0,2.32-1.27,3.31,3.31,0,0,0,.93-2.32,1.67,1.67,0,0,0-.72-1.5,2.43,2.43,0,0,0-1.87-.25l-3.61.7A.46.46,0,0,0,887,183.82Z" transform="translate(-166.88 -127.66)"/><path class="cls-1" d="M923.52,176.4l-11.63,2.26a.47.47,0,0,0-.37.4l-.45,3.7c0,.22.1.31.29.27l7.1-1.38a.59.59,0,0,1,.52.1.63.63,0,0,1,.14.55l-.61,5.13a1,1,0,0,1-.87.95l-7.1,1.38a.37.37,0,0,0-.33.39l-.49,4.12v.09c0,.16.08.23.24.2l11.67-2.27a.57.57,0,0,1,.51.1.66.66,0,0,1,.15.55l-.62,5.17a1.09,1.09,0,0,1-.29.63,1,1,0,0,1-.57.32l-18.69,3.63a.53.53,0,0,1-.53-.1.69.69,0,0,1-.13-.55l3.33-27.83a1,1,0,0,1,.86-1l18.69-3.63a.54.54,0,0,1,.51.1.65.65,0,0,1,.15.55l-.62,5.17A1,1,0,0,1,923.52,176.4Z" transform="translate(-166.88 -127.66)"/><path class="cls-1" d="M942.12,194.26l-.45-2.87a.21.21,0,0,0-.1-.18.27.27,0,0,0-.23,0l-8.26,1.6a.63.63,0,0,0-.41.37l-1.15,3.18a1.14,1.14,0,0,1-.9.83l-6.49,1.26c-.38.08-.57,0-.57-.38a.93.93,0,0,1,.08-.42l11.62-29.45a1.16,1.16,0,0,1,.91-.83l8.21-1.6a.56.56,0,0,1,.74.51l5,26.22v.17a.84.84,0,0,1-.78.89l-6.45,1.25C942.39,194.86,942.15,194.69,942.12,194.26Zm-6.9-8.11c0,.2.08.28.25.25l4.93-1a.48.48,0,0,0,.26-.16.28.28,0,0,0,.06-.28l-1.35-9.22c0-.13-.09-.19-.19-.17a.33.33,0,0,0-.22.25l-3.74,10.21Z" transform="translate(-166.88 -127.66)"/><path class="cls-1" d="M953.62,190.83a5.77,5.77,0,0,1-2.67-5.31c0-.25,0-.65.08-1.21l.09-.42a1,1,0,0,1,.26-.63,1,1,0,0,1,.56-.31l5.87-1.14c.52-.11.75,0,.7.27l0,.46a1.86,1.86,0,0,0,.9,1.84,3.59,3.59,0,0,0,2.79.36,3.75,3.75,0,0,0,2.3-1.19,2.67,2.67,0,0,0,.7-1.65,1.05,1.05,0,0,0-.76-1.09,14.45,14.45,0,0,0-2.65-.47l-1.11-.15a15.5,15.5,0,0,1-5.85-1.8c-1.57-.91-2.36-2.51-2.36-4.78a10.11,10.11,0,0,1,1.54-5.39,13.64,13.64,0,0,1,4.19-4.27,16,16,0,0,1,5.81-2.36,11.7,11.7,0,0,1,5.15,0,6.33,6.33,0,0,1,3.56,2.24A6.6,6.6,0,0,1,974,168c0,.25,0,.65-.08,1.21l0,.21a1.13,1.13,0,0,1-.27.63,1,1,0,0,1-.56.31l-5.87,1.14c-.52.1-.75,0-.7-.19l.05-.34a2.26,2.26,0,0,0-.85-2.07,3.17,3.17,0,0,0-2.77-.47,4.48,4.48,0,0,0-2.18,1,2.37,2.37,0,0,0-.82,1.78,1.45,1.45,0,0,0,1.09,1.37,22.1,22.1,0,0,0,4.13.86c.22,0,1.06.16,2.52.35a6.45,6.45,0,0,1,3.68,1.71,5,5,0,0,1,1.48,3.8,10.51,10.51,0,0,1-1.54,5.52,13.58,13.58,0,0,1-4.27,4.34,17,17,0,0,1-6.14,2.44C957.79,192.2,955.4,191.94,953.62,190.83Z" transform="translate(-166.88 -127.66)"/><path class="cls-1" d="M996.41,162.23l-11.62,2.26a.47.47,0,0,0-.37.4l-.45,3.7c0,.22.1.31.29.27l7.1-1.38a.57.57,0,0,1,.52.11.6.6,0,0,1,.14.54l-.62,5.13a1,1,0,0,1-.86,1l-7.1,1.38a.37.37,0,0,0-.33.39l-.49,4.12v.09c0,.16.08.23.24.2l11.66-2.27a.59.59,0,0,1,.52.1.63.63,0,0,1,.14.55l-.61,5.17a1.09,1.09,0,0,1-.87.95L975,188.52a.55.55,0,0,1-.54-.1.65.65,0,0,1-.12-.55L977.69,160a1,1,0,0,1,.86-.95l18.69-3.63a.55.55,0,0,1,.51.1.62.62,0,0,1,.14.55l-.61,5.17A1,1,0,0,1,996.41,162.23Z" transform="translate(-166.88 -127.66)"/><path class="cls-1" d="M1000.11,181.8a5.8,5.8,0,0,1-2.67-5.32c0-.24,0-.64.08-1.2l.09-.43a1.06,1.06,0,0,1,.26-.63,1,1,0,0,1,.56-.31l5.87-1.14c.52-.1.75,0,.7.27l0,.46a1.88,1.88,0,0,0,.9,1.84,3.59,3.59,0,0,0,2.79.36,3.7,3.7,0,0,0,2.3-1.19,2.67,2.67,0,0,0,.7-1.65,1.05,1.05,0,0,0-.76-1.09,14.45,14.45,0,0,0-2.65-.47l-1.11-.15a15.5,15.5,0,0,1-5.85-1.8q-2.35-1.36-2.36-4.78a10.14,10.14,0,0,1,1.54-5.39,13.5,13.5,0,0,1,4.19-4.26,15.91,15.91,0,0,1,5.81-2.36,11.57,11.57,0,0,1,5.15,0,6.29,6.29,0,0,1,3.56,2.25,6.57,6.57,0,0,1,1.27,4.12c0,.25,0,.65-.08,1.21l0,.21a1.13,1.13,0,0,1-.27.63,1,1,0,0,1-.55.31l-5.88,1.14c-.52.11-.75,0-.7-.19l.05-.33a2.29,2.29,0,0,0-.85-2.08,3.2,3.2,0,0,0-2.77-.47,4.48,4.48,0,0,0-2.18,1,2.38,2.38,0,0,0-.82,1.78,1.45,1.45,0,0,0,1.09,1.37,21.29,21.29,0,0,0,4.13.86l2.52.36a6.34,6.34,0,0,1,3.68,1.7,5,5,0,0,1,1.48,3.8,10.48,10.48,0,0,1-1.54,5.52,13.58,13.58,0,0,1-4.27,4.34,17.21,17.21,0,0,1-6.14,2.45Q1002.79,183.45,1000.11,181.8Z" transform="translate(-166.88 -127.66)"/><polygon class="cls-3" points="856.78 12.86 633.94 56.18 633.94 51.35 856.78 8.03 856.78 12.86"/><polygon class="cls-2" points="828.18 8.76 661.49 41.16 661.49 36.34 828.18 3.93 828.18 8.76"/><polygon class="cls-3" points="767.42 10.91 684.73 26.99 684.73 22.16 767.42 6.08 767.42 10.91"/><polygon class="cls-2" points="749.04 4.83 712.17 12 712.17 7.17 749.04 0 749.04 4.83"/><polygon class="cls-3" points="633.94 104.47 856.78 61.16 856.78 65.98 633.94 109.3 633.94 104.47"/><polygon class="cls-2" points="662.54 108.57 829.23 76.17 829.23 81 662.54 113.4 662.54 108.57"/><polygon class="cls-3" points="723.3 106.42 805.99 90.34 805.99 95.17 723.3 111.25 723.3 106.42"/><polygon class="cls-2" points="741.68 112.5 778.55 105.34 778.55 110.17 741.68 117.33 741.68 112.5"/></svg>