<svg id="Layer_1" data-name="Layer 1" xmlns="http://www.w3.org/2000/svg" viewBox="0 0 97.46 51.32"><defs><style>.cls-1{fill:#3c3c3b;}.cls-2{fill:#00e8e8;}.cls-3{fill:#e71d73;}</style></defs><title>increases</title><path class="cls-1" d="M312.18,253.83a.29.29,0,0,1-.05-.24l1.45-12.17A.47.47,0,0,1,314,241l2.6-.5a.26.26,0,0,1,.24,0,.29.29,0,0,1,.05.24L315.4,253a.48.48,0,0,1-.12.27.47.47,0,0,1-.26.14l-2.6.51A.26.26,0,0,1,312.18,253.83Z" transform="translate(-307.84 -213.34)"/><path class="cls-1" d="M316.82,252.93a.29.29,0,0,1-.06-.24l1.46-12.17a.45.45,0,0,1,.37-.42l2.5-.48a.31.31,0,0,1,.38.16l2.71,5.42a.07.07,0,0,0,.09.05c.05,0,.08-.06.09-.14l.68-5.92a.45.45,0,0,1,.38-.41l2.62-.51a.25.25,0,0,1,.23,0,.29.29,0,0,1,.06.24l-1.47,12.18a.48.48,0,0,1-.12.27.43.43,0,0,1-.24.14l-2.52.49a.31.31,0,0,1-.37-.16l-2.7-5.53c0-.06-.05-.08-.09-.07s-.07,0-.09.14l-.7,6.05a.41.41,0,0,1-.38.41l-2.6.51A.23.23,0,0,1,316.82,252.93Z" transform="translate(-307.84 -213.34)"/><path class="cls-1" d="M329.68,249.6a3.07,3.07,0,0,1-1.15-2.64,6.12,6.12,0,0,1,0-.71l.45-3.72a6.35,6.35,0,0,1,.89-2.58,6.6,6.6,0,0,1,1.89-2,6.86,6.86,0,0,1,2.59-1.08,4.1,4.1,0,0,1,3.15.39,2.78,2.78,0,0,1,1.16,2.49c0,.12,0,.33,0,.62,0,.11-.11.19-.33.26l-2.64.69-.09,0c-.16,0-.25,0-.25,0l0-.11a1.76,1.76,0,0,0,0-.27A1.11,1.11,0,0,0,335,240a1.15,1.15,0,0,0-1-.17,2,2,0,0,0-1.18.67,2.3,2.3,0,0,0-.56,1.28l-.47,4a1.65,1.65,0,0,0,0,.27,1.08,1.08,0,0,0,.37.9,1.17,1.17,0,0,0,1,.17,2,2,0,0,0,1.17-.67,2.3,2.3,0,0,0,.56-1.27A.27.27,0,0,1,335,245a.46.46,0,0,1,.25-.1l2.61-.36q.3,0,.3,0l0,.09a5.74,5.74,0,0,1-.88,2.46,6.51,6.51,0,0,1-1.87,1.9,7.26,7.26,0,0,1-2.6,1.05A3.88,3.88,0,0,1,329.68,249.6Z" transform="translate(-307.84 -213.34)"/><path class="cls-1" d="M344.93,247.31l-1.35-4.21c0-.07-.07-.1-.16-.08l-.61.12c-.11,0-.17.08-.17.17l-.53,4.46a.56.56,0,0,1-.12.27.47.47,0,0,1-.26.14l-2.61.51a.25.25,0,0,1-.23-.05.26.26,0,0,1-.05-.24l1.45-12.17a.45.45,0,0,1,.38-.42l5.21-1a3.09,3.09,0,0,1,2.57.42,2.71,2.71,0,0,1,.95,2.29c0,.12,0,.33,0,.62a5,5,0,0,1-.8,2.2,5.2,5.2,0,0,1-1.69,1.64.15.15,0,0,0-.09.2l1.56,4.33a.37.37,0,0,1,0,.12c0,.18-.11.29-.31.33l-2.78.54C345.08,247.53,345,247.47,344.93,247.31Zm-1.69-9-.25,2q0,.15.12.12l1.58-.31a1.83,1.83,0,0,0,1-.55,1.44,1.44,0,0,0,.4-1,.73.73,0,0,0-.31-.65,1.05,1.05,0,0,0-.82-.11l-1.58.3A.2.2,0,0,0,343.24,238.35Z" transform="translate(-307.84 -213.34)"/><path class="cls-1" d="M359.2,235.1l-5.08,1a.2.2,0,0,0-.16.17l-.2,1.62c0,.1,0,.14.13.12l3.11-.6a.23.23,0,0,1,.22,0,.28.28,0,0,1,.06.24l-.27,2.24a.44.44,0,0,1-.37.41l-3.11.61a.15.15,0,0,0-.14.17l-.22,1.8v0c0,.07,0,.1.11.08l5.1-1a.23.23,0,0,1,.22,0,.26.26,0,0,1,.07.24l-.27,2.26a.56.56,0,0,1-.13.28.44.44,0,0,1-.25.13l-8.17,1.59a.26.26,0,0,1-.24,0,.29.29,0,0,1-.05-.24L351,234.14a.46.46,0,0,1,.38-.41l8.17-1.59a.25.25,0,0,1,.23.05.29.29,0,0,1,.06.24l-.27,2.26A.44.44,0,0,1,359.2,235.1Z" transform="translate(-307.84 -213.34)"/><path class="cls-1" d="M367.34,242.91l-.2-1.25a.08.08,0,0,0,0-.08.12.12,0,0,0-.1,0l-3.61.7a.3.3,0,0,0-.18.16l-.5,1.39a.52.52,0,0,1-.4.37l-2.84.55c-.16,0-.25,0-.25-.17a.34.34,0,0,1,0-.18l5.08-12.88a.5.5,0,0,1,.4-.37l3.59-.69a.24.24,0,0,1,.32.22l2.18,11.47v.07a.37.37,0,0,1-.35.39l-2.82.55C367.46,243.18,367.35,243.1,367.34,242.91Zm-3-3.54c0,.08,0,.12.11.1l2.16-.41a.26.26,0,0,0,.11-.07.14.14,0,0,0,0-.12l-.59-4c0-.06,0-.08-.08-.07s-.08,0-.1.11l-1.64,4.46Z" transform="translate(-307.84 -213.34)"/><path class="cls-1" d="M372.37,241.42a2.54,2.54,0,0,1-1.17-2.33,4.67,4.67,0,0,1,0-.53l0-.18a.65.65,0,0,1,.12-.28.47.47,0,0,1,.24-.13l2.57-.5c.23-.05.33,0,.31.12l0,.2a.81.81,0,0,0,.39.8,1.57,1.57,0,0,0,1.23.16,1.6,1.6,0,0,0,1-.52,1.15,1.15,0,0,0,.31-.72.47.47,0,0,0-.33-.48,6.92,6.92,0,0,0-1.16-.2l-.49-.07a6.77,6.77,0,0,1-2.56-.79,2.2,2.2,0,0,1-1-2.09,4.39,4.39,0,0,1,.67-2.35,5.86,5.86,0,0,1,1.84-1.87,6.91,6.91,0,0,1,2.54-1,5,5,0,0,1,2.25,0,2.73,2.73,0,0,1,1.55,1,2.83,2.83,0,0,1,.56,1.81c0,.1,0,.28,0,.52l0,.1a.42.42,0,0,1-.12.27.49.49,0,0,1-.24.14l-2.57.5c-.23,0-.33,0-.31-.09l0-.15a1,1,0,0,0-.37-.9,1.39,1.39,0,0,0-1.21-.21,2,2,0,0,0-1,.45,1,1,0,0,0-.36.78.64.64,0,0,0,.48.6,9.32,9.32,0,0,0,1.8.37l1.11.16a2.74,2.74,0,0,1,1.6.74,2.22,2.22,0,0,1,.65,1.67,4.59,4.59,0,0,1-.67,2.41,5.94,5.94,0,0,1-1.87,1.9,7.59,7.59,0,0,1-2.69,1.07A4.35,4.35,0,0,1,372.37,241.42Z" transform="translate(-307.84 -213.34)"/><path class="cls-1" d="M391.09,228.9l-5.09,1a.23.23,0,0,0-.16.18l-.2,1.62c0,.09.05.13.13.12l3.11-.61a.23.23,0,0,1,.22.05.24.24,0,0,1,.06.24l-.26,2.24a.47.47,0,0,1-.38.42l-3.11.6a.16.16,0,0,0-.14.17l-.22,1.8v0c0,.07,0,.1.11.09l5.1-1a.25.25,0,0,1,.22.05.26.26,0,0,1,.07.24l-.27,2.26a.49.49,0,0,1-.13.28.48.48,0,0,1-.25.14l-8.17,1.58a.24.24,0,0,1-.24,0,.33.33,0,0,1-.05-.24L382.9,228a.44.44,0,0,1,.37-.42l8.18-1.59a.23.23,0,0,1,.22.05.29.29,0,0,1,.06.24l-.27,2.26A.44.44,0,0,1,391.09,228.9Z" transform="translate(-307.84 -213.34)"/><path class="cls-1" d="M392.7,237.46a2.51,2.51,0,0,1-1.16-2.32c0-.11,0-.28,0-.53l0-.19a.5.5,0,0,1,.11-.27A.48.48,0,0,1,392,234l2.56-.49c.23-.05.33,0,.31.12l0,.2a.83.83,0,0,0,.4.8,1.59,1.59,0,0,0,1.22.16,1.62,1.62,0,0,0,1-.52,1.18,1.18,0,0,0,.31-.73.46.46,0,0,0-.33-.47,6.48,6.48,0,0,0-1.16-.21l-.49-.06a6.83,6.83,0,0,1-2.56-.79,2.23,2.23,0,0,1-1-2.09,4.46,4.46,0,0,1,.68-2.36,5.9,5.9,0,0,1,1.83-1.86,7,7,0,0,1,2.54-1,5.13,5.13,0,0,1,2.25,0,2.71,2.71,0,0,1,1.56,1,2.86,2.86,0,0,1,.55,1.8c0,.11,0,.29,0,.53l0,.09a.47.47,0,0,1-.12.28.36.36,0,0,1-.24.13l-2.57.5c-.23.05-.33,0-.3-.08v-.15a1,1,0,0,0-.36-.9,1.41,1.41,0,0,0-1.22-.21,2,2,0,0,0-.95.45,1,1,0,0,0-.36.78.62.62,0,0,0,.48.59,9.29,9.29,0,0,0,1.8.38l1.11.15a2.85,2.85,0,0,1,1.61.75,2.21,2.21,0,0,1,.64,1.66,4.6,4.6,0,0,1-.67,2.42,5.91,5.91,0,0,1-1.87,1.89,7.36,7.36,0,0,1-2.68,1.07A4.27,4.27,0,0,1,392.7,237.46Z" transform="translate(-307.84 -213.34)"/><polygon class="cls-2" points="97.46 5.63 0 24.57 0 22.46 97.46 3.51 97.46 5.63"/><polygon class="cls-3" points="84.95 3.83 12.05 18 12.05 15.89 84.95 1.72 84.95 3.83"/><polygon class="cls-2" points="58.38 4.77 22.21 11.8 22.21 9.69 58.38 2.66 58.38 4.77"/><polygon class="cls-3" points="50.34 2.11 34.21 5.25 34.21 3.13 50.34 0 50.34 2.11"/><polygon class="cls-2" points="0 45.69 97.46 26.75 97.46 28.86 0 47.8 0 45.69"/><polygon class="cls-3" points="12.51 47.48 85.41 33.31 85.41 35.42 12.51 49.6 12.51 47.48"/><polygon class="cls-2" points="39.08 46.54 75.25 39.51 75.25 41.63 39.08 48.66 39.08 46.54"/><polygon class="cls-3" points="47.12 49.2 63.25 46.07 63.25 48.18 47.12 51.32 47.12 49.2"/></svg>