<svg id="fd8f5763-5fc6-4a78-b289-813cfd8b7720" data-name="Layer 1" xmlns="http://www.w3.org/2000/svg" viewBox="0 0 7767.7163 3426.68164"><defs><style>.\39 c0f0965-19b8-4c45-95ca-765038bff6f6{fill:#333;}.cded308c-855e-476f-8c8a-5887f58beb90{fill:#ed1e79;}.a5e8d4b7-2df4-4254-abfc-47091df7e5b6{fill:aqua;}</style></defs><title>mentalfacts</title><path class="9c0f0965-19b8-4c45-95ca-765038bff6f6" d="M640.06836,370.55592H432.36914q-5.14307,0-6.60547,5.87158l-8.07324,64.585c0,3.92188,1.709,5.87158,5.13769,5.87158H549.7959q5.866,0,9.17431,3.66944c2.20167,2.4541,3.0503,5.87109,2.56885,10.2749l-11.00879,89.53808q-2.20239,13.95045-15.41259,13.94434H408.14941c-3.92187,0-5.87109,1.96094-5.87109,5.87158l-8.80713,71.92432v1.46777q0,4.40332,4.40332,4.40332h208.4336q5.86522,0,9.17382,3.66944,3.30249,3.68115,2.56885,10.2749L607.042,752.19459a14.91705,14.91705,0,0,1-5.13769,10.2749,15.52956,15.52956,0,0,1-10.27491,3.66944H257.69629c-4.40381,0-7.5918-1.21534-9.541-3.66944q-2.94139-3.66431-2.20215-10.2749l59.44776-485.855q2.20166-13.93285,15.41211-13.94434H654.74658q5.866,0,9.17432,3.66944c2.20166,2.4541,3.05029,5.87109,2.56836,10.2749l-11.00879,90.272Q653.27882,370.562,640.06836,370.55592Z" transform="translate(-241.86195 -246.52369)"/><path class="9c0f0965-19b8-4c45-95ca-765038bff6f6" d="M972.5293,754.39625,964.45605,701.554a4.54952,4.54952,0,0,0-1.83447-3.66943,6.343,6.343,0,0,0-4.03662-1.46777H811.06689c-2.93554,0-5.38964,1.71972-7.33935,5.1372l-20.54932,52.84229q-4.404,11.748-16.14648,11.74268H651.07227q-10.28615,0-10.27491-8.80713a16.24479,16.24479,0,0,1,1.46826-7.33887L849.96484,264.138q4.40333-11.7312,16.146-11.74268H1012.895q11.0083,0,13.21045,11.74268l88.8042,485.855v2.93555q0,13.21069-13.94434,13.21045H985.73975Q973.252,766.13893,972.5293,754.39625ZM849.231,585.59449q0,5.14306,4.40332,5.1377h88.07031a6.45611,6.45611,0,0,0,4.77051-1.835,4.71764,4.71764,0,0,0,1.10107-4.77051L923.35693,414.59156q-.73974-3.66431-3.30273-3.66992-2.58033,0-4.03662,3.66992L849.231,584.12672Z" transform="translate(-241.86195 -246.52369)"/><path class="9c0f0965-19b8-4c45-95ca-765038bff6f6" d="M1527.00781,256.06471c2.20166,2.4541,3.0503,5.87109,2.56836,10.2749l-11.00879,91.00586q-2.20165,13.95044-15.41211,13.94482h-114.4917q-5.14306,0-6.605,5.8711l-46.2373,375.0332q-.73976,6.605-4.77051,10.2749a14.16715,14.16715,0,0,1-9.90771,3.66944H1213.99072c-4.40332,0-7.59131-1.21534-9.541-3.66944q-2.94141-3.66431-2.20166-10.2749l46.23681-375.0332c0-3.91016-1.72021-5.8711-5.1372-5.8711H1132.52588q-13.95043,0-12.477-13.94482l11.74316-91.00586q.72218-6.60572,4.77051-10.2749a14.18073,14.18073,0,0,1,9.90771-3.66944H1517.8335Q1523.69946,252.39527,1527.00781,256.06471Z" transform="translate(-241.86195 -246.52369)"/><path class="9c0f0965-19b8-4c45-95ca-765038bff6f6" d="M1969.18018,256.06471a15.56939,15.56939,0,0,1,10.2749-3.66944h107.15185q5.866,0,9.17432,3.66944c2.20166,2.4541,3.05029,5.87109,2.56885,10.2749l-59.44776,485.855a14.91856,14.91856,0,0,1-5.1372,10.2749,15.53139,15.53139,0,0,1-10.27491,3.66944H1916.33789c-3.92187,0-6.97217-1.21534-9.17432-3.66944q-3.30249-3.66431-2.56836-10.2749l22.01758-181.27832V569.4485q0-4.40332-4.40381-4.40381H1815.05664q-5.14306,0-6.605,5.87158l-22.01758,181.27832q-.73974,6.605-4.77051,10.2749-4.04223,3.68115-10.64209,3.66944h-106.418c-4.40381,0-7.5918-1.21534-9.541-3.66944q-2.94141-3.66431-2.20215-10.2749l59.44776-485.855q2.20165-13.93285,15.4121-13.94434h106.41846q6.60571,0,9.541,3.66944c1.9497,2.4541,2.68359,5.87109,2.20166,10.2749l-21.28369,174.67285c0,3.92188,1.709,5.87158,5.13769,5.87158h106.41846c4.40332,0,6.605-1.9497,6.605-5.87158l21.28369-174.67285A14.89458,14.89458,0,0,1,1969.18018,256.06471Z" transform="translate(-241.86195 -246.52369)"/><path class="9c0f0965-19b8-4c45-95ca-765038bff6f6" d="M2482.18066,370.55592H2274.48145q-5.14308,0-6.60547,5.87158l-8.07325,64.585c0,3.92188,1.709,5.87158,5.1377,5.87158H2391.9082q5.866,0,9.17432,3.66944c2.20166,2.4541,3.05029,5.87109,2.56885,10.2749l-11.00879,89.53808q-2.20239,13.95045-15.4126,13.94434H2250.26172c-3.92188,0-5.8711,1.96094-5.8711,5.87158l-8.80712,71.92432v1.46777q0,4.40332,4.40332,4.40332h208.43359q5.86524,0,9.17383,3.66944,3.30249,3.68115,2.56885,10.2749l-11.00879,90.27246a14.91706,14.91706,0,0,1-5.1377,10.2749,15.52956,15.52956,0,0,1-10.2749,3.66944H2099.80859c-4.4038,0-7.59179-1.21534-9.541-3.66944q-2.94141-3.66431-2.20215-10.2749l59.44775-485.855q2.20167-13.93285,15.41211-13.94434h333.9336q5.866,0,9.17431,3.66944c2.20166,2.4541,3.0503,5.87109,2.56836,10.2749l-11.00879,90.272Q2495.39112,370.562,2482.18066,370.55592Z" transform="translate(-241.86195 -246.52369)"/><path class="9c0f0965-19b8-4c45-95ca-765038bff6f6" d="M2814.6416,754.39625l-8.07324-52.84229a4.54952,4.54952,0,0,0-1.83447-3.66943,6.343,6.343,0,0,0-4.03662-1.46777H2653.1792c-2.93555,0-5.38965,1.71972-7.33936,5.1372l-20.54931,52.84229q-4.40406,11.748-16.14649,11.74268H2493.18457q-10.28613,0-10.2749-8.80713a16.24465,16.24465,0,0,1,1.46826-7.33887l207.69922-485.855q4.40333-11.7312,16.146-11.74268h146.78418q11.0083,0,13.21045,11.74268l88.8042,485.855v2.93555q0,13.21069-13.94433,13.21045H2827.85205Q2815.36427,766.13893,2814.6416,754.39625ZM2691.34326,585.59449q0,5.14306,4.40332,5.1377h88.07031a6.45611,6.45611,0,0,0,4.77051-1.835,4.71767,4.71767,0,0,0,1.10108-4.77051l-24.21924-169.53516q-.73975-3.66431-3.30274-3.66992-2.58031,0-4.03662,3.66992l-66.78662,169.53516Z" transform="translate(-241.86195 -246.52369)"/><path class="9c0f0965-19b8-4c45-95ca-765038bff6f6" d="M3004.72168,762.46949q-2.94141-3.66431-2.20215-10.2749l59.44776-485.855q2.20165-13.93285,15.4121-13.94434h106.41846q6.60572,0,9.541,3.66944c1.9497,2.4541,2.68359,5.87109,2.20166,10.2749L3150.0376,642.1067v1.46777q0,4.40332,4.40332,4.40332h215.03857q6.60571,0,9.541,3.66944,2.92455,3.68115,2.20166,10.2749l-11.00879,90.27246q-.739,6.605-4.77051,10.2749-4.04223,3.68115-10.6416,3.66944H3014.2627C3009.85889,766.13893,3006.6709,764.92359,3004.72168,762.46949Z" transform="translate(-241.86195 -246.52369)"/><path class="9c0f0965-19b8-4c45-95ca-765038bff6f6" d="M3794.7832,256.06471c2.20166,2.4541,3.0503,5.87109,2.56836,10.2749l-11.00879,91.00586q-2.20166,13.95044-15.41211,13.94482H3656.439q-5.14307,0-6.605,5.8711l-46.2373,375.0332q-.73974,6.605-4.77051,10.2749a14.16715,14.16715,0,0,1-9.90771,3.66944H3481.76611c-4.40332,0-7.59131-1.21534-9.541-3.66944q-2.94141-3.66431-2.20166-10.2749l46.23681-375.0332c0-3.91016-1.72021-5.8711-5.1372-5.8711H3400.30127q-13.95044,0-12.477-13.94482l11.74316-91.00586q.72218-6.60572,4.77051-10.2749a14.18074,14.18074,0,0,1,9.90772-3.66944h371.36328Q3791.47485,252.39527,3794.7832,256.06471Z" transform="translate(-241.86195 -246.52369)"/><path class="9c0f0965-19b8-4c45-95ca-765038bff6f6" d="M4094.58643,256.06471a15.56847,15.56847,0,0,1,10.2749-3.66944h107.15234q5.86524,0,9.17383,3.66944c2.20215,2.4541,3.0498,5.87109,2.56836,10.2749l-59.44727,485.855a14.919,14.919,0,0,1-5.13769,10.2749,15.5292,15.5292,0,0,1-10.27442,3.66944H4041.74414c-3.92187,0-6.97217-1.21534-9.17432-3.66944q-3.30249-3.66431-2.56836-10.2749L4052.019,570.91627V569.4485q0-4.40332-4.40381-4.40381H3940.46289q-5.14306,0-6.605,5.87158l-22.01758,181.27832q-.73974,6.605-4.77051,10.2749-4.04223,3.68115-10.64209,3.66944h-106.418c-4.40381,0-7.5918-1.21534-9.541-3.66944q-2.94141-3.66431-2.20215-10.2749l59.44776-485.855q2.20166-13.93285,15.4121-13.94434h106.41846q6.60572,0,9.541,3.66944c1.9497,2.4541,2.68359,5.87109,2.20166,10.2749l-21.28369,174.67285c0,3.92188,1.709,5.87158,5.13769,5.87158h106.41846c4.40332,0,6.605-1.9497,6.605-5.87158l21.28369-174.67285A14.89458,14.89458,0,0,1,4094.58643,256.06471Z" transform="translate(-241.86195 -246.52369)"/><path class="9c0f0965-19b8-4c45-95ca-765038bff6f6" d="M4352.5498,761.00172q-3.30321-3.66431-2.56835-10.2749l19.81543-157.793a26.04161,26.04161,0,0,0-.73438-7.33936L4264.84668,268.54127a12.489,12.489,0,0,1-.73438-5.13721q0-11.009,13.21094-11.00879h115.959q11.73193,0,14.67871,11.00879l44.76855,169.53516c.97461,1.96094,2.07617,2.936,3.30274,2.936,1.21582,0,2.3164-.97509,3.30273-2.936l86.60254-169.53516q5.12548-11.009,16.87988-11.00879h116.69336q11.73193,0,11.74317,8.07276c0,1.46777-.98633,4.16308-2.93555,8.07324L4504.83789,585.59449a58.45842,58.45842,0,0,0-2.20117,7.33936l-19.082,157.793q-2.20167,13.9497-15.41309,13.94433h-106.418C4357.80176,764.67115,4354.751,763.45533,4352.5498,761.00172Z" transform="translate(-241.86195 -246.52369)"/><path class="cded308c-855e-476f-8c8a-5887f58beb90" d="M4974.24414,727.60816q-46.61573-44.39648-46.60352-119.99609,0-19.07592,1.46778-29.35645l16.87988-138.71093q7.32861-57.2461,37.06348-101.28076a200.2401,200.2401,0,0,1,77.06152-67.8877q47.3379-23.84106,106.05078-23.85254,52.84278,0,92.84082,19.81592,39.99316,19.81567,61.64942,54.67676,21.64012,34.86695,21.65039,77.42871,0,5.8828-1.46778,20.5498a12.94944,12.94944,0,0,1-4.7705,8.43994,15.14812,15.14812,0,0,1-9.90723,3.30274H5219.74023q-13.9497,0-12.47656-3.66944v-2.936q2.92383-24.219-11.74219-41.833-14.69091-17.61474-43.30175-17.61426-28.623,0-48.43848,19.44873-19.81641,19.45459-23.48535,51.7417L5062.68164,582.659a55.1218,55.1218,0,0,0-.7334,10.2749q0,27.16113,16.87988,44.03515,16.87355,16.89184,43.30079,16.88037,26.42137,0,45.13671-15.04541,18.71486-15.03441,21.6504-41.46679l.73339-7.33887v-1.46777c0-2.936-1.71972-4.40381-5.13671-4.40381h-57.2461c-4.40332,0-7.5918-1.21533-9.541-3.66943q-2.94141-3.66432-2.20215-10.27491l9.541-82.19922a14.89953,14.89953,0,0,1,5.1377-10.2749,15.57073,15.57073,0,0,1,10.27539-3.66943h180.54394q5.86524,0,9.17383,3.66943,3.30323,3.68115,2.56934,10.2749l-12.47754,97.61133q-6.605,54.32154-36.32813,96.87744a201.65354,201.65354,0,0,1-77.0625,66.05274q-47.33789,23.49682-105.31738,23.48584Q5020.83692,772.01051,4974.24414,727.60816Z" transform="translate(-241.86195 -246.52369)"/><path class="cded308c-855e-476f-8c8a-5887f58beb90" d="M5741.55469,370.55592H5533.85547q-5.14307,0-6.60547,5.87158l-8.07324,64.585c0,3.92188,1.709,5.87158,5.13769,5.87158h126.96778q5.8667,0,9.17382,3.66944c2.20215,2.4541,3.05079,5.87109,2.56934,10.2749l-11.00879,89.53808q-2.20165,13.95045-15.41211,13.94434H5509.63574c-3.92187,0-5.87109,1.96094-5.87109,5.87158L5494.958,642.1067v1.46777q0,4.40332,4.40332,4.40332H5707.794q5.86669,0,9.1748,3.66944,3.30176,3.68115,2.56836,10.2749l-11.00879,90.27246a14.919,14.919,0,0,1-5.1377,10.2749,15.52915,15.52915,0,0,1-10.27441,3.66944H5359.18262c-4.40332,0-7.5918-1.21534-9.541-3.66944q-2.94141-3.66431-2.20215-10.2749l59.44727-485.855q2.20313-13.93285,15.41308-13.94434h333.9336q5.86522,0,9.17383,3.66944c2.20117,2.4541,3.0498,5.87109,2.56836,10.2749l-11.00879,90.272Q5754.76513,370.562,5741.55469,370.55592Z" transform="translate(-241.86195 -246.52369)"/><path class="cded308c-855e-476f-8c8a-5887f58beb90" d="M6193.27832,256.06471c2.20117,2.4541,3.0498,5.87109,2.56836,10.2749l-11.00879,91.00586q-2.20165,13.95044-15.41211,13.94482H6054.93457q-5.14307,0-6.60547,5.8711l-46.2373,375.0332q-.73975,6.605-4.77051,10.2749a14.166,14.166,0,0,1-9.90723,3.66944H5880.26172c-4.4043,0-7.5918-1.21534-9.541-3.66944q-2.94139-3.66431-2.20215-10.2749l46.23731-375.0332c0-3.91016-1.7207-5.8711-5.1377-5.8711H5798.7959q-13.94972,0-12.47656-13.94482l11.74316-91.00586q.72218-6.60572,4.77051-10.2749a14.18034,14.18034,0,0,1,9.90722-3.66944h371.36426Q6189.96973,252.39527,6193.27832,256.06471Z" transform="translate(-241.86195 -246.52369)"/><path class="cded308c-855e-476f-8c8a-5887f58beb90" d="M6635.4502,256.06471a15.57067,15.57067,0,0,1,10.27539-3.66944h107.15234q5.86524,0,9.17383,3.66944c2.20215,2.4541,3.0498,5.87109,2.56836,10.2749l-59.44727,485.855a14.919,14.919,0,0,1-5.13769,10.2749,15.5292,15.5292,0,0,1-10.27442,3.66944H6582.6084c-3.92188,0-6.97266-1.21534-9.17383-3.66944q-3.30323-3.66431-2.56934-10.2749l22.01758-181.27832V569.4485q0-4.40332-4.40332-4.40381H6481.32715q-5.14307,0-6.60547,5.87158L6452.7041,752.19459q-.73974,6.605-4.77051,10.2749-4.04149,3.68115-10.6416,3.66944H6330.874c-4.40332,0-7.59179-1.21534-9.541-3.66944q-2.94141-3.66431-2.20215-10.2749l59.44726-485.855q2.20314-13.93285,15.41309-13.94434h106.418q6.605,0,9.541,3.66944c1.94921,2.4541,2.68359,5.87109,2.20214,10.2749l-21.28418,174.67285c0,3.92188,1.709,5.87158,5.1377,5.87158h106.418c4.40429,0,6.60547-1.9497,6.60547-5.87158l21.28418-174.67285A14.89369,14.89369,0,0,1,6635.4502,256.06471Z" transform="translate(-241.86195 -246.52369)"/><path class="cded308c-855e-476f-8c8a-5887f58beb90" d="M7148.45117,370.55592H6940.752q-5.14307,0-6.60547,5.87158l-8.07324,64.585c0,3.92188,1.709,5.87158,5.1377,5.87158h126.96777q5.86669,0,9.17383,3.66944c2.20215,2.4541,3.05078,5.87109,2.56934,10.2749l-11.00879,89.53808q-2.20167,13.95045-15.41211,13.94434H6916.53223c-3.92188,0-5.8711,1.96094-5.8711,5.87158l-8.80664,71.92432v1.46777q0,4.40332,4.40332,4.40332h208.43262q5.8667,0,9.1748,3.66944,3.30177,3.68115,2.56836,10.2749l-11.00879,90.27246a14.919,14.919,0,0,1-5.13769,10.2749,15.52919,15.52919,0,0,1-10.27441,3.66944H6766.0791c-4.40332,0-7.5918-1.21534-9.541-3.66944q-2.94141-3.66431-2.20215-10.2749l59.44726-485.855q2.20313-13.93285,15.41309-13.94434h333.93359q5.86524,0,9.17383,3.66944c2.20117,2.4541,3.04981,5.87109,2.56836,10.2749l-11.00879,90.272Q7161.66163,370.562,7148.45117,370.55592Z" transform="translate(-241.86195 -246.52369)"/><path class="cded308c-855e-476f-8c8a-5887f58beb90" d="M7162.3916,762.46949q-2.94141-3.66431-2.20215-10.2749l59.44727-485.855q2.20313-13.93285,15.41308-13.94434h106.418q6.605,0,9.541,3.66944c1.94922,2.4541,2.68359,5.87109,2.20215,10.2749L7307.708,642.1067v1.46777q0,4.40332,4.40332,4.40332h215.03808q6.605,0,9.541,3.66944,2.92383,3.68115,2.20215,10.2749l-11.00879,90.27246q-.73975,6.605-4.77051,10.2749-4.043,3.68115-10.64258,3.66944H7171.93262C7167.5293,766.13893,7164.34082,764.92359,7162.3916,762.46949Z" transform="translate(-241.86195 -246.52369)"/><path class="cded308c-855e-476f-8c8a-5887f58beb90" d="M7957.2207,290.926q40.35353,38.53051,40.36524,104.58349,0,16.89185-1.46778,25.687-5.88281,49.17847-32.65918,86.60254a180.66348,180.66348,0,0,1-68.98828,57.97949q-42.2124,20.55616-94.30957,20.54981h-73.3916q-5.14306,0-6.60547,5.87158l-19.81543,159.99463q-.73974,6.605-4.77051,10.2749-4.043,3.68115-10.6416,3.66944H7578.51758c-4.40332,0-7.5918-1.21534-9.541-3.66944q-2.94141-3.66431-2.20117-10.2749l59.44727-485.855q2.20165-13.93285,15.41211-13.94434h205.498Q7916.84912,252.39527,7957.2207,290.926ZM7844.56348,459.7273q18.71484-16.51317,18.71484-42.93408,0-21.27831-14.31152-33.76025-14.31153-12.471-38.53028-12.477h-57.24609q-5.14306,0-6.60547,5.87158l-11.74219,93.94189c0,3.92188,1.709,5.8711,5.1377,5.8711H7797.96Q7825.84327,476.24049,7844.56348,459.7273Z" transform="translate(-241.86195 -246.52369)"/><path class="cded308c-855e-476f-8c8a-5887f58beb90" d="M293.19629,1411.073q-42.87964-34.95045-42.86963-93.6543,0-5.93555,1.31885-19.12646l1.31933-6.59522a14.02617,14.02617,0,0,1,4.28711-9.2334,12.74183,12.74183,0,0,1,8.90332-3.29785h94.314q12.52076,0,11.21191,6.59522l-.65918,7.25488q-1.979,17.80737,14.50977,32.31738,16.478,14.51514,44.84863,14.50977,25.72193,0,36.93359-11.87158,11.20752-11.87184,11.21241-24.40284,0-13.18578-12.20166-19.78613-12.21168-6.58521-42.54-15.8291l-17.80762-5.93555q-56.06543-17.80737-93.98389-47.15674-37.93359-29.33936-37.92334-84.0913,0-46.15724,24.73291-81.78223,24.73244-35.61548,67.27247-55.40137,42.54053-19.78564,93.3247-19.78613,46.15723,0,82.77149,16.48877,36.605,16.4934,57.05029,47.15674,20.43529,30.6687,20.44531,70.24072,0,5.93554-1.31885,19.12646l-.65966,3.29786a14.10029,14.10029,0,0,1-4.28711,9.23339,12.73321,12.73321,0,0,1-8.90381,3.29786H510.18408q-12.53613,0-11.21191-5.27637l.65918-5.27637q1.979-19.78638-13.52051-35.94482-15.50391-16.15357-44.51855-16.15869-21.76466,0-34.95557,9.56347-13.20117,9.56836-13.19043,26.05176,0,15.17944,17.47754,25.39209,17.46753,10.23267,66.2832,26.71094,5.27124,1.979,40.56152,13.5205a130.28574,130.28574,0,0,1,59.02881,38.9126q23.74293,27.37647,23.74317,65.624,0,47.48656-24.73242,83.76123-24.73316,36.27978-68.5918,56.39062-43.86987,20.12549-98.60108,20.11572Q336.05641,1446.02857,293.19629,1411.073Z" transform="translate(-241.86195 -246.52369)"/><path class="cded308c-855e-476f-8c8a-5887f58beb90" d="M628.23779,1437.45436q-2.6433-3.29224-1.979-9.2334l53.42285-436.61328q1.97827-12.52076,13.8501-12.53125h95.63281q5.93555,0,8.57373,3.29785,2.62793,3.30762,1.979,9.2334l-40.89161,337.68261v1.31934q0,3.95727,3.95752,3.957H956.02734q5.93556,0,8.57373,3.29785,2.62794,3.30762,1.979,9.2334L956.687,1428.221a14.10375,14.10375,0,0,1-4.28711,9.2334,13.64122,13.64122,0,0,1-9.56347,3.29785H636.81152C632.85449,1440.75221,629.98926,1439.65992,628.23779,1437.45436Z" transform="translate(-241.86195 -246.52369)"/><path class="cded308c-855e-476f-8c8a-5887f58beb90" d="M1347.78662,1085.262H1161.1377q-4.62159,0-5.936,5.27637l-7.25488,58.03906c0,3.52442,1.53564,5.27637,4.61718,5.27637h114.09961a10.53928,10.53928,0,0,1,8.24414,3.29785q2.96778,3.30762,2.3086,9.2334l-9.89307,80.46338q-1.979,12.53613-13.85058,12.53125H1139.37305c-3.52442,0-5.27637,1.76221-5.27637,5.27637l-7.91455,64.63427v1.31934q0,3.95727,3.95752,3.957h187.3081a10.54093,10.54093,0,0,1,8.24414,3.29785c1.979,2.20508,2.74122,5.27637,2.3086,9.2334l-9.89307,81.12305a13.40357,13.40357,0,0,1-4.6167,9.2334,13.95513,13.95513,0,0,1-9.2334,3.29785H1004.168c-3.957,0-6.82227-1.09229-8.57373-3.29785q-2.64331-3.29224-1.979-9.2334l53.42286-436.61328q1.97826-12.52076,13.85009-12.53125h300.08936a10.54065,10.54065,0,0,1,8.24414,3.29785q2.96778,3.30762,2.30811,9.2334l-9.89307,81.123Q1359.65845,1085.26685,1347.78662,1085.262Z" transform="translate(-241.86195 -246.52369)"/><path class="cded308c-855e-476f-8c8a-5887f58beb90" d="M1712.50635,1085.262H1525.85742q-4.62157,0-5.936,5.27637l-7.25489,58.03906c0,3.52442,1.53565,5.27637,4.61719,5.27637H1631.3833a10.53928,10.53928,0,0,1,8.24414,3.29785q2.96778,3.30762,2.3086,9.2334l-9.89307,80.46338q-1.979,12.53613-13.85059,12.53125H1504.09277c-3.52441,0-5.27636,1.76221-5.27636,5.27637l-7.91455,64.63427v1.31934q0,3.95727,3.95752,3.957h187.3081a10.54093,10.54093,0,0,1,8.24414,3.29785c1.979,2.20508,2.74121,5.27637,2.30859,9.2334l-9.89306,81.12305a13.40361,13.40361,0,0,1-4.6167,9.2334,13.95513,13.95513,0,0,1-9.2334,3.29785H1368.8877c-3.957,0-6.82227-1.09229-8.57374-3.29785q-2.6433-3.29224-1.979-9.2334l53.42285-436.61328q1.97827-12.52076,13.8501-12.53125h300.08936a10.54066,10.54066,0,0,1,8.24414,3.29785q2.96777,3.30762,2.3081,9.2334l-9.89306,81.123Q1724.37818,1085.26685,1712.50635,1085.262Z" transform="translate(-241.86195 -246.52369)"/><path class="cded308c-855e-476f-8c8a-5887f58beb90" d="M2071.94971,1013.7024q36.2644,34.62525,36.27441,93.98389,0,15.17944-1.31885,23.0835-5.28661,44.19433-29.34961,77.82568a162.34587,162.34587,0,0,1-61.99609,52.103q-37.93432,18.47241-84.75049,18.46728h-65.95361q-4.62231,0-5.936,5.27637L1841.11182,1428.221a14.09922,14.09922,0,0,1-4.28711,9.2334,13.64,13.64,0,0,1-9.563,3.29785h-95.63281c-3.95752,0-6.82227-1.09229-8.57422-3.29785q-2.64331-3.29224-1.97852-9.2334l53.42237-436.61328q1.979-12.52076,13.85058-12.53125H1973.019Q2035.67041,979.07643,2071.94971,1013.7024Zm-101.23877,151.69336q16.81786-14.83959,16.81787-38.583,0-19.12133-12.86084-30.33886-12.8606-11.20679-34.62549-11.21192h-51.44385q-4.62231,0-5.936,5.27637l-10.55225,84.42041c0,3.52441,1.53516,5.27637,4.6167,5.27637h52.103Q1953.8877,1180.23512,1970.71094,1165.39576Z" transform="translate(-241.86195 -246.52369)"/><path class="cded308c-855e-476f-8c8a-5887f58beb90" d="M2324.53271,1430.19947,2252.64307,992.927v-2.63818q0-11.20752,12.53125-11.2124h103.54736q11.20678,0,11.87158,10.55273l27.041,208.41357c.43261,2.20508,1.42187,3.29786,2.96777,3.29786,1.53565,0,2.74121-1.09278,3.62744-3.29786l73.86817-207.7539q3.95727-11.20752,14.50976-11.2124h75.1875q11.20679,0,11.87158,10.55273l25.72168,208.41357c.43311,2.20508,1.42237,3.29786,2.96827,3.29786,1.53515,0,2.74072-1.09278,3.62695-3.29786l72.54931-207.7539q4.60622-11.20752,15.16944-11.2124H2813.249q9.22852,0,9.23389,8.57421a17.348,17.348,0,0,1-.65967,5.27637L2656.2793,1430.19947q-4.62159,10.55787-15.169,10.55274H2543.499q-11.87183,0-11.87207-11.21192l-17.80713-218.30664c-.44336-2.19531-1.31933-3.40088-2.63818-3.62744-1.31934-.2168-2.20557.98926-2.63818,3.62744l-65.95362,218.30664q-3.95727,11.22217-14.50976,11.21192h-90.35694Q2326.501,1440.75221,2324.53271,1430.19947Z" transform="translate(-241.86195 -246.52369)"/><path class="cded308c-855e-476f-8c8a-5887f58beb90" d="M3137.07812,1085.262H2950.4292q-4.62159,0-5.936,5.27637l-7.25488,58.03906c0,3.52442,1.53565,5.27637,4.61719,5.27637h114.09961a10.53929,10.53929,0,0,1,8.24414,3.29785q2.96776,3.30762,2.30859,9.2334l-9.89306,80.46338q-1.979,12.53613-13.85059,12.53125H2928.66455c-3.52441,0-5.27637,1.76221-5.27637,5.27637l-7.91455,64.63427v1.31934q0,3.95727,3.95752,3.957h187.30811a10.54094,10.54094,0,0,1,8.24414,3.29785c1.979,2.20508,2.74121,5.27637,2.30859,9.2334l-9.89306,81.12305a13.40365,13.40365,0,0,1-4.6167,9.2334,13.95515,13.95515,0,0,1-9.2334,3.29785H2793.45947c-3.957,0-6.82226-1.09229-8.57373-3.29785q-2.6433-3.29224-1.979-9.2334l53.42285-436.61328q1.97827-12.52076,13.8501-12.53125H3150.269a10.54065,10.54065,0,0,1,8.24414,3.29785q2.96778,3.30762,2.30811,9.2334l-9.89307,81.123Q3148.95,1085.26685,3137.07812,1085.262Z" transform="translate(-241.86195 -246.52369)"/><path class="cded308c-855e-476f-8c8a-5887f58beb90" d="M3149.60547,1437.45436q-2.64331-3.29224-1.979-9.2334l53.42286-436.61328q1.97826-12.52076,13.85009-12.53125h95.63282q5.93555,0,8.57373,3.29785,2.62793,3.30762,1.979,9.2334l-40.8916,337.68261v1.31934q0,3.95727,3.95752,3.957H3477.395q5.93555,0,8.57373,3.29785,2.62792,3.30762,1.979,9.2334l-9.89306,81.12305a14.1038,14.1038,0,0,1-4.28711,9.2334,13.64127,13.64127,0,0,1-9.56348,3.29785H3158.1792C3154.22217,1440.75221,3151.35693,1439.65992,3149.60547,1437.45436Z" transform="translate(-241.86195 -246.52369)"/><path class="cded308c-855e-476f-8c8a-5887f58beb90" d="M3516.96191,1437.45436q-2.6433-3.29224-1.979-9.2334l53.42285-436.61328q1.97827-12.52076,13.8501-12.53125h95.63281q5.93554,0,8.57373,3.29785,2.62794,3.30762,1.979,9.2334l-40.89161,337.68261v1.31934q0,3.95727,3.95752,3.957h193.24414q5.93556,0,8.57374,3.29785,2.62792,3.30762,1.979,9.2334l-9.89307,81.12305a14.10375,14.10375,0,0,1-4.28711,9.2334,13.64122,13.64122,0,0,1-9.56347,3.29785H3525.53564C3521.57861,1440.75221,3518.71338,1439.65992,3516.96191,1437.45436Z" transform="translate(-241.86195 -246.52369)"/><path class="9c0f0965-19b8-4c45-95ca-765038bff6f6" d="M616.61963,1918.36207c-.26318,1.53076.63379,2.81006,2.67822,3.82666q48.96534,32.14087,48.97754,96.42432,0,7.6582-1.53076,22.958-9.95435,78.82838-67.72656,115.939-57.78955,37.12647-143.48828,37.11523H258.855c-4.59131,0-7.91553-1.26757-9.94824-3.82617q-3.06738-3.8203-2.2959-10.71387l61.98682-506.60986q2.29614-14.52832,16.0708-14.54H514.45557q86.46972,0,130.09619,28.69776,43.62084,28.69774,43.6206,94.51074,0,18.36694-1.53076,28.31494-8.42945,71.1709-65.813,104.07715C618.26953,1915.56422,616.87061,1916.8318,616.61963,1918.36207Zm-87.62354,107.90332q4.59156-42.84888-46.68164-42.855H415.73584a6.5928,6.5928,0,0,0-4.209,1.53027,5.53525,5.53525,0,0,0-1.91309,4.5918l-9.18359,75.76172v1.53027q0,4.59229,4.59179,4.5918h65.81348Q522.86744,2071.41627,528.99609,2026.26539Zm-94.894-237.99951-9.1831,71.93555c0,4.08984,1.78173,6.12255,5.35693,6.12255h58.92578q29.07422,0,44.38574-12.62695,15.29956-12.62769,15.30567-37.11572,0-16.82447-12.627-25.63672-12.627-8.78907-37.11572-8.80078H440.98975Q435.627,1782.14381,434.10205,1788.26588Z" transform="translate(-241.86195 -246.52369)"/><path class="9c0f0965-19b8-4c45-95ca-765038bff6f6" d="M1114.417,1782.14381H897.84521q-5.36278,0-6.88769,6.12207l-8.418,67.34424c0,4.08935,1.78174,6.12207,5.35693,6.12207h132.39209q6.11646,0,9.56592,3.82617,3.44385,3.83862,2.67871,10.71387l-11.47949,93.36328q-2.2954,14.54589-16.07031,14.54H872.59131c-4.08936,0-6.12207,2.04492-6.12207,6.12207l-9.1836,74.99658v1.53027q0,4.59229,4.5918,4.5918h217.33692q6.11645,0,9.56591,3.82617,3.44385,3.83936,2.67871,10.71387l-11.479,94.1289q-.77124,6.8877-5.35693,10.71387a16.196,16.196,0,0,1-10.71387,3.82617H715.71045c-4.59131,0-7.91553-1.26757-9.94824-3.82617q-3.06738-3.8203-2.2959-10.71387l61.98681-506.60986q2.29615-14.52832,16.07081-14.54h348.19873q6.11571,0,9.56543,3.82617c2.29589,2.55909,3.18066,6.12207,2.67871,10.71387l-11.479,94.12842Q1128.19165,1782.14968,1114.417,1782.14381Z" transform="translate(-241.86195 -246.52369)"/><path class="9c0f0965-19b8-4c45-95ca-765038bff6f6" d="M1277.40381,2190.79908q-3.06738-3.8203-2.2959-10.71387l61.98682-506.60986q2.29614-14.52832,16.0708-14.54h110.19922q11.47851,0,16.0708,9.94824l71.16992,150.75879a3.60642,3.60642,0,0,0,3.82666,3.061,6.61947,6.61947,0,0,0,5.35644-3.061l107.90332-150.75879q6.8877-9.936,18.3667-9.94824H1797.023q13.77465,0,12.24463,14.54l-61.98731,506.60986q-2.29541,14.5459-16.0708,14.54H1619.48c-4.08936,0-7.27-1.26757-9.56592-3.82617q-3.44385-3.8203-2.67822-10.71387l33.67187-270.14111v-1.53027c0-2.54688-.76562-3.82666-2.29589-3.82666-1.53077,0-3.32422,1.02832-5.35694,3.06152l-55.09961,78.82276q-6.88768,9.95435-18.3667,9.94873h-52.03808q-11.47924,0-16.0708-9.94873l-35.96778-78.82276c-1.53076-2.0332-3.061-3.06152-4.59179-3.06152-2.04444,0-3.32422,1.79394-3.82617,5.35693l-32.90674,270.14111q-.77124,6.8877-4.97412,10.71387-4.21509,3.8379-11.09668,3.82617H1287.35205C1282.76074,2194.62525,1279.43652,2193.35768,1277.40381,2190.79908Z" transform="translate(-241.86195 -246.52369)"/><path class="9c0f0965-19b8-4c45-95ca-765038bff6f6" d="M1807.73193,2190.79908q-3.06738-3.8203-2.29589-10.71387l61.98681-506.60986q2.29614-14.52832,16.0708-14.54H1994.458q6.88768,0,9.94873,3.82617c2.03271,2.55909,2.79785,6.12207,2.29541,10.71387l-61.98682,506.60986q-.77124,6.8877-4.97412,10.71387-4.21509,3.8379-11.09668,3.82617H1817.68018C1813.08887,2194.62525,1809.76465,2193.35768,1807.73193,2190.79908Z" transform="translate(-241.86195 -246.52369)"/><path class="9c0f0965-19b8-4c45-95ca-765038bff6f6" d="M2005.16846,2190.79908q-3.06738-3.8203-2.2959-10.71387l61.98682-506.60986q2.29614-14.52832,16.0708-14.54h106.37255q11.47926,0,16.07081,9.94824l115.55615,253.30518a3.606,3.606,0,0,0,3.82617,3.061q3.04907,0,3.82666-5.35694l29.08008-246.41748q2.29614-14.52832,16.0708-14.54h111.72949q6.11646,0,9.56592,3.82617c2.2959,2.55909,3.18066,6.12207,2.67871,10.71387l-62.75244,506.60986q-.77124,6.8877-4.97412,10.71387a14.77562,14.77562,0,0,1-10.33155,3.82617H2310.51172q-11.47924,0-16.0708-9.94824L2179.65039,1926.78c-1.02832-2.54688-2.2959-3.82617-3.82666-3.82617-1.53027,0-2.81006,1.79345-3.82617,5.35693l-29.8457,251.77441q-.77124,14.5459-16.07081,14.54H2015.1167C2010.52539,2194.62525,2007.20117,2193.35768,2005.16846,2190.79908Z" transform="translate(-241.86195 -246.52369)"/><path class="9c0f0965-19b8-4c45-95ca-765038bff6f6" d="M2493.3999,2190.79908q-3.06738-3.8203-2.2959-10.71387l61.98682-506.60986q2.29614-14.52832,16.0708-14.54h187.4917q55.85229,0,97.18945,18.36621,41.32471,18.36694,63.89991,52.03858,22.56372,33.68408,22.57568,78.82324,0,7.6582-1.53076,22.958l-22.958,191.31787q-6.134,51.279-36.73291,90.30224-30.6167,39.02784-79.20557,60.45606-48.60717,21.43359-109.05127,21.42773h-187.4917C2498.75684,2194.62525,2495.43262,2193.35768,2493.3999,2190.79908Zm151.52344-123.97461q0,4.59229,4.5918,4.5918H2711.502q24.48267,0,43.2378-20.2793,18.7434-20.26758,24.10644-53.18652l17.60108-142.34033a92.13007,92.13007,0,0,0,.76513-13.77491q0-27.55-13.7749-43.6206-13.77466-16.07081-37.49805-16.0708h-60.45654q-5.3628,0-6.8877,6.12207l-33.67187,277.02832Z" transform="translate(-241.86195 -246.52369)"/><path class="9c0f0965-19b8-4c45-95ca-765038bff6f6" d="M3359.687,1782.14381H3143.88037q-5.36279,0-6.88769,6.12207l-8.418,67.34424c0,4.08935,1.78174,6.12207,5.35693,6.12207h132.39209q6.11646,0,9.56592,3.82617,3.44385,3.83862,2.67871,10.71387l-11.47949,93.36328q-2.29542,14.54589-16.07032,14.54H3118.62646c-4.08935,0-6.12207,2.04492-6.12207,6.12207l-23.72363,189.78759q-.77124,6.8877-4.97412,10.71387-4.21509,3.8379-11.09668,3.82617H2961.74561c-4.59131,0-7.91553-1.26757-9.94825-3.82617q-3.06738-3.8203-2.2959-10.71387l61.98682-506.60986q2.29614-14.52832,16.0708-14.54h347.43311q6.11645,0,9.56592,3.82617c2.29589,2.55909,3.18066,6.12207,2.67871,10.71387l-11.479,94.12842Q3373.46167,1782.14968,3359.687,1782.14381Z" transform="translate(-241.86195 -246.52369)"/><path class="9c0f0965-19b8-4c45-95ca-765038bff6f6" d="M3425.49023,2156.36158q-48.9829-44.373-48.977-120.14746,0-9.18311,1.53028-27.5498l41.3247-335.189q2.29615-14.52832,16.0708-14.54h110.96436q14.52833,0,13.00977,14.54l-41.32471,335.189a69.0407,69.0407,0,0,0-.76563,12.24414q0,26.02513,14.92286,41.32519,14.9231,15.31641,40.94238,15.30469,28.303,0,48.21191-18.749,19.89111-18.74268,23.72315-50.125l40.55957-335.189a15.53274,15.53274,0,0,1,5.35693-10.71387,16.23411,16.23411,0,0,1,10.71387-3.82617h111.72949q6.11646,0,9.56592,3.82617c2.2959,2.55909,3.18066,6.12207,2.67871,10.71387l-41.32471,335.189q-6.88768,57.3955-37.88086,101.01562a207.91446,207.91446,0,0,1-79.58838,67.34375q-48.60717,23.73047-109.05127,23.72363Q3474.46167,2200.74732,3425.49023,2156.36158Z" transform="translate(-241.86195 -246.52369)"/><path class="9c0f0965-19b8-4c45-95ca-765038bff6f6" d="M3820.36475,2190.79908q-3.0674-3.8203-2.2959-10.71387l61.98681-506.60986q2.29615-14.52832,16.0708-14.54h110.96436q6.8877,0,9.94873,3.82617c2.03272,2.55909,2.79785,6.12207,2.29541,10.71387l-47.44678,391.81885v1.53027q0,4.59229,4.5918,4.5918H4200.7041q6.8877,0,9.94922,3.82617,3.04835,3.83936,2.2959,10.71387l-11.47949,94.1289q-.77052,6.8877-4.97461,10.71387-4.21435,3.8379-11.09571,3.82617H3830.313C3825.72168,2194.62525,3822.39746,2193.35768,3820.36475,2190.79908Z" transform="translate(-241.86195 -246.52369)"/><path class="a5e8d4b7-2df4-4254-abfc-47091df7e5b6" d="M243.60547,2772.0276q-2.18188-2.71875-1.6333-7.62207l44.09814-360.40625q1.63331-10.33448,11.43262-10.34375h78.94092q4.8999,0,7.07763,2.72265,2.16872,2.73048,1.63331,7.6211l-33.75391,278.74316v1.08887q0,3.26659,3.26611,3.2666H514.18213q4.8999,0,7.07715,2.72168,2.16944,2.73047,1.6333,7.62207l-8.166,66.96387a11.641,11.641,0,0,1-3.53906,7.62207,11.26082,11.26082,0,0,1-7.894,2.72168H250.68311C247.4165,2774.74928,245.05176,2773.84791,243.60547,2772.0276Z" transform="translate(-241.86195 -246.52369)"/><path class="a5e8d4b7-2df4-4254-abfc-47091df7e5b6" d="M610.2749,2766.03834q-29.67919-15.23437-45.731-43.00879-16.065-27.76611-16.06055-65.33008a157.78423,157.78423,0,0,1,1.6333-22.32129l12.52148-102.35156q5.436-42.46435,27.76563-75.12891a151.72311,151.72311,0,0,1,57.98047-50.63183q35.65064-17.96484,79.75732-17.96582,40.2832,0,70.23,14.97168,29.93481,14.98095,46.00391,42.46484,16.05175,27.498,16.06006,64.51367a154.14289,154.14289,0,0,1-1.6333,21.77637l-12.52149,102.35156q-4.8999,43.56153-27.49316,76.49024a154.71265,154.71265,0,0,1-58.5249,51.17578q-35.93188,18.23438-80.02979,18.23828Q639.93726,2781.28248,610.2749,2766.03834ZM728.686,2678.65943q15.23509-14.96777,17.96582-40.01464l13.0664-106.70606a65.56183,65.56183,0,0,0,.54444-9.7998q0-20.68361-11.43311-32.9375-11.43237-12.249-31.57617-12.25-21.78077,0-37.02051,14.97168-15.24829,14.98095-17.96582,40.01562l-13.06641,106.70606a64.39139,64.39139,0,0,0-.54394,9.79882q0,20.69678,11.43262,32.9375,11.4331,12.2505,31.03173,12.25Q713.438,2693.63111,728.686,2678.65943Z" transform="translate(-241.86195 -246.52369)"/><path class="a5e8d4b7-2df4-4254-abfc-47091df7e5b6" d="M939.919,2766.03834l-58.79737-360.9502v-2.17773q0-9.25049,9.79981-9.25488h86.01806q8.70264,0,10.34424,9.25488l23.41016,223.21191c.72265,1.82129,1.63281,2.72266,2.72168,2.72266s1.99072-.90137,2.72217-2.72266l77.30761-223.21191q2.718-9.25049,11.977-9.25488h83.84082q8.16651,0,8.166,5.98926a12.144,12.144,0,0,1-1.08838,5.44335l-148.08252,360.9502a15.108,15.108,0,0,1-4.89941,6.26074,12.35547,12.35547,0,0,1-7.62207,2.4502H950.26318Q941.54809,2774.74928,939.919,2766.03834Z" transform="translate(-241.86195 -246.52369)"/><path class="a5e8d4b7-2df4-4254-abfc-47091df7e5b6" d="M1478.34521,2481.30689h-154.0708q-3.81517,0-4.8999,4.35547l-5.98828,47.90918c0,2.90918,1.26709,4.35547,3.81055,4.35547h94.18457a8.70076,8.70076,0,0,1,6.80517,2.72168q2.44995,2.73047,1.90577,7.62207l-8.16651,66.419q-1.63331,10.34911-11.43262,10.34472h-94.18457c-2.90918,0-4.35547,1.45411-4.35547,4.3545l-6.53271,53.35351v1.08887q0,3.26659,3.26611,3.2666h154.61524a8.70146,8.70146,0,0,1,6.80517,2.72168q2.45,2.73047,1.90577,7.62207l-8.16651,66.96387a11.0665,11.0665,0,0,1-3.811,7.62207,11.52067,11.52067,0,0,1-7.62159,2.72168H1194.70264c-3.2666,0-5.63135-.90137-7.07764-2.72168q-2.18188-2.71875-1.6333-7.62207l44.09814-360.40625q1.6333-10.33448,11.43262-10.34375H1489.2334a8.69877,8.69877,0,0,1,6.80517,2.72265q2.45,2.73048,1.90577,7.6211l-8.16651,66.96386Q1488.14453,2481.31227,1478.34521,2481.30689Z" transform="translate(-241.86195 -246.52369)"/><path class="a5e8d4b7-2df4-4254-abfc-47091df7e5b6" d="M1695.8291,2770.93873q-2.44995-2.71875-1.90527-7.62207l14.69922-117.05078a19.33355,19.33355,0,0,0-.54444-5.44336L1630.771,2405.63307a9.26975,9.26975,0,0,1-.54444-3.81153q0-8.165,9.79981-8.166h86.01806q8.70264,0,10.88868,8.166l33.20947,125.76172q1.08471,2.18115,2.44971,2.17774,1.35277,0,2.45019-2.17774l64.24121-125.76172q3.80274-8.165,12.52149-8.166h86.563q8.7019,0,8.71045,5.98926c0,1.08886-.73144,3.08789-2.17773,5.98828l-136.10449,235.18945a43.4473,43.4473,0,0,0-1.6333,5.44336l-14.15479,117.05078q-1.63331,10.34766-11.4331,10.34375h-78.94092A8.66014,8.66014,0,0,1,1695.8291,2770.93873Z" transform="translate(-241.86195 -246.52369)"/><path class="a5e8d4b7-2df4-4254-abfc-47091df7e5b6" d="M1985.46191,2766.03834q-29.67919-15.23437-45.73095-43.00879-16.06494-27.76611-16.06055-65.33008a157.78423,157.78423,0,0,1,1.6333-22.32129l12.52149-102.35156q5.436-42.46435,27.76562-75.12891a151.72311,151.72311,0,0,1,57.98047-50.63183q35.65063-17.96484,79.75732-17.96582,40.28321,0,70.23,14.97168,29.93482,14.98095,46.00391,42.46484,16.05175,27.498,16.06006,64.51367a154.14289,154.14289,0,0,1-1.6333,21.77637l-12.52149,102.35156q-4.8999,43.56153-27.49316,76.49024a154.71265,154.71265,0,0,1-58.5249,51.17578q-35.93188,18.23438-80.02979,18.23828Q2015.12427,2781.28248,1985.46191,2766.03834Zm118.41114-87.37891q15.23511-14.96777,17.96582-40.01464l13.0664-106.70606a65.56183,65.56183,0,0,0,.54444-9.7998q0-20.68361-11.43311-32.9375-11.43237-12.249-31.57617-12.25-21.78077,0-37.02051,14.97168-15.24829,14.98095-17.96582,40.01562l-13.0664,106.70606a64.38979,64.38979,0,0,0-.54395,9.79882q0,20.69678,11.43262,32.9375,11.4331,12.2505,31.03174,12.25Q2088.625,2693.63111,2103.87305,2678.65943Z" transform="translate(-241.86195 -246.52369)"/><path class="a5e8d4b7-2df4-4254-abfc-47091df7e5b6" d="M2288.42627,2747.52857q-34.84717-31.56883-34.84277-85.47363,0-6.5332,1.08886-19.59961l29.39844-238.456q1.6333-10.33448,11.43311-10.34375h78.94043q10.33593,0,9.25537,10.34375l-29.39893,238.456a49.12743,49.12743,0,0,0-.54443,8.71094q0,18.51415,10.61621,29.39844,10.61646,10.897,29.12646,10.88867,20.135,0,34.29834-13.33887,14.15114-13.333,16.87744-35.65918l28.854-238.456a11.0494,11.0494,0,0,1,3.811-7.6211,11.54568,11.54568,0,0,1,7.62159-2.72265h79.48535a8.69877,8.69877,0,0,1,6.80517,2.72265q2.45,2.73048,1.90576,7.6211l-29.39892,238.456q-4.8999,40.83107-26.94873,71.86328a147.907,147.907,0,0,1-56.61963,47.90918q-34.57909,16.88087-77.57959,16.877Q2323.2649,2779.10475,2288.42627,2747.52857Z" transform="translate(-241.86195 -246.52369)"/><path class="a5e8d4b7-2df4-4254-abfc-47091df7e5b6" d="M2752.26709,2767.12721l-40.83154-135.56055q-.5486-3.26659-4.89991-3.2666h-18.51025q-4.8999,0-4.8999,4.35547l-16.33252,131.75a11.64286,11.64286,0,0,1-3.53858,7.62207,11.26082,11.26082,0,0,1-7.894,2.72168h-78.94092c-3.2666,0-5.63134-.90137-7.07763-2.72168q-2.18189-2.71875-1.6333-7.62207l44.09814-360.40625q1.63331-10.33448,11.43262-10.34375h157.88183q48.99756,0,77.852,27.76562,28.8501,27.76465,28.854,75.12989,0,5.44775-1.08887,18.50976-4.36377,35.39649-24.22656,62.06445a120.161,120.161,0,0,1-51.44776,39.74219q-3.81518,1.63331-2.72167,5.44434l47.36425,140.46a12.25362,12.25362,0,0,1,.54444,3.81152q0,8.16651-9.25537,8.166h-84.38477Q2753.89575,2774.74928,2752.26709,2767.12721Zm-51.17578-281.46485-7.62158,60.43067c0,2.90918,1.26709,4.35547,3.81054,4.35547h47.90918q18.50172,0,30.75977-10.88868,12.249-10.88379,12.24951-28.30957,0-13.60254-9.52734-21.77636-9.53175-8.16651-24.77149-8.167h-47.90869Q2702.176,2481.30689,2701.09131,2485.66236Z" transform="translate(-241.86195 -246.52369)"/><path class="a5e8d4b7-2df4-4254-abfc-47091df7e5b6" d="M2933.00586,2750.25025q-35.39576-28.85009-35.38721-77.30761,0-4.8999,1.08887-15.78809l1.08887-5.44434a11.57869,11.57869,0,0,1,3.53857-7.62109,10.51741,10.51741,0,0,1,7.34961-2.72266h77.852q10.33595,0,9.25537,5.44434l-.54443,5.98828q-1.6333,14.69972,11.97705,26.67676,13.6018,11.98095,37.02051,11.97754,21.23217,0,30.48779-9.79981,9.25048-9.7998,9.25488-20.14355,0-10.88379-10.07177-16.333-10.08033-5.43457-35.11524-13.06543l-14.69922-4.90039q-46.27953-14.69825-77.57959-38.92578-31.3125-24.21826-31.3042-69.41309,0-38.10058,20.41553-67.50781,20.41626-29.39941,55.53076-45.73144,35.11524-16.333,77.03565-16.333,38.10059,0,68.3247,13.61035,30.21534,13.61573,47.09229,38.92676,16.8684,25.31543,16.87695,57.98047,0,4.8999-1.08886,15.78808l-.54444,2.72168a11.64065,11.64065,0,0,1-3.53857,7.62207,10.51259,10.51259,0,0,1-7.3501,2.72266h-77.85156q-10.34839,0-9.25537-4.35547l.54443-4.35547q1.6333-16.333-11.16064-29.6709-12.79761-13.33448-36.74805-13.33886-17.96631,0-28.85449,7.89453-10.897,7.89843-10.88819,21.50488,0,12.53028,14.42725,20.96,14.41845,8.44629,54.71387,22.04883,4.3513,1.63331,33.48193,11.16016a107.544,107.544,0,0,1,48.72559,32.12109q19.59886,22.59814,19.59912,54.16992,0,39.19776-20.416,69.1416-20.41552,29.94727-56.61963,46.54785-36.2124,16.6128-81.39062,16.6045Q2968.38477,2779.10475,2933.00586,2750.25025Z" transform="translate(-241.86195 -246.52369)"/><path class="a5e8d4b7-2df4-4254-abfc-47091df7e5b6" d="M3500.28809,2481.30689h-154.0708q-3.81519,0-4.89991,4.35547l-5.98828,47.90918c0,2.90918,1.26709,4.35547,3.81055,4.35547h94.18457a8.70076,8.70076,0,0,1,6.80517,2.72168q2.45,2.73047,1.90577,7.62207l-8.16651,66.419q-1.63329,10.34911-11.43261,10.34472h-94.18458c-2.90917,0-4.35546,1.45411-4.35546,4.3545l-6.53272,53.35351v1.08887q0,3.26659,3.26611,3.2666h154.61524a8.70146,8.70146,0,0,1,6.80517,2.72168q2.45,2.73047,1.90577,7.62207l-8.16651,66.96387a11.0665,11.0665,0,0,1-3.811,7.62207,11.52065,11.52065,0,0,1-7.62158,2.72168H3216.64551c-3.2666,0-5.63135-.90137-7.07764-2.72168q-2.18188-2.71875-1.6333-7.62207l44.09814-360.40625q1.6333-10.33448,11.43262-10.34375h247.71094a8.6988,8.6988,0,0,1,6.80518,2.72265q2.45,2.73048,1.90576,7.6211l-8.16651,66.96386Q3510.08741,2481.31227,3500.28809,2481.30689Z" transform="translate(-241.86195 -246.52369)"/><path class="a5e8d4b7-2df4-4254-abfc-47091df7e5b6" d="M3510.62842,2772.0276q-2.18188-2.71875-1.6333-7.62207l44.09814-360.40625q1.6333-10.33448,11.43262-10.34375h78.94092q4.8999,0,7.07763,2.72265,2.1687,2.73048,1.6333,7.6211l-33.7539,278.74316v1.08887q0,3.26659,3.26611,3.2666h159.51514q4.8999,0,7.07715,2.72168,2.16944,2.73047,1.6333,7.62207l-8.166,66.96387a11.641,11.641,0,0,1-3.53906,7.62207,11.26082,11.26082,0,0,1-7.894,2.72168H3517.70605C3514.43945,2774.74928,3512.07471,2773.84791,3510.62842,2772.0276Z" transform="translate(-241.86195 -246.52369)"/><path class="a5e8d4b7-2df4-4254-abfc-47091df7e5b6" d="M4104.041,2481.30689H3950.51514q-3.81519,0-4.89991,4.35547l-5.98828,47.90918c0,2.90918,1.26709,4.35547,3.81055,4.35547h94.18457a8.70079,8.70079,0,0,1,6.80518,2.72168q2.44995,2.73047,1.90576,7.62207l-8.16651,66.419q-1.63329,10.34911-11.43261,10.34472h-94.18457c-2.90918,0-4.35547,1.45411-4.35547,4.3545l-16.877,135.0166a11.6429,11.6429,0,0,1-3.53857,7.62207,11.26082,11.26082,0,0,1-7.894,2.72168h-78.94092c-3.2666,0-5.63135-.90137-7.07764-2.72168q-2.18188-2.71875-1.6333-7.62207l44.09815-360.40625q1.63329-10.33448,11.43261-10.34375h247.16651a8.70125,8.70125,0,0,1,6.80566,2.72265q2.44921,2.73048,1.90527,7.6211l-8.166,66.96386Q4113.84131,2481.31227,4104.041,2481.30689Z" transform="translate(-241.86195 -246.52369)"/><path class="9c0f0965-19b8-4c45-95ca-765038bff6f6" d="M4722.833,2396.37818q2.44922,2.73048,1.90527,7.6211l-8.166,67.50879q-1.6333,10.34765-11.4336,10.34375H4620.21q-3.81591,0-4.90039,4.35547l-34.29785,278.19824a11.64558,11.64558,0,0,1-3.53906,7.62207,10.51068,10.51068,0,0,1-7.34961,2.72168H4490.6377c-3.26661,0-5.63086-.90137-7.07715-2.72168q-2.18262-2.71875-1.63379-7.62207l34.29883-278.19824c0-2.90137-1.27637-4.35547-3.81055-4.35547h-82.208q-10.34766,0-9.25488-10.34375l8.71094-67.50879a11.58054,11.58054,0,0,1,3.53808-7.6211,10.519,10.519,0,0,1,7.35059-2.72265h275.47558A8.70127,8.70127,0,0,1,4722.833,2396.37818Z" transform="translate(-241.86195 -246.52369)"/><path class="9c0f0965-19b8-4c45-95ca-765038bff6f6" d="M4910.38672,2766.03834l-5.98828-39.19824a3.37263,3.37263,0,0,0-1.36133-2.72168,4.70277,4.70277,0,0,0-2.99414-1.08887H4790.61523c-2.17773,0-3.999,1.27539-5.44433,3.81055l-15.24414,39.19824q-3.26661,8.71583-11.97754,8.71094h-86.01758q-7.63036,0-7.62207-6.53321a12.05574,12.05574,0,0,1,1.08887-5.44433l154.07031-360.40528q3.2666-8.70262,11.97754-8.71093h108.88379q8.1665,0,9.7998,8.71093l65.874,360.40528v2.17773q0,9.79981-10.34375,9.79981h-85.47364Q4910.92285,2774.74928,4910.38672,2766.03834Zm-91.46192-125.21582q0,3.81446,3.26661,3.81055h65.33007a4.79017,4.79017,0,0,0,3.53907-1.36133,3.499,3.499,0,0,0,.8164-3.53809l-17.96582-125.76172c-.36621-1.81152-1.18261-2.72168-2.45019-2.72168q-1.91308,0-2.99414,2.72168l-49.542,125.76172Z" transform="translate(-241.86195 -246.52369)"/><path class="9c0f0965-19b8-4c45-95ca-765038bff6f6" d="M5051.38867,2772.0276q-2.18262-2.71875-1.63379-7.62207l44.09864-360.40625q1.63184-10.33448,11.43261-10.34375h78.94043q4.8999,0,7.07715,2.72265,2.16943,2.73048,1.63379,7.6211l-15.24414,124.67285v.54394c0,1.82032.54492,2.81543,1.63379,2.99414q1.6333.28125,3.81055-1.90527l105.07324-130.11621a15.5212,15.5212,0,0,1,13.06543-6.5332h89.83008q7.06786,0,7.07714,5.44433,0,2.73048-3.2666,7.07715L5269.7002,2559.70338q-2.18117,3.2666-1.08887,5.98926l87.65137,196.53515,1.08886,4.35547q0,8.16651-9.79883,8.166h-89.28515q-8.16651,0-10.34375-7.07715L5192.39258,2637.011a2.439,2.439,0,0,0-2.44922-2.17774,3.31907,3.31907,0,0,0-2.99414,2.17774l-24.499,32.12109a12.76314,12.76314,0,0,0-2.72266,5.44434l-10.8877,89.8291a11.64553,11.64553,0,0,1-3.53906,7.62207,11.26208,11.26208,0,0,1-7.89453,2.72168h-78.94043C5055.19922,2774.74928,5052.834,2773.84791,5051.38867,2772.0276Z" transform="translate(-241.86195 -246.52369)"/><path class="9c0f0965-19b8-4c45-95ca-765038bff6f6" d="M5678.00879,2481.30689H5523.9375q-3.81446,0-4.89941,4.35547l-5.98829,47.90918c0,2.90918,1.26758,4.35547,3.81055,4.35547h94.18457a8.704,8.704,0,0,1,6.80567,2.72168q2.44922,2.73047,1.90527,7.62207l-8.166,66.419q-1.63329,10.34911-11.43359,10.34472h-94.18457c-2.90918,0-4.35449,1.45411-4.35449,4.3545l-6.53321,53.35351v1.08887q0,3.26659,3.26661,3.2666h154.61523a8.70041,8.70041,0,0,1,6.80469,2.72168c1.63379,1.82031,2.26269,4.35547,1.90527,7.62207l-8.166,66.96387a11.06806,11.06806,0,0,1-3.81055,7.62207,11.52193,11.52193,0,0,1-7.62207,2.72168H5394.36621c-3.2666,0-5.63183-.90137-7.07715-2.72168q-2.18262-2.71875-1.63379-7.62207l44.09864-360.40625q1.63183-10.33448,11.43261-10.34375h247.71094a8.69772,8.69772,0,0,1,6.80469,2.72265c1.63379,1.82032,2.26269,4.35547,1.90527,7.6211l-8.166,66.96386Q5687.80811,2481.31227,5678.00879,2481.30689Z" transform="translate(-241.86195 -246.52369)"/><path class="9c0f0965-19b8-4c45-95ca-765038bff6f6" d="M6030.23633,2766.03834l-5.98828-39.19824a3.37263,3.37263,0,0,0-1.36133-2.72168,4.70277,4.70277,0,0,0-2.99414-1.08887H5910.46484c-2.17773,0-3.999,1.27539-5.44433,3.81055l-15.24414,39.19824q-3.26661,8.71583-11.97754,8.71094h-86.01758q-7.63036,0-7.62207-6.53321a12.05574,12.05574,0,0,1,1.08887-5.44433l154.07031-360.40528q3.26659-8.70262,11.97754-8.71093h108.88379q8.1665,0,9.7998,8.71093l65.874,360.40528v2.17773q0,9.79981-10.34375,9.79981h-85.47364Q6030.77246,2774.74928,6030.23633,2766.03834Zm-91.46192-125.21582q0,3.81446,3.26661,3.81055h65.33007a4.79017,4.79017,0,0,0,3.53907-1.36133,3.499,3.499,0,0,0,.8164-3.53809l-17.96582-125.76172c-.36621-1.81152-1.18262-2.72168-2.45019-2.72168q-1.91309,0-2.99414,2.72168l-49.542,125.76172Z" transform="translate(-241.86195 -246.52369)"/><path class="9c0f0965-19b8-4c45-95ca-765038bff6f6" d="M6538.44043,2578.21412c-.18652,1.08887.45117,1.999,1.90625,2.72168q34.834,22.86621,34.84277,68.59668,0,5.44922-1.08886,16.333-7.08252,56.07861-48.18164,82.47949-41.11232,26.4126-102.07813,26.4043h-139.916c-3.2666,0-5.63183-.90137-7.07714-2.72168q-2.18262-2.71875-1.63379-7.62207l44.09863-360.40625q1.63184-10.33448,11.43262-10.34375h135.01562q61.51466,0,92.55176,20.416,31.03125,20.41552,31.03125,67.23535a141.60781,141.60781,0,0,1-1.08887,20.14356q-5.99706,50.63087-46.81933,74.041C6539.61426,2576.22291,6538.61914,2577.12525,6538.44043,2578.21412Zm-62.33594,76.7627q3.26661-30.4834-33.209-30.48731h-47.36524a4.6926,4.6926,0,0,0-2.99414,1.08887,3.93782,3.93782,0,0,0-1.36035,3.2666l-6.5332,53.89746v1.08887q0,3.26659,3.2666,3.2666h46.81934Q6471.74512,2687.09791,6476.10449,2654.97682Zm-67.50781-169.31446-6.5332,51.17578c0,2.90918,1.26757,4.35547,3.81152,4.35547h41.91992q20.68359,0,31.57617-8.9834,10.88379-8.98242,10.88868-26.40429,0-11.96778-8.9834-18.23828-8.98242-6.252-26.4043-6.26075h-41.376Q6409.68164,2481.30689,6408.59668,2485.66236Z" transform="translate(-241.86195 -246.52369)"/><path class="9c0f0965-19b8-4c45-95ca-765038bff6f6" d="M6784.78223,2767.12721l-40.832-135.56055q-.54786-3.26659-4.89942-3.2666H6720.54q-4.89844,0-4.89942,4.35547l-16.332,131.75a11.64553,11.64553,0,0,1-3.53906,7.62207,11.26208,11.26208,0,0,1-7.89453,2.72168h-78.94043c-3.2666,0-5.63184-.90137-7.07715-2.72168q-2.18262-2.71875-1.63379-7.62207l44.09864-360.40625q1.63184-10.33448,11.43261-10.34375h157.88086q48.999,0,77.85254,27.76562,28.8501,27.76465,28.85449,75.12989,0,5.44775-1.08886,18.50976-4.36377,35.39649-24.22657,62.06445a120.16826,120.16826,0,0,1-51.44824,39.74219q-3.81445,1.63331-2.72168,5.44434l47.36426,140.46a12.25432,12.25432,0,0,1,.54394,3.81152q0,8.16651-9.25488,8.166H6795.126Q6786.41163,2774.74928,6784.78223,2767.12721Zm-51.17578-281.46485-7.62207,60.43067c0,2.90918,1.26757,4.35547,3.81152,4.35547h47.9082q18.50244,0,30.75977-10.88868,12.25049-10.88379,12.25-28.30957,0-13.60254-9.52735-21.77636-9.53174-8.16651-24.77148-8.167h-47.90918Q6734.69141,2481.30689,6733.60645,2485.66236Z" transform="translate(-241.86195 -246.52369)"/><path class="9c0f0965-19b8-4c45-95ca-765038bff6f6" d="M7217.58691,2481.30689H7063.51562q-3.81444,0-4.89941,4.35547l-5.98828,47.90918c0,2.90918,1.26758,4.35547,3.81055,4.35547h94.18457a8.70394,8.70394,0,0,1,6.80566,2.72168q2.44922,2.73047,1.90527,7.62207l-8.166,66.419q-1.63331,10.34911-11.43359,10.34472H7045.5498c-2.90918,0-4.35449,1.45411-4.35449,4.3545l-6.5332,53.35351v1.08887q0,3.26659,3.2666,3.2666H7192.544a8.70039,8.70039,0,0,1,6.80468,2.72168c1.63379,1.82031,2.2627,4.35547,1.90528,7.62207l-8.166,66.96387a11.068,11.068,0,0,1-3.81055,7.62207,11.52191,11.52191,0,0,1-7.62207,2.72168H6933.94434c-3.26661,0-5.63184-.90137-7.07715-2.72168q-2.18262-2.71875-1.63379-7.62207l44.09863-360.40625q1.63184-10.33448,11.43262-10.34375h247.71094a8.69769,8.69769,0,0,1,6.80468,2.72265c1.63379,1.82032,2.2627,4.35547,1.90528,7.6211l-8.166,66.96386Q7227.38623,2481.31227,7217.58691,2481.30689Z" transform="translate(-241.86195 -246.52369)"/><path class="9c0f0965-19b8-4c45-95ca-765038bff6f6" d="M7464.20508,2766.03834l-5.98828-39.19824a3.37263,3.37263,0,0,0-1.36133-2.72168,4.70277,4.70277,0,0,0-2.99414-1.08887H7344.43359c-2.17773,0-3.999,1.27539-5.44433,3.81055l-15.24414,39.19824q-3.26661,8.71583-11.97754,8.71094H7225.75q-7.63036,0-7.62207-6.53321a12.05574,12.05574,0,0,1,1.08887-5.44433l154.07031-360.40528q3.26659-8.70262,11.97754-8.71093h108.88379q8.1665,0,9.7998,8.71093l65.874,360.40528v2.17773q0,9.79981-10.34375,9.79981h-85.47364Q7464.74121,2774.74928,7464.20508,2766.03834Zm-91.46192-125.21582q0,3.81446,3.26661,3.81055h65.33007a4.79017,4.79017,0,0,0,3.53907-1.36133,3.499,3.499,0,0,0,.8164-3.53809l-17.96582-125.76172c-.36621-1.81152-1.18261-2.72168-2.45019-2.72168q-1.91309,0-2.99414,2.72168l-49.542,125.76172Z" transform="translate(-241.86195 -246.52369)"/><path class="9c0f0965-19b8-4c45-95ca-765038bff6f6" d="M7605.207,2772.0276q-2.18262-2.71875-1.63379-7.62207l44.09864-360.40625q1.63184-10.33448,11.43261-10.34375h78.94043q4.8999,0,7.07715,2.72265,2.16943,2.73048,1.63379,7.6211l-15.24414,124.67285v.54394c0,1.82032.54492,2.81543,1.63379,2.99414q1.6333.28125,3.81054-1.90527l105.07325-130.11621a15.5212,15.5212,0,0,1,13.06543-6.5332h89.83007q7.06788,0,7.07715,5.44433,0,2.73048-3.2666,7.07715l-125.2168,153.52637q-2.18115,3.2666-1.08886,5.98926l87.65136,196.53515,1.08887,4.35547q0,8.16651-9.79883,8.166h-89.28515q-8.16651,0-10.34375-7.07715L7746.21094,2637.011a2.439,2.439,0,0,0-2.44922-2.17774,3.31906,3.31906,0,0,0-2.99414,2.17774l-24.499,32.12109a12.76322,12.76322,0,0,0-2.72265,5.44434l-10.8877,89.8291a11.64553,11.64553,0,0,1-3.53906,7.62207,11.26208,11.26208,0,0,1-7.89453,2.72168h-78.94043C7609.01758,2774.74928,7606.65234,2773.84791,7605.207,2772.0276Z" transform="translate(-241.86195 -246.52369)"/><path class="cded308c-855e-476f-8c8a-5887f58beb90" d="M321.91016,3622.23072q-62.53125-50.96776-62.51661-136.57422,0-8.65575,1.92383-27.89257l1.92334-9.61719c.63135-5.77149,2.72022-10.249,6.252-13.46582a18.58635,18.58635,0,0,1,12.98388-4.8086H420.0127q18.25928,0,16.35058,9.61817l-.96191,10.5791q-2.88574,25.96875,21.15918,47.12793,24.03,21.167,65.40185,21.15918,37.50953,0,53.86035-17.31152,16.34253-17.313,16.3501-35.58692,0-19.22754-17.793-28.85351-17.80811-9.60205-62.03515-23.083l-25.96875-8.65625q-81.75953-25.96729-137.05469-68.76758-55.31836-42.78516-55.30322-122.62793,0-67.311,36.06738-119.26269,36.06665-51.936,98.10254-80.79,62.03539-28.853,136.09326-28.85352,67.31031,0,120.70459,24.04492,53.37964,24.05127,83.19482,68.76758,29.80079,44.72314,29.81543,102.43066,0,8.65577-1.92334,27.89161l-.96191,4.80957q-.969,8.65575-6.25146,13.46484a18.5689,18.5689,0,0,1-12.98438,4.80859H638.33887q-18.28125,0-16.3501-7.69433l.96143-7.69434q2.88573-28.853-19.71631-52.417-22.60988-23.55615-64.9209-23.56445-31.73951,0-50.9751,13.94629-19.251,13.9541-19.23584,37.99121,0,22.13524,25.48779,37.02832,25.47217,14.92236,96.65967,38.95312,7.68677,2.88428,59.1499,19.71582,51.44092,16.83984,86.08057,56.7461,34.62452,39.92138,34.62451,95.69824,0,69.249-36.06738,122.14746-36.06738,52.90577-100.02637,82.23242-63.97338,29.34961-143.7876,29.335Q384.41162,3673.20533,321.91016,3622.23072Z" transform="translate(-241.86195 -246.52369)"/><path class="cded308c-855e-476f-8c8a-5887f58beb90" d="M1316.396,3042.75221q52.88379,50.49316,52.89843,137.05468,0,22.13673-1.92334,33.66309-7.70946,64.44726-42.7998,113.49121-35.12037,49.0503-90.4082,75.98145-55.31763,26.937-123.58985,26.92968H1014.394q-6.73974,0-8.65625,7.69434l-25.96826,209.66992q-.969,8.65724-6.25146,13.46582-5.29761,4.82373-13.9458,4.8086h-139.46c-5.7705,0-9.94824-1.59278-12.50292-4.8086q-3.85474-4.80176-2.88575-13.46582l77.90528-636.70508q2.885-18.25781,20.19775-18.27343h269.30078Q1263.49048,2992.25807,1316.396,3042.75221Zm-147.63477,221.21191q24.52589-21.64159,24.52588-56.26562,0-27.8833-18.75488-44.24219-18.75513-16.34179-50.49414-16.35059h-75.01954q-6.74048,0-8.65625,7.69434l-15.38867,123.10937c0,5.13965,2.23926,7.69434,6.73291,7.69434h75.981Q1144.228,3285.60377,1168.76123,3263.96412Z" transform="translate(-241.86195 -246.52369)"/><path class="cded308c-855e-476f-8c8a-5887f58beb90" d="M1883.83789,3147.10572H1611.65137q-6.73976,0-8.65625,7.69434l-10.57959,84.63769c0,5.13965,2.23926,7.69434,6.73242,7.69434h166.39014q7.68677,0,12.022,4.80957,4.32861,4.82373,3.3667,13.46484l-14.42725,117.33789q-2.885,18.28272-20.19726,18.27442H1579.9126c-5.13965,0-7.69434,2.56933-7.69434,7.69433l-11.5415,94.25489v1.92383q0,5.77147,5.77051,5.7705H1839.5957q7.68676,0,12.02246,4.80957,4.32789,4.82373,3.36622,13.46485l-14.42676,118.2998q-.96974,8.65724-6.73242,13.46582a20.35391,20.35391,0,0,1-13.46534,4.8086H1382.74561c-5.771,0-9.94873-1.59278-12.50342-4.8086q-3.85474-4.80176-2.88526-13.46582l77.90479-636.70508q2.88575-18.25781,20.19775-18.27343h437.61426q7.68676,0,12.02246,4.80859,4.32789,4.82373,3.36621,13.46484l-14.42676,118.30079Q1901.15063,3147.11354,1883.83789,3147.10572Z" transform="translate(-241.86195 -246.52369)"/><path class="cded308c-855e-476f-8c8a-5887f58beb90" d="M2319.52344,3650.12232l-10.58008-69.249a5.96139,5.96139,0,0,0-2.4043-4.80859,8.31472,8.31472,0,0,0-5.28955-1.92383H2107.92969c-3.84717,0-7.06348,2.25391-9.61817,6.73242l-26.93017,69.249q-5.77076,15.39552-21.15918,15.38868H1898.25928q-13.48023,0-13.46533-11.541a21.28953,21.28953,0,0,1,1.92382-9.61816l272.18653-636.70508q5.77074-15.37354,21.15918-15.38867h192.3584q14.42651,0,17.312,15.38867l116.37646,636.70508v3.84668q0,17.313-18.27392,17.3125h-151.001Q2320.47021,3665.511,2319.52344,3650.12232Zm-161.58106-221.21191q0,6.73974,5.771,6.73242h115.41455a8.46,8.46,0,0,0,6.25195-2.40429,6.18278,6.18278,0,0,0,1.44239-6.252l-31.73877-222.17285c-.64649-3.20117-2.08887-4.80957-4.32813-4.80957q-3.38159,0-5.29,4.80957l-87.523,222.17285Z" transform="translate(-241.86195 -246.52369)"/><path class="cded308c-855e-476f-8c8a-5887f58beb90" d="M2568.62012,3660.7024q-3.85475-4.80176-2.88526-13.46582l77.90479-636.70508q2.88574-18.25781,20.19775-18.27343h139.45948q8.65575,0,12.50341,4.80859,3.832,4.82373,2.88526,13.46484l-26.93018,220.25v.96192c0,3.21582.96192,4.97461,2.88525,5.29q2.88574.49657,6.73243-3.36621l185.62549-229.86817a27.42073,27.42073,0,0,1,23.083-11.541h158.6958q12.4878,0,12.50293,9.61816,0,4.82373-5.7705,12.50293l-221.21192,271.22461q-3.85473,5.77149-1.92334,10.58008l154.84815,347.20605,1.92334,7.69434q0,14.42724-17.312,14.42676H2934.1001q-14.42652,0-18.27393-12.50293L2817.72363,3422.178c-.646-2.55469-2.08886-3.84668-4.32812-3.84668-2.25391,0-4.01221,1.292-5.28955,3.84668l-43.28076,56.74609a22.56012,22.56012,0,0,0-4.80909,9.61719l-19.23584,158.69531q-.969,8.65724-6.25146,13.46582-5.29761,4.82373-13.9458,4.8086H2581.12354C2575.35254,3665.511,2571.1748,3663.91822,2568.62012,3660.7024Z" transform="translate(-241.86195 -246.52369)"/><path class="cded308c-855e-476f-8c8a-5887f58beb90" d="M3427.47363,3617.42115q-61.56225-55.76807-61.55468-151.001,0-11.54151,1.92382-34.624l51.93653-421.26465q2.88573-18.25781,20.19775-18.27343h139.45947q18.25929,0,16.35059,18.27343l-51.937,421.26465q-.969,4.82373-.96143,15.38867,0,32.70851,18.75488,51.93653,18.75439,19.251,51.45557,19.23535,35.57154,0,60.59277-23.56348,24.999-23.55615,29.81543-62.99707l50.9751-421.26465q.94629-8.65575,6.73242-13.46484a20.4014,20.4014,0,0,1,13.46485-4.80859h140.42138q7.68678,0,12.02247,4.80859,4.32787,4.82373,3.36621,13.46484l-51.93653,421.26465q-8.65576,72.13477-47.6084,126.95606a261.30808,261.30808,0,0,1-100.02636,84.63769q-61.08839,29.82276-137.05518,29.81543Q3489.02075,3673.20533,3427.47363,3617.42115Z" transform="translate(-241.86195 -246.52369)"/><path class="cded308c-855e-476f-8c8a-5887f58beb90" d="M4429.65137,3042.75221q52.88379,50.49316,52.89843,137.05468,0,22.13673-1.92382,33.66309-7.708,64.44726-42.79883,113.49121-35.12109,49.0503-90.4082,75.98145-55.31837,26.937-123.59083,26.92968h-96.17871q-6.73974,0-8.65625,7.69434l-25.96826,209.66992q-.969,8.65724-6.25146,13.46582-5.29761,4.82373-13.9458,4.8086h-139.46c-5.77051,0-9.94825-1.59278-12.50293-4.8086q-3.85475-4.80176-2.88575-13.46582l77.90528-636.70508q2.885-18.25781,20.19775-18.27343h269.30078Q4376.74512,2992.25807,4429.65137,3042.75221ZM4282.0166,3263.96412q24.52589-21.64159,24.52539-56.26562,0-27.8833-18.75488-44.24219-18.7544-16.34179-50.49316-16.35059h-75.02051q-6.73975,0-8.65528,7.69434l-15.38867,123.10937c0,5.13965,2.23926,7.69434,6.73242,7.69434h75.98145Q4257.48388,3285.60377,4282.0166,3263.96412Z" transform="translate(-241.86195 -246.52369)"/><path class="a5e8d4b7-2df4-4254-abfc-47091df7e5b6" d="M5030.60254,3660.7024q-3.85547-4.80176-2.88574-13.46582l77.90527-636.70508q2.88574-18.25781,20.19727-18.27343h139.46q8.65575,0,12.50293,4.80859,3.832,4.82373,2.88574,13.46484L5221.03711,3502.968v1.92383q0,5.77147,5.77051,5.7705H5508.6123q8.65577,0,12.50293,4.80957,3.832,4.82373,2.88575,13.46485l-14.42676,118.2998q-.96974,8.65724-6.252,13.46582-5.29687,4.82373-13.94629,4.8086H5043.10547C5037.335,3665.511,5033.15723,3663.91822,5030.60254,3660.7024Z" transform="translate(-241.86195 -246.52369)"/><path class="a5e8d4b7-2df4-4254-abfc-47091df7e5b6" d="M5983.72852,3650.12232l-10.58008-69.249a5.96142,5.96142,0,0,0-2.4043-4.80859,8.314,8.314,0,0,0-5.29-1.92383H5772.13477c-3.84766,0-7.06348,2.25391-9.61817,6.73242l-26.92969,69.249q-5.77147,15.39552-21.16015,15.38868H5562.46387q-13.47949,0-13.46485-11.541a21.29606,21.29606,0,0,1,1.92383-9.61816l272.18653-636.70508q5.77147-15.37354,21.15917-15.38867H6036.627q14.42725,0,17.3125,15.38867l116.376,636.70508v3.84668q0,17.313-18.27344,17.3125H6001.041Q5984.67431,3665.511,5983.72852,3650.12232Zm-161.58106-221.21191q0,6.73974,5.77051,6.73242h115.415a8.46074,8.46074,0,0,0,6.25195-2.40429,6.18382,6.18382,0,0,0,1.44238-6.252l-31.73925-222.17285c-.64551-3.20117-2.08887-4.80957-4.32813-4.80957q-3.38087,0-5.28906,4.80957l-87.52344,222.17285Z" transform="translate(-241.86195 -246.52369)"/><path class="a5e8d4b7-2df4-4254-abfc-47091df7e5b6" d="M6292.46777,3617.42115q-61.563-55.76807-61.55468-151.001,0-11.54151,1.92285-34.624l51.9375-421.26465q2.88427-18.25781,20.19726-18.27343h139.459q18.25927,0,16.35058,18.27343l-51.93652,421.26465q-.96972,4.82373-.96191,15.38867,0,32.70851,18.75488,51.93653,18.75585,19.251,51.456,19.23535,35.5708,0,60.59278-23.56348,24.999-23.55615,29.81543-62.99707l50.97461-421.26465q.94775-8.65575,6.73339-13.46484a20.39956,20.39956,0,0,1,13.46485-4.80859h140.4209q7.6875,0,12.02246,4.80859,4.32861,4.82373,3.36621,13.46484l-51.93652,421.26465q-8.65577,72.13477-47.6084,126.95606a261.308,261.308,0,0,1-100.02637,84.63769q-61.08839,29.82276-137.05469,29.81543Q6354.01416,3673.20533,6292.46777,3617.42115Z" transform="translate(-241.86195 -246.52369)"/><path class="a5e8d4b7-2df4-4254-abfc-47091df7e5b6" d="M6864.24316,3615.01686q-61.08837-58.18067-61.07324-157.25293,0-24.999,1.92383-38.47168l22.12109-181.77735q9.60206-75.02051,48.57032-132.72754a262.41891,262.41891,0,0,1,100.98828-88.96582q62.03466-31.24218,138.97851-31.25781,69.249,0,121.666,25.96777,52.41064,25.96875,80.791,71.65332,28.35645,45.69288,28.37207,101.46973,0,7.70947-1.92285,26.92969a16.97386,16.97386,0,0,1-6.25195,11.06055,19.85081,19.85081,0,0,1-12.98437,4.32812h-139.459q-18.28272,0-16.35059-4.80859v-3.84766q3.832-31.73877-15.38867-54.82227-19.251-23.083-56.74609-23.083-37.51026,0-63.47754,25.48828-25.96875,25.49413-30.77734,67.80566l-23.083,192.3584a72.20062,72.20062,0,0,0-.96192,13.46484q0,35.59425,22.1211,57.707,22.11328,22.13671,56.74512,22.12109,34.6245,0,59.15039-19.71582,24.52587-19.70215,28.373-54.3418l.96192-9.61816v-1.92285c0-3.84766-2.25489-5.77149-6.73242-5.77149h-75.01954c-5.77148,0-9.94922-1.59277-12.5039-4.80859q-3.854-4.80176-2.88477-13.46485l12.50293-107.7207q.94629-8.65576,6.73242-13.46484a20.39957,20.39957,0,0,1,13.46485-4.8086h236.60058q7.6875,0,12.02246,4.8086c2.88575,3.21582,3.99707,7.69433,3.36621,13.46484l-16.35058,127.918q-8.65577,71.18847-47.6084,126.95605Q7231.166,3611.658,7169.13086,3642.428q-62.03467,30.79248-138.0166,30.77734Q6925.30273,3673.20533,6864.24316,3615.01686Z" transform="translate(-241.86195 -246.52369)"/><path class="a5e8d4b7-2df4-4254-abfc-47091df7e5b6" d="M7767.8418,2997.06666a20.39953,20.39953,0,0,1,13.46484-4.80859h140.4209q7.6875,0,12.02246,4.80859,4.32861,4.82373,3.36621,13.46484l-77.9043,636.70508q-.96972,8.65724-6.73339,13.46582a20.35082,20.35082,0,0,1-13.46485,4.8086h-140.4209c-5.13965,0-9.13769-1.59278-12.02246-4.8086q-4.32861-4.80176-3.36621-13.46582l28.85352-237.56152v-1.92383q0-5.77-5.77051-5.77051H7565.86523q-6.73974,0-8.65625,7.69434l-28.85351,237.56152q-.96827,8.65724-6.251,13.46582-5.29833,4.82373-13.94629,4.8086h-139.46c-5.77051,0-9.94824-1.59278-12.50293-4.8086q-3.85546-4.80176-2.88574-13.46582l77.90527-636.70508q2.88575-18.25781,20.19727-18.27343h139.46q8.65576,0,12.50293,4.80859,3.832,4.82373,2.88574,13.46484l-27.8916,228.90625c0,5.13965,2.23926,7.69434,6.73242,7.69434h139.459c5.77148,0,8.65625-2.55469,8.65625-7.69434l27.8916-228.90625Q7762.05615,3001.87575,7767.8418,2997.06666Z" transform="translate(-241.86195 -246.52369)"/><path class="cded308c-855e-476f-8c8a-5887f58beb90" d="M5016.38867,1782.14381H4799.81641q-5.3628,0-6.88672,6.12207l-8.418,67.34424c0,4.08935,1.78125,6.12207,5.35644,6.12207h132.39258q6.11572,0,9.56543,3.82617,3.44385,3.83862,2.67871,10.71387l-11.47949,93.36328q-2.2954,14.54589-16.07031,14.54H4774.5625c-4.08887,0-6.12207,2.04492-6.12207,6.12207l-9.18262,74.99658v1.53027q0,4.59229,4.59082,4.5918h217.33789q6.11573,0,9.56543,3.82617,3.44385,3.83936,2.67871,10.71387l-11.47949,94.1289q-.77051,6.8877-5.35644,10.71387a16.19688,16.19688,0,0,1-10.71387,3.82617H4617.68262c-4.5918,0-7.916-1.26757-9.94922-3.82617q-3.06592-3.8203-2.2959-10.71387l61.9873-506.60986q2.29542-14.52832,16.07032-14.54h348.19922q6.11571,0,9.56543,3.82617c2.29589,2.55909,3.18066,6.12207,2.67871,10.71387l-11.4795,94.12842Q5030.16358,1782.14968,5016.38867,1782.14381Z" transform="translate(-241.86195 -246.52369)"/><path class="cded308c-855e-476f-8c8a-5887f58beb90" d="M5363.05176,2182.38111l-8.418-55.09961a4.744,4.744,0,0,0-1.91309-3.82617,6.61558,6.61558,0,0,0-4.209-1.53125H5194.69238c-3.06152,0-5.62011,1.794-7.65332,5.35742l-21.42676,55.09961q-4.59228,12.2505-16.83593,12.24414H5027.86328q-10.72559,0-10.71387-9.18359a16.94249,16.94249,0,0,1,1.53028-7.65234L5235.252,1671.17945q4.59083-12.23217,16.83594-12.24414H5405.1416q11.48,0,13.77539,12.24414l92.59766,506.60987v3.06152q0,13.77393-14.54,13.77441H5376.82715Q5363.80469,2194.62525,5363.05176,2182.38111Zm-128.56543-176.01269q0,5.36279,4.59179,5.35693h91.832a6.73256,6.73256,0,0,0,4.97461-1.91308,4.91747,4.91747,0,0,0,1.14746-4.97413l-25.25391-176.77783c-.51367-2.54687-1.66211-3.82666-3.44336-3.82666-1.79394,0-3.19238,1.27979-4.209,3.82666l-69.63965,176.77783Z" transform="translate(-241.86195 -246.52369)"/><path class="cded308c-855e-476f-8c8a-5887f58beb90" d="M5941.21582,1662.76148c2.2959,2.55909,3.18066,6.12207,2.67871,10.71387l-11.47851,94.89356q-2.29687,14.54663-16.07129,14.54052H5796.96289q-5.36278,0-6.88769,6.12207l-48.21192,391.05371q-.772,6.8877-4.97461,10.71387a14.77439,14.77439,0,0,1-10.33105,3.82617h-111.7295c-4.59179,0-7.916-1.26757-9.94921-3.82617q-3.06592-3.8203-2.29493-10.71387l48.21192-391.05371c0-4.07763-1.794-6.12207-5.35742-6.12207H5529.88281q-14.54589,0-13.00976-14.54052l12.24414-94.89356q.75439-6.8877,4.97461-10.71387a14.78721,14.78721,0,0,1,10.331-3.82617h387.22754Q5937.76612,1658.93531,5941.21582,1662.76148Z" transform="translate(-241.86195 -246.52369)"/><path class="cded308c-855e-476f-8c8a-5887f58beb90" d="M6176.52246,2182.38111l-83.41406-507.375v-3.06152q0-13.00342,14.54-13.00928H6227.7959q13.00341,0,13.77441,12.24414l31.377,241.82569c.502,2.55908,1.64941,3.82666,3.44335,3.82666,1.78126,0,3.18067-1.26758,4.209-3.82666l85.71-241.06055q4.59228-13.00342,16.83594-13.00928h87.24121q13.00341,0,13.77539,12.24414l29.8457,241.82569c.502,2.55908,1.64942,3.82666,3.44336,3.82666,1.78125,0,3.18067-1.26758,4.209-3.82666l84.17968-241.06055q5.34522-13.00342,17.60157-13.00928h120.14746q10.708,0,10.71386,9.94824a20.12875,20.12875,0,0,1-.76562,6.12256l-192.083,507.375q-5.36278,12.2505-17.60156,12.24414H6430.59277q-13.77539,0-13.77441-13.00976l-20.66309-253.30469c-.51367-2.54687-1.53027-3.9458-3.06054-4.209-1.53125-.251-2.55957,1.14795-3.06153,4.209l-76.52734,253.30469q-4.59083,13.02246-16.83594,13.00976h-104.8418Q6178.80713,2194.62525,6176.52246,2182.38111Z" transform="translate(-241.86195 -246.52369)"/><path class="cded308c-855e-476f-8c8a-5887f58beb90" d="M7119.332,1782.14381H6902.75977q-5.3628,0-6.88672,6.12207l-8.418,67.34424c0,4.08935,1.78125,6.12207,5.35644,6.12207H7025.2041q6.11573,0,9.56543,3.82617,3.44385,3.83862,2.67871,10.71387l-11.47949,93.36328q-2.29541,14.54589-16.07031,14.54H6877.50586c-4.08887,0-6.12207,2.04492-6.12207,6.12207l-9.18262,74.99658v1.53027q0,4.59229,4.59082,4.5918h217.33789q6.11572,0,9.56543,3.82617,3.44385,3.83936,2.67871,10.71387l-11.47949,94.1289q-.7705,6.8877-5.35644,10.71387a16.19688,16.19688,0,0,1-10.71387,3.82617H6720.626c-4.5918,0-7.916-1.26757-9.94922-3.82617q-3.06593-3.8203-2.2959-10.71387l61.9873-506.60986q2.29542-14.52832,16.07032-14.54H7134.6377q6.11571,0,9.56542,3.82617c2.2959,2.55909,3.18067,6.12207,2.67872,10.71387l-11.4795,94.12842Q7133.10694,1782.14968,7119.332,1782.14381Z" transform="translate(-241.86195 -246.52369)"/><path class="cded308c-855e-476f-8c8a-5887f58beb90" d="M7133.86719,2190.79908q-3.06592-3.8203-2.2959-10.71387l61.9873-506.60986q2.29542-14.52832,16.07032-14.54h110.96484q6.8877,0,9.94824,3.82617c2.03321,2.55909,2.79785,6.12207,2.2959,10.71387L7285.3916,2065.2942v1.53027q0,4.59229,4.59082,4.5918H7514.207q6.8877,0,9.94922,3.82617,3.04834,3.83936,2.2959,10.71387l-11.47949,94.1289q-.77052,6.8877-4.97461,10.71387-4.21436,3.8379-11.09571,3.82617H7143.81641C7139.22461,2194.62525,7135.90039,2193.35768,7133.86719,2190.79908Z" transform="translate(-241.86195 -246.52369)"/><path class="cded308c-855e-476f-8c8a-5887f58beb90" d="M7560.11719,2190.79908q-3.06592-3.8203-2.2959-10.71387l61.9873-506.60986q2.29542-14.52832,16.07032-14.54h110.96484q6.8877,0,9.94824,3.82617c2.03321,2.55909,2.79785,6.12207,2.2959,10.71387L7711.6416,2065.2942v1.53027q0,4.59229,4.59082,4.5918H7940.457q6.8877,0,9.94922,3.82617,3.04834,3.83936,2.2959,10.71387l-11.47949,94.1289q-.77052,6.8877-4.97461,10.71387-4.21436,3.8379-11.09571,3.82617H7570.06641C7565.47461,2194.62525,7562.15039,2193.35768,7560.11719,2190.79908Z" transform="translate(-241.86195 -246.52369)"/><path class="a5e8d4b7-2df4-4254-abfc-47091df7e5b6" d="M4198.71387,1437.45436q-2.644-3.29224-1.97852-9.2334l53.42188-436.61328q1.979-12.52076,13.85058-12.53125h95.63281q5.93556,0,8.57422,3.29785,2.62794,3.30762,1.97852,9.2334l-18.4668,151.03418v.65918c0,2.20556.65918,3.41113,1.97852,3.62744q1.97754.34057,4.61621-2.30811L4485.6123,986.991a18.803,18.803,0,0,1,15.82911-7.91455h108.82324q8.56347,0,8.57422,6.5957,0,3.30762-3.958,8.57373L4463.1875,1180.23512q-2.64258,3.95727-1.31836,7.25488l106.18457,238.09277,1.31934,5.27637q0,9.89283-11.8711,9.89307H4449.33789q-9.89355,0-12.53125-8.57422l-67.27344-158.28858c-.44238-1.752-1.43164-2.63818-2.96777-2.63818-1.5459,0-2.751.88623-3.62695,2.63818l-29.67969,38.9126a15.47132,15.47132,0,0,0-3.29688,6.59522l-13.1914,108.82373a14.09922,14.09922,0,0,1-4.28711,9.2334,13.63957,13.63957,0,0,1-9.5625,3.29785h-95.63281C4203.33008,1440.75221,4200.46582,1439.65992,4198.71387,1437.45436Z" transform="translate(-241.86195 -246.52369)"/><path class="a5e8d4b7-2df4-4254-abfc-47091df7e5b6" d="M4957.833,1085.262H4771.18457q-4.623,0-5.93652,5.27637l-7.25489,58.03906c0,3.52442,1.53614,5.27637,4.61719,5.27637H4876.71a10.54,10.54,0,0,1,8.24414,3.29785q2.96778,3.30762,2.3086,9.2334l-9.89356,80.46338q-1.97754,12.53613-13.84961,12.53125H4749.419c-3.52442,0-5.2754,1.76221-5.2754,5.27637l-7.915,64.63427v1.31934q0,3.95727,3.957,3.957h187.30859a10.54023,10.54023,0,0,1,8.24414,3.29785q2.96778,3.30762,2.3086,9.2334l-9.89258,81.12305a13.408,13.408,0,0,1-4.61719,9.2334,13.95515,13.95515,0,0,1-9.2334,3.29785H4614.21484c-3.958,0-6.82226-1.09229-8.57422-3.29785q-2.644-3.29224-1.97851-9.2334L4657.084,991.60768q1.979-12.52076,13.85059-12.53125h300.08887a10.53855,10.53855,0,0,1,8.24414,3.29785q2.96776,3.30762,2.30859,9.2334l-9.89258,81.123Q4969.7046,1085.26685,4957.833,1085.262Z" transform="translate(-241.86195 -246.52369)"/><path class="a5e8d4b7-2df4-4254-abfc-47091df7e5b6" d="M5322.55273,1085.262H5135.9043q-4.623,0-5.93653,5.27637l-7.25488,58.03906c0,3.52442,1.53613,5.27637,4.61719,5.27637h114.09961a10.54,10.54,0,0,1,8.24414,3.29785q2.96776,3.30762,2.30859,9.2334l-9.89355,80.46338q-1.97754,12.53613-13.84961,12.53125H5114.13867c-3.52441,0-5.27539,1.76221-5.27539,5.27637l-7.915,64.63427v1.31934q0,3.95727,3.957,3.957h187.3086a10.54024,10.54024,0,0,1,8.24414,3.29785q2.96776,3.30762,2.30859,9.2334L5292.874,1428.221a13.408,13.408,0,0,1-4.61718,9.2334,13.95515,13.95515,0,0,1-9.2334,3.29785H4978.93457c-3.958,0-6.82227-1.09229-8.57422-3.29785q-2.644-3.29224-1.97851-9.2334l53.42187-436.61328q1.979-12.52076,13.85059-12.53125h300.08886a10.53854,10.53854,0,0,1,8.24414,3.29785q2.96778,3.30762,2.3086,9.2334l-9.89258,81.123Q5334.42431,1085.26685,5322.55273,1085.262Z" transform="translate(-241.86195 -246.52369)"/><path class="a5e8d4b7-2df4-4254-abfc-47091df7e5b6" d="M5681.99609,1013.7024q36.26369,34.62525,36.27442,93.98389,0,15.17944-1.31934,23.0835-5.28661,44.19433-29.34863,77.82568a162.34525,162.34525,0,0,1-61.99707,52.103q-37.93359,18.47241-84.75,18.46728h-65.9541q-4.62159,0-5.93555,5.27637L5451.1582,1428.221a14.09922,14.09922,0,0,1-4.28711,9.2334,13.64041,13.64041,0,0,1-9.56347,3.29785H5341.6748c-3.957,0-6.82128-1.09229-8.57324-3.29785q-2.644-3.29224-1.97851-9.2334l53.42187-436.61328q1.979-12.52076,13.85059-12.53125h184.66992Q5645.7168,979.07643,5681.99609,1013.7024Zm-101.23925,151.69336q16.81934-14.83959,16.81836-38.583,0-19.12133-12.86036-30.33886-12.86133-11.20679-34.626-11.21192h-51.44434q-4.62157,0-5.93555,5.27637l-10.55273,84.42041c0,3.52441,1.53613,5.27637,4.61719,5.27637H5538.877Q5563.9331,1180.23512,5580.75684,1165.39576Z" transform="translate(-241.86195 -246.52369)"/><path class="a5e8d4b7-2df4-4254-abfc-47091df7e5b6" d="M6133.09961,1430.19947l-7.25488-47.48633a4.08717,4.08717,0,0,0-1.64844-3.29785,5.70184,5.70184,0,0,0-3.62793-1.31884H5988.002c-2.63769,0-4.84375,1.54541-6.5957,4.61669l-18.4668,47.48633q-3.95653,10.55787-14.50976,10.55274h-104.207q-9.24317,0-9.2334-7.91455a14.594,14.594,0,0,1,1.31933-6.59522L6022.957,989.62916q3.958-10.54248,14.50977-10.55273H6169.375q9.89209,0,11.87109,10.55273l79.80371,436.61328v2.63818q0,11.87184-12.53125,11.87159H6144.97168Q6133.74951,1440.75221,6133.09961,1430.19947Zm-110.80176-151.69336q0,4.62232,3.957,4.6167h79.14453a5.80065,5.80065,0,0,0,4.28711-1.64892,4.24059,4.24059,0,0,0,.98926-4.28662l-21.76465-152.353q-.665-3.293-2.96777-3.29785-2.31885,0-3.62793,3.29785l-60.01758,152.353Z" transform="translate(-241.86195 -246.52369)"/><path class="a5e8d4b7-2df4-4254-abfc-47091df7e5b6" d="M6336.8916,1406.7859q-42.21533-39.23219-42.21-105.1958,0-17.14306,1.31934-25.72217l16.48828-133.22607q5.93554-50.11451,32.64648-88.37793a181.38573,181.38573,0,0,1,69.252-59.3584q42.53906-21.10035,95.30273-21.10547,73.20849,0,115.749,36.93408,42.53907,36.94482,42.54,99.59033,0,6.60059-1.31933,22.42432,0,5.93554-11.87207,7.25488l-96.95118,6.59522h-3.29785c-6.16308,0-9.2334-1.09229-9.2334-3.29785l.65918-3.957a55.234,55.234,0,0,0,.66016-9.89306q0-23.07861-13.19141-36.27442-13.20117-13.18578-36.27441-13.19091-25.72119,0-43.19922,16.15869-17.48291,16.16894-20.77539,43.1997l-17.14844,141.8003a54.40691,54.40691,0,0,0-.65918,9.89306q0,22.42969,13.52051,35.61524,13.51026,13.20044,35.94434,13.19043,25.72264,0,42.87011-16.15869,17.14307-16.15358,20.44532-42.54c.43261-2.19483,1.97851-4.06006,4.61718-5.606a14.37674,14.37674,0,0,1,9.2334-1.64893l95.63281,5.27637q11.20752,1.32935,11.21192,3.29785l-.65918,3.29737q-5.93555,47.48656-32.31738,83.76123-26.38623,36.27978-68.92188,56.39062-42.54052,20.12549-95.30273,20.11572Q6379.0918,1446.02857,6336.8916,1406.7859Z" transform="translate(-241.86195 -246.52369)"/><path class="a5e8d4b7-2df4-4254-abfc-47091df7e5b6" d="M7063.36719,982.37428q2.96777,3.30762,2.30859,9.2334l-9.89258,81.78271q-1.979,12.53613-13.85058,12.53125h-102.8877q-4.62158,0-5.93554,5.27588L6891.55859,1428.221a14.10375,14.10375,0,0,1-4.28711,9.2334,12.7322,12.7322,0,0,1-8.90429,3.29785h-96.292c-3.957,0-6.82227-1.09229-8.57422-3.29785q-2.64258-3.29224-1.97852-9.2334l41.55078-337.02344c0-3.51367-1.5459-5.27588-4.61621-5.27588h-99.59082q-12.53613,0-11.21191-12.53125l10.55273-81.78271a14.02726,14.02726,0,0,1,4.28711-9.2334,12.74092,12.74092,0,0,1,8.90332-3.29785h333.72559A10.53855,10.53855,0,0,1,7063.36719,982.37428Z" transform="translate(-241.86195 -246.52369)"/><path class="a5e8d4b7-2df4-4254-abfc-47091df7e5b6" d="M7050.50293,1437.45436q-2.644-3.29224-1.97852-9.2334l53.42188-436.61328q1.979-12.52076,13.85059-12.53125h95.63281q5.93555,0,8.57422,3.29785,2.62792,3.30762,1.97851,9.2334L7168.55957,1428.221a14.09922,14.09922,0,0,1-4.28711,9.2334,13.63956,13.63956,0,0,1-9.5625,3.29785h-95.63281C7055.11914,1440.75221,7052.25488,1439.65992,7050.50293,1437.45436Z" transform="translate(-241.86195 -246.52369)"/><path class="a5e8d4b7-2df4-4254-abfc-47091df7e5b6" d="M7333.44141,1430.19947,7262.21191,992.927v-2.63818q0-11.20752,11.8711-11.2124H7378.29q10.54248,0,12.53125,11.2124l28.36035,270.40967c.876,2.20556,1.97852,3.29785,3.29785,3.29785,1.31836,0,2.41113-1.09229,3.29688-3.29785l93.65429-270.40967q3.293-11.20752,14.50977-11.2124h101.56934q9.89208,0,9.89257,7.25488a14.71031,14.71031,0,0,1-1.31933,6.5957l-179.39356,437.27246a18.31964,18.31964,0,0,1-5.93554,7.585,14.97336,14.97336,0,0,1-9.2334,2.96778H7345.97266Q7335.41553,1440.75221,7333.44141,1430.19947Z" transform="translate(-241.86195 -246.52369)"/><path class="a5e8d4b7-2df4-4254-abfc-47091df7e5b6" d="M7985.71777,1085.262H7799.06934q-4.62306,0-5.93653,5.27637l-7.25488,58.03906c0,3.52442,1.53613,5.27637,4.61719,5.27637h114.09961a10.54,10.54,0,0,1,8.24414,3.29785q2.96777,3.30762,2.30859,9.2334l-9.89355,80.46338q-1.97754,12.53613-13.84961,12.53125H7777.30371c-3.52441,0-5.27539,1.76221-5.27539,5.27637l-7.915,64.63427v1.31934q0,3.95727,3.957,3.957h187.3086a10.54025,10.54025,0,0,1,8.24414,3.29785q2.96776,3.30762,2.30859,9.2334l-9.89258,81.12305a13.408,13.408,0,0,1-4.61718,9.2334,13.95515,13.95515,0,0,1-9.2334,3.29785H7642.09961c-3.958,0-6.82227-1.09229-8.57422-3.29785q-2.644-3.29224-1.97851-9.2334l53.42187-436.61328q1.979-12.52076,13.85059-12.53125H7998.9082a10.53854,10.53854,0,0,1,8.24414,3.29785q2.96778,3.30762,2.3086,9.2334l-9.89258,81.123Q7997.58935,1085.26685,7985.71777,1085.262Z" transform="translate(-241.86195 -246.52369)"/></svg>