<svg id="Layer_1" data-name="Layer 1" xmlns="http://www.w3.org/2000/svg" viewBox="0 0 326.08 326.08"><defs><style>.cls-1{fill:#f6f6f6;}.cls-2{fill:#00e8e8;}.cls-3{fill:#ed1e79;}.cls-4{fill:#3c3c3b;}</style></defs><title>mentalicon</title><circle class="cls-1" cx="163.04" cy="163.04" r="163.04"/><path class="cls-2" d="M709.26,373.8a2.51,2.51,0,0,1-2.45-2c-.07-.29-1.42-5.41-10.52-7.89a2.5,2.5,0,1,1,1.32-4.82c12.35,3.37,14,11.38,14.11,11.72a2.5,2.5,0,0,1-2,2.93A2.61,2.61,0,0,1,709.26,373.8Z" transform="translate(-488.1 -123.71)"/><path class="cls-2" d="M748,365a2.47,2.47,0,0,1-1.33-.38,2.49,2.49,0,0,1-.79-3.44c.06-.11,4.37-7.19,2.71-13a2.5,2.5,0,0,1,4.81-1.38c2.28,8-3.05,16.65-3.28,17A2.52,2.52,0,0,1,748,365Z" transform="translate(-488.1 -123.71)"/><path class="cls-2" d="M676.12,359a2.5,2.5,0,0,1-1.43-4.56c.55-.37,13.51-9.28,27.74-13.34s41.35-21.92,43.19-46.78a2.5,2.5,0,0,1,5,.36c-2.14,28.93-33,47.29-46.81,51.22-13.42,3.84-26.14,12.57-26.26,12.66A2.5,2.5,0,0,1,676.12,359Z" transform="translate(-488.1 -123.71)"/><path class="cls-2" d="M744.71,310.56a2.49,2.49,0,0,1-1.31-4.62c.34-.22,8.59-5.23,15.79-4.33a2.5,2.5,0,1,1-.61,5c-5.45-.68-12.5,3.58-12.57,3.63A2.46,2.46,0,0,1,744.71,310.56Z" transform="translate(-488.1 -123.71)"/><path class="cls-2" d="M704.13,367.22a2.49,2.49,0,0,1-2.49-2.44c0-.42-.06-10.32,15.78-13.71a2.5,2.5,0,1,1,1.05,4.88c-11.65,2.5-11.84,8.65-11.84,8.71a2.5,2.5,0,0,1-2.44,2.56Z" transform="translate(-488.1 -123.71)"/><path class="cls-2" d="M676.57,331.51a2.56,2.56,0,0,1-1.19-.3c-4.6-2.51-15.87-1.9-19.82-1.46a2.5,2.5,0,0,1-.56-5c1.62-.18,16-1.67,22.77,2a2.5,2.5,0,0,1-1.2,4.7Z" transform="translate(-488.1 -123.71)"/><path class="cls-2" d="M717.2,273.19H717a2.5,2.5,0,0,1-2.34-2.65c.1-1.61-2.12-3.47-4.08-5.12a21.52,21.52,0,0,1-3.28-3.14,22.58,22.58,0,0,1-4.55-10.74c-.58-3.26-.85-6.8,1.59-8.42,2.65-1.76,6.14.23,10.09,2.81a2.5,2.5,0,0,1-2.73,4.19,26.91,26.91,0,0,0-4.34-2.47,15.2,15.2,0,0,0,.31,3,17.55,17.55,0,0,0,3.6,8.58,19.47,19.47,0,0,0,2.52,2.35c2.73,2.29,6.12,5.14,5.86,9.26A2.5,2.5,0,0,1,717.2,273.19Z" transform="translate(-488.1 -123.71)"/><path class="cls-2" d="M694.2,265a2.5,2.5,0,0,1-1.73-4.31c4.67-4.45,11.54-4.29,13.53-4.14,2.56.2,3.45.72,4,1.45a2.5,2.5,0,0,1-3.22,3.69c-1.41-.35-7.41-.67-10.85,2.62A2.52,2.52,0,0,1,694.2,265Zm11.84-4Zm0,0h0Z" transform="translate(-488.1 -123.71)"/><path class="cls-2" d="M747.94,285.68a2.52,2.52,0,0,1-2.48-2.21c0-.14-1.83-14.67-9.52-21.6a2.5,2.5,0,0,1,3.35-3.72c9.09,8.21,11.06,24.06,11.14,24.73a2.51,2.51,0,0,1-2.19,2.78Z" transform="translate(-488.1 -123.71)"/><path class="cls-2" d="M745,274.09a2.5,2.5,0,0,1-1.8-.75c-.12-.12-2-1.93-6.09-2a2.5,2.5,0,1,1,.07-5c6.21.1,9.3,3.19,9.63,3.54a2.49,2.49,0,0,1-.1,3.53A2.46,2.46,0,0,1,745,274.09Z" transform="translate(-488.1 -123.71)"/><path class="cls-2" d="M655.29,274.05a2.71,2.71,0,0,1-.68-.09,2.54,2.54,0,0,1-1.74-3.11c.18-.65,2-6.39,11.94-8.29a2.5,2.5,0,1,1,.94,4.91c-6.81,1.31-8,4.63-8.08,4.77A2.44,2.44,0,0,1,655.29,274.05Z" transform="translate(-488.1 -123.71)"/><path class="cls-2" d="M683.45,230.84a2.47,2.47,0,0,1-1.94-.92c-.21-.25-4.41-5.1-12.94-3.38a2.5,2.5,0,1,1-1-4.9c11.64-2.35,17.57,4.83,17.82,5.14a2.5,2.5,0,0,1-1.95,4.06Z" transform="translate(-488.1 -123.71)"/><path class="cls-2" d="M679.82,226.76l.07-.07-3.3-3.75c.43-.39,2.93-2.31,9.52-2.76a2.5,2.5,0,0,1,.34,5C681.55,225.51,679.83,226.74,679.82,226.76Z" transform="translate(-488.1 -123.71)"/><path class="cls-2" d="M567.34,369a2.5,2.5,0,0,1-2.11-1.14,31.26,31.26,0,0,1-5.1-14.7c-.59-4.59-1.06-8.22-7.14-14a50.31,50.31,0,0,0-8.4-5.73c-6.16-3.66-12.53-7.44-13.71-13.46a2.5,2.5,0,0,1,4.91-1c.75,3.82,6.14,7,11.36,10.12a53.6,53.6,0,0,1,9.28,6.41c7.37,7,8,12.06,8.66,17a26.52,26.52,0,0,0,4.34,12.62,2.5,2.5,0,0,1-2.09,3.86Z" transform="translate(-488.1 -123.71)"/><path class="cls-2" d="M589.4,296.45a2.53,2.53,0,0,1-1.17-.29c-2.06-1.09-3.9-1.54-5.2-1.26a2.5,2.5,0,1,1-1-4.9,10.44,10.44,0,0,1,5,.28,18.88,18.88,0,0,1,8.1-12.44,2.5,2.5,0,1,1,2.86,4.09c-3.31,2.33-6.65,6.63-6.07,11.74a2.52,2.52,0,0,1-2.48,2.78Z" transform="translate(-488.1 -123.71)"/><path class="cls-2" d="M627.39,319.43a2.56,2.56,0,0,1-1.46-.47c-1.77-1.28-3.85-1.58-6.27-1.92a20.68,20.68,0,0,1-7.25-2,111.92,111.92,0,0,0-13.22-6.48c-6.61-2.62-10.85-7.49-12.24-14.08a2.5,2.5,0,1,1,4.89-1c1.06,5,4.07,8.44,9.19,10.47a115.35,115.35,0,0,1,13.78,6.74,16.32,16.32,0,0,0,5.56,1.45c2.68.38,5.72.81,8.49,2.81a2.5,2.5,0,0,1-1.47,4.53Z" transform="translate(-488.1 -123.71)"/><path class="cls-2" d="M615.08,323.09a2.49,2.49,0,0,1-2.4-1.81c-.93-3.27,1.51-7.23,2-8a2.5,2.5,0,0,1,4.19,2.74c-.89,1.37-1.56,3.25-1.38,3.88a2.5,2.5,0,0,1-1.72,3.09A2.72,2.72,0,0,1,615.08,323.09Z" transform="translate(-488.1 -123.71)"/><path class="cls-2" d="M554.34,285.68l-.3,0a2.51,2.51,0,0,1-2.19-2.78c.08-.67,2-16.52,11.14-24.73a2.5,2.5,0,0,1,3.35,3.72c-7.69,6.93-9.51,21.46-9.52,21.6A2.52,2.52,0,0,1,554.34,285.68Z" transform="translate(-488.1 -123.71)"/><path class="cls-2" d="M634.21,296.45a2.49,2.49,0,0,1-1-.21,10.68,10.68,0,0,0-5-1.07,18,18,0,0,1-12.31-3.1c-3.79-2.77-5.65-5.92-5.52-9.35.22-5.92,6.34-9.9,7-10.33a2.5,2.5,0,0,1,2.64,4.24h0c-1.27.8-4.59,3.49-4.68,6.28-.06,1.68,1.11,3.4,3.47,5.12a13,13,0,0,0,8.89,2.16,15.32,15.32,0,0,1,7.5,1.47,2.5,2.5,0,0,1-1,4.79Z" transform="translate(-488.1 -123.71)"/><path class="cls-2" d="M607.46,290.26a2.5,2.5,0,0,1,0-5,6.12,6.12,0,0,0,4-1.7,2.5,2.5,0,1,1,3.68,3.39A11,11,0,0,1,607.46,290.26Z" transform="translate(-488.1 -123.71)"/><path class="cls-2" d="M557.31,274.09a2.46,2.46,0,0,1-1.71-.68,2.49,2.49,0,0,1-.1-3.53c.33-.35,3.42-3.44,9.63-3.54a2.53,2.53,0,0,1,2.54,2.46,2.5,2.5,0,0,1-2.46,2.54c-4.1.07-6.06,2-6.08,2A2.48,2.48,0,0,1,557.31,274.09Z" transform="translate(-488.1 -123.71)"/><path class="cls-2" d="M620.5,338.59a2.52,2.52,0,0,1-2-.93c-5.39-6.71-9.93-7.77-10-7.78a2.55,2.55,0,0,1-2-2.18c-.13-1.14-2.52-3.16-4.09-4.5a33.44,33.44,0,0,1-2.64-2.37C597.1,318,597,309.47,597.15,306a2.47,2.47,0,0,1,2.57-2.43,2.5,2.5,0,0,1,2.43,2.57c-.15,4.93.48,10.3,1.32,11.26.58.6,1.4,1.29,2.26,2,2.09,1.76,4.4,3.71,5.39,6.06,2.24.85,6.56,3.15,11.33,9.08a2.49,2.49,0,0,1-2,4.06Z" transform="translate(-488.1 -123.71)"/><path class="cls-2" d="M588.16,329a2.46,2.46,0,0,1-1.14-.28,2.49,2.49,0,0,1-1.07-3.37c3.58-6.92,14.46-9.05,14.93-9.14a2.5,2.5,0,1,1,.93,4.91h0c-2.48.48-9.38,2.59-11.42,6.53A2.51,2.51,0,0,1,588.16,329Z" transform="translate(-488.1 -123.71)"/><path class="cls-2" d="M601.34,331.51a2.5,2.5,0,0,1-1.65-4.37c3.18-2.82,9-2.27,9.66-2.2a2.5,2.5,0,1,1-.53,5c-1.7-.17-4.73,0-5.82,1A2.51,2.51,0,0,1,601.34,331.51Z" transform="translate(-488.1 -123.71)"/><path class="cls-2" d="M615,249.51a2.56,2.56,0,0,1-1-.21,2.5,2.5,0,0,1-1.28-3.29c3.44-7.85,8.32-12.57,14.49-14,10.69-2.53,21,5.88,21.42,6.24a2.5,2.5,0,0,1-3.19,3.85c-.08-.07-8.85-7.18-17.1-5.22-4.55,1.09-8.27,4.85-11,11.18A2.5,2.5,0,0,1,615,249.51Z" transform="translate(-488.1 -123.71)"/><path class="cls-2" d="M617,255.89a2.47,2.47,0,0,1-1.63-.61,8.48,8.48,0,0,1-2.31-3.35,26.92,26.92,0,0,1-3.94,1.7,2.5,2.5,0,0,1-1.62-4.73c2.2-.75,4.66-2.07,5.07-2.71a2.52,2.52,0,0,1,2.81-1.06,2.48,2.48,0,0,1,1.81,2.38c0,.71.29,3,1.45,4a2.5,2.5,0,0,1-1.64,4.39Z" transform="translate(-488.1 -123.71)"/><path class="cls-2" d="M647,217a2.47,2.47,0,0,1-1.74-.7c-.16-.14-3.61-2.91-12.23-.08a2.5,2.5,0,1,1-1.56-4.75c11.8-3.87,16.78.74,17.31,1.28A2.49,2.49,0,0,1,647,217Z" transform="translate(-488.1 -123.71)"/><path class="cls-3" d="M593,373.77a2.29,2.29,0,0,1-.52,0,2.49,2.49,0,0,1-1.94-2.9c.07-.34,1.76-8.35,14.11-11.72a2.5,2.5,0,0,1,1.32,4.82c-9.17,2.5-10.48,7.68-10.53,7.9A2.52,2.52,0,0,1,593,373.77Z" transform="translate(-488.1 -123.71)"/><path class="cls-3" d="M554.33,365a2.52,2.52,0,0,1-2.12-1.17c-.23-.37-5.56-9-3.28-17a2.5,2.5,0,0,1,4.81,1.38c-1.67,5.82,2.67,12.92,2.72,13a2.51,2.51,0,0,1-.81,3.44A2.46,2.46,0,0,1,554.33,365Z" transform="translate(-488.1 -123.71)"/><path class="cls-3" d="M626.16,359a2.5,2.5,0,0,1-1.42-.44c-.12-.09-12.84-8.82-26.26-12.66-13.77-3.93-44.67-22.29-46.81-51.22a2.5,2.5,0,0,1,5-.36c1.84,24.86,29,42.73,43.19,46.78s27.19,13,27.74,13.34a2.5,2.5,0,0,1-1.43,4.56Z" transform="translate(-488.1 -123.71)"/><path class="cls-3" d="M557.57,310.57a2.49,2.49,0,0,1-1.3-.37h0c-.07-.05-7.11-4.32-12.57-3.63a2.5,2.5,0,1,1-.61-5c7.2-.9,15.45,4.11,15.8,4.33a2.5,2.5,0,0,1-1.32,4.63Z" transform="translate(-488.1 -123.71)"/><path class="cls-3" d="M598.15,367.22h-.06a2.5,2.5,0,0,1-2.44-2.56c0-.2-.27-6.23-11.84-8.71a2.5,2.5,0,1,1,1.05-4.88c15.84,3.39,15.79,13.29,15.78,13.71A2.49,2.49,0,0,1,598.15,367.22Z" transform="translate(-488.1 -123.71)"/><path class="cls-3" d="M571.58,252.76a2.5,2.5,0,0,1-2.13-3.81c.45-.72,11.14-17.79,30.26-19.24a2.5,2.5,0,1,1,.37,5c-16.52,1.26-26.27,16.73-26.37,16.88A2.49,2.49,0,0,1,571.58,252.76Z" transform="translate(-488.1 -123.71)"/><path class="cls-3" d="M586.56,238.78a2.46,2.46,0,0,1-1.19-.31,2.5,2.5,0,0,1-1-3.39,33.13,33.13,0,0,1,21.47-15.27,2.5,2.5,0,0,1,1,4.9,28.28,28.28,0,0,0-18.07,12.77A2.5,2.5,0,0,1,586.56,238.78Z" transform="translate(-488.1 -123.71)"/><path class="cls-3" d="M625.71,331.51a2.5,2.5,0,0,1-1.2-4.7c6.81-3.7,21.16-2.21,22.77-2a2.5,2.5,0,0,1-.56,5c-4-.44-15.21-1.05-19.82,1.46A2.56,2.56,0,0,1,625.71,331.51Z" transform="translate(-488.1 -123.71)"/><path class="cls-3" d="M585.08,273.19a2.5,2.5,0,0,1-2.49-2.34c-.26-4.12,3.13-7,5.86-9.26a19.47,19.47,0,0,0,2.52-2.35,17.51,17.51,0,0,0,3.6-8.58,15.14,15.14,0,0,0,.31-3,26.91,26.91,0,0,0-4.34,2.47,2.5,2.5,0,0,1-2.73-4.19c4-2.58,7.44-4.57,10.09-2.81,2.44,1.62,2.17,5.16,1.59,8.42a22.58,22.58,0,0,1-4.55,10.74,21.52,21.52,0,0,1-3.28,3.14c-2,1.65-4.18,3.51-4.08,5.12a2.5,2.5,0,0,1-2.34,2.65Z" transform="translate(-488.1 -123.71)"/><path class="cls-3" d="M608.08,265a2.52,2.52,0,0,1-1.73-.69c-3.44-3.29-9.45-3-10.85-2.62a2.5,2.5,0,0,1-3.22-3.7c.55-.72,1.45-1.24,4-1.44,2-.16,8.85-.31,13.52,4.14a2.5,2.5,0,0,1-1.73,4.31Zm-11.84-4Zm0,0Z" transform="translate(-488.1 -123.71)"/><path class="cls-3" d="M647,274a2.49,2.49,0,0,1-2.39-1.77c-.09-.24-1.37-3.48-8.08-4.77a2.5,2.5,0,1,1,.94-4.91c9.91,1.9,11.76,7.64,11.94,8.29A2.5,2.5,0,0,1,647,274Z" transform="translate(-488.1 -123.71)"/><path class="cls-3" d="M618.83,230.84a2.5,2.5,0,0,1-2-4.06c.25-.31,6.18-7.5,17.82-5.14a2.5,2.5,0,1,1-1,4.9c-8.69-1.76-12.89,3.32-12.93,3.37A2.5,2.5,0,0,1,618.83,230.84Z" transform="translate(-488.1 -123.71)"/><path class="cls-3" d="M622.46,226.76s-1.73-1.25-6.63-1.59a2.5,2.5,0,0,1,.34-5c6.59.45,9.09,2.37,9.52,2.76l-3.3,3.75Z" transform="translate(-488.1 -123.71)"/><path class="cls-3" d="M735,369a2.5,2.5,0,0,1-2.1-3.86,26.52,26.52,0,0,0,4.34-12.62c.64-4.91,1.29-10,8.66-17a53.6,53.6,0,0,1,9.28-6.41c5.22-3.09,10.61-6.3,11.36-10.12a2.5,2.5,0,0,1,4.91,1c-1.18,6-7.55,9.8-13.71,13.46a50.31,50.31,0,0,0-8.4,5.73c-6.08,5.77-6.55,9.4-7.14,14a31.26,31.26,0,0,1-5.1,14.7A2.49,2.49,0,0,1,735,369Z" transform="translate(-488.1 -123.71)"/><path class="cls-3" d="M730.7,252.76a2.49,2.49,0,0,1-2.13-1.19c-.11-.18-9.86-15.62-26.37-16.88a2.5,2.5,0,1,1,.37-5c19.12,1.45,29.81,18.52,30.26,19.24a2.5,2.5,0,0,1-2.13,3.81Z" transform="translate(-488.1 -123.71)"/><path class="cls-3" d="M715.72,238.78a2.51,2.51,0,0,1-2.2-1.3h0a28.49,28.49,0,0,0-18.07-12.77,2.5,2.5,0,0,1,1-4.9,33.13,33.13,0,0,1,21.47,15.27,2.5,2.5,0,0,1-1,3.39A2.46,2.46,0,0,1,715.72,238.78Z" transform="translate(-488.1 -123.71)"/><path class="cls-3" d="M712.88,296.45a2.52,2.52,0,0,1-2.48-2.78c.58-5.11-2.76-9.41-6.07-11.74a2.5,2.5,0,1,1,2.86-4.09,18.88,18.88,0,0,1,8.1,12.44,10.44,10.44,0,0,1,5-.28,2.5,2.5,0,0,1-1,4.9c-1.3-.27-3.14.17-5.2,1.26A2.53,2.53,0,0,1,712.88,296.45Z" transform="translate(-488.1 -123.71)"/><path class="cls-3" d="M674.89,319.43a2.5,2.5,0,0,1-1.47-4.53c2.77-2,5.81-2.43,8.49-2.81a16.32,16.32,0,0,0,5.56-1.45,115.35,115.35,0,0,1,13.78-6.74c5.12-2,8.13-5.45,9.19-10.47a2.5,2.5,0,1,1,4.89,1c-1.39,6.59-5.63,11.46-12.24,14.08A111.13,111.13,0,0,0,689.87,315a20.68,20.68,0,0,1-7.25,2c-2.42.34-4.5.64-6.27,1.92A2.56,2.56,0,0,1,674.89,319.43Z" transform="translate(-488.1 -123.71)"/><path class="cls-3" d="M687.2,323.09a2.72,2.72,0,0,1-.69-.09,2.5,2.5,0,0,1-1.72-3.09c.2-.69-.59-2.68-1.38-3.87a2.51,2.51,0,1,1,4.19-2.75c.49.76,2.93,4.72,2,8A2.49,2.49,0,0,1,687.2,323.09Z" transform="translate(-488.1 -123.71)"/><path class="cls-3" d="M668.07,296.45a2.5,2.5,0,0,1-1-4.79,15.32,15.32,0,0,1,7.5-1.47,13,13,0,0,0,8.89-2.16c2.37-1.73,3.53-3.45,3.47-5.13-.1-2.8-3.5-5.53-4.68-6.27a2.5,2.5,0,0,1,2.64-4.24c.7.43,6.82,4.41,7,10.33.13,3.43-1.73,6.58-5.52,9.35a18,18,0,0,1-12.31,3.1,10.68,10.68,0,0,0-5,1.07A2.53,2.53,0,0,1,668.07,296.45Z" transform="translate(-488.1 -123.71)"/><path class="cls-3" d="M694.82,290.26a10.91,10.91,0,0,1-7.64-3.32,2.5,2.5,0,0,1,3.66-3.4,6.05,6.05,0,0,0,4,1.72,2.5,2.5,0,0,1,0,5Z" transform="translate(-488.1 -123.71)"/><path class="cls-3" d="M681.78,338.59a2.49,2.49,0,0,1-1.95-4.06c4.77-5.93,9.09-8.23,11.33-9.08,1-2.35,3.3-4.3,5.39-6.06.86-.74,1.68-1.43,2.27-2,.83-1,1.46-6.33,1.32-11.26a2.5,2.5,0,1,1,5-.14c.11,3.51,0,12-2.72,14.87a35.08,35.08,0,0,1-2.63,2.37c-1.58,1.34-4,3.36-4.1,4.5a2.49,2.49,0,0,1-2,2.18s-4.54,1.07-9.93,7.78A2.52,2.52,0,0,1,681.78,338.59Zm11.42-11.16h0Z" transform="translate(-488.1 -123.71)"/><path class="cls-3" d="M714.12,329A2.5,2.5,0,0,1,712,327.8c-2.23-3.71-9.14-6.09-11.62-6.7a2.5,2.5,0,1,1,1.18-4.85c1.12.27,11.05,2.84,14.73,9a2.5,2.5,0,0,1-.86,3.43A2.41,2.41,0,0,1,714.12,329Z" transform="translate(-488.1 -123.71)"/><path class="cls-3" d="M700.94,331.51a2.51,2.51,0,0,1-1.66-.63c-1.21-1.07-4.5-1.11-5.81-1a2.5,2.5,0,1,1-.54-5c.65-.07,6.48-.62,9.66,2.2a2.5,2.5,0,0,1-1.65,4.37Z" transform="translate(-488.1 -123.71)"/><path class="cls-3" d="M687.32,249.51A2.51,2.51,0,0,1,685,248c-2.78-6.33-6.5-10.09-11-11.18-8.25-2-17,5.15-17.11,5.22a2.5,2.5,0,0,1-3.18-3.85c.43-.36,10.74-8.76,21.42-6.24,6.17,1.47,11,6.19,14.5,14a2.5,2.5,0,0,1-1.29,3.29A2.56,2.56,0,0,1,687.32,249.51Z" transform="translate(-488.1 -123.71)"/><path class="cls-3" d="M685.29,255.89a2.5,2.5,0,0,1-1.64-4.39c1.2-1,1.45-3.41,1.45-4a2.5,2.5,0,0,1,4.62-1.32c.41.65,2.88,2,5.07,2.71a2.5,2.5,0,1,1-1.62,4.73,27.39,27.39,0,0,1-3.94-1.7,8.58,8.58,0,0,1-2.31,3.35A2.47,2.47,0,0,1,685.29,255.89Z" transform="translate(-488.1 -123.71)"/><path class="cls-3" d="M655.27,217a2.47,2.47,0,0,1-1.76-.73,2.52,2.52,0,0,1,0-3.56c.53-.54,5.51-5.15,17.31-1.28a2.5,2.5,0,1,1-1.56,4.75c-8.79-2.89-12.2.06-12.24.09A2.42,2.42,0,0,1,655.27,217Z" transform="translate(-488.1 -123.71)"/><path class="cls-4" d="M602.86,376.26a23.58,23.58,0,0,1-9.75-2.05,36.76,36.76,0,0,1-19.73-1.63,41.2,41.2,0,0,1-6.8-3.12,16.39,16.39,0,0,1-15.35-5.63,20.88,20.88,0,0,1-3.72-.93,19.82,19.82,0,0,1-11.91-11.15c-6.51-3.76-10.18-10.45-9.41-17.16A16.32,16.32,0,0,1,524,324.28a20.59,20.59,0,0,1,5-25,28.61,28.61,0,0,1-.27-14.64A28.12,28.12,0,0,1,536.2,271a30,30,0,0,1,.81-7.85c1.94-8.24,7.16-15,13.51-17.79,2-8.51,7.5-15.46,14.12-18,5.22-9.39,12.71-14.67,19.65-13.91,5.72-6.28,12.27-9.17,18-7.93a25.78,25.78,0,0,1,15.45-4.25c8-4.8,16.48-5.37,22.84-1.52,6.55,4,10,12.11,9.16,21.79a38.58,38.58,0,0,0,0,5.69h0a30.7,30.7,0,0,1,0,3.84,27.23,27.23,0,0,0,0,3.13,33.66,33.66,0,0,1,0,3.48,39.89,39.89,0,0,0,0,4.64,33,33,0,0,1,0,3.72,38.22,38.22,0,0,0,0,4.41,33.72,33.72,0,0,1,0,3.76,38,38,0,0,0,0,4.4,33.72,33.72,0,0,1,0,3.76,38.21,38.21,0,0,0,0,4.41,33.72,33.72,0,0,1,0,3.76,38.22,38.22,0,0,0,0,4.41,33.72,33.72,0,0,1,0,3.76,38,38,0,0,0,0,4.4,33.72,33.72,0,0,1,0,3.76,38.21,38.21,0,0,0,0,4.41,33.72,33.72,0,0,1,0,3.76,38.22,38.22,0,0,0,0,4.41,33.72,33.72,0,0,1,0,3.76,38,38,0,0,0,0,4.4,33.72,33.72,0,0,1,0,3.76,38.92,38.92,0,0,0,0,4.45c.06,1,.06,2.1,0,3.17,0,.78,0,1.6,0,2.44a37.64,37.64,0,0,1-3,15.86,16.91,16.91,0,0,1,1.08,7.12,17.42,17.42,0,0,1-16.08,16.08,17.15,17.15,0,0,1-5.2-.48c-2,7.14-8.5,13.15-17,15.35A26.62,26.62,0,0,1,602.86,376.26Zm-9.46-7.19a2.47,2.47,0,0,1,1.13.27,19.88,19.88,0,0,0,13.82,1.2c7.44-1.93,13-7.36,13.75-13.52a2.5,2.5,0,0,1,1.22-1.84l.64-.37a2.44,2.44,0,0,1,2.2-.16,12.16,12.16,0,0,0,16.71-10.53,12.07,12.07,0,0,0-1.08-5.79,2.48,2.48,0,0,1,0-2.05,33,33,0,0,0,3-14.62c0-1,0-1.94,0-2.87s0-1.8,0-2.67a42.25,42.25,0,0,1,0-5,27.93,27.93,0,0,0,0-3.17,43.7,43.7,0,0,1,0-5,27.93,27.93,0,0,0,0-3.17,43.88,43.88,0,0,1,0-5,27.93,27.93,0,0,0,0-3.17,43.7,43.7,0,0,1,0-5,28.11,28.11,0,0,0,0-3.18,43.7,43.7,0,0,1,0-5,27.93,27.93,0,0,0,0-3.17,43.88,43.88,0,0,1,0-5,27.93,27.93,0,0,0,0-3.17,43.7,43.7,0,0,1,0-5,28.11,28.11,0,0,0,0-3.18,43.7,43.7,0,0,1,0-5,27.93,27.93,0,0,0,0-3.17,43.88,43.88,0,0,1,0-5,29.93,29.93,0,0,0,0-3.14,44.92,44.92,0,0,1,0-5.19,28.83,28.83,0,0,0,0-2.94,32.27,32.27,0,0,1,0-3.68,26.72,26.72,0,0,0,0-3.23h0a43.12,43.12,0,0,1,0-6.44c.65-7.74-1.88-14.13-6.77-17.09s-11.75-2.25-18.32,1.92a2.43,2.43,0,0,1-1.66.37c-4.29-.55-9.23.86-13.92,4a2.47,2.47,0,0,1-2.16.3c-4.2-1.38-9.85,1.36-14.74,7.16a2.51,2.51,0,0,1-2.51.81c-5.09-1.24-11.69,3.69-16.06,12a2.49,2.49,0,0,1-1.46,1.22c-5.42,1.71-10,7.51-11.76,14.78-.06.26-.1.52-.15.78l-.07.34a2.52,2.52,0,0,1-1.67,1.91c-5.35,1.76-9.91,7.54-11.61,14.72a25.21,25.21,0,0,0-.63,7.55,2.49,2.49,0,0,1-.84,2.06,24.16,24.16,0,0,0-6.11,25.38,2.5,2.5,0,0,1-.95,3,15.48,15.48,0,0,0-4.63,20.2,2.45,2.45,0,0,1,.31,1.75,11.4,11.4,0,0,0,1.86,8.4,2.5,2.5,0,0,1,.38,1.82c-.92,5.07,2.18,10.54,7.52,13.3a2.49,2.49,0,0,1,1.23,1.45,14.58,14.58,0,0,0,9.17,8.94,15.6,15.6,0,0,0,3.66.82,2.55,2.55,0,0,1,1.76,1,11.34,11.34,0,0,0,11.84,4.36,2.55,2.55,0,0,1,1.89.3,35.94,35.94,0,0,0,6.71,3.18,31.34,31.34,0,0,0,17.75,1.29A2.55,2.55,0,0,1,593.4,369.07Z" transform="translate(-488.1 -123.71)"/><path class="cls-4" d="M699.42,376.26a26.62,26.62,0,0,1-6.75-.88c-8.47-2.2-15-8.21-17-15.35a17.15,17.15,0,0,1-21.28-15.6,16.91,16.91,0,0,1,1.08-7.12,37.79,37.79,0,0,1-3-15.86c0-.86,0-1.66,0-2.44,0-1.07,0-2.13,0-3.17a38.92,38.92,0,0,0,0-4.45,33.71,33.71,0,0,1,0-3.76,38,38,0,0,0,0-4.4,31.48,31.48,0,0,1,0-3.76,38.21,38.21,0,0,0,0-4.41,31.47,31.47,0,0,1,0-3.76,38,38,0,0,0,0-4.4,31.64,31.64,0,0,1,0-3.77,38,38,0,0,0,0-4.4,31.48,31.48,0,0,1,0-3.76,38.21,38.21,0,0,0,0-4.41,31.47,31.47,0,0,1,0-3.76,38,38,0,0,0,0-4.4,31.64,31.64,0,0,1,0-3.77,38,38,0,0,0,0-4.4,31.48,31.48,0,0,1,0-3.76,38.21,38.21,0,0,0,0-4.41,33,33,0,0,1,0-3.72,39.89,39.89,0,0,0,0-4.64,33.65,33.65,0,0,1,0-3.48,27.23,27.23,0,0,0,0-3.13,30.7,30.7,0,0,1,0-3.84,37.6,37.6,0,0,0,.05-5.69c-.81-9.68,2.61-17.82,9.16-21.79,6.36-3.85,14.84-3.27,22.84,1.52A25.8,25.8,0,0,1,700,205.54c5.7-1.24,12.26,1.65,18,7.92,7-.74,14.43,4.53,19.65,13.92,6.62,2.55,12.1,9.49,14.12,18,6.35,2.75,11.57,9.55,13.51,17.79a30,30,0,0,1,.81,7.85,28.12,28.12,0,0,1,7.47,13.65,28.61,28.61,0,0,1-.27,14.64,20.59,20.59,0,0,1,5,25,16.39,16.39,0,0,1-2.23,10.31c.77,6.71-2.9,13.4-9.41,17.16a19.81,19.81,0,0,1-11.92,11.15,20.56,20.56,0,0,1-3.71.93,16.39,16.39,0,0,1-15.35,5.63,42,42,0,0,1-6.8,3.12,36.76,36.76,0,0,1-19.73,1.63A23.58,23.58,0,0,1,699.42,376.26Zm-22.37-21.8a2.51,2.51,0,0,1,1.27.35l.64.37a2.54,2.54,0,0,1,1.22,1.84c.79,6.16,6.31,11.59,13.75,13.52a19.87,19.87,0,0,0,13.82-1.2,2.49,2.49,0,0,1,1.74-.19,31.34,31.34,0,0,0,17.75-1.29,35.94,35.94,0,0,0,6.71-3.18,2.55,2.55,0,0,1,1.89-.3A11.34,11.34,0,0,0,747.68,360a2.55,2.55,0,0,1,1.76-1,15.6,15.6,0,0,0,3.66-.82,14.58,14.58,0,0,0,9.17-8.94,2.49,2.49,0,0,1,1.23-1.45c5.34-2.76,8.44-8.23,7.52-13.3a2.5,2.5,0,0,1,.38-1.82,11.4,11.4,0,0,0,1.86-8.4,2.45,2.45,0,0,1,.31-1.75,15.45,15.45,0,0,0-4.63-20.2,2.5,2.5,0,0,1-1-3,24.16,24.16,0,0,0-6.11-25.38,2.49,2.49,0,0,1-.84-2.06,25.21,25.21,0,0,0-.63-7.55c-1.7-7.18-6.26-13-11.61-14.72a2.52,2.52,0,0,1-1.67-1.91l-.07-.33c0-.27-.09-.53-.15-.79-1.72-7.27-6.34-13.07-11.76-14.78a2.49,2.49,0,0,1-1.46-1.22c-4.37-8.3-11-13.23-16.06-12a2.51,2.51,0,0,1-2.51-.81c-4.89-5.8-10.54-8.54-14.74-7.16a2.47,2.47,0,0,1-2.16-.3c-4.69-3.12-9.63-4.53-13.92-4a2.43,2.43,0,0,1-1.66-.37c-6.57-4.17-13.42-4.89-18.32-1.92s-7.42,9.35-6.77,17.09a43.13,43.13,0,0,1,0,6.44h0a26.72,26.72,0,0,0,0,3.23,32.27,32.27,0,0,1,0,3.68,28.83,28.83,0,0,0,0,2.94,44.92,44.92,0,0,1,0,5.19,29.93,29.93,0,0,0,0,3.14,41.69,41.69,0,0,1,0,5,27.93,27.93,0,0,0,0,3.17,41.52,41.52,0,0,1,0,5,28.11,28.11,0,0,0,0,3.18,41.52,41.52,0,0,1,0,5,27.93,27.93,0,0,0,0,3.17,41.69,41.69,0,0,1,0,5,27.93,27.93,0,0,0,0,3.17,41.52,41.52,0,0,1,0,5,28.11,28.11,0,0,0,0,3.18,41.52,41.52,0,0,1,0,5,27.93,27.93,0,0,0,0,3.17,41.69,41.69,0,0,1,0,5,27.93,27.93,0,0,0,0,3.17,41.52,41.52,0,0,1,0,5,27.93,27.93,0,0,0,0,3.17,42.25,42.25,0,0,1,0,5c0,.87,0,1.77,0,2.67s0,1.88,0,2.87a33,33,0,0,0,3,14.62,2.48,2.48,0,0,1,0,2.05,12.07,12.07,0,0,0-1.08,5.79,12.16,12.16,0,0,0,16.71,10.53A2.35,2.35,0,0,1,677.05,354.46Zm-22-127h0Z" transform="translate(-488.1 -123.71)"/></svg>