<svg id="822f6233-40c5-4d7e-b2d3-ced0a7f7635a" data-name="Layer 1" xmlns="http://www.w3.org/2000/svg" viewBox="0 0 1190.55118 341.15748"><defs><style>.f92f0eaf-7d09-4f37-8214-ede9e6113760{fill:#f6f6f6;}.\36 71172f0-cfa4-4354-9de9-9c59eab62674{fill:#e71d73;}.e431be1b-fc67-498b-88eb-9190434c2199{fill:#00e8e8;}.\35 20b0af1-6620-4a00-a8fa-d17127bdbb8f,.ceec0c7f-467c-4776-8463-67d5e87eca81,.d229d737-77b2-4edc-8ba9-af1a10d5fc29{fill:none;}.d229d737-77b2-4edc-8ba9-af1a10d5fc29{stroke:#00e8e8;}.\35 20b0af1-6620-4a00-a8fa-d17127bdbb8f,.d229d737-77b2-4edc-8ba9-af1a10d5fc29{stroke-linecap:round;stroke-linejoin:round;stroke-width:7px;}.\36 3529fdf-c402-4b40-923a-dc90222374dc{fill:#3c3c3b;}.\35 20b0af1-6620-4a00-a8fa-d17127bdbb8f{stroke:#e71d73;}.f4875a6b-70a8-44e8-9ebe-cdb4f5bd4bb6{fill:#fff;}.c1e17a46-b111-4b01-81b2-ff5e8fc15ba9{fill:#ed1e79;}.cb52389f-1d7a-402b-a42b-667b3ca08043{fill:#575756;}.ceec0c7f-467c-4776-8463-67d5e87eca81{stroke:#e5e5e5;stroke-miterlimit:10;}</style></defs><title>mgheader</title><rect class="f92f0eaf-7d09-4f37-8214-ede9e6113760" y="0.5" width="1190.55118" height="340.15748"/><polygon class="671172f0-cfa4-4354-9de9-9c59eab62674" points="987.608 0.499 968.027 55.089 865.617 340.659 760.617 340.659 863.027 55.089 882.608 0.499 987.608 0.499"/><polygon class="e431be1b-fc67-498b-88eb-9190434c2199" points="1118.274 0.499 1098.694 55.089 996.284 340.659 891.284 340.659 993.694 55.089 1013.274 0.499 1118.274 0.499"/><circle class="f92f0eaf-7d09-4f37-8214-ede9e6113760" cx="939.44572" cy="170.57874" r="148.10309"/><path class="d229d737-77b2-4edc-8ba9-af1a10d5fc29" d="M887.97,138.11633" transform="translate(0 0.49878)"/><path class="d229d737-77b2-4edc-8ba9-af1a10d5fc29" d="M890.816,248.40622" transform="translate(0 0.49878)"/><path class="671172f0-cfa4-4354-9de9-9c59eab62674" d="M1028.0095,206.24059a2.584,2.584,0,0,1-1.8032-.73039c-.04448-.04267-4.90049-4.66077-14.358-9.289-8.72022-4.26736-23.25681-9.41843-42.98894-9.72794a2.59194,2.59194,0,0,1-2.55095-2.6323,2.62315,2.62315,0,0,1,2.63194-2.55131c39.93758.627,60.03707,19.66777,60.873,20.47771a2.592,2.592,0,0,1-1.80392,4.45322Z" transform="translate(0 0.49878)"/><path class="671172f0-cfa4-4354-9de9-9c59eab62674" d="M1028.01239,225.74059a2.58809,2.58809,0,0,1-2.17093-1.17224c-.26757-.4057-21.18243-31.61437-56.3627-35.98515a2.59206,2.59206,0,0,1,.63928-5.14456c37.66251,4.68029,59.16349,36.92019,60.06021,38.29058a2.59148,2.59148,0,0,1-2.16586,4.01137Z" transform="translate(0 0.49878)"/><path class="671172f0-cfa4-4354-9de9-9c59eab62674" d="M1028.00805,189.45605a2.57944,2.57944,0,0,1-1.14368-.26756c-.28565-.13957-25.60925-12.2619-59.05972-3.45526a2.59188,2.59188,0,1,1-1.31977-5.01294c35.42976-9.33021,61.577,3.27736,62.673,3.81972a2.5922,2.5922,0,0,1-1.14982,4.916Z" transform="translate(0 0.49878)"/><path class="e431be1b-fc67-498b-88eb-9190434c2199" d="M980.97411,202.08387a295.8997,295.8997,0,0,1-65.5913-7.745,2.59214,2.59214,0,0,1,1.18236-5.04766c39.79367,9.32225,71.47674,7.47169,71.79168,7.45144a2.59183,2.59183,0,0,1,.32469,5.17348C988.58862,201.92188,985.82651,202.08387,980.97411,202.08387Z" transform="translate(0 0.49878)"/><path class="e431be1b-fc67-498b-88eb-9190434c2199" d="M984.8723,213.89885c-13.19622,0-36.97081-3.01775-70.53265-18.95474a2.59216,2.59216,0,0,1,2.22372-4.68318c50.94551,24.19331,78.862,17.57423,79.13716,17.50553a2.59188,2.59188,0,0,1,1.29193,5.02017A52.29281,52.29281,0,0,1,984.8723,213.89885Z" transform="translate(0 0.49878)"/><path class="63529fdf-c402-4b40-923a-dc90222374dc" d="M985.65874,223.01066c-20.03514,0-45.04489-5.86048-70.10129-26.99772-.5995-.50549-1.27891-1.07823-1.47163-1.20767a2.57624,2.57624,0,0,1-.87285-3.54638,2.60807,2.60807,0,0,1,3.572-.87864,19.24479,19.24479,0,0,1,2.11452,1.6705c31.14866,26.27528,62.13677,27.82212,82.6463,24.48763a2.59205,2.59205,0,0,1,.83091,5.11708A104.37655,104.37655,0,0,1,985.65874,223.01066Z" transform="translate(0 0.49878)"/><path class="63529fdf-c402-4b40-923a-dc90222374dc" d="M1028.00769,240.36649a2.57668,2.57668,0,0,1-1.24926-.32325c-2.07041-1.14115-20.35007-11.29792-24.60876-16.33111-2.19913-2.599-5.98487-8.76687-9.64623-14.73149-2.70136-4.40115-6.40068-10.42868-7.35128-11.32757-.29975-.277-7.51435-6.84326-20.24991-10.52125a2.59163,2.59163,0,1,1,1.43836-4.97968c11.098,3.20432,19.257,8.858,22.32864,11.69277,1.3787,1.27276,3.90506,5.342,8.252,12.42388,3.39415,5.52928,7.241,11.79691,9.18558,14.09511,3.08789,3.64906,17.76116,12.16643,23.15448,15.14079a2.59206,2.59206,0,0,1-1.25359,4.8618Z" transform="translate(0 0.49878)"/><path class="63529fdf-c402-4b40-923a-dc90222374dc" d="M997.83168,260.52167a2.59309,2.59309,0,0,1-2.51334-1.96771c-.74088-2.98231-7.11444-13.03568-9.27488-15.58843-.03218-.03833-.06075-.07015-.08534-.09835a46.83694,46.83694,0,0,0-6.16023,2.65038c-2.36726,1.11511-5.31378,2.50285-9.23366,4.25-14.88154,6.635-41.06969,5.61172-49.676,5.27617-.57889-.02314-1.06521-.04194-1.4474-.05424-3.48129-.11209-14.12765-1.74281-24.424-3.32-7.13975-1.09342-13.88394-2.12609-16.8554-2.43127-8.26788-.84754-22.13989-12.61335-27.39184-18.42827-1.95-2.15863-3.75139-6.21267-1.26119-13.26781a34.61309,34.61309,0,0,1,3.02461-6.29294c1.2178-31.8371,20.44481-55.36582,24.31263-59.78577,1.86828-2.13549,8.39046-13.74221,14.145-23.98287,5.70356-10.15027,11.60129-20.64548,14.90541-25.55718C911.73555,93.24328,921.444,89.331,927.86816,86.7428c1.66941-.67326,3.111-1.254,4.19649-1.797,6.0467-3.02281,27.81164-5.66957,30.61858-5.24146,1.1679.17934,2.76717.42521,9.26115,10.53282a117.39864,117.39864,0,0,1,6.98825,12.12738,7.20651,7.20651,0,0,1-1.25938,7.45289,24.15716,24.15716,0,0,1,2.3528,7.75227,5.85081,5.85081,0,0,1-1.79091,5.68259c-3.59989,3.111-11.10267,1.40076-14.38834.43968-9.56271,3.29833-27.22769,2.30471-27.99821,2.25987a2.59576,2.59576,0,0,1-.84465-.19525c-1.506-.6183-5.98451-1.86865-8.50979-.22129-1.53924,1.139-5.63341,9.95212-10.95767,26.592a3.95829,3.95829,0,0,0-.094,2.10511c1.98832,8.51593,2.48007,22.84028,2.58782,31.39092,6.41551-5.63052,15.8231-8.20786,27.65869-7.50278a84.58784,84.58784,0,0,1,19.28088,3.57891c15.24023-13.95047,31.68741-15.31724,42.9188-13.95481a60.69114,60.69114,0,0,1,21.42578,6.69718,2.592,2.592,0,0,1-2.607,4.4807,56.54843,56.54843,0,0,0-19.63343-6.055c-15.05292-1.77247-28.39486,2.81743-39.65626,13.64312a2.591,2.591,0,0,1-2.66593.57275c-.34965-.12439-35.04938-12.1932-47.10915,6.90328a2.59168,2.59168,0,0,1-4.78262-1.41812c.00326-.25238.30012-25.31492-2.46525-37.15738a9.14364,9.14364,0,0,1,.20466-4.864c5.59-17.47009,9.985-27.34628,13.06279-29.35377,4.715-3.07487,11.05313-1.08185,12.89068-.39629,2.73138.13017,18.69838.74485,26.26335-2.249a2.58673,2.58673,0,0,1,1.74607-.05785c3.879,1.23877,9.10169,1.86141,10.28369.83959.17718-.15331.09618-.734.06726-.90829-.78572-4.71283-1.79452-6.19242-2.0404-6.494a2.59184,2.59184,0,0,1-.24189-4.3715c.00614-.00507,2.17634-1.63145,1.52442-3.17974-1.54286-3.66425-10.07145-17.384-12.60034-19.56363h-.04339c-3.52648,0-22.25487,2.33291-27.12861,4.77-1.2724.63565-2.804,1.25323-4.5776,1.96771-6.18554,2.49274-14.657,5.90605-19.60883,13.26637-3.18733,4.73886-9.03371,15.14224-14.68737,25.20356-7.80254,13.88539-12.68965,22.48737-14.763,24.85644-3.69209,4.21964-22.1558,26.81042-23.05613,57.241a2.59158,2.59158,0,0,1-.43968,1.36894c-1.66942,2.49779-5.74153,10.40916-2.63448,13.84923,5.658,6.264,18.14553,16.138,24.074,16.74621,3.10018.31746,9.9062,1.36026,17.11176,2.4638,9.67263,1.48176,20.63573,3.16021,23.80606,3.2629.39159.01229.88948.03182,1.48284.055,22.28741.86924,38.22115-.755,47.36334-4.83,3.87-1.72545,6.78938-3.1009,9.135-4.20589,7.1864-3.38367,9.6079-4.52554,12.41159-1.21057,1.97531,2.33436,9.24776,13.25479,10.34877,17.687a2.59532,2.59532,0,0,1-2.51768,3.21733ZM973.45,112.164l.00543.00145Zm-.00542-.00145.00325.00073Zm-.00506-.00144.00217.00072Zm-.00506-.00145h0Z" transform="translate(0 0.49878)"/><path class="520b0af1-6620-4a00-a8fa-d17127bdbb8f" d="M915.45152,192.60284" transform="translate(0 0.49878)"/><path class="63529fdf-c402-4b40-923a-dc90222374dc" d="M95.26465,150.19629a2.06624,2.06624,0,0,1-.3374-1.57422l9.10937-74.44873a2.20581,2.20581,0,0,1,2.36133-2.13672h16.19434a2.39522,2.39522,0,0,1,2.36181,1.46192l10.459,22.15478a.52974.52974,0,0,0,.562.44971.9724.9724,0,0,0,.78711-.44971l15.85693-22.15478a3.13466,3.13466,0,0,1,2.69922-1.46192H171.625q2.02442,0,1.79932,2.13672l-9.10889,74.44873a2.20526,2.20526,0,0,1-2.36182,2.13672H145.53418a1.78751,1.78751,0,0,1-1.40576-.5625,1.92846,1.92846,0,0,1-.39356-1.57422l4.94825-39.69873v-.22461q0-.56176-.33741-.5625a1.23882,1.23882,0,0,0-.78711.44971l-8.09716,11.58349a3.12968,3.12968,0,0,1-2.69922,1.46192h-7.647a2.39207,2.39207,0,0,1-2.36181-1.46192l-5.28565-11.58349a.91091.91091,0,0,0-.6748-.44971c-.30029,0-.48828.26367-.5625.78711L115.395,148.62207a2.404,2.404,0,0,1-.731,1.57422,2.325,2.325,0,0,1-1.63086.5625H96.72656A1.75608,1.75608,0,0,1,95.26465,150.19629Z" transform="translate(0 0.49878)"/><path class="63529fdf-c402-4b40-923a-dc90222374dc" d="M233.25293,90.14258H201.42676a1.00423,1.00423,0,0,0-1.01221.8999l-1.2373,9.89648c0,.60059.2622.89942.78759.89942h19.45557a1.79683,1.79683,0,0,1,1.40576.5625,1.93744,1.93744,0,0,1,.39356,1.57422l-1.687,13.72021a2.20523,2.20523,0,0,1-2.36181,2.13672H197.71533a.79493.79493,0,0,0-.89941.8999l-1.34961,11.021v.2251a.59638.59638,0,0,0,.6748.6748h31.93848a1.79747,1.79747,0,0,1,1.40576.562,1.93686,1.93686,0,0,1,.39356,1.57471l-1.68653,13.83252a2.284,2.284,0,0,1-.78759,1.57422,2.37711,2.37711,0,0,1-1.57422.5625H174.66113a1.75608,1.75608,0,0,1-1.46191-.5625,2.06624,2.06624,0,0,1-.3374-1.57422l9.10937-74.44873a2.20581,2.20581,0,0,1,2.36133-2.13672H235.502a1.79747,1.79747,0,0,1,1.40576.562,1.93863,1.93863,0,0,1,.394,1.57471l-1.687,13.83252A2.20526,2.20526,0,0,1,233.25293,90.14258Z" transform="translate(0 0.49878)"/><path class="63529fdf-c402-4b40-923a-dc90222374dc" d="M235.38867,150.19629a2.06628,2.06628,0,0,1-.3374-1.57422l9.10937-74.44873a2.20581,2.20581,0,0,1,2.36133-2.13672H262.1543a2.39456,2.39456,0,0,1,2.36132,1.46192l16.98145,37.22412a.53053.53053,0,0,0,.5625.45019q.44825,0,.5625-.7876l4.27344-36.21191a2.20607,2.20607,0,0,1,2.36133-2.13672h16.41943a1.79817,1.79817,0,0,1,1.40576.562,1.93859,1.93859,0,0,1,.39356,1.57471l-9.22168,74.44873a2.404,2.404,0,0,1-.731,1.57422,2.16937,2.16937,0,0,1-1.51807.5625H280.26025a2.39362,2.39362,0,0,1-2.36181-1.46191L261.0293,111.39746c-.15088-.374-.33741-.562-.562-.562-.2251,0-.41309.26367-.5625.78711L255.519,148.62207a2.05731,2.05731,0,0,1-2.36181,2.13672H236.85059A1.75608,1.75608,0,0,1,235.38867,150.19629Z" transform="translate(0 0.49878)"/><path class="63529fdf-c402-4b40-923a-dc90222374dc" d="M374.21973,72.59863a1.93858,1.93858,0,0,1,.39355,1.57471l-1.687,13.94482a2.20483,2.20483,0,0,1-2.36133,2.13672H353.021a1.00464,1.00464,0,0,0-1.01221.89991l-7.085,57.46728a2.404,2.404,0,0,1-.731,1.57422,2.1697,2.1697,0,0,1-1.51855.5625H326.25537a1.75671,1.75671,0,0,1-1.46191-.5625,2.06628,2.06628,0,0,1-.33741-1.57422l7.085-57.46728c0-.59913-.26368-.89991-.78711-.89991H313.772q-2.1372,0-1.91162-2.13672l1.79932-13.94482a2.39388,2.39388,0,0,1,.731-1.57471,2.17454,2.17454,0,0,1,1.51856-.562H372.814A1.79819,1.79819,0,0,1,374.21973,72.59863Z" transform="translate(0 0.49878)"/><path class="63529fdf-c402-4b40-923a-dc90222374dc" d="M412.9624,148.95947l-1.23681-8.09717a.69843.69843,0,0,0-.28125-.5625.97152.97152,0,0,0-.61866-.2246H388.22119a1.30561,1.30561,0,0,0-1.12451.7871l-3.14893,8.09717a2.47453,2.47453,0,0,1-2.47412,1.79932h-17.769q-1.57617,0-1.57422-1.34961a2.48564,2.48564,0,0,1,.2251-1.12451l31.82617-74.44873a2.47466,2.47466,0,0,1,2.47412-1.79932H419.148a1.91524,1.91524,0,0,1,2.02393,1.79932l13.60791,74.44873v.44971q0,2.0244-2.13672,2.02441H414.98682A1.75927,1.75927,0,0,1,412.9624,148.95947Zm-18.89306-25.86572q0,.78808.67431.78711h13.49561a.99.99,0,0,0,.731-.28125.72368.72368,0,0,0,.16846-.731l-3.71094-25.97851c-.07568-.374-.24414-.562-.50634-.562q-.39552,0-.61817.562l-10.23388,25.97851Z" transform="translate(0 0.49878)"/><path class="63529fdf-c402-4b40-923a-dc90222374dc" d="M442.08936,150.19629a2.06624,2.06624,0,0,1-.33741-1.57422l9.10938-74.44873a2.20581,2.20581,0,0,1,2.36133-2.13672H469.5293a1.76739,1.76739,0,0,1,1.4624.562,2.08871,2.08871,0,0,1,.3374,1.57471l-6.97265,57.57959v.2251a.59638.59638,0,0,0,.6748.6748h32.95068a1.76571,1.76571,0,0,1,1.46192.562,2.08657,2.08657,0,0,1,.3374,1.57471l-1.68652,13.83252a2.40215,2.40215,0,0,1-.73145,1.57422,2.32291,2.32291,0,0,1-1.63037.5625H443.55127A1.75606,1.75606,0,0,1,442.08936,150.19629Z" transform="translate(0 0.49878)"/><path class="671172f0-cfa4-4354-9de9-9c59eab62674" d="M104.09277,262.2041q-7.1433-6.80272-7.1416-18.38672a33.86215,33.86215,0,0,1,.2251-4.499l2.58643-21.25488a35.32018,35.32018,0,0,1,5.67968-15.51953,30.677,30.677,0,0,1,11.80811-10.40235,35.61287,35.61287,0,0,1,16.25049-3.65527,31.67547,31.67547,0,0,1,14.22607,3.03613,22.65328,22.65328,0,0,1,9.44678,8.37891,22.05172,22.05172,0,0,1,3.31787,11.86425q0,.90088-.2251,3.14942a1.98556,1.98556,0,0,1-.731,1.293,2.32387,2.32387,0,0,1-1.51806.50586H141.71045q-2.13721,0-1.91162-.5625v-.44922a8.07793,8.07793,0,0,0-1.79932-6.41016q-2.25073-2.6997-6.63525-2.69922a10.19994,10.19994,0,0,0-7.42237,2.9795,12.72412,12.72412,0,0,0-3.59863,7.92871L117.644,239.99316a8.43426,8.43426,0,0,0-.1123,1.57422,9.11934,9.11934,0,0,0,2.58642,6.748,8.97811,8.97811,0,0,0,6.63526,2.58691,10.69183,10.69183,0,0,0,6.9165-2.30566,9.07091,9.07091,0,0,0,3.31738-6.35449l.11231-1.124v-.22558q0-.67383-.78711-.67481h-8.772a1.75775,1.75775,0,0,1-1.46192-.56152,2.072,2.072,0,0,1-.3374-1.5752l1.46191-12.59472a2.28416,2.28416,0,0,1,.78711-1.5752,2.38748,2.38748,0,0,1,1.57471-.56152H157.23a1.79716,1.79716,0,0,1,1.40576.56152,1.9398,1.9398,0,0,1,.394,1.5752l-1.91211,14.957a32.30666,32.30666,0,0,1-5.5669,14.84473,30.8974,30.8974,0,0,1-11.8081,10.12109,35.796,35.796,0,0,1-16.13819,3.59863Q111.23243,269.00781,104.09277,262.2041Z" transform="translate(0 0.49878)"/><path class="671172f0-cfa4-4354-9de9-9c59eab62674" d="M175.9541,266.30859a22.51948,22.51948,0,0,1-9.44629-8.88379,26.47712,26.47712,0,0,1-3.31787-13.49511,32.57259,32.57259,0,0,1,.3374-4.61133l2.58643-21.14258a34.91814,34.91814,0,0,1,5.73584-15.51953,31.34656,31.34656,0,0,1,11.977-10.459,36.09859,36.09859,0,0,1,16.4751-3.71094,32.07189,32.07189,0,0,1,14.50781,3.09277,22.24556,22.24556,0,0,1,9.50244,8.77149,25.95873,25.95873,0,0,1,3.31787,13.32714,31.8129,31.8129,0,0,1-.3374,4.49805l-2.58643,21.14258a34.22463,34.22463,0,0,1-5.67919,15.80078A31.95861,31.95861,0,0,1,206.937,265.69043a36.00615,36.00615,0,0,1-16.53174,3.76758A31.23833,31.23833,0,0,1,175.9541,266.30859Zm24.46045-18.0498a13.163,13.163,0,0,0,3.71094-8.26563l2.69922-22.042a13.55523,13.55523,0,0,0,.1123-2.02441,9.57291,9.57291,0,0,0-2.36133-6.80371,8.486,8.486,0,0,0-6.523-2.53028,10.50679,10.50679,0,0,0-7.64746,3.09278,13.15225,13.15225,0,0,0-3.71093,8.26562l-2.69922,22.042a13.292,13.292,0,0,0-.11231,2.02442,9.56776,9.56776,0,0,0,2.36182,6.80371,8.34055,8.34055,0,0,0,6.41016,2.53027A10.63993,10.63993,0,0,0,200.41455,248.25879Z" transform="translate(0 0.49878)"/><path class="671172f0-cfa4-4354-9de9-9c59eab62674" d="M273.626,266.30859l-1.23682-8.09668a.69906.69906,0,0,0-.28125-.5625.9715.9715,0,0,0-.61865-.22461H248.88477a1.30563,1.30563,0,0,0-1.12452.78711l-3.14892,8.09668a2.475,2.475,0,0,1-2.47412,1.79981H224.36816q-1.57617,0-1.57421-1.34961a2.488,2.488,0,0,1,.22509-1.125l31.82617-74.44824a2.47563,2.47563,0,0,1,2.47413-1.79981h22.49218a1.916,1.916,0,0,1,2.02393,1.79981l13.60791,74.44824v.45019q0,2.02441-2.13672,2.02442H275.65039A1.7596,1.7596,0,0,1,273.626,266.30859Zm-18.89307-25.86523q0,.78808.67432.78711h13.4956a.98807.98807,0,0,0,.731-.28125.72431.72431,0,0,0,.16846-.73145l-3.71094-25.97754q-.11354-.5625-.50635-.5625-.39551,0-.61816.5625l-10.23389,25.97754Z" transform="translate(0 0.49878)"/><path class="671172f0-cfa4-4354-9de9-9c59eab62674" d="M302.75244,267.5459a2.06629,2.06629,0,0,1-.3374-1.57422l9.10937-74.44922a2.20612,2.20612,0,0,1,2.36133-2.13672h16.30664a1.76761,1.76761,0,0,1,1.46241.5625,2.08749,2.08749,0,0,1,.3374,1.57422l-6.97266,57.58008v.22461a.59619.59619,0,0,0,.67481.6748H358.645a1.76589,1.76589,0,0,1,1.46191.5625,2.08531,2.08531,0,0,1,.33741,1.57422l-1.68653,13.833a2.40212,2.40212,0,0,1-.73144,1.57422,2.32511,2.32511,0,0,1-1.63037.5625H304.21436A1.7575,1.7575,0,0,1,302.75244,267.5459Z" transform="translate(0 0.49878)"/><path class="671172f0-cfa4-4354-9de9-9c59eab62674" d="M373.37646,263.04785q-7.31176-5.96044-7.30957-15.96973,0-1.0122.22461-3.26074l.2251-1.125a2.39032,2.39032,0,0,1,.731-1.57422,2.16924,2.16924,0,0,1,1.51806-.5625h16.082q2.135,0,1.91162,1.125L386.647,242.917a6.24322,6.24322,0,0,0,2.47412,5.51074,11.16114,11.16114,0,0,0,7.64746,2.47461q4.38575,0,6.29786-2.02441a6.07026,6.07026,0,0,0,1.91162-4.16113,3.62368,3.62368,0,0,0-2.08057-3.374,44.25414,44.25414,0,0,0-7.25391-2.69922l-3.03613-1.01171a51.32627,51.32627,0,0,1-16.02588-8.041q-6.468-5.00244-6.46631-14.33887a23.85221,23.85221,0,0,1,4.21729-13.94531,28.00133,28.00133,0,0,1,11.47119-9.44629,37.26363,37.26363,0,0,1,15.91309-3.374,34.03043,34.03043,0,0,1,14.11377,2.81152,22.45373,22.45373,0,0,1,9.72754,8.041,21.09874,21.09874,0,0,1,3.48632,11.97656q0,1.0122-.22461,3.26172l-.11279.5625a2.40171,2.40171,0,0,1-.731,1.57422,2.17154,2.17154,0,0,1-1.51806.5625H410.376q-2.13722,0-1.91162-.89942l.1123-.90039a7.5012,7.5012,0,0,0-2.30518-6.1289q-2.644-2.75391-7.5913-2.75489a9.94184,9.94184,0,0,0-5.96045,1.63086,5.195,5.195,0,0,0-2.249,4.44141q0,2.58837,2.98,4.33008a70.10416,70.10416,0,0,0,11.30225,4.55468q.89868.33691,6.9165,2.30567a22.21048,22.21048,0,0,1,10.065,6.63476,16.50746,16.50746,0,0,1,4.04882,11.19043,24.74142,24.74142,0,0,1-4.21728,14.28223,27.80016,27.80016,0,0,1-11.6958,9.61523,39.85964,39.85964,0,0,1-16.813,3.42969Q380.68506,269.00781,373.37646,263.04785Z" transform="translate(0 0.49878)"/><circle class="f92f0eaf-7d09-4f37-8214-ede9e6113760" cx="939.44572" cy="170.58894" r="148.10309"/><path class="671172f0-cfa4-4354-9de9-9c59eab62674" d="M949.75741,274.26138H929.13514a3.41029,3.41029,0,0,1-2.04315-.67994c-4.22051-3.16233-103.36315-77.9946-103.36315-126.52881a59.85225,59.85225,0,0,1,70.73821-58.8021,3.40778,3.40778,0,0,1-1.24009,6.7018,53.03417,53.03417,0,0,0-62.68319,52.1003c0,42.84623,89.74327,112.74366,99.73939,120.39382h19.47425a3.40746,3.40746,0,0,1,0,6.81493Z" transform="translate(0 0.49878)"/><path class="f4875a6b-70a8-44e8-9ebe-cdb4f5bd4bb6" d="M995.36159,90.65917a56.30469,56.30469,0,0,0-45.60451,23.23506A56.38648,56.38648,0,0,0,847.759,147.05274c0,47.38764,101.99808,123.80122,101.99808,123.80122s101.99808-76.41358,101.99808-123.80122A56.39355,56.39355,0,0,0,995.36159,90.65917Z" transform="translate(0 0.49878)"/><path class="63529fdf-c402-4b40-923a-dc90222374dc" d="M949.75741,274.26138a3.40231,3.40231,0,0,1-2.04315-.67994c-4.22051-3.16233-103.36315-77.9946-103.36315-126.52881a59.79046,59.79046,0,0,1,105.4063-38.66344,59.7897,59.7897,0,0,1,105.40518,38.66344c0,48.53421-99.14152,123.36648-103.362,126.52881A3.40235,3.40235,0,0,1,949.75741,274.26138ZM904.15259,94.06719A53.04628,53.04628,0,0,0,851.166,147.05263c0,18.44047,17.28247,45.14893,49.9784,77.23923a578.6057,578.6057,0,0,0,48.613,42.27388A578.90634,578.90634,0,0,0,998.42029,224.242c32.66265-32.06812,49.92737-58.75884,49.92737-77.18932a52.979,52.979,0,0,0-95.83611-31.15193,3.40771,3.40771,0,0,1-5.50829,0A53.1898,53.1898,0,0,0,904.15259,94.06719Z" transform="translate(0 0.49878)"/><path class="e431be1b-fc67-498b-88eb-9190434c2199" d="M928.21006,197.17633c-.05768,0-.11425-.00111-.17192-.00444a3.40723,3.40723,0,0,1-3.098-2.44246l-12.18458-41.473-7.56808,16.65022a3.40787,3.40787,0,0,1-3.10244,1.99767H885.89958a3.40747,3.40747,0,1,1,0-6.81493H899.891l10.44979-22.99042a3.40757,3.40757,0,0,1,6.37125.44923l12.016,40.90069,6.5465-16.09451a3.40824,3.40824,0,0,1,3.15679-2.123h19.025a3.40747,3.40747,0,1,1,0,6.81493h-16.7323l-9.35833,23.00705A3.409,3.409,0,0,1,928.21006,197.17633Z" transform="translate(0 0.49878)"/><path class="e431be1b-fc67-498b-88eb-9190434c2199" d="M986.78144,197.31608c-.05768,0-.11425-.0011-.17193-.00443a3.40725,3.40725,0,0,1-3.098-2.44246l-12.18457-41.473-7.56808,16.65022a3.40788,3.40788,0,0,1-3.10244,1.99767H944.471a3.40747,3.40747,0,0,1,0-6.81493h13.99147l10.44979-22.99042a3.40757,3.40757,0,0,1,6.37125.44923l12.016,40.90069,6.5465-16.09451a3.40824,3.40824,0,0,1,3.15679-2.123h19.025a3.40747,3.40747,0,1,1,0,6.81493h-16.7323l-9.35833,23.007A3.409,3.409,0,0,1,986.78144,197.31608Z" transform="translate(0 0.49878)"/><circle class="f92f0eaf-7d09-4f37-8214-ede9e6113760" cx="939.44572" cy="170.58894" r="148.10309"/><polygon class="f92f0eaf-7d09-4f37-8214-ede9e6113760" points="841.84 103.062 885.064 103.062 890.482 108.961 850.188 108.961 841.84 103.062"/><path class="671172f0-cfa4-4354-9de9-9c59eab62674" d="M890.48211,110.46933H850.34805a2.08774,2.08774,0,0,1-1.1638-.3612l-8.34795-5.89971a2.00674,2.00674,0,0,1,1.1638-3.65221h43.064a2.04722,2.04722,0,0,1,1.48494.64216l5.418,5.89971a2.01069,2.01069,0,0,1-1.48494,3.37125Zm-39.65247-4.01341h35.07713l-1.72573-1.88631H848.06038Z" transform="translate(0 0.49878)"/><circle class="f92f0eaf-7d09-4f37-8214-ede9e6113760" cx="864.43511" cy="198.42025" r="36.84307"/><path class="c1e17a46-b111-4b01-81b2-ff5e8fc15ba9" d="M864.43515,236.77122a38.84981,38.84981,0,1,1,38.84974-38.84987v.00013A38.89,38.89,0,0,1,864.43515,236.77122Zm0-73.646a34.8364,34.8364,0,1,0,34.83633,34.83634v-.04005A34.87637,34.87637,0,0,0,864.43515,163.12519Z" transform="translate(0 0.49878)"/><polygon class="f92f0eaf-7d09-4f37-8214-ede9e6113760" points="858.535 168.4 850.188 163.985 841.84 103.062 850.188 108.961 858.535 168.4"/><path class="c1e17a46-b111-4b01-81b2-ff5e8fc15ba9" d="M858.53556,169.90786a1.8467,1.8467,0,0,1-.923-.2408l-8.348-4.41477a2.00675,2.00675,0,0,1-1.04352-1.48494l-8.348-60.92347a2.00671,2.00671,0,0,1,.923-2.0067,2.08685,2.08685,0,0,1,2.20732,0l8.348,5.89971a2.0466,2.0466,0,0,1,.8429,1.36454l8.348,59.43853a2.00673,2.00673,0,0,1-.8429,1.92648A2.08735,2.08735,0,0,1,858.53556,169.90786Zm-6.5017-7.74585,4.01341,2.1271-7.6655-54.70274-4.01341-2.72909Z" transform="translate(0 0.49878)"/><circle class="f92f0eaf-7d09-4f37-8214-ede9e6113760" cx="872.30138" cy="202.79486" r="36.84307"/><path class="cb52389f-1d7a-402b-a42b-667b3ca08043" d="M872.30151,241.14582A38.84981,38.84981,0,1,1,911.15125,202.296v.00012A38.88994,38.88994,0,0,1,872.30151,241.14582Zm0-73.6862a34.8364,34.8364,0,1,0,34.83634,34.83645V202.296a34.83625,34.83625,0,0,0-34.83634-34.83621Z" transform="translate(0 0.49878)"/><path class="e431be1b-fc67-498b-88eb-9190434c2199" d="M872.50213,188.12876a11.35926,11.35926,0,0,1,4.01341.602,8.46623,8.46623,0,0,1,2.92971,1.72574,7.34545,7.34545,0,0,1,1.84625,2.64886,8.99226,8.99226,0,0,1,.642,3.37125,9.47811,9.47811,0,0,1-.44142,2.88965,13.6931,13.6931,0,0,1-1.204,2.56864,19.45857,19.45857,0,0,1-1.80608,2.3679l-2.16715,2.28767-5.61887,5.73914,2.12722-.48159a12.04374,12.04374,0,0,1,2.00671-.20062h5.37807a2.08717,2.08717,0,0,1,1.52511.56193,1.80543,1.80543,0,0,1,.60211,1.40472v3.572h-20.067v-1.96653a3.56878,3.56878,0,0,1,.2408-1.24414,2.89026,2.89026,0,0,1,.8429-1.16393l8.26761-8.34783a26.56922,26.56922,0,0,0,1.84625-2.04687,12.52937,12.52937,0,0,0,1.32449-1.88631,10.30762,10.30762,0,0,0,.76256-1.8863,8.02721,8.02721,0,0,0,.2408-1.96653,3.73217,3.73217,0,0,0-.80273-2.64887,3.2106,3.2106,0,0,0-2.4883-.92312,4.29476,4.29476,0,0,0-1.28432.20062,3.719,3.719,0,0,0-1.80608,1.32449,7.3381,7.3381,0,0,0-.52176.96318,2.60831,2.60831,0,0,1-.80273,1.28432,1.84547,1.84547,0,0,1-1.28432.40136h-.88283l-3.25085-.56193a10.236,10.236,0,0,1,1.204-3.73244,9.23007,9.23007,0,0,1,2.2475-2.689,8.02763,8.02763,0,0,1,3.05023-1.56528A12.0403,12.0403,0,0,1,872.50213,188.12876Z" transform="translate(0 0.49878)"/><polygon class="f92f0eaf-7d09-4f37-8214-ede9e6113760" points="885.064 168.4 890.482 108.961 850.188 108.961 858.535 168.4 885.064 168.4"/><path class="cb52389f-1d7a-402b-a42b-667b3ca08043" d="M885.06411,169.90786H858.53556a1.96649,1.96649,0,0,1-1.96653-1.72574l-8.34795-59.43853a1.95417,1.95417,0,0,1,1.96653-2.28767h40.13406a2.08661,2.08661,0,0,1,1.48494.64216,2.12769,2.12769,0,0,1,.52176,1.52511l-5.25755,59.43854A2.00671,2.00671,0,0,1,885.06411,169.90786Zm-24.76264-4.01341H883.2181l5.05693-55.42512H852.51569Z" transform="translate(0 0.49878)"/><polygon class="f92f0eaf-7d09-4f37-8214-ede9e6113760" points="983.994 103.062 1027.219 103.062 1032.637 108.961 992.342 108.961 983.994 103.062"/><path class="671172f0-cfa4-4354-9de9-9c59eab62674" d="M1032.63713,110.46933H992.50307a2.08771,2.08771,0,0,1-1.1638-.3612l-8.348-5.89971a2.00674,2.00674,0,0,1,1.1638-3.65221h43.22446a2.08659,2.08659,0,0,1,1.48494.64216l5.418,5.89971a2.04709,2.04709,0,0,1,.32114,2.16727A2.00691,2.00691,0,0,1,1032.63713,110.46933Zm-39.65247-4.01341h35.07713l-1.72574-1.88631H990.2154Z" transform="translate(0 0.49878)"/><circle class="f92f0eaf-7d09-4f37-8214-ede9e6113760" cx="1006.58995" cy="198.42025" r="36.84307"/><path class="c1e17a46-b111-4b01-81b2-ff5e8fc15ba9" d="M1006.59017,236.77122a38.84981,38.84981,0,1,1,38.84974-38.84987v.00013A38.89,38.89,0,0,1,1006.59017,236.77122Zm0-73.646a34.8364,34.8364,0,1,0,34.83633,34.83634v-.04005A34.83639,34.83639,0,0,0,1006.59017,163.12519Z" transform="translate(0 0.49878)"/><polygon class="f92f0eaf-7d09-4f37-8214-ede9e6113760" points="1000.69 168.4 992.342 163.985 983.994 103.062 992.342 108.961 1000.69 168.4"/><path class="c1e17a46-b111-4b01-81b2-ff5e8fc15ba9" d="M1000.69033,169.90786a1.84666,1.84666,0,0,1-.923-.2408l-8.348-4.41477a2.0467,2.0467,0,0,1-1.08369-1.48494l-8.348-60.92347a2.12686,2.12686,0,0,1,.96318-2.0067,2.08685,2.08685,0,0,1,2.20732,0l8.348,5.89971a2.04657,2.04657,0,0,1,.8429,1.36454l8.348,59.43853a2.00689,2.00689,0,0,1-2.0067,2.28767Zm-6.5017-7.74585,4.01341,2.1271-7.70567-54.70274-4.01341-2.72909Z" transform="translate(0 0.49878)"/><circle class="f92f0eaf-7d09-4f37-8214-ede9e6113760" cx="1014.45622" cy="202.79486" r="36.84307"/><path class="cb52389f-1d7a-402b-a42b-667b3ca08043" d="M1014.45628,241.14582A38.84981,38.84981,0,1,1,1053.306,202.296v.00012A38.89,38.89,0,0,1,1014.45628,241.14582Zm0-73.6862a34.8364,34.8364,0,1,0,34.83634,34.83645V202.296a34.83625,34.83625,0,0,0-34.83634-34.83621Z" transform="translate(0 0.49878)"/><path class="e431be1b-fc67-498b-88eb-9190434c2199" d="M1015.17867,188.12876a11.197,11.197,0,0,1,4.0134.602,8.5087,8.5087,0,0,1,2.76926,1.60534,7.18162,7.18162,0,0,1,1.76591,2.3679,7.06561,7.06561,0,0,1,.56194,2.84948,10.59457,10.59457,0,0,1-.2408,2.40807,6.21877,6.21877,0,0,1-.8429,1.80608,5.05729,5.05729,0,0,1-1.32449,1.28432,8.71042,8.71042,0,0,1-1.84626.88295,6.38141,6.38141,0,0,1,4.776,6.5017,9.35,9.35,0,0,1-.80273,4.01341,8.34757,8.34757,0,0,1-2.2475,2.84948,10.63594,10.63594,0,0,1-3.21068,1.68569,13.56823,13.56823,0,0,1-4.0134.56193,13.88348,13.88348,0,0,1-3.61217-.44141,8.22827,8.22827,0,0,1-2.8496-1.40472,8.9503,8.9503,0,0,1-2.20733-2.3679,17.61071,17.61071,0,0,1-1.60546-3.49164l2.72909-1.12375.68221-.20062h.68221a2.44884,2.44884,0,0,1,1.12387.24079,1.48558,1.48558,0,0,1,.76256.72239,7.50243,7.50243,0,0,0,1.88618,2.36789,4.013,4.013,0,0,0,2.368.72239,4.77762,4.77762,0,0,0,1.76591-.321,4.29388,4.29388,0,0,0,1.28432-.883,4.01186,4.01186,0,0,0,.72238-1.24414,3.49041,3.49041,0,0,0,.281-1.40472,11.12781,11.12781,0,0,0,0-1.68568,2.327,2.327,0,0,0-.72239-1.24415,4.01252,4.01252,0,0,0-1.80608-.84278,17.09691,17.09691,0,0,0-3.33119-.281v-4.214a12.04208,12.04208,0,0,0,2.9297-.281,4.69771,4.69771,0,0,0,1.68557-.76256,2.287,2.287,0,0,0,.80273-1.16392,6.11063,6.11063,0,0,0,0-1.52512,4.01392,4.01392,0,0,0-.80273-2.60869,3.29107,3.29107,0,0,0-2.52847-.92312,4.0121,4.0121,0,0,0-1.24415.20062,4.21249,4.21249,0,0,0-1.04352.52176,3.61081,3.61081,0,0,0-.76256.80273,3.21338,3.21338,0,0,0-.52176.96318,2.60831,2.60831,0,0,1-.80273,1.28432,1.92643,1.92643,0,0,1-1.32449.40136h-.88283l-3.25085-.56193a11.03829,11.03829,0,0,1,1.24414-3.73244,9.11187,9.11187,0,0,1,2.20733-2.689,8.46893,8.46893,0,0,1,3.05023-1.56528A12.23989,12.23989,0,0,1,1015.17867,188.12876Z" transform="translate(0 0.49878)"/><polygon class="f92f0eaf-7d09-4f37-8214-ede9e6113760" points="1027.219 168.4 1032.637 108.961 992.342 108.961 1000.69 168.4 1027.219 168.4"/><path class="cb52389f-1d7a-402b-a42b-667b3ca08043" d="M1027.21889,169.90786h-26.52856a2.0468,2.0468,0,0,1-2.0067-1.72574l-8.34795-59.43853a2.1269,2.1269,0,0,1,.48158-1.60534,2.00675,2.00675,0,0,1,1.52512-.68233h40.13406a2.08661,2.08661,0,0,1,1.48494.64216,1.96657,1.96657,0,0,1,.48159,1.52511l-5.21738,59.43854A2.00671,2.00671,0,0,1,1027.21889,169.90786Zm-24.76265-4.01341h23.07708l5.05694-55.42512H994.83092Z" transform="translate(0 0.49878)"/><polygon class="f92f0eaf-7d09-4f37-8214-ede9e6113760" points="912.235 90.62 962.764 90.62 969.105 97.523 921.987 97.523 912.235 90.62"/><path class="671172f0-cfa4-4354-9de9-9c59eab62674" d="M969.10485,99.31206H921.9875a2.16711,2.16711,0,0,1-1.32449-.40136l-9.79272-6.90307a2.28768,2.28768,0,0,1,1.32449-4.0134H962.7636a2.20733,2.20733,0,0,1,1.68556.76255l6.34125,6.86289a2.36814,2.36814,0,0,1,.40124,2.4883A2.28793,2.28793,0,0,1,969.10485,99.31206Zm-46.395-4.57534h41.13741l-2.08705-2.28767H919.459Z" transform="translate(0 0.49878)"/><circle class="f92f0eaf-7d09-4f37-8214-ede9e6113760" cx="938.64298" cy="202.19284" r="43.10397"/><path class="c1e17a46-b111-4b01-81b2-ff5e8fc15ba9" d="M938.643,247.04553a45.39162,45.39162,0,1,1,45.39161-45.39161v.04017A45.43172,45.43172,0,0,1,938.643,247.04553Zm0-86.16783a40.81635,40.81635,0,1,0,40.77609,40.85656v-.04017A40.85654,40.85654,0,0,0,938.643,160.8777Z" transform="translate(0 0.49878)"/><polygon class="f92f0eaf-7d09-4f37-8214-ede9e6113760" points="931.74 167.035 921.987 161.858 912.235 90.62 921.987 97.523 931.74 167.035"/><path class="c1e17a46-b111-4b01-81b2-ff5e8fc15ba9" d="M931.74005,168.82428a2.64859,2.64859,0,0,1-1.0837-.24079l-9.75255-5.17733a2.44838,2.44838,0,0,1-1.204-1.72573l-9.75255-71.238a2.28766,2.28766,0,0,1,3.61216-2.16727l9.75255,6.86289a2.48818,2.48818,0,0,1,.96318,1.56528l9.75255,69.51222a2.2875,2.2875,0,0,1-2.28767,2.60869Zm-7.62557-8.94994,4.73579,2.52847-8.99-64.2145-4.65545-3.291Z" transform="translate(0 0.49878)"/><circle class="f92f0eaf-7d09-4f37-8214-ede9e6113760" cx="947.83369" cy="207.24974" r="43.10397"/><path class="cb52389f-1d7a-402b-a42b-667b3ca08043" d="M947.83384,252.34325a45.43171,45.43171,0,1,1,.32163,0Q947.99454,252.3438,947.83384,252.34325Zm0-86.16783a40.81635,40.81635,0,1,0,40.7761,40.85657v-.08035a40.81642,40.81642,0,0,0-40.65558-40.9766l-.12052-.00024Z" transform="translate(0 0.49878)"/><path class="e431be1b-fc67-498b-88eb-9190434c2199" d="M939.96748,219.19248H946.429V199.64721l-3.81278,3.13045a2.32858,2.32858,0,0,1-.72238.44142h-.72239a2.40689,2.40689,0,0,1-1.0837-.24079,2.08612,2.08612,0,0,1-.68221-.602l-2.28767-2.96988,10.47493-8.78937h5.93977v28.455h5.53852v5.17733h-19.1842Z" transform="translate(0 0.49878)"/><polygon class="f92f0eaf-7d09-4f37-8214-ede9e6113760" points="962.764 167.035 969.105 97.523 921.987 97.523 931.74 167.035 962.764 167.035"/><path class="cb52389f-1d7a-402b-a42b-667b3ca08043" d="M962.7636,168.82428H931.74005a2.32788,2.32788,0,0,1-2.28768-1.96653l-9.75254-69.51222a2.2878,2.2878,0,0,1,.56193-1.80608,2.16726,2.16726,0,0,1,1.72574-.80273h47.11735a2.28761,2.28761,0,0,1,1.68556.76256,2.24748,2.24748,0,0,1,.60211,1.72573l-6.34125,69.51222A2.2877,2.2877,0,0,1,962.7636,168.82428Zm-29.01685-4.57534h26.93l5.89959-64.93688H924.63624Z" transform="translate(0 0.49878)"/><circle class="f92f0eaf-7d09-4f37-8214-ede9e6113760" cx="939.44759" cy="170.58894" r="148.10309"/><path class="d229d737-77b2-4edc-8ba9-af1a10d5fc29" d="M887.97188,131.201" transform="translate(0 0.49878)"/><path class="d229d737-77b2-4edc-8ba9-af1a10d5fc29" d="M890.8179,241.49086" transform="translate(0 0.49878)"/><path class="520b0af1-6620-4a00-a8fa-d17127bdbb8f" d="M915.45339,185.68748" transform="translate(0 0.49878)"/><path class="e431be1b-fc67-498b-88eb-9190434c2199" d="M992.24294,242.23951a2.28,2.28,0,0,1-2.22555-1.81677c-.0636-.26344-1.28989-4.91437-9.55623-7.16717a2.271,2.271,0,1,1,1.06024-4.41646q.07.01684.13883.038c11.21854,3.06126,12.71739,10.33743,12.8173,10.64628a2.271,2.271,0,0,1-1.80163,2.6587l-.01514.00286A2.37015,2.37015,0,0,1,992.24294,242.23951Z" transform="translate(0 0.49878)"/><path class="e431be1b-fc67-498b-88eb-9190434c2199" d="M1027.43377,234.24573a2.2661,2.2661,0,0,1-1.93132-3.46114l.00555-.0089c.0545-.09991,3.96964-6.53129,2.46174-11.809a2.2728,2.2728,0,1,1,4.36933-1.25358h0c2.07115,7.26708-2.77056,15.12461-2.97953,15.44255A2.28916,2.28916,0,0,1,1027.43377,234.24573Z" transform="translate(0 0.49878)"/><path class="e431be1b-fc67-498b-88eb-9190434c2199" d="M962.13905,228.79542a2.271,2.271,0,0,1-1.299-4.14223c.49961-.3361,12.2723-8.42982,25.1986-12.11786s37.5617-19.91181,39.23315-42.49425a2.27684,2.27684,0,1,1,4.54192.327c-1.944,26.27957-29.9767,42.95753-42.5215,46.52748-12.19051,3.48819-23.7452,11.41841-23.8542,11.50016A2.271,2.271,0,0,1,962.13905,228.79542Z" transform="translate(0 0.49878)"/><path class="e431be1b-fc67-498b-88eb-9190434c2199" d="M1024.4452,184.79325a2.26189,2.26189,0,0,1-1.19-4.19674c.30888-.19984,7.803-4.75086,14.34338-3.93329a2.2878,2.2878,0,0,1-.5541,4.54192c-4.95071-.61769-11.35481,3.252-11.41841,3.29744A2.23464,2.23464,0,0,1,1024.4452,184.79325Z" transform="translate(0 0.49878)"/><path class="e431be1b-fc67-498b-88eb-9190434c2199" d="M987.58292,236.26235a2.26189,2.26189,0,0,1-2.26187-2.21647c0-.38153-.0545-9.37454,14.33435-12.454a2.271,2.271,0,1,1,.95379,4.43293c-10.58271,2.271-10.7553,7.85752-10.7553,7.912a2.271,2.271,0,0,1-2.21514,2.32544l-.00133,0Z" transform="translate(0 0.49878)"/><path class="e431be1b-fc67-498b-88eb-9190434c2199" d="M962.54783,203.82392a2.32547,2.32547,0,0,1-1.081-.2725c-4.17855-2.28006-14.41606-1.72593-18.0042-1.32624a2.28516,2.28516,0,0,1-.50869-4.54192c1.47158-.1635,14.53416-1.517,20.68395,1.81677a2.271,2.271,0,0,1-1.09008,4.26942Z" transform="translate(0 0.49878)"/><path class="e431be1b-fc67-498b-88eb-9190434c2199" d="M999.45552,150.8469h-.18169a2.27092,2.27092,0,0,1-2.12564-2.40721c.09081-1.46249-1.92577-3.1521-3.70623-4.65093a19.54955,19.54955,0,0,1-2.97953-2.85234,20.51137,20.51137,0,0,1-4.13314-9.75606c-.52688-2.96133-.7721-6.177,1.44436-7.6486,2.40724-1.59876,5.5775.20892,9.16563,2.55256a2.27137,2.27137,0,0,1-2.47988,3.80613,24.44509,24.44509,0,0,0-3.94241-2.24371,13.80634,13.80634,0,0,0,.2816,2.72515,15.94243,15.94243,0,0,0,3.27016,7.79394,17.686,17.686,0,0,0,2.28915,2.13471c2.47987,2.08021,5.55931,4.66911,5.32312,8.41165A2.27094,2.27094,0,0,1,999.45552,150.8469Z" transform="translate(0 0.49878)"/><path class="e431be1b-fc67-498b-88eb-9190434c2199" d="M978.56267,143.40722a2.27094,2.27094,0,0,1-1.57149-3.91513c4.24214-4.04233,10.48274-3.897,12.29047-3.76073,2.32547.18169,3.13394.654,3.63354,1.31717a2.271,2.271,0,0,1-2.925,3.35194c-1.2808-.31794-6.73111-.60863-9.856,2.38A2.28909,2.28909,0,0,1,978.56267,143.40722Zm10.7553-3.63354Z" transform="translate(0 0.49878)"/><path class="e431be1b-fc67-498b-88eb-9190434c2199" d="M1027.37927,162.19262a2.28914,2.28914,0,0,1-2.25278-2.00752c0-.12719-1.66236-13.326-8.64784-19.62112a2.27372,2.27372,0,0,1,3.04307-3.3792c8.25724,7.45784,10.04673,21.85574,10.11942,22.46437a2.28,2.28,0,0,1-1.98937,2.52531Z" transform="translate(0 0.49878)"/><path class="e431be1b-fc67-498b-88eb-9190434c2199" d="M1024.70862,151.66444a2.271,2.271,0,0,1-1.63509-.68129c-.109-.109-1.81677-1.75317-5.53209-1.81677a2.27118,2.27118,0,1,1,.0636-4.54192c5.64109.09084,8.448,2.89775,8.74775,3.21569a2.2619,2.2619,0,0,1-.08145,3.19775l-.00937.00885A2.23453,2.23453,0,0,1,1024.70862,151.66444Z" transform="translate(0 0.49878)"/><path class="e431be1b-fc67-498b-88eb-9190434c2199" d="M943.21737,151.6281a2.461,2.461,0,0,1-.61769-.08175,2.30733,2.30733,0,0,1-1.58058-2.82507c.1635-.59044,1.81677-5.80459,10.84612-7.53052a2.271,2.271,0,0,1,.93494,4.44465q-.04033.00849-.08106.01553c-6.1861,1.19-7.26708,4.20582-7.33977,4.333A2.21642,2.21642,0,0,1,943.21737,151.6281Z" transform="translate(0 0.49878)"/><path class="e431be1b-fc67-498b-88eb-9190434c2199" d="M968.79753,112.37679a2.24371,2.24371,0,0,1-1.76227-.83571c-.19078-.2271-4.006-4.63277-11.75451-3.07035a2.27141,2.27141,0,1,1-.90838-4.45108c10.57361-2.13471,15.96033,4.3875,16.18743,4.6691a2.271,2.271,0,0,1-1.77137,3.688Z" transform="translate(0 0.49878)"/><path class="e431be1b-fc67-498b-88eb-9190434c2199" d="M965.50008,108.67058l.0636-.0636-2.99766-3.40644c.3906-.35427,2.66156-2.09837,8.64784-2.50714a2.27621,2.27621,0,1,1,.30888,4.54193C967.07157,107.53509,965.50918,108.65242,965.50008,108.67058Z" transform="translate(0 0.49878)"/><path class="e431be1b-fc67-498b-88eb-9190434c2199" d="M863.325,237.87927a2.271,2.271,0,0,1-1.91668-1.03557,28.39594,28.39594,0,0,1-4.63274-13.35327c-.536-4.16949-.96289-7.46693-6.48588-12.71739a45.70132,45.70132,0,0,0-7.63046-5.20506c-5.59563-3.32469-11.38209-6.75839-12.454-12.22686a2.27586,2.27586,0,1,1,4.46015-.90838c.68129,3.47,5.5775,6.35869,10.31924,9.19285a48.68839,48.68839,0,0,1,8.42984,5.82275c6.69479,6.3587,7.26708,10.95512,7.86659,15.44255a24.09024,24.09024,0,0,0,3.94242,11.46381,2.271,2.271,0,0,1-1.89855,3.50636Z" transform="translate(0 0.49878)"/><path class="e431be1b-fc67-498b-88eb-9190434c2199" d="M883.36392,171.976a2.29857,2.29857,0,0,1-1.06279-.26344,7.56,7.56,0,0,0-4.72361-1.14458,2.27141,2.27141,0,1,1-.90839-4.45108,9.48389,9.48389,0,0,1,4.54193.25435,17.15044,17.15044,0,0,1,7.35789-11.30031,2.271,2.271,0,1,1,2.598,3.71529c-3.00675,2.11652-6.04078,6.02259-5.5139,10.66443a2.2891,2.2891,0,0,1-2.0406,2.51319q-.10578.011-.21218.01212Z" transform="translate(0 0.49878)"/><path class="e431be1b-fc67-498b-88eb-9190434c2199" d="M917.87346,192.85062a2.32534,2.32534,0,0,1-1.32626-.427c-1.60786-1.16273-3.49726-1.43523-5.69559-1.74411a18.78536,18.78536,0,0,1-6.58579-1.81677,101.66179,101.66179,0,0,0-12.00883-5.88634c-6.00441-2.38-9.856-6.8038-11.11862-12.79005a2.271,2.271,0,1,1,4.442-.90839c.96288,4.54193,3.69713,7.66678,8.34806,9.5108a104.78711,104.78711,0,0,1,12.51757,6.1225,14.825,14.825,0,0,0,5.05062,1.31717c2.43446.34519,5.19593.73579,7.71218,2.55256a2.271,2.271,0,0,1-1.3353,4.115Z" transform="translate(0 0.49878)"/><path class="e431be1b-fc67-498b-88eb-9190434c2199" d="M906.69125,196.17531a2.26185,2.26185,0,0,1-2.18015-1.64418c-.84479-2.9704,1.37167-6.56763,1.81677-7.26708a2.27385,2.27385,0,0,1,3.80613,2.489h0c-.80847,1.24448-1.41707,2.95225-1.25357,3.52454a2.271,2.271,0,0,1-1.56129,2.8066l-.00111.0003A2.47,2.47,0,0,1,906.69125,196.17531Z" transform="translate(0 0.49878)"/><path class="e431be1b-fc67-498b-88eb-9190434c2199" d="M851.516,162.19262h-.27251a2.28,2.28,0,0,1-1.98936-2.52531c.07268-.60863,1.81677-15.00651,10.11942-22.46437a2.27372,2.27372,0,0,1,3.04307,3.37919c-6.98549,6.2951-8.63875,19.49394-8.64785,19.62113A2.28916,2.28916,0,0,1,851.516,162.19262Z" transform="translate(0 0.49878)"/><path class="e431be1b-fc67-498b-88eb-9190434c2199" d="M924.06866,171.976a2.26241,2.26241,0,0,1-.90839-.19076,9.7018,9.7018,0,0,0-4.54192-.972,16.35085,16.35085,0,0,1-11.18222-2.816c-3.44276-2.51621-5.1324-5.37765-5.01431-8.4934.19982-5.37765,5.75919-8.993,6.3587-9.38361a2.271,2.271,0,0,1,2.39815,3.85155h0c-1.15367.72669-4.16951,3.17025-4.25124,5.70465-.0545,1.52608,1.0083,3.08851,3.15207,4.65093a11.809,11.809,0,0,0,8.07556,1.96212,13.91672,13.91672,0,0,1,6.81289,1.33532,2.271,2.271,0,0,1-.90839,4.35118Z" transform="translate(0 0.49878)"/><path class="e431be1b-fc67-498b-88eb-9190434c2199" d="M899.76936,166.353a2.271,2.271,0,1,1,0-4.54193,5.55939,5.55939,0,0,0,3.63354-1.54426,2.27253,2.27253,0,0,1,3.34285,3.07944A9.99238,9.99238,0,0,1,899.76936,166.353Z" transform="translate(0 0.49878)"/><path class="e431be1b-fc67-498b-88eb-9190434c2199" d="M854.21382,151.66444a2.23456,2.23456,0,0,1-1.55336-.61769,2.2619,2.2619,0,0,1-.09968-3.19723l.00887-.00937c.29978-.31794,3.10666-3.12485,8.74775-3.21569a2.29821,2.29821,0,0,1,2.30728,2.23462,2.271,2.271,0,0,1-2.234,2.3073H861.39a8.43527,8.43527,0,0,0-5.523,1.81677A2.25275,2.25275,0,0,1,854.21382,151.66444Z" transform="translate(0 0.49878)"/><path class="e431be1b-fc67-498b-88eb-9190434c2199" d="M911.61468,210.25528a2.28922,2.28922,0,0,1-1.81677-.84479c-4.89621-6.09526-9.02026-7.05815-9.08385-7.06724a2.31634,2.31634,0,0,1-1.81677-1.98027c-.1181-1.03557-2.28915-2.8705-3.71532-4.08773a30.38363,30.38363,0,0,1-2.39815-2.15287c-2.42538-2.57075-2.51619-10.31927-2.37991-13.47137a2.24372,2.24372,0,0,1,2.278-2.209l.0566.00158a2.271,2.271,0,0,1,2.20743,2.33278l-.00006.00178c-.13628,4.47833.436,9.35635,1.19908,10.22842a26.6129,26.6129,0,0,0,2.053,1.81677c1.89855,1.59877,3.99691,3.3701,4.89621,5.50481,2.03477.77214,5.959,2.86141,10.292,8.24813a2.26187,2.26187,0,0,1-1.81677,3.688Z" transform="translate(0 0.49878)"/><path class="e431be1b-fc67-498b-88eb-9190434c2199" d="M882.23748,201.54387a2.23464,2.23464,0,0,1-1.03557-.25435,2.26193,2.26193,0,0,1-.98052-3.04479l.00854-.01646c3.252-6.286,13.13527-8.22088,13.56218-8.30265a2.271,2.271,0,1,1,.99138,4.43239q-.07284.0163-.14659.02778h0c-2.25277.436-8.52065,2.35271-10.37374,5.93175A2.28,2.28,0,0,1,882.23748,201.54387Z" transform="translate(0 0.49878)"/><path class="e431be1b-fc67-498b-88eb-9190434c2199" d="M894.21,203.82392a2.271,2.271,0,0,1-1.49885-3.96964c2.88865-2.56165,8.17546-2.062,8.775-1.99845a2.28368,2.28368,0,1,1-.48147,4.54192h0c-1.54427-.15444-4.29664,0-5.28681.90839A2.2801,2.2801,0,0,1,894.21,203.82392Z" transform="translate(0 0.49878)"/><path class="e431be1b-fc67-498b-88eb-9190434c2199" d="M906.61856,129.33634a2.3257,2.3257,0,0,1-.90839-.19077,2.271,2.271,0,0,1-1.16276-2.98858c3.12485-7.13083,7.55777-11.4184,13.16249-12.71739,9.71064-2.29822,19.07609,5.34131,19.4576,5.66832a2.271,2.271,0,0,1-2.89775,3.49729c-.07269-.06359-8.03919-6.5222-15.53337-4.74177-4.13314.99014-7.51236,4.40567-9.99223,10.15574A2.271,2.271,0,0,1,906.61856,129.33634Z" transform="translate(0 0.49878)"/><path class="e431be1b-fc67-498b-88eb-9190434c2199" d="M908.43533,135.13184a2.24374,2.24374,0,0,1-1.48067-.55412,7.70345,7.70345,0,0,1-2.09837-3.04309,24.45221,24.45221,0,0,1-3.579,1.54425,2.271,2.271,0,0,1-1.47158-4.29666c1.99846-.68129,4.23305-1.88036,4.60552-2.46173a2.28912,2.28912,0,0,1,2.55256-.96289,2.25281,2.25281,0,0,1,1.64417,2.162c0,.645.26342,2.72515,1.31717,3.63354a2.271,2.271,0,0,1-1.48976,3.98781Z" transform="translate(0 0.49878)"/><path class="e431be1b-fc67-498b-88eb-9190434c2199" d="M935.68688,99.80474a2.24375,2.24375,0,0,1-1.58058-.63586c-.14532-.12718-3.27926-2.64341-11.10953-.07268a2.271,2.271,0,0,1-1.471-4.29711l.05395-.01772c10.71893-3.51544,15.24273.67221,15.72414,1.16274a2.26186,2.26186,0,0,1-1.61695,3.86063Z" transform="translate(0 0.49878)"/><path class="c1e17a46-b111-4b01-81b2-ff5e8fc15ba9" d="M886.63409,242.21226a2.08093,2.08093,0,0,1-.47238,0,2.2619,2.2619,0,0,1-1.76227-2.63431c.06359-.30885,1.59877-7.585,12.8173-10.64628a2.271,2.271,0,0,1,1.19908,4.37842c-8.32988,2.271-9.51986,6.97639-9.56533,7.17624A2.28916,2.28916,0,0,1,886.63409,242.21226Z" transform="translate(0 0.49878)"/><path class="c1e17a46-b111-4b01-81b2-ff5e8fc15ba9" d="M851.50685,234.24573a2.28908,2.28908,0,0,1-1.92577-1.06282c-.20891-.3361-5.05062-8.17547-2.97953-15.44255a2.2728,2.2728,0,1,1,4.36933,1.25358h0c-1.517,5.2868,2.42537,11.73634,2.47078,11.809a2.28006,2.28006,0,0,1-.73579,3.12485A2.2348,2.2348,0,0,1,851.50685,234.24573Z" transform="translate(0 0.49878)"/><path class="c1e17a46-b111-4b01-81b2-ff5e8fc15ba9" d="M916.75611,228.79542a2.271,2.271,0,0,1-1.28989-.39969c-.109-.08175-11.66369-8.012-23.8542-11.50016-12.50848-3.57-40.57754-20.24791-42.5215-46.52748a2.27684,2.27684,0,1,1,4.54192-.327c1.67146,22.58244,26.34317,38.8153,39.23316,42.49425s24.699,11.809,25.19859,12.11786a2.271,2.271,0,0,1-1.299,4.14223Z" transform="translate(0 0.49878)"/><path class="c1e17a46-b111-4b01-81b2-ff5e8fc15ba9" d="M854.45,184.80234a2.26193,2.26193,0,0,1-1.18089-.3361h0c-.06359-.04541-6.4586-3.92423-11.4184-3.29744a2.2878,2.2878,0,0,1-.55411-4.54193c6.54039-.81754,14.03456,3.73345,14.35248,3.9333A2.271,2.271,0,0,1,854.45,184.766Z" transform="translate(0 0.49878)"/><path class="c1e17a46-b111-4b01-81b2-ff5e8fc15ba9" d="M891.31229,236.26235h-.0545a2.271,2.271,0,0,1-2.21652-2.32417l.00006-.0013c0-.18169-.24528-5.65925-10.7553-7.912a2.271,2.271,0,1,1,.95379-4.43293c14.38884,3.07944,14.34338,12.07245,14.33434,12.454A2.26188,2.26188,0,0,1,891.31229,236.26235Z" transform="translate(0 0.49878)"/><path class="c1e17a46-b111-4b01-81b2-ff5e8fc15ba9" d="M867.1765,132.28859a2.27094,2.27094,0,0,1-1.93487-3.46095c.40879-.654,10.11942-16.16016,27.48774-17.47733a2.27717,2.27717,0,0,1,.3361,4.54192c-15.00654,1.14456-23.86329,15.19728-23.95411,15.33355A2.26187,2.26187,0,0,1,867.1765,132.28859Z" transform="translate(0 0.49878)"/><path class="c1e17a46-b111-4b01-81b2-ff5e8fc15ba9" d="M880.78409,119.58937a2.23478,2.23478,0,0,1-1.081-.2816,2.271,2.271,0,0,1-.90839-3.07942,30.0949,30.0949,0,0,1,19.503-13.87105,2.27141,2.27141,0,1,1,.90839,4.45108,25.68922,25.68922,0,0,0-16.41453,11.60008A2.271,2.271,0,0,1,880.78409,119.58937Z" transform="translate(0 0.49878)"/><path class="c1e17a46-b111-4b01-81b2-ff5e8fc15ba9" d="M916.34738,203.82392a2.271,2.271,0,0,1-1.09007-4.26942c6.1861-3.361,19.2214-2.00752,20.68394-1.81677a2.28516,2.28516,0,0,1-.50869,4.54193h0c-3.63354-.39969-13.81656-.9538-18.0042,1.32623A2.32543,2.32543,0,0,1,916.34738,203.82392Z" transform="translate(0 0.49878)"/><path class="c1e17a46-b111-4b01-81b2-ff5e8fc15ba9" d="M879.43969,150.8469a2.271,2.271,0,0,1-2.26187-2.12562c-.23619-3.74254,2.84325-6.35869,5.32313-8.41165a17.68592,17.68592,0,0,0,2.28914-2.13471,15.90564,15.90564,0,0,0,3.27017-7.79395,13.7526,13.7526,0,0,0,.2816-2.72515,24.44712,24.44712,0,0,0-3.94242,2.24371,2.27137,2.27137,0,0,1-2.47987-3.80614c3.63354-2.34363,6.75838-4.15132,9.16563-2.55256,2.21646,1.47158,1.97118,4.68727,1.44435,7.6486a20.5112,20.5112,0,0,1-4.13314,9.75605,19.54906,19.54906,0,0,1-2.97953,2.85234c-1.81677,1.49883-3.797,3.18844-3.70622,4.65093A2.271,2.271,0,0,1,879.585,150.856Z" transform="translate(0 0.49878)"/><path class="c1e17a46-b111-4b01-81b2-ff5e8fc15ba9" d="M900.33255,143.40722a2.28923,2.28923,0,0,1-1.57149-.62678c-3.12485-2.9886-8.58425-2.72516-9.856-2.38a2.271,2.271,0,0,1-2.925-3.361c.4996-.654,1.31717-1.12639,3.63354-1.30808,1.81677-.14534,8.03919-.2816,12.28139,3.76073a2.271,2.271,0,0,1-1.57149,3.91513Z" transform="translate(0 0.49878)"/><path class="c1e17a46-b111-4b01-81b2-ff5e8fc15ba9" d="M935.68688,151.58269a2.26188,2.26188,0,0,1-2.171-1.60783c-.08178-.218-1.24449-3.16119-7.33977-4.333a2.271,2.271,0,0,1,.77283-4.4757q.04066.007.08105.01553c9.00208,1.72592,10.68262,6.94007,10.84612,7.53052a2.271,2.271,0,0,1-2.18918,2.87047Z" transform="translate(0 0.49878)"/><path class="c1e17a46-b111-4b01-81b2-ff5e8fc15ba9" d="M910.09769,112.37679a2.271,2.271,0,0,1-1.81677-3.688c.2271-.2816,5.61381-6.81289,16.18743-4.6691a2.27141,2.27141,0,1,1-.90839,4.45108c-7.89387-1.59875-11.70909,3.01584-11.74541,3.06125A2.271,2.271,0,0,1,910.09769,112.37679Z" transform="translate(0 0.49878)"/><path class="c1e17a46-b111-4b01-81b2-ff5e8fc15ba9" d="M913.39513,108.67058s-1.57149-1.13549-6.0226-1.44433a2.27621,2.27621,0,1,1,.30888-4.54193c5.98628.40877,8.25724,2.15287,8.64784,2.50714l-2.99766,3.40644Z" transform="translate(0 0.49878)"/><path class="c1e17a46-b111-4b01-81b2-ff5e8fc15ba9" d="M1015.62476,237.87927a2.271,2.271,0,0,1-1.90758-3.50635,24.0904,24.0904,0,0,0,3.94241-11.46382c.58138-4.46017,1.1718-9.08385,7.86659-15.44254a48.6879,48.6879,0,0,1,8.42984-5.82276c4.74175-2.8069,9.638-5.72281,10.31924-9.19285a2.27586,2.27586,0,1,1,4.46015.90839c-1.07189,5.45031-6.8583,8.90216-12.454,12.22685a45.70123,45.70123,0,0,0-7.63045,5.20506c-5.523,5.24137-5.94992,8.53881-6.48589,12.71739a28.3959,28.3959,0,0,1-4.63274,13.35327A2.26183,2.26183,0,0,1,1015.62476,237.87927Z" transform="translate(0 0.49878)"/><path class="c1e17a46-b111-4b01-81b2-ff5e8fc15ba9" d="M1011.71872,132.28859a2.26187,2.26187,0,0,1-1.93486-1.081c-.09991-.16351-8.95667-14.189-23.95411-15.33355a2.27717,2.27717,0,1,1,.33609-4.54192c17.36832,1.31715,27.079,16.82329,27.48774,17.47733a2.27094,2.27094,0,0,1-1.93486,3.46095Z" transform="translate(0 0.49878)"/><path class="c1e17a46-b111-4b01-81b2-ff5e8fc15ba9" d="M998.11107,119.58937a2.28,2.28,0,0,1-1.99845-1.18091h0a25.88,25.88,0,0,0-16.41453-11.60008,2.27141,2.27141,0,1,1,.90839-4.45108,30.09493,30.09493,0,0,1,19.503,13.87105,2.271,2.271,0,0,1-.90839,3.07942A2.2347,2.2347,0,0,1,998.11107,119.58937Z" transform="translate(0 0.49878)"/><path class="c1e17a46-b111-4b01-81b2-ff5e8fc15ba9" d="M995.53129,171.976a2.28911,2.28911,0,0,1-2.26486-2.31313q.00108-.10634.01208-.21218c.52688-4.64184-2.50715-8.54791-5.5139-10.66444a2.271,2.271,0,1,1,2.598-3.71529,17.15053,17.15053,0,0,1,7.3579,11.30032,9.48372,9.48372,0,0,1,4.54192-.25435,2.27141,2.27141,0,1,1-.90838,4.45108h0a7.62159,7.62159,0,0,0-4.72362,1.14457A2.2985,2.2985,0,0,1,995.53129,171.976Z" transform="translate(0 0.49878)"/><path class="c1e17a46-b111-4b01-81b2-ff5e8fc15ba9" d="M961.02175,192.85062a2.271,2.271,0,0,1-1.3353-4.115c2.51625-1.81677,5.27772-2.20737,7.71218-2.55256a14.82479,14.82479,0,0,0,5.05062-1.31717,104.78863,104.78863,0,0,1,12.51757-6.1225c4.65093-1.81677,7.38518-4.95071,8.34807-9.5108a2.27095,2.27095,0,1,1,4.442.90839c-1.26267,5.98625-5.11421,10.41008-11.11862,12.79005a100.95188,100.95188,0,0,0-12.00894,5.89544,18.78557,18.78557,0,0,1-6.58579,1.81677c-2.19828.30884-4.08773.58138-5.69559,1.74411A2.3253,2.3253,0,0,1,961.02175,192.85062Z" transform="translate(0 0.49878)"/><path class="c1e17a46-b111-4b01-81b2-ff5e8fc15ba9" d="M972.204,196.17531a2.47139,2.47139,0,0,1-.62679-.08175,2.271,2.271,0,0,1-1.56273-2.8058l.00034-.00111c.18168-.62679-.536-2.43446-1.25358-3.51544a2.28,2.28,0,1,1,3.80614-2.49806c.4451.69038,2.66156,4.28758,1.81677,7.26708A2.26188,2.26188,0,0,1,972.204,196.17531Z" transform="translate(0 0.49878)"/><path class="c1e17a46-b111-4b01-81b2-ff5e8fc15ba9" d="M954.82656,171.976a2.271,2.271,0,0,1-.90839-4.35118,13.91672,13.91672,0,0,1,6.81289-1.33532,11.809,11.809,0,0,0,8.07556-1.96212c2.15287-1.57151,3.20662-3.13394,3.15207-4.66-.09082-2.54347-3.17935-5.02337-4.25124-5.69556a2.271,2.271,0,0,1,2.39815-3.85155c.63588.3906,6.1952,4.006,6.3587,9.38361.11809,3.11575-1.57149,5.97716-5.0143,8.4934a16.35088,16.35088,0,0,1-11.18222,2.816,9.70181,9.70181,0,0,0-4.54193.972A2.29814,2.29814,0,0,1,954.82656,171.976Z" transform="translate(0 0.49878)"/><path class="c1e17a46-b111-4b01-81b2-ff5e8fc15ba9" d="M979.12586,166.353a9.91058,9.91058,0,0,1-6.94008-3.01585,2.271,2.271,0,0,1,3.32467-3.0885,5.4956,5.4956,0,0,0,3.63354,1.56242,2.271,2.271,0,0,1,0,4.54193Z" transform="translate(0 0.49878)"/><path class="c1e17a46-b111-4b01-81b2-ff5e8fc15ba9" d="M967.28054,210.25528a2.26188,2.26188,0,0,1-1.77136-3.688c4.333-5.38672,8.25724-7.476,10.292-8.24813.90838-2.13471,2.99765-3.906,4.8962-5.50481.7812-.6722,1.52608-1.299,2.06206-1.81677.754-.90838,1.32626-5.75006,1.19907-10.22842a2.27186,2.27186,0,0,1,4.54193-.12719c.0999,3.18844,0,10.90062-2.47078,13.50768a31.87,31.87,0,0,1-2.38906,2.15287c-1.43527,1.21723-3.63354,3.05216-3.72436,4.08773a2.26183,2.26183,0,0,1-1.81677,1.98027s-4.124.972-9.02026,7.06724A2.28908,2.28908,0,0,1,967.28054,210.25528Zm10.37374-10.13758Z" transform="translate(0 0.49878)"/><path class="c1e17a46-b111-4b01-81b2-ff5e8fc15ba9" d="M996.65768,201.54387a2.271,2.271,0,0,1-1.92577-1.09008c-2.02568-3.3701-8.30265-5.53206-10.55543-6.08619a2.271,2.271,0,1,1,1.07189-4.40567c1.01738.24525,10.03764,2.57981,13.38049,8.17547a2.271,2.271,0,0,1-.78053,3.11533l-.00067.00042A2.1894,2.1894,0,0,1,996.65768,201.54387Z" transform="translate(0 0.49878)"/><path class="c1e17a46-b111-4b01-81b2-ff5e8fc15ba9" d="M984.68517,203.82392a2.28015,2.28015,0,0,1-1.50789-.57228c-1.09917-.972-4.08774-1.0083-5.27772-.90839a2.28416,2.28416,0,1,1-.49051-4.54192c.59048-.0636,5.88632-.5632,8.775,1.99845a2.271,2.271,0,0,1-1.49886,3.96964Z" transform="translate(0 0.49878)"/><path class="c1e17a46-b111-4b01-81b2-ff5e8fc15ba9" d="M972.313,129.33634a2.28,2.28,0,0,1-2.10746-1.37166c-2.52533-5.75008-5.9045-9.1656-9.99223-10.15574-7.49418-1.81677-15.44255,4.67818-15.54246,4.74177a2.271,2.271,0,0,1-2.88866-3.49729c.3906-.327,9.75605-7.95744,19.4576-5.66832,5.60472,1.33532,9.99223,5.6229,13.17158,12.71739a2.271,2.271,0,0,1-1.1718,2.98858A2.32572,2.32572,0,0,1,972.313,129.33634Z" transform="translate(0 0.49878)"/><path class="c1e17a46-b111-4b01-81b2-ff5e8fc15ba9" d="M970.46892,135.13184a2.271,2.271,0,0,1-1.48976-3.98781c1.09007-.90839,1.31717-3.0976,1.31717-3.63354a2.271,2.271,0,0,1,4.19673-1.19908c.37242.59045,2.61616,1.81677,4.60552,2.46173a2.271,2.271,0,0,1-1.42645,4.31211l-.04513-.01545a24.881,24.881,0,0,1-3.579-1.54425,7.79432,7.79432,0,0,1-2.09836,3.04309A2.2438,2.2438,0,0,1,970.46892,135.13184Z" transform="translate(0 0.49878)"/><path class="c1e17a46-b111-4b01-81b2-ff5e8fc15ba9" d="M943.19924,99.80474a2.24371,2.24371,0,0,1-1.59876-.66311,2.28913,2.28913,0,0,1,0-3.23385c.48147-.49053,5.00521-4.67818,15.72414-1.16274a2.271,2.271,0,1,1-1.36313,4.33255l-.05395-.01772c-7.98468-2.62523-11.08231.0545-11.11862.08176A2.19838,2.19838,0,0,1,943.19924,99.80474Z" transform="translate(0 0.49878)"/><path class="63529fdf-c402-4b40-923a-dc90222374dc" d="M895.59075,244.47415A21.41983,21.41983,0,0,1,886.734,242.612a33.39219,33.39219,0,0,1-17.92242-1.48068,37.42545,37.42545,0,0,1-6.177-2.83415,14.88846,14.88846,0,0,1-13.94369-5.11422,18.96886,18.96886,0,0,1-3.37916-.84479,18.00416,18.00416,0,0,1-10.81885-10.12848c-5.91359-3.41554-9.24735-9.49264-8.54787-15.5879a14.82476,14.82476,0,0,1-1.98948-9.36547,18.70367,18.70367,0,0,1,4.54192-22.70963,25.989,25.989,0,0,1-.24528-13.29877,25.5442,25.5442,0,0,1,6.78567-12.39036,27.25043,27.25043,0,0,1,.73579-7.13082c1.76227-7.4851,6.504-13.62578,12.27229-16.16018,1.81677-7.73035,6.81289-14.04364,12.82639-16.35093,4.74174-8.52974,11.54559-13.326,17.84979-12.63564,5.19594-5.70466,11.1459-8.32989,16.35093-7.20349a23.41813,23.41813,0,0,1,14.03456-3.86063c7.26708-4.36026,14.97017-4.878,20.74754-1.38075,5.94991,3.63354,9.08385,11.00054,8.32078,19.7937a35.04138,35.04138,0,0,0,0,5.16871h0a27.88339,27.88339,0,0,1,0,3.4882,24.74237,24.74237,0,0,0,0,2.84325,30.58006,30.58006,0,0,1,0,3.16117,36.23648,36.23648,0,0,0,0,4.21491,29.97589,29.97589,0,0,1,0,3.37919,34.71071,34.71071,0,0,0,0,4.006,30.62339,30.62339,0,0,1,0,3.41552,34.52667,34.52667,0,0,0,0,3.9969,30.62375,30.62375,0,0,1,0,3.41554,34.71053,34.71053,0,0,0,0,4.006,30.62375,30.62375,0,0,1,0,3.41554,34.71053,34.71053,0,0,0,0,4.006,30.62357,30.62357,0,0,1,0,3.41553,34.5265,34.5265,0,0,0,0,3.99689,30.62375,30.62375,0,0,1,0,3.41554,34.71053,34.71053,0,0,0,0,4.006,30.62375,30.62375,0,0,1,0,3.41554,34.71053,34.71053,0,0,0,0,4.006,30.62375,30.62375,0,0,1,0,3.41554,34.52633,34.52633,0,0,0,0,3.99688,30.62375,30.62375,0,0,1,0,3.41554,35.34261,35.34261,0,0,0,0,4.04232,25.37159,25.37159,0,0,1,0,2.8796v2.21646a34.1916,34.1916,0,0,1-2.72515,14.407,15.36066,15.36066,0,0,1,.98107,6.4677A15.8241,15.8241,0,0,1,921.825,230.149a15.57883,15.57883,0,0,1-4.72361-.436c-1.81677,6.48589-7.72128,11.94526-15.44255,13.94372A24.18046,24.18046,0,0,1,895.59075,244.47415Zm-8.59334-6.53129a2.24391,2.24391,0,0,1,1.02648.24526,18.05887,18.05887,0,0,0,12.55389,1.09007c6.75838-1.75318,11.809-6.6857,12.49029-12.28136a2.27108,2.27108,0,0,1,1.1082-1.67142l.58138-.3361a2.21644,2.21644,0,0,1,1.99846-.14534,11.04265,11.04265,0,0,0,14.19806-14.82485,2.25275,2.25275,0,0,1,0-1.86218,29.977,29.977,0,0,0,2.72516-13.28059v-5.03246a38.38468,38.38468,0,0,1,0-4.54192,25.37853,25.37853,0,0,0,0-2.8796,39.70677,39.70677,0,0,1,0-4.54192,25.37835,25.37835,0,0,0,0-2.87959,39.85848,39.85848,0,0,1,0-4.54193,25.37835,25.37835,0,0,0,0-2.87959,39.707,39.707,0,0,1,0-4.54193,25.53835,25.53835,0,0,0,0-2.88866,39.70677,39.70677,0,0,1,0-4.54192,25.37835,25.37835,0,0,0,0-2.87959,39.85848,39.85848,0,0,1,0-4.54193,25.37835,25.37835,0,0,0,0-2.87959,39.707,39.707,0,0,1,0-4.54193,25.53817,25.53817,0,0,0,0-2.88865,39.707,39.707,0,0,1,0-4.54193,25.37818,25.37818,0,0,0,0-2.87958,39.85831,39.85831,0,0,1,0-4.54192,27.19235,27.19235,0,0,0,0-2.85233,40.80055,40.80055,0,0,1,0-4.71452,26.19491,26.19491,0,0,0,0-2.67066,29.31212,29.31212,0,0,1,0-3.34285,24.27513,24.27513,0,0,0,0-2.93408h0a39.16969,39.16969,0,0,1,0-5.85c.59047-7.0309-1.70777-12.83548-6.14979-15.5243s-10.67352-2.04386-16.64162,1.7441a2.20742,2.20742,0,0,1-1.50789.3361c-3.897-.49962-8.38438.78121-12.64471,3.63354a2.24368,2.24368,0,0,1-1.96208.27252c-3.81523-1.25358-8.94757,1.2354-13.38959,6.504a2.28,2.28,0,0,1-2.28.73579c-4.62371-1.12641-10.619,3.35194-14.58867,10.90062a2.26183,2.26183,0,0,1-1.32626,1.10823c-4.92343,1.55334-9.08385,6.822-10.68262,13.42593-.0545.23617-.09081.47236-.13628.70854l-.06359.30885a2.28908,2.28908,0,0,1-1.517,1.735c-4.85983,1.59876-9.00207,6.84922-10.54633,13.37142a22.90075,22.90075,0,0,0-.57229,6.8583,2.26175,2.26175,0,0,1-.76307,1.87127,21.94654,21.94654,0,0,0-5.55022,23.05481,2.271,2.271,0,0,1-.863,2.72516,14.0618,14.0618,0,0,0-4.20583,18.34939,2.22568,2.22568,0,0,1,.2816,1.58967,10.35563,10.35563,0,0,0,1.68958,7.63043,2.271,2.271,0,0,1,.34519,1.65327c-.8357,4.60552,1.98027,9.57438,6.83107,12.08151a2.26191,2.26191,0,0,1,1.1173,1.31717,13.2442,13.2442,0,0,0,8.32987,8.121,14.17114,14.17114,0,0,0,3.32467.74488,2.31639,2.31639,0,0,1,1.59876.90839,10.30109,10.30109,0,0,0,10.75531,3.96054,2.31641,2.31641,0,0,1,1.71686.27251,32.64917,32.64917,0,0,0,6.09528,2.88866,28.46878,28.46878,0,0,0,16.12384,1.17182,2.31682,2.31682,0,0,1,.49965-.06354Z" transform="translate(0 0.49878)"/><path class="63529fdf-c402-4b40-923a-dc90222374dc" d="M983.30441,244.47415a24.18076,24.18076,0,0,1-6.1316-.79938c-7.694-1.99846-13.62578-7.45783-15.44255-13.94372a15.57881,15.57881,0,0,1-19.33046-14.17081,15.36077,15.36077,0,0,1,.98107-6.46769,34.3283,34.3283,0,0,1-2.72515-14.407v-5.09605a35.34279,35.34279,0,0,0,0-4.04233,30.62357,30.62357,0,0,1,0-3.41553,34.5265,34.5265,0,0,0,0-3.99689,28.60583,28.60583,0,0,1,0-3.41554,34.71053,34.71053,0,0,0,0-4.006,28.58486,28.58486,0,0,1,0-3.41554,34.5265,34.5265,0,0,0,0-3.99689,28.73657,28.73657,0,0,1,0-3.4246,34.5265,34.5265,0,0,0,0-3.99689,28.60566,28.60566,0,0,1,0-3.41553,34.71053,34.71053,0,0,0,0-4.006,28.58486,28.58486,0,0,1,0-3.41554,34.5265,34.5265,0,0,0,0-3.99689,28.73657,28.73657,0,0,1,0-3.4246,34.5265,34.5265,0,0,0,0-3.99689,28.60549,28.60549,0,0,1,0-3.41552,34.71053,34.71053,0,0,0,0-4.006,29.97607,29.97607,0,0,1,0-3.3792,36.2363,36.2363,0,0,0,0-4.2149,30.58025,30.58025,0,0,1,0-3.16118,24.74237,24.74237,0,0,0,0-2.84325,27.88323,27.88323,0,0,1,0-3.48819,34.15945,34.15945,0,0,0,.04541-5.16872c-.73579-8.79317,2.37087-16.18741,8.32078-19.7937,5.77732-3.49729,13.48046-2.97042,20.74754,1.38075a23.43633,23.43633,0,0,1,14.06184,3.86063c5.1778-1.1264,11.13681,1.49883,16.35093,7.19441,6.35869-.67221,13.108,4.115,17.84979,12.64472,6.0135,2.31638,10.99143,8.62058,12.82639,16.35093,5.76822,2.49806,10.51,8.67508,12.27229,16.16016a27.25141,27.25141,0,0,1,.73579,7.13083,25.54384,25.54384,0,0,1,6.78561,12.39945,25.98885,25.98885,0,0,1-.24528,13.29877,18.70367,18.70367,0,0,1,4.54192,22.70963,14.8885,14.8885,0,0,1-2.02568,9.36545c.69948,6.09525-2.63434,12.17235-8.54788,15.58789a17.99518,17.99518,0,0,1-10.82793,10.12849,18.677,18.677,0,0,1-3.37013.84479,14.88847,14.88847,0,0,1-13.94369,5.11421,38.15155,38.15155,0,0,1-6.177,2.83416A33.39229,33.39229,0,0,1,992.134,242.6392,21.4198,21.4198,0,0,1,983.30441,244.47415Zm-20.32057-19.80278a2.28033,2.28033,0,0,1,1.15367.31794l.58138.3361a2.30726,2.30726,0,0,1,1.1082,1.67142c.7176,5.59566,5.73191,10.52818,12.49029,12.28136a18.0496,18.0496,0,0,0,12.55389-1.09007,2.26188,2.26188,0,0,1,1.58058-.1726,28.46878,28.46878,0,0,0,16.12384-1.17182,32.64768,32.64768,0,0,0,6.09528-2.88866,2.31636,2.31636,0,0,1,1.71686-.2725,10.30111,10.30111,0,0,0,10.75525-3.97874,2.31642,2.31642,0,0,1,1.59877-.90838,14.17145,14.17145,0,0,0,3.32466-.74488,13.24425,13.24425,0,0,0,8.32988-8.121,2.26189,2.26189,0,0,1,1.11729-1.31717c4.8508-2.50715,7.66678-7.476,6.83108-12.08151a2.27093,2.27093,0,0,1,.34519-1.65326,10.35573,10.35573,0,0,0,1.68958-7.63043,2.22566,2.22566,0,0,1,.2816-1.58968,14.03459,14.03459,0,0,0-4.20583-18.34939,2.271,2.271,0,0,1-.90839-2.72515,21.94653,21.94653,0,0,0-5.55021-23.05482,2.26172,2.26172,0,0,1-.76307-1.87127,22.90113,22.90113,0,0,0-.57229-6.8583c-1.54427-6.52219-5.6865-11.809-10.54634-13.37142a2.28912,2.28912,0,0,1-1.517-1.735l-.0636-.29977a3.23,3.23,0,0,0-.13628-.71762c-1.56239-6.604-5.75918-11.8726-10.68261-13.42593a2.26188,2.26188,0,0,1-1.32627-1.10823c-3.96963-7.5396-9.99223-12.01793-14.58866-10.90062a2.28,2.28,0,0,1-2.28005-.73579c-4.442-5.26864-9.57436-7.7576-13.38959-6.504a2.2437,2.2437,0,0,1-1.96209-.27252c-4.26033-2.83416-8.74775-4.115-12.6447-3.63354a2.20746,2.20746,0,0,1-1.5079-.3361c-5.96809-3.788-12.19051-4.442-16.64162-1.7441s-6.7402,8.49341-6.14978,15.5243a39.18577,39.18577,0,0,1,0,5.85h0a24.27513,24.27513,0,0,0,0,2.93408,29.31212,29.31212,0,0,1,0,3.34285,26.19491,26.19491,0,0,0,0,2.67066,40.80055,40.80055,0,0,1,0,4.71452,27.19235,27.19235,0,0,0,0,2.85233,37.87025,37.87025,0,0,1,0,4.54192,25.37818,25.37818,0,0,0,0,2.87958,37.70853,37.70853,0,0,1,0,4.54191,25.53835,25.53835,0,0,0,0,2.88866,37.70887,37.70887,0,0,1,0,4.54193,25.37835,25.37835,0,0,0,0,2.87959,37.87025,37.87025,0,0,1,0,4.54192,25.37853,25.37853,0,0,0,0,2.8796,37.7087,37.7087,0,0,1,0,4.54192,25.53835,25.53835,0,0,0,0,2.88866,37.7087,37.7087,0,0,1,0,4.54192,25.37853,25.37853,0,0,0,0,2.8796,37.87025,37.87025,0,0,1,0,4.54192,25.37853,25.37853,0,0,0,0,2.8796,37.7087,37.7087,0,0,1,0,4.54192,25.37835,25.37835,0,0,0,0,2.87959,38.38485,38.38485,0,0,1,0,4.54193v5.03246A29.97706,29.97706,0,0,0,947.95,208.14784a2.25268,2.25268,0,0,1,0,1.86218,11.04437,11.04437,0,0,0,14.19807,14.82485,2.13515,2.13515,0,0,1,.83575-.16353Zm-19.98447-115.3649Z" transform="translate(0 0.49878)"/><line class="ceec0c7f-467c-4776-8463-67d5e87eca81" y1="0.5" x2="1190.55118" y2="0.5"/><line class="ceec0c7f-467c-4776-8463-67d5e87eca81" y1="340.65748" x2="1190.55118" y2="340.65748"/></svg>