<svg id="Layer_1" data-name="Layer 1" xmlns="http://www.w3.org/2000/svg" viewBox="0 0 27.84 8.68"><defs><style>.cls-1{fill:#e71d73;}.cls-2{fill:#f6f6f6;}.cls-3{fill:#3c3c3b;}</style></defs><title>logotest</title><polygon class="cls-1" points="25.64 8.68 0 8.68 0 0 27.84 0 25.64 8.68"/><polygon class="cls-2" points="24.65 8.68 0.99 8.68 0.99 0 26.84 0 24.65 8.68"/><polygon class="cls-3" points="4.67 5.11 5.38 3.44 4.63 1.71 2.29 7.17 3.79 7.17 4.18 6.26 6.61 6.26 6.11 5.11 4.67 5.11"/><polygon class="cls-1" points="9.82 2.65 9.22 1.32 6.74 1.32 7.34 2.65 9.82 2.65"/><polygon class="cls-1" points="10.81 3.45 10.75 3.45 8.33 3.45 8.92 4.78 10.15 4.78 9.68 5.84 8.31 5.84 7.95 4.99 6.35 1.32 4.87 1.32 4.87 1.32 7.42 7.17 10.48 7.17 11.08 5.84 11.08 5.84 12.15 3.45 10.81 3.45"/><path class="cls-3" d="M16.51,2.58a.1.1,0,0,1,.11.09l.65,2.18c0,.05,0,.09-.06.09h-.32c-.05,0-.08,0-.1-.09l-.12-.42H16l-.12.42c0,.05,0,.09-.11.09h-.28c-.06,0-.08,0-.06-.09l.64-2.18c0-.06,0-.09.11-.09Zm-.06,1.09c0-.14-.09-.58-.1-.63a5.61,5.61,0,0,1-.1.63l-.12.39h.44Z" transform="translate(-2.16 -1.19)"/><path class="cls-3" d="M19.12,4.4c0,.29-.19.56-.81.56s-.82-.27-.82-.56V3.12c0-.29.19-.57.82-.57s.81.28.81.57v.16c0,.07,0,.09-.08.09h-.29c-.06,0-.08,0-.08-.09V3.2c0-.17-.13-.26-.36-.26S18,3,18,3.2V4.32c0,.17.12.26.35.26s.36-.09.36-.26V4.18c0-.06,0-.08.08-.08H19c.06,0,.08,0,.08.08Z" transform="translate(-2.16 -1.19)"/><path class="cls-3" d="M20.84,2.58c.06,0,.09,0,.09.08v.22a.08.08,0,0,1-.09.09h-.49V4.85c0,.06,0,.09-.09.09H20c-.06,0-.08,0-.08-.09V3h-.5c-.06,0-.08,0-.08-.09V2.66c0-.06,0-.08.08-.08Z" transform="translate(-2.16 -1.19)"/><path class="cls-3" d="M21.68,4.85c0,.06,0,.09-.08.09h-.31c-.06,0-.08,0-.08-.09V2.67c0-.06,0-.09.08-.09h.31c.06,0,.08,0,.08.09Z" transform="translate(-2.16 -1.19)"/><path class="cls-3" d="M22.73,4.94a.1.1,0,0,1-.11-.09L22,2.67c0-.06,0-.09.07-.09h.33c.05,0,.08,0,.1.09l.33,1.17a4.1,4.1,0,0,1,.08.51s.05-.32.1-.5l.33-1.18c0-.06.05-.09.11-.09h.3q.09,0,.06.09l-.64,2.18c0,.06-.05.09-.11.09Z" transform="translate(-2.16 -1.19)"/><path class="cls-3" d="M24.16,4.94c-.06,0-.08,0-.08-.09V2.67c0-.06,0-.09.08-.09h1.18c.06,0,.09,0,.09.08v.22a.08.08,0,0,1-.09.09h-.8v.56h.75c.06,0,.09,0,.09.08v.21c0,.06,0,.08-.09.08h-.75v.65h.84c.06,0,.09,0,.09.08v.22a.08.08,0,0,1-.09.09Z" transform="translate(-2.16 -1.19)"/><path class="cls-1" d="M17.15,7.11c.06,0,.09,0,.09.08v.62c0,.29-.19.56-.82.56s-.81-.27-.81-.56V6.52c0-.29.19-.56.81-.56s.82.27.82.56v.14c0,.06,0,.09-.08.09h-.29a.08.08,0,0,1-.09-.09v0c0-.18-.12-.26-.35-.26s-.35.08-.35.26V7.72c0,.18.12.26.35.26s.35-.08.35-.25V7.49h-.34c-.06,0-.09,0-.09-.08V7.19c0-.06,0-.08.09-.08Z" transform="translate(-2.16 -1.19)"/><path class="cls-1" d="M17.62,6.52c0-.29.22-.56.84-.56s.85.27.85.56V7.81c0,.29-.22.56-.85.56s-.84-.27-.84-.56Zm1.22.09c0-.18-.14-.26-.38-.26s-.37.08-.37.26V7.72c0,.18.14.26.37.26s.38-.08.38-.26Z" transform="translate(-2.16 -1.19)"/><path class="cls-1" d="M20.61,6a.1.1,0,0,1,.11.08l.64,2.19c0,.05,0,.08-.06.08H21c-.06,0-.08,0-.1-.08l-.12-.43h-.65L20,8.26c0,.05,0,.08-.1.08h-.28c-.07,0-.09,0-.07-.08l.65-2.19A.09.09,0,0,1,20.31,6Zm-.06,1.09a4,4,0,0,1-.1-.63s-.07.48-.11.62l-.12.39h.44Z" transform="translate(-2.16 -1.19)"/><path class="cls-1" d="M22.13,8h.77C23,8,23,8,23,8v.22c0,.06,0,.08-.08.08H21.73c-.05,0-.07,0-.07-.09V6.08c0-.07,0-.09.08-.09H22c.07,0,.09,0,.09.09Z" transform="translate(-2.16 -1.19)"/><path class="cls-1" d="M24.37,6.59c0-.17-.11-.25-.33-.25s-.34.08-.34.25v0a.2.2,0,0,0,.14.19l.6.21a.52.52,0,0,1,.41.5v.27c0,.29-.2.56-.82.56s-.83-.27-.83-.56V7.59c0-.07,0-.09.08-.09h.29c.06,0,.09,0,.09.09v.15c0,.17.13.25.36.25s.37-.08.37-.25V7.63c0-.14-.14-.2-.3-.25l-.53-.21a.48.48,0,0,1-.32-.44V6.52c0-.29.18-.56.79-.56s.8.27.8.56v.15s0,.08-.09.08h-.29c-.06,0-.08,0-.08-.08Z" transform="translate(-2.16 -1.19)"/></svg>