<svg id="Layer_1" data-name="Layer 1" xmlns="http://www.w3.org/2000/svg" viewBox="0 0 368 111.38"><defs><style>.cls-1{fill:#e71d73;}.cls-1,.cls-2,.cls-3,.cls-5,.cls-6,.cls-7{stroke:#3c3c3b;}.cls-1,.cls-2,.cls-5{stroke-miterlimit:10;}.cls-2,.cls-6{fill:#fff;}.cls-3,.cls-4{fill:none;}.cls-3,.cls-6,.cls-7{stroke-linecap:round;stroke-linejoin:round;stroke-width:2px;}.cls-5{fill:#3c3c3b;}.cls-7{fill:#f6f6f6;}</style></defs><title>people</title><circle class="cls-1" cx="135.61" cy="65.17" r="13.4"/><polygon class="cls-2" points="179.84 104.2 179.84 87.3 178.98 79.15 174.54 71.61 169.45 68.41 162.7 66.79 155.8 64.83 151.47 61.8 156.01 56.72 160.09 47.63 160.04 38.42 161.88 37.69 165.25 34.26 164.75 31.09 161.92 28.96 160.88 26.84 160.21 16.38 153.75 6.8 142.25 1.89 130.3 2.95 120.36 8.9 116.05 15.42 114.34 25.22 114.74 29.16 112.41 29.99 110.85 32.62 111.54 36.07 113.67 37.69 116.37 38.28 116.11 44.09 117.67 53.21 123.25 60.51 123.7 61.99 117.84 66.42 110.55 67.34 104.8 68.92 99.38 74.2 96.01 81.42 96.01 104.2 179.84 104.2"/><path class="cls-3" d="M518.52,433.51c0,5.91-5.08,10.7-11.34,10.7s-11.33-4.79-11.33-10.7" transform="translate(-369.26 -370.23)"/><path class="cls-3" d="M485.37,407.91v6.66a21.87,21.87,0,0,0,21.86,21.87h0" transform="translate(-369.26 -370.23)"/><path class="cls-3" d="M529.1,407.91v6.66a21.87,21.87,0,0,1-21.87,21.87h0" transform="translate(-369.26 -370.23)"/><path class="cls-3" d="M507.23,372.11h0c-12.83,0-23.24,8.21-23.24,22.24v5a4.36,4.36,0,0,0,0,8.68c.19,0,1.38-.16,1.38-.16s3.71,9.37,10.84,9.37,2.12-3.71,10.9-3.71" transform="translate(-369.26 -370.23)"/><path class="cls-3" d="M507.11,372.11h0c12.84,0,23.24,8.21,23.24,22.24v5a4.36,4.36,0,0,1,0,8.68c-.19,0-1.37-.16-1.37-.16s-3.71,9.37-10.85,9.37-2.12-3.71-10.9-3.71" transform="translate(-369.26 -370.23)"/><path class="cls-3" d="M501.93,419.29a8.52,8.52,0,0,0,5.25,2" transform="translate(-369.26 -370.23)"/><path class="cls-3" d="M512.43,419.29a8.48,8.48,0,0,1-5.25,2" transform="translate(-369.26 -370.23)"/><path class="cls-3" d="M507.18,420.27" transform="translate(-369.26 -370.23)"/><path class="cls-3" d="M512.43,416.22" transform="translate(-369.26 -370.23)"/><path class="cls-4" d="M505,407.58l.36,1.8s.39.95.54.95,1.44.3,1.44.3l1.41-.62.77-1.5-.31-1.16Z" transform="translate(-369.26 -370.23)"/><path class="cls-3" d="M509.81,407.35v1a2.76,2.76,0,0,1-2.63,2.87h0" transform="translate(-369.26 -370.23)"/><path class="cls-3" d="M507.18,411.18h0a2.75,2.75,0,0,1-2.62-2.87v-1" transform="translate(-369.26 -370.23)"/><circle class="cls-5" cx="126.96" cy="27.89" r="2.67"/><path class="cls-3" d="M492.18,393.54a6.1,6.1,0,0,1,8.06,0" transform="translate(-369.26 -370.23)"/><circle class="cls-5" cx="148.88" cy="27.89" r="2.67"/><path class="cls-3" d="M522.16,393.54a6.1,6.1,0,0,0-8.06,0" transform="translate(-369.26 -370.23)"/><line class="cls-3" x1="111.48" y1="103.72" x2="111.48" y2="86.72"/><line class="cls-3" x1="164.37" y1="103.72" x2="164.37" y2="86.72"/><path class="cls-3" d="M493.55,431.62S488.77,437,483.14,437h0a17.87,17.87,0,0,0-17.87,17.87V474" transform="translate(-369.26 -370.23)"/><path class="cls-3" d="M521,431.77S525.6,437,531.22,437h0a17.87,17.87,0,0,1,17.88,17.87V474" transform="translate(-369.26 -370.23)"/><polygon class="cls-2" points="354.59 104.2 354.55 79.18 353.12 74.03 348.6 68.91 342.46 66.66 335.33 65.17 328.59 61.65 316.91 67.98 305.2 64.64 300.05 62.05 291.94 66.08 286.36 66.7 280.84 68.72 275.29 75.02 274.56 86.53 274.56 103.85 274.56 104.2 354.59 104.2"/><path class="cls-6" d="M697.35,431.45c0,5.92-7.22,10.8-13.48,10.8s-13.55-4.88-13.55-10.8" transform="translate(-369.26 -370.23)"/><line class="cls-3" x1="288.17" y1="103.53" x2="288.17" y2="86.53"/><line class="cls-3" x1="341.06" y1="103.53" x2="341.06" y2="86.53"/><circle class="cls-6" cx="334.26" cy="37.21" r="3.05"/><path class="cls-6" d="M702.82,404.5v-5a17.18,17.18,0,0,0-17.13-17.12H682a17.17,17.17,0,0,0-17.12,17.12v18.81A17.17,17.17,0,0,0,682,435.4h3.72a17.18,17.18,0,0,0,17.13-17.12V410.4" transform="translate(-369.26 -370.23)"/><path class="cls-3" d="M678.58,422.59a8.54,8.54,0,0,0,5.25,2" transform="translate(-369.26 -370.23)"/><path class="cls-3" d="M689.08,422.59a8.54,8.54,0,0,1-5.25,2" transform="translate(-369.26 -370.23)"/><path class="cls-3" d="M683.83,424.57" transform="translate(-369.26 -370.23)"/><path class="cls-7" d="M685.81,412.94v.71a2.07,2.07,0,0,1-2,2.16h0" transform="translate(-369.26 -370.23)"/><path class="cls-7" d="M683.83,415.81h0a2.07,2.07,0,0,1-2-2.16v-.71" transform="translate(-369.26 -370.23)"/><path class="cls-3" d="M695.12,400.32a3.46,3.46,0,0,0-4.54,0" transform="translate(-369.26 -370.23)"/><path class="cls-3" d="M677.2,400.32a3.46,3.46,0,0,0-4.54,0" transform="translate(-369.26 -370.23)"/><circle class="cls-5" cx="305.68" cy="33.18" r="1.86"/><circle class="cls-5" cx="323.6" cy="33.07" r="1.86"/><path class="cls-6" d="M664.85,409.6h0a3.66,3.66,0,0,1-3.49-3.82V394.65c0-9,6.65-16.3,14.86-16.3H705c0,7.72-5.71,14-12.75,14H674.58c-5.38,0-9.73,4.78-9.73,10.67v6.6" transform="translate(-369.26 -370.23)"/><path class="cls-3" d="M670.32,431.45s-6,5.36-12.9,5.36h0a13.6,13.6,0,0,0-13.6,13.61v23.33" transform="translate(-369.26 -370.23)"/><path class="cls-3" d="M697.35,431.45s5.94,5.36,12.89,5.36h0a13.61,13.61,0,0,1,13.61,13.61v23.33" transform="translate(-369.26 -370.23)"/><rect class="cls-2" x="193.48" y="87.08" width="67.62" height="17.13"/><path class="cls-6" d="M622.42,459v-61.4c0-13.95-11.58-25.26-25.87-25.26s-25.87,11.31-25.87,25.26V459" transform="translate(-369.26 -370.23)"/><path class="cls-6" d="M608,438c0,5-6.1,9.13-11.39,9.13S585.13,443,585.13,438" transform="translate(-369.26 -370.23)"/><line class="cls-6" x1="204.98" y1="103.55" x2="204.98" y2="89.18"/><line class="cls-6" x1="249.67" y1="103.55" x2="249.67" y2="89.18"/><path class="cls-6" d="M585.13,439.83a25.59,25.59,0,0,1-10.89,2.73h0a11.5,11.5,0,0,0-11.5,11.5v19.71" transform="translate(-369.26 -370.23)"/><path class="cls-6" d="M608,439.83a25.53,25.53,0,0,0,10.89,2.73h0a11.5,11.5,0,0,1,11.5,11.5v19.71" transform="translate(-369.26 -370.23)"/><path class="cls-6" d="M573.38,417.05a5.4,5.4,0,1,1,0-10.79" transform="translate(-369.26 -370.23)"/><path class="cls-6" d="M573.45,406.27v-.72a22.86,22.86,0,0,1,1.41-7.91h0" transform="translate(-369.26 -370.23)"/><path class="cls-6" d="M619.72,417.05a5.4,5.4,0,0,0,0-10.79" transform="translate(-369.26 -370.23)"/><path class="cls-6" d="M619.64,406.27v-.72a22.63,22.63,0,0,0-1.41-7.91h0" transform="translate(-369.26 -370.23)"/><path class="cls-6" d="M573.45,417.19a23.1,23.1,0,1,0,46.19,0" transform="translate(-369.26 -370.23)"/><path class="cls-3" d="M592.11,429.23a7.2,7.2,0,0,0,4.44,1.66" transform="translate(-369.26 -370.23)"/><path class="cls-3" d="M601,429.23a7.19,7.19,0,0,1-4.43,1.66" transform="translate(-369.26 -370.23)"/><path class="cls-3" d="M596.55,430.06" transform="translate(-369.26 -370.23)"/><circle class="cls-5" cx="218.03" cy="37.04" r="2.25"/><circle class="cls-5" cx="236.55" cy="37.04" r="2.25"/><path class="cls-3" d="M582.44,404.17a5.14,5.14,0,0,1,6.45-2.18" transform="translate(-369.26 -370.23)"/><path class="cls-3" d="M610.65,404.17a5.1,5.1,0,0,0-2.81-2.31,5.17,5.17,0,0,0-3.64.13" transform="translate(-369.26 -370.23)"/><path class="cls-3" d="M610.57,396" transform="translate(-369.26 -370.23)"/><path class="cls-3" d="M598.68,417.36a2.13,2.13,0,0,1-4.26,0" transform="translate(-369.26 -370.23)"/><path class="cls-6" d="M594.52,388.92a17.43,17.43,0,0,1-19.66,8.72h0" transform="translate(-369.26 -370.23)"/><path class="cls-6" d="M609.05,396.05" transform="translate(-369.26 -370.23)"/><path class="cls-6" d="M610.57,396" transform="translate(-369.26 -370.23)"/><path class="cls-6" d="M594.52,388.92a14.5,14.5,0,0,0,22.59,6.15,9.75,9.75,0,0,1,1.12,2.57" transform="translate(-369.26 -370.23)"/><polygon class="cls-2" points="82.55 103.72 82.55 86.22 80.96 79.22 74.52 74.85 68.2 74.31 59.65 69.94 60.69 66.36 63.83 65.16 70 65.16 76.08 63.44 80.16 58.65 80.72 53.85 77.87 20.81 74.45 13.48 68.14 7.11 57.43 2.1 48.7 1 38.91 2.04 29.85 6.68 21.89 15.12 18.88 24.42 17.91 37.05 16.54 57.79 21.27 63.91 27.89 65.54 35.83 65.74 38.33 70.1 35.26 71.11 30.95 73.72 24.21 75.29 17.39 78.41 14.46 86.79 14.46 103.72 82.55 103.72"/><path class="cls-3" d="M388,396.66c0-14.05,13.39-25.43,29.91-25.43s29.91,11.38,29.91,25.43" transform="translate(-369.26 -370.23)"/><path class="cls-6" d="M429.42,437.68c0,5-6.1,9.13-11.39,9.13s-11.45-4.13-11.45-9.13" transform="translate(-369.26 -370.23)"/><line class="cls-6" x1="26.43" y1="103.19" x2="26.43" y2="88.83"/><line class="cls-6" x1="71.12" y1="103.19" x2="71.12" y2="88.83"/><path class="cls-6" d="M406.58,439.48s-5,5.47-10.89,5.47h0a11.5,11.5,0,0,0-11.5,11.5v17" transform="translate(-369.26 -370.23)"/><path class="cls-6" d="M429.42,439.48s5,5.47,10.89,5.47h0a11.5,11.5,0,0,1,11.5,11.5v17" transform="translate(-369.26 -370.23)"/><path class="cls-6" d="M394.83,416.69a5.4,5.4,0,1,1,0-10.79" transform="translate(-369.26 -370.23)"/><path class="cls-6" d="M394.9,405.92v-.72a22.86,22.86,0,0,1,1.41-7.91h0" transform="translate(-369.26 -370.23)"/><path class="cls-6" d="M441.17,416.69a5.4,5.4,0,0,0,0-10.79" transform="translate(-369.26 -370.23)"/><path class="cls-6" d="M441.09,405.92v-.72a22.63,22.63,0,0,0-1.41-7.91h0" transform="translate(-369.26 -370.23)"/><path class="cls-6" d="M394.9,416.84a23.1,23.1,0,1,0,46.19,0" transform="translate(-369.26 -370.23)"/><path class="cls-3" d="M413.56,428.88a7.2,7.2,0,0,0,4.44,1.66" transform="translate(-369.26 -370.23)"/><path class="cls-3" d="M422.43,428.88a7.19,7.19,0,0,1-4.43,1.66" transform="translate(-369.26 -370.23)"/><path class="cls-3" d="M418,429.71" transform="translate(-369.26 -370.23)"/><circle class="cls-5" cx="39.48" cy="36.69" r="2.25"/><circle class="cls-5" cx="58" cy="36.69" r="2.25"/><path class="cls-3" d="M430.65,403a5.14,5.14,0,0,0-3.28-1.56,5.07,5.07,0,0,0-3.5,1" transform="translate(-369.26 -370.23)"/><path class="cls-3" d="M405.34,403a5.16,5.16,0,0,1,3.29-1.56,5.08,5.08,0,0,1,3.5,1" transform="translate(-369.26 -370.23)"/><path class="cls-3" d="M432,395.64" transform="translate(-369.26 -370.23)"/><path class="cls-3" d="M420.13,417a2.13,2.13,0,0,1-4.26,0" transform="translate(-369.26 -370.23)"/><path class="cls-6" d="M420,388.57a17.43,17.43,0,0,0,19.66,8.72h0" transform="translate(-369.26 -370.23)"/><path class="cls-6" d="M430.5,395.69" transform="translate(-369.26 -370.23)"/><path class="cls-6" d="M432,395.64" transform="translate(-369.26 -370.23)"/><path class="cls-6" d="M420,388.57a14.48,14.48,0,0,1-22.58,6.14,9.91,9.91,0,0,0-1.13,2.58" transform="translate(-369.26 -370.23)"/><path class="cls-3" d="M403.91,435.38h-7.29c-6.57,0-11.62-5.33-10.72-11.3L388,395.92" transform="translate(-369.26 -370.23)"/><path class="cls-3" d="M432,435.38h7.24c6.57,0,11.62-5.33,10.72-11.3l-2.13-28.16" transform="translate(-369.26 -370.23)"/><line class="cls-3" x1="1" y1="104.2" x2="367" y2="104.2"/><line class="cls-3" x1="190.75" y1="110.38" x2="303.25" y2="110.38"/><line class="cls-3" x1="112.29" y1="110.38" x2="169.34" y2="110.38"/><line class="cls-3" x1="53.01" y1="110.38" x2="82.62" y2="110.38"/></svg>