<svg id="Layer_1" data-name="Layer 1" xmlns="http://www.w3.org/2000/svg" viewBox="0 0 74.9 74.9"><defs><style>.cls-1{fill:#f6f6f6;}.cls-2{fill:#e71d73;}.cls-3{fill:#ed1e79;}.cls-4{fill:#575756;}.cls-5{fill:#00e8e8;}</style></defs><title>personalicon</title><circle class="cls-1" cx="37.45" cy="37.45" r="37.45"/><polygon class="cls-1" points="13.13 20.65 23.9 20.65 25.25 22.12 15.21 22.12 13.13 20.65"/><path class="cls-2" d="M619.35,383.65h-10a.52.52,0,0,1-.29-.09l-2.08-1.47a.5.5,0,0,1,.29-.91H618a.51.51,0,0,1,.37.16l1.35,1.47a.51.51,0,0,1,.09.54A.51.51,0,0,1,619.35,383.65Zm-9.88-1h8.74l-.43-.47h-9Z" transform="translate(-594.1 -361.03)"/><circle class="cls-1" cx="18.76" cy="44.41" r="9.18"/><path class="cls-3" d="M612.86,415.12a9.68,9.68,0,1,1,9.68-9.68A9.69,9.69,0,0,1,612.86,415.12Zm0-18.35a8.68,8.68,0,1,0,8.68,8.67A8.69,8.69,0,0,0,612.86,396.77Z" transform="translate(-594.1 -361.03)"/><polygon class="cls-1" points="17.29 36.93 15.21 35.83 13.13 20.65 15.21 22.12 17.29 36.93"/><path class="cls-3" d="M611.39,398.46a.46.46,0,0,1-.23-.06l-2.08-1.1a.5.5,0,0,1-.26-.37l-2.08-15.18a.5.5,0,0,1,.23-.5.52.52,0,0,1,.55,0l2.08,1.47a.51.51,0,0,1,.21.34l2.08,14.81a.5.5,0,0,1-.21.48A.52.52,0,0,1,611.39,398.46Zm-1.62-1.93,1,.53-1.91-13.63-1-.68Z" transform="translate(-594.1 -361.03)"/><circle class="cls-1" cx="20.72" cy="45.5" r="9.18"/><path class="cls-4" d="M614.82,416.21a9.68,9.68,0,1,1,9.68-9.68A9.69,9.69,0,0,1,614.82,416.21Zm0-18.36a8.68,8.68,0,1,0,8.68,8.68A8.68,8.68,0,0,0,614.82,397.85Z" transform="translate(-594.1 -361.03)"/><path class="cls-5" d="M614.87,403a2.83,2.83,0,0,1,1,.15,2.11,2.11,0,0,1,.73.43,1.83,1.83,0,0,1,.46.66,2.24,2.24,0,0,1,.16.84,2.36,2.36,0,0,1-.11.72,3.41,3.41,0,0,1-.3.64,4.85,4.85,0,0,1-.45.59l-.54.57-1.4,1.43.53-.12a3,3,0,0,1,.5-.05h1.34a.52.52,0,0,1,.38.14.45.45,0,0,1,.15.35v.89h-5v-.49a.89.89,0,0,1,.06-.31.72.72,0,0,1,.21-.29l2.06-2.08a6.61,6.61,0,0,0,.46-.51,3.12,3.12,0,0,0,.33-.47,2.57,2.57,0,0,0,.19-.47,2,2,0,0,0,.06-.49.93.93,0,0,0-.2-.66.8.8,0,0,0-.62-.23,1.07,1.07,0,0,0-.32.05,1,1,0,0,0-.25.13,1,1,0,0,0-.2.2,1.83,1.83,0,0,0-.13.24.65.65,0,0,1-.2.32.46.46,0,0,1-.32.1h-.11l-.11,0-.81-.14a2.55,2.55,0,0,1,.3-.93,2.3,2.3,0,0,1,.56-.67,2,2,0,0,1,.76-.39A3,3,0,0,1,614.87,403Z" transform="translate(-594.1 -361.03)"/><polygon class="cls-1" points="23.9 36.93 25.25 22.12 15.21 22.12 17.29 36.93 23.9 36.93"/><path class="cls-4" d="M618,398.46h-6.61a.49.49,0,0,1-.49-.43l-2.08-14.81a.52.52,0,0,1,.11-.4.52.52,0,0,1,.38-.17h10a.52.52,0,0,1,.37.16.53.53,0,0,1,.13.38L618.5,398A.5.5,0,0,1,618,398.46Zm-6.17-1h5.71l1.26-13.81h-8.91Z" transform="translate(-594.1 -361.03)"/><polygon class="cls-1" points="48.55 20.65 59.32 20.65 60.67 22.12 50.63 22.12 48.55 20.65"/><path class="cls-2" d="M654.77,383.65h-10a.52.52,0,0,1-.29-.09l-2.08-1.47a.5.5,0,0,1,.29-.91h10.77a.52.52,0,0,1,.37.16l1.35,1.47a.51.51,0,0,1,.08.54A.5.5,0,0,1,654.77,383.65Zm-9.88-1h8.74l-.43-.47h-9Z" transform="translate(-594.1 -361.03)"/><circle class="cls-1" cx="54.18" cy="44.41" r="9.18"/><path class="cls-3" d="M648.28,415.12a9.68,9.68,0,1,1,9.68-9.68A9.69,9.69,0,0,1,648.28,415.12Zm0-18.35a8.68,8.68,0,1,0,8.68,8.67A8.68,8.68,0,0,0,648.28,396.77Z" transform="translate(-594.1 -361.03)"/><polygon class="cls-1" points="52.71 36.93 50.63 35.83 48.55 20.65 50.63 22.12 52.71 36.93"/><path class="cls-3" d="M646.81,398.46a.46.46,0,0,1-.23-.06l-2.08-1.1a.51.51,0,0,1-.27-.37l-2.08-15.18a.53.53,0,0,1,.24-.5.52.52,0,0,1,.55,0l2.08,1.47a.51.51,0,0,1,.21.34l2.08,14.81a.5.5,0,0,1-.5.57Zm-1.62-1.93,1,.53-1.92-13.63-1-.68Z" transform="translate(-594.1 -361.03)"/><circle class="cls-1" cx="56.14" cy="45.5" r="9.18"/><path class="cls-4" d="M650.24,416.21a9.68,9.68,0,1,1,9.68-9.68A9.69,9.69,0,0,1,650.24,416.21Zm0-18.36a8.68,8.68,0,1,0,8.68,8.68A8.68,8.68,0,0,0,650.24,397.85Z" transform="translate(-594.1 -361.03)"/><path class="cls-5" d="M650.42,403a2.79,2.79,0,0,1,1,.15,2.12,2.12,0,0,1,.69.4,1.79,1.79,0,0,1,.44.59,1.76,1.76,0,0,1,.14.71,2.64,2.64,0,0,1-.06.6,1.55,1.55,0,0,1-.21.45,1.26,1.26,0,0,1-.33.32,2.17,2.17,0,0,1-.46.22,1.59,1.59,0,0,1,1.19,1.62,2.33,2.33,0,0,1-.2,1,2.08,2.08,0,0,1-.56.71,2.65,2.65,0,0,1-.8.42,3.38,3.38,0,0,1-1,.14,3.46,3.46,0,0,1-.9-.11,2.05,2.05,0,0,1-.71-.35,2.23,2.23,0,0,1-.55-.59,4.39,4.39,0,0,1-.4-.87l.68-.28.17-.05h.17a.61.61,0,0,1,.28.06.37.37,0,0,1,.19.18,1.87,1.87,0,0,0,.47.59,1,1,0,0,0,.59.18,1.19,1.19,0,0,0,.44-.08,1.07,1.07,0,0,0,.32-.22,1,1,0,0,0,.18-.31.87.87,0,0,0,.07-.35,2.77,2.77,0,0,0,0-.42.58.58,0,0,0-.18-.31,1,1,0,0,0-.45-.21,4.26,4.26,0,0,0-.83-.07v-1.05a3,3,0,0,0,.73-.07,1.17,1.17,0,0,0,.42-.19.57.57,0,0,0,.2-.29,1.52,1.52,0,0,0,0-.38,1,1,0,0,0-.2-.65.82.82,0,0,0-.63-.23,1,1,0,0,0-.31.05,1.05,1.05,0,0,0-.26.13.9.9,0,0,0-.19.2.8.8,0,0,0-.13.24.65.65,0,0,1-.2.32.48.48,0,0,1-.33.1h-.1l-.12,0-.81-.14a2.75,2.75,0,0,1,.31-.93,2.27,2.27,0,0,1,.55-.67,2.11,2.11,0,0,1,.76-.39A3.05,3.05,0,0,1,650.42,403Z" transform="translate(-594.1 -361.03)"/><polygon class="cls-1" points="59.32 36.93 60.67 22.12 50.63 22.12 52.71 36.93 59.32 36.93"/><path class="cls-4" d="M653.42,398.46h-6.61a.51.51,0,0,1-.5-.43l-2.08-14.81a.53.53,0,0,1,.12-.4.5.5,0,0,1,.38-.17h10a.52.52,0,0,1,.37.16.49.49,0,0,1,.12.38L653.92,398A.5.5,0,0,1,653.42,398.46Zm-6.17-1H653l1.26-13.81h-8.91Z" transform="translate(-594.1 -361.03)"/><polygon class="cls-1" points="30.67 17.55 43.26 17.55 44.84 19.27 33.1 19.27 30.67 17.55"/><path class="cls-2" d="M638.94,380.87H627.2a.54.54,0,0,1-.33-.1l-2.44-1.72a.57.57,0,0,1,.33-1h12.6a.55.55,0,0,1,.42.19l1.58,1.71a.59.59,0,0,1,.1.62A.57.57,0,0,1,638.94,380.87Zm-11.56-1.14h10.25l-.52-.57H626.57Z" transform="translate(-594.1 -361.03)"/><circle class="cls-1" cx="37.25" cy="45.35" r="10.74"/><path class="cls-3" d="M631.35,417.68a11.31,11.31,0,1,1,11.31-11.3A11.32,11.32,0,0,1,631.35,417.68Zm0-21.47a10.17,10.17,0,1,0,10.16,10.17A10.18,10.18,0,0,0,631.35,396.21Z" transform="translate(-594.1 -361.03)"/><polygon class="cls-1" points="35.53 36.59 33.1 35.3 30.67 17.55 33.1 19.27 35.53 36.59"/><path class="cls-3" d="M629.63,398.19a.66.66,0,0,1-.27-.06l-2.43-1.29a.61.61,0,0,1-.3-.43l-2.43-17.75a.57.57,0,0,1,.9-.54l2.43,1.71a.62.62,0,0,1,.24.39l2.43,17.32a.57.57,0,0,1-.57.65Zm-1.9-2.23,1.18.63-2.24-16-1.16-.82Z" transform="translate(-594.1 -361.03)"/><circle class="cls-1" cx="39.54" cy="46.61" r="10.74"/><path class="cls-4" d="M633.64,419A11.31,11.31,0,1,1,645,407.64,11.32,11.32,0,0,1,633.64,419Zm0-21.47a10.17,10.17,0,1,0,10.16,10.16A10.17,10.17,0,0,0,633.64,397.48Z" transform="translate(-594.1 -361.03)"/><path class="cls-5" d="M631.68,410.74h1.61v-4.22c0-.21,0-.43,0-.65l-.95.78a.58.58,0,0,1-.18.11l-.18,0a.6.6,0,0,1-.27-.06.52.52,0,0,1-.17-.15l-.57-.74,2.61-2.19h1.48v7.09h1.38V412h-4.78Z" transform="translate(-594.1 -361.03)"/><polygon class="cls-1" points="43.26 36.59 44.84 19.27 33.1 19.27 35.53 36.59 43.26 36.59"/><path class="cls-4" d="M637.36,398.19h-7.73a.58.58,0,0,1-.57-.49l-2.43-17.32a.57.57,0,0,1,.14-.45.54.54,0,0,1,.43-.2h11.74a.57.57,0,0,1,.42.19.56.56,0,0,1,.15.43l-1.58,17.32A.57.57,0,0,1,637.36,398.19Zm-7.23-1.14h6.71l1.47-16.18H627.86Z" transform="translate(-594.1 -361.03)"/></svg>