<svg id="30a233cb-d73d-4b73-9a7d-b713b6af670c" data-name="Layer 1" xmlns="http://www.w3.org/2000/svg" viewBox="0 0 1190.55118 341.15748"><defs><style>.b9f64c47-552b-4dfe-af87-4bcf05aacb83{fill:#f6f6f6;}.\38 39d43fa-bbcc-4353-83da-0b981fa327d4{fill:#e71d73;}.c2a67819-a378-4880-bb64-ba19275f2104{fill:#00e8e8;}.\32 41b21c1-2bda-4244-8dbf-a12a8aa89848,.cebc1afb-fe12-4cac-9354-7af2a83966d0,.ef04de7c-b7de-48ff-b7a8-297769151a12{fill:none;}.\32 41b21c1-2bda-4244-8dbf-a12a8aa89848{stroke:#00e8e8;}.\32 41b21c1-2bda-4244-8dbf-a12a8aa89848,.ef04de7c-b7de-48ff-b7a8-297769151a12{stroke-linecap:round;stroke-linejoin:round;stroke-width:7px;}.caae6e8c-81ec-4dd4-9b74-359e8a99d1b8{fill:#3c3c3b;}.ef04de7c-b7de-48ff-b7a8-297769151a12{stroke:#e71d73;}.\32 3ffaa0b-1ff2-4179-8a7a-670d7380ebcd{fill:#fff;}.\31 c133e0b-67a9-449f-909c-59cc2c81a91e{fill:#ed1e79;}.a1e0e85a-dfaa-47dc-a57a-d62373efbfc5{fill:#575756;}.cebc1afb-fe12-4cac-9354-7af2a83966d0{stroke:#e5e5e5;stroke-miterlimit:10;}</style></defs><title>pgheader</title><rect class="b9f64c47-552b-4dfe-af87-4bcf05aacb83" y="0.5" width="1190.55118" height="340.15748"/><polygon class="839d43fa-bbcc-4353-83da-0b981fa327d4" points="987.608 0.499 968.027 55.089 865.617 340.659 760.617 340.659 863.027 55.089 882.608 0.499 987.608 0.499"/><polygon class="c2a67819-a378-4880-bb64-ba19275f2104" points="1118.274 0.499 1098.694 55.089 996.284 340.659 891.284 340.659 993.694 55.089 1013.274 0.499 1118.274 0.499"/><circle class="b9f64c47-552b-4dfe-af87-4bcf05aacb83" cx="939.44572" cy="170.57874" r="148.10309"/><path class="241b21c1-2bda-4244-8dbf-a12a8aa89848" d="M887.97,138.11633" transform="translate(0 0.49878)"/><path class="241b21c1-2bda-4244-8dbf-a12a8aa89848" d="M890.816,248.40622" transform="translate(0 0.49878)"/><path class="839d43fa-bbcc-4353-83da-0b981fa327d4" d="M1028.0095,206.24059a2.584,2.584,0,0,1-1.8032-.73039c-.04448-.04267-4.90049-4.66077-14.358-9.289-8.72022-4.26736-23.25681-9.41843-42.98894-9.72794a2.59194,2.59194,0,0,1-2.55095-2.6323,2.62315,2.62315,0,0,1,2.63194-2.55131c39.93758.627,60.03707,19.66777,60.873,20.47771a2.592,2.592,0,0,1-1.80392,4.45322Z" transform="translate(0 0.49878)"/><path class="839d43fa-bbcc-4353-83da-0b981fa327d4" d="M1028.01239,225.74059a2.58809,2.58809,0,0,1-2.17093-1.17224c-.26757-.4057-21.18243-31.61437-56.3627-35.98515a2.59206,2.59206,0,0,1,.63928-5.14456c37.66251,4.68029,59.16349,36.92019,60.06021,38.29058a2.59148,2.59148,0,0,1-2.16586,4.01137Z" transform="translate(0 0.49878)"/><path class="839d43fa-bbcc-4353-83da-0b981fa327d4" d="M1028.00805,189.45605a2.57944,2.57944,0,0,1-1.14368-.26756c-.28565-.13957-25.60925-12.2619-59.05972-3.45526a2.59188,2.59188,0,1,1-1.31977-5.01294c35.42976-9.33021,61.577,3.27736,62.673,3.81972a2.5922,2.5922,0,0,1-1.14982,4.916Z" transform="translate(0 0.49878)"/><path class="c2a67819-a378-4880-bb64-ba19275f2104" d="M980.97411,202.08387a295.8997,295.8997,0,0,1-65.5913-7.745,2.59214,2.59214,0,0,1,1.18236-5.04766c39.79367,9.32225,71.47674,7.47169,71.79168,7.45144a2.59183,2.59183,0,0,1,.32469,5.17348C988.58862,201.92188,985.82651,202.08387,980.97411,202.08387Z" transform="translate(0 0.49878)"/><path class="c2a67819-a378-4880-bb64-ba19275f2104" d="M984.8723,213.89885c-13.19622,0-36.97081-3.01775-70.53265-18.95474a2.59216,2.59216,0,0,1,2.22372-4.68318c50.94551,24.19331,78.862,17.57423,79.13716,17.50553a2.59188,2.59188,0,0,1,1.29193,5.02017A52.29281,52.29281,0,0,1,984.8723,213.89885Z" transform="translate(0 0.49878)"/><path class="caae6e8c-81ec-4dd4-9b74-359e8a99d1b8" d="M985.65874,223.01066c-20.03514,0-45.04489-5.86048-70.10129-26.99772-.5995-.50549-1.27891-1.07823-1.47163-1.20767a2.57624,2.57624,0,0,1-.87285-3.54638,2.60807,2.60807,0,0,1,3.572-.87864,19.24479,19.24479,0,0,1,2.11452,1.6705c31.14866,26.27528,62.13677,27.82212,82.6463,24.48763a2.59205,2.59205,0,0,1,.83091,5.11708A104.37655,104.37655,0,0,1,985.65874,223.01066Z" transform="translate(0 0.49878)"/><path class="caae6e8c-81ec-4dd4-9b74-359e8a99d1b8" d="M1028.00769,240.36649a2.57668,2.57668,0,0,1-1.24926-.32325c-2.07041-1.14115-20.35007-11.29792-24.60876-16.33111-2.19913-2.599-5.98487-8.76687-9.64623-14.73149-2.70136-4.40115-6.40068-10.42868-7.35128-11.32757-.29975-.277-7.51435-6.84326-20.24991-10.52125a2.59163,2.59163,0,1,1,1.43836-4.97968c11.098,3.20432,19.257,8.858,22.32864,11.69277,1.3787,1.27276,3.90506,5.342,8.252,12.42388,3.39415,5.52928,7.241,11.79691,9.18558,14.09511,3.08789,3.64906,17.76116,12.16643,23.15448,15.14079a2.59206,2.59206,0,0,1-1.25359,4.8618Z" transform="translate(0 0.49878)"/><path class="caae6e8c-81ec-4dd4-9b74-359e8a99d1b8" d="M997.83168,260.52167a2.59309,2.59309,0,0,1-2.51334-1.96771c-.74088-2.98231-7.11444-13.03568-9.27488-15.58843-.03218-.03833-.06075-.07015-.08534-.09835a46.83694,46.83694,0,0,0-6.16023,2.65038c-2.36726,1.11511-5.31378,2.50285-9.23366,4.25-14.88154,6.635-41.06969,5.61172-49.676,5.27617-.57889-.02314-1.06521-.04194-1.4474-.05424-3.48129-.11209-14.12765-1.74281-24.424-3.32-7.13975-1.09342-13.88394-2.12609-16.8554-2.43127-8.26788-.84754-22.13989-12.61335-27.39184-18.42827-1.95-2.15863-3.75139-6.21267-1.26119-13.26781a34.61309,34.61309,0,0,1,3.02461-6.29294c1.2178-31.8371,20.44481-55.36582,24.31263-59.78577,1.86828-2.13549,8.39046-13.74221,14.145-23.98287,5.70356-10.15027,11.60129-20.64548,14.90541-25.55718C911.73555,93.24328,921.444,89.331,927.86816,86.7428c1.66941-.67326,3.111-1.254,4.19649-1.797,6.0467-3.02281,27.81164-5.66957,30.61858-5.24146,1.1679.17934,2.76717.42521,9.26115,10.53282a117.39864,117.39864,0,0,1,6.98825,12.12738,7.20651,7.20651,0,0,1-1.25938,7.45289,24.15716,24.15716,0,0,1,2.3528,7.75227,5.85081,5.85081,0,0,1-1.79091,5.68259c-3.59989,3.111-11.10267,1.40076-14.38834.43968-9.56271,3.29833-27.22769,2.30471-27.99821,2.25987a2.59576,2.59576,0,0,1-.84465-.19525c-1.506-.6183-5.98451-1.86865-8.50979-.22129-1.53924,1.139-5.63341,9.95212-10.95767,26.592a3.95829,3.95829,0,0,0-.094,2.10511c1.98832,8.51593,2.48007,22.84028,2.58782,31.39092,6.41551-5.63052,15.8231-8.20786,27.65869-7.50278a84.58784,84.58784,0,0,1,19.28088,3.57891c15.24023-13.95047,31.68741-15.31724,42.9188-13.95481a60.69114,60.69114,0,0,1,21.42578,6.69718,2.592,2.592,0,0,1-2.607,4.4807,56.54843,56.54843,0,0,0-19.63343-6.055c-15.05292-1.77247-28.39486,2.81743-39.65626,13.64312a2.591,2.591,0,0,1-2.66593.57275c-.34965-.12439-35.04938-12.1932-47.10915,6.90328a2.59168,2.59168,0,0,1-4.78262-1.41812c.00326-.25238.30012-25.31492-2.46525-37.15738a9.14364,9.14364,0,0,1,.20466-4.864c5.59-17.47009,9.985-27.34628,13.06279-29.35377,4.715-3.07487,11.05313-1.08185,12.89068-.39629,2.73138.13017,18.69838.74485,26.26335-2.249a2.58673,2.58673,0,0,1,1.74607-.05785c3.879,1.23877,9.10169,1.86141,10.28369.83959.17718-.15331.09618-.734.06726-.90829-.78572-4.71283-1.79452-6.19242-2.0404-6.494a2.59184,2.59184,0,0,1-.24189-4.3715c.00614-.00507,2.17634-1.63145,1.52442-3.17974-1.54286-3.66425-10.07145-17.384-12.60034-19.56363h-.04339c-3.52648,0-22.25487,2.33291-27.12861,4.77-1.2724.63565-2.804,1.25323-4.5776,1.96771-6.18554,2.49274-14.657,5.90605-19.60883,13.26637-3.18733,4.73886-9.03371,15.14224-14.68737,25.20356-7.80254,13.88539-12.68965,22.48737-14.763,24.85644-3.69209,4.21964-22.1558,26.81042-23.05613,57.241a2.59158,2.59158,0,0,1-.43968,1.36894c-1.66942,2.49779-5.74153,10.40916-2.63448,13.84923,5.658,6.264,18.14553,16.138,24.074,16.74621,3.10018.31746,9.9062,1.36026,17.11176,2.4638,9.67263,1.48176,20.63573,3.16021,23.80606,3.2629.39159.01229.88948.03182,1.48284.055,22.28741.86924,38.22115-.755,47.36334-4.83,3.87-1.72545,6.78938-3.1009,9.135-4.20589,7.1864-3.38367,9.6079-4.52554,12.41159-1.21057,1.97531,2.33436,9.24776,13.25479,10.34877,17.687a2.59532,2.59532,0,0,1-2.51768,3.21733ZM973.45,112.164l.00543.00145Zm-.00542-.00145.00325.00073Zm-.00506-.00144.00217.00072Zm-.00506-.00145h0Z" transform="translate(0 0.49878)"/><path class="ef04de7c-b7de-48ff-b7a8-297769151a12" d="M915.45152,192.60284" transform="translate(0 0.49878)"/><path class="caae6e8c-81ec-4dd4-9b74-359e8a99d1b8" d="M154.41846,77.94043q6.18384,5.90478,6.18554,16.02588a25.79079,25.79079,0,0,1-.22509,3.936,28.13442,28.13442,0,0,1-5.0044,13.27051,27.68223,27.68223,0,0,1-10.57129,8.88428,32.57092,32.57092,0,0,1-14.45117,3.14892H119.106a1.0042,1.0042,0,0,0-1.01221.89942l-3.03613,24.5166a2.404,2.404,0,0,1-.731,1.57422,2.325,2.325,0,0,1-1.63086.5625H96.38916a1.75608,1.75608,0,0,1-1.46191-.5625,2.06624,2.06624,0,0,1-.33741-1.57422l9.10938-74.44873a2.20581,2.20581,0,0,1,2.36133-2.13672H137.5498Q148.23219,72.03662,154.41846,77.94043Zm-17.2627,25.86621a8.36158,8.36158,0,0,0,2.86817-6.5791,6.51469,6.51469,0,0,0-2.19336-5.17334,8.67232,8.67232,0,0,0-5.90381-1.91162h-8.772a1.00423,1.00423,0,0,0-1.01221.8999L120.34326,105.437c0,.60108.26172.8999.78711.8999h8.88428A10.4009,10.4009,0,0,0,137.15576,103.80664Z" transform="translate(0 0.49878)"/><path class="caae6e8c-81ec-4dd4-9b74-359e8a99d1b8" d="M220.76855,90.14258H188.94238a1.00422,1.00422,0,0,0-1.0122.8999l-1.23731,9.89648c0,.60059.26221.89942.7876.89942H206.936a1.79684,1.79684,0,0,1,1.40576.5625,1.93744,1.93744,0,0,1,.39355,1.57422l-1.687,13.72021a2.20525,2.20525,0,0,1-2.36182,2.13672H185.231a.79493.79493,0,0,0-.89942.8999l-1.34961,11.021v.2251a.59639.59639,0,0,0,.67481.6748h31.93847a1.7975,1.7975,0,0,1,1.40577.562,1.93683,1.93683,0,0,1,.39355,1.57471L215.708,148.62207a2.284,2.284,0,0,1-.7876,1.57422,2.37711,2.37711,0,0,1-1.57422.5625H162.17676a1.75608,1.75608,0,0,1-1.46192-.5625,2.06628,2.06628,0,0,1-.3374-1.57422l9.10938-74.44873a2.2058,2.2058,0,0,1,2.36132-2.13672h51.16944a1.79747,1.79747,0,0,1,1.40576.562,1.93867,1.93867,0,0,1,.394,1.57471l-1.687,13.83252A2.20526,2.20526,0,0,1,220.76855,90.14258Z" transform="translate(0 0.49878)"/><path class="caae6e8c-81ec-4dd4-9b74-359e8a99d1b8" d="M260.69141,149.18457l-8.43457-28.00293q-.11354-.67456-1.01221-.6748H247.4209q-1.01221,0-1.01221.8999l-3.37353,27.21533a2.404,2.404,0,0,1-.731,1.57422,2.325,2.325,0,0,1-1.63086.5625H224.3667a1.756,1.756,0,0,1-1.46191-.5625,2.06624,2.06624,0,0,1-.33741-1.57422l9.10938-74.44873a2.20581,2.20581,0,0,1,2.36133-2.13672h32.61377q10.12133,0,16.08154,5.73535,5.95971,5.7356,5.96045,15.51953,0,1.12574-.22461,3.82373a26.46872,26.46872,0,0,1-5.00488,12.82032,24.81572,24.81572,0,0,1-10.62745,8.20947.85173.85173,0,0,0-.562,1.125l9.78369,29.01465a2.51825,2.51825,0,0,1,.1128.78711q0,1.68677-1.91211,1.687H262.82812A1.91269,1.91269,0,0,1,260.69141,149.18457ZM250.12012,91.04248l-1.57471,12.48291c0,.60107.26221.8999.7876.8999h9.89648a9.20628,9.20628,0,0,0,6.354-2.24951,7.455,7.455,0,0,0,2.53027-5.84766,5.63179,5.63179,0,0,0-1.96826-4.49853,7.58928,7.58928,0,0,0-5.1167-1.687h-9.89649A1.00422,1.00422,0,0,0,250.12012,91.04248Z" transform="translate(0 0.49878)"/><path class="caae6e8c-81ec-4dd4-9b74-359e8a99d1b8" d="M298.02637,145.69824q-7.31176-5.95971-7.30957-15.96972,0-1.01222.22461-3.26123l.22509-1.12452a2.39268,2.39268,0,0,1,.731-1.5747,2.17325,2.17325,0,0,1,1.51807-.562h16.082q2.135,0,1.91162,1.12452l-.1123,1.2373a6.24237,6.24237,0,0,0,2.47412,5.51025,11.1633,11.1633,0,0,0,7.64746,2.47413q4.38575,0,6.29785-2.02442a6.0683,6.0683,0,0,0,1.91162-4.16064,3.62417,3.62417,0,0,0-2.08057-3.374,44.20734,44.20734,0,0,0-7.2539-2.69921l-3.03614-1.01172a51.3261,51.3261,0,0,1-16.02587-8.041q-6.468-5.00317-6.46631-14.33887A23.8522,23.8522,0,0,1,298.98242,83.957a27.99766,27.99766,0,0,1,11.47119-9.44629,37.25639,37.25639,0,0,1,15.91309-3.374,34.03055,34.03055,0,0,1,14.11377,2.81152,22.45373,22.45373,0,0,1,9.72754,8.041,21.09921,21.09921,0,0,1,3.48633,11.977q0,1.0122-.22461,3.26123l-.1128.5625a2.40175,2.40175,0,0,1-.73095,1.57422,2.17158,2.17158,0,0,1-1.51807.5625h-16.082q-2.13721,0-1.91162-.8999l.1123-.89942a7.5022,7.5022,0,0,0-2.30517-6.12939q-2.644-2.75391-7.59131-2.75489a9.94173,9.94173,0,0,0-5.96045,1.63038,5.19729,5.19729,0,0,0-2.249,4.44238q0,2.58837,2.98,4.32959a70.10466,70.10466,0,0,0,11.30224,4.55469q.89868.33764,6.91651,2.30517a22.21926,22.21926,0,0,1,10.06494,6.63525,16.50705,16.50705,0,0,1,4.04883,11.18995,24.74077,24.74077,0,0,1-4.21729,14.28271,27.80019,27.80019,0,0,1-11.6958,9.61524,39.86742,39.86742,0,0,1-16.813,3.43017Q305.335,151.65869,298.02637,145.69824Z" transform="translate(0 0.49878)"/><path class="caae6e8c-81ec-4dd4-9b74-359e8a99d1b8" d="M369.49463,148.95947a22.52056,22.52056,0,0,1-9.44629-8.88427,26.47653,26.47653,0,0,1-3.31787-13.49561,32.57479,32.57479,0,0,1,.3374-4.61084l2.58643-21.14258a34.916,34.916,0,0,1,5.73584-15.51953,31.34134,31.34134,0,0,1,11.97705-10.4585,36.09268,36.09268,0,0,1,16.4751-3.71142,32.07834,32.07834,0,0,1,14.50781,3.09277,22.24374,22.24374,0,0,1,9.50244,8.772,25.9557,25.9557,0,0,1,3.31787,13.32666,31.8129,31.8129,0,0,1-.3374,4.49805l-2.58643,21.14258a34.22449,34.22449,0,0,1-5.6792,15.80078,31.9585,31.9585,0,0,1-12.08984,10.57129,36,36,0,0,1-16.53174,3.76758A31.2444,31.2444,0,0,1,369.49463,148.95947Zm24.46045-18.0498a13.16557,13.16557,0,0,0,3.71094-8.26612l2.69921-22.042a13.55039,13.55039,0,0,0,.11231-2.02441,9.57292,9.57292,0,0,0-2.36133-6.80371,8.48772,8.48772,0,0,0-6.523-2.53028,10.5083,10.5083,0,0,0-7.64746,3.09229,13.156,13.156,0,0,0-3.71094,8.26611l-2.69922,22.042a13.28927,13.28927,0,0,0-.1123,2.02442,9.56856,9.56856,0,0,0,2.36182,6.80371,8.34226,8.34226,0,0,0,6.41015,2.53027A10.64149,10.64149,0,0,0,393.95508,130.90967Z" transform="translate(0 0.49878)"/><path class="caae6e8c-81ec-4dd4-9b74-359e8a99d1b8" d="M422.856,150.19629a2.06628,2.06628,0,0,1-.33741-1.57422l9.10938-74.44873a2.20581,2.20581,0,0,1,2.36133-2.13672h15.63232a2.39458,2.39458,0,0,1,2.36133,1.46192l16.98145,37.22412a.53052.53052,0,0,0,.5625.45019q.44823,0,.5625-.7876l4.27343-36.21191a2.20608,2.20608,0,0,1,2.36133-2.13672h16.41943a1.79819,1.79819,0,0,1,1.40577.562,1.93858,1.93858,0,0,1,.39355,1.57471l-9.22168,74.44873a2.404,2.404,0,0,1-.731,1.57422,2.16933,2.16933,0,0,1-1.51806.5625H467.72754a2.39364,2.39364,0,0,1-2.36182-1.46191l-16.86914-37.89942c-.15088-.374-.3374-.562-.562-.562-.2251,0-.41309.26367-.5625.78711l-4.38574,36.99951a2.05732,2.05732,0,0,1-2.36182,2.13672H424.31787A1.75608,1.75608,0,0,1,422.856,150.19629Z" transform="translate(0 0.49878)"/><path class="caae6e8c-81ec-4dd4-9b74-359e8a99d1b8" d="M543.41211,148.95947l-1.23682-8.09717a.6984.6984,0,0,0-.28125-.5625.97149.97149,0,0,0-.61865-.2246H518.6709a1.3056,1.3056,0,0,0-1.12451.7871l-3.14893,8.09717a2.47455,2.47455,0,0,1-2.47412,1.79932h-17.769q-1.57617,0-1.57422-1.34961a2.48564,2.48564,0,0,1,.2251-1.12451l31.82617-74.44873a2.47464,2.47464,0,0,1,2.47412-1.79932h22.49219a1.91523,1.91523,0,0,1,2.02392,1.79932l13.60791,74.44873v.44971q0,2.0244-2.13672,2.02441H545.43652A1.75926,1.75926,0,0,1,543.41211,148.95947ZM524.519,123.09375q0,.78808.67432.78711H538.689a.99.99,0,0,0,.731-.28125.72368.72368,0,0,0,.16846-.731l-3.71094-25.97851c-.07568-.374-.24414-.562-.50635-.562q-.3955,0-.61816.562L524.519,122.86865Z" transform="translate(0 0.49878)"/><path class="caae6e8c-81ec-4dd4-9b74-359e8a99d1b8" d="M572.53809,150.19629a2.0725,2.0725,0,0,1-.33789-1.57422l9.10937-74.44873a2.20855,2.20855,0,0,1,2.36328-2.13672h16.30664a1.76552,1.76552,0,0,1,1.46094.562,2.08442,2.08442,0,0,1,.33789,1.57471l-6.97266,57.57959v.2251a.59608.59608,0,0,0,.67383.6748h32.95117a1.76715,1.76715,0,0,1,1.46289.562,2.093,2.093,0,0,1,.3379,1.57471l-1.6875,13.83252a2.41055,2.41055,0,0,1-.73047,1.57422,2.32829,2.32829,0,0,1-1.63086.5625H574.001A1.75753,1.75753,0,0,1,572.53809,150.19629Z" transform="translate(0 0.49878)"/><path class="839d43fa-bbcc-4353-83da-0b981fa327d4" d="M104.09277,262.2041q-7.1433-6.80272-7.1416-18.38672a33.86215,33.86215,0,0,1,.2251-4.499l2.58643-21.25488a35.32018,35.32018,0,0,1,5.67968-15.51953,30.677,30.677,0,0,1,11.80811-10.40235,35.61287,35.61287,0,0,1,16.25049-3.65527,31.67547,31.67547,0,0,1,14.22607,3.03613,22.65328,22.65328,0,0,1,9.44678,8.37891,22.05172,22.05172,0,0,1,3.31787,11.86425q0,.90088-.2251,3.14942a1.98556,1.98556,0,0,1-.731,1.293,2.32387,2.32387,0,0,1-1.51806.50586H141.71045q-2.13721,0-1.91162-.5625v-.44922a8.07793,8.07793,0,0,0-1.79932-6.41016q-2.25073-2.6997-6.63525-2.69922a10.19994,10.19994,0,0,0-7.42237,2.9795,12.72412,12.72412,0,0,0-3.59863,7.92871L117.644,239.99316a8.43426,8.43426,0,0,0-.1123,1.57422,9.11934,9.11934,0,0,0,2.58642,6.748,8.97811,8.97811,0,0,0,6.63526,2.58691,10.69183,10.69183,0,0,0,6.9165-2.30566,9.07091,9.07091,0,0,0,3.31738-6.35449l.11231-1.124v-.22558q0-.67383-.78711-.67481h-8.772a1.75775,1.75775,0,0,1-1.46192-.56152,2.072,2.072,0,0,1-.3374-1.5752l1.46191-12.59472a2.28416,2.28416,0,0,1,.78711-1.5752,2.38748,2.38748,0,0,1,1.57471-.56152H157.23a1.79716,1.79716,0,0,1,1.40576.56152,1.9398,1.9398,0,0,1,.394,1.5752l-1.91211,14.957a32.30666,32.30666,0,0,1-5.5669,14.84473,30.8974,30.8974,0,0,1-11.8081,10.12109,35.796,35.796,0,0,1-16.13819,3.59863Q111.23243,269.00781,104.09277,262.2041Z" transform="translate(0 0.49878)"/><path class="839d43fa-bbcc-4353-83da-0b981fa327d4" d="M175.9541,266.30859a22.51948,22.51948,0,0,1-9.44629-8.88379,26.47712,26.47712,0,0,1-3.31787-13.49511,32.57259,32.57259,0,0,1,.3374-4.61133l2.58643-21.14258a34.91814,34.91814,0,0,1,5.73584-15.51953,31.34656,31.34656,0,0,1,11.977-10.459,36.09859,36.09859,0,0,1,16.4751-3.71094,32.07189,32.07189,0,0,1,14.50781,3.09277,22.24556,22.24556,0,0,1,9.50244,8.77149,25.95873,25.95873,0,0,1,3.31787,13.32714,31.8129,31.8129,0,0,1-.3374,4.49805l-2.58643,21.14258a34.22463,34.22463,0,0,1-5.67919,15.80078A31.95861,31.95861,0,0,1,206.937,265.69043a36.00615,36.00615,0,0,1-16.53174,3.76758A31.23833,31.23833,0,0,1,175.9541,266.30859Zm24.46045-18.0498a13.163,13.163,0,0,0,3.71094-8.26563l2.69922-22.042a13.55523,13.55523,0,0,0,.1123-2.02441,9.57291,9.57291,0,0,0-2.36133-6.80371,8.486,8.486,0,0,0-6.523-2.53028,10.50679,10.50679,0,0,0-7.64746,3.09278,13.15225,13.15225,0,0,0-3.71093,8.26562l-2.69922,22.042a13.292,13.292,0,0,0-.11231,2.02442,9.56776,9.56776,0,0,0,2.36182,6.80371,8.34055,8.34055,0,0,0,6.41016,2.53027A10.63993,10.63993,0,0,0,200.41455,248.25879Z" transform="translate(0 0.49878)"/><path class="839d43fa-bbcc-4353-83da-0b981fa327d4" d="M273.626,266.30859l-1.23682-8.09668a.69906.69906,0,0,0-.28125-.5625.9715.9715,0,0,0-.61865-.22461H248.88477a1.30563,1.30563,0,0,0-1.12452.78711l-3.14892,8.09668a2.475,2.475,0,0,1-2.47412,1.79981H224.36816q-1.57617,0-1.57421-1.34961a2.488,2.488,0,0,1,.22509-1.125l31.82617-74.44824a2.47563,2.47563,0,0,1,2.47413-1.79981h22.49218a1.916,1.916,0,0,1,2.02393,1.79981l13.60791,74.44824v.45019q0,2.02441-2.13672,2.02442H275.65039A1.7596,1.7596,0,0,1,273.626,266.30859Zm-18.89307-25.86523q0,.78808.67432.78711h13.4956a.98807.98807,0,0,0,.731-.28125.72431.72431,0,0,0,.16846-.73145l-3.71094-25.97754q-.11354-.5625-.50635-.5625-.39551,0-.61816.5625l-10.23389,25.97754Z" transform="translate(0 0.49878)"/><path class="839d43fa-bbcc-4353-83da-0b981fa327d4" d="M302.75244,267.5459a2.06629,2.06629,0,0,1-.3374-1.57422l9.10937-74.44922a2.20612,2.20612,0,0,1,2.36133-2.13672h16.30664a1.76761,1.76761,0,0,1,1.46241.5625,2.08749,2.08749,0,0,1,.3374,1.57422l-6.97266,57.58008v.22461a.59619.59619,0,0,0,.67481.6748H358.645a1.76589,1.76589,0,0,1,1.46191.5625,2.08531,2.08531,0,0,1,.33741,1.57422l-1.68653,13.833a2.40212,2.40212,0,0,1-.73144,1.57422,2.32511,2.32511,0,0,1-1.63037.5625H304.21436A1.7575,1.7575,0,0,1,302.75244,267.5459Z" transform="translate(0 0.49878)"/><path class="839d43fa-bbcc-4353-83da-0b981fa327d4" d="M373.37646,263.04785q-7.31176-5.96044-7.30957-15.96973,0-1.0122.22461-3.26074l.2251-1.125a2.39032,2.39032,0,0,1,.731-1.57422,2.16924,2.16924,0,0,1,1.51806-.5625h16.082q2.135,0,1.91162,1.125L386.647,242.917a6.24322,6.24322,0,0,0,2.47412,5.51074,11.16114,11.16114,0,0,0,7.64746,2.47461q4.38575,0,6.29786-2.02441a6.07026,6.07026,0,0,0,1.91162-4.16113,3.62368,3.62368,0,0,0-2.08057-3.374,44.25414,44.25414,0,0,0-7.25391-2.69922l-3.03613-1.01171a51.32627,51.32627,0,0,1-16.02588-8.041q-6.468-5.00244-6.46631-14.33887a23.85221,23.85221,0,0,1,4.21729-13.94531,28.00133,28.00133,0,0,1,11.47119-9.44629,37.26363,37.26363,0,0,1,15.91309-3.374,34.03043,34.03043,0,0,1,14.11377,2.81152,22.45373,22.45373,0,0,1,9.72754,8.041,21.09874,21.09874,0,0,1,3.48632,11.97656q0,1.0122-.22461,3.26172l-.11279.5625a2.40171,2.40171,0,0,1-.731,1.57422,2.17154,2.17154,0,0,1-1.51806.5625H410.376q-2.13722,0-1.91162-.89942l.1123-.90039a7.5012,7.5012,0,0,0-2.30518-6.1289q-2.644-2.75391-7.5913-2.75489a9.94184,9.94184,0,0,0-5.96045,1.63086,5.195,5.195,0,0,0-2.249,4.44141q0,2.58837,2.98,4.33008a70.10416,70.10416,0,0,0,11.30225,4.55468q.89868.33691,6.9165,2.30567a22.21048,22.21048,0,0,1,10.065,6.63476,16.50746,16.50746,0,0,1,4.04882,11.19043,24.74142,24.74142,0,0,1-4.21728,14.28223,27.80016,27.80016,0,0,1-11.6958,9.61523,39.85964,39.85964,0,0,1-16.813,3.42969Q380.68506,269.00781,373.37646,263.04785Z" transform="translate(0 0.49878)"/><circle class="b9f64c47-552b-4dfe-af87-4bcf05aacb83" cx="939.44572" cy="170.58894" r="148.10309"/><path class="839d43fa-bbcc-4353-83da-0b981fa327d4" d="M949.75741,274.26138H929.13514a3.41029,3.41029,0,0,1-2.04315-.67994c-4.22051-3.16233-103.36315-77.9946-103.36315-126.52881a59.85225,59.85225,0,0,1,70.73821-58.8021,3.40778,3.40778,0,0,1-1.24009,6.7018,53.03417,53.03417,0,0,0-62.68319,52.1003c0,42.84623,89.74327,112.74366,99.73939,120.39382h19.47425a3.40746,3.40746,0,0,1,0,6.81493Z" transform="translate(0 0.49878)"/><path class="23ffaa0b-1ff2-4179-8a7a-670d7380ebcd" d="M995.36159,90.65917a56.30469,56.30469,0,0,0-45.60451,23.23506A56.38648,56.38648,0,0,0,847.759,147.05274c0,47.38764,101.99808,123.80122,101.99808,123.80122s101.99808-76.41358,101.99808-123.80122A56.39355,56.39355,0,0,0,995.36159,90.65917Z" transform="translate(0 0.49878)"/><path class="caae6e8c-81ec-4dd4-9b74-359e8a99d1b8" d="M949.75741,274.26138a3.40231,3.40231,0,0,1-2.04315-.67994c-4.22051-3.16233-103.36315-77.9946-103.36315-126.52881a59.79046,59.79046,0,0,1,105.4063-38.66344,59.7897,59.7897,0,0,1,105.40518,38.66344c0,48.53421-99.14152,123.36648-103.362,126.52881A3.40235,3.40235,0,0,1,949.75741,274.26138ZM904.15259,94.06719A53.04628,53.04628,0,0,0,851.166,147.05263c0,18.44047,17.28247,45.14893,49.9784,77.23923a578.6057,578.6057,0,0,0,48.613,42.27388A578.90634,578.90634,0,0,0,998.42029,224.242c32.66265-32.06812,49.92737-58.75884,49.92737-77.18932a52.979,52.979,0,0,0-95.83611-31.15193,3.40771,3.40771,0,0,1-5.50829,0A53.1898,53.1898,0,0,0,904.15259,94.06719Z" transform="translate(0 0.49878)"/><path class="c2a67819-a378-4880-bb64-ba19275f2104" d="M928.21006,197.17633c-.05768,0-.11425-.00111-.17192-.00444a3.40723,3.40723,0,0,1-3.098-2.44246l-12.18458-41.473-7.56808,16.65022a3.40787,3.40787,0,0,1-3.10244,1.99767H885.89958a3.40747,3.40747,0,1,1,0-6.81493H899.891l10.44979-22.99042a3.40757,3.40757,0,0,1,6.37125.44923l12.016,40.90069,6.5465-16.09451a3.40824,3.40824,0,0,1,3.15679-2.123h19.025a3.40747,3.40747,0,1,1,0,6.81493h-16.7323l-9.35833,23.00705A3.409,3.409,0,0,1,928.21006,197.17633Z" transform="translate(0 0.49878)"/><path class="c2a67819-a378-4880-bb64-ba19275f2104" d="M986.78144,197.31608c-.05768,0-.11425-.0011-.17193-.00443a3.40725,3.40725,0,0,1-3.098-2.44246l-12.18457-41.473-7.56808,16.65022a3.40788,3.40788,0,0,1-3.10244,1.99767H944.471a3.40747,3.40747,0,0,1,0-6.81493h13.99147l10.44979-22.99042a3.40757,3.40757,0,0,1,6.37125.44923l12.016,40.90069,6.5465-16.09451a3.40824,3.40824,0,0,1,3.15679-2.123h19.025a3.40747,3.40747,0,1,1,0,6.81493h-16.7323l-9.35833,23.007A3.409,3.409,0,0,1,986.78144,197.31608Z" transform="translate(0 0.49878)"/><circle class="b9f64c47-552b-4dfe-af87-4bcf05aacb83" cx="939.44572" cy="170.58894" r="148.10309"/><polygon class="b9f64c47-552b-4dfe-af87-4bcf05aacb83" points="841.84 103.062 885.064 103.062 890.482 108.961 850.188 108.961 841.84 103.062"/><path class="839d43fa-bbcc-4353-83da-0b981fa327d4" d="M890.48211,110.46933H850.34805a2.08774,2.08774,0,0,1-1.1638-.3612l-8.34795-5.89971a2.00674,2.00674,0,0,1,1.1638-3.65221h43.064a2.04722,2.04722,0,0,1,1.48494.64216l5.418,5.89971a2.01069,2.01069,0,0,1-1.48494,3.37125Zm-39.65247-4.01341h35.07713l-1.72573-1.88631H848.06038Z" transform="translate(0 0.49878)"/><circle class="b9f64c47-552b-4dfe-af87-4bcf05aacb83" cx="864.43511" cy="198.42025" r="36.84307"/><path class="1c133e0b-67a9-449f-909c-59cc2c81a91e" d="M864.43515,236.77122a38.84981,38.84981,0,1,1,38.84974-38.84987v.00013A38.89,38.89,0,0,1,864.43515,236.77122Zm0-73.646a34.8364,34.8364,0,1,0,34.83633,34.83634v-.04005A34.87637,34.87637,0,0,0,864.43515,163.12519Z" transform="translate(0 0.49878)"/><polygon class="b9f64c47-552b-4dfe-af87-4bcf05aacb83" points="858.535 168.4 850.188 163.985 841.84 103.062 850.188 108.961 858.535 168.4"/><path class="1c133e0b-67a9-449f-909c-59cc2c81a91e" d="M858.53556,169.90786a1.8467,1.8467,0,0,1-.923-.2408l-8.348-4.41477a2.00675,2.00675,0,0,1-1.04352-1.48494l-8.348-60.92347a2.00671,2.00671,0,0,1,.923-2.0067,2.08685,2.08685,0,0,1,2.20732,0l8.348,5.89971a2.0466,2.0466,0,0,1,.8429,1.36454l8.348,59.43853a2.00673,2.00673,0,0,1-.8429,1.92648A2.08735,2.08735,0,0,1,858.53556,169.90786Zm-6.5017-7.74585,4.01341,2.1271-7.6655-54.70274-4.01341-2.72909Z" transform="translate(0 0.49878)"/><circle class="b9f64c47-552b-4dfe-af87-4bcf05aacb83" cx="872.30138" cy="202.79486" r="36.84307"/><path class="a1e0e85a-dfaa-47dc-a57a-d62373efbfc5" d="M872.30151,241.14582A38.84981,38.84981,0,1,1,911.15125,202.296v.00012A38.88994,38.88994,0,0,1,872.30151,241.14582Zm0-73.6862a34.8364,34.8364,0,1,0,34.83634,34.83645V202.296a34.83625,34.83625,0,0,0-34.83634-34.83621Z" transform="translate(0 0.49878)"/><path class="c2a67819-a378-4880-bb64-ba19275f2104" d="M872.50213,188.12876a11.35926,11.35926,0,0,1,4.01341.602,8.46623,8.46623,0,0,1,2.92971,1.72574,7.34545,7.34545,0,0,1,1.84625,2.64886,8.99226,8.99226,0,0,1,.642,3.37125,9.47811,9.47811,0,0,1-.44142,2.88965,13.6931,13.6931,0,0,1-1.204,2.56864,19.45857,19.45857,0,0,1-1.80608,2.3679l-2.16715,2.28767-5.61887,5.73914,2.12722-.48159a12.04374,12.04374,0,0,1,2.00671-.20062h5.37807a2.08717,2.08717,0,0,1,1.52511.56193,1.80543,1.80543,0,0,1,.60211,1.40472v3.572h-20.067v-1.96653a3.56878,3.56878,0,0,1,.2408-1.24414,2.89026,2.89026,0,0,1,.8429-1.16393l8.26761-8.34783a26.56922,26.56922,0,0,0,1.84625-2.04687,12.52937,12.52937,0,0,0,1.32449-1.88631,10.30762,10.30762,0,0,0,.76256-1.8863,8.02721,8.02721,0,0,0,.2408-1.96653,3.73217,3.73217,0,0,0-.80273-2.64887,3.2106,3.2106,0,0,0-2.4883-.92312,4.29476,4.29476,0,0,0-1.28432.20062,3.719,3.719,0,0,0-1.80608,1.32449,7.3381,7.3381,0,0,0-.52176.96318,2.60831,2.60831,0,0,1-.80273,1.28432,1.84547,1.84547,0,0,1-1.28432.40136h-.88283l-3.25085-.56193a10.236,10.236,0,0,1,1.204-3.73244,9.23007,9.23007,0,0,1,2.2475-2.689,8.02763,8.02763,0,0,1,3.05023-1.56528A12.0403,12.0403,0,0,1,872.50213,188.12876Z" transform="translate(0 0.49878)"/><polygon class="b9f64c47-552b-4dfe-af87-4bcf05aacb83" points="885.064 168.4 890.482 108.961 850.188 108.961 858.535 168.4 885.064 168.4"/><path class="a1e0e85a-dfaa-47dc-a57a-d62373efbfc5" d="M885.06411,169.90786H858.53556a1.96649,1.96649,0,0,1-1.96653-1.72574l-8.34795-59.43853a1.95417,1.95417,0,0,1,1.96653-2.28767h40.13406a2.08661,2.08661,0,0,1,1.48494.64216,2.12769,2.12769,0,0,1,.52176,1.52511l-5.25755,59.43854A2.00671,2.00671,0,0,1,885.06411,169.90786Zm-24.76264-4.01341H883.2181l5.05693-55.42512H852.51569Z" transform="translate(0 0.49878)"/><polygon class="b9f64c47-552b-4dfe-af87-4bcf05aacb83" points="983.994 103.062 1027.219 103.062 1032.637 108.961 992.342 108.961 983.994 103.062"/><path class="839d43fa-bbcc-4353-83da-0b981fa327d4" d="M1032.63713,110.46933H992.50307a2.08771,2.08771,0,0,1-1.1638-.3612l-8.348-5.89971a2.00674,2.00674,0,0,1,1.1638-3.65221h43.22446a2.08659,2.08659,0,0,1,1.48494.64216l5.418,5.89971a2.04709,2.04709,0,0,1,.32114,2.16727A2.00691,2.00691,0,0,1,1032.63713,110.46933Zm-39.65247-4.01341h35.07713l-1.72574-1.88631H990.2154Z" transform="translate(0 0.49878)"/><circle class="b9f64c47-552b-4dfe-af87-4bcf05aacb83" cx="1006.58995" cy="198.42025" r="36.84307"/><path class="1c133e0b-67a9-449f-909c-59cc2c81a91e" d="M1006.59017,236.77122a38.84981,38.84981,0,1,1,38.84974-38.84987v.00013A38.89,38.89,0,0,1,1006.59017,236.77122Zm0-73.646a34.8364,34.8364,0,1,0,34.83633,34.83634v-.04005A34.83639,34.83639,0,0,0,1006.59017,163.12519Z" transform="translate(0 0.49878)"/><polygon class="b9f64c47-552b-4dfe-af87-4bcf05aacb83" points="1000.69 168.4 992.342 163.985 983.994 103.062 992.342 108.961 1000.69 168.4"/><path class="1c133e0b-67a9-449f-909c-59cc2c81a91e" d="M1000.69033,169.90786a1.84666,1.84666,0,0,1-.923-.2408l-8.348-4.41477a2.0467,2.0467,0,0,1-1.08369-1.48494l-8.348-60.92347a2.12686,2.12686,0,0,1,.96318-2.0067,2.08685,2.08685,0,0,1,2.20732,0l8.348,5.89971a2.04657,2.04657,0,0,1,.8429,1.36454l8.348,59.43853a2.00689,2.00689,0,0,1-2.0067,2.28767Zm-6.5017-7.74585,4.01341,2.1271-7.70567-54.70274-4.01341-2.72909Z" transform="translate(0 0.49878)"/><circle class="b9f64c47-552b-4dfe-af87-4bcf05aacb83" cx="1014.45622" cy="202.79486" r="36.84307"/><path class="a1e0e85a-dfaa-47dc-a57a-d62373efbfc5" d="M1014.45628,241.14582A38.84981,38.84981,0,1,1,1053.306,202.296v.00012A38.89,38.89,0,0,1,1014.45628,241.14582Zm0-73.6862a34.8364,34.8364,0,1,0,34.83634,34.83645V202.296a34.83625,34.83625,0,0,0-34.83634-34.83621Z" transform="translate(0 0.49878)"/><path class="c2a67819-a378-4880-bb64-ba19275f2104" d="M1015.17867,188.12876a11.197,11.197,0,0,1,4.0134.602,8.5087,8.5087,0,0,1,2.76926,1.60534,7.18162,7.18162,0,0,1,1.76591,2.3679,7.06561,7.06561,0,0,1,.56194,2.84948,10.59457,10.59457,0,0,1-.2408,2.40807,6.21877,6.21877,0,0,1-.8429,1.80608,5.05729,5.05729,0,0,1-1.32449,1.28432,8.71042,8.71042,0,0,1-1.84626.88295,6.38141,6.38141,0,0,1,4.776,6.5017,9.35,9.35,0,0,1-.80273,4.01341,8.34757,8.34757,0,0,1-2.2475,2.84948,10.63594,10.63594,0,0,1-3.21068,1.68569,13.56823,13.56823,0,0,1-4.0134.56193,13.88348,13.88348,0,0,1-3.61217-.44141,8.22827,8.22827,0,0,1-2.8496-1.40472,8.9503,8.9503,0,0,1-2.20733-2.3679,17.61071,17.61071,0,0,1-1.60546-3.49164l2.72909-1.12375.68221-.20062h.68221a2.44884,2.44884,0,0,1,1.12387.24079,1.48558,1.48558,0,0,1,.76256.72239,7.50243,7.50243,0,0,0,1.88618,2.36789,4.013,4.013,0,0,0,2.368.72239,4.77762,4.77762,0,0,0,1.76591-.321,4.29388,4.29388,0,0,0,1.28432-.883,4.01186,4.01186,0,0,0,.72238-1.24414,3.49041,3.49041,0,0,0,.281-1.40472,11.12781,11.12781,0,0,0,0-1.68568,2.327,2.327,0,0,0-.72239-1.24415,4.01252,4.01252,0,0,0-1.80608-.84278,17.09691,17.09691,0,0,0-3.33119-.281v-4.214a12.04208,12.04208,0,0,0,2.9297-.281,4.69771,4.69771,0,0,0,1.68557-.76256,2.287,2.287,0,0,0,.80273-1.16392,6.11063,6.11063,0,0,0,0-1.52512,4.01392,4.01392,0,0,0-.80273-2.60869,3.29107,3.29107,0,0,0-2.52847-.92312,4.0121,4.0121,0,0,0-1.24415.20062,4.21249,4.21249,0,0,0-1.04352.52176,3.61081,3.61081,0,0,0-.76256.80273,3.21338,3.21338,0,0,0-.52176.96318,2.60831,2.60831,0,0,1-.80273,1.28432,1.92643,1.92643,0,0,1-1.32449.40136h-.88283l-3.25085-.56193a11.03829,11.03829,0,0,1,1.24414-3.73244,9.11187,9.11187,0,0,1,2.20733-2.689,8.46893,8.46893,0,0,1,3.05023-1.56528A12.23989,12.23989,0,0,1,1015.17867,188.12876Z" transform="translate(0 0.49878)"/><polygon class="b9f64c47-552b-4dfe-af87-4bcf05aacb83" points="1027.219 168.4 1032.637 108.961 992.342 108.961 1000.69 168.4 1027.219 168.4"/><path class="a1e0e85a-dfaa-47dc-a57a-d62373efbfc5" d="M1027.21889,169.90786h-26.52856a2.0468,2.0468,0,0,1-2.0067-1.72574l-8.34795-59.43853a2.1269,2.1269,0,0,1,.48158-1.60534,2.00675,2.00675,0,0,1,1.52512-.68233h40.13406a2.08661,2.08661,0,0,1,1.48494.64216,1.96657,1.96657,0,0,1,.48159,1.52511l-5.21738,59.43854A2.00671,2.00671,0,0,1,1027.21889,169.90786Zm-24.76265-4.01341h23.07708l5.05694-55.42512H994.83092Z" transform="translate(0 0.49878)"/><polygon class="b9f64c47-552b-4dfe-af87-4bcf05aacb83" points="912.235 90.62 962.764 90.62 969.105 97.523 921.987 97.523 912.235 90.62"/><path class="839d43fa-bbcc-4353-83da-0b981fa327d4" d="M969.10485,99.31206H921.9875a2.16711,2.16711,0,0,1-1.32449-.40136l-9.79272-6.90307a2.28768,2.28768,0,0,1,1.32449-4.0134H962.7636a2.20733,2.20733,0,0,1,1.68556.76255l6.34125,6.86289a2.36814,2.36814,0,0,1,.40124,2.4883A2.28793,2.28793,0,0,1,969.10485,99.31206Zm-46.395-4.57534h41.13741l-2.08705-2.28767H919.459Z" transform="translate(0 0.49878)"/><circle class="b9f64c47-552b-4dfe-af87-4bcf05aacb83" cx="938.64298" cy="202.19284" r="43.10397"/><path class="1c133e0b-67a9-449f-909c-59cc2c81a91e" d="M938.643,247.04553a45.39162,45.39162,0,1,1,45.39161-45.39161v.04017A45.43172,45.43172,0,0,1,938.643,247.04553Zm0-86.16783a40.81635,40.81635,0,1,0,40.77609,40.85656v-.04017A40.85654,40.85654,0,0,0,938.643,160.8777Z" transform="translate(0 0.49878)"/><polygon class="b9f64c47-552b-4dfe-af87-4bcf05aacb83" points="931.74 167.035 921.987 161.858 912.235 90.62 921.987 97.523 931.74 167.035"/><path class="1c133e0b-67a9-449f-909c-59cc2c81a91e" d="M931.74005,168.82428a2.64859,2.64859,0,0,1-1.0837-.24079l-9.75255-5.17733a2.44838,2.44838,0,0,1-1.204-1.72573l-9.75255-71.238a2.28766,2.28766,0,0,1,3.61216-2.16727l9.75255,6.86289a2.48818,2.48818,0,0,1,.96318,1.56528l9.75255,69.51222a2.2875,2.2875,0,0,1-2.28767,2.60869Zm-7.62557-8.94994,4.73579,2.52847-8.99-64.2145-4.65545-3.291Z" transform="translate(0 0.49878)"/><circle class="b9f64c47-552b-4dfe-af87-4bcf05aacb83" cx="947.83369" cy="207.24974" r="43.10397"/><path class="a1e0e85a-dfaa-47dc-a57a-d62373efbfc5" d="M947.83384,252.34325a45.43171,45.43171,0,1,1,.32163,0Q947.99454,252.3438,947.83384,252.34325Zm0-86.16783a40.81635,40.81635,0,1,0,40.7761,40.85657v-.08035a40.81642,40.81642,0,0,0-40.65558-40.9766l-.12052-.00024Z" transform="translate(0 0.49878)"/><path class="c2a67819-a378-4880-bb64-ba19275f2104" d="M939.96748,219.19248H946.429V199.64721l-3.81278,3.13045a2.32858,2.32858,0,0,1-.72238.44142h-.72239a2.40689,2.40689,0,0,1-1.0837-.24079,2.08612,2.08612,0,0,1-.68221-.602l-2.28767-2.96988,10.47493-8.78937h5.93977v28.455h5.53852v5.17733h-19.1842Z" transform="translate(0 0.49878)"/><polygon class="b9f64c47-552b-4dfe-af87-4bcf05aacb83" points="962.764 167.035 969.105 97.523 921.987 97.523 931.74 167.035 962.764 167.035"/><path class="a1e0e85a-dfaa-47dc-a57a-d62373efbfc5" d="M962.7636,168.82428H931.74005a2.32788,2.32788,0,0,1-2.28768-1.96653l-9.75254-69.51222a2.2878,2.2878,0,0,1,.56193-1.80608,2.16726,2.16726,0,0,1,1.72574-.80273h47.11735a2.28761,2.28761,0,0,1,1.68556.76256,2.24748,2.24748,0,0,1,.60211,1.72573l-6.34125,69.51222A2.2877,2.2877,0,0,1,962.7636,168.82428Zm-29.01685-4.57534h26.93l5.89959-64.93688H924.63624Z" transform="translate(0 0.49878)"/><line class="cebc1afb-fe12-4cac-9354-7af2a83966d0" y1="0.5" x2="1190.55118" y2="0.5"/><line class="cebc1afb-fe12-4cac-9354-7af2a83966d0" y1="340.65748" x2="1190.55118" y2="340.65748"/></svg>