<svg id="752d90f9-cccb-4a7e-859f-679ad6e6c1a3" data-name="Layer 1" xmlns="http://www.w3.org/2000/svg" viewBox="0 0 1007.44055 197.11487"><defs><style>.aafd34c6-646b-4a92-85dc-50f0d4e9c0d5{fill:none;stroke:#00e8e8;}.aafd34c6-646b-4a92-85dc-50f0d4e9c0d5,.ab695ea5-b9fb-4606-ae3a-8e19c91d6120{stroke-miterlimit:10;stroke-width:22px;}.ab695ea5-b9fb-4606-ae3a-8e19c91d6120{fill:#fff;stroke:#e71d73;}.a2b8de20-e1e7-456d-b209-3940087aacaa{fill:#3c3c3b;}</style></defs><title>rhg</title><rect class="aafd34c6-646b-4a92-85dc-50f0d4e9c0d5" x="11" y="29.11975" width="967.3208" height="156.99512"/><rect class="ab695ea5-b9fb-4606-ae3a-8e19c91d6120" x="29.11975" y="11" width="967.3208" height="156.99512"/><path class="a2b8de20-e1e7-456d-b209-3940087aacaa" d="M197.80566,197.0166l-9.51025-21.92578a.81384.81384,0,0,0-.88037-.52832h-3.16992a.62243.62243,0,0,0-.70459.7041v21.30957a1.479,1.479,0,0,1-1.67285,1.67285h-13.2085a1.47841,1.47841,0,0,1-1.67285-1.67285V138.28369a1.4788,1.4788,0,0,1,1.67285-1.67285h26.32861a21.70331,21.70331,0,0,1,10.52246,2.46533,17.5641,17.5641,0,0,1,7.04444,6.9126,20.5146,20.5146,0,0,1,2.50927,10.2583,18.14913,18.14913,0,0,1-2.77343,10.03809,16.76131,16.76131,0,0,1-7.70508,6.42773.59307.59307,0,0,0-.35205.88086l10.74267,22.71777a1.97192,1.97192,0,0,1,.17627.88086q0,1.05615-1.40918,1.05664H199.74268A1.92951,1.92951,0,0,1,197.80566,197.0166Zm-14.26513-45.52441v9.77392a.622.622,0,0,0,.70459.70459h8.01269a6.70069,6.70069,0,0,0,4.5791-1.541,5.07356,5.07356,0,0,0,1.76123-4.00635,5.17567,5.17567,0,0,0-1.76123-4.09473,6.70792,6.70792,0,0,0-4.5791-1.541h-8.01269A.62258.62258,0,0,0,183.54053,151.49219Z" transform="translate(-82.04382 -76.7666)"/><path class="a2b8de20-e1e7-456d-b209-3940087aacaa" d="M264.10986,150.7876H238.398a.62258.62258,0,0,0-.70459.70459v7.74853a.622.622,0,0,0,.70459.70459h15.67383a1.47938,1.47938,0,0,1,1.67285,1.67285v10.74317a1.479,1.479,0,0,1-1.67285,1.67285H238.398a.62243.62243,0,0,0-.70459.7041v8.62988a.622.622,0,0,0,.70459.70411h25.71191a1.47938,1.47938,0,0,1,1.67285,1.67285v10.83105a1.479,1.479,0,0,1-1.67285,1.67285H222.812a1.47841,1.47841,0,0,1-1.67285-1.67285V138.28369a1.4788,1.4788,0,0,1,1.67285-1.67285h41.29785a1.47938,1.47938,0,0,1,1.67285,1.67285v10.83106A1.4788,1.4788,0,0,1,264.10986,150.7876Z" transform="translate(-82.04382 -76.7666)"/><path class="a2b8de20-e1e7-456d-b209-3940087aacaa" d="M281.63135,196.53223a19.22871,19.22871,0,0,1-8.45313-6.91211,18.29221,18.29221,0,0,1-2.99365-10.39063v-.88086a1.4788,1.4788,0,0,1,1.67285-1.67285h12.94385q1.67212,0,1.67334.88086v.96777a5.45107,5.45107,0,0,0,2.55371,4.31543,10.32422,10.32422,0,0,0,6.42773,1.93653q3.25635,0,4.667-1.36426a4.15288,4.15288,0,0,0,1.40869-3.03809,3.12862,3.12862,0,0,0-1.76123-2.90625,37.97936,37.97936,0,0,0-6.42774-2.37695l-2.55371-.7041a47.04745,47.04745,0,0,1-14.6167-7.04492q-5.90039-4.40186-5.8999-12.76758a16.67938,16.67938,0,0,1,2.99365-9.81836,19.15337,19.15337,0,0,1,8.2334-6.56006,29.06413,29.06413,0,0,1,11.75537-2.28955A29.66165,29.66165,0,0,1,305.71436,138.46a21.04309,21.04309,0,0,1,8.80566,7.2207,18.33932,18.33932,0,0,1,3.21387,10.6543v.44043a1.4788,1.4788,0,0,1-1.67285,1.67285H303.1167q-1.67358,0-1.67285-.7041v-.70459a6.38991,6.38991,0,0,0-2.37744-4.79883,9.20664,9.20664,0,0,0-6.42823-2.15771,7.62051,7.62051,0,0,0-4.44677,1.145,3.66091,3.66091,0,0,0-1.62891,3.16992,3.52122,3.52122,0,0,0,1.189,2.68555,12.29879,12.29879,0,0,0,3.6543,2.11328q2.46387,1.01367,7.57227,2.59765.70386.2644,6.208,1.89307a19.09233,19.09233,0,0,1,9.20166,5.8999,15.263,15.263,0,0,1,3.69824,10.34619,17.17019,17.17019,0,0,1-2.99365,10.03809,19.15931,19.15931,0,0,1-8.40918,6.64844,31.24214,31.24214,0,0,1-12.46,2.333A30.77382,30.77382,0,0,1,281.63135,196.53223Z" transform="translate(-82.04382 -76.7666)"/><path class="a2b8de20-e1e7-456d-b209-3940087aacaa" d="M371.27,138.28369v10.91895a1.479,1.479,0,0,1-1.67334,1.67285H355.41992a.62243.62243,0,0,0-.7041.70459v44.99609a1.47914,1.47914,0,0,1-1.67334,1.67285h-13.208a1.47875,1.47875,0,0,1-1.67334-1.67285V151.58008a.62282.62282,0,0,0-.7041-.70459H323.72021a1.47822,1.47822,0,0,1-1.67285-1.67285V138.28369a1.4788,1.4788,0,0,1,1.67285-1.67285h45.87647A1.47953,1.47953,0,0,1,371.27,138.28369Z" transform="translate(-82.04382 -76.7666)"/><path class="a2b8de20-e1e7-456d-b209-3940087aacaa" d="M376.2876,196.57617V138.28369a1.4788,1.4788,0,0,1,1.67285-1.67285H391.169a1.47938,1.47938,0,0,1,1.67285,1.67285v58.29248A1.479,1.479,0,0,1,391.169,198.249h-13.2085A1.47841,1.47841,0,0,1,376.2876,196.57617Z" transform="translate(-82.04382 -76.7666)"/><path class="a2b8de20-e1e7-456d-b209-3940087aacaa" d="M399.70947,196.57617V138.28369a1.4788,1.4788,0,0,1,1.67285-1.67285H414.0625a2.12731,2.12731,0,0,1,2.02539,1.14453l17.34668,29.14649a.7087.7087,0,0,0,.52832.352c.23389,0,.352-.20508.352-.61621l-.08789-28.354a1.4788,1.4788,0,0,1,1.67285-1.67285h13.208a1.47953,1.47953,0,0,1,1.67334,1.67285v58.29248a1.47914,1.47914,0,0,1-1.67334,1.67285H436.42822a2.12157,2.12157,0,0,1-2.02539-1.14453l-17.43457-29.67431q-.26441-.44019-.57226-.39649c-.20655.03027-.30811.22022-.30811.57227l.17578,28.97021a1.479,1.479,0,0,1-1.67285,1.67285h-13.2085A1.47841,1.47841,0,0,1,399.70947,196.57617Z" transform="translate(-82.04382 -76.7666)"/><path class="a2b8de20-e1e7-456d-b209-3940087aacaa" d="M468.43506,196.04785a20.87769,20.87769,0,0,1-8.541-8.18945A23.937,23.937,0,0,1,456.856,175.707V159.06494a23.69652,23.69652,0,0,1,3.03808-12.10742,20.9677,20.9677,0,0,1,8.541-8.14551,26.85063,26.85063,0,0,1,12.72412-2.90576,27.77654,27.77654,0,0,1,12.5918,2.77393,21.11222,21.11222,0,0,1,8.585,7.5288,18.92173,18.92173,0,0,1,3.03808,10.39014q0,1.40991-1.67285,1.40918H490.58105q-1.67432,0-1.67334-.44043v-.352a6.93291,6.93291,0,0,0-2.06933-5.01953,7.58539,7.58539,0,0,0-5.6792-2.11328,7.23585,7.23585,0,0,0-5.63574,2.33349,8.89734,8.89734,0,0,0-2.11328,6.208v17.61084a8.20935,8.20935,0,0,0,8.45312,8.541,7.80955,7.80955,0,0,0,5.32764-1.80469,6.25946,6.25946,0,0,0,2.06933-4.97559v-.87988a.62331.62331,0,0,0-.70459-.70508h-7.13232a1.47817,1.47817,0,0,1-1.67334-1.67285v-9.86182a1.47911,1.47911,0,0,1,1.67334-1.67334h22.27783a1.47954,1.47954,0,0,1,1.67285,1.67334v11.71143a22.29255,22.29255,0,0,1-3.03808,11.62305,20.64376,20.64376,0,0,1-8.541,7.9248,27.33828,27.33828,0,0,1-12.63574,2.81738A26.85616,26.85616,0,0,1,468.43506,196.04785Z" transform="translate(-82.04382 -76.7666)"/><path class="a2b8de20-e1e7-456d-b209-3940087aacaa" d="M561.63916,136.61084h13.2085a1.47938,1.47938,0,0,1,1.67285,1.67285v58.29248a1.479,1.479,0,0,1-1.67285,1.67285h-13.2085a1.47841,1.47841,0,0,1-1.67285-1.67285v-21.75a.623.623,0,0,0-.70459-.7041h-13.208a.62243.62243,0,0,0-.70459.7041v21.75a1.479,1.479,0,0,1-1.67285,1.67285h-13.2085a1.47841,1.47841,0,0,1-1.67285-1.67285V138.28369a1.4788,1.4788,0,0,1,1.67285-1.67285h13.2085a1.47938,1.47938,0,0,1,1.67285,1.67285v20.957a.622.622,0,0,0,.70459.70459h13.208a.62258.62258,0,0,0,.70459-.70459v-20.957A1.4788,1.4788,0,0,1,561.63916,136.61084Z" transform="translate(-82.04382 -76.7666)"/><path class="a2b8de20-e1e7-456d-b209-3940087aacaa" d="M625.56641,150.7876H599.85352a.62233.62233,0,0,0-.70313.70459v7.74853a.62174.62174,0,0,0,.70313.70459h15.67382a1.47969,1.47969,0,0,1,1.67383,1.67285v10.74317a1.4793,1.4793,0,0,1-1.67383,1.67285H599.85352a.62217.62217,0,0,0-.70313.7041v8.62988a.62179.62179,0,0,0,.70313.70411h25.71289a1.47968,1.47968,0,0,1,1.67382,1.67285v10.83105a1.47929,1.47929,0,0,1-1.67382,1.67285H584.26855a1.47841,1.47841,0,0,1-1.67285-1.67285V138.28369a1.4788,1.4788,0,0,1,1.67285-1.67285h41.29786a1.47968,1.47968,0,0,1,1.67382,1.67285v10.83106A1.4791,1.4791,0,0,1,625.56641,150.7876Z" transform="translate(-82.04382 -76.7666)"/><path class="a2b8de20-e1e7-456d-b209-3940087aacaa" d="M672.49805,196.83984,670.7373,190.5a.76247.76247,0,0,0-.793-.61621H651.62891a.76013.76013,0,0,0-.792.61621l-1.76074,6.33984a1.71655,1.71655,0,0,1-1.84961,1.40918H632.96191a1.49179,1.49179,0,0,1-1.27734-.52832,1.52588,1.52588,0,0,1-.13184-1.40918l18.31543-58.292a1.79573,1.79573,0,0,1,1.84961-1.40869h18.13868a1.79853,1.79853,0,0,1,1.8496,1.40869l18.31543,58.292a1.99132,1.99132,0,0,1,.0879.61621q0,1.32129-1.49708,1.32129H674.34766A1.71467,1.71467,0,0,1,672.49805,196.83984Zm-17.78711-20.252a.5444.5444,0,0,0,.61621.61621h10.91894a.63576.63576,0,0,0,.52832-.2207.628.628,0,0,0,.08789-.57227l-5.63476-20.34033q-.08935-.43945-.39649-.43994-.30908,0-.48437.43994l-5.63574,20.34033Z" transform="translate(-82.04382 -76.7666)"/><path class="a2b8de20-e1e7-456d-b209-3940087aacaa" d="M726.47461,197.0166l-9.50977-21.92578a.81411.81411,0,0,0-.88086-.52832h-3.16992a.62247.62247,0,0,0-.7041.7041v21.30957a1.479,1.479,0,0,1-1.67285,1.67285h-13.208a1.47821,1.47821,0,0,1-1.67285-1.67285V138.28369a1.4786,1.4786,0,0,1,1.67285-1.67285h26.32813a21.70334,21.70334,0,0,1,10.52246,2.46533,17.55977,17.55977,0,0,1,7.04394,6.9126,20.5046,20.5046,0,0,1,2.50977,10.2583A18.15317,18.15317,0,0,1,740.96,166.28516a16.76377,16.76377,0,0,1-7.70508,6.42773.59263.59263,0,0,0-.35156.88086l10.74219,22.71777a1.96551,1.96551,0,0,1,.17578.88086q0,1.05615-1.4082,1.05664h-14.001A1.931,1.931,0,0,1,726.47461,197.0166ZM712.21,151.49219v9.77392a.622.622,0,0,0,.7041.70459h8.01367a6.69813,6.69813,0,0,0,4.57813-1.541,5.07242,5.07242,0,0,0,1.76172-4.00635,5.17449,5.17449,0,0,0-1.76172-4.09473,6.70535,6.70535,0,0,0-4.57813-1.541h-8.01367A.62263.62263,0,0,0,712.21,151.49219Z" transform="translate(-82.04382 -76.7666)"/><path class="a2b8de20-e1e7-456d-b209-3940087aacaa" d="M797.00586,138.28369v10.91895a1.4788,1.4788,0,0,1-1.67285,1.67285H781.15625a.62293.62293,0,0,0-.70508.70459v44.99609a1.479,1.479,0,0,1-1.67285,1.67285h-13.208a1.47821,1.47821,0,0,1-1.67285-1.67285V151.58008a.62331.62331,0,0,0-.70508-.70459H749.45605a1.47841,1.47841,0,0,1-1.67285-1.67285V138.28369a1.479,1.479,0,0,1,1.67285-1.67285h45.877A1.47938,1.47938,0,0,1,797.00586,138.28369Z" transform="translate(-82.04382 -76.7666)"/><path class="a2b8de20-e1e7-456d-b209-3940087aacaa" d="M850.45312,197.0166l-9.50976-21.92578a.81411.81411,0,0,0-.88086-.52832h-3.16992a.62247.62247,0,0,0-.7041.7041v21.30957a1.479,1.479,0,0,1-1.67286,1.67285h-13.208a1.47821,1.47821,0,0,1-1.67285-1.67285V138.28369a1.4786,1.4786,0,0,1,1.67285-1.67285h26.32812a21.70331,21.70331,0,0,1,10.52246,2.46533,17.5598,17.5598,0,0,1,7.04395,6.9126,20.5046,20.5046,0,0,1,2.50976,10.2583,18.15316,18.15316,0,0,1-2.77343,10.03809,16.76377,16.76377,0,0,1-7.70508,6.42773.59263.59263,0,0,0-.35156.88086L867.624,196.31152a1.96551,1.96551,0,0,1,.17578.88086q0,1.05615-1.4082,1.05664h-14.001A1.931,1.931,0,0,1,850.45312,197.0166Zm-14.26464-45.52441v9.77392a.622.622,0,0,0,.7041.70459h8.01367a6.69813,6.69813,0,0,0,4.57813-1.541,5.07244,5.07244,0,0,0,1.76171-4.00635,5.17452,5.17452,0,0,0-1.76171-4.09473,6.70535,6.70535,0,0,0-4.57813-1.541h-8.01367A.62262.62262,0,0,0,836.18848,151.49219Z" transform="translate(-82.04382 -76.7666)"/><path class="a2b8de20-e1e7-456d-b209-3940087aacaa" d="M913.499,196.83984,911.73828,190.5a.76248.76248,0,0,0-.793-.61621H892.62988a.76012.76012,0,0,0-.792.61621l-1.76074,6.33984a1.71655,1.71655,0,0,1-1.84961,1.40918H873.96289a1.49179,1.49179,0,0,1-1.27734-.52832,1.52588,1.52588,0,0,1-.13184-1.40918l18.31543-58.292a1.79573,1.79573,0,0,1,1.84961-1.40869h18.13867a1.79854,1.79854,0,0,1,1.84961,1.40869l18.31543,58.292a1.99133,1.99133,0,0,1,.08789.61621q0,1.32129-1.49707,1.32129H915.34863A1.71468,1.71468,0,0,1,913.499,196.83984Zm-17.78711-20.252a.5444.5444,0,0,0,.61621.61621h10.91895a.63576.63576,0,0,0,.52832-.2207.628.628,0,0,0,.08789-.57227l-5.63476-20.34033q-.08935-.43945-.39649-.43994-.30908,0-.48437.43994l-5.63575,20.34033Z" transform="translate(-82.04382 -76.7666)"/><path class="a2b8de20-e1e7-456d-b209-3940087aacaa" d="M975.22559,138.28369v10.91895a1.47881,1.47881,0,0,1-1.67286,1.67285H959.376a.62292.62292,0,0,0-.70508.70459v44.99609a1.479,1.479,0,0,1-1.67285,1.67285H943.79a1.47821,1.47821,0,0,1-1.67285-1.67285V151.58008a.62331.62331,0,0,0-.70508-.70459H927.67578a1.47841,1.47841,0,0,1-1.67285-1.67285V138.28369a1.479,1.479,0,0,1,1.67285-1.67285h45.87695A1.47939,1.47939,0,0,1,975.22559,138.28369Z" transform="translate(-82.04382 -76.7666)"/><path class="a2b8de20-e1e7-456d-b209-3940087aacaa" d="M1023.21387,150.7876H997.502a.62263.62263,0,0,0-.7041.70459v7.74853a.622.622,0,0,0,.7041.70459h15.67383a1.47938,1.47938,0,0,1,1.67285,1.67285v10.74317a1.479,1.479,0,0,1-1.67285,1.67285H997.502a.62247.62247,0,0,0-.7041.7041v8.62988a.62209.62209,0,0,0,.7041.70411h25.71192a1.47969,1.47969,0,0,1,1.67383,1.67285v10.83105a1.4793,1.4793,0,0,1-1.67383,1.67285H981.917a1.47821,1.47821,0,0,1-1.67285-1.67285V138.28369a1.4786,1.4786,0,0,1,1.67285-1.67285h41.29688a1.47969,1.47969,0,0,1,1.67383,1.67285v10.83106A1.47911,1.47911,0,0,1,1023.21387,150.7876Z" transform="translate(-82.04382 -76.7666)"/></svg>