<svg id="Layer_1" data-name="Layer 1" xmlns="http://www.w3.org/2000/svg" viewBox="0 0 1190.55 341.16"><defs><style>.cls-1{fill:#f6f6f6;}.cls-2{fill:#e71d73;}.cls-3{fill:#00e8e8;}.cls-4,.cls-6,.cls-7{fill:none;}.cls-4{stroke:#00e8e8;}.cls-4,.cls-6{stroke-linecap:round;stroke-linejoin:round;stroke-width:7px;}.cls-5{fill:#3c3c3b;}.cls-6{stroke:#e71d73;}.cls-7{stroke:#e5e5e5;stroke-miterlimit:10;}</style></defs><title>sgheader</title><rect class="cls-1" y="0.5" width="1190.55" height="340.16"/><polygon class="cls-2" points="987.61 0.5 968.03 55.09 865.62 340.66 760.62 340.66 863.03 55.09 882.61 0.5 987.61 0.5"/><polygon class="cls-3" points="1118.27 0.5 1098.69 55.09 996.28 340.66 891.28 340.66 993.69 55.09 1013.27 0.5 1118.27 0.5"/><circle class="cls-1" cx="939.45" cy="170.58" r="148.1"/><path class="cls-4" d="M888,138.12" transform="translate(0 0.5)"/><path class="cls-4" d="M890.82,248.41" transform="translate(0 0.5)"/><path class="cls-2" d="M1028,206.24a2.56,2.56,0,0,1-1.8-.73s-4.9-4.66-14.36-9.29c-8.72-4.27-23.26-9.42-43-9.73a2.59,2.59,0,0,1-2.55-2.63,2.62,2.62,0,0,1,2.63-2.55c39.94.63,60,19.67,60.87,20.48a2.59,2.59,0,0,1-1.8,4.45Z" transform="translate(0 0.5)"/><path class="cls-2" d="M1028,225.74a2.59,2.59,0,0,1-2.17-1.17c-.27-.41-21.18-31.62-56.36-36a2.59,2.59,0,0,1,.64-5.14c37.66,4.68,59.16,36.92,60.06,38.29a2.6,2.6,0,0,1-.75,3.59A2.64,2.64,0,0,1,1028,225.74Z" transform="translate(0 0.5)"/><path class="cls-2" d="M1028,189.46a2.62,2.62,0,0,1-1.15-.27c-.28-.14-25.6-12.26-59.06-3.46a2.59,2.59,0,0,1-1.32-5c35.43-9.33,61.58,3.28,62.68,3.82a2.6,2.6,0,0,1-1.15,4.92Z" transform="translate(0 0.5)"/><path class="cls-3" d="M981,202.08a295.76,295.76,0,0,1-65.59-7.74,2.59,2.59,0,1,1,1.19-5.05c39.79,9.32,71.47,7.47,71.79,7.45a2.59,2.59,0,1,1,.32,5.18C988.59,201.92,985.83,202.08,981,202.08Z" transform="translate(0 0.5)"/><path class="cls-3" d="M984.87,213.9c-13.19,0-37-3-70.53-19a2.59,2.59,0,0,1,2.22-4.68c51,24.19,78.87,17.58,79.14,17.51a2.59,2.59,0,0,1,1.29,5A52.4,52.4,0,0,1,984.87,213.9Z" transform="translate(0 0.5)"/><path class="cls-5" d="M985.66,223c-20,0-45-5.86-70.1-27-.6-.5-1.28-1.08-1.47-1.2a2.59,2.59,0,0,1-.88-3.55,2.61,2.61,0,0,1,3.58-.88,19.92,19.92,0,0,1,2.11,1.67c31.15,26.28,62.14,27.82,82.65,24.49a2.59,2.59,0,0,1,.83,5.12A105.13,105.13,0,0,1,985.66,223Z" transform="translate(0 0.5)"/><path class="cls-5" d="M1028,240.37a2.57,2.57,0,0,1-1.25-.33c-2.07-1.14-20.35-11.29-24.61-16.33-2.2-2.6-6-8.76-9.65-14.73-2.7-4.4-6.4-10.43-7.35-11.33-.3-.27-7.51-6.84-20.25-10.52a2.59,2.59,0,0,1,1.44-5c11.1,3.21,19.26,8.86,22.33,11.69,1.38,1.28,3.9,5.35,8.25,12.43,3.4,5.53,7.24,11.8,9.19,14.09,3.08,3.65,17.76,12.17,23.15,15.14a2.6,2.6,0,0,1-1.25,4.87Z" transform="translate(0 0.5)"/><path class="cls-5" d="M997.83,260.52a2.59,2.59,0,0,1-2.51-2c-.74-3-7.12-13-9.28-15.58l-.08-.1a47,47,0,0,0-6.16,2.65c-2.37,1.11-5.32,2.5-9.24,4.25-14.88,6.63-41.07,5.61-49.67,5.27l-1.45,0c-3.48-.11-14.13-1.74-24.42-3.32-7.14-1.09-13.89-2.13-16.86-2.43-8.27-.85-22.14-12.62-27.39-18.43-1.95-2.16-3.75-6.21-1.26-13.27a34.85,34.85,0,0,1,3-6.29c1.22-31.84,20.45-55.37,24.32-59.79,1.86-2.13,8.39-13.74,14.14-24s11.6-20.64,14.91-25.56c5.84-8.68,15.54-12.59,22-15.18,1.67-.67,3.11-1.25,4.19-1.79,6.05-3,27.82-5.67,30.62-5.25,1.17.18,2.77.43,9.26,10.54a114.88,114.88,0,0,1,7,12.12,7.19,7.19,0,0,1-1.26,7.46,24.34,24.34,0,0,1,2.36,7.75,5.87,5.87,0,0,1-1.79,5.68c-3.6,3.11-11.11,1.4-14.39.44-9.57,3.3-27.23,2.31-28,2.26a2.76,2.76,0,0,1-.85-.19c-1.5-.62-6-1.87-8.51-.22-1.54,1.13-5.63,10-11,26.59a3.86,3.86,0,0,0-.1,2.1c2,8.52,2.48,22.84,2.59,31.39,6.42-5.63,15.82-8.2,27.66-7.5A84,84,0,0,1,965,181.7c15.24-13.95,31.69-15.32,42.92-14a60.7,60.7,0,0,1,21.42,6.7,2.59,2.59,0,1,1-2.6,4.48,56.47,56.47,0,0,0-19.64-6c-15.05-1.77-28.39,2.81-39.65,13.64a2.6,2.6,0,0,1-2.67.57c-.35-.12-35-12.19-47.11,6.91a2.59,2.59,0,0,1-4.78-1.42c0-.25.3-25.32-2.47-37.16a9.13,9.13,0,0,1,.21-4.86c5.59-17.47,10-27.35,13.06-29.36,4.72-3.07,11.06-1.08,12.89-.39,2.73.13,18.7.74,26.27-2.25a2.6,2.6,0,0,1,1.74-.06c3.88,1.24,9.1,1.86,10.29.84.17-.15.09-.73.06-.91-.78-4.71-1.79-6.19-2-6.49a2.6,2.6,0,0,1-.24-4.37s2.18-1.64,1.53-3.18c-1.55-3.67-10.08-17.39-12.6-19.57h0c-3.52,0-22.25,2.34-27.13,4.77-1.27.64-2.8,1.26-4.57,2-6.19,2.49-14.66,5.91-19.61,13.27-3.19,4.74-9,15.14-14.69,25.2-7.8,13.89-12.69,22.49-14.76,24.86-3.7,4.22-22.16,26.81-23.06,57.24a2.59,2.59,0,0,1-.44,1.37c-1.67,2.49-5.74,10.41-2.63,13.85,5.65,6.26,18.14,16.13,24.07,16.74,3.1.32,9.91,1.36,17.11,2.47,9.67,1.48,20.64,3.16,23.81,3.26l1.48.05c22.29.87,38.22-.75,47.36-4.83,3.87-1.72,6.79-3.1,9.14-4.2,7.19-3.39,9.61-4.53,12.41-1.21,2,2.33,9.25,13.25,10.35,17.68a2.59,2.59,0,0,1-1.89,3.14A2.27,2.27,0,0,1,997.83,260.52ZM973.45,112.16h0Zm0,0h0Zm0,0Zm0,0h0Z" transform="translate(0 0.5)"/><path class="cls-6" d="M915.45,192.6" transform="translate(0 0.5)"/><path class="cls-5" d="M103.25,145.7q-7.32-6-7.31-16c0-.68.07-1.76.22-3.26l.23-1.13a2.37,2.37,0,0,1,.73-1.57,2.15,2.15,0,0,1,1.52-.56h16.08c1.42,0,2.06.37,1.91,1.12l-.11,1.24a6.24,6.24,0,0,0,2.47,5.51,11.19,11.19,0,0,0,7.65,2.47q4.38,0,6.3-2a6.09,6.09,0,0,0,1.91-4.16,3.62,3.62,0,0,0-2.08-3.38,44.25,44.25,0,0,0-7.25-2.7l-3-1a51.22,51.22,0,0,1-16-8q-6.47-5-6.46-14.34A23.8,23.8,0,0,1,104.21,84a28,28,0,0,1,11.47-9.45,37.2,37.2,0,0,1,15.91-3.37A34,34,0,0,1,145.7,74a22.38,22.38,0,0,1,9.73,8,21.14,21.14,0,0,1,3.49,12c0,.67-.08,1.76-.23,3.26l-.11.56a2.42,2.42,0,0,1-.73,1.57,2.16,2.16,0,0,1-1.52.57H140.25c-1.43,0-2.06-.3-1.91-.9l.11-.9A7.53,7.53,0,0,0,136.14,92q-2.64-2.76-7.59-2.76a10,10,0,0,0-6,1.63,5.21,5.21,0,0,0-2.25,4.45c0,1.72,1,3.16,3,4.33a70.52,70.52,0,0,0,11.31,4.55c.59.23,2.9,1,6.91,2.31a22.21,22.21,0,0,1,10.07,6.63,16.5,16.5,0,0,1,4,11.19,24.74,24.74,0,0,1-4.22,14.28,27.77,27.77,0,0,1-11.7,9.62,39.8,39.8,0,0,1-16.81,3.43Q110.56,151.66,103.25,145.7Z" transform="translate(0 0.5)"/><path class="cls-5" d="M227.46,72.6a1.89,1.89,0,0,1,.39,1.57l-1.68,14a2.2,2.2,0,0,1-2.36,2.13H206.26a1,1,0,0,0-1,.9l-7.08,57.47a2.41,2.41,0,0,1-.74,1.58,2.17,2.17,0,0,1-1.51.56H179.5a1.75,1.75,0,0,1-1.46-.56,2,2,0,0,1-.34-1.58l7.08-57.47c0-.59-.26-.9-.78-.9H167c-1.42,0-2.06-.71-1.91-2.13l1.8-14a2.42,2.42,0,0,1,.73-1.57,2.15,2.15,0,0,1,1.52-.56h56.91A1.78,1.78,0,0,1,227.46,72.6Z" transform="translate(0 0.5)"/><path class="cls-5" d="M263.05,149.18l-8.43-28c-.08-.45-.41-.67-1-.67h-3.83c-.67,0-1,.3-1,.9l-3.37,27.21a2.45,2.45,0,0,1-.73,1.58,2.37,2.37,0,0,1-1.63.56H226.73a1.78,1.78,0,0,1-1.46-.56,2.07,2.07,0,0,1-.34-1.58L234,74.17A2.2,2.2,0,0,1,236.4,72H269q10.11,0,16.08,5.73t6,15.52c0,.75-.08,2-.23,3.83a26.56,26.56,0,0,1-5,12.82,24.86,24.86,0,0,1-10.63,8.21.84.84,0,0,0-.56,1.12l9.78,29a2.4,2.4,0,0,1,.11.79c0,1.13-.63,1.69-1.91,1.69H265.19A1.92,1.92,0,0,1,263.05,149.18ZM252.48,91l-1.57,12.49c0,.6.26.9.79.9h9.89a9.23,9.23,0,0,0,6.36-2.25,7.48,7.48,0,0,0,2.53-5.85,5.62,5.62,0,0,0-2-4.5,7.61,7.61,0,0,0-5.12-1.69H253.5A1,1,0,0,0,252.48,91Z" transform="translate(0 0.5)"/><path class="cls-5" d="M352.46,90.14H320.63a1,1,0,0,0-1,.9l-1.24,9.9c0,.6.27.9.79.9h19.46a1.8,1.8,0,0,1,1.4.56,2,2,0,0,1,.4,1.58l-1.69,13.72a2.2,2.2,0,0,1-2.36,2.13H316.92a.8.8,0,0,0-.9.9l-1.35,11V132a.6.6,0,0,0,.68.67h31.94a1.8,1.8,0,0,1,1.4.56,1.92,1.92,0,0,1,.39,1.58l-1.68,13.83a2.32,2.32,0,0,1-.79,1.58,2.4,2.4,0,0,1-1.57.56H293.87a1.75,1.75,0,0,1-1.46-.56,2,2,0,0,1-.34-1.58l9.11-74.45A2.2,2.2,0,0,1,303.54,72h51.17a1.75,1.75,0,0,1,1.4.56,1.93,1.93,0,0,1,.4,1.57L354.82,88A2.2,2.2,0,0,1,352.46,90.14Z" transform="translate(0 0.5)"/><path class="cls-5" d="M354.6,150.2a2,2,0,0,1-.34-1.58l9.11-74.45A2.2,2.2,0,0,1,365.73,72h15.63a2.38,2.38,0,0,1,2.36,1.46l17,37.22a.54.54,0,0,0,.57.45c.29,0,.48-.26.56-.78l4.27-36.22A2.2,2.2,0,0,1,408.46,72h16.42a1.79,1.79,0,0,1,1.41.56,1.89,1.89,0,0,1,.39,1.57l-9.22,74.45a2.45,2.45,0,0,1-.73,1.58,2.19,2.19,0,0,1-1.52.56H399.47a2.41,2.41,0,0,1-2.37-1.46l-16.86-37.9c-.16-.38-.34-.56-.57-.56s-.41.26-.56.78l-4.38,37a2.07,2.07,0,0,1-2.37,2.14h-16.3A1.75,1.75,0,0,1,354.6,150.2Z" transform="translate(0 0.5)"/><path class="cls-5" d="M435.17,144.85Q428,138.06,428,126.47a34.19,34.19,0,0,1,.22-4.5l2.59-21.26a35.34,35.34,0,0,1,5.68-15.52,30.77,30.77,0,0,1,11.81-10.4,35.69,35.69,0,0,1,16.25-3.65,31.74,31.74,0,0,1,14.23,3,22.7,22.7,0,0,1,9.44,8.38,22.07,22.07,0,0,1,3.32,11.87c0,.6-.08,1.65-.22,3.14a2,2,0,0,1-.74,1.3,2.27,2.27,0,0,1-1.51.5H472.79c-1.43,0-2.06-.18-1.91-.56v-.45a8.08,8.08,0,0,0-1.8-6.41q-2.25-2.7-6.64-2.7a10.22,10.22,0,0,0-7.42,3,12.78,12.78,0,0,0-3.6,7.93l-2.7,22.49a9,9,0,0,0,9.11,10.91,10.73,10.73,0,0,0,6.92-2.3,9.1,9.1,0,0,0,3.32-6.36l.11-1.12v-.23c0-.45-.26-.67-.79-.67h-8.77a1.77,1.77,0,0,1-1.46-.56,2.07,2.07,0,0,1-.34-1.58l1.46-12.59a2.32,2.32,0,0,1,.79-1.58,2.4,2.4,0,0,1,1.57-.56h27.67a1.79,1.79,0,0,1,1.4.56,2,2,0,0,1,.4,1.58l-1.91,15a32.36,32.36,0,0,1-5.57,14.85,30.9,30.9,0,0,1-11.81,10.12,35.8,35.8,0,0,1-16.14,3.6Q442.32,151.66,435.17,144.85Z" transform="translate(0 0.5)"/><path class="cls-5" d="M558.88,72.6a2,2,0,0,1,.39,1.57l-1.69,14a2.2,2.2,0,0,1-2.36,2.13H537.68a1,1,0,0,0-1,.9l-7.09,57.47a2.4,2.4,0,0,1-.73,1.58,2.19,2.19,0,0,1-1.52.56H510.91a1.78,1.78,0,0,1-1.46-.56,2.11,2.11,0,0,1-.34-1.58l7.09-57.47c0-.59-.26-.9-.79-.9h-17c-1.43,0-2.06-.71-1.91-2.13l1.8-14a2.37,2.37,0,0,1,.73-1.57,2.15,2.15,0,0,1,1.52-.56h56.9A1.79,1.79,0,0,1,558.88,72.6Z" transform="translate(0 0.5)"/><path class="cls-5" d="M604.82,72.6a2.34,2.34,0,0,1,1.57-.56h16.42a1.79,1.79,0,0,1,1.41.56,2,2,0,0,1,.39,1.57l-9.11,74.45a2.28,2.28,0,0,1-.79,1.58,2.4,2.4,0,0,1-1.57.56H596.72a1.82,1.82,0,0,1-1.41-.56,2,2,0,0,1-.39-1.58l3.37-27.78v-.22a.6.6,0,0,0-.67-.68H581.2a1,1,0,0,0-1,.9l-3.38,27.78a2.21,2.21,0,0,1-2.36,2.14h-16.3a1.79,1.79,0,0,1-1.47-.56,2.07,2.07,0,0,1-.33-1.58l9.11-74.45A2.2,2.2,0,0,1,567.82,72h16.3a1.76,1.76,0,0,1,1.47.56,2,2,0,0,1,.33,1.57l-3.26,26.77c0,.6.26.9.79.9h16.31c.67,0,1-.3,1-.9L604,74.17A2.26,2.26,0,0,1,604.82,72.6Z" transform="translate(0 0.5)"/><path class="cls-2" d="M104.09,262.2q-7.14-6.79-7.14-18.38a33.85,33.85,0,0,1,.23-4.5l2.58-21.26a35.47,35.47,0,0,1,5.68-15.52,30.77,30.77,0,0,1,11.81-10.4,35.69,35.69,0,0,1,16.25-3.65,31.74,31.74,0,0,1,14.23,3,22.7,22.7,0,0,1,9.44,8.38,22.07,22.07,0,0,1,3.32,11.87c0,.6-.07,1.65-.22,3.15a2,2,0,0,1-.73,1.29,2.38,2.38,0,0,1-1.52.5H141.71c-1.42,0-2.06-.18-1.91-.56v-.45a8.08,8.08,0,0,0-1.8-6.41q-2.25-2.7-6.64-2.7a10.23,10.23,0,0,0-7.42,3,12.78,12.78,0,0,0-3.6,7.93L117.64,240a9,9,0,0,0,9.11,10.91,10.73,10.73,0,0,0,6.92-2.3,9.1,9.1,0,0,0,3.32-6.36l.11-1.12v-.23c0-.45-.26-.67-.79-.67h-8.77a1.78,1.78,0,0,1-1.46-.56,2.11,2.11,0,0,1-.34-1.58l1.46-12.59a2.32,2.32,0,0,1,.79-1.58,2.4,2.4,0,0,1,1.57-.56h27.67a1.82,1.82,0,0,1,1.41.56,2,2,0,0,1,.39,1.58l-1.91,14.95a32.36,32.36,0,0,1-5.57,14.85,30.9,30.9,0,0,1-11.81,10.12A35.77,35.77,0,0,1,123.6,269Q111.24,269,104.09,262.2Z" transform="translate(0 0.5)"/><path class="cls-2" d="M176,266.31a22.53,22.53,0,0,1-9.44-8.89,26.48,26.48,0,0,1-3.32-13.49,31.8,31.8,0,0,1,.34-4.61l2.58-21.14a34.88,34.88,0,0,1,5.74-15.52,31.29,31.29,0,0,1,12-10.46,36,36,0,0,1,16.47-3.71,32.08,32.08,0,0,1,14.51,3.09,22.25,22.25,0,0,1,9.5,8.77,26,26,0,0,1,3.32,13.33,31.26,31.26,0,0,1-.34,4.5l-2.58,21.14a34.29,34.29,0,0,1-5.68,15.8,32,32,0,0,1-12.09,10.57,36,36,0,0,1-16.53,3.77A31.27,31.27,0,0,1,176,266.31Zm24.46-18.05a13.19,13.19,0,0,0,3.72-8.27l2.69-22a12.48,12.48,0,0,0,.12-2,9.61,9.61,0,0,0-2.36-6.81,8.53,8.53,0,0,0-6.53-2.53,10.45,10.45,0,0,0-7.64,3.1,13.16,13.16,0,0,0-3.72,8.26L184,240a12.63,12.63,0,0,0-.12,2,9.59,9.59,0,0,0,2.36,6.8,8.35,8.35,0,0,0,6.41,2.53A10.64,10.64,0,0,0,200.41,248.26Z" transform="translate(0 0.5)"/><path class="cls-2" d="M273.63,266.31l-1.24-8.1a.72.72,0,0,0-.28-.56,1,1,0,0,0-.62-.23H248.88a1.32,1.32,0,0,0-1.12.79l-3.15,8.1a2.47,2.47,0,0,1-2.47,1.8H224.37c-1.05,0-1.58-.45-1.58-1.35a2.52,2.52,0,0,1,.23-1.13l31.83-74.44a2.46,2.46,0,0,1,2.47-1.8h22.49a1.92,1.92,0,0,1,2,1.8l13.6,74.44v.45c0,1.35-.71,2-2.13,2H275.65A1.75,1.75,0,0,1,273.63,266.31Zm-18.9-25.87c0,.53.23.79.68.79H268.9a1,1,0,0,0,.73-.28.7.7,0,0,0,.17-.73l-3.71-26c-.07-.37-.24-.56-.51-.56s-.46.19-.61.56l-10.24,26Z" transform="translate(0 0.5)"/><path class="cls-2" d="M302.75,267.55a2.07,2.07,0,0,1-.33-1.58l9.1-74.45a2.21,2.21,0,0,1,2.37-2.13h16.3a1.74,1.74,0,0,1,1.46.56,2,2,0,0,1,.34,1.57l-7,57.58v.23a.59.59,0,0,0,.67.67h33a1.78,1.78,0,0,1,1.46.56,2.07,2.07,0,0,1,.33,1.58L358.76,266a2.45,2.45,0,0,1-.73,1.58,2.37,2.37,0,0,1-1.63.56H304.21A1.78,1.78,0,0,1,302.75,267.55Z" transform="translate(0 0.5)"/><path class="cls-2" d="M373.38,263.05q-7.32-6-7.31-16c0-.68.07-1.76.22-3.26l.23-1.13a2.33,2.33,0,0,1,.73-1.57,2.13,2.13,0,0,1,1.52-.56h16.08c1.42,0,2.06.37,1.91,1.12l-.11,1.24a6.24,6.24,0,0,0,2.47,5.51,11.15,11.15,0,0,0,7.65,2.47q4.38,0,6.3-2a6.09,6.09,0,0,0,1.91-4.16,3.64,3.64,0,0,0-2.08-3.38,44.09,44.09,0,0,0-7.26-2.7l-3-1a51.11,51.11,0,0,1-16-8q-6.46-5-6.46-14.34a23.84,23.84,0,0,1,4.21-13.94,28,28,0,0,1,11.47-9.45,37.27,37.27,0,0,1,15.92-3.37,33.92,33.92,0,0,1,14.11,2.81,22.44,22.44,0,0,1,9.73,8,21.13,21.13,0,0,1,3.48,12c0,.67-.07,1.76-.22,3.26l-.11.56a2.42,2.42,0,0,1-.73,1.57,2.17,2.17,0,0,1-1.52.57H410.38q-2.14,0-1.92-.9l.12-.9a7.53,7.53,0,0,0-2.31-6.13q-2.64-2.76-7.59-2.76a10,10,0,0,0-6,1.63,5.21,5.21,0,0,0-2.25,4.45q0,2.58,3,4.33a70.29,70.29,0,0,0,11.3,4.55q.9.33,6.92,2.31a22.12,22.12,0,0,1,10.06,6.63,16.5,16.5,0,0,1,4,11.19A24.73,24.73,0,0,1,421.57,256a27.89,27.89,0,0,1-11.7,9.62A39.83,39.83,0,0,1,393.06,269Q380.69,269,373.38,263.05Z" transform="translate(0 0.5)"/><line class="cls-7" y1="0.5" x2="1190.55" y2="0.5"/><line class="cls-7" y1="340.66" x2="1190.55" y2="340.66"/></svg>