<svg id="24c2da2c-df63-4bb0-92c7-d4cc4230b2a2" data-name="Layer 1" xmlns="http://www.w3.org/2000/svg" viewBox="0 0 966.0625 128"><defs><style>.\35 bd68b60-da97-4120-9cee-188b36276f15{fill:#55acee;}.\37 9fba35a-e4bf-4edc-8765-d3257d888c8e{fill:#fff;}.\35 9f7a559-5246-47b4-8a0a-d776ee4e96af{fill:#517ea3;}.b619fd17-ec63-4e0e-8dae-2488aaa2b13d{fill:#dc4b3e;}.\33 7dd3e20-415f-4680-baf0-1879fe424dad{fill:#3a5a99;}</style></defs><title>socialicons</title><circle id="0ebfa5c7-1e77-416f-af2f-6e3bc90440b6" data-name="twitter-back" class="5bd68b60-da97-4120-9cee-188b36276f15" cx="902.0625" cy="64" r="64"/><path id="270f850a-c8df-4a20-97c5-b2072dcad339" data-name="twitter-twitter" class="79fba35a-e4bf-4edc-8765-d3257d888c8e" d="M1260.25646,3959.01a29.37738,29.37738,0,0,1-8.44619,2.3155,14.75459,14.75459,0,0,0,6.46579-8.1363,29.43349,29.43349,0,0,1-9.33789,3.5689,14.71994,14.71994,0,0,0-25.0601,13.4131,41.74938,41.74938,0,0,1-30.311-15.3648,14.72077,14.72077,0,0,0,4.55081,19.6328,14.63587,14.63587,0,0,1-6.6607-1.83929c-.0014.0615-.0014.123-.0014.1855a14.71558,14.71558,0,0,0,11.7968,14.4199,14.74477,14.74477,0,0,1-6.64161.252,14.72031,14.72031,0,0,0,13.73781,10.21189,29.50163,29.50163,0,0,1-18.26461,6.2959,29.90183,29.90183,0,0,1-3.5073-.2051,41.62062,41.62062,0,0,0,22.5429,6.6065c27.04981,0,41.84181-22.4082,41.84181-41.8418q0-.95655-.0429-1.9024A29.86512,29.86512,0,0,0,1260.25646,3959.01Z" transform="translate(-322.35417 -3917.24051)"/><circle id="6caab774-1c29-49fe-bf50-58afdba1c5d6" data-name="instagram-back" class="59f7a559-5246-47b4-8a0a-d776ee4e96af" cx="622.70833" cy="64" r="64"/><path id="47a20eec-1e5b-4992-952a-227526b5a3fa" data-name="instagram-instagram" class="79fba35a-e4bf-4edc-8765-d3257d888c8e" d="M972.6338,3975.72341h-6.2402a22.0554,22.0554,0,1,1-42.66119,0h-6.2407V4006.052a2.75754,2.75754,0,0,0,2.7598,2.7549H969.873a2.75807,2.75807,0,0,0,2.7608-2.7549Zm0-19.2969a2.7588,2.7588,0,0,0-2.76081-2.7568H961.6045a2.75723,2.75723,0,0,0-2.7568,2.7568v8.272a2.75717,2.75717,0,0,0,2.7568,2.7568h8.2685a2.75873,2.75873,0,0,0,2.7608-2.7568Zm-27.5718,11.0288a13.7852,13.7852,0,1,0,13.78569,13.7837,13.78363,13.78363,0,0,0-13.78569-13.7837m27.5718,49.625H917.4917a8.27147,8.27147,0,0,1-8.269-8.2734v-55.1372a8.26925,8.26925,0,0,1,8.269-8.269h55.1421a8.26819,8.26819,0,0,1,8.26851,8.269v55.1372a8.27041,8.27041,0,0,1-8.26851,8.2734" transform="translate(-322.35417 -3917.24051)"/><circle id="af008521-92e8-4fa2-a100-ce6262187536" data-name="google--back" class="b619fd17-ec63-4e0e-8dae-2488aaa2b13d" cx="343.35417" cy="64" r="64"/><g id="544adfa4-246e-480f-98d1-7b4fe6df2478" data-name="google--google-"><path class="79fba35a-e4bf-4edc-8765-d3257d888c8e" d="M629.88213,3981.26981c-.4472-11.7427,9.8399-22.5938,21.5938-22.7354a22.77011,22.77011,0,0,1,16.3554,5.6114c-1.85929,2.0425-3.75579,4.0654-5.77339,5.9585-3.9946-2.4253-8.79881-4.273-13.4629-2.6324-7.5273,2.1426-12.0786,11.0259-9.2988,18.3877,2.30659,7.6856,11.66009,11.90339,18.9863,8.67389,3.7969-1.3575,6.2949-4.8594,7.3926-8.6211-4.3496-.0869-8.6992-.0332-13.0493-.1543-.0073-2.58789-.021-5.1626-.0073-7.7505,7.2519-.0108,14.5156-.0317,21.77929.0347.4433,6.33691-.4903,13.123-4.6094,18.2099-5.6446,7.2637-16.0723,9.3946-24.5532,6.5469a22.7568,22.7568,0,0,1-15.3531-21.52929" transform="translate(-322.35417 -3917.24051)"/><path class="79fba35a-e4bf-4edc-8765-d3257d888c8e" d="M688.53254,3971.48421h6.4688c.0117,2.1645.0312,4.3374.0429,6.5019,2.1641.0215,4.3399.0303,6.5039.0444v6.4795c-2.164.00981-4.3398.0215-6.5039.0313-.0195,2.1738-.0312,4.3388-.0429,6.51371-2.1641-.00981-4.3282,0-6.4825,0-.0214-2.17491-.0214-4.3399-.041-6.502-2.164-.0215-4.3408-.0332-6.5-.043v-6.47951c2.1592-.0141,4.3243-.0229,6.5-.0444.0118-2.1645.03319-4.3374.0547-6.5019" transform="translate(-322.35417 -3917.24051)"/></g><circle id="4bb8fd04-b371-4c88-aa95-e38a76b5ed60" data-name="facebook-back" class="37dd3e20-415f-4680-baf0-1879fe424dad" cx="64" cy="64" r="64"/><path id="13cab873-5369-4438-b860-788c8a6d003c" data-name="facebook-facebook" class="79fba35a-e4bf-4edc-8765-d3257d888c8e" d="M417.49087,3946.24051H355.218a3.863,3.863,0,0,0-3.8638,3.8638v62.2729a3.8632,3.8632,0,0,0,3.8638,3.8633h33.5249v-27.1074h-9.1221v-10.565h9.1221v-7.7905c0-9.0415,5.5224-13.9648,13.5888-13.9648a74.72487,74.72487,0,0,1,8.1504.4165v9.4487l-5.5927.0024c-4.3877,0-5.2364,2.0845-5.2364,5.1431v6.7446h10.461l-1.3623,10.565H399.653v27.1074h17.8379a3.8631,3.8631,0,0,0,3.8633-3.8633v-62.2729A3.86288,3.86288,0,0,0,417.49087,3946.24051Z" transform="translate(-322.35417 -3917.24051)"/></svg>