<svg id="1e1a0346-57d0-4a76-be26-04e1703adc19" data-name="Layer 1" xmlns="http://www.w3.org/2000/svg" viewBox="0 0 241.3247 89.35693"><defs><style>.\38 d5346e4-2e9d-4e99-9303-80f8ca801b77{fill:#ed1e79;}.fba46ae2-f367-497f-950d-86a06098bf62{fill:#333;}</style></defs><title>startexercise</title><path class="8d5346e4-2e9d-4e99-9303-80f8ca801b77" d="M618.48828,364.25a7.92156,7.92156,0,0,1-2.96387-6.47412q0-.41016.09131-1.32227l.09131-.45605a.96863.96863,0,0,1,.29639-.63818.87942.87942,0,0,1,.61523-.228h6.52q.86572,0,.7749.45605l-.04541.50147a2.52979,2.52979,0,0,0,1.00293,2.23388,4.5255,4.5255,0,0,0,3.10059,1.00342,3.39112,3.39112,0,0,0,2.55322-.8208,2.46277,2.46277,0,0,0,.7749-1.687,1.469,1.469,0,0,0-.84326-1.36768,17.89993,17.89993,0,0,0-2.94092-1.09423l-1.231-.41065a20.79414,20.79414,0,0,1-6.49707-3.25976,6.9101,6.9101,0,0,1-2.62158-5.813,9.67154,9.67154,0,0,1,1.70947-5.65381,11.35055,11.35055,0,0,1,4.65088-3.82959,15.10224,15.10224,0,0,1,6.45117-1.36768,13.79826,13.79826,0,0,1,5.72217,1.13965,9.111,9.111,0,0,1,3.94384,3.25977,8.55864,8.55864,0,0,1,1.41309,4.856q0,.41016-.09131,1.32227l-.04541.22754a.97677.97677,0,0,1-.29638.63867.88064.88064,0,0,1-.61524.228h-6.52q-.86646,0-.7749-.36475l.04541-.36474a3.04073,3.04073,0,0,0-.93457-2.48487,4.77585,4.77585,0,0,0-5.49414-.45605,2.10651,2.10651,0,0,0-.91162,1.80078,2.04165,2.04165,0,0,0,1.208,1.75537,28.40077,28.40077,0,0,0,4.582,1.84668q.36474.137,2.8042.93457a9.00929,9.00929,0,0,1,4.08056,2.68994,6.69175,6.69175,0,0,1,1.64112,4.53662,10.0317,10.0317,0,0,1-1.70948,5.79053,11.27171,11.27171,0,0,1-4.7417,3.89795,16.16,16.16,0,0,1-6.8164,1.39062A12.24675,12.24675,0,0,1,618.48828,364.25Z" transform="translate(-562.56007 -332.02197)"/><path class="8d5346e4-2e9d-4e99-9303-80f8ca801b77" d="M668.8457,334.61426a.78721.78721,0,0,1,.15967.63867l-.68408,5.65332a.89377.89377,0,0,1-.95752.86621h-7.11231a.40726.40726,0,0,0-.41015.36475l-2.87256,23.29834a.97656.97656,0,0,1-.29639.63818.881.881,0,0,1-.61572.228h-6.65625a.71268.71268,0,0,1-.59277-.228.83713.83713,0,0,1-.13672-.63818l2.87207-23.29834c0-.24268-.10693-.36475-.31885-.36475h-6.88476q-.86646,0-.77491-.86621l.7295-5.65332a.96984.96984,0,0,1,.29638-.63867.88128.88128,0,0,1,.61524-.22754h23.07031A.72971.72971,0,0,1,668.8457,334.61426Z" transform="translate(-562.56007 -332.02197)"/><path class="8d5346e4-2e9d-4e99-9303-80f8ca801b77" d="M684.55273,365.57227l-.50195-3.28272a.28226.28226,0,0,0-.11377-.228.39427.39427,0,0,0-.25049-.09131H674.522a.5296.5296,0,0,0-.45605.31934l-1.27637,3.28272a1.00359,1.00359,0,0,1-1.00293.72949h-7.2041q-.63867,0-.63818-.54688a1.01158,1.01158,0,0,1,.0913-.45605l12.90284-30.18262a1.00373,1.00373,0,0,1,1.00293-.72949h9.11914a.77615.77615,0,0,1,.82031.72949l5.5166,30.18262v.18213q0,.821-.86621.8208h-7.1582A.71307.71307,0,0,1,684.55273,365.57227Zm-7.65966-10.48633q0,.31934.27343.31885h5.4712a.40115.40115,0,0,0,.29638-.11377.293.293,0,0,0,.06836-.29639l-1.50439-10.53223c-.03076-.15136-.09912-.22754-.20557-.22754s-.18994.07618-.25049.22754l-4.14892,10.53223Z" transform="translate(-562.56007 -332.02197)"/><path class="8d5346e4-2e9d-4e99-9303-80f8ca801b77" d="M711.67969,365.66357l-3.41895-11.353c-.03027-.18213-.168-.27344-.41015-.27344H706.2998c-.27343,0-.41015.12207-.41015.36475l-1.36719,11.03369a.977.977,0,0,1-.29687.63818.94321.94321,0,0,1-.66114.228h-6.61133a.71461.71461,0,0,1-.59277-.228.84346.84346,0,0,1-.13672-.63818l3.69336-30.18262a.89423.89423,0,0,1,.958-.86621h13.22168a9.00726,9.00726,0,0,1,6.51953,2.32519,8.32155,8.32155,0,0,1,2.417,6.29151q0,.4563-.09179,1.55029a10.73519,10.73519,0,0,1-2.02832,5.19775,10.06869,10.06869,0,0,1-4.3086,3.32813.34628.34628,0,0,0-.22851.45605l3.96679,11.76319a1.01395,1.01395,0,0,1,.0459.31885q0,.68408-.77539.68408h-7.0664A.77654.77654,0,0,1,711.67969,365.66357Zm-4.28516-23.57177-.63867,5.061c0,.24365.10644.36475.31934.36475h4.01269a3.73157,3.73157,0,0,0,2.5752-.91211,3.01981,3.01981,0,0,0,1.02636-2.37061,2.28312,2.28312,0,0,0-.79785-1.82373,3.07588,3.07588,0,0,0-2.07422-.68408h-4.01269A.40686.40686,0,0,0,707.39453,342.0918Z" transform="translate(-562.56007 -332.02197)"/><path class="8d5346e4-2e9d-4e99-9303-80f8ca801b77" d="M750.68457,334.61426a.7854.7854,0,0,1,.15918.63867l-.68359,5.65332a.895.895,0,0,1-.958.86621h-7.11231a.40725.40725,0,0,0-.41015.36475l-2.87305,23.29834a.97164.97164,0,0,1-.2959.63818.8806.8806,0,0,1-.61523.228h-6.65723a.71332.71332,0,0,1-.59277-.228.84342.84342,0,0,1-.13672-.63818l2.87305-23.29834c0-.24268-.10743-.36475-.31934-.36475h-6.88477q-.86718,0-.77539-.86621l.7295-5.65332a.97023.97023,0,0,1,.29687-.63867.883.883,0,0,1,.61524-.22754h23.07031A.73148.73148,0,0,1,750.68457,334.61426Z" transform="translate(-562.56007 -332.02197)"/><path class="8d5346e4-2e9d-4e99-9303-80f8ca801b77" d="M587.05273,396.43945H574.1499a.40641.40641,0,0,0-.41015.36426l-.50147,4.0127q0,.36474.31885.36425h7.88769a.72905.72905,0,0,1,.56983.22754.78728.78728,0,0,1,.15967.63868l-.68409,5.5625a.89332.89332,0,0,1-.957.86621h-7.88769a.32224.32224,0,0,0-.36475.36425l-.54736,4.46875v.09082a.24232.24232,0,0,0,.27344.27442h12.94873a.72971.72971,0,0,1,.56982.22754.785.785,0,0,1,.15967.63769l-.68408,5.6084a.924.924,0,0,1-.31885.6377.96685.96685,0,0,1-.63867.22851H563.29883a.71354.71354,0,0,1-.59278-.22851.83743.83743,0,0,1-.13671-.6377l3.69287-30.18262a.89463.89463,0,0,1,.95752-.86621h20.74511a.72972.72972,0,0,1,.56983.22754.78726.78726,0,0,1,.15967.63867l-.68409,5.60743A.89451.89451,0,0,1,587.05273,396.43945Z" transform="translate(-562.56007 -332.02197)"/><path class="8d5346e4-2e9d-4e99-9303-80f8ca801b77" d="M587.23486,420.51172a1.151,1.151,0,0,1,.18262-.54688l9.71143-14.68066a.47428.47428,0,0,0,.04541-.45606l-6.064-14.68164a1.4299,1.4299,0,0,1-.09131-.41015q0-.63722.77539-.6377h7.249a.93816.93816,0,0,1,.91211.6377l3.1914,8.29883q.09082.18163.20508.18164.11352,0,.20557-.18164l5.24316-8.29883a1.14808,1.14808,0,0,1,1.04834-.6377h7.2041q.638,0,.63819.45606a1.21029,1.21029,0,0,1-.18262.59179l-9.62012,14.68164a.41262.41262,0,0,0-.09131.45606l6.064,14.68066a1.46044,1.46044,0,0,1,.09131.41016q0,.63867-.8208.63867h-7.15821a.93636.93636,0,0,1-.91162-.63867l-3.1914-8.29688c-.06153-.12109-.13672-.18359-.228-.18359s-.16748.0625-.228.18359l-5.28906,8.29688a1.1478,1.1478,0,0,1-1.04834.63867h-7.20361C587.44727,421.01367,587.23486,420.84766,587.23486,420.51172Z" transform="translate(-562.56007 -332.02197)"/><path class="8d5346e4-2e9d-4e99-9303-80f8ca801b77" d="M641.39893,396.43945H628.49609a.40641.40641,0,0,0-.41015.36426l-.50147,4.0127q0,.36474.31885.36425h7.8877a.729.729,0,0,1,.56982.22754.78728.78728,0,0,1,.15967.63868l-.68408,5.5625a.89332.89332,0,0,1-.957.86621H626.9917a.32224.32224,0,0,0-.36475.36425l-.54736,4.46875v.09082a.24232.24232,0,0,0,.27344.27442h12.94873a.72971.72971,0,0,1,.56982.22754.78493.78493,0,0,1,.15967.63769l-.68408,5.6084a.924.924,0,0,1-.31885.6377.96685.96685,0,0,1-.63867.22851H617.645a.71351.71351,0,0,1-.59277-.22851.83743.83743,0,0,1-.13672-.6377l3.69287-30.18262a.89463.89463,0,0,1,.95752-.86621H642.311a.72971.72971,0,0,1,.56982.22754.78726.78726,0,0,1,.15967.63867l-.68408,5.60743A.89452.89452,0,0,1,641.39893,396.43945Z" transform="translate(-562.56007 -332.02197)"/><path class="8d5346e4-2e9d-4e99-9303-80f8ca801b77" d="M657.58447,420.375,654.165,409.02246q-.04614-.27393-.41065-.27344h-1.5498c-.27393,0-.41064.12207-.41064.36426l-1.36768,11.03418a.97191.97191,0,0,1-.29639.6377.94426.94426,0,0,1-.66113.22851h-6.61084a.71351.71351,0,0,1-.59277-.22851.83743.83743,0,0,1-.13672-.6377l3.69287-30.18262a.89463.89463,0,0,1,.95752-.86621H660.001a9.0052,9.0052,0,0,1,6.51953,2.3252,8.32265,8.32265,0,0,1,2.4165,6.291q0,.457-.09082,1.55078a10.72581,10.72581,0,0,1-2.0293,5.19727,10.0488,10.0488,0,0,1-4.30859,3.32813.34608.34608,0,0,0-.22754.457l3.96631,11.76269a1.02934,1.02934,0,0,1,.0459.31934q0,.68262-.77539.68359h-7.0669A.77618.77618,0,0,1,657.58447,420.375Zm-4.28564-23.57129-.63867,5.06152q0,.36476.31933.36426h4.01221a3.7332,3.7332,0,0,0,2.57617-.91211,3.02226,3.02226,0,0,0,1.02588-2.37011,2.28341,2.28341,0,0,0-.79785-1.82422,3.07693,3.07693,0,0,0-2.07471-.6836H653.709A.40641.40641,0,0,0,653.29883,396.80371Z" transform="translate(-562.56007 -332.02197)"/><path class="8d5346e4-2e9d-4e99-9303-80f8ca801b77" d="M673.04,418.666a9.452,9.452,0,0,1-2.918-7.27247,12.68107,12.68107,0,0,1,.09131-1.77832l1.13965-9.209a13.20279,13.20279,0,0,1,2.25683-6.11035,12.53578,12.53578,0,0,1,4.7876-4.10254,14.61742,14.61742,0,0,1,6.58789-1.459,11.79084,11.79084,0,0,1,8.00195,2.55273,8.65581,8.65581,0,0,1,2.94043,6.88477q0,.45557-.09082,1.5498,0,.41016-.82129.501l-6.70214.457h-.22754q-.63867,0-.63867-.22852l.04589-.27344a3.78229,3.78229,0,0,0,.0459-.68359,3.15557,3.15557,0,0,0-3.41992-3.41992,4.23625,4.23625,0,0,0-2.98633,1.11719,4.68422,4.68422,0,0,0-1.436,2.98632l-1.18555,9.80274a3.74747,3.74747,0,0,0-.04541.68359,3.27928,3.27928,0,0,0,.93457,2.46192,3.40258,3.40258,0,0,0,2.48486.91211,4.15007,4.15007,0,0,0,2.96338-1.11719,4.69717,4.69717,0,0,0,1.41309-2.94043.599.599,0,0,1,.31933-.3877.99684.99684,0,0,1,.63868-.11425l6.61132.36523c.51563.06055.77442.13672.77442.22754l-.04492.22754a12.09522,12.09522,0,0,1-6.999,9.68945,15.2143,15.2143,0,0,1-6.58838,1.39063A11.18993,11.18993,0,0,1,673.04,418.666Z" transform="translate(-562.56007 -332.02197)"/><path class="8d5346e4-2e9d-4e99-9303-80f8ca801b77" d="M696.42773,420.78516a.84165.84165,0,0,1-.13671-.6377l3.69336-30.18262a.89423.89423,0,0,1,.958-.86621h6.61035a.71733.71733,0,0,1,.59278.22754.84528.84528,0,0,1,.13672.63867l-3.69239,30.18262a.97462.97462,0,0,1-.29687.6377.94345.94345,0,0,1-.66113.22851h-6.61133A.71481.71481,0,0,1,696.42773,420.78516Z" transform="translate(-562.56007 -332.02197)"/><path class="8d5346e4-2e9d-4e99-9303-80f8ca801b77" d="M711.42871,418.96191a7.92256,7.92256,0,0,1-2.96289-6.47363c0-.27344.0293-.71484.09082-1.32226l.09082-.457a.96775.96775,0,0,1,.29688-.63769.88294.88294,0,0,1,.61523-.22754h6.51953q.86572,0,.77539.45508l-.0459.50195a2.53207,2.53207,0,0,0,1.00391,2.23438,4.52841,4.52841,0,0,0,3.09961,1.00293,3.39172,3.39172,0,0,0,2.55371-.82129,2.45894,2.45894,0,0,0,.77441-1.68653,1.47055,1.47055,0,0,0-.84277-1.36816,17.99476,17.99476,0,0,0-2.94141-1.09375l-1.23046-.41016a20.799,20.799,0,0,1-6.49707-3.25976,6.91329,6.91329,0,0,1-2.62207-5.81348,9.66718,9.66718,0,0,1,1.71-5.65332,11.35336,11.35336,0,0,1,4.65039-3.83008,15.10479,15.10479,0,0,1,6.45215-1.36718,13.80676,13.80676,0,0,1,5.72167,1.13867,9.11678,9.11678,0,0,1,3.94336,3.25976,8.55571,8.55571,0,0,1,1.41407,4.85645q0,.41016-.0918,1.32226l-.04492.22754a.97933.97933,0,0,1-.29688.63867.87927.87927,0,0,1-.61523.22852h-6.52051q-.86573,0-.77441-.36523l.04492-.36524a3.03817,3.03817,0,0,0-.93457-2.48437,4.77435,4.77435,0,0,0-5.49317-.45606,2.107,2.107,0,0,0-.9121,1.80078,2.04045,2.04045,0,0,0,1.208,1.75489,28.29211,28.29211,0,0,0,4.582,1.84765q.36475.13623,2.80371.9336a9.01942,9.01942,0,0,1,4.08106,2.69043,6.695,6.695,0,0,1,1.6416,4.53613,10.03247,10.03247,0,0,1-1.71,5.791,11.27529,11.27529,0,0,1-4.74219,3.89844,16.15376,16.15376,0,0,1-6.81543,1.39063A12.24882,12.24882,0,0,1,711.42871,418.96191Z" transform="translate(-562.56007 -332.02197)"/><path class="8d5346e4-2e9d-4e99-9303-80f8ca801b77" d="M734.58887,420.78516a.84165.84165,0,0,1-.13672-.6377l3.69336-30.18262a.89423.89423,0,0,1,.958-.86621h6.61035a.71732.71732,0,0,1,.59277.22754.84528.84528,0,0,1,.13672.63867L742.751,420.14746a.97463.97463,0,0,1-.29688.6377.94343.94343,0,0,1-.66113.22851h-6.61133A.71479.71479,0,0,1,734.58887,420.78516Z" transform="translate(-562.56007 -332.02197)"/><path class="8d5346e4-2e9d-4e99-9303-80f8ca801b77" d="M746.35156,420.78516a.84169.84169,0,0,1-.13672-.6377l3.69336-30.18262a.89424.89424,0,0,1,.958-.86621h6.33691a.97219.97219,0,0,1,.958.59278l6.88379,15.09179a.21545.21545,0,0,0,.22852.18164c.12109,0,.19726-.10546.22754-.31933l1.73242-14.68067a.89532.89532,0,0,1,.958-.86621h6.65625a.73009.73009,0,0,1,.57031.22754.78542.78542,0,0,1,.15918.63867l-3.73828,30.18262a.97463.97463,0,0,1-.29688.6377.87931.87931,0,0,1-.61523.22851H764.544a.97082.97082,0,0,1-.958-.59277l-6.83887-15.36426c-.06152-.15234-.13672-.22852-.22754-.22852-.0918,0-.168.10743-.22851.31934l-1.77735,15a.83513.83513,0,0,1-.958.86621h-6.61132A.71481.71481,0,0,1,746.35156,420.78516Z" transform="translate(-562.56007 -332.02197)"/><path class="8d5346e4-2e9d-4e99-9303-80f8ca801b77" d="M779.01855,418.62012a9.80957,9.80957,0,0,1-2.89453-7.4541,13.67647,13.67647,0,0,1,.09082-1.82422l1.04883-8.61719a14.31544,14.31544,0,0,1,2.30274-6.292,12.43886,12.43886,0,0,1,4.78711-4.21778,14.44957,14.44957,0,0,1,6.58789-1.48046,12.84323,12.84323,0,0,1,5.76757,1.23046,9.18649,9.18649,0,0,1,3.83008,3.39649,8.93971,8.93971,0,0,1,1.34473,4.81055q0,.36474-.09082,1.27636a.80686.80686,0,0,1-.29688.52442.93942.93942,0,0,1-.61523.20507h-6.61133q-.86573,0-.77441-.22851v-.18164a3.18511,3.18511,0,0,0-3.41992-3.69336,4.13431,4.13431,0,0,0-3.00879,1.208,5.15431,5.15431,0,0,0-1.459,3.21386l-1.09472,9.11914a3.46991,3.46991,0,0,0-.04493.63868,3.69653,3.69653,0,0,0,1.04785,2.73535,3.63816,3.63816,0,0,0,2.69043,1.04883,4.33386,4.33386,0,0,0,2.80372-.93457,3.67964,3.67964,0,0,0,1.3457-2.57618l.04492-.45605v-.09082q0-.27393-.31934-.27344h-3.55566a.71351.71351,0,0,1-.59277-.22851.83685.83685,0,0,1-.13672-.63868l.59277-5.10546a.923.923,0,0,1,.31934-.63868.96246.96246,0,0,1,.63769-.22851h11.21582a.72744.72744,0,0,1,.57032.22851.78547.78547,0,0,1,.15918.63868l-.77442,6.06347a13.11762,13.11762,0,0,1-2.25683,6.01856,12.53607,12.53607,0,0,1-4.78809,4.10351,14.51539,14.51539,0,0,1-6.542,1.459A10.99752,10.99752,0,0,1,779.01855,418.62012Z" transform="translate(-562.56007 -332.02197)"/><path class="fba46ae2-f367-497f-950d-86a06098bf62" d="M620.48877,362.25a7.92156,7.92156,0,0,1-2.96387-6.47412q0-.41016.09131-1.32227l.09131-.45605a.96859.96859,0,0,1,.29639-.63818.87942.87942,0,0,1,.61523-.228h6.52q.86573,0,.7749.45605l-.04541.50147a2.52977,2.52977,0,0,0,1.00293,2.23388,4.5255,4.5255,0,0,0,3.10059,1.00342,3.39112,3.39112,0,0,0,2.55322-.8208,2.46281,2.46281,0,0,0,.7749-1.687,1.469,1.469,0,0,0-.84326-1.36768,17.9003,17.9003,0,0,0-2.94092-1.09423l-1.231-.41065a20.794,20.794,0,0,1-6.49707-3.25976,6.9101,6.9101,0,0,1-2.62159-5.813,9.67155,9.67155,0,0,1,1.70948-5.65381,11.35055,11.35055,0,0,1,4.65088-3.82959A15.10221,15.10221,0,0,1,631.978,332.022a13.7983,13.7983,0,0,1,5.72217,1.13965,9.111,9.111,0,0,1,3.94384,3.25977,8.55864,8.55864,0,0,1,1.41309,4.856q0,.41016-.09131,1.32227l-.04541.22754a.97673.97673,0,0,1-.29639.63867.88061.88061,0,0,1-.61523.228h-6.52q-.86646,0-.7749-.36475l.04541-.36474a3.04076,3.04076,0,0,0-.93457-2.48487,4.77585,4.77585,0,0,0-5.49414-.45605,2.10651,2.10651,0,0,0-.91162,1.80078,2.04165,2.04165,0,0,0,1.208,1.75537,28.401,28.401,0,0,0,4.582,1.84668q.36475.137,2.8042.93457a9.00926,9.00926,0,0,1,4.08057,2.68994,6.69175,6.69175,0,0,1,1.64111,4.53662,10.03169,10.03169,0,0,1-1.70947,5.79053,11.27177,11.27177,0,0,1-4.7417,3.89795,16.16,16.16,0,0,1-6.8164,1.39062A12.24675,12.24675,0,0,1,620.48877,362.25Z" transform="translate(-562.56007 -332.02197)"/><path class="fba46ae2-f367-497f-950d-86a06098bf62" d="M670.84619,332.61426a.78724.78724,0,0,1,.15967.63867l-.68408,5.65332a.89377.89377,0,0,1-.95752.86621H662.252a.40725.40725,0,0,0-.41015.36475l-2.87256,23.29834a.97656.97656,0,0,1-.29639.63818.881.881,0,0,1-.61572.228h-6.65625a.71268.71268,0,0,1-.59277-.228.83709.83709,0,0,1-.13672-.63818l2.87207-23.29834c0-.24268-.10694-.36475-.31885-.36475h-6.88477q-.86644,0-.7749-.86621l.72949-5.65332a.96989.96989,0,0,1,.29639-.63867.88126.88126,0,0,1,.61523-.22754h23.07032A.72971.72971,0,0,1,670.84619,332.61426Z" transform="translate(-562.56007 -332.02197)"/><path class="fba46ae2-f367-497f-950d-86a06098bf62" d="M686.55273,363.57227l-.50195-3.28272a.28043.28043,0,0,0-.11328-.228.395.395,0,0,0-.25-.09131h-9.165a.5296.5296,0,0,0-.45605.31934L674.79,363.57227a1.00359,1.00359,0,0,1-1.00293.72949H666.583q-.63867,0-.63819-.54688a1.01158,1.01158,0,0,1,.09131-.45605L678.939,333.11621a1.00375,1.00375,0,0,1,1.00293-.72949h9.11866a.775.775,0,0,1,.82031.72949l5.51758,30.18262v.18213q0,.821-.86719.8208h-7.1582A.71351.71351,0,0,1,686.55273,363.57227Zm-7.65918-10.48633q0,.31934.27344.31885h5.47168a.39774.39774,0,0,0,.29492-.11377.2889.2889,0,0,0,.06836-.29639l-1.50341-10.53223c-.03077-.15136-.09913-.22754-.20557-.22754s-.18994.07618-.25049.22754l-4.14893,10.53223Z" transform="translate(-562.56007 -332.02197)"/><path class="fba46ae2-f367-497f-950d-86a06098bf62" d="M713.68066,363.66357l-3.41894-11.353c-.03027-.18213-.168-.27344-.41016-.27344h-1.55078c-.27344,0-.41016.12207-.41016.36475l-1.36718,11.03369a.977.977,0,0,1-.29688.63818.94317.94317,0,0,1-.66113.228H698.9541a.7146.7146,0,0,1-.59277-.228.84342.84342,0,0,1-.13672-.63818l3.69336-30.18262a.89423.89423,0,0,1,.958-.86621h13.22168a9.00726,9.00726,0,0,1,6.51953,2.32519,8.32155,8.32155,0,0,1,2.417,6.29151q0,.4563-.0918,1.55029a10.735,10.735,0,0,1-2.02832,5.19775,10.0686,10.0686,0,0,1-4.30859,3.32813.34629.34629,0,0,0-.22852.45605l3.9668,11.76319a1.01424,1.01424,0,0,1,.0459.31885q0,.68408-.77539.68408h-7.06641A.77655.77655,0,0,1,713.68066,363.66357Zm-4.28515-23.57177-.63867,5.061c0,.24365.10644.36475.31933.36475h4.0127a3.73154,3.73154,0,0,0,2.57519-.91211,3.01982,3.01982,0,0,0,1.02637-2.37061,2.28312,2.28312,0,0,0-.79785-1.82373,3.0759,3.0759,0,0,0-2.07422-.68408h-4.0127A.40684.40684,0,0,0,709.39551,340.0918Z" transform="translate(-562.56007 -332.02197)"/><path class="fba46ae2-f367-497f-950d-86a06098bf62" d="M752.68555,332.61426a.7854.7854,0,0,1,.15918.63867l-.6836,5.65332a.895.895,0,0,1-.958.86621h-7.1123a.40726.40726,0,0,0-.41016.36475l-2.873,23.29834a.97169.97169,0,0,1-.2959.63818.88062.88062,0,0,1-.61524.228h-6.65722a.71335.71335,0,0,1-.59278-.228.84342.84342,0,0,1-.13671-.63818l2.873-23.29834c0-.24268-.10742-.36475-.31933-.36475h-6.88477q-.86718,0-.77539-.86621l.72949-5.65332a.97028.97028,0,0,1,.29688-.63867.88294.88294,0,0,1,.61523-.22754h23.07031A.73151.73151,0,0,1,752.68555,332.61426Z" transform="translate(-562.56007 -332.02197)"/><path class="fba46ae2-f367-497f-950d-86a06098bf62" d="M589.05322,394.43945H576.15039a.40642.40642,0,0,0-.41016.36426l-.50146,4.0127q0,.36474.31885.36425h7.88769a.72905.72905,0,0,1,.56983.22754.78724.78724,0,0,1,.15966.63868l-.68408,5.5625a.89332.89332,0,0,1-.957.86621H574.646a.32224.32224,0,0,0-.36475.36425l-.54736,4.46875v.09082a.24232.24232,0,0,0,.27343.27442h12.94873a.72972.72972,0,0,1,.56983.22754.785.785,0,0,1,.15967.63769l-.68409,5.6084a.924.924,0,0,1-.31884.6377.96685.96685,0,0,1-.63867.22851H565.29932a.71354.71354,0,0,1-.59278-.22851.83747.83747,0,0,1-.13672-.6377l3.69288-30.18262a.89462.89462,0,0,1,.95751-.86621h20.74512a.72972.72972,0,0,1,.56983.22754.78722.78722,0,0,1,.15966.63867l-.68408,5.60743A.89451.89451,0,0,1,589.05322,394.43945Z" transform="translate(-562.56007 -332.02197)"/><path class="fba46ae2-f367-497f-950d-86a06098bf62" d="M589.23535,418.51172a1.151,1.151,0,0,1,.18262-.54688l9.71142-14.68066a.47426.47426,0,0,0,.04541-.45606l-6.064-14.68164a1.42956,1.42956,0,0,1-.09131-.41015q0-.63722.77539-.6377h7.249a.93814.93814,0,0,1,.9121.6377l3.19141,8.29883q.09082.18163.20508.18164.11352,0,.20557-.18164l5.24316-8.29883a1.14808,1.14808,0,0,1,1.04834-.6377h7.2041q.63794,0,.63818.45606a1.21027,1.21027,0,0,1-.18261.59179l-9.62012,14.68164a.41262.41262,0,0,0-.09131.45606l6.064,14.68066a1.4607,1.4607,0,0,1,.0913.41016q0,.63867-.8208.63867h-7.1582a.93636.93636,0,0,1-.91162-.63867l-3.19141-8.29688c-.06152-.12109-.13671-.18359-.228-.18359s-.16748.0625-.228.18359L598.126,418.375a1.14781,1.14781,0,0,1-1.04834.63867H589.874C589.44775,419.01367,589.23535,418.84766,589.23535,418.51172Z" transform="translate(-562.56007 -332.02197)"/><path class="fba46ae2-f367-497f-950d-86a06098bf62" d="M643.39941,394.43945H630.49658a.40641.40641,0,0,0-.41015.36426l-.50147,4.0127q0,.36474.31885.36425h7.88769a.72905.72905,0,0,1,.56983.22754.78728.78728,0,0,1,.15967.63868l-.68409,5.5625a.89332.89332,0,0,1-.957.86621h-7.88769a.32224.32224,0,0,0-.36475.36425l-.54736,4.46875v.09082a.24232.24232,0,0,0,.27344.27442h12.94873a.72971.72971,0,0,1,.56982.22754.785.785,0,0,1,.15967.63769l-.68408,5.6084a.924.924,0,0,1-.31885.6377.96685.96685,0,0,1-.63867.22851H619.64551a.71354.71354,0,0,1-.59278-.22851.83743.83743,0,0,1-.13671-.6377l3.69287-30.18262a.89463.89463,0,0,1,.95752-.86621h20.74511a.72972.72972,0,0,1,.56983.22754.78726.78726,0,0,1,.15967.63867l-.68409,5.60743A.89451.89451,0,0,1,643.39941,394.43945Z" transform="translate(-562.56007 -332.02197)"/><path class="fba46ae2-f367-497f-950d-86a06098bf62" d="M659.585,418.375l-3.41943-11.35254q-.04614-.27393-.41065-.27344h-1.5498c-.27393,0-.41065.12207-.41065.36426l-1.36767,11.03418a.972.972,0,0,1-.29639.6377.94426.94426,0,0,1-.66113.22851H644.8584a.71354.71354,0,0,1-.59278-.22851.83743.83743,0,0,1-.13671-.6377l3.69287-30.18262a.89463.89463,0,0,1,.95752-.86621h13.22216a9.00521,9.00521,0,0,1,6.51954,2.3252,8.32265,8.32265,0,0,1,2.4165,6.291q0,.457-.09082,1.55078a10.72581,10.72581,0,0,1-2.0293,5.19727,10.04886,10.04886,0,0,1-4.30859,3.32813.34608.34608,0,0,0-.22754.457l3.96631,11.76269a1.02964,1.02964,0,0,1,.0459.31934q0,.68262-.77539.68359h-7.0669A.77617.77617,0,0,1,659.585,418.375Zm-4.28564-23.57129-.63868,5.06152q0,.36476.31934.36426h4.01221a3.7332,3.7332,0,0,0,2.57617-.91211,3.02226,3.02226,0,0,0,1.02588-2.37011,2.28341,2.28341,0,0,0-.79785-1.82422,3.07693,3.07693,0,0,0-2.07471-.6836h-4.01221A.40641.40641,0,0,0,655.29932,394.80371Z" transform="translate(-562.56007 -332.02197)"/><path class="fba46ae2-f367-497f-950d-86a06098bf62" d="M675.04,416.666a9.452,9.452,0,0,1-2.918-7.27247,12.68107,12.68107,0,0,1,.09131-1.77832l1.13965-9.209a13.20279,13.20279,0,0,1,2.25683-6.11035,12.53578,12.53578,0,0,1,4.7876-4.10254,14.61889,14.61889,0,0,1,6.58789-1.459,11.79084,11.79084,0,0,1,8.00195,2.55273,8.65581,8.65581,0,0,1,2.94043,6.88477q0,.45557-.09082,1.5498,0,.41016-.82129.501l-6.70214.457h-.22754q-.63867,0-.63867-.22852l.04589-.27344a3.78229,3.78229,0,0,0,.0459-.68359,3.15557,3.15557,0,0,0-3.41992-3.41992,4.23542,4.23542,0,0,0-2.98633,1.11719,4.68422,4.68422,0,0,0-1.436,2.98632l-1.18555,9.80274a3.74747,3.74747,0,0,0-.04541.68359,3.27928,3.27928,0,0,0,.93457,2.46192,3.40258,3.40258,0,0,0,2.48486.91211,4.15249,4.15249,0,0,0,2.96338-1.11719,4.69717,4.69717,0,0,0,1.41309-2.94043.599.599,0,0,1,.31933-.3877.99684.99684,0,0,1,.63868-.11425l6.61132.36523c.51563.06055.77442.13672.77442.22754l-.04492.22754a12.09522,12.09522,0,0,1-6.999,9.68945,15.21584,15.21584,0,0,1-6.58838,1.39063A11.18993,11.18993,0,0,1,675.04,416.666Z" transform="translate(-562.56007 -332.02197)"/><path class="fba46ae2-f367-497f-950d-86a06098bf62" d="M698.42871,418.78516a.84169.84169,0,0,1-.13672-.6377l3.69336-30.18262a.89424.89424,0,0,1,.958-.86621h6.61035a.71731.71731,0,0,1,.59277.22754.84519.84519,0,0,1,.13672.63867l-3.69238,30.18262a.97462.97462,0,0,1-.29687.6377.94347.94347,0,0,1-.66114.22851h-6.61133A.7148.7148,0,0,1,698.42871,418.78516Z" transform="translate(-562.56007 -332.02197)"/><path class="fba46ae2-f367-497f-950d-86a06098bf62" d="M713.42871,416.96191a7.92256,7.92256,0,0,1-2.96289-6.47363c0-.27344.0293-.71484.09082-1.32226l.09082-.457a.96775.96775,0,0,1,.29688-.63769.88294.88294,0,0,1,.61523-.22754h6.51953q.86572,0,.77539.45508l-.0459.50195a2.53207,2.53207,0,0,0,1.00391,2.23438,4.52841,4.52841,0,0,0,3.09961,1.00293,3.39172,3.39172,0,0,0,2.55371-.82129,2.45894,2.45894,0,0,0,.77441-1.68653,1.47055,1.47055,0,0,0-.84277-1.36816,17.99476,17.99476,0,0,0-2.94141-1.09375l-1.23046-.41016a20.799,20.799,0,0,1-6.49707-3.25976,6.91329,6.91329,0,0,1-2.62207-5.81348,9.66718,9.66718,0,0,1,1.71-5.65332,11.35336,11.35336,0,0,1,4.65039-3.83008,15.10479,15.10479,0,0,1,6.45215-1.36718,13.80676,13.80676,0,0,1,5.72167,1.13867,9.11678,9.11678,0,0,1,3.94336,3.25976,8.55571,8.55571,0,0,1,1.41407,4.85645q0,.41016-.0918,1.32226l-.04492.22754a.97933.97933,0,0,1-.29688.63867.87927.87927,0,0,1-.61523.22852h-6.52051q-.86573,0-.77441-.36523l.04492-.36524a3.03817,3.03817,0,0,0-.93457-2.48437,4.77435,4.77435,0,0,0-5.49317-.45606,2.107,2.107,0,0,0-.9121,1.80078,2.04045,2.04045,0,0,0,1.208,1.75489,28.29211,28.29211,0,0,0,4.582,1.84765q.36475.13623,2.80371.9336a9.01942,9.01942,0,0,1,4.08106,2.69043,6.695,6.695,0,0,1,1.6416,4.53613,10.03247,10.03247,0,0,1-1.71,5.791,11.27529,11.27529,0,0,1-4.74219,3.89844,16.15376,16.15376,0,0,1-6.81543,1.39063A12.24882,12.24882,0,0,1,713.42871,416.96191Z" transform="translate(-562.56007 -332.02197)"/><path class="fba46ae2-f367-497f-950d-86a06098bf62" d="M736.58984,418.78516a.84169.84169,0,0,1-.13672-.6377l3.69336-30.18262a.89424.89424,0,0,1,.958-.86621h6.61035a.71733.71733,0,0,1,.59278.22754.84528.84528,0,0,1,.13672.63867L744.752,418.14746a.97462.97462,0,0,1-.29687.6377.94345.94345,0,0,1-.66113.22851h-6.61133A.71481.71481,0,0,1,736.58984,418.78516Z" transform="translate(-562.56007 -332.02197)"/><path class="fba46ae2-f367-497f-950d-86a06098bf62" d="M748.35254,418.78516a.84169.84169,0,0,1-.13672-.6377l3.69336-30.18262a.89424.89424,0,0,1,.958-.86621h6.33691a.9722.9722,0,0,1,.958.59278l6.88379,15.09179a.21543.21543,0,0,0,.22851.18164c.1211,0,.19727-.10546.22754-.31933l1.73243-14.68067a.89531.89531,0,0,1,.958-.86621h6.65625a.73009.73009,0,0,1,.57032.22754.78542.78542,0,0,1,.15917.63867l-3.73828,30.18262a.97462.97462,0,0,1-.29687.6377.87932.87932,0,0,1-.61524.22851h-6.38281a.97083.97083,0,0,1-.958-.59277l-6.83886-15.36426c-.06153-.15234-.13672-.22852-.22754-.22852-.0918,0-.168.10743-.22852.31934l-1.77734,15a.83514.83514,0,0,1-.958.86621h-6.61133A.7148.7148,0,0,1,748.35254,418.78516Z" transform="translate(-562.56007 -332.02197)"/><path class="fba46ae2-f367-497f-950d-86a06098bf62" d="M781.01953,416.62012a9.80953,9.80953,0,0,1-2.89453-7.4541,13.67647,13.67647,0,0,1,.09082-1.82422l1.04883-8.61719a14.31555,14.31555,0,0,1,2.30273-6.292,12.43886,12.43886,0,0,1,4.78711-4.21778,14.44957,14.44957,0,0,1,6.58789-1.48046,12.84327,12.84327,0,0,1,5.76758,1.23046,9.18649,9.18649,0,0,1,3.83008,3.39649,8.9398,8.9398,0,0,1,1.34473,4.81055q0,.36474-.09082,1.27636a.8069.8069,0,0,1-.29688.52442.93942.93942,0,0,1-.61523.20507h-6.61133q-.86572,0-.77442-.22851v-.18164a3.1851,3.1851,0,0,0-3.41992-3.69336,4.13433,4.13433,0,0,0-3.00879,1.208,5.15431,5.15431,0,0,0-1.459,3.21386l-1.09473,9.11914a3.471,3.471,0,0,0-.04492.63868,3.69649,3.69649,0,0,0,1.04785,2.73535,3.63814,3.63814,0,0,0,2.69043,1.04883,4.33382,4.33382,0,0,0,2.80371-.93457,3.67965,3.67965,0,0,0,1.34571-2.57618l.04492-.45605v-.09082q0-.27393-.31934-.27344h-3.55566a.71354.71354,0,0,1-.59278-.22851.8368.8368,0,0,1-.13671-.63868l.59277-5.10546a.923.923,0,0,1,.31933-.63868.96249.96249,0,0,1,.6377-.22851H802.5625a.72743.72743,0,0,1,.57031.22851.7854.7854,0,0,1,.15918.63868l-.77441,6.06347a13.11763,13.11763,0,0,1-2.25684,6.01856,12.536,12.536,0,0,1-4.78808,4.10351,14.51543,14.51543,0,0,1-6.542,1.459A10.99752,10.99752,0,0,1,781.01953,416.62012Z" transform="translate(-562.56007 -332.02197)"/></svg>