<svg id="eebd35de-9cb9-41f3-ae6d-1d05b64db887" data-name="Layer 1" xmlns="http://www.w3.org/2000/svg" viewBox="0 0 317.13672 89.53906"><defs><style>.\33 ba2ae5e-d4a7-434e-8d12-b020c3b32fc8{fill:#ed1e79;}.a515824d-1230-45a0-9407-3c2a4c2e3326{fill:#333;}</style></defs><title>start</title><path class="3ba2ae5e-d4a7-434e-8d12-b020c3b32fc8" d="M527.82715,641.77539a7.92381,7.92381,0,0,1-2.96387-6.47461q0-.41016.09131-1.32226l.09131-.45606a.96728.96728,0,0,1,.29639-.63769.8776.8776,0,0,1,.61523-.22852h6.52q.86573,0,.7749.45605l-.04541.501a2.53013,2.53013,0,0,0,1.00293,2.23438,4.52573,4.52573,0,0,0,3.10059,1.0039,3.39117,3.39117,0,0,0,2.55322-.82129,2.46357,2.46357,0,0,0,.7749-1.68652,1.46921,1.46921,0,0,0-.84326-1.36816,17.89,17.89,0,0,0-2.94092-1.09473l-1.231-.41016a20.78372,20.78372,0,0,1-6.49708-3.25976,6.90853,6.90853,0,0,1-2.62158-5.8125,9.672,9.672,0,0,1,1.70948-5.6543,11.35932,11.35932,0,0,1,4.65087-3.83008,15.102,15.102,0,0,1,6.45118-1.36718,13.806,13.806,0,0,1,5.72216,1.13964,9.11436,9.11436,0,0,1,3.94385,3.25977,8.558,8.558,0,0,1,1.41309,4.85644q0,.41016-.09131,1.32227l-.04541.22656a.97444.97444,0,0,1-.29639.63867.881.881,0,0,1-.61523.22852h-6.52q-.86646,0-.7749-.36523l.04541-.36426a3.04285,3.04285,0,0,0-.93457-2.48535,4.06959,4.06959,0,0,0-3.07764-1.11719,4.02346,4.02346,0,0,0-2.4165.66211,2.10533,2.10533,0,0,0-.91163,1.80078,2.04157,2.04157,0,0,0,1.208,1.75488,28.44678,28.44678,0,0,0,4.582,1.84668q.36475.1377,2.8042.93457a9.00234,9.00234,0,0,1,4.08057,2.69043,6.69049,6.69049,0,0,1,1.64111,4.53613,10.029,10.029,0,0,1-1.70947,5.79,11.2727,11.2727,0,0,1-4.7417,3.89844,16.15989,16.15989,0,0,1-6.81641,1.39063A12.24658,12.24658,0,0,1,527.82715,641.77539Z" transform="translate(-524.86328 -609.54688)"/><path class="3ba2ae5e-d4a7-434e-8d12-b020c3b32fc8" d="M578.18457,612.13867a.78827.78827,0,0,1,.15967.63867l-.68408,5.6543a.89331.89331,0,0,1-.95752.86524h-7.11231a.40809.40809,0,0,0-.41015.36523l-2.87256,23.29883a.97419.97419,0,0,1-.29639.63769.88055.88055,0,0,1-.61572.22754h-6.65625a.71249.71249,0,0,1-.59278-.22754.8353.8353,0,0,1-.13671-.63769l2.87207-23.29883c0-.24219-.10694-.36523-.31885-.36523h-6.88477q-.86644,0-.7749-.86524l.72949-5.6543a.97213.97213,0,0,1,.29639-.63867.885.885,0,0,1,.61523-.22656h23.07032A.73244.73244,0,0,1,578.18457,612.13867Z" transform="translate(-524.86328 -609.54688)"/><path class="3ba2ae5e-d4a7-434e-8d12-b020c3b32fc8" d="M593.8916,643.09766l-.50146-3.28321a.28434.28434,0,0,0-.11426-.22851.39367.39367,0,0,0-.25049-.09082h-9.16455a.5287.5287,0,0,0-.45605.31933l-1.27637,3.28321a1.00273,1.00273,0,0,1-1.00293.72851h-7.2041q-.63867,0-.63819-.54687a1.00862,1.00862,0,0,1,.09131-.45508l12.90283-30.1836a1.00344,1.00344,0,0,1,1.00293-.72851h9.11866a.7764.7764,0,0,1,.8208.72851l5.5166,30.1836v.18164q0,.8203-.86621.82031h-7.15821A.71238.71238,0,0,1,593.8916,643.09766Zm-7.65967-10.48633c0,.21289.09082.31836.27344.31836h5.47119a.40082.40082,0,0,0,.29639-.11328.29418.29418,0,0,0,.06836-.29688l-1.5044-10.53223c-.03076-.15136-.09912-.22753-.20556-.22753s-.18994.07617-.25049.22753l-4.14893,10.53223Z" transform="translate(-524.86328 -609.54688)"/><path class="3ba2ae5e-d4a7-434e-8d12-b020c3b32fc8" d="M621.019,643.18848l-3.41943-11.35254q-.04614-.27393-.41065-.27344h-1.5498q-.41089,0-.41064.36426l-1.36768,11.03418a.97186.97186,0,0,1-.29639.63769.94369.94369,0,0,1-.66113.22754h-6.61084a.71309.71309,0,0,1-.59277-.22754.83739.83739,0,0,1-.13672-.63769l3.69287-30.1836a.89446.89446,0,0,1,.95752-.86523h13.22217a9.00877,9.00877,0,0,1,6.51953,2.32422,8.32638,8.32638,0,0,1,2.4165,6.292c0,.30371-.03027.82129-.09082,1.5498a10.73316,10.73316,0,0,1-2.0293,5.19825,10.06368,10.06368,0,0,1-4.30859,3.32812.34477.34477,0,0,0-.22754.45606l3.96631,11.76367a1.02285,1.02285,0,0,1,.0459.31836q0,.68408-.77539.68359h-7.0669A.77549.77549,0,0,1,621.019,643.18848Zm-4.28564-23.57129-.63867,5.06054c0,.24415.10644.36524.31933.36524h4.01221a3.73784,3.73784,0,0,0,2.57617-.91211,3.02427,3.02427,0,0,0,1.02588-2.37109,2.28477,2.28477,0,0,0-.79785-1.82422,3.08193,3.08193,0,0,0-2.07471-.6836h-4.01221A.4065.4065,0,0,0,616.7334,619.61719Z" transform="translate(-524.86328 -609.54688)"/><path class="3ba2ae5e-d4a7-434e-8d12-b020c3b32fc8" d="M660.02344,612.13867a.78827.78827,0,0,1,.15967.63867l-.68409,5.6543a.8933.8933,0,0,1-.95752.86524h-7.1123a.40811.40811,0,0,0-.41016.36523l-2.87256,23.29883a.97418.97418,0,0,1-.29638.63769.88055.88055,0,0,1-.61572.22754h-6.65626a.71248.71248,0,0,1-.59277-.22754.83534.83534,0,0,1-.13672-.63769l2.87207-23.29883c0-.24219-.10693-.36523-.31884-.36523h-6.88477q-.86646,0-.7749-.86524l.72949-5.6543a.97208.97208,0,0,1,.29639-.63867.885.885,0,0,1,.61523-.22656h23.07031A.73245.73245,0,0,1,660.02344,612.13867Z" transform="translate(-524.86328 -609.54688)"/><path class="3ba2ae5e-d4a7-434e-8d12-b020c3b32fc8" d="M671.55762,641.43359a9.80992,9.80992,0,0,1-2.895-7.45507,13.77927,13.77927,0,0,1,.09082-1.82422l1.04883-8.61719a14.32158,14.32158,0,0,1,2.30224-6.291,12.44289,12.44289,0,0,1,4.7876-4.21777,14.43746,14.43746,0,0,1,6.58789-1.48144,12.84982,12.84982,0,0,1,5.76807,1.23046,9.19236,9.19236,0,0,1,3.83007,3.39649,8.94372,8.94372,0,0,1,1.34376,4.81055c0,.24414-.0293.66894-.08985,1.27734a.8088.8088,0,0,1-.29687.52344.94311.94311,0,0,1-.61524.20507h-6.61133q-.86718,0-.77539-.22753v-.18262a3.18489,3.18489,0,0,0-3.41943-3.69336,4.136,4.136,0,0,0-3.00879,1.209,5.15445,5.15445,0,0,0-1.459,3.21387l-1.09424,9.11816a3.4201,3.4201,0,0,0-.0459.63868,3.699,3.699,0,0,0,1.04883,2.73632,3.64079,3.64079,0,0,0,2.68994,1.04883,4.33451,4.33451,0,0,0,2.80371-.93554,3.68,3.68,0,0,0,1.34619-2.57618l.04492-.45507v-.0918c0-.18164-.10742-.27344-.31933-.27344H681.064a.7129.7129,0,0,1-.59277-.22851.83538.83538,0,0,1-.13672-.6377l.59229-5.10644a.92876.92876,0,0,1,.31933-.63868.96891.96891,0,0,1,.63819-.22754h11.21533a.72871.72871,0,0,1,.57031.22754.78909.78909,0,0,1,.16016.63868l-.77539,6.06445a13.09767,13.09767,0,0,1-2.25586,6.01758,12.53782,12.53782,0,0,1-4.78906,4.10351,14.511,14.511,0,0,1-6.542,1.459A10.9945,10.9945,0,0,1,671.55762,641.43359Z" transform="translate(-524.86328 -609.54688)"/><path class="3ba2ae5e-d4a7-434e-8d12-b020c3b32fc8" d="M719.22559,619.252H706.32227a.40651.40651,0,0,0-.41016.36524l-.50195,4.01172c0,.24414.10644.36523.31933.36523h7.8877a.73009.73009,0,0,1,.57031.22754.78315.78315,0,0,1,.15918.6377l-.68359,5.5625a.89494.89494,0,0,1-.958.86718h-7.8877a.32171.32171,0,0,0-.36426.36426l-.54687,4.46777v.0918a.24182.24182,0,0,0,.27344.27344h12.94824a.72882.72882,0,0,1,.57031.22851.78313.78313,0,0,1,.15918.6377l-.68359,5.6084a.92634.92634,0,0,1-.31934.63769.96592.96592,0,0,1-.63867.22754H695.4707a.71438.71438,0,0,1-.59277-.22754.84165.84165,0,0,1-.13672-.63769l3.69336-30.1836a.89407.89407,0,0,1,.958-.86523h20.74414a.73281.73281,0,0,1,.57031.22656.78642.78642,0,0,1,.15918.63867l-.68359,5.6084A.89394.89394,0,0,1,719.22559,619.252Z" transform="translate(-524.86328 -609.54688)"/><path class="3ba2ae5e-d4a7-434e-8d12-b020c3b32fc8" d="M747.28809,612.13867a.78646.78646,0,0,1,.15918.63867l-.6836,5.6543a.89453.89453,0,0,1-.958.86524h-7.1123a.40811.40811,0,0,0-.41016.36523l-2.873,23.29883a.96929.96929,0,0,1-.2959.63769.88019.88019,0,0,1-.61524.22754H727.8418a.71313.71313,0,0,1-.59278-.22754.84165.84165,0,0,1-.13672-.63769l2.87305-23.29883c0-.24219-.10742-.36523-.31933-.36523h-6.88477q-.8672,0-.77539-.86524l.72949-5.6543a.97248.97248,0,0,1,.29688-.63867.88667.88667,0,0,1,.61523-.22656h23.07031A.73424.73424,0,0,1,747.28809,612.13867Z" transform="translate(-524.86328 -609.54688)"/><path class="3ba2ae5e-d4a7-434e-8d12-b020c3b32fc8" d="M773.59473,612.13867a.78642.78642,0,0,1,.15918.63867l-.6836,5.6543a.89453.89453,0,0,1-.958.86524H765a.40811.40811,0,0,0-.41016.36523l-2.873,23.29883a.96929.96929,0,0,1-.2959.63769.88019.88019,0,0,1-.61524.22754h-6.65722a.71313.71313,0,0,1-.59278-.22754.84161.84161,0,0,1-.13671-.63769l2.873-23.29883c0-.24219-.10742-.36523-.31933-.36523h-6.88477q-.86718,0-.77539-.86524l.72949-5.6543a.97253.97253,0,0,1,.29688-.63867.88667.88667,0,0,1,.61523-.22656h23.07031A.73424.73424,0,0,1,773.59473,612.13867Z" transform="translate(-524.86328 -609.54688)"/><path class="3ba2ae5e-d4a7-434e-8d12-b020c3b32fc8" d="M772.70508,643.59863a.84161.84161,0,0,1-.13672-.63769l3.69336-30.1836a.89407.89407,0,0,1,.958-.86523h6.61035a.71989.71989,0,0,1,.59277.22656.84631.84631,0,0,1,.13672.63867l-3.69238,30.1836a.97458.97458,0,0,1-.29688.63769.94286.94286,0,0,1-.66113.22754h-6.61133A.71437.71437,0,0,1,772.70508,643.59863Z" transform="translate(-524.86328 -609.54688)"/><path class="3ba2ae5e-d4a7-434e-8d12-b020c3b32fc8" d="M784.46777,643.59863a.84165.84165,0,0,1-.13672-.63769l3.69336-30.1836a.89407.89407,0,0,1,.958-.86523h6.33692a.9714.9714,0,0,1,.958.5918l6.88379,15.09179a.21545.21545,0,0,0,.22852.18164c.12109,0,.19726-.10546.22754-.31836l1.73242-14.68164a.89515.89515,0,0,1,.958-.86523h6.65625a.73281.73281,0,0,1,.57031.22656.78642.78642,0,0,1,.15918.63867l-3.73828,30.1836a.97454.97454,0,0,1-.29688.63769.87851.87851,0,0,1-.61523.22754h-6.38281a.97141.97141,0,0,1-.958-.59179l-6.83887-15.36524c-.06152-.15234-.13672-.22852-.22754-.22852-.09179,0-.168.10743-.22851.32032l-1.77735,15a.83444.83444,0,0,1-.958.86523h-6.61133A.71439.71439,0,0,1,784.46777,643.59863Z" transform="translate(-524.86328 -609.54688)"/><path class="3ba2ae5e-d4a7-434e-8d12-b020c3b32fc8" d="M817.13477,641.43359a9.8132,9.8132,0,0,1-2.89454-7.45507,13.69641,13.69641,0,0,1,.09082-1.82422l1.04883-8.61719a14.316,14.316,0,0,1,2.30274-6.291,12.431,12.431,0,0,1,4.78711-4.21777,14.43746,14.43746,0,0,1,6.58789-1.48144,12.8433,12.8433,0,0,1,5.76758,1.23046,9.18646,9.18646,0,0,1,3.83007,3.39649A8.94453,8.94453,0,0,1,840,620.98438c0,.24414-.03027.66894-.09082,1.27734a.80466.80466,0,0,1-.29688.52344.93942.93942,0,0,1-.61523.20507h-6.61133q-.86573,0-.77441-.22753v-.18262a3.18612,3.18612,0,0,0-3.41992-3.69336,4.13519,4.13519,0,0,0-3.00879,1.209,5.15192,5.15192,0,0,0-1.459,3.21387l-1.09472,9.11816a3.4771,3.4771,0,0,0-.04493.63868,3.70028,3.70028,0,0,0,1.04786,2.73632,3.6419,3.6419,0,0,0,2.69043,1.04883,4.33453,4.33453,0,0,0,2.80371-.93554,3.67767,3.67767,0,0,0,1.3457-2.57618l.04492-.45507v-.0918c0-.18164-.10644-.27344-.31933-.27344H826.6416a.71351.71351,0,0,1-.59277-.22851.8333.8333,0,0,1-.13672-.6377l.59277-5.10644a.923.923,0,0,1,.31934-.63868.96669.96669,0,0,1,.63769-.22754h11.21582a.73013.73013,0,0,1,.57032.22754.78543.78543,0,0,1,.15918.63868l-.77442,6.06445a13.10964,13.10964,0,0,1-2.25683,6.01758,12.52769,12.52769,0,0,1-4.78809,4.10351,14.51539,14.51539,0,0,1-6.542,1.459A10.997,10.997,0,0,1,817.13477,641.43359Z" transform="translate(-524.86328 -609.54688)"/><path class="3ba2ae5e-d4a7-434e-8d12-b020c3b32fc8" d="M577.02246,666.85156a.78624.78624,0,0,1,.15967.63867l-.68408,5.65235a.89426.89426,0,0,1-.95752.86719h-7.11231a.4064.4064,0,0,0-.41015.36425l-2.87256,23.29786a.979.979,0,0,1-.29639.63867.88136.88136,0,0,1-.61572.22851h-6.65625a.71287.71287,0,0,1-.59277-.22851.83884.83884,0,0,1-.13672-.63867l2.87207-23.29786c0-.24316-.10694-.36425-.31885-.36425h-6.88477q-.86644,0-.7749-.86719l.72949-5.65235a.96773.96773,0,0,1,.29639-.63867.87763.87763,0,0,1,.61523-.22851h23.07032A.72706.72706,0,0,1,577.02246,666.85156Z" transform="translate(-524.86328 -609.54688)"/><path class="3ba2ae5e-d4a7-434e-8d12-b020c3b32fc8" d="M595.647,666.85156a.96593.96593,0,0,1,.63867-.22851h6.65625a.72814.72814,0,0,1,.57032.22851.78441.78441,0,0,1,.15918.63867l-3.69287,30.18165a.92881.92881,0,0,1-.31934.63867.96465.96465,0,0,1-.63818.22851h-6.65674a.72568.72568,0,0,1-.56983-.22851.78547.78547,0,0,1-.15966-.63867l1.36816-11.26172v-.08985a.24208.24208,0,0,0-.27393-.27441h-6.65625a.40734.40734,0,0,0-.41064.36426l-1.36768,11.26172a.97672.97672,0,0,1-.29638.63867.94429.94429,0,0,1-.66114.22851h-6.61084a.71352.71352,0,0,1-.59277-.22851.841.841,0,0,1-.13672-.63867l3.69287-30.18165a.89479.89479,0,0,1,.95752-.86718h6.61084a.71354.71354,0,0,1,.59278.22851.84415.84415,0,0,1,.13671.63867l-1.32177,10.85059q0,.36474.31885.36426h6.61132q.41016,0,.41016-.36426l1.32226-10.85059A.92438.92438,0,0,1,595.647,666.85156Z" transform="translate(-524.86328 -609.54688)"/><path class="3ba2ae5e-d4a7-434e-8d12-b020c3b32fc8" d="M603.16943,698.31055a.841.841,0,0,1-.13672-.63867l3.69288-30.18165a.89478.89478,0,0,1,.95752-.86718H614.294a.71352.71352,0,0,1,.59277.22851.84419.84419,0,0,1,.13672.63867l-3.69287,30.18165a.97678.97678,0,0,1-.29639.63867.94428.94428,0,0,1-.66113.22851h-6.61084A.71354.71354,0,0,1,603.16943,698.31055Z" transform="translate(-524.86328 -609.54688)"/><path class="3ba2ae5e-d4a7-434e-8d12-b020c3b32fc8" d="M614.93213,698.31055a.841.841,0,0,1-.13672-.63867l3.69287-30.18165a.89479.89479,0,0,1,.95752-.86718h6.3374a.9711.9711,0,0,1,.95752.59277l6.88477,15.0918a.21464.21464,0,0,0,.228.18261c.12109,0,.19726-.10644.22753-.32031l1.73291-14.67969a.89425.89425,0,0,1,.95752-.86718h6.65625a.72637.72637,0,0,1,.56983.22851.78274.78274,0,0,1,.15967.63867L640.419,697.67188a.97908.97908,0,0,1-.29639.63867.88136.88136,0,0,1-.61572.22851H633.124a.96917.96917,0,0,1-.95752-.59375l-6.83935-15.36426c-.061-.15136-.13672-.22753-.22754-.22753-.09131,0-.16748.10644-.228.31836l-1.77832,15a.83453.83453,0,0,1-.95752.86718H615.5249A.71351.71351,0,0,1,614.93213,698.31055Z" transform="translate(-524.86328 -609.54688)"/><path class="3ba2ae5e-d4a7-434e-8d12-b020c3b32fc8" d="M647.59912,696.14453a9.80483,9.80483,0,0,1-2.895-7.4541,13.75423,13.75423,0,0,1,.09082-1.82324l1.04883-8.61719a14.32944,14.32944,0,0,1,2.30225-6.293,12.4483,12.4483,0,0,1,4.78759-4.2168,14.43749,14.43749,0,0,1,6.58789-1.48144,12.829,12.829,0,0,1,5.76758,1.23144,9.18351,9.18351,0,0,1,3.83008,3.39649,8.93825,8.93825,0,0,1,1.34473,4.80957q0,.36474-.09082,1.27637a.81078.81078,0,0,1-.29639.52539.94168.94168,0,0,1-.61572.20507H662.8501q-.86646,0-.77539-.22851V677.292a3.18485,3.18485,0,0,0-3.41944-3.69238,4.13427,4.13427,0,0,0-3.00879,1.207,5.15956,5.15956,0,0,0-1.459,3.21484l-1.09424,9.11914a3.40585,3.40585,0,0,0-.0459.63868,3.69449,3.69449,0,0,0,1.04883,2.73437,3.637,3.637,0,0,0,2.68994,1.04883,4.32837,4.32837,0,0,0,2.80371-.93457,3.67319,3.67319,0,0,0,1.34522-2.5752l.04541-.457v-.09082q0-.27391-.31885-.27343h-3.55615a.71249.71249,0,0,1-.59277-.22754.83885.83885,0,0,1-.13672-.63868l.59228-5.10644a.92651.92651,0,0,1,.31934-.6377.96463.96463,0,0,1,.63818-.22851h11.21631a.727.727,0,0,1,.56982.22851.785.785,0,0,1,.15967.6377l-.77539,6.06348a13.09722,13.09722,0,0,1-2.25683,6.01855,12.53314,12.53314,0,0,1-4.78711,4.10352,14.5068,14.5068,0,0,1-6.543,1.459A10.99078,10.99078,0,0,1,647.59912,696.14453Z" transform="translate(-524.86328 -609.54688)"/><path class="3ba2ae5e-d4a7-434e-8d12-b020c3b32fc8" d="M674.15723,696.48633a7.91928,7.91928,0,0,1-2.96387-6.47363q0-.41016.09131-1.32227l.09131-.45605a.96988.96988,0,0,1,.29638-.63868.88134.88134,0,0,1,.61524-.22754h6.52q.86572,0,.7749.45606l-.04541.502a2.52946,2.52946,0,0,0,1.00293,2.2334,4.5253,4.5253,0,0,0,3.10058,1.00293,3.38914,3.38914,0,0,0,2.55274-.82031,2.45642,2.45642,0,0,0,.77539-1.6875,1.46846,1.46846,0,0,0-.84375-1.36719,17.88222,17.88222,0,0,0-2.94043-1.09375l-1.231-.41113a20.80475,20.80475,0,0,1-6.49707-3.25977,6.91165,6.91165,0,0,1-2.62158-5.81347,9.6712,9.6712,0,0,1,1.70947-5.65333,11.3422,11.3422,0,0,1,4.65088-3.8291,15.1025,15.1025,0,0,1,6.45117-1.36816,13.796,13.796,0,0,1,5.72266,1.13965,9.11466,9.11466,0,0,1,3.94336,3.25976,8.56007,8.56007,0,0,1,1.41406,4.85547q0,.41016-.09179,1.32227l-.04493.22851a.984.984,0,0,1-.29687.63867.88187.88187,0,0,1-.61524.22754h-6.52148c-.57617,0-.83594-.12109-.77344-.36425l.04492-.36524a3.03488,3.03488,0,0,0-.93554-2.48437,4.777,4.777,0,0,0-5.49317-.457,2.1077,2.1077,0,0,0-.91162,1.80078,2.04178,2.04178,0,0,0,1.208,1.75586,28.36315,28.36315,0,0,0,4.58154,1.84668q.36621.13623,2.80469.93457a9.01453,9.01453,0,0,1,4.08008,2.68945,6.69658,6.69658,0,0,1,1.64258,4.53711,10.02818,10.02818,0,0,1-1.71094,5.791,11.2602,11.2602,0,0,1-4.74219,3.89747,16.15391,16.15391,0,0,1-6.81543,1.39062A12.24685,12.24685,0,0,1,674.15723,696.48633Z" transform="translate(-524.86328 -609.54688)"/><path class="3ba2ae5e-d4a7-434e-8d12-b020c3b32fc8" d="M706.16211,698.31055a.84528.84528,0,0,1-.13672-.63867l3.69336-30.18165a.8944.8944,0,0,1,.958-.86718h11.16992a14.15613,14.15613,0,0,1,5.79,1.09472,8.70478,8.70478,0,0,1,3.80762,3.10059,8.24108,8.24108,0,0,1,1.34472,4.69531c0,.30469-.03027.75977-.09082,1.36817l-1.36816,11.39843a10.59333,10.59333,0,0,1-2.18848,5.37989,12.04989,12.04989,0,0,1-4.71875,3.60156,15.93557,15.93557,0,0,1-6.49707,1.27734h-11.1709A.7148.7148,0,0,1,706.16211,698.31055Zm9.02832-7.38672a.24173.24173,0,0,0,.27344.27441h3.69238a3.42133,3.42133,0,0,0,2.57617-1.208,5.94313,5.94313,0,0,0,1.43653-3.16894l1.04882-8.48047a5.59981,5.59981,0,0,0,.04493-.82129,3.85857,3.85857,0,0,0-.82032-2.59765,2.78846,2.78846,0,0,0-2.23437-.958h-3.60156a.40722.40722,0,0,0-.41016.36425L715.19043,690.834Z" transform="translate(-524.86328 -609.54688)"/><path class="3ba2ae5e-d4a7-434e-8d12-b020c3b32fc8" d="M739.28613,697.80859a9.121,9.121,0,0,1-3.83008-3.60156,10.73429,10.73429,0,0,1-1.34472-5.4707,13.26249,13.26249,0,0,1,.13672-1.86914l1.04883-8.57227a14.14671,14.14671,0,0,1,2.32519-6.291,12.693,12.693,0,0,1,4.85547-4.24024,14.62306,14.62306,0,0,1,6.67969-1.50488,13.01338,13.01338,0,0,1,5.88183,1.25293,9.03,9.03,0,0,1,3.85254,3.55664,10.531,10.531,0,0,1,1.34473,5.40332,12.96819,12.96819,0,0,1-.13672,1.82324l-1.04883,8.57227a13.864,13.864,0,0,1-2.30273,6.40527,12.9576,12.9576,0,0,1-4.90039,4.28613,14.60528,14.60528,0,0,1-6.70313,1.52735A12.65523,12.65523,0,0,1,739.28613,697.80859Zm9.917-7.31738a5.33336,5.33336,0,0,0,1.50391-3.35059l1.09473-8.93652a5.57192,5.57192,0,0,0,.0459-.82129,3.87874,3.87874,0,0,0-.958-2.75781,3.44274,3.44274,0,0,0-2.64453-1.02539,4.25976,4.25976,0,0,0-3.10059,1.25391,5.33308,5.33308,0,0,0-1.50391,3.35058l-1.09472,8.93652a5.44075,5.44075,0,0,0-.04492.82032,3.875,3.875,0,0,0,.957,2.75781,3.38139,3.38139,0,0,0,2.59863,1.02637A4.31353,4.31353,0,0,0,749.20312,690.49121Z" transform="translate(-524.86328 -609.54688)"/><path class="3ba2ae5e-d4a7-434e-8d12-b020c3b32fc8" d="M760.919,698.31055a.84519.84519,0,0,1-.13672-.63867l3.69336-30.18165a.89439.89439,0,0,1,.958-.86718h6.33692a.9722.9722,0,0,1,.958.59277l6.88378,15.0918a.21544.21544,0,0,0,.22852.18261c.12109,0,.19727-.10644.22754-.32031l1.73242-14.67969a.89547.89547,0,0,1,.958-.86718H789.415a.72743.72743,0,0,1,.57031.22851.78441.78441,0,0,1,.15918.63867l-3.73828,30.18165a.97942.97942,0,0,1-.29687.63867.87935.87935,0,0,1-.61524.22851h-6.38281a.97025.97025,0,0,1-.958-.59375l-6.83887-15.36426c-.06152-.15136-.13672-.22753-.22754-.22753-.09179,0-.168.10644-.22851.31836l-1.77735,15a.83535.83535,0,0,1-.958.86718h-6.61133A.71479.71479,0,0,1,760.919,698.31055Z" transform="translate(-524.86328 -609.54688)"/><path class="3ba2ae5e-d4a7-434e-8d12-b020c3b32fc8" d="M814.35449,673.96387H801.45117a.40721.40721,0,0,0-.41015.36425l-.502,4.0127q0,.36474.31934.36426h7.88769a.72744.72744,0,0,1,.57032.22851.78547.78547,0,0,1,.15918.63868l-.6836,5.5625a.894.894,0,0,1-.958.86523h-7.88769a.32239.32239,0,0,0-.36426.36523l-.54687,4.46875v.08985a.24173.24173,0,0,0,.27343.27441h12.94825a.7315.7315,0,0,1,.57031.22754.78541.78541,0,0,1,.15918.63867l-.6836,5.60743a.93072.93072,0,0,1-.31933.63867.96685.96685,0,0,1-.63867.22851H790.59961a.71479.71479,0,0,1-.59277-.22851.84519.84519,0,0,1-.13672-.63867l3.69336-30.18165a.89439.89439,0,0,1,.958-.86718h20.74414a.72744.72744,0,0,1,.57032.22851.78441.78441,0,0,1,.15918.63867l-.6836,5.60743A.89332.89332,0,0,1,814.35449,673.96387Z" transform="translate(-524.86328 -609.54688)"/><path class="a515824d-1230-45a0-9407-3c2a4c2e3326" d="M529.82764,639.77441a7.92057,7.92057,0,0,1-2.96387-6.47363q0-.41016.09131-1.32226l.09131-.457a.96734.96734,0,0,1,.29638-.63769.8813.8813,0,0,1,.61524-.22754h6.52q.86572,0,.7749.45508l-.04541.502a2.53112,2.53112,0,0,0,1.00293,2.23438,4.53021,4.53021,0,0,0,3.10059,1.00293,3.39123,3.39123,0,0,0,2.55322-.82129,2.4618,2.4618,0,0,0,.7749-1.68653,1.47019,1.47019,0,0,0-.84326-1.36816,18.003,18.003,0,0,0-2.94092-1.09375l-1.231-.41016a20.80453,20.80453,0,0,1-6.49707-3.25976,6.91166,6.91166,0,0,1-2.62158-5.81348,9.66688,9.66688,0,0,1,1.70947-5.65332,11.35181,11.35181,0,0,1,4.65088-3.83008,15.102,15.102,0,0,1,6.45117-1.36718,13.80587,13.80587,0,0,1,5.72217,1.13867,9.121,9.121,0,0,1,3.94385,3.25976,8.56253,8.56253,0,0,1,1.41309,4.85645q0,.41016-.09131,1.32226l-.04541.22754a.979.979,0,0,1-.29639.63867.881.881,0,0,1-.61523.22852h-6.52q-.86646,0-.77491-.36523l.04541-.36524a3.03972,3.03972,0,0,0-.93457-2.48437,4.77588,4.77588,0,0,0-5.49414-.45606,2.10654,2.10654,0,0,0-.91162,1.80078,2.04047,2.04047,0,0,0,1.208,1.75489,28.33161,28.33161,0,0,0,4.582,1.84765q.36475.13623,2.8042.9336a9.01792,9.01792,0,0,1,4.08057,2.69043,6.69222,6.69222,0,0,1,1.64111,4.53613,10.03212,10.03212,0,0,1-1.70947,5.791,11.27989,11.27989,0,0,1-4.7417,3.89844,16.15989,16.15989,0,0,1-6.81641,1.39063A12.24685,12.24685,0,0,1,529.82764,639.77441Z" transform="translate(-524.86328 -609.54688)"/><path class="a515824d-1230-45a0-9407-3c2a4c2e3326" d="M580.18506,610.13867a.78726.78726,0,0,1,.15967.63867l-.68409,5.65332a.89409.89409,0,0,1-.95752.86622h-7.1123a.40731.40731,0,0,0-.41016.36523L568.30811,640.96a.97429.97429,0,0,1-.29639.6377.88136.88136,0,0,1-.61572.22851h-6.65625a.7129.7129,0,0,1-.59278-.22851.83538.83538,0,0,1-.13672-.6377l2.87207-23.29785c0-.24316-.10693-.36523-.31884-.36523h-6.88477q-.86646,0-.7749-.86622l.72949-5.65332a.96993.96993,0,0,1,.29639-.63867.88126.88126,0,0,1,.61523-.22754h23.07031A.72972.72972,0,0,1,580.18506,610.13867Z" transform="translate(-524.86328 -609.54688)"/><path class="a515824d-1230-45a0-9407-3c2a4c2e3326" d="M595.89209,641.09668l-.50147-3.28223a.283.283,0,0,0-.11425-.22851.39477.39477,0,0,0-.25049-.0918h-9.16455a.52991.52991,0,0,0-.45606.32031l-1.27636,3.28223a1.00358,1.00358,0,0,1-1.00293.72949h-7.2041q-.63869,0-.63819-.54687a1.0129,1.0129,0,0,1,.09131-.45606l12.90283-30.18262a1.0032,1.0032,0,0,1,1.00293-.72949h9.11865a.77653.77653,0,0,1,.8208.72949l5.51661,30.18262v.18262q0,.8203-.86621.82031H596.7124A.71306.71306,0,0,1,595.89209,641.09668Zm-7.65967-10.48633q0,.31934.27344.31934h5.47119a.40152.40152,0,0,0,.29639-.11426.29244.29244,0,0,0,.06836-.2959l-1.5044-10.5332c-.03076-.15039-.09912-.22656-.20556-.22656s-.19.07617-.25049.22656l-4.14893,10.5332Z" transform="translate(-524.86328 -609.54688)"/><path class="a515824d-1230-45a0-9407-3c2a4c2e3326" d="M623.01953,641.1875,619.6001,629.835q-.04614-.27393-.41065-.27344h-1.5498c-.27393,0-.41065.12207-.41065.36426L615.86133,640.96a.972.972,0,0,1-.29639.6377.94426.94426,0,0,1-.66113.22851H608.293a.71351.71351,0,0,1-.59277-.22851.83738.83738,0,0,1-.13672-.6377l3.69287-30.18262a.89463.89463,0,0,1,.95752-.86621H625.436a9.0052,9.0052,0,0,1,6.51953,2.3252,8.32265,8.32265,0,0,1,2.4165,6.291q0,.457-.09082,1.55078a10.72581,10.72581,0,0,1-2.0293,5.19727,10.04886,10.04886,0,0,1-4.30859,3.32813.34608.34608,0,0,0-.22754.457l3.96631,11.76269a1.02964,1.02964,0,0,1,.0459.31934q0,.68262-.77539.68359h-7.0669A.77617.77617,0,0,1,623.01953,641.1875Zm-4.28564-23.57129-.63868,5.06152q0,.36475.31934.36426h4.01221a3.7332,3.7332,0,0,0,2.57617-.91211,3.02226,3.02226,0,0,0,1.02588-2.37011,2.28341,2.28341,0,0,0-.79785-1.82422,3.07693,3.07693,0,0,0-2.07471-.6836H619.144A.40641.40641,0,0,0,618.73389,617.61621Z" transform="translate(-524.86328 -609.54688)"/><path class="a515824d-1230-45a0-9407-3c2a4c2e3326" d="M662.02393,610.13867a.78726.78726,0,0,1,.15966.63867l-.68408,5.65332a.89409.89409,0,0,1-.95752.86622h-7.1123a.40731.40731,0,0,0-.41016.36523L650.147,640.96a.97423.97423,0,0,1-.29638.6377.88137.88137,0,0,1-.61573.22851h-6.65625a.71288.71288,0,0,1-.59277-.22851.83538.83538,0,0,1-.13672-.6377l2.87207-23.29785c0-.24316-.10693-.36523-.31885-.36523h-6.88476q-.86646,0-.7749-.86622l.72949-5.65332a.96988.96988,0,0,1,.29638-.63867.8813.8813,0,0,1,.61524-.22754H661.4541A.72972.72972,0,0,1,662.02393,610.13867Z" transform="translate(-524.86328 -609.54688)"/><path class="a515824d-1230-45a0-9407-3c2a4c2e3326" d="M673.55811,639.43262a9.80626,9.80626,0,0,1-2.895-7.4541,13.7591,13.7591,0,0,1,.09082-1.82422l1.04882-8.61719a14.32106,14.32106,0,0,1,2.30225-6.292,12.45081,12.45081,0,0,1,4.7876-4.21778,14.44957,14.44957,0,0,1,6.58789-1.48046,12.84327,12.84327,0,0,1,5.76758,1.23046,9.18646,9.18646,0,0,1,3.83007,3.39649,8.93971,8.93971,0,0,1,1.34473,4.81055q0,.36474-.09082,1.27636a.80689.80689,0,0,1-.29687.52442.93944.93944,0,0,1-.61524.20507h-6.61133q-.86571,0-.77441-.22851v-.18164a3.1851,3.1851,0,0,0-3.41992-3.69336,4.1351,4.1351,0,0,0-3.00879,1.208,5.1569,5.1569,0,0,0-1.459,3.21386l-1.09423,9.11914a3.41214,3.41214,0,0,0-.0459.63868,3.69524,3.69524,0,0,0,1.04883,2.73535,3.637,3.637,0,0,0,2.68994,1.04883,4.33475,4.33475,0,0,0,2.80371-.93457,3.67964,3.67964,0,0,0,1.3457-2.57618l.04492-.45605V630.793q0-.27393-.31933-.27344h-3.55567a.71288.71288,0,0,1-.59277-.22851.83894.83894,0,0,1-.13672-.63868l.59229-5.10546a.92876.92876,0,0,1,.31933-.63868.96466.96466,0,0,1,.63819-.22851h11.21582a.72743.72743,0,0,1,.57031.22851.78543.78543,0,0,1,.15918.63868l-.77442,6.06347a13.1175,13.1175,0,0,1-2.25683,6.01856,12.53607,12.53607,0,0,1-4.78809,4.10351,14.516,14.516,0,0,1-6.54248,1.459A10.995,10.995,0,0,1,673.55811,639.43262Z" transform="translate(-524.86328 -609.54688)"/><path class="a515824d-1230-45a0-9407-3c2a4c2e3326" d="M721.22559,617.252H708.32227a.40642.40642,0,0,0-.41016.36426l-.50195,4.0127q0,.36474.31933.36425h7.8877a.73012.73012,0,0,1,.57031.22754.78543.78543,0,0,1,.15918.63868l-.68359,5.5625a.89416.89416,0,0,1-.958.86621h-7.8877a.32209.32209,0,0,0-.36426.36425l-.54687,4.46875v.09082a.24212.24212,0,0,0,.27344.27442h12.94824a.73148.73148,0,0,1,.57031.22754.78309.78309,0,0,1,.15918.63769l-.68359,5.6084a.92639.92639,0,0,1-.31934.6377.96683.96683,0,0,1-.63867.22851H697.4707a.7148.7148,0,0,1-.59277-.22851.84169.84169,0,0,1-.13672-.6377l3.69336-30.18262a.89424.89424,0,0,1,.958-.86621h20.74414a.73009.73009,0,0,1,.57031.22754.78542.78542,0,0,1,.15918.63867l-.68359,5.60743A.8941.8941,0,0,1,721.22559,617.252Z" transform="translate(-524.86328 -609.54688)"/><path class="a515824d-1230-45a0-9407-3c2a4c2e3326" d="M749.28809,610.13867a.78546.78546,0,0,1,.15918.63867l-.6836,5.65332a.89531.89531,0,0,1-.958.86622h-7.1123a.40731.40731,0,0,0-.41016.36523l-2.873,23.29785a.96934.96934,0,0,1-.2959.6377.881.881,0,0,1-.61524.22851H729.8418a.71354.71354,0,0,1-.59278-.22851.84169.84169,0,0,1-.13672-.6377l2.87305-23.29785c0-.24316-.10742-.36523-.31933-.36523h-6.88477q-.8672,0-.77539-.86622l.72949-5.65332a.97028.97028,0,0,1,.29688-.63867.88294.88294,0,0,1,.61523-.22754h23.07031A.73151.73151,0,0,1,749.28809,610.13867Z" transform="translate(-524.86328 -609.54688)"/><path class="a515824d-1230-45a0-9407-3c2a4c2e3326" d="M775.5957,610.13867a.78538.78538,0,0,1,.15918.63867l-.68359,5.65332a.89532.89532,0,0,1-.958.86622H767.001a.40731.40731,0,0,0-.41016.36523L763.71777,640.96a.96929.96929,0,0,1-.29589.6377.881.881,0,0,1-.61524.22851h-6.65723a.71352.71352,0,0,1-.59277-.22851.84169.84169,0,0,1-.13672-.6377l2.873-23.29785c0-.24316-.10742-.36523-.31934-.36523h-6.88476q-.8672,0-.77539-.86622l.72949-5.65332a.97032.97032,0,0,1,.29687-.63867.883.883,0,0,1,.61524-.22754h23.07031A.73148.73148,0,0,1,775.5957,610.13867Z" transform="translate(-524.86328 -609.54688)"/><path class="a515824d-1230-45a0-9407-3c2a4c2e3326" d="M774.70508,641.59766a.84165.84165,0,0,1-.13672-.6377l3.69336-30.18262a.89424.89424,0,0,1,.958-.86621h6.61035a.71731.71731,0,0,1,.59277.22754.84523.84523,0,0,1,.13672.63867L782.86719,640.96a.97463.97463,0,0,1-.29688.6377.94343.94343,0,0,1-.66113.22851h-6.61133A.71479.71479,0,0,1,774.70508,641.59766Z" transform="translate(-524.86328 -609.54688)"/><path class="a515824d-1230-45a0-9407-3c2a4c2e3326" d="M786.46777,641.59766a.84169.84169,0,0,1-.13672-.6377l3.69336-30.18262a.89424.89424,0,0,1,.958-.86621h6.33692a.97219.97219,0,0,1,.958.59278l6.88379,15.09179a.21545.21545,0,0,0,.22852.18164c.12109,0,.19726-.10546.22754-.31933l1.73242-14.68067a.89532.89532,0,0,1,.958-.86621h6.65625a.73009.73009,0,0,1,.57031.22754.78542.78542,0,0,1,.15918.63867L811.95508,640.96a.97459.97459,0,0,1-.29688.6377.87931.87931,0,0,1-.61523.22851h-6.38281a.97083.97083,0,0,1-.958-.59277l-6.83887-15.36426c-.06152-.15234-.13672-.22852-.22754-.22852-.09179,0-.168.10743-.22851.31934l-1.77735,15a.83513.83513,0,0,1-.958.86621h-6.61133A.71481.71481,0,0,1,786.46777,641.59766Z" transform="translate(-524.86328 -609.54688)"/><path class="a515824d-1230-45a0-9407-3c2a4c2e3326" d="M819.13477,639.43262a9.80954,9.80954,0,0,1-2.89454-7.4541,13.67647,13.67647,0,0,1,.09082-1.82422l1.04883-8.61719a14.31544,14.31544,0,0,1,2.30274-6.292,12.43886,12.43886,0,0,1,4.78711-4.21778,14.44957,14.44957,0,0,1,6.58789-1.48046,12.8433,12.8433,0,0,1,5.76758,1.23046,9.18646,9.18646,0,0,1,3.83007,3.39649A8.93971,8.93971,0,0,1,842,618.98438q0,.36474-.09082,1.27636a.80686.80686,0,0,1-.29688.52442.93942.93942,0,0,1-.61523.20507h-6.61133q-.86573,0-.77441-.22851v-.18164a3.1851,3.1851,0,0,0-3.41992-3.69336,4.13431,4.13431,0,0,0-3.00879,1.208,5.15431,5.15431,0,0,0-1.459,3.21386l-1.09472,9.11914a3.46991,3.46991,0,0,0-.04493.63868,3.6965,3.6965,0,0,0,1.04786,2.73535,3.63812,3.63812,0,0,0,2.69043,1.04883,4.33384,4.33384,0,0,0,2.80371-.93457,3.67964,3.67964,0,0,0,1.3457-2.57618l.04492-.45605V630.793q0-.27393-.31933-.27344H828.6416a.71351.71351,0,0,1-.59277-.22851.83685.83685,0,0,1-.13672-.63868l.59277-5.10546a.923.923,0,0,1,.31934-.63868.96246.96246,0,0,1,.63769-.22851h11.21582a.72744.72744,0,0,1,.57032.22851.78543.78543,0,0,1,.15918.63868l-.77442,6.06347a13.1175,13.1175,0,0,1-2.25683,6.01856,12.53607,12.53607,0,0,1-4.78809,4.10351,14.51539,14.51539,0,0,1-6.542,1.459A10.99748,10.99748,0,0,1,819.13477,639.43262Z" transform="translate(-524.86328 -609.54688)"/><path class="a515824d-1230-45a0-9407-3c2a4c2e3326" d="M579.023,664.85059a.78724.78724,0,0,1,.15967.63867l-.68408,5.65332a.89347.89347,0,0,1-.95752.86621h-7.11231a.40722.40722,0,0,0-.41016.36426L567.146,695.67188a.97908.97908,0,0,1-.29639.63867.8806.8806,0,0,1-.61572.22754h-6.65625a.71252.71252,0,0,1-.59278-.22754.83892.83892,0,0,1-.13672-.63867l2.87207-23.29883c0-.24219-.10693-.36426-.31884-.36426H554.5166q-.86646,0-.7749-.86621l.72949-5.65332a.96989.96989,0,0,1,.29639-.63867.88126.88126,0,0,1,.61523-.22754h23.07031A.72972.72972,0,0,1,579.023,664.85059Z" transform="translate(-524.86328 -609.54688)"/><path class="a515824d-1230-45a0-9407-3c2a4c2e3326" d="M597.64746,664.85059a.97014.97014,0,0,1,.63867-.22754h6.65625a.7308.7308,0,0,1,.57032.22754.78543.78543,0,0,1,.15918.63867L601.979,695.67188a.92876.92876,0,0,1-.31933.63867.9638.9638,0,0,1-.63819.22754h-6.65673a.72506.72506,0,0,1-.56983-.22754.7855.7855,0,0,1-.15967-.63867l1.36817-11.26172v-.09082a.24247.24247,0,0,0-.27393-.27442h-6.65625a.40822.40822,0,0,0-.41064.36524l-1.36768,11.26172a.97672.97672,0,0,1-.29638.63867.94378.94378,0,0,1-.66114.22754h-6.61084a.71312.71312,0,0,1-.59277-.22754.841.841,0,0,1-.13672-.63867l3.69287-30.18262a.89463.89463,0,0,1,.95752-.86621h6.61084a.716.716,0,0,1,.59277.22754.84517.84517,0,0,1,.13672.63867L588.666,676.33984c0,.24414.106.36524.31884.36524h6.61133c.27344,0,.41016-.1211.41016-.36524l1.32226-10.85058A.92636.92636,0,0,1,597.64746,664.85059Z" transform="translate(-524.86328 -609.54688)"/><path class="a515824d-1230-45a0-9407-3c2a4c2e3326" d="M605.16992,696.31055a.841.841,0,0,1-.13672-.63867l3.69287-30.18262a.89463.89463,0,0,1,.95752-.86621h6.61084a.71605.71605,0,0,1,.59278.22754.84525.84525,0,0,1,.13672.63867l-3.69288,30.18262a.97672.97672,0,0,1-.29638.63867.94375.94375,0,0,1-.66113.22754H605.7627A.71316.71316,0,0,1,605.16992,696.31055Z" transform="translate(-524.86328 -609.54688)"/><path class="a515824d-1230-45a0-9407-3c2a4c2e3326" d="M616.93262,696.31055a.841.841,0,0,1-.13672-.63867l3.69287-30.18262a.89462.89462,0,0,1,.95752-.86621h6.3374a.97032.97032,0,0,1,.95752.59179l6.88477,15.0918a.21463.21463,0,0,0,.228.18262c.1211,0,.19727-.10645.22754-.31934l1.73291-14.68066a.89409.89409,0,0,1,.95752-.86621h6.65625a.729.729,0,0,1,.56983.22754.78373.78373,0,0,1,.15966.63867l-3.73828,30.18262a.979.979,0,0,1-.29638.63867.88061.88061,0,0,1-.61573.22754h-6.38281a.96975.96975,0,0,1-.95752-.59278l-6.83935-15.36523c-.061-.15137-.13672-.22754-.22754-.22754q-.137,0-.228.31934l-1.77832,15a.83385.83385,0,0,1-.95752.86621h-6.61084A.71312.71312,0,0,1,616.93262,696.31055Z" transform="translate(-524.86328 -609.54688)"/><path class="a515824d-1230-45a0-9407-3c2a4c2e3326" d="M649.59961,694.14453a9.80853,9.80853,0,0,1-2.895-7.45508,13.77451,13.77451,0,0,1,.09082-1.82324l1.04883-8.61719a14.33,14.33,0,0,1,2.30224-6.292,12.44042,12.44042,0,0,1,4.7876-4.2168,14.42537,14.42537,0,0,1,6.58789-1.48242,12.82886,12.82886,0,0,1,5.76758,1.23145,9.18342,9.18342,0,0,1,3.83008,3.39648,8.94316,8.94316,0,0,1,1.34473,4.80957q0,.36621-.09082,1.27735a.80859.80859,0,0,1-.29639.52441.94169.94169,0,0,1-.61572.20508h-6.61084q-.86646,0-.77539-.22754V675.291a3.18587,3.18587,0,0,0-3.41944-3.69239,4.13512,4.13512,0,0,0-3.00879,1.208,5.15711,5.15711,0,0,0-1.459,3.21484l-1.09424,9.11817a3.41288,3.41288,0,0,0-.0459.63867,3.69832,3.69832,0,0,0,1.04883,2.73535,3.64079,3.64079,0,0,0,2.68994,1.04883,4.329,4.329,0,0,0,2.80371-.93555,3.67127,3.67127,0,0,0,1.34522-2.57519l.04541-.45606v-.09179c0-.18164-.10645-.27344-.31885-.27344H659.106a.71252.71252,0,0,1-.59278-.22754.83538.83538,0,0,1-.13672-.6377l.59229-5.10742a.92645.92645,0,0,1,.31934-.63769.96883.96883,0,0,1,.63818-.22754h11.21631a.72971.72971,0,0,1,.56982.22754.78494.78494,0,0,1,.15967.63769l-.77539,6.06446a13.08924,13.08924,0,0,1-2.25684,6.01757,12.52469,12.52469,0,0,1-4.78711,4.10352,14.50675,14.50675,0,0,1-6.543,1.459A10.99031,10.99031,0,0,1,649.59961,694.14453Z" transform="translate(-524.86328 -609.54688)"/><path class="a515824d-1230-45a0-9407-3c2a4c2e3326" d="M676.15771,694.48633a7.92251,7.92251,0,0,1-2.96386-6.47461c0-.27344.03027-.71289.09131-1.32227l.0913-.45507a.96994.96994,0,0,1,.29639-.63868.87766.87766,0,0,1,.61524-.22851h6.52q.86571,0,.7749.457l-.04541.501a2.52844,2.52844,0,0,0,1.00293,2.23339,4.52118,4.52118,0,0,0,3.10009,1.00391,3.39165,3.39165,0,0,0,2.55372-.82031,2.461,2.461,0,0,0,.77441-1.6875,1.4682,1.4682,0,0,0-.84277-1.36719,17.79048,17.79048,0,0,0-2.94141-1.09473l-1.23047-.41113a20.78377,20.78377,0,0,1-6.49707-3.25976,6.90856,6.90856,0,0,1-2.62158-5.8125,9.67628,9.67628,0,0,1,1.70947-5.6543,11.34957,11.34957,0,0,1,4.65088-3.8291,15.10156,15.10156,0,0,1,6.45166-1.36817,13.79154,13.79154,0,0,1,5.72168,1.14063,9.09675,9.09675,0,0,1,3.94336,3.25976,8.54813,8.54813,0,0,1,1.41406,4.85547q0,.41016-.09179,1.32227l-.04493.22754a.97491.97491,0,0,1-.29687.63867.87856.87856,0,0,1-.61524.22754h-6.5205q-.86573,0-.77442-.36426l.04492-.36426a3.04013,3.04013,0,0,0-.93457-2.48535,4.77508,4.77508,0,0,0-5.49365-.45605,2.1065,2.1065,0,0,0-.91162,1.80078,2.04288,2.04288,0,0,0,1.208,1.75586,28.431,28.431,0,0,0,4.582,1.8457q.36474.1377,2.80371.93555a9.002,9.002,0,0,1,4.08106,2.68945,6.694,6.694,0,0,1,1.6416,4.53711,10.03166,10.03166,0,0,1-1.71,5.79,11.25912,11.25912,0,0,1-4.74219,3.89746,16.15395,16.15395,0,0,1-6.81543,1.39062A12.24712,12.24712,0,0,1,676.15771,694.48633Z" transform="translate(-524.86328 -609.54688)"/><path class="a515824d-1230-45a0-9407-3c2a4c2e3326" d="M708.16211,696.31055a.84528.84528,0,0,1-.13672-.63867l3.69336-30.18262a.89423.89423,0,0,1,.958-.86621h11.16992a14.17242,14.17242,0,0,1,5.79,1.09375,8.7181,8.7181,0,0,1,3.80762,3.10058,8.24427,8.24427,0,0,1,1.34472,4.69629q0,.457-.09082,1.36719l-1.36816,11.39844a10.59312,10.59312,0,0,1-2.18848,5.38086,12.06815,12.06815,0,0,1-4.71875,3.60156,15.93538,15.93538,0,0,1-6.49707,1.27637h-11.1709A.71441.71441,0,0,1,708.16211,696.31055Zm9.02832-7.38672a.24143.24143,0,0,0,.27344.27344h3.69238a3.418,3.418,0,0,0,2.57617-1.208,5.9432,5.9432,0,0,0,1.43653-3.16895l1.04882-8.48047a5.5752,5.5752,0,0,0,.04493-.82031,3.8613,3.8613,0,0,0-.82032-2.59863,2.79148,2.79148,0,0,0-2.23437-.958h-3.60156a.4073.4073,0,0,0-.41016.36523L717.19043,688.833Z" transform="translate(-524.86328 -609.54688)"/><path class="a515824d-1230-45a0-9407-3c2a4c2e3326" d="M741.28613,695.80859a9.13292,9.13292,0,0,1-3.83008-3.60156,10.7405,10.7405,0,0,1-1.34472-5.47168,13.26259,13.26259,0,0,1,.13672-1.86914l1.04883-8.57129a14.15065,14.15065,0,0,1,2.32519-6.292,12.70924,12.70924,0,0,1,4.85547-4.24023,14.63548,14.63548,0,0,1,6.67969-1.50489,13.00053,13.00053,0,0,1,5.88183,1.25391,9.01818,9.01818,0,0,1,3.85254,3.55664,10.5298,10.5298,0,0,1,1.34473,5.40234,12.97091,12.97091,0,0,1-.13672,1.82422l-1.04883,8.57129a13.856,13.856,0,0,1-2.30273,6.40527,12.94937,12.94937,0,0,1-4.90039,4.28614,14.593,14.593,0,0,1-6.70313,1.52734A12.66742,12.66742,0,0,1,741.28613,695.80859Zm9.917-7.31836a5.33333,5.33333,0,0,0,1.50391-3.35058l1.09473-8.93653a5.54728,5.54728,0,0,0,.0459-.82031,3.87874,3.87874,0,0,0-.958-2.75781,3.43984,3.43984,0,0,0-2.64453-1.02637,4.25976,4.25976,0,0,0-3.10059,1.25391,5.33548,5.33548,0,0,0-1.50391,3.35058l-1.09472,8.93653a5.4643,5.4643,0,0,0-.04492.82129,3.87661,3.87661,0,0,0,.957,2.75781,3.38422,3.38422,0,0,0,2.59863,1.02539A4.31349,4.31349,0,0,0,751.20312,688.49023Z" transform="translate(-524.86328 -609.54688)"/><path class="a515824d-1230-45a0-9407-3c2a4c2e3326" d="M762.919,696.31055a.84519.84519,0,0,1-.13672-.63867l3.69336-30.18262a.89422.89422,0,0,1,.958-.86621h6.33692a.97142.97142,0,0,1,.958.59179l6.88378,15.0918a.21545.21545,0,0,0,.22852.18262c.12109,0,.19727-.10645.22754-.31934l1.73242-14.68066a.89531.89531,0,0,1,.958-.86621H791.415a.73009.73009,0,0,1,.57031.22754.7854.7854,0,0,1,.15918.63867l-3.73828,30.18262a.97942.97942,0,0,1-.29687.63867.8786.8786,0,0,1-.61524.22754h-6.38281a.97083.97083,0,0,1-.958-.59278l-6.83887-15.36523c-.06152-.15137-.13672-.22754-.22754-.22754q-.13768,0-.22851.31934l-1.77735,15a.83467.83467,0,0,1-.958.86621h-6.61133A.7144.7144,0,0,1,762.919,696.31055Z" transform="translate(-524.86328 -609.54688)"/><path class="a515824d-1230-45a0-9407-3c2a4c2e3326" d="M816.35449,671.96289H803.45117a.40729.40729,0,0,0-.41015.36523l-.502,4.01172c0,.24414.10645.36524.31934.36524h7.88769a.72744.72744,0,0,1,.57032.22851.7832.7832,0,0,1,.15918.6377l-.6836,5.5625a.89476.89476,0,0,1-.958.86621h-7.88769a.322.322,0,0,0-.36426.36523l-.54687,4.46778v.09082a.24143.24143,0,0,0,.27343.27344h12.94825a.72883.72883,0,0,1,.57031.22851.78541.78541,0,0,1,.15918.63867l-.6836,5.60743a.93072.93072,0,0,1-.31933.63867.966.966,0,0,1-.63867.22754H792.59961a.7144.7144,0,0,1-.59277-.22754.84519.84519,0,0,1-.13672-.63867l3.69336-30.18262a.89422.89422,0,0,1,.958-.86621h20.74414a.73009.73009,0,0,1,.57032.22754.7854.7854,0,0,1,.15918.63867l-.6836,5.6084A.89315.89315,0,0,1,816.35449,671.96289Z" transform="translate(-524.86328 -609.54688)"/></svg>