<svg id="Layer_1" data-name="Layer 1" xmlns="http://www.w3.org/2000/svg" viewBox="0 0 74.72 74.72"><defs><style>.cls-1{fill:#f6f6f6;}.cls-2,.cls-6{fill:none;stroke-linecap:round;stroke-linejoin:round;stroke-width:7px;}.cls-2{stroke:#00e8e8;}.cls-3{fill:#e71d73;}.cls-4{fill:#00e8e8;}.cls-5{fill:#3c3c3b;}.cls-6{stroke:#e71d73;}</style></defs><title>strengthicon</title><circle class="cls-1" cx="37.36" cy="37.36" r="37.36"/><path class="cls-2" d="M671.06,370.87" transform="translate(-646.28 -313.25)"/><path class="cls-3" d="M706.55,360a.69.69,0,0,1-.47-.18,15.31,15.31,0,0,0-3.71-2.41,26.31,26.31,0,0,0-11.12-2.51.68.68,0,0,1-.66-.69.67.67,0,0,1,.67-.66h0c10.33.17,15.53,5.09,15.75,5.3a.68.68,0,0,1,0,.95A.63.63,0,0,1,706.55,360Z" transform="translate(-646.28 -313.25)"/><path class="cls-3" d="M706.55,365a.68.68,0,0,1-.56-.3c-.07-.11-5.48-8.18-14.58-9.31a.68.68,0,0,1-.59-.75.67.67,0,0,1,.75-.58c9.75,1.21,15.31,9.55,15.54,9.9a.67.67,0,0,1-.19.93A.72.72,0,0,1,706.55,365Z" transform="translate(-646.28 -313.25)"/><path class="cls-3" d="M706.55,355.62a.66.66,0,0,1-.3-.07,23.79,23.79,0,0,0-15.28-.89.67.67,0,0,1-.34-1.3,24.71,24.71,0,0,1,16.22,1,.67.67,0,0,1-.3,1.27Z" transform="translate(-646.28 -313.25)"/><path class="cls-4" d="M694.38,358.89a77.07,77.07,0,0,1-17-2,.67.67,0,1,1,.31-1.31,71.81,71.81,0,0,0,18.57,1.93.66.66,0,0,1,.71.62.67.67,0,0,1-.62.72S695.64,358.89,694.38,358.89Z" transform="translate(-646.28 -313.25)"/><path class="cls-4" d="M695.39,362c-3.41,0-9.57-.79-18.25-4.91a.67.67,0,1,1,.58-1.21c13.18,6.26,20.4,4.55,20.47,4.53a.67.67,0,1,1,.34,1.3A13.55,13.55,0,0,1,695.39,362Z" transform="translate(-646.28 -313.25)"/><path class="cls-5" d="M695.59,364.3a27.61,27.61,0,0,1-18.13-7c-.16-.13-.33-.28-.38-.31a.67.67,0,0,1,.69-1.15,4.87,4.87,0,0,1,.55.43c8.06,6.8,16.08,7.2,21.38,6.34a.67.67,0,1,1,.22,1.32A27.12,27.12,0,0,1,695.59,364.3Z" transform="translate(-646.28 -313.25)"/><path class="cls-5" d="M706.55,368.79a.61.61,0,0,1-.32-.08c-.54-.3-5.27-2.92-6.37-4.23a41,41,0,0,1-2.5-3.81,32.22,32.22,0,0,0-1.9-2.93,13.88,13.88,0,0,0-5.24-2.72.67.67,0,0,1,.38-1.29,15.39,15.39,0,0,1,5.77,3,23.22,23.22,0,0,1,2.14,3.21c.88,1.43,1.87,3,2.37,3.65.8.94,4.6,3.15,6,3.92a.66.66,0,0,1-.32,1.25Z" transform="translate(-646.28 -313.25)"/><path class="cls-5" d="M698.74,374a.68.68,0,0,1-.65-.51,19.66,19.66,0,0,0-2.4-4l0,0a12.6,12.6,0,0,0-1.59.69l-2.39,1.1c-3.85,1.71-10.63,1.45-12.85,1.36h-.38c-.9,0-3.65-.45-6.32-.86-1.84-.28-3.59-.55-4.36-.63-2.14-.22-5.73-3.26-7.09-4.77-.5-.56-1-1.61-.32-3.43a9.7,9.7,0,0,1,.78-1.63c.32-8.24,5.29-14.32,6.29-15.47.48-.55,2.17-3.55,3.66-6.2s3-5.34,3.86-6.61c1.51-2.25,4-3.26,5.68-3.93.43-.18.81-.33,1.09-.47,1.56-.78,7.19-1.47,7.92-1.35.3,0,.72.11,2.4,2.72a29.62,29.62,0,0,1,1.8,3.14,1.86,1.86,0,0,1-.32,1.93,6.24,6.24,0,0,1,.61,2,1.52,1.52,0,0,1-.47,1.47c-.93.81-2.87.37-3.72.12-2.47.85-7,.59-7.24.58a.54.54,0,0,1-.22-.05,2.84,2.84,0,0,0-2.2-.06c-.4.3-1.46,2.58-2.84,6.88a1,1,0,0,0,0,.55,46.27,46.27,0,0,1,.67,8.12c1.66-1.46,4.09-2.12,7.15-1.94a21.31,21.31,0,0,1,5,.93A13.61,13.61,0,0,1,701.35,350a15.61,15.61,0,0,1,5.54,1.74.66.66,0,0,1,.24.91.68.68,0,0,1-.92.25,14.61,14.61,0,0,0-5.08-1.57,12.18,12.18,0,0,0-10.26,3.53.67.67,0,0,1-.69.15c-.09,0-9.06-3.16-12.18,1.78a.67.67,0,0,1-.76.29.66.66,0,0,1-.48-.65c0-.07.08-6.55-.64-9.62a2.31,2.31,0,0,1,0-1.25c1.45-4.52,2.59-7.08,3.38-7.6a4,4,0,0,1,3.34-.1c.71,0,4.84.19,6.79-.58a.66.66,0,0,1,.46,0c1,.32,2.35.48,2.66.22,0,0,0-.19,0-.24a4,4,0,0,0-.52-1.68.65.65,0,0,1-.34-.46.69.69,0,0,1,.27-.67s.57-.42.4-.82a28.72,28.72,0,0,0-3.26-5.06h0c-.92,0-5.76.6-7,1.23-.33.17-.73.33-1.19.51-1.6.65-3.79,1.53-5.07,3.43-.82,1.23-2.34,3.92-3.8,6.52a67.26,67.26,0,0,1-3.82,6.44c-1,1.09-5.73,6.93-6,14.81a.77.77,0,0,1-.12.35c-.43.65-1.48,2.69-.68,3.58,1.46,1.62,4.69,4.18,6.23,4.34.8.08,2.56.35,4.43.63,2.5.39,5.33.82,6.15.85h.39c5.76.23,9.89-.19,12.25-1.25l2.37-1.09c1.86-.87,2.48-1.17,3.21-.31a19.73,19.73,0,0,1,2.67,4.58.67.67,0,0,1-.48.81Zm-6.31-38.39h0Zm0,0Zm0,0Zm0,0Zm0,0Zm-3.13-7.12Z" transform="translate(-646.28 -313.25)"/><path class="cls-6" d="M677.43,356.44" transform="translate(-646.28 -313.25)"/></svg>