<svg id="5b038bc7-d421-4645-a67a-917e9c0e75f2" data-name="Layer 1" xmlns="http://www.w3.org/2000/svg" viewBox="0 0 1007.44055 197.11487"><defs><style>.\31 3506c65-91c6-4fff-b844-1d77ea685686{fill:none;stroke:#00e8e8;}.\31 3506c65-91c6-4fff-b844-1d77ea685686,.a0208168-6a03-4f7e-9c66-80271a8304da{stroke-miterlimit:10;stroke-width:22px;}.a0208168-6a03-4f7e-9c66-80271a8304da{fill:#fff;stroke:#e71d73;}.ed71cfce-f919-4e64-be76-572348e6ab17{fill:#3c3c3b;}</style></defs><title>tbg</title><rect class="13506c65-91c6-4fff-b844-1d77ea685686" x="11" y="29.11975" width="967.3208" height="156.99512"/><rect class="a0208168-6a03-4f7e-9c66-80271a8304da" x="29.11975" y="11" width="967.3208" height="156.99512"/><path class="ed71cfce-f919-4e64-be76-572348e6ab17" d="M218.73535,133.3457v12.48291a1.69064,1.69064,0,0,1-1.9126,1.9126H200.61523a.71162.71162,0,0,0-.80517.80518V199.9873a1.6908,1.6908,0,0,1-1.9126,1.91309h-15.1001a1.69,1.69,0,0,1-1.91259-1.91309V148.54639a.71236.71236,0,0,0-.80567-.80518H164.375a1.69026,1.69026,0,0,1-1.9126-1.9126V133.3457a1.69084,1.69084,0,0,1,1.9126-1.91259h52.44775A1.69122,1.69122,0,0,1,218.73535,133.3457Z" transform="translate(-82.04382 -76.7666)"/><path class="ed71cfce-f919-4e64-be76-572348e6ab17" d="M224.47266,199.9873V133.3457a1.69064,1.69064,0,0,1,1.91259-1.91259h15.1001a1.69142,1.69142,0,0,1,1.9126,1.91259v66.6416a1.6908,1.6908,0,0,1-1.9126,1.91309h-15.1001A1.69,1.69,0,0,1,224.47266,199.9873Z" transform="translate(-82.04382 -76.7666)"/><path class="ed71cfce-f919-4e64-be76-572348e6ab17" d="M251.249,199.9873V133.3457a1.69064,1.69064,0,0,1,1.9126-1.91259h14.99951a2.431,2.431,0,0,1,2.31494,1.30859l12.18116,19.83154a.65423.65423,0,0,0,1.208,0L296.0459,132.7417a2.42889,2.42889,0,0,1,2.31543-1.30859h14.99951a1.69142,1.69142,0,0,1,1.9126,1.91259v66.6416a1.6908,1.6908,0,0,1-1.9126,1.91309h-15.1001a1.69036,1.69036,0,0,1-1.91308-1.91309V164.45215q0-.60424-.35205-.70459c-.23584-.06641-.45313.06738-.6543.40234l-6.2417,10.36865a2.42825,2.42825,0,0,1-2.31494,1.3086h-7.04688a2.42565,2.42565,0,0,1-2.31543-1.3086l-6.24121-10.36865a.81569.81569,0,0,0-.604-.40234c-.269,0-.40283.23584-.40283.70459V199.9873a1.6908,1.6908,0,0,1-1.9126,1.91309h-15.1001A1.69,1.69,0,0,1,251.249,199.9873Z" transform="translate(-82.04382 -76.7666)"/><path class="ed71cfce-f919-4e64-be76-572348e6ab17" d="M372.25,147.64062H342.855a.71162.71162,0,0,0-.80518.80518v8.85889a.71084.71084,0,0,0,.80518.80517h17.91895a1.69142,1.69142,0,0,1,1.91259,1.9126v12.28125a1.69079,1.69079,0,0,1-1.91259,1.91309H342.855a.71157.71157,0,0,0-.80518.80566v9.86524a.71119.71119,0,0,0,.80518.80566H372.25a1.69088,1.69088,0,0,1,1.9126,1.91211V199.9873a1.6908,1.6908,0,0,1-1.9126,1.91309H325.03711a1.69,1.69,0,0,1-1.9126-1.91309V133.3457a1.69064,1.69064,0,0,1,1.9126-1.91259H372.25a1.69142,1.69142,0,0,1,1.9126,1.91259V145.728A1.69083,1.69083,0,0,1,372.25,147.64062Z" transform="translate(-82.04382 -76.7666)"/><path class="ed71cfce-f919-4e64-be76-572348e6ab17" d="M446.542,165.55957c0,.20117.13379.36963.40235.50293a16.43329,16.43329,0,0,1,6.292,6.39258,19.58388,19.58388,0,0,1,2.06347,9.31152q0,10.36963-7.248,15.251-7.248,4.88524-18.82471,4.88281H402.55029a1.69,1.69,0,0,1-1.91259-1.91309V133.3457a1.69063,1.69063,0,0,1,1.91259-1.91259H428.3208q12.88476,0,19.37891,4.58056,6.49292,4.5813,6.49267,15.35156,0,9.36183-7.248,13.69092C446.67578,165.19141,446.542,165.35791,446.542,165.55957ZM419.563,148.4458v9.46289a.71084.71084,0,0,0,.80517.80518h7.95264q7.34766,0,7.34912-5.53662,0-5.53492-7.34912-5.53663h-7.95264A.71162.71162,0,0,0,419.563,148.4458Zm16.81152,31.30811q0-5.63673-7.04687-5.6377h-8.95948a.71158.71158,0,0,0-.80517.80567v9.96582a.71119.71119,0,0,0,.80517.80566h8.85889Q436.37329,185.69336,436.37451,179.75391Z" transform="translate(-82.04382 -76.7666)"/><path class="ed71cfce-f919-4e64-be76-572348e6ab17" d="M503.11719,200.29,501.104,193.042a.87225.87225,0,0,0-.90625-.70508h-20.939a.86972.86972,0,0,0-.90576.70508L476.33936,200.29a1.96139,1.96139,0,0,1-2.11377,1.61035H457.91748a1.70417,1.70417,0,0,1-1.46-.60449,1.74127,1.74127,0,0,1-.15088-1.61035l20.939-66.6416a2.05271,2.05271,0,0,1,2.11377-1.61084h20.73779a2.05482,2.05482,0,0,1,2.11377,1.61084l20.939,66.6416a2.27146,2.27146,0,0,1,.10059.70507q0,1.51026-1.71143,1.50977H505.231A1.95982,1.95982,0,0,1,503.11719,200.29Zm-20.335-23.1543a.62254.62254,0,0,0,.70459.70508h12.48291a.67232.67232,0,0,0,.70459-.90625l-6.44239-23.25391c-.06787-.335-.21875-.50341-.45312-.50341-.23584,0-.41992.16845-.55371.50341l-6.44287,23.25391Z" transform="translate(-82.04382 -76.7666)"/><path class="ed71cfce-f919-4e64-be76-572348e6ab17" d="M536.3374,199.9375a21.96824,21.96824,0,0,1-9.66406-7.90234,20.9103,20.9103,0,0,1-3.42285-11.87891v-1.00684a1.69045,1.69045,0,0,1,1.91308-1.91211h14.79786q1.91088,0,1.91259,1.00586v1.10743q0,2.71875,2.91944,4.93261a11.80288,11.80288,0,0,0,7.34863,2.21485q3.72363,0,5.33545-1.56055a4.74623,4.74623,0,0,0,1.61084-3.47266,3.5766,3.5766,0,0,0-2.01318-3.32226,43.419,43.419,0,0,0-7.34913-2.71778l-2.91943-.80566a53.74439,53.74439,0,0,1-16.71045-8.05322q-6.74561-5.03247-6.74463-14.59668a19.06815,19.06815,0,0,1,3.42237-11.22461,21.89449,21.89449,0,0,1,9.41259-7.49951,33.23347,33.23347,0,0,1,13.439-2.61719,33.90544,33.90544,0,0,1,14.24463,2.91943,24.05675,24.05675,0,0,1,10.06689,8.2544,20.96949,20.96949,0,0,1,3.67432,12.18066v.50342a1.6908,1.6908,0,0,1-1.91309,1.9126H560.90039q-1.91382,0-1.9126-.80518v-.80517a7.30533,7.30533,0,0,0-2.71826-5.48633,10.52465,10.52465,0,0,0-7.34863-2.46631,8.70862,8.70862,0,0,0-5.0835,1.30859,4.18566,4.18566,0,0,0-1.86279,3.624,4.02488,4.02488,0,0,0,1.35937,3.07031,14.068,14.068,0,0,0,4.17774,2.416q2.81689,1.1587,8.65723,2.96973.80419.30175,7.09716,2.16406a21.82716,21.82716,0,0,1,10.51953,6.74512,17.45025,17.45025,0,0,1,4.228,11.82861,19.62956,19.62956,0,0,1-3.42236,11.47559,21.90707,21.90707,0,0,1-9.61377,7.60059,35.7035,35.7035,0,0,1-14.24463,2.668A35.18126,35.18126,0,0,1,536.3374,199.9375Z" transform="translate(-82.04382 -76.7666)"/><path class="ed71cfce-f919-4e64-be76-572348e6ab17" d="M633.78223,147.64062H604.3877a.71177.71177,0,0,0-.80567.80518v8.85889a.711.711,0,0,0,.80567.80517h17.91894a1.69127,1.69127,0,0,1,1.91211,1.9126v12.28125a1.69064,1.69064,0,0,1-1.91211,1.91309H604.3877a.71172.71172,0,0,0-.80567.80566v9.86524a.71134.71134,0,0,0,.80567.80566h29.39453a1.691,1.691,0,0,1,1.91308,1.91211V199.9873a1.69094,1.69094,0,0,1-1.91308,1.91309H586.56934a1.69,1.69,0,0,1-1.9126-1.91309V133.3457a1.69064,1.69064,0,0,1,1.9126-1.91259h47.21289a1.69157,1.69157,0,0,1,1.91308,1.91259V145.728A1.691,1.691,0,0,1,633.78223,147.64062Z" transform="translate(-82.04382 -76.7666)"/><path class="ed71cfce-f919-4e64-be76-572348e6ab17" d="M642.03613,199.9873V133.3457a1.69118,1.69118,0,0,1,1.91309-1.91259H669.418a35.013,35.013,0,0,1,14.44531,2.81884,22.274,22.274,0,0,1,9.71484,7.95264A20.92107,20.92107,0,0,1,697.001,154.0835V179.25a20.91777,20.91777,0,0,1-3.42286,11.87891,22.26489,22.26489,0,0,1-9.71484,7.95312,35.005,35.005,0,0,1-14.44531,2.81836H643.94922A1.69056,1.69056,0,0,1,642.03613,199.9873Zm19.73145-14.29394h8.35547a7.00679,7.00679,0,0,0,5.63672-2.668,11.01923,11.01923,0,0,0,2.31543-6.99609V157.30469a10.604,10.604,0,0,0-2.21485-6.99658,7.21784,7.21784,0,0,0-5.83887-2.66749h-8.2539a.71177.71177,0,0,0-.80567.80518v36.4419A.71134.71134,0,0,0,661.76758,185.69336Z" transform="translate(-82.04382 -76.7666)"/><path class="ed71cfce-f919-4e64-be76-572348e6ab17" d="M736.71289,199.38379a23.87249,23.87249,0,0,1-9.76465-9.36231,27.36484,27.36484,0,0,1-3.47265-13.8916V157.10352a27.0924,27.0924,0,0,1,3.47265-13.8418,23.97257,23.97257,0,0,1,9.76465-9.312,30.699,30.699,0,0,1,14.54688-3.32178,31.75429,31.75429,0,0,1,14.3955,3.1709,24.13913,24.13913,0,0,1,9.81446,8.60693,21.63453,21.63453,0,0,1,3.47363,11.87891q0,1.61133-1.91309,1.61084h-14.999q-1.91456,0-1.91309-.50342v-.40283a7.925,7.925,0,0,0-2.36621-5.7378,8.66865,8.66865,0,0,0-6.49218-2.416,8.27269,8.27269,0,0,0-6.44336,2.66748,10.17136,10.17136,0,0,0-2.416,7.09717v20.1333a9.38632,9.38632,0,0,0,9.66406,9.76465,8.93144,8.93144,0,0,0,6.09082-2.06348,7.15392,7.15392,0,0,0,2.36524-5.6875v-1.00684a.7122.7122,0,0,0-.80469-.80566h-8.1543a1.69025,1.69025,0,0,1-1.91308-1.91211v-11.2749a1.69133,1.69133,0,0,1,1.91308-1.91309h25.46875a1.69172,1.69172,0,0,1,1.91309,1.91309v13.38818a25.48215,25.48215,0,0,1-3.47363,13.28809,23.60591,23.60591,0,0,1-9.76465,9.06055,31.25008,31.25008,0,0,1-14.44531,3.22167A30.69346,30.69346,0,0,1,736.71289,199.38379Z" transform="translate(-82.04382 -76.7666)"/><path class="ed71cfce-f919-4e64-be76-572348e6ab17" d="M798.11914,199.73633a24.27369,24.27369,0,0,1-9.916-9.46289,27.72671,27.72671,0,0,1-3.52246-14.14356V157.2041a27.05132,27.05132,0,0,1,3.52246-13.89209,24.04954,24.04954,0,0,1,9.916-9.3623,34.62343,34.62343,0,0,1,29.59668,0,24.06464,24.06464,0,0,1,9.915,9.3623,27.06134,27.06134,0,0,1,3.52344,13.89209v18.92578a27.73681,27.73681,0,0,1-3.52344,14.14356,24.28905,24.28905,0,0,1-9.915,9.46289,34.157,34.157,0,0,1-29.59668,0Zm21.543-15.60352a10.45174,10.45174,0,0,0,2.56738-7.39941v-19.731a10.45538,10.45538,0,0,0-2.56738-7.39892,8.82957,8.82957,0,0,0-6.79492-2.76807,8.707,8.707,0,0,0-6.69434,2.76807,10.451,10.451,0,0,0-2.56738,7.39892v19.731a10.44739,10.44739,0,0,0,2.56738,7.39941,8.70061,8.70061,0,0,0,6.69434,2.76856A8.82315,8.82315,0,0,0,819.66211,184.13281Z" transform="translate(-82.04382 -76.7666)"/><path class="ed71cfce-f919-4e64-be76-572348e6ab17" d="M889.47461,200.29l-2.01367-7.24805a.87091.87091,0,0,0-.90528-.70508H865.61621a.87057.87057,0,0,0-.90625.70508L862.69727,200.29a1.9622,1.9622,0,0,1-2.11426,1.61035h-16.3086a1.70281,1.70281,0,0,1-1.459-.60449,1.73838,1.73838,0,0,1-.15137-1.61035l20.93848-66.6416a2.05394,2.05394,0,0,1,2.11426-1.61084h20.7373a2.05464,2.05464,0,0,1,2.11426,1.61084l20.93945,66.6416a2.28612,2.28612,0,0,1,.10059.70507q0,1.51026-1.71192,1.50977H891.58887A1.9597,1.9597,0,0,1,889.47461,200.29Zm-20.335-23.1543a.62269.62269,0,0,0,.70508.70508h12.48242a.67238.67238,0,0,0,.70508-.90625l-6.44336-23.25391c-.06739-.335-.21875-.50341-.45313-.50341-.23535,0-.41992.16845-.55371.50341l-6.44238,23.25391Z" transform="translate(-82.04382 -76.7666)"/><path class="ed71cfce-f919-4e64-be76-572348e6ab17" d="M915.94824,199.9873V133.3457a1.69118,1.69118,0,0,1,1.91309-1.91259h15.09961a1.69157,1.69157,0,0,1,1.91308,1.91259v51.542a.71134.71134,0,0,0,.80567.80566h30.40136a1.69034,1.69034,0,0,1,1.91211,1.91211V199.9873a1.69025,1.69025,0,0,1-1.91211,1.91309H917.86133A1.69056,1.69056,0,0,1,915.94824,199.9873Z" transform="translate(-82.04382 -76.7666)"/><path class="ed71cfce-f919-4e64-be76-572348e6ab17" d="M985.50879,199.9375a21.971,21.971,0,0,1-9.66406-7.90234,20.9103,20.9103,0,0,1-3.42285-11.87891v-1.00684a1.69025,1.69025,0,0,1,1.91308-1.91211h14.79785q1.91163,0,1.91309,1.00586v1.10743q0,2.71875,2.91894,4.93261a11.801,11.801,0,0,0,7.34864,2.21485q3.72363,0,5.33593-1.56055a4.74743,4.74743,0,0,0,1.61036-3.47266,3.57621,3.57621,0,0,0-2.01368-3.32226,43.37477,43.37477,0,0,0-7.34863-2.71778l-2.91894-.80566a53.74185,53.74185,0,0,1-16.71094-8.05322q-6.74561-5.03247-6.74512-14.59668a19.06859,19.06859,0,0,1,3.42285-11.22461,21.89883,21.89883,0,0,1,9.41211-7.49951,33.23752,33.23752,0,0,1,13.43946-2.61719,33.90476,33.90476,0,0,1,14.24414,2.91943,24.05524,24.05524,0,0,1,10.06738,8.2544,20.96555,20.96555,0,0,1,3.67383,12.18066v.50342a1.6905,1.6905,0,0,1-1.91211,1.9126h-14.79883q-1.91309,0-1.91211-.80518v-.80517a7.30637,7.30637,0,0,0-2.71777-5.48633,10.5264,10.5264,0,0,0-7.34961-2.46631,8.708,8.708,0,0,0-5.083,1.30859,4.1841,4.1841,0,0,0-1.86231,3.624,4.02731,4.02731,0,0,0,1.3584,3.07031,14.087,14.087,0,0,0,4.17774,2.416q2.81689,1.1587,8.65722,2.96973.80566.30175,7.09766,2.16406a21.82721,21.82721,0,0,1,10.51953,6.74512,17.453,17.453,0,0,1,4.22852,11.82861,19.63342,19.63342,0,0,1-3.42285,11.47559,21.90021,21.90021,0,0,1-9.61426,7.60059,35.69941,35.69941,0,0,1-14.24414,2.668A35.178,35.178,0,0,1,985.50879,199.9375Z" transform="translate(-82.04382 -76.7666)"/></svg>